<?xml version="1.0" encoding="utf-8"?>
<!-- Generator: Adobe Illustrator 22.1.0, SVG Export Plug-In . SVG Version: 6.00 Build 0)  -->
<svg version="1.1" id="Calque_1" xmlns="http://www.w3.org/2000/svg" xmlns:xlink="http://www.w3.org/1999/xlink" x="0px" y="0px"
	 viewBox="0 0 770.2 448.5" style="enable-background:new 0 0 770.2 448.5;" xml:space="preserve">
<style type="text/css">
	.st0{fill:url(#SVGID_1_);}
	.st1{fill:#FFFFFF;}
	.st2{fill:url(#SVGID_2_);}
	.st3{fill:url(#SVGID_3_);}
	.st4{fill:#EA4846;}
	.st5{fill:url(#SVGID_4_);}
	.st6{fill:#FFDAC0;}
	.st7{fill:url(#SVGID_5_);}
	.st8{fill:#56B746;}
	.st9{fill:#4DC7F6;}
	.st10{fill:#FFE871;}
	.st11{fill:#B35B3D;}
</style>
<title>Obélix lancer de menhir</title>
<path d="M9.5-8.8l0.2-0.1l0.2,0.2c-0.1,0-0.2,0-0.3,0C9.6-8.7,9.5-8.7,9.5-8.8z"/>
<path d="M654.5,5.9c1.2-0.4,2.4-0.5,3.7-0.5c2,0.2,3.9,0.5,5.8,0.9c2.8,0.6,5.8,0.8,8.7,0.5c2.5-0.4,5.1-0.8,7.5,0.6
	c0.1,0.1,0.3,0,0.3,0.1c1.2,1.6,2.8,1,4.2,0.5c1.2-0.3,2.5-0.1,3.6,0.6c1.5,0.8,3.1,1.2,4.6,1.9c2.4,0.9,4.9,1.4,7.5,1.3
	c2.1-0.1,4.1-0.1,6.2,0c2.8,0.4,5.7,0.4,8.4,1.4c1.2,0.4,2.5,0.7,3.8,0.9c2,0.2,3.9,0.4,5.9,0.4c1.9,0,3.8,0.3,5.7,0.8
	c0.3,0,0.6,0.2,0.8,0.3c1.4,1,3.2,1.4,4.9,1.2c2.6-0.2,5.2,0.4,7.6,1.7c1.9,1.1,4,1.2,6,1.5c3.3,0.4,6.4,1.2,9,3.5
	c1.3,1.2,2.8,2.2,4.4,2.9c2.5,0.9,4.7,2.7,6.1,5c0.7,0.9,0.9,2.1,0.6,3.2c-0.2,0.6-0.2,1.3,0,1.9c0.6,1.6,0,3.4-1.4,4.3
	c-2.2,1.8-4.2,3.8-6.1,6c-1.7,1.9-3.8,3.5-6,4.7c-2.3,1.4-4.3,3.4-6.5,5.1c-0.2,0.2-0.4,0.5-0.7,0.6c-2.9,1.1-4.7,3.7-7.1,5.4
	c-1.5,1.1-2.7,2.7-4.3,3.7c-3,1.8-5.9,4-8.9,6c-1,0.7-2,1.3-3,1.9c-2,1-3.6,2.5-4.9,4.4c-0.7,1-1.6,1.9-2.6,2.7
	c-2.2,1.7-4.7,3.1-7.2,4.3c-2.1,0.8-4.1,2-5.9,3.4c-1.2,1-2.6,1.5-4.1,1.6c-0.9,0.1-1.7,0.4-2.6,0.7c-1.8,0.7-3.6,1.2-5.5,1.5
	c-2.2,0.2-4.3,0.9-6.1,2.2c-2.1,1.6-4.7,2.1-7.2,2.4c-1.7,0.2-3.3,0.8-4.8,1.7c-1.6,1.1-3.4,1.8-5.3,2c-2.1,0.3-4,1.2-5.5,2.7
	c-1.8,1.6-3.8,3-6.5,3c-1.2,0-2.3,0.5-3,1.4c-1,1.2-2.3,1.9-3.8,2.1c-1.4,0.2-2.6,0.8-3.7,1.7c-1.3,1-2.9,1.6-4.5,1.7
	c-0.9,0.2-1.8,0.6-2.5,1.3c-1.1,0.8-2.1,1.7-3.2,2.6c-0.1,0.1-0.2,0.1-0.3,0.2c-0.5,1.6-2.2,1.9-3.3,2.7c-1.3,0.8-2.6,1.4-4.1,1.8
	c-1.7,0.6-3.3,1.4-4.8,2.4c-2.5,1.7-5.3,2.3-8.2,2.9c-2,0.3-3.8,1.1-5.3,2.3c-1,0.7-2,1.3-3,1.8c-0.6,0.4-1.3,0.8-2,1.1
	c-1.3,0.5-2.7,0.8-4.1,1.1c-2.8,0.3-5.5,1.4-7.7,3c-2.9,2.2-6.4,3.6-10,4c-2.5,0.5-4.9,1.5-7,3c-1.2,0.8-2.5,1.3-3.9,1.6
	c-2.4,0.5-4.8,1.2-7.3,0.9c-0.7,0-1.3,0.1-1.9,0.5c-1.3,0.8-2.9,1.1-4.4,0.7c-0.5,0-1.1,0.1-1.5,0.4c-1.6,0.6-3.2,1.3-4.9,1.8
	c-1.4,0.4-2.9,0.7-4.4,0.9c-1.9,0.3-3.7,0.9-5.5,1.7c-2.8,1.4-5.7,2.7-8.6,3.8c-2.2,0.7-4.6,0.9-6.9,0.4c-3.1-0.6-6.3-0.4-9.3,0.6
	c-2.7,1-5.6,1.3-8.5,0.8c-2.3-0.5-4.7-0.5-7.1,0c-0.8,0.2-1.7,0.7-2.5,1c-2,0.7-3.9,1.4-5.9,2.1c-0.4,0.1-0.8,0.2-1.2,0.4
	c-0.6,0.3-1.4,0.4-2,0.1c-0.9-0.3-1.8-0.5-2.8-0.6c-1-0.1-2,0.3-2.5,1.1c-0.7,0.7-1.6,1-2.5,1.1c-1.7,0.2-3.5,0.4-5.2,0.7
	c-1.3,0.3-2.6,0.9-3.9,1.1c-2.8,0.5-5.6,0.6-8.2-0.8c-1.5-0.7-3.2-0.9-4.9-0.6c-1.1,0.1-2.1,0.3-3.2,0.4c-1.5,0-3-0.5-4.1-1.5
	c-2.2-1.4-4.7-2.3-7.3-2.4c-2.5-0.2-4.9-1.2-6.8-2.8c-0.9-0.8-1.7-1.7-2.5-2.5c-1.6-1.6-3.6-2.7-5.8-3.3c-1.1-0.4-2.1-1.2-2.6-2.3
	c-1.1-2-2.4-3.8-4.7-4.7c-0.4-0.2-0.8-0.5-1-0.9c-1.5-2.1-3-4.3-4.4-6.5c-0.1-0.2-0.3-0.4-0.5-0.5c-2-1.1-2.9-3.1-3.7-5.1
	c-0.8-2.4-2-4.6-3.5-6.5c-0.8-1.1-1.4-2.4-1.9-3.6c-0.4-0.8-0.9-1.7-1.2-2.6c-0.5-1.3-0.9-2.5-1.3-3.8c-0.4-1.5-0.4-3.3-1-4.7
	c-0.9-2.2-1.3-4.6-1.2-7c0-1.3,0.2-2.7,0.3-4.1c0-0.5,0-1.1-0.1-1.6c-0.6-2.6-0.7-5.3-0.3-8c0-0.5,0.2-1.1,0.4-1.5
	c1.3-1.6,1.4-3.6,1.4-5.4c0-2.8,1.1-5.4,3.1-7.3c2-2.2,4.3-4.1,6.9-5.6c1.2-0.8,2.3-1.9,3.2-3.1c0.5-0.5,1-1,1.6-1.3
	c2.8-1.7,6-2.9,8.2-5.6c1.5-1.6,3.3-2.8,5.3-3.6c0.4-0.1,0.8-0.3,1-0.6c0.9-1.2,2.3-1.9,3.3-2.9c2.2-2.3,5.1-3,7.9-4
	c1.2-0.4,2.4-1,3.6-1.6c1-0.5,1.9-1.1,2.8-1.8c1-0.7,1.9-1.6,2.9-2.3c0.5-0.3,1-0.6,1.6-0.7c1.7-0.4,3.4-0.7,5-1.2
	c3.7-1,4.8-1.8,7.7-5c1.9-2.1,4.4-3.8,7-4.8c2.2-0.8,4.3-1.9,6.7-1.9c1.9,0,3.7-0.4,5.4-1c1.4-0.5,2.8-1.1,4.1-1.8
	c1.8-1.2,3.9-1.8,6.1-1.6c2.1,0.2,4.2-0.2,6.1-1.2c0.3-0.1,0.6-0.2,0.9-0.2c1.3,0.6,2.4-0.1,3.4-0.7c1.8-1,4-1.1,5.5-2.6
	c0.2-0.1,0.5-0.2,0.7-0.1c2.5,0.3,4.8-0.8,7.2-1.3c2.5-0.6,5-0.6,7.5-0.1c2.9,0.6,5.8,0.6,8.7,0.1c1.2-0.2,2.3-0.6,3.4-1.1
	c2.1-0.9,4.1-1.9,6.2-2.8c1-0.5,2.1-0.8,3.3-0.8c4,0.1,8-0.5,11.8-1.8c2.9-0.9,6-1.4,9.1-1.3c3.5,0.2,6.9-0.2,10.3-1.1
	c2.7-0.8,5.5-1,8.3-0.6c2.5,0.5,5.1,0.4,7.6-0.1c1.5-0.4,3-0.8,4.5-1c1.8-0.3,3.5-0.3,5.3-0.2c3.6,0.4,7.1-0.3,10.6-0.7
	c1.7-0.3,3.4-0.3,5,0.2c1.1,0.4,2.5,0,3.7,0c0.8,0,1.7-0.2,2.5-0.2C635.5,7,639,7,642.6,7c1.3,0,2.5,0,3.8,0.2
	C649.1,7.6,651.8,6.7,654.5,5.9z M664.5,7.7c-2.5-1-5.3-1.2-7.9-0.8c-1.1,0.2-2.2,0.4-3.3,0.7c-2.4,0.7-4.8,1-7.3,0.9
	c-0.8-0.1-1.7-0.3-2.5-0.3c-2.1,0-4.2,0.1-6.3,0.2c-2.8,0.1-5.5,0.2-8.3,0.2c-1.5,0-3-0.1-4.4-0.1c-1.1-0.1-2.2-0.1-3.4,0
	c-2.4,0.3-4.7,0.7-7.1,1c-0.7,0.1-1.3,0-2-0.1c-2.4-0.4-4.9-0.4-7.3-0.1c-2.2,0.3-4.3,1-6.5,1.4c-1.3,0.3-2.7,0.4-4.1,0.2
	c-3-0.6-6.1-0.5-9,0.3c-2,0.5-4,1.2-6.1,0.9c-0.2,0-0.4,0-0.5,0.1c-1.2,0.2-2.4,0.3-3.5,0.3c-4-0.4-8.1,0.2-11.8,2
	c-0.3,0.1-0.7,0.2-1.1,0.2c-0.6,0.1-1.2,0.1-1.8,0.3c-1.9,0.6-3.9,0.8-5.8,0.7c-2.7-0.3-5,0.8-7.2,2c-3.4,1.7-6.8,3.2-10.6,2.9
	c-2-0.2-4-0.4-6.1-0.5c-1.5-0.2-3-0.2-4.6,0c-2,0.3-3.9,0.9-5.9,1.4c-0.6,0.2-1.3,0.3-1.9,0.3c-1,0-2,0.3-2.8,0.8
	c-0.4,0.2-0.7,0.6-1.1,0.6c-1.6,0-2.8,1-4.1,1.7c-0.7,0.4-1.6,0.6-2.4,0.5c-0.7-0.1-1.4,0.1-2.1,0.3c-1.3,0.5-2.7,0.7-4.1,0.6
	c-2-0.3-4,0.1-5.7,1.1c-3.6,2.2-7.7,3.4-11.9,3.4c-0.6,0.1-1.3,0.2-1.9,0.4c-0.9,0.3-1.8,0.6-2.7,1c-1.7,0.8-3.4,1.7-5,2.7
	c-2.2,1.3-3.6,3.5-5.5,5.2c-0.5,0.5-1.1,0.9-1.7,1.2c-2.4,0.8-4.8,1.5-7.2,2.1c-1.5,0.3-2.9,0.8-4.1,1.7c-0.9,0.7-1.8,1.4-2.7,2
	c-1.8,1.4-3.8,2.4-5.9,3c-3.6,0.8-6.4,2.9-9,5.3c-0.8,0.8-1.7,1.4-2.7,2c-1.6,0.9-3.1,2-4.5,3.2c-1.8,1.8-3.8,3.3-6,4.4
	c-1.3,0.6-2.4,1.3-3.4,2.2c-1.3,1.4-2.8,2.7-4.5,3.8c-1.4,0.9-2.8,1.9-4.2,3c-3,2.3-4.7,5.9-4.5,9.7c0.1,1.3-0.3,2.6-1,3.8
	c-0.7,1.1-1,2.4-0.9,3.8c0,2.2-0.4,4.5,0.1,6.7c0.1,0.4,0.1,0.8,0,1.3c-0.1,1.1-0.3,2.2-0.5,3.3c0.1,2.4,0.6,4.8,1.4,7
	c0.5,1.6,0.9,3.3,1.2,5c0.2,1.1,0.5,2.2,0.9,3.3c0.5,1.4,1.3,2.7,1.9,4c0.4,1.2,1.1,2.3,2,3.1c0.5,0.5,0.9,1.1,1.2,1.8
	c0.9,1.9,1.9,3.7,2.6,5.7c0.5,1.1,1.2,2.1,2.1,2.8c0.6,0.5,1.1,1,1.6,1.6c1.1,1.5,2,3.1,3.1,4.5c0.5,0.7,1.1,1.6,1.8,1.9
	c1.8,0.6,3.2,2,3.9,3.7c1,1.8,2.6,3.1,4.5,3.8c1.7,0.7,3.1,1.7,4.4,3c1,1.1,2.1,2.1,3.3,2.9c1.4,0.8,3,1.3,4.6,1.5
	c3,0.3,5.9,1.3,8.5,2.9c1.7,0.9,3.6,1.3,5.5,0.9c2.3-0.3,4.6-0.4,6.8,0.8c1.1,0.4,2.3,0.7,3.5,0.8c2,0.4,3.8-0.5,5.7-1
	c1.6-0.5,3.3-0.8,5.1-1c1.7,0,3.4-0.6,4.8-1.6c0.5-0.4,1.2-0.5,1.8-0.5c2.2,0.2,4.4,0.7,6.7-0.1c1.8-0.6,3.8-0.9,5.5-2
	c1.4-0.9,3.1-1.3,4.8-1.2c1.8,0.1,3.6,0,5.3,0.2c2.9,0.3,5.9-0.1,8.7-1c2.2-0.7,4.6-0.8,6.9-0.5c2.8,0.4,5.7,0.8,8.5-0.2
	c1.6-0.6,3.1-1.5,4.7-2.2c3.2-1.5,6.4-3.1,10.1-3.4c2-0.2,3.9-0.7,5.7-1.5c1.6-0.8,3.3-1.4,5.1-1.7c3-0.5,6.1-0.6,9.2-1
	c2.9-0.2,5.8-1.2,8.2-2.9c0.6-0.4,1.2-0.7,1.9-1c2.3-1.1,4.8-1.8,7.4-2.1c1.9-0.3,3.8-1.1,5.4-2.3c2.5-1.9,5.4-3.1,8.4-3.6
	c1.4-0.2,2.7-0.5,4-1.1c2.3-1.1,4.4-2.3,6.6-3.6c1.3-0.9,2.7-1.5,4.2-1.8c3.2-0.4,6.2-1.5,8.9-3.2c1.4-0.9,2.9-1.6,4.5-2.2
	c2.2-0.6,4.2-1.9,5.7-3.6c0.4-0.3,0.7-0.6,1.1-0.9c1.3-1.1,2.6-2.1,3.8-3.2c0.8-0.8,1.9-1.3,3-1.4c1.1-0.1,2.1-0.4,3-1
	c1.5-1,3.1-1.8,4.8-2.3c0.9-0.2,1.8-0.6,2.5-1.3c1.2-1.2,2.8-2,4.6-2.2c2-0.2,3.8-1.1,5.3-2.4c2.2-1.8,4.9-3.1,7.7-3.5
	c1.3-0.2,2.5-0.7,3.6-1.4c1.4-1.1,3-1.7,4.7-1.9c2.9-0.3,5.8-0.8,8.1-3c0.2-0.2,0.5-0.4,0.8-0.5c1.9-1,3.9-1.5,6-1.6
	c0.8,0,1.7-0.2,2.4-0.6c1.3-0.8,2.9-1.3,4.4-1.3c1.5-0.1,2.9-0.6,4.1-1.5c0.9-0.6,1.8-1.2,2.7-1.7c3-1.6,6.2-2.8,8.9-4.8
	c1.5-0.9,2.7-2.1,3.7-3.5c1.4-2.2,3.4-3.9,5.7-5c2.6-1.3,5.1-3,7.3-4.8c0.8-0.7,1.7-1.3,2.6-1.8c1.4-0.7,2.6-1.6,3.7-2.7
	c2.2-2,4.4-4,6.7-5.9c1-0.8,2.3-1.3,3.4-2c1.6-1.2,3-2.6,4.5-3.8c0.8-0.7,1.6-1.2,2.5-1.7c2.8-1.3,4.6-3.5,6.4-5.8
	c0.9-1,1.8-1.9,2.8-2.8c0.8-0.8,1.8-1.6,2.5-2.5c0.3-0.4,0.4-1,0.4-1.5c0-1.4-0.3-2.7-0.3-4.1c0-1-0.4-1.9-1.1-2.6
	c-0.6-0.6-1.3-1.2-2.1-1.7c-2.7-1.6-5.5-2.9-7.8-4.9c-1.8-1.5-3.9-2.3-6.2-2.5c-3-0.3-5.9-1-8.6-2.2c-1.3-0.6-2.6-0.9-4-0.9
	c-2.9-0.1-5.8-0.2-8.3-1.6c-1.2-0.6-2.5-0.9-3.8-0.9c-1.4-0.2-2.8,0-4.1-0.2c-2.9-0.1-5.7-0.5-8.5-1.3c-2.5-0.8-5.1-1.2-7.7-1.3
	c-2.4-0.2-4.9,0.1-7.3,0.1c-3.3,0-6.3-1.2-9.3-2.4c-2-0.9-3.9-1.7-6.2-0.9c-0.9,0.3-1.9,0.1-2.6-0.6c-1.5-1.2-3.4-1.7-5.2-1.4
	c-3.2,0.5-6.5,0.5-9.8,0.2C665.2,8,664.8,7.9,664.5,7.7L664.5,7.7z"/>
<linearGradient id="SVGID_1_" gradientUnits="userSpaceOnUse" x1="444.1823" y1="52.6801" x2="601.0986" y2="52.6801" gradientTransform="matrix(0 -1 -1 0 640.2332 607.8273)">
	<stop  offset="0" style="stop-color:#FFFFFF"/>
	<stop  offset="0.37" style="stop-color:#FDFDFD"/>
	<stop  offset="0.51" style="stop-color:#F6F6F6"/>
	<stop  offset="0.6" style="stop-color:#EBEBEB"/>
	<stop  offset="0.68" style="stop-color:#DADADA"/>
	<stop  offset="0.75" style="stop-color:#C4C4C4"/>
	<stop  offset="0.8" style="stop-color:#A8A8A8"/>
	<stop  offset="0.86" style="stop-color:#888888"/>
	<stop  offset="0.91" style="stop-color:#626262"/>
	<stop  offset="0.95" style="stop-color:#373737"/>
	<stop  offset="0.99" style="stop-color:#090909"/>
	<stop  offset="1" style="stop-color:#000000"/>
</linearGradient>
<path class="st0" d="M656.5,6.9c2.7-0.4,5.4-0.2,7.9,0.8c0.4,0.1,0.8,0.2,1.2,0.3c3.3,0.3,6.5,0.3,9.8-0.2c1.9-0.3,3.7,0.2,5.2,1.4
	c0.7,0.6,1.7,0.9,2.6,0.6c2.2-0.8,4.2,0,6.2,0.9c3,1.3,6,2.4,9.3,2.4c2.5,0,4.9-0.3,7.3-0.1c2.6,0.1,5.2,0.6,7.7,1.3
	c2.8,0.8,5.6,1.2,8.5,1.3c1.4,0.1,2.8,0,4.1,0.2c1.3,0,2.6,0.4,3.8,0.9c2.6,1.5,5.5,1.5,8.3,1.6c1.4,0,2.7,0.3,4,0.9
	c2.7,1.2,5.7,1.9,8.6,2.2c2.3,0.2,4.5,1.1,6.2,2.5c2.3,2,5.2,3.4,7.8,4.9c0.8,0.5,1.5,1,2.1,1.7c0.7,0.7,1.1,1.6,1.1,2.6
	c0,1.4,0.3,2.7,0.3,4.1c0,0.5-0.1,1-0.4,1.5c-0.8,0.9-1.7,1.7-2.5,2.5c-1,0.9-1.9,1.8-2.8,2.8c-1.9,2.3-3.7,4.5-6.4,5.8
	c-0.9,0.5-1.8,1-2.5,1.7c-1.5,1.2-2.9,2.6-4.5,3.8c-1,0.8-2.4,1.2-3.4,2c-2.3,1.9-4.5,3.9-6.7,5.9c-1.1,1.1-2.3,2-3.7,2.7
	c-0.9,0.5-1.8,1.1-2.6,1.8c-2.3,1.8-4.7,3.4-7.3,4.8c-2.3,1.1-4.3,2.8-5.7,5c-1,1.4-2.3,2.6-3.7,3.5c-2.7,2-5.9,3.3-8.9,4.8
	c-0.9,0.5-1.8,1.1-2.7,1.7c-1.2,0.9-2.6,1.4-4.1,1.5c-1.6,0.1-3.1,0.5-4.4,1.3c-0.7,0.4-1.6,0.6-2.4,0.6c-2.1,0.1-4.1,0.6-6,1.6
	c-0.3,0.1-0.5,0.3-0.8,0.5c-2.3,2.2-5.1,2.7-8.1,3c-1.8,0.1-3.4,0.8-4.8,1.9c-1.1,0.8-2.4,1.3-3.7,1.5c-2.8,0.5-5.5,1.7-7.7,3.5
	c-1.5,1.3-3.3,2.2-5.3,2.4c-1.7,0.2-3.4,0.9-4.6,2.2c-0.7,0.6-1.6,1.1-2.5,1.3c-1.7,0.5-3.3,1.3-4.8,2.3c-0.9,0.6-1.9,0.9-3,1
	c-1.1,0.1-2.2,0.6-3,1.4c-1.2,1.1-2.5,2.2-3.8,3.2c-0.4,0.3-0.8,0.6-1.1,0.9c-1.5,1.7-3.5,3-5.7,3.6c-1.6,0.6-3.1,1.3-4.5,2.2
	c-2.7,1.7-5.7,2.8-8.9,3.2c-1.5,0.3-3,0.9-4.2,1.8c-2.2,1.3-4.3,2.5-6.6,3.6c-1.3,0.5-2.6,0.9-4,1.1c-3.1,0.5-6,1.8-8.4,3.6
	c-1.6,1.2-3.4,2-5.4,2.3c-2.6,0.3-5,1-7.4,2.1c-0.7,0.3-1.3,0.6-1.9,1c-2.4,1.7-5.3,2.6-8.2,2.9c-3,0.4-6.1,0.5-9.2,1
	c-1.8,0.3-3.5,0.9-5.1,1.7c-1.8,0.9-3.7,1.4-5.7,1.5c-3.7,0.2-6.9,1.8-10.1,3.4c-1.6,0.8-3.1,1.6-4.7,2.2c-2.8,1-5.7,0.6-8.5,0.2
	c-2.3-0.3-4.7-0.2-6.9,0.5c-2.8,0.9-5.7,1.3-8.7,1c-1.8-0.2-3.6-0.2-5.3-0.2c-1.7-0.1-3.4,0.3-4.8,1.2c-1.7,1.1-3.7,1.4-5.5,2
	c-2.2,0.8-4.4,0.3-6.7,0.1c-0.6,0-1.3,0.1-1.8,0.5c-1.4,1-3.1,1.6-4.8,1.6c-1.7,0.2-3.4,0.5-5.1,1c-1.9,0.4-3.7,1.4-5.7,1
	c-1.2-0.1-2.4-0.4-3.5-0.8c-2.2-1.2-4.5-1.1-6.8-0.8c-1.9,0.4-3.8,0.1-5.5-0.9c-2.6-1.6-5.5-2.6-8.5-2.9c-1.6-0.2-3.2-0.7-4.6-1.5
	c-1.2-0.8-2.4-1.8-3.3-2.9c-1.2-1.3-2.7-2.3-4.4-3c-1.9-0.6-3.6-2-4.5-3.8c-0.7-1.7-2.1-3.1-3.9-3.7c-0.7-0.2-1.3-1.1-1.8-1.9
	c-1.1-1.5-2-3.1-3.1-4.5c-0.5-0.6-1-1.1-1.6-1.6c-0.9-0.8-1.6-1.7-2.1-2.8c-0.8-1.9-1.7-3.8-2.6-5.7c-0.3-0.7-0.7-1.3-1.2-1.8
	c-0.9-0.9-1.6-1.9-2-3.1c-0.6-1.3-1.3-2.7-1.9-4c-0.4-1.1-0.7-2.1-0.9-3.3c-0.3-1.7-0.7-3.4-1.2-5c-0.8-2.2-1.3-4.6-1.4-7
	c0.2-1.1,0.3-2.2,0.5-3.3c0.1-0.4,0.1-0.8,0-1.3c-0.5-2.2,0-4.5-0.1-6.7c-0.1-1.3,0.2-2.6,0.9-3.8c0.7-1.1,1.1-2.4,1-3.8
	c-0.2-3.8,1.5-7.5,4.5-9.8c1.3-1.1,2.7-2.2,4.1-3.2c1.6-1.1,3.1-2.4,4.5-3.8c1-0.9,2.2-1.7,3.4-2.3c2.2-1.2,4.2-2.6,6-4.4
	c1.4-1.3,2.9-2.3,4.5-3.2c1-0.6,1.9-1.2,2.7-2c2.6-2.4,5.4-4.5,9-5.3c2.1-0.6,4.1-1.6,5.9-3c0.9-0.6,1.8-1.3,2.7-2
	c1.2-0.9,2.6-1.4,4.1-1.7c2.4-0.6,4.8-1.3,7.2-2.1c0.7-0.3,1.2-0.7,1.7-1.2c1.9-1.7,3.3-3.8,5.5-5.2c1.6-1,3.3-1.8,5-2.7
	c0.9-0.4,1.8-0.7,2.7-1c0.6-0.2,1.3-0.4,1.9-0.4c4.2,0,8.3-1.2,11.9-3.4c1.7-1,3.7-1.4,5.7-1.1c1.4,0.1,2.8-0.1,4.1-0.6
	c0.7-0.2,1.4-0.4,2.1-0.3c0.8,0.1,1.7-0.1,2.4-0.5c1.3-0.7,2.5-1.7,4.1-1.7c0.4,0,0.7-0.4,1.1-0.6c0.8-0.6,1.8-0.9,2.8-0.8
	c0.6,0,1.3-0.1,1.9-0.3c2-0.5,3.9-1.1,5.9-1.4c1.5-0.2,3-0.2,4.6,0c2,0.1,4,0.3,6.1,0.5c3.9,0.3,7.3-1.2,10.6-2.9
	c2.2-1.1,4.5-2.3,7.2-2c2,0.1,4-0.1,5.8-0.7c0.6-0.2,1.2-0.2,1.8-0.3c0.4,0,0.7-0.1,1.1-0.2c3.7-1.8,7.8-2.4,11.8-2
	c1.2,0,2.4-0.1,3.5-0.3c0.2,0,0.4-0.1,0.5-0.1c2.1,0.3,4.1-0.5,6.1-0.9c2.9-0.7,6-0.8,9-0.3c1.4,0.2,2.7,0.1,4.1-0.2
	c2.2-0.4,4.3-1.1,6.5-1.4c2.4-0.3,4.9-0.3,7.3,0.1c0.7,0.1,1.3,0.2,2,0.1c2.4-0.3,4.7-0.7,7.1-1c1.1-0.1,2.2-0.1,3.4,0
	c1.5,0,3,0.1,4.4,0.1c2.8,0,5.5-0.1,8.3-0.2c2.1,0,4.2-0.2,6.3-0.2c0.8,0,1.6,0.2,2.5,0.3c2.5,0.1,4.9-0.2,7.3-0.9
	C654.3,7.4,655.4,7.2,656.5,6.9z"/>
<path d="M136,123.1L136,123.1c0.6-0.3,1.1-0.7,1.6-1l4.6-3l1.6,2.4c-1.9,1.3-3.8,2.6-5.7,4c-1.3,0.8-2.5,1.7-3.6,2.6
	c-1.3,1.2-3.6,1.2-4.1,3.3c0,0-0.1,0-0.2,0c-1,0.5-2,1-2.9,1.6c-0.8,0.4-1.3,1.1-1.4,2c0.3,0.2,0.7,0.4,1.1,0.6
	c3.1,1,5.8,2.7,8.7,4.1c0.3,0.2,0.6,0.3,0.9,0.5l-1.3,2.4c-2.1-1.1-4.1-2.1-6.3-3c-2.4-1.2-4.9-2.2-7.5-3c-4.6-1.2-9.2-2.6-14-3.6
	c-3.8-0.8-7.5-0.3-11.2,0c-1.8,0.2-3.7,0.5-5.5,0.8c-0.9,0.2-1.8,0.4-2.8,0.7l-0.6-2.2c3.9-1.2,7.8-2,11.8-2.4c4.3-0.4,8.6,0,12.8,1
	c0.7,0.2,1.5,0.6,2-0.4c0.1-0.1,0.3-0.2,0.5-0.1c1.1,0.6,1.8-0.2,2.6-0.7c3.1-1.7,6.2-3.3,9.2-5.2c2.4-1.4,4.7-3.1,7-4.6
	c2.1-1.4,4.1-2.8,6.1-4.3c0.8-0.6,1.5-1.3,2.4-1.9c2.5-1.5,5-3.1,7.5-4.5c3.6-2,7.3-4,10.9-5.8c3.9-2.1,8-3.8,12.1-5.3
	c4.5-1.6,9-3.1,13.7-4.3c1.9-0.5,3.7-0.8,5.6-1.1c4.1-0.7,8.3-1.3,12.4-1.8c6.5-0.8,13-1.5,19.4-2.2l10-1.1
	c3.7-0.4,7.4-0.1,11.1-0.1c4,0,8-0.2,12-0.2c2.7,0.1,5.5,0.4,8.2,0.7c3.5,0.4,7,0.8,10.5,1.3s6.7,1,10.1,1.5c1.5,0.2,3,0.4,4.4,0.6
	c0.4,0,0.7,0,1.1,0.1c3.7,0.8,7.4,1.5,11,2.5c2.8,0.8,5.6,1.5,8.5,2.1c0.2,0,0.4,0,0.5,0.1c2.9,1.6,6.2,2.4,9.3,3.8
	c1,0.4,2,0.9,3,1.3c3.3,1.4,6.4,3.1,9.5,4.8c2.9,1.8,5.6,3.8,8.1,6.1c1.7,1.4,3.2,3,4.5,4.8c0.7,1,1.3,2.1,1.9,3.2l-1.5,0.9
	c-0.7-1.2-1.5-2.4-2.5-3.4c-1.8-1.9-3.9-3.5-5.9-5.2c-2.8-2.7-6.2-4.8-9.8-6.1c-0.4-0.2-0.7-0.4-1.1-0.6c-2.7-1.3-5.3-2.6-8-3.9
	c-0.2-0.1-0.5-0.1-0.7-0.1c-1.5,0-3.1,0.1-3.9-1.6c0-0.1-0.2-0.1-0.3-0.2c-1.1-0.3-2.3-0.8-3.4-1c-2.5-0.3-4.9-1-7.2-1.9
	c-1.2-0.5-2.5-0.9-3.8-1.1c-2.2-0.5-4.3-0.8-6.5-1.2c-0.5-0.1-0.9-0.2-1.4-0.3c-3,0.1-5.9-1-8.8-1.3c-2.5-0.3-5.1-0.8-7.6-1.2
	c-3.6-0.5-7.3-0.7-10.9-1.3s-7-0.1-10.5-0.5c-0.2,0-0.5,0-0.7,0c-2.7,0-5.3,0.1-8,0.1c-2.4,0-4.9-0.3-7.3-0.1c-4,0.3-8,1.2-12.1,1.2
	c-5.3,0.1-10.4,1.6-15.6,1.7c-3.4,0-6.7,1-10.1,1.2c-3.1,0.2-6.2,0.8-9.2,1.5c-3.6,0.8-7.1,1.9-10.7,3c-1.9,0.6-3.8,1.3-5.7,2
	c-3.3,1.3-6.5,2.6-9.7,4.1c-2.7,1.3-5.3,2.8-7.9,4.2c-3.1,1.7-6.4,3.2-9.5,5.1c-2.7,1.6-5.2,3.6-7.8,5.4c-1,0.7-1.9,1.4-2.9,2.1
	c-0.1,0-0.1,0.1-0.2,0.1c-0.1,0.1-0.2,0.2-0.2,0.3C135.8,122.7,135.8,122.9,136,123.1L136,123.1L136,123.1c-0.2-0.1-0.4-0.2-0.5-0.2
	c-0.6-0.1-1.1,0.5-1.5,0.8c-3.7,2.4-7.5,4.6-11.4,6.6c-1.2,0.7-2.3,1.5-3.8,2.5l3.1,0.9c1-0.6,1.9-1.2,2.7-2c1.6-2,3.8-3.3,5.9-4.8
	C132.3,125.7,134.1,124.4,136,123.1L136,123.1L136,123.1L136,123.1z"/>
<path class="st1" d="M237.3,90.6c2.4-0.2,4.9,0.1,7.3,0.1c2.7,0,5.3-0.1,8-0.1c0.2,0,0.5-0.1,0.7,0c3.5,0.4,7-0.1,10.5,0.5
	s7.2,0.8,10.9,1.3c2.5,0.3,5.1,0.9,7.6,1.2c3,0.3,5.8,1.4,8.8,1.3c0.5,0,0.9,0.1,1.4,0.3c2.2,0.4,4.3,0.8,6.5,1.2
	c1.3,0.2,2.6,0.6,3.8,1.1c2.3,0.9,4.7,1.5,7.2,1.9c1.2,0.2,2.3,0.7,3.4,1c0.1,0,0.3,0.1,0.3,0.2c0.8,1.7,2.4,1.5,3.9,1.6
	c0.2,0,0.5,0,0.7,0.1c2.7,1.3,5.4,2.6,8,3.9c0.4,0.2,0.7,0.4,1.1,0.6c3.7,1.4,7,3.4,9.8,6.1c2,1.7,4.1,3.3,5.9,5.2
	c1,1,1.8,2.2,2.5,3.4c0.7,1.2,1.3,2.5,1.9,3.8c1.3,2.9,2.9,5.6,4.8,8c0.5,0.5,0.8,1.2,0.9,1.9c0.3,1.9,0.8,3.7,1.2,5.6l-1.4,0.6
	c0,0.5,0,1,0.1,1.5h-2.8c-0.2-2.6-1.4-4.9-2.7-7.1c-0.8-1.5-1.7-3-2.7-4.4c-1.1-1.6-2.4-3.2-3.6-4.8l-1.3-1.5
	c-1-1.4-2.2-2.5-3.7-3.3c-0.4-0.2-0.8-0.6-1-1c-0.9-1.3-2.1-2.3-3.4-3.1c-2.8-1.7-5.5-3.5-8.3-5.3c-2.5-1.5-5.3-2.5-8.1-3.2
	c-2.8-0.8-5.6-1.8-8.3-2.7c-2.3-0.8-4.6-1.7-7-2.3c-1.7-0.5-3.5-0.5-5.3-0.8c-2.5-0.5-5-1.1-7.5-1.6c-4.1-0.9-8.2-1.6-12.2-2.6
	c-5.2-1.3-10.5-1.6-15.8-2.1c-0.6,0-1.2-0.1-1.8-0.2c-1.5-0.3-2.8-1.4-4.6-1c-1.6,0.2-3.2,0.2-4.8,0.1c-3,0-6,0-9,0
	c-3.1,0-6.2,0.3-9.2,0.9c-3.1,0.5-6.3,0.8-9.4,0.9c-4,0.3-8,0.3-12,0.8c-5.4,0.6-10.8,1.2-16.1,2.2c-4.1,0.8-8.2,2.2-12.3,3.2
	c-4.3,1.1-8.7,2.1-13,3.2c-3.2,0.8-6.3,1.9-9.3,3.2c-2.4,1-4.7,2.2-6.9,3.4c-1.8,1.1-3.5,2.2-5.3,3.3c-1.2,0.8-2.4,1.6-3.7,2.4
	l-4.6,3c-0.5,0.3-1.1,0.7-1.6,1c-0.1-0.2-0.2-0.4-0.1-0.6c0-0.1,0.1-0.2,0.2-0.3c0.1-0.1,0.1-0.1,0.2-0.1c1-0.7,1.9-1.4,2.9-2.1
	c2.6-1.8,5.1-3.8,7.8-5.4c3.1-1.8,6.3-3.4,9.5-5.1c2.6-1.4,5.2-3,7.9-4.2c3.2-1.5,6.4-2.8,9.7-4.1c1.9-0.8,3.8-1.4,5.7-2
	c3.5-1,7.1-2.1,10.7-3c3-0.8,6.1-1.3,9.2-1.5c3.4-0.2,6.7-1.1,10.1-1.2c5.3-0.1,10.4-1.6,15.6-1.7C229.2,91.7,233.3,90.8,237.3,90.6
	z"/>
<path d="M253.3,95.5c1.8-0.4,3.1,0.6,4.6,1c0.6,0.1,1.2,0.2,1.8,0.2c5.3,0.5,10.6,0.8,15.8,2.1c4,1,8.1,1.7,12.2,2.6
	c2.5,0.5,5,1.1,7.5,1.6c1.8,0.3,3.6,0.4,5.3,0.8c2.4,0.6,4.6,1.6,7,2.3c2.8,0.9,5.5,1.9,8.3,2.7c2.8,0.7,5.6,1.8,8.1,3.2
	c2.8,1.8,5.5,3.6,8.3,5.3c1.4,0.7,2.5,1.8,3.4,3.1c0.2,0.4,0.6,0.8,1,1c1.4,0.8,2.7,2,3.6,3.4l1.3,1.6l-1.7,1.3
	c-0.8-1.2-1.8-2.2-2.9-3.2c-0.8-0.8-1.9-1.3-2.7-2c-2.3-2.1-4.8-4-7.6-5.5c-0.8-0.4-1.6-0.9-2.3-1.4c-2.5-1.7-5.2-2.9-8.1-3.6
	c-3-0.9-6-1.9-9-2.9c-1.4-0.5-2.8-1.1-4.2-1.5c-2.5-0.6-5-1-7.5-1.6c-5.4-1.2-10.8-2.4-16.2-3.7c-5.2-1.2-10.5-2-15.9-2.4
	c-3.1-0.3-6.3-0.9-9.4-1.3c-1.4-0.2-2.9-0.3-4.3-0.3c-2.6,0-5.2,0.1-7.8,0.3c-2.7,0-5.5,0.1-8.2,0.3c-5,0.7-10,1.1-15,1.5
	c-1.9,0.3-3.9,0.5-5.9,0.5c-3.2-0.2-6.4,0.4-9.6,0.7c-2.6,0.3-5.2,0.8-7.8,1.2c-1.8,0.3-3.6,0.7-5.4,1.1c-3.4,0.8-6.8,1.8-10.2,2.7
	c-0.9,0.2-1.8,0.5-2.7,0.7l-1.8,0.7c-2.1,0.5-4.3,0.8-6.4,1.4c-1.9,0.5-3.7,1.3-5.6,1.7c-2.8,0.6-5.2,2.3-7.9,3.1
	c-0.1,0-0.2,0.1-0.3,0.2c-1.8,1.1-3.6,2.4-5.5,3.4c-2.1,1.1-4.1,2.3-6,3.5l-1.6-2.4c1.2-0.8,2.4-1.6,3.7-2.4
	c1.8-1.1,3.5-2.2,5.3-3.3c2.2-1.3,4.5-2.4,6.9-3.4c3-1.3,6.1-2.4,9.3-3.2c4.3-1.2,8.7-2.1,13-3.2c4.1-1,8.1-2.4,12.3-3.2
	c5.3-1,10.7-1.6,16.1-2.2c4-0.4,8-0.5,12-0.8c3.2-0.1,6.3-0.4,9.4-0.9c3-0.6,6.1-0.9,9.2-0.9c3,0,6,0,9,0
	C250.1,95.8,251.7,95.7,253.3,95.5z"/>
<path d="M175.5,108.2l1.8-0.7c2.3,0.4,4.6-0.8,6.7,1c1.9,1.6,3.4,3.3,3.8,5.8c2.2-0.4,4.3-0.7,6.3-1.1c3-0.5,6-1,9-0.4
	c1.6,0.4,3.2,1.1,4.5,2.1c0.6,0.4,0.7,1.5,0.9,2.4l-1.4,2.5c-0.4-0.7-0.7-1.3-1.1-1.9c-0.3-0.4-0.7-0.9-1.2-1
	c-1.8-0.4-3.6-0.6-5.4-0.7c-1.3,0.1-2.6,0.3-3.9,0.5c-4.7,0.3-9.2,1.5-13.4,3.7c-2.9,1.7-5.4,4.1-7.4,6.8c-0.1,0.1-0.2,0.3-0.3,0.5
	c-0.5,1.1-0.1,1.7,1,1.8c0.6,0,1.1,0,1.6,0c0.9,2.6,0.8,4.8-1.3,6.5c-1.4,1.3-2.7,2.6-4,3.8c-0.9-0.1-1.6-0.3-2.5-0.4
	c-0.3,1.1-0.3,2.2-0.3,3.4l-2.8,0.5l-0.9-5.6c-1.5-1.2-2.7-2.8-3.4-4.7c-0.3-0.9-0.8-1.7-1.6-2.2c-1.2-0.8-1.2-2-0.1-3
	c0.4-0.3,0.7-0.6,1-1c0.7-1.1,1.9-1.7,3.2-1.7h4.5c0.8,0.8,0.9,1.8,1.9,1.9c0.1-0.1,0.3-0.3,0.4-0.4c0.5-1.4,1.4-2.6,2.5-3.6
	c1.1-0.9,1.1-1.5,0.3-2.8c-1.5-2.4-1.5-5.1-1.4-7.8c0.1-0.5,0.3-1.1,0.6-1.5C174,109.8,174.7,109,175.5,108.2z M181.7,111
	c-1.4-0.2-2.9,0-4.2,0.7c-1.2,0.4-2.1,1.5-2.3,2.7c-0.1,1.4,0.1,2.9,0.6,4.2l0.1-1.8l1.6,2.2c1.1-0.6,2-1.1,3-1.6
	c0.6-0.3,1.1-0.5,1.2-1.4c0-0.3,0.5-0.8,0.9-0.9c1.9-0.7,1.9-0.7,1.8-2.9C183.5,111.7,182.6,111.3,181.7,111z M167.7,128.7
	c-2.4-0.4-3.6-0.8-4.5,1l1.2,3.1c0.6-0.9,1-1.6,1.5-2.3S167.1,129.4,167.7,128.7L167.7,128.7z M172.4,130.5c-0.6-0.5-1.4-0.5-2,0
	c-1.5,1.1-2.9,2.3-3.2,4.5c1.6,0.6,3,1.2,4.5,1.8c0.4,0.1,0.8,0,1.2-0.3c0.9-0.9,1.7-1.8,2.4-2.8c0.5-0.6,0.2-1.2-0.5-1.6
	C174,131.6,173.2,131.1,172.4,130.5L172.4,130.5z"/>
<path d="M212,112.8c-0.3-0.9,0.3-1.9,1.2-2.1c0.4-0.1,0.7-0.1,1.1,0c0.4,0.1,0.8,0.3,1.1,0.5l2.5-1.6c1.5,0.9,2,2.8,1.2,4.3
	c0,0-0.1,0.1-0.1,0.1c-1.5,2.9-1.7,6.1-2.9,9c-0.4,0.8-0.4,1.7,0,2.4c1,1.9,2.2,3.7,3.3,5.5c0.8,1.3,1.6,2.7,2.4,4
	c0.2,0.4,0.4,0.7,0.6,1.1l-1.9,1.2l-5.8-9.1c-0.3,0.4-0.4,0.8-0.6,1c-1.9,1.1-4,1.8-6.2,2.2c-0.4,0.1-0.8-0.3-1.3-0.4
	c-1.3-0.5-1.1-1.9-1.7-2.8c-5.1,1-10.1,2.9-14.6,5.5l-1.5,0.8c-3.8,2.2-7.4,4.2-11.1,6.4l-1.8-2c0.9-0.6,1.8-1.3,2.7-1.9
	c1.5-1,3.2-1.8,4.8-2.8c4.8-2.8,9.7-5.3,14.9-7.4c0.9-0.4,1.9-0.6,2.3-1.8c0.1-0.2,0.6-0.4,0.9-0.4c1.4,0,2.8,0,4.2,0l1.7-3.9
	l-0.4-0.6l1.4-2.5l0.1,0.4c0,0.1,0.2,0.1,0.5,0.3c1-1.4,2-2.8,2.9-4.2C212.2,113.5,212,113.1,212,112.8z M214.8,116.1
	c-2.9,3.7-6,7.3-7.1,12.2c1,0,1.8,0,2.5,0c0.6-0.1,1.2-0.2,1.8-0.4C212,123.6,214.4,120.1,214.8,116.1L214.8,116.1z"/>
<linearGradient id="SVGID_2_" gradientUnits="userSpaceOnUse" x1="488.8099" y1="460.4256" x2="496.9299" y2="460.4256" gradientTransform="matrix(0 -1 -1 0 640.2332 607.8273)">
	<stop  offset="0" style="stop-color:#FFFFFF"/>
	<stop  offset="0.37" style="stop-color:#FDFDFD"/>
	<stop  offset="0.51" style="stop-color:#F6F6F6"/>
	<stop  offset="0.6" style="stop-color:#EBEBEB"/>
	<stop  offset="0.68" style="stop-color:#DADADA"/>
	<stop  offset="0.75" style="stop-color:#C4C4C4"/>
	<stop  offset="0.8" style="stop-color:#A8A8A8"/>
	<stop  offset="0.86" style="stop-color:#888888"/>
	<stop  offset="0.91" style="stop-color:#626262"/>
	<stop  offset="0.95" style="stop-color:#373737"/>
	<stop  offset="0.99" style="stop-color:#090909"/>
	<stop  offset="1" style="stop-color:#000000"/>
</linearGradient>
<path class="st2" d="M177.5,111.7c1.3-0.7,2.8-0.9,4.2-0.7c0.9,0.3,1.9,0.7,2.7,1.2c0.1,2.3,0.1,2.2-1.8,2.9
	c-0.4,0.1-0.9,0.6-0.9,0.9c0,0.8-0.6,1.1-1.2,1.4c-1,0.5-2,1.1-3,1.6l-1.6-2.2l-0.1,1.8c-0.6-1.3-0.8-2.8-0.6-4.2
	C175.4,113.2,176.3,112.1,177.5,111.7z"/>
<linearGradient id="SVGID_3_" gradientUnits="userSpaceOnUse" x1="463.78" y1="451.9758" x2="491.63" y2="451.9758" gradientTransform="matrix(0 -1 -1 0 640.2332 607.8273)">
	<stop  offset="0" style="stop-color:#FFFFFF"/>
	<stop  offset="0.37" style="stop-color:#FDFDFD"/>
	<stop  offset="0.51" style="stop-color:#F6F6F6"/>
	<stop  offset="0.6" style="stop-color:#EBEBEB"/>
	<stop  offset="0.68" style="stop-color:#DADADA"/>
	<stop  offset="0.75" style="stop-color:#C4C4C4"/>
	<stop  offset="0.8" style="stop-color:#A8A8A8"/>
	<stop  offset="0.86" style="stop-color:#888888"/>
	<stop  offset="0.91" style="stop-color:#626262"/>
	<stop  offset="0.95" style="stop-color:#373737"/>
	<stop  offset="0.99" style="stop-color:#090909"/>
	<stop  offset="1" style="stop-color:#000000"/>
</linearGradient>
<path class="st3" d="M195.5,116.7c1.3-0.3,2.6-0.4,3.9-0.5c1.8,0.1,3.6,0.4,5.4,0.7c0.5,0.1,0.9,0.6,1.2,1c0.4,0.6,0.7,1.2,1.1,1.9
	l0.4,0.6l-1.7,3.9c-1.4,0-2.8,0-4.2,0c-0.3,0-0.8,0.2-0.9,0.4c-0.4,1.1-1.4,1.4-2.3,1.8c-5.2,2.1-10.1,4.6-14.9,7.4
	c-1.6,1-3.3,1.8-4.8,2.8c-0.9,0.6-1.8,1.2-2.7,1.9s-1.8,1.3-2.6,2c-0.6,0.6-1.2,1.2-1.7,1.8c-0.6,0.6-1.2,1.1-1.8,1.7
	c-0.3-0.4-0.5-0.8-0.6-1.3c-0.1-1.1,0-2.3,0.3-3.4c0.8,0.1,1.6,0.3,2.5,0.4c1.3-1.2,2.6-2.6,4-3.8c2.1-1.8,2.2-3.9,1.3-6.6
	c-0.5,0-1.1,0-1.6,0c-1.2-0.1-1.5-0.7-1-1.8c0.1-0.2,0.2-0.3,0.3-0.5c2-2.7,4.5-5.1,7.4-6.8C186.3,118.2,190.9,117,195.5,116.7z"/>
<path d="M345.7,121.3l1.5-0.9c0.6,1,1.2,2.1,1.8,3.1c1.1,1.9,2.3,3.8,3.5,5.6c2.4,3.4,4,7.4,4.6,11.5c0.3,1.9,0.4,3.9,0.4,5.9
	c0.1,2,0.5,3.9,0.7,5.9c0.1,1.1,0.8,2.2-0.1,3.3c-0.1,0.1-0.1,0.5-0.1,0.7c0,2.3-0.1,4.5-0.1,6.8c0.3,5.3-0.3,10.6-1.6,15.8
	c-1.2,4.4-2.8,8.6-4.7,12.7c-1.2,2.5-2.2,5.2-3.3,7.7s-2.4,5.5-3.8,8.1s-3.1,5.1-4.7,7.7c-0.2,0.3-0.3,0.7-0.4,1
	c-1.3,2.4-2.7,4.8-3.8,7.3c-0.9,1.8-1.9,3.4-3.2,4.9c-1.2,1.8-2.2,3.8-3.3,5.7c-0.8,1.7-1.9,3.3-3.1,4.8c-1.5,1.7-2.9,3.5-4.1,5.4
	c-1.9,2.6-4,5-6.4,7.2c-1.4,1.3-3,2.6-4.4,3.9c-1.9,1.8-3.8,3.8-5.7,5.6c-3.8,3.7-7.6,7.4-11.4,11.1c-0.6,0.6-1.5,0.9-2.2,1.5
	c-2.4,1.9-4.8,3.8-7.2,5.6s-5,4-7.7,5.8s-5.4,3.3-8.1,4.9c-3.9,2.3-7.9,4.6-11.9,7c-0.6,0.3-1.1,0.7-1.6,1.1
	c-1.3,0.9-2.5,1.8-3.8,2.7c-1.9,1.2-3.9,2.4-5.8,3.5c-0.4,0.2-0.7,0.4-1.1,0.6c-3.1,1.5-6.3,2.9-9.3,4.5c-1.2,0.5-1.9,1.6-2,2.9
	c-0.2,2.4-0.7,4.8-0.9,7.1l-2.6-0.3c0.2-2.1,0.5-4.2,0.7-6.3c0.4-3.7,0.7-7.4-0.4-11l2.1-0.6l1.3,4.6c1.3,0.2,2.6,0,3.7-0.6
	c3.9-2.1,7.9-4.2,11.8-6.5c2.9-1.7,5.5-3.7,8.4-5.5c3.7-2.3,7.4-4.6,11.2-6.8c4.8-2.9,9.5-6.1,13.9-9.5c3.7-2.6,7.3-5.5,10.7-8.6
	c2.4-2.3,5.1-4.3,7.5-6.6c2.7-2.6,5.2-5.4,7.9-8c1.1-1.1,2.3-2.1,3.4-3.2c1.8-1.7,3.7-3.4,5.3-5.2c2.5-2.9,4.8-5.9,7.1-9
	c1.2-1.3,2.1-2.7,2.8-4.3c0.7-2,2.4-3.6,2.6-5.9c0-0.2,0.4-0.5,0.6-0.6c1.7-1.5,2.7-3.6,3.7-5.6s2-4.2,3.2-6.2
	c1.3-2.3,2.9-4.4,4.1-6.7c1.5-2.8,2.7-5.8,4.1-8.7c2.7-5.6,5.1-11.4,7-17.4c1.2-3.3,1.9-6.7,2.3-10.1c0.3-4.6,0.3-9.2,0.4-13.8
	c0-0.9-0.1-1.8-0.3-2.6c-0.1-0.7-0.1-1.4-0.1-2.1c0.1-1.7-0.1-3.4-0.4-5c-0.4-1.4-0.7-2.9-0.9-4.3c0-0.5-0.1-1-0.1-1.5l1.4-0.6
	c-0.4-1.9-0.9-3.8-1.2-5.6c-0.1-0.7-0.4-1.3-0.9-1.9c-2-2.4-3.6-5.1-4.8-8C347,123.7,346.4,122.5,345.7,121.3z"/>
<path class="st4" d="M207.7,128.2c1.1-4.9,4.2-8.5,7.1-12.2c-0.4,4-2.7,7.5-2.8,11.7c-0.6,0.2-1.2,0.3-1.8,0.4
	C209.4,128.3,208.7,128.2,207.7,128.2z"/>
<path class="st1" d="M134,123.7c0.4-0.3,0.9-0.9,1.5-0.8c0.2,0,0.3,0.1,0.5,0.2c-1.8,1.3-3.7,2.6-5.5,3.9c-2.1,1.4-4.3,2.7-5.9,4.8
	c-0.8,0.8-1.7,1.4-2.7,2l-3.1-0.9c1.5-1,2.6-1.9,3.8-2.5C126.5,128.3,130.3,126.1,134,123.7z"/>
<path class="st1" d="M136,123.1L136,123.1L136,123.1C136,123.1,136,123.1,136,123.1z"/>
<path class="st1" d="M136,123.1L136,123.1L136,123.1L136,123.1z"/>
<path class="st1" d="M136,123.1L136,123.1z"/>
<polygon points="136,123.1 136,123.1 136,123.1 "/>
<path class="st1" d="M136,123.1L136,123.1z"/>
<path d="M339.8,127.7l1.7-1.3c1.2,1.6,2.4,3.2,3.6,4.8c1,1.4,1.9,2.9,2.7,4.4c1.2,2.3,2.5,4.5,2.7,7.1s0.5,5.5,0.7,8.2
	c0,0.4,0.1,0.7,0.1,1.1c0.1,1.2,0.2,2.4,0.1,3.6c0,1.4-0.1,2.9-0.2,4.3c0,1,0,2-0.1,3c-0.5,3.1-1.2,6.2-1.6,9.3
	c-0.8,5.1-2.1,10.1-4,14.9c-0.6,1.8-1.8,3.4-2.1,5.3c-0.5,2-1.1,3.9-2,5.7c-1.7,3.9-3.6,7.8-5.5,11.6c-1.5,3.1-4.1,5.5-5.9,8.4
	c-1.6,2.5-3.2,5-4.9,7.5c-1.1,1.7-2.3,3.5-3.5,5.1c-2.4,3.2-4.9,6.3-7.3,9.5c-1.4,1.9-2.7,3.8-4.1,5.6c-0.6,0.9-1.3,1.7-2,2.5
	c-2.7,2.4-5.4,4.9-8.2,7.2c-3.1,2.5-6.3,4.9-9.4,7.4c-0.8,0.7-1.6,1.5-2.4,2.1c-2,1.4-4,2.7-6.1,3.9c-1.2,0.8-2.6,1.3-3.7,2.1
	c-3,2.2-5.9,4.6-8.9,6.8c-1.2,0.9-2.4,1.7-3.7,2.4c-1.8,1-3.5,1.9-5.3,2.9c-2.7,1.5-5.5,2.9-8.2,4.4c-1.1,0.6-2.2,1.2-3.4,1.6
	c-2.1,0.9-4.2,1.7-6.3,2.5c-2.4,0.9-4.6,2.5-7.2,2.8c-0.3,0.1-0.7,0.3-0.9,0.5c-0.9,1-2.5,1.2-3.6,0.5l1.5,5.7l-2.1,0.6
	c-0.8-2.6-1.4-5.3-2.2-7.9l1.9-0.6c1.4-0.5,2.7-0.9,3.9-1.3c0.5-0.2,0.9-0.6,1.4-0.7c2.9-1.1,5.8-2,8.5-3.2c4-1.8,7.9-3.9,11.9-5.8
	c5-2.4,9.8-5.3,14.1-8.8c4.4-3.5,9.2-6.4,13.8-9.6c0.7-0.5,1.6-0.8,2.3-1.4c5-4,9.9-8,15-11.9c3.5-2.9,6.6-6.2,9.1-10
	c2.1-3,4.4-6,6.7-8.9c2.3-2.7,4.3-5.6,6-8.6c0.7-1.3,1.4-2.5,2.3-3.6c2.1-2.9,4.4-5.8,6.5-8.7c0.9-1.2,1.7-2.6,2.3-4
	c0.9-2.1,1.5-4.2,2.3-6.4c0-0.1,0.1-0.2,0.2-0.3c1.4-0.8,1.6-2.3,2.1-3.6c1.2-3,2.4-6,3.4-9c1.3-3.7,2.6-7.5,3.6-11.3
	c0.9-4,1.6-8.1,2.1-12.2c0.5-3.4,0.7-6.9,0.8-10.3c-0.1-3.5-0.3-7-0.8-10.5c-0.2-2.2-0.9-4.4-2-6.3
	C343.6,133.6,341.8,130.6,339.8,127.7z"/>
<linearGradient id="SVGID_4_" gradientUnits="userSpaceOnUse" x1="474.93" y1="474.77" x2="479.42" y2="474.77" gradientTransform="matrix(0 -1 -1 0 640.2332 607.8273)">
	<stop  offset="0" style="stop-color:#FFFFFF"/>
	<stop  offset="0.37" style="stop-color:#FDFDFD"/>
	<stop  offset="0.51" style="stop-color:#F6F6F6"/>
	<stop  offset="0.6" style="stop-color:#EBEBEB"/>
	<stop  offset="0.68" style="stop-color:#DADADA"/>
	<stop  offset="0.75" style="stop-color:#C4C4C4"/>
	<stop  offset="0.8" style="stop-color:#A8A8A8"/>
	<stop  offset="0.86" style="stop-color:#888888"/>
	<stop  offset="0.91" style="stop-color:#626262"/>
	<stop  offset="0.95" style="stop-color:#373737"/>
	<stop  offset="0.99" style="stop-color:#090909"/>
	<stop  offset="1" style="stop-color:#000000"/>
</linearGradient>
<path class="st5" d="M163.2,129.8c0.9-1.8,2-1.4,4.5-1c-0.6,0.7-1.2,1.2-1.7,1.9s-0.9,1.4-1.5,2.3L163.2,129.8z"/>
<path class="st6" d="M214,129c0.3-0.2,0.4-0.6,0.6-1l5.8,9.1l2.1,3.3l-1.6,1.3c-1-0.9-2-1.7-2.9-2.6c-0.2-0.3-0.4-0.7-0.4-1.1
	c-0.1-1-0.9-1.7-1.9-1.6c-0.2,0-0.3,0-0.5,0.1c-0.4,0.1-0.7,0.6-0.5,1.1c0,0,0,0.1,0.1,0.1c1,2.9,3.1,4.7,5.6,6.2
	c0.8,0.3,1.6,0.6,2.5,0.7c2.3-1.5,4.6-3.1,6.9-4.6c3.4-2.1,7.2-3.6,11.1-4.2c2-0.2,4-0.1,5.9,0.4c3.2,0.7,5.8,3.1,6.8,6.3
	c0.5,1.7,0.5,3.6,0.1,5.3c-0.6,3.1-1.9,6-3.8,8.4c-1.8,2.3-3.9,4.3-6.3,6.1c-2,1.6-4.2,2.9-6.6,3.8c-1.3,0.5-2.7,0.8-4.1,0.9
	c-1.9-0.1-3.8,0.2-5.5-0.9c-0.5-0.3-1.3,0.1-2,0.3c-1.2-0.3-2.4-0.7-2.5-2.3c0-0.2-0.1-0.3-0.3-0.5c-1.5-0.9-2.5-2.9-4.9-2
	c0.6-1.3,1.1-2.6,1.3-4c-0.1-1.3-0.7-2.6-1.7-3.5c-0.6,0.3-0.9,1.1-0.6,1.7c0,0,0,0,0,0c0.3,0.9,0,1.9-0.7,2.4c-1,1.1-2.2,2.1-3.3,3
	c-1.7,1.1-3.8,1.4-5.7,0.9c-0.5-0.1-0.9-0.8-1.4-1.4c1.2-1.1,2.2-2,3.2-2.9c-0.5-1.2-0.9-2.3-2.3-2.3c-0.5,0-1,0.2-1.4,0.6
	c-1.7,2.5-4.2,4.3-7,5.2c-0.3,0.1-0.5,0.3-0.8,0.4c0,1.6,1.3,1.9,2.3,2.6l4.2-2.4c1,2.5,3,3.1,5.4,3.2l-5.8,7.2
	c-0.3-0.3-0.7-0.7-1.1-1.1c-2.5-3.1-5.3-5.8-8.5-8.1c-2.8-1.9-5.8-3.5-8.7-5.3c-0.9-0.5-1.9-1-2.9-1.3l0.1-0.8
	c1.2-1.2,2.5-2.3,3.5-3.6c0.7-0.9,1.2-1.9,1.5-3c1.3-4,2.4-8.1,3.6-12.2c0-0.2,0.1-0.4,0.1-0.5c0.6-1.9,0.5-2.2-1.1-3.4
	c4.5-2.6,9.5-4.4,14.6-5.5c0.6,1,0.4,2.3,1.7,2.8c0.4,0.2,0.9,0.5,1.3,0.4C210,130.8,212.1,130.1,214,129z M209.2,139
	c-0.8-1.3-1-1.3-2.8-0.8c0.1,0.4,0.3,0.8,0.5,1.1c1.1,1.6,1,3.4,0.8,5.2c0,0.7-0.5,1.4-1.3,1.4c-0.9,0.1-1.7,0.4-2.5,0.8
	c-1.1,0.6-2.1,1.3-3.1,2c0.1,1.2,1.2,2,2.3,1.9c0.1,0,0.1,0,0.2,0c0.7,0,1.3,0,2,0c0.3,0,0.8-0.2,0.9-0.4c0.6-1.3,1.8-1.2,3-1.3
	c0.6,0,1.2-0.2,1.8-0.3c-0.1-1.8-0.2-3.3-0.3-4.9C210.7,142.1,210.2,140.5,209.2,139L209.2,139z"/>
<linearGradient id="SVGID_5_" gradientUnits="userSpaceOnUse" x1="471.01" y1="468.8659" x2="477.68" y2="468.8659" gradientTransform="matrix(0 -1 -1 0 640.2332 607.8273)">
	<stop  offset="0" style="stop-color:#FFFFFF"/>
	<stop  offset="0.37" style="stop-color:#FDFDFD"/>
	<stop  offset="0.51" style="stop-color:#F6F6F6"/>
	<stop  offset="0.6" style="stop-color:#EBEBEB"/>
	<stop  offset="0.68" style="stop-color:#DADADA"/>
	<stop  offset="0.75" style="stop-color:#C4C4C4"/>
	<stop  offset="0.8" style="stop-color:#A8A8A8"/>
	<stop  offset="0.86" style="stop-color:#888888"/>
	<stop  offset="0.91" style="stop-color:#626262"/>
	<stop  offset="0.95" style="stop-color:#373737"/>
	<stop  offset="0.99" style="stop-color:#090909"/>
	<stop  offset="1" style="stop-color:#000000"/>
</linearGradient>
<path class="st7" d="M170.4,130.5c0.6-0.5,1.4-0.5,2,0c0.8,0.6,1.6,1.1,2.4,1.6c0.7,0.4,1,1,0.5,1.6c-0.7,1-1.5,1.9-2.4,2.8
	c-0.3,0.3-0.8,0.4-1.2,0.3c-1.5-0.5-3-1.1-4.5-1.8C167.5,132.8,169,131.6,170.4,130.5z"/>
<path d="M87.3,132.5c0.1,0,0.2,0,0.2-0.1l0.6,2.2c-1.5,0.4-2.9,1.2-4.1,2.2c-0.4,0.3-0.8,0.6-0.7,1.3c1.8-0.4,3.6-0.8,5.3-1
	c2-0.4,4-0.4,6.1-0.2c0.9,0.2,1.9,0.3,2.8,0.3c3.9,0.1,7.8,0,11.5,1.1c0.5,0.1,1,0.3,1.4,0.6c0.3,0.4,0.5,0.9,0.4,1.4
	c-0.2,0.6-0.9,0.6-1.5,0.4c-0.7-0.3-1.5-0.5-2.2-0.6c-1.5-0.2-3.1-0.2-4.6-0.3c-2.1-0.1-4.3-0.3-6.4-0.4c-3.4,0-6.9-0.2-10.3,1
	c-1.9,0.5-3.6,1.4-5,2.7c1,1.7,3.2,2.4,5,1.7c1-0.5,2-1.1,3-1.6c1-0.6,2-1,3.1-1.2c2.3-0.3,4.7-0.4,7-0.4c1.7,0,3.5,0.1,5.1,0.4
	c2,0.5,4,1.1,6,1.9c0.8,0.3,1.9,0.6,1.9,2.1c-0.6,0.2-1.2,0.3-1.8,0.3c-1.6-0.3-3.2-0.8-4.8-1.2c-1-0.3-2-0.5-3-0.6
	c-2.7-0.1-5.4,0-8,0.1c-1.1,0.1-2.2,0.3-3.3,0.6c-0.2,0-0.5,0.5-0.4,0.6s0.4,0.6,0.7,0.7c1.1,0.1,2.1,0,3.2,0.1
	c2,0.4,4.1,0.9,6.1,1.4c1.1,0.3,2.2,0.8,3.4,1.2c0.9,0.2,1.5,1.1,1.4,2c-0.2,0.7-0.8,0.9-1.9,0.6c-2.2-0.6-4.4-1.6-6.7-1.9
	c-1.6-0.1-3.2-0.9-5.2,0.1c0.2,0.5,0.6,1,0.9,1.4c0.9,0.7,1.8,1.4,2.8,1.9c1.9,1,4,1.8,6,2.7c0.4,0.2,0.8,0.4,1.1,0.6
	c3.3,2,6.6,4,10,5.9c1.4,0.9,3,1.4,4.6,1.7c2.5,0.3,5.1,0.3,7.7,0.1c1.9,0,3.8-0.6,5.4-1.6c1.1-0.8,1.9-0.4,2.1,0.9
	c0.1,0.7-0.2,1.5-0.9,1.8c-1.1,0.7-2.3,1.4-3.7,2.1l-1.9,1.7c-0.3-0.5-0.6-1-0.9-1.6c-1.9,0-4.2,0-6.5,0c-2.5-0.1-4.8-0.8-6.9-2.1
	c-3.9-2.3-7.7-4.8-11.6-7.1c-1.6-0.9-3.3-1.7-5-2.3c-2.2-0.9-4.1-2.5-5.2-4.7c-0.3-0.8-0.6-1.7-0.8-2.5c-0.2-0.6-0.3-1.3-0.4-2
	c-1.1,0.3-2.1,0.8-3.1,1.2c-0.4,0.3-0.9,0.3-1.3,0.1c-1.6-0.9-3.3-1.6-4.5-3.2c-1-1.2-1.1-3-0.2-4.3c0.8-1.1,1.3-2.4,1.7-3.7
	c0.3-1,0.9-1.8,1.8-2.4C84.2,133.9,85.7,133.1,87.3,132.5z"/>
<path d="M237,133c3.5-1.1,7.2-1,10.6,0.1c3.5,1.2,5.9,3.8,7.7,6.9c0.6,0.9,1.1,1.8,1.5,2.8c0.7,2.1,0.7,4.3,0.1,6.4
	c-1.1,4.3-2.5,8.4-5.9,11.6c-2.2,2.4-4.7,4.5-7.5,6.3c-0.8,0.4-1.5,1-2,1.8c1.5,1.2,2.7,2.8,3.3,4.7c0.8,0.3,1.6,0.7,2.3,1.1
	c4.3,2.8,7.6,6.7,10.9,10.6l-1.6,1.4c-0.1-0.2-0.2-0.3-0.4-0.5c-2.1-2.3-4.2-4.5-6.4-6.7c-0.8-1.1-2-1.8-3.3-2.2l-1.4,1.4l-1.3-0.6
	c-0.5-1.3-1-2.5-1.3-3.8c-0.3-1.5-1.1-2.8-2.3-3.8c-0.5-0.3-1-0.5-1.6-0.5c-1.2,0.2-2.3,0.5-3.4,0.9c0.1,0.5,0.2,1,0.5,1.5
	c0.7,0.9,1.2,1.8,1.6,2.9l-2.3,0.6c0-0.7-0.3-1.3-0.7-1.8c-0.5-0.7-1-1.4-1.3-2.1c-0.3-0.9-1.2-1.5-2.1-1.3
	c-0.8,0.1-1.5-0.1-2.2-0.4c-1.2-0.5-2.5-0.9-3.8-1.3l0.7-2c0.7-0.2,1.5-0.6,2-0.3c1.8,1,3.7,0.8,5.5,0.9c1.4,0,2.8-0.3,4.1-0.9
	c2.4-0.9,4.6-2.2,6.6-3.8c2.3-1.8,4.5-3.8,6.3-6.1c1.9-2.5,3.2-5.3,3.8-8.4c0.5-1.7,0.4-3.6-0.1-5.3c-1-3.2-3.6-5.6-6.8-6.3
	c-1.9-0.5-3.9-0.6-5.9-0.4c-4,0.6-7.7,2-11.1,4.2c-2.4,1.4-4.7,3-6.9,4.6c-0.9-0.1-1.7-0.4-2.5-0.7c-2.5-1.5-4.7-3.3-5.6-6.2
	c-0.2-0.4-0.1-0.9,0.4-1.1c0,0,0.1,0,0.1-0.1c0.9-0.3,1.9,0.1,2.3,1c0.1,0.2,0.1,0.3,0.1,0.5c0,0.4,0.2,0.8,0.4,1.1
	c0.9,0.9,1.9,1.7,2.9,2.6l1.6-1.3l-2.1-3.3l1.9-1.2c0.6,1.1,1.4,2.1,2.3,2.9c0.2,0,0.4-0.1,0.6-0.1c0.2-0.1,0.4-0.2,0.6-0.4
	C229.2,135.9,233,134.1,237,133z"/>
<path class="st6" d="M96.4,133.2c3.7-0.3,7.4-0.8,11.2,0c4.7,1,9.3,2.4,14,3.6c2.6,0.8,5.1,1.8,7.5,3c2.1,1,4.2,2,6.3,3
	c0.5,0.3,1,0.5,1.6,0.8c1.2,0.8,2.3,1.6,3.4,2.6c0.8,0.8,1.9,1.2,3,1.3c0.8,0,1.6,0.7,2.5,1c2.3,0.9,4.7,1.7,7,2.6
	c3.1,1.2,6.1,2.4,9.2,3.5c2.1,0.7,4.2,1.3,6.3,1.8c4.6,1.2,8.9,3.1,13,5.5c0.9,0.5,1.9,1,2.8,1.5c1.4-1.1,1.4-1.1,2.9-0.2
	c1.6,1,3.3,2,4.9,3c3.2,2.1,6,4.7,8.4,7.7c0.6,0.8,1.3,1.4,1.8,2.2c0.4,0.6,1.1,1.2,1,1.8c0,1,0.6,2,1.6,2.3c0.8,0.5,1.5,1.2,1.9,2
	c1,1.9,1.8,4,3.4,5.7c1.3,1.4,2.7,2.7,4.1,4c1.5,1.4,3,2.7,4.5,4.1c0.2,0.2,0.5,0.4,0.7,0.5c2.5,1.5,4.9,3.3,7.1,5.3
	c0.7,0.6,1.4,1.3,2,2c0.4,0.6,0.9,1.1,1.4,1.6c2.2,1.8,3.1,4.3,4,6.8c0.8,2.4,1.6,4.7,2.5,7.1c0.4,1,0.5,2.1,0.3,3.1
	c-0.2,1.4-0.3,2.7-0.2,4.1c0,0.3,0,0.5,0,0.8c-0.2,2.4-0.9,4.8-2.2,6.9c-2.4,4.4-5.7,8.2-8.9,12.1c-1.5,1.6-3,3-4.6,4.4
	c0.6,2,1.6,2.5,3.3,1.8c0.7,1,0.6,2.4-0.3,3.4c-0.6,1-1,2-1.3,3.1c-2.3,0.4-4.6,0.6-6.9,0.4c-5.1,0-10.3-0.3-15.5,0
	c-4.3,0.3-8.6-0.2-12.9-0.3c-1.4,0-2.8,0-4.3-0.1c-0.8,0-1.5-0.2-2.2-0.3v-0.4c0.5,0,1-0.1,1.4-0.2c1.4-0.4,2.8-0.9,4.2-1.5
	c2.5-1.5,5.1-2.5,7.9-3.2c0.7-0.2,1.4-0.5,2-0.9c2.6-1.3,5.3-2.4,7.5-4.4c1.4-1.3,3.1-2.2,4.5-3.5c1.3-1.1,2.3-2.5,3.5-3.7
	c0.6-0.7,1.4-1.3,2.2-1.7l-0.6-3.4c1.8,1.2,3.4,2.3,5.1,3.5l1.6-2.4c-0.9-1.4-2.2-2.5-3.6-3.2c-3.4-2.1-7-4.1-10.5-6.1
	c-3.1-1.8-6.2-3.8-9.4-5.5c-4.8-2.5-9.3-5.6-14-8.5s-9.4-5.4-14-8.3c-3.9-2.4-7.7-5.1-11.3-7.9c-3.2-2.5-6-5.6-9-8.4
	c-2.5-2.3-5.2-4.6-7.7-7c-0.4-0.4-0.8-0.8-1.2-1.2c-1.1-1.3-2.2-2.6-3.3-3.8s-2.4-2.4-3.6-3.7c-1.6-1.9-3.1-3.8-4.7-5.8
	c1.3-0.8,2.5-1.4,3.7-2.1c0.6-0.4,1-1.1,0.9-1.8c-0.2-1.3-1-1.7-2.1-0.9c-1.6,1.1-3.5,1.6-5.4,1.6c-2.6,0.2-5.1,0.2-7.7-0.1
	c-1.6-0.3-3.2-0.9-4.6-1.7c-3.4-1.9-6.7-3.9-10-5.9c-0.4-0.2-0.7-0.4-1.1-0.6c-2-0.9-4-1.7-6-2.7c-1-0.5-1.9-1.2-2.8-1.9
	c-0.4-0.4-0.7-0.9-0.9-1.4c2-1,3.6-0.2,5.2-0.1c2.4,0.2,4.5,1.2,6.7,1.9c1.1,0.3,1.7,0.1,1.9-0.6c0.1-0.9-0.5-1.8-1.4-2
	c-1.1-0.3-2.2-0.9-3.4-1.2c-2-0.5-4-1-6.1-1.4c-1-0.2-2.1,0-3.2-0.1c-0.3,0-0.6-0.4-0.7-0.7s0.2-0.6,0.4-0.6
	c1.1-0.3,2.2-0.5,3.3-0.6c2.7-0.1,5.4-0.2,8-0.1c1,0.1,2,0.3,3,0.6c1.6,0.4,3.2,0.9,4.8,1.2c0.6,0,1.2-0.1,1.8-0.3
	c0-1.5-1.1-1.8-1.9-2.1c-2-0.8-4-1.4-6-1.9c-1.7-0.3-3.4-0.5-5.1-0.4c-2.3,0-4.7,0.1-7,0.4c-1.1,0.2-2.2,0.7-3.1,1.2
	c-1,0.5-2,1.1-3,1.6c-1.8,0.8-4,0.1-5-1.7c1.4-1.3,3.1-2.2,5-2.7c3.4-1.2,6.8-1,10.3-1c2.1,0,4.3,0.2,6.4,0.4
	c1.5,0.1,3.1,0.1,4.6,0.3c0.8,0.1,1.5,0.3,2.2,0.6c0.6,0.2,1.3,0.2,1.5-0.4c0.1-0.5-0.1-1-0.4-1.4c-0.4-0.3-0.9-0.6-1.4-0.6
	c-3.8-1.1-7.7-1-11.5-1.1c-1,0-1.9-0.1-2.8-0.3c-2-0.2-4.1-0.1-6.1,0.2c-1.8,0.2-3.5,0.6-5.3,1c-0.1-0.7,0.4-1,0.7-1.3
	c1.2-1,2.6-1.8,4.1-2.2c0.9-0.3,1.8-0.5,2.8-0.7C92.7,133.7,94.5,133.3,96.4,133.2z"/>
<path d="M188.8,134.2l1.5-0.8c1.6,1.2,1.7,1.5,1.1,3.4c-0.1,0.2-0.1,0.4-0.1,0.5c-1.2,4.1-2.4,8.1-3.6,12.2c-0.3,1.1-0.9,2.1-1.5,3
	c-1,1.3-2.3,2.4-3.5,3.6c-2-1.3-3.8-2.6-4-5.4c-0.1-0.9-0.5-1.9-1-2.7c-0.2-0.3-0.6-0.6-1-0.6c-1.5-0.3-4.1,1.2-4.7,2.7
	c-0.2,0.4-0.3,1-0.7,1.2s-1-0.1-1.6-0.2l-0.8,1.7c4.3,1.8,8.4,3.5,12.5,5.3c0.4-0.3,0.2-1.4,1.1-1.1c1,0.3,2,0.7,2.9,1.3
	c2.9,1.8,5.9,3.4,8.7,5.3c3.2,2.3,6,5,8.5,8.1c0.4,0.4,0.8,0.8,1.1,1.1l5.8-7.2c-2.4-0.1-4.3-0.7-5.4-3.2l-4.2,2.4
	c-1-0.8-2.4-1-2.3-2.6c0.2-0.2,0.5-0.3,0.8-0.4c2.8-0.9,5.3-2.7,7-5.2c0.4-0.4,0.9-0.6,1.4-0.6c1.4,0,1.8,1.1,2.3,2.3
	c-1,0.9-2,1.9-3.2,2.9c0.6,0.6,0.9,1.3,1.4,1.4c1.9,0.5,4,0.2,5.7-0.9c1.2-0.9,2.3-1.9,3.3-3c0.7-0.6,1-1.5,0.7-2.4
	c-0.3-0.6-0.1-1.4,0.5-1.7c0,0,0,0,0,0c1,0.9,1.6,2.2,1.7,3.5c-0.3,1.4-0.7,2.7-1.3,4c2.4-0.9,3.4,1,4.9,2c0.1,0.1,0.2,0.3,0.3,0.5
	c0.1,1.6,1.3,2,2.5,2.3l-0.7,2l-0.4-0.1c0.5,3.3-1.5,5-3.7,6.7c0.5,0.3,0.9,0.6,1.4,1c2.1,2.4,4.5,4.1,7.9,3.8
	c1.7,0,3.3-0.9,4.3-2.3c0.4-0.6,0.7-1.2,0.7-2l2.3-0.6c0.3,1,0.6,2.1,0.6,3.1c3,0.5,4.6,0.4,5.9-0.3l1.3,0.6
	c0.2,0.6,0.2,1.2,0.2,1.8c-0.2,0.7,0,1.4,0.5,1.9c0.8,1.1,1.8,2,3,2.8c0.6,0.4,1.2,0.8,2,0.4c0.6-0.3,1.4-0.2,1.8,0.4
	c0.6,0.5,1,1.1,1.3,1.8c0.6,1.5,1.5,3,2.7,4.2c0.1,0.1,0.3,0.3,0.4,0.4l-0.3,2.1c-1.5-0.9-2.7-2.1-3.7-3.6c-0.5-0.8-1.1-1.7-1.5-2.6
	c-2.4,0.4-5.6-2-9.1-6.8c-1.9-0.3-4.1,0.5-5.9-1.1c-0.9,1.5-2.5,2.4-4.2,2.6c-0.7,0.1-1.4,0.1-2.1,0.1c-0.7-0.1-1.3,0.4-1.4,1.1
	c-0.2,0.9-0.5,1.8-0.9,2.7c-1.3,2.5-2.6,4.9-4,7.3c-0.4,0.5-0.3,1.2,0.2,1.5c0,0,0,0,0,0c1.5,1.3,3,2.5,4.5,3.8
	c0.4,0.3,0.8,0.7,1.2,1.1c1.1,1.2,2.2,2.3,3.2,3.5c1.3,1.5,2.7,3.1,3.1,5.2c0.2,1.2,0.6,2.4,1.3,3.4c0.1,0.2,0.2,0.4,0.3,0.7
	c1.3,3.5,1.8,7.3,1.5,11.1c-0.1,1-0.3,2.1-0.3,3.1l-2.5-0.1c0-0.3,0-0.5,0-0.8c-0.1-1.4-0.1-2.7,0.2-4.1c0.2-1,0.1-2.1-0.3-3.1
	c-0.8-2.4-1.6-4.7-2.5-7.1c-0.9-2.5-1.9-5-4-6.8c-0.5-0.5-1-1.1-1.4-1.6c-0.6-0.7-1.3-1.4-2-2c-2.2-2-4.6-3.8-7.1-5.4
	c-0.3-0.1-0.5-0.3-0.7-0.5c-1.5-1.4-3-2.7-4.5-4.1s-2.8-2.6-4.1-4c-1.5-1.6-2.3-3.7-3.4-5.7c-0.4-0.9-1-1.6-1.9-2
	c-1-0.3-1.6-1.3-1.6-2.3c0-0.6-0.6-1.2-1-1.8c-0.6-0.8-1.2-1.5-1.8-2.2c-2.3-3-5.1-5.7-8.4-7.7c-1.6-1-3.3-2-4.9-3
	c-1.5-0.9-1.5-0.9-2.9,0.2c-0.9-0.5-1.9-0.9-2.8-1.5c-4.1-2.4-8.4-4.3-13-5.5c-2.1-0.5-4.3-1.1-6.3-1.8c-3.1-1.1-6.1-2.4-9.2-3.5
	c-2.3-0.9-4.7-1.7-7-2.6c-0.8-0.3-1.6-1-2.5-1c-1.1-0.1-2.2-0.5-3-1.3c-1.1-0.9-2.2-1.8-3.4-2.6c-0.5-0.3-1-0.6-1.6-0.8l1.3-2.4
	c0.3,0.2,0.6,0.4,0.9,0.6c1.4,0.9,2.7,1.9,4.2,2.7c1,0.4,2,0.8,3,1c1.4,0.5,2.8,1,4.4,1.6c-0.1-0.3-0.2-0.6-0.4-0.9
	c-0.8-1.2-1.6-2.4-2.2-3.7c-1-2.1-1.7-4.3-2.5-6.5c-0.1-0.4,0.1-1,0.2-2c7.7,3.7,15,7.1,22.4,10.7l-0.1-0.8l2.8-0.5
	c0.1,0.5,0.3,0.9,0.6,1.3c0.6-0.6,1.2-1.1,1.8-1.7c0.5-0.6,1.1-1.2,1.7-1.8c0.9-0.7,1.8-1.3,2.6-2l1.8,2l4.2,11.3
	c2.1-1.3,2.7-2.3,3.6-5.1c1-3.1,1.9-6.3,2.8-9.4C188.5,136.3,188.7,135.2,188.8,134.2z M152.2,140.3c-1.4-0.7-2.8-1.5-4.4-2.3
	c0,1.2,0.3,2.4,0.9,3.4c1.1,1.7,2.2,3.4,3.4,5c0.5,0.7,1.2,1.3,2,1.6c2.8,1.1,5.7,2.2,8.5,3.2c1.7,0.3,3.3-0.7,3.8-2.3
	c0.1-0.5,0.2-0.9,0.3-1.5c-0.8-0.3-1.5-0.6-2.3-1c-2.3-1.1-4.6-2.3-6.9-3.5C155.8,142,154,141.2,152.2,140.3L152.2,140.3z
	 M176.5,144l-1.2-1.6l-1.3,1.6l0.3,0.4C174.9,144.3,175.5,144.2,176.5,144L176.5,144z M221.1,167c-0.2-1.4-1.5-2.3-2.8-2.1
	c-0.1,0-0.2,0-0.3,0.1c-1.5,0.4-2.9,0.9-4.3,1.6c-3.1,1.7-5.1,4.5-7.1,7.4c-0.1,0.2-0.2,0.4-0.4,0.6c-0.5,1.2,0.5,3.3,2.1,3.3
	c1.9-0.6,3.7-1.3,5.5-2.1c1.9-1,3.5-2.4,5.3-3.5C221.2,171,221.6,169.2,221.1,167L221.1,167z M219.1,176.6c-1.6,0.8-3.2,1.7-5,2.4
	s-3.5,1-5.2,1.4c2.3,5,6.4,8.1,10.3,11.4c0.5,0,0.9-0.1,1.4-0.2c0.4-0.1,0.7-0.2,1-0.5c1.9-2.7,3.5-5.6,5-8.5L219.1,176.6z"/>
<path class="st4" d="M188.8,134.2c-0.1,1-0.3,2.1-0.5,3.1c-0.9,3.2-1.7,6.3-2.8,9.4c-0.9,2.8-1.5,3.8-3.6,5.1l-4.3-11.3
	C181.4,138.4,184.9,136.4,188.8,134.2z"/>
<path d="M206.4,138.2c1.8-0.4,1.9-0.4,2.8,0.8c0.9,1.4,1.4,3,1.5,4.7c0.1,1.5,0.2,3.1,0.3,4.9c-0.5,0.1-1.1,0.2-1.8,0.3
	c-1.2,0.1-2.4,0-3,1.3c-0.1,0.2-0.6,0.4-0.9,0.4c-0.6,0.1-1.3,0-2,0c-1.2,0.2-2.3-0.5-2.5-1.7c0-0.1,0-0.1,0-0.2
	c1.1-0.7,2.1-1.5,3.1-2c0.8-0.4,1.6-0.7,2.5-0.8c0.7,0,1.3-0.7,1.3-1.4c0.1-1.8,0.3-3.6-0.8-5.2C206.7,139,206.5,138.6,206.4,138.2z
	"/>
<path class="st4" d="M147.8,138c1.6,0.8,3,1.6,4.4,2.3c1.8,0.9,3.6,1.8,5.4,2.6c2.3,1.1,4.6,2.3,6.9,3.5c0.7,0.4,1.5,0.6,2.3,1
	c-0.1,0.6-0.2,1.1-0.3,1.5c-0.5,1.6-2.1,2.7-3.8,2.3c-2.9-1-5.7-2-8.5-3.2c-0.8-0.4-1.5-0.9-2-1.6c-1.2-1.6-2.3-3.3-3.4-5
	C148.1,140.4,147.8,139.2,147.8,138z"/>
<path class="st1" d="M350.4,142.7h2.8c0.2,1.5,0.5,2.9,0.9,4.3c0.3,1.6,0.5,3.3,0.4,5c0,0.7,0.1,1.4,0.1,2.1
	c0.1,0.9,0.2,1.8,0.3,2.6c-0.1,4.6-0.1,9.2-0.4,13.8c-0.3,3.5-1.1,6.9-2.3,10.1c-1.9,6-4.3,11.8-7,17.4c-1.4,2.9-2.6,5.9-4.1,8.7
	c-1.2,2.3-2.8,4.4-4.1,6.7c-1.1,2-2.1,4.2-3.2,6.2s-2,4-3.7,5.6c-0.2,0.2-0.6,0.4-0.6,0.6c-0.2,2.3-1.9,3.8-2.6,5.9
	c-0.7,1.6-1.7,3-2.8,4.3c-2.3,3-4.6,6.1-7.1,9c-1.6,1.9-3.5,3.5-5.3,5.2c-1.1,1.1-2.3,2.1-3.4,3.2c-2.6,2.7-5.2,5.4-7.9,8
	c-2.4,2.3-5.1,4.3-7.5,6.6c-3.4,3.1-6.9,6-10.7,8.6c-4.4,3.5-9,6.7-13.9,9.5c-3.8,2.1-7.5,4.5-11.2,6.8c-2.8,1.8-5.5,3.8-8.4,5.5
	c-3.9,2.3-7.8,4.3-11.8,6.5c-1.1,0.6-2.4,0.9-3.7,0.6l-1.3-4.6l-1.5-5.7c1.2,0.7,2.7,0.5,3.6-0.5c0.2-0.3,0.6-0.5,0.9-0.5
	c2.6-0.3,4.8-1.9,7.2-2.8c2.1-0.8,4.2-1.6,6.3-2.5c1.2-0.5,2.3-1.1,3.4-1.6c2.8-1.4,5.5-2.9,8.2-4.4c1.8-1,3.6-1.9,5.3-2.9
	c1.3-0.7,2.5-1.5,3.7-2.4c3-2.2,5.9-4.6,8.9-6.8c1.1-0.8,2.5-1.4,3.7-2.1c2-1.3,4.1-2.6,6.1-3.9c0.9-0.6,1.6-1.4,2.4-2.1
	c3.1-2.5,6.4-4.8,9.4-7.4c2.8-2.3,5.5-4.7,8.2-7.2c0.7-0.8,1.4-1.6,2-2.5c1.4-1.9,2.7-3.8,4.1-5.6c2.4-3.2,4.9-6.3,7.3-9.5
	c1.2-1.7,2.4-3.4,3.5-5.1c1.7-2.5,3.3-5,4.9-7.5c1.8-2.9,4.4-5.3,5.9-8.4c1.9-3.8,3.8-7.7,5.5-11.6c0.9-1.8,1.5-3.7,2-5.7
	c0.3-1.8,1.5-3.5,2.1-5.3c1.9-4.8,3.2-9.8,4-14.9c0.4-3.1,1.1-6.2,1.6-9.3c0.1-1,0.1-2,0.1-3c0.1-1.4,0.2-2.9,0.2-4.3
	c0-1.2-0.1-2.4-0.1-3.6c0-0.4-0.1-0.7-0.1-1.1C350.9,148.2,350.7,145.5,350.4,142.7z"/>
<path class="st1" d="M175.2,142.4l1.2,1.6c-0.9,0.2-1.6,0.3-2.3,0.4l-0.3-0.4L175.2,142.4z"/>
<path class="st6" d="M171.9,150c0.6-1.5,3.2-3,4.7-2.7c0.4,0.1,0.8,0.3,1,0.6c0.5,0.8,0.9,1.7,1,2.7c0.1,2.8,2,4.1,4,5.4l-0.1,0.8
	c-0.9-0.3-0.7,0.8-1.1,1.1c-4.1-1.7-8.2-3.5-12.5-5.3l0.8-1.7c0.6,0.1,1.2,0.4,1.6,0.2S171.7,150.5,171.9,150z M177.9,151
	c-0.7-1.5-1.1-1.9-2-1.8c-1.2,0.2-2.2,1-2.6,2.2c-0.3,1.1,0.3,1.6,1.2,2L177.9,151z"/>
<path d="M175.9,149.3c0.9-0.1,1.4,0.3,2,1.8l-3.5,2.3c-0.8-0.3-1.5-0.8-1.2-2C173.7,150.3,174.7,149.4,175.9,149.3z"/>
<path class="st4" d="M218,165c1.3-0.4,2.7,0.4,3.1,1.7c0,0.1,0,0.2,0.1,0.3c0.5,2.2,0.2,4-1.9,5.3c-1.8,1.1-3.5,2.6-5.3,3.5
	c-1.8,0.8-3.6,1.5-5.5,2.1c-1.6,0.1-2.6-2.1-2.1-3.3c0.1-0.2,0.2-0.4,0.4-0.6c2-2.9,4-5.7,7.1-7.4C215,165.9,216.5,165.4,218,165z"
	/>
<path d="M125.6,169.4l1.9-1.7c1.6,2,3.1,3.9,4.7,5.8c1.1,1.3,2.4,2.5,3.6,3.7s2.2,2.6,3.3,3.8l-1.5,2.6c-0.4-0.5-1-0.9-1.5-1.2
	c-0.8,0.6-1.5,1.1-2.2,1.6c-3.6,2.7-6.4,6.1-9.5,9.3c-1.3,1.4-2.5,2.8-3.6,4.4c-2.3,3-4.4,6.2-6.2,9.5c-1.4,2.6-2.6,5.4-3.3,8.3
	c-0.4,2.2-0.9,4.4-1.6,6.6c-0.7,2-1.1,4.1-1.3,6.3c-0.1,1.1-0.1,2.1,1.2,2.6c0.5,0.2,0.8,0.8,1.4,1.3c0.9-0.7,1.6-1.5,2.3-2.4l2,1.4
	c-0.9,1.2-1.9,2.4-2.8,3.5c-1,1.3-1,2.6,0.2,3.5c1.8,1.5,3.7,2.8,5.8,3.9c1.9,0.8,3.9,1.5,5.9,2.1c4.2,1.5,8.4,3.1,12.6,4.6
	c3.8,1.3,7.6,2.5,11.4,3.5l0.9,0.2c3.2,0.7,6.5,1.5,9.6,2.5c1.5,0.5,3.1,0.8,4.7,0.9c4.3,0.7,8.6,1.3,12.9,1.9
	c0.5,0.1,1,0.1,1.6,0.2l2.3,0.5c0.7,0.1,1.5,0.3,2.2,0.3c1.4,0.1,2.8,0.1,4.3,0.1c4.3,0.1,8.6,0.6,12.9,0.3c5.1-0.3,10.3,0,15.5,0
	c2.3,0.1,4.6,0,6.9-0.4c0.3-1.1,0.8-2.1,1.3-3.1c0.9-0.9,1-2.3,0.3-3.4c-1.8,0.7-2.7,0.1-3.3-1.8c1.6-1.4,3.2-2.9,4.6-4.4
	c3.2-3.8,6.5-7.6,8.9-12.1c1.2-2.1,2-4.4,2.2-6.9l2.5,0.1c0,0.5,0,1,0.1,1.5c0.3,1.2,0.1,2.5-0.4,3.6c-0.3,0.7-0.6,1.3-0.8,2
	s-1.3,0.6-0.8,1.6c-1,1.5-1.8,3.1-2.9,4.5c-2.6,3.3-5.3,6.6-7.8,9.7c0.5,1.6,0.9,3,1.3,4.5c0.3,0.8,0,1.7-0.5,2.3
	c-0.4,0.4-0.7,0.9-1.3,1.7c0.9,0,1.4,0.1,1.9,0.1c1.4,0,2.9,0.2,4.2,0.8c0.8,0.3,1.4,1,1.4,1.9c0,1.1-0.4,2.1-1,2.9
	c-0.6,0.6-1.3,1.2-2,1.7l-1.3-2.7c0.4-0.3,0.7-0.6,0.8-1.1c-0.9-0.1-1.7-0.1-2.4-0.2c-3.4-0.1-6.7,0.5-10.1,0.4
	c-4.8-0.2-9.6-0.1-14.4-0.1c-1,0-2,0.1-3,0.1c-0.2,0.5-0.3,1.1-0.3,1.6l-2.2-1.2c-3.5-0.2-6.6-0.6-9.8-0.5c-4,0.1-7.8-0.8-11.7-1.4
	s-7.9-1.3-11.8-1.9c-2.1-0.2-4.3-0.5-6.3-1.1c-0.5-0.1-1.1-0.2-1.6-0.3c-0.3,0.7-0.7,1.3-0.9,2c-0.1,0.2-0.1,0.4-0.1,0.6l-2.2-0.7
	l1-2.8c-10.7-1.6-20.4-6.1-30.6-9.6c-1.2,1.3-2.4,2.4-3.5,3.8c-0.3,0.4-0.5,0.8-0.6,1.3l-2.4-0.7c0.5-2.1,2.1-3.8,3.8-5.6
	c-2.2-0.4-4.3-1.3-6.1-2.7c-1.6-1.2-3.4-2.2-4.5-4c-0.4-0.7-0.9-1.4-1.4-2.1c-0.5-0.7-0.8-1.4-0.9-2.3c-0.1-1.5-0.7-2.8-1.8-3.8
	c-0.8-0.8-2.5-1.1-3.1-0.5c-0.6,0.7-0.9,1.5-1,2.4l-2.3-0.4c0.3-1.1,0.6-2.2,1.2-3.2c0.6-1.3,1.9-1.9,4-2.1c0.1-0.3,0.2-0.7,0.2-1
	c0.6-5.6,2-11,4.2-16.2c1.9-3.9,3.9-7.6,6.3-11.2c1.7-2.9,3.8-5.7,6.1-8.1c1.8-1.9,3.7-3.7,5.6-5.6c1.6-1.6,3.4-3.2,5.1-4.8
	l-0.6-0.9l1.8-0.7C130.5,176.2,127.8,172.9,125.6,169.4z"/>
<path class="st4" d="M224.4,168.5l0.4,0.1c1.3,0.4,2.6,0.8,3.8,1.3c0.7,0.3,1.5,0.5,2.2,0.4c0.9-0.2,1.8,0.4,2.1,1.3
	c0.3,0.8,0.8,1.5,1.3,2.1c0.4,0.5,0.6,1.2,0.6,1.9c0,0.7-0.3,1.4-0.7,2c-0.9,1.4-2.5,2.3-4.1,2.4c-3.5,0.3-5.8-1.5-7.9-3.8
	c-0.4-0.4-0.9-0.7-1.4-1C223,173.5,225,171.8,224.4,168.5z"/>
<path class="st4" d="M238.5,169.8c0.6,0,1.2,0.1,1.6,0.5c1.2,0.9,2,2.3,2.3,3.8c0.3,1.3,0.9,2.5,1.3,3.8c-1.3,0.6-3,0.7-5.9,0.3
	c-0.1-1.1-0.3-2.1-0.6-3.1c-0.4-1-0.9-2-1.6-2.9c-0.2-0.5-0.4-1-0.5-1.5C236.2,170.3,237.4,170,238.5,169.8z"/>
<path d="M265.6,177.7c1.1-0.1,2.3,0.5,2.8,1.5c1.4,2.1,2.5,4.4,4.6,6.1c0.8,0.6,1.8,1.5,1.4,2.8c-0.1,0.1-0.2,0.1-0.4,0.2
	c-0.2,0-0.5,0.1-0.7,0.1c-1.9-0.3-3.7,0.7-4.5,2.5c-0.1,0.5-0.7,0.9-1.2,0.7c-0.1,0-0.2-0.1-0.3-0.1l0.6,3.2
	c0.9,0.6,1.7,1.3,2.5,2.1c1.7,1.6,3.2,3.4,4.8,5c1.5,1.4,2.5,3.2,3,5.2c-0.3,0.6-1,0.9-1.7,0.7c-0.5-0.1-1.1-0.2-1.6-0.1
	c-1.8,0.6-3.8,0.6-5.5,1.6c-0.4,0.2-0.9,0.2-1.3-0.1c-0.7-0.5-1.2-1.1-1.7-1.8c-0.8-1.4-1.4-3-2.2-4.5c-0.6-1.3-1.5-2.5-2.8-3.3
	c-0.4,1.8-0.9,3.4-1.1,5c-0.3,1.5-1.4,2.1-2.7,1.4s-2.4-1.5-3.6-2.3c-0.5-0.4-0.9-0.8-1.1-1.4c-0.5-0.9-0.8-1.9-1.2-3.1
	c2.2-0.5,4.6-0.7,6.4-2.4c0.1-1.1-0.5-2.1-1.5-2.5l0.3-2.1c0.6,0.5,1,0.3,1.5-0.7c0.2-0.4,0.4-0.7,0.5-0.9c-0.5-1-0.9-1.7-1.3-2.5
	c-0.3-0.5-0.6-1.1-1-1.6l1.6-1.4l1.3,1.5c0.5,0.8,1,1.6,1.4,2.5l1.7-0.6L265.6,177.7z M266.5,196.3l-2.4,1.8
	c1.4,2.5,2.7,4.9,4.1,7.2c0.2,0.3,0.6,0.6,1,0.6c1.9-0.3,3.7-0.7,5.5-1.1C274.2,203.2,271.9,200.8,266.5,196.3z"/>
<path class="st4" d="M245,178.5l1.4-1.4c1.3,0.4,2.5,1.1,3.3,2.2c2.2,2.2,4.3,4.5,6.4,6.7c0.1,0.2,0.3,0.3,0.4,0.5
	c0.4,0.5,0.7,1.1,1,1.6c0.4,0.7,0.8,1.5,1.3,2.5c-0.1,0.1-0.3,0.5-0.5,0.9c-0.5,1-0.9,1.2-1.5,0.7c-0.1-0.1-0.3-0.3-0.4-0.4
	c-1.1-1.2-2.1-2.6-2.7-4.2c-0.3-0.7-0.8-1.3-1.3-1.8c-0.4-0.5-1.2-0.7-1.8-0.4c-0.8,0.4-1.3,0-2-0.4c-1.1-0.8-2.1-1.7-3-2.8
	c-0.5-0.5-0.7-1.2-0.5-1.9C245.3,179.7,245.2,179.1,245,178.5z"/>
<path class="st6" d="M214.2,179c1.7-0.6,3.3-1.6,5-2.4l7.5,6c-1.5,2.9-3.1,5.8-5,8.5c-0.3,0.3-0.6,0.4-1,0.5
	c-0.5,0.1-0.9,0.2-1.4,0.2c-3.9-3.3-7.9-6.5-10.3-11.4C210.7,180,212.5,179.7,214.2,179z"/>
<path d="M137.6,183.6l1.5-2.6c0.4,0.4,0.8,0.8,1.2,1.2c2.5,2.4,5.2,4.6,7.7,7c3,2.8,5.8,5.8,9,8.4c3.6,2.8,7.4,5.5,11.3,7.9
	c4.6,2.9,9.4,5.5,14,8.3s9.1,5.9,14,8.5c3.2,1.7,6.3,3.7,9.4,5.5c3.5,2,7.1,4,10.5,6.1c1.5,0.7,2.7,1.8,3.6,3.2l-1.6,2.4
	c-1.8-1.2-3.4-2.3-5.1-3.5l0.6,3.4c-0.8,0.4-1.6,1-2.2,1.7c-1.2,1.2-2.2,2.6-3.5,3.7c-1.4,1.3-3.1,2.2-4.5,3.5
	c-2.2,2-4.9,3.1-7.5,4.4c-0.6,0.4-1.3,0.6-2,0.9c-2.8,0.7-5.4,1.8-7.9,3.2c-1.3,0.6-2.7,1.2-4.2,1.5c-0.5,0.1-0.9,0.2-1.4,0.2v0.4
	l-2.3-0.5c-0.9-1.7-0.7-2.3,0.9-2.8c0.6-0.2,1.3-0.4,1.9-0.5c1.8-0.4,3.6-1.1,5.1-2.1c1.1-0.7,2.3-1.3,3.5-1.8
	c5.2-1.5,10-4,14.2-7.5c1.5-1.2,3-2.6,4.4-4c0.9-1,1.6-2.3,1.9-3.6c0.4-1.5,0-2.4-1.5-3c-2.5-1-4.8-2.4-6.9-4
	c-0.8-0.6-1.7-1.1-2.6-1.6c-3.8-2.1-7.7-4.2-11.4-6.4s-7.2-4.6-10.8-6.9c-1.6-1-3.3-2-4.8-2.9c-0.9,0.9-1.8,1.9-2.6,2.9
	c-1.5,2.2-3,4.5-4.4,6.7c-0.5,0.8-0.9,1.5-1.4,2.3c-1.2,2.3-2.3,4.7-3.6,6.9c-0.9,1.5-1.5,3.1-2.3,4.7c-1.4,2.7-2.6,5.5-3.9,8.3
	c-1.1,2.6-2.6,5.1-2.7,8c-0.4,0.4-1,0.6-1.6,0.4c-0.5-0.2-1-0.5-1.5-0.8l0.3-2.3c0.3-1.9,0.9-3.7,1.8-5.4c1.4-3,2.7-6.1,4.1-9.1
	c1.6-3.1,3.4-6.2,4.9-9.3c1.5-2.9,3.1-5.8,4.9-8.5c1.5-2.3,2.9-4.6,4.4-6.9c-1.7-1.1-3.4-2.1-5-3.1c-1.9-1.3-3.9-2.5-5.7-4
	c-2.6-2.1-5.1-4.4-7.6-6.7c-2.1-1.9-4.2-3.9-6.3-5.8c-0.9-0.8-1.9-1.5-2.6-2.2l-1.4,1.4l-0.2-2.9
	C138.9,185.3,138.3,184.4,137.6,183.6z"/>
<path class="st6" d="M136,182.4c0.6,0.3,1.1,0.7,1.5,1.2c0.7,0.8,1.3,1.7,2,2.6c-1.3-0.6-2.1,0-3,0.9c-2.3,2.4-4.8,4.5-7.1,6.9
	c-2.6,2.7-4.9,5.6-7,8.6c-0.9,1.3-1.6,2.6-2.3,4.1c-0.6,1.4-0.9,2.9-1.4,4.4c-0.1,0.6-0.3,1.1-0.5,1.6c-0.5,1.1-0.7,2.4-0.5,3.7
	c0.1,1.7,0.1,3.5,0.1,5.2c0,0.9,0.2,1.8,0.3,2.8c-2,1.4-3.3,3.5-4.8,5.4c-0.7,0.9-1.5,1.7-2.3,2.4c-0.5-0.5-0.9-1.1-1.4-1.3
	c-1.3-0.5-1.3-1.5-1.2-2.6c0.2-2.1,0.6-4.2,1.3-6.3c0.7-2.2,1.2-4.4,1.6-6.6c0.7-2.9,1.8-5.7,3.3-8.3c1.8-3.3,3.9-6.5,6.2-9.5
	c1.1-1.6,2.3-3,3.6-4.4c3.1-3.2,5.9-6.6,9.5-9.3C134.5,183.4,135.2,182.9,136,182.4z"/>
<path d="M136.6,187.1c0.9-0.9,1.7-1.5,3-0.9l0.2,2.9c-0.3,0.3-0.5,0.5-0.8,0.7c-0.9,0.7-1.8,1.3-2.6,2.1c-3.5,3.4-6.7,7-9.7,11
	c-1.2,1.7-2.3,3.5-3.3,5.3c-0.5,1.2-0.9,2.4-1.3,3.7c-0.5,1.3-0.9,2.6-1.1,3.9c-0.1,1.8,0,3.7,0.1,5.5c0.1,3.5,1.2,6.8,3.2,9.7
	c0.5,0.8,1.1,1.4,0.2,2.3c-0.1,0.1,0,0.5,0,0.8c0,0.8,0.3,1.6-0.7,2c-0.7,0.3-1.2,0-1.9-1.2l-0.1-0.1c-0.6-1.6-1.5-2.9-1.7-4.7
	c-0.3-1.2-0.7-2.5-1.2-3.6c-0.5,0.7-0.7,1-0.9,1.2c-0.9,1.2-1.9,2.4-2.9,3.5l-2-1.4c1.6-1.9,2.9-4,4.8-5.4c-0.1-1-0.2-1.9-0.3-2.8
	c0.1-1.7,0-3.5-0.1-5.2c-0.2-1.2,0-2.5,0.5-3.7c0.2-0.5,0.4-1.1,0.6-1.7c0.5-1.5,0.8-3,1.4-4.4c0.6-1.4,1.4-2.8,2.3-4.1
	c2.1-3.1,4.4-6,7-8.6C131.7,191.7,134.2,189.5,136.6,187.1z"/>
<path class="st6" d="M139.8,189l1.4-1.4c0.8,0.6,1.7,1.4,2.6,2.2c2.1,1.9,4.2,3.9,6.3,5.8c2.5,2.3,5,4.5,7.6,6.7
	c1.8,1.5,3.7,2.7,5.7,4c1.6,1.1,3.2,2,5,3.1c-1.5,2.3-2.9,4.6-4.4,6.9c-1.8,2.7-3.5,5.6-4.9,8.5c-1.5,3.2-3.4,6.2-4.9,9.3
	c-1.5,3-2.7,6.1-4.1,9.1c-0.9,1.7-1.5,3.5-1.8,5.4l-0.3,2.3c0.5,0.3,1,0.6,1.5,0.8l-0.3,1l-0.9-0.2c-3.9-1-7.7-2.3-11.4-3.5
	c-4.2-1.5-8.4-3.1-12.6-4.6c-2-0.6-4-1.3-5.9-2.1c-2-1.1-3.9-2.4-5.8-3.9c-1.2-0.9-1.2-2.2-0.2-3.5s1.9-2.4,2.8-3.5s1.9-2.4,2.9-3.5
	c0.2-0.3,0.4-0.6,0.9-1.2c0.5,1.2,0.9,2.4,1.2,3.6c0.2,1.7,1.2,3.1,1.7,4.7l0.1,0.1c0.7,1.2,1.2,1.5,1.9,1.2c0.9-0.4,0.7-1.3,0.7-2
	c0-0.3-0.2-0.7,0-0.8c0.9-0.9,0.3-1.6-0.2-2.3c-2-2.9-3.1-6.2-3.2-9.7c0-1.8-0.1-3.7-0.1-5.5c0.2-1.4,0.5-2.7,1.1-4
	c0.3-1.3,0.7-2.5,1.3-3.7c1-1.9,2.1-3.6,3.3-5.3c2.9-3.9,6.1-7.6,9.7-11c0.8-0.8,1.8-1.4,2.6-2.1C139.3,189.5,139.6,189.3,139.8,189
	z"/>
<path class="st4" d="M264.1,198.2l2.4-1.8c5.4,4.5,7.7,6.8,8.2,8.5c-1.9,0.4-3.7,0.8-5.5,1.1c-0.4,0-0.8-0.3-1-0.6
	C266.8,203,265.5,200.7,264.1,198.2z"/>
<path class="st6" d="M172.1,211.4c1.6,1,3.2,1.9,4.8,2.9c3.6,2.3,7.1,4.7,10.8,6.9s7.6,4.3,11.4,6.4c0.9,0.5,1.8,1,2.6,1.6
	c2.1,1.6,4.5,3,6.9,4c1.4,0.6,1.8,1.5,1.5,3c-0.3,1.3-1,2.6-1.9,3.6c-1.4,1.4-2.8,2.8-4.4,4c-4.2,3.4-9,6-14.2,7.5
	c-1.2,0.4-2.4,1-3.5,1.8c-1.6,1-3.3,1.7-5.1,2.1c-0.6,0.1-1.3,0.3-1.9,0.5c-1.6,0.5-1.8,1.1-0.9,2.8c-0.6-0.1-1.1-0.1-1.6-0.2
	c-4.3-0.6-8.6-1.3-12.9-1.9c-1.6-0.2-3.2-0.5-4.7-0.9c-3.2-1-6.4-1.9-9.6-2.5l0.3-1c0.6,0.2,1.2,0,1.6-0.4c0-2.9,1.6-5.4,2.7-8
	c1.2-2.8,2.5-5.5,3.9-8.3c0.8-1.5,1.4-3.2,2.3-4.7c1.4-2.2,2.4-4.6,3.6-6.9c0.4-0.8,0.9-1.6,1.4-2.3c1.4-2.3,2.9-4.5,4.4-6.7
	C170.2,213.3,171.1,212.3,172.1,211.4z M206.1,237.7c0,1,0.1,1.9,1.3,2.2C207.9,238.5,207.7,238.1,206.1,237.7L206.1,237.7z"/>
<path d="M20.4,219.3c2.3,0,4.7,0.4,6.9,1.2c3.7,1.1,7.2,2.4,10.9,3.7c0.3,0.1,0.7,0.3,1,0.5c2.3,1.3,4.7,2.2,7.3,2.8
	c1.1,0.4,2.2,1,3.2,1.7c3.2,1.9,6.5,3.7,9.7,5.7c1.8,1.1,3.4,2.4,5.3,3.4c1.3,0.7,2.6,1.1,4,1.4c2.3,0.5,4.7,1,7,1.3
	c5.1,0.7,10.1,1.6,15.3,0.9c2.3-0.2,4.6-0.6,6.9-1.1c1-0.3,2.1-0.4,3.1-0.6c-0.3-0.9-0.6-1.6-0.9-2.4c-0.7-1.5-0.8-3.2-0.4-4.9
	l2.3,0.4c-0.2,0.7-0.1,1.4,0.1,2.1c1.2,2.2,2.3,4.4,3.1,6.8c0.2,0.5,0.4,1,0.7,1.4l-2.4,1.6c0-0.2-0.1-0.3-0.1-0.5
	c-0.3-0.7-0.6-1.4-0.9-2c-0.8,0.4-1.7,0.7-2.5,1c-1.2,0.3-2.5,0.4-3.7,0.6c-0.9,0.1-1.8,0.4-2.6,0.5c-2.2,0.2-4.4,0.4-6.6,0.5
	c-2,0-4-0.1-6.1-0.3c-3.3-0.4-6.6-1.1-9.9-1.4c-3.6-0.4-7-1.3-9.9-3.5c-1.2-0.9-2.5-1.8-3.9-2.6c-2.9-1.7-5.9-3.5-8.8-5.1
	c-1.3-0.8-2.6-1.4-4-1.9c-1.9-0.5-3.7-1.3-5.4-2.2c-0.6-0.3-1.2-0.6-1.8-0.8c-2.6-1-5.2-2.1-7.9-2.9c-2.4-0.8-4.9-1.3-7.4-1.7
	c-1.9-0.1-3.8-0.1-5.7,0c-1.3,0-2.6,0.3-3.7,0.9c0.7,0.4,1.3,0.8,1.9,1c2.4,1.1,4.9,2.1,7.4,3.2c1.1,0.5,2.2,1,3.3,1.4
	c3.3,1.1,6.7,2,10.2,2.8c4.4,0.8,8,3.4,12.3,4.3c0.3,0.1,0.6,0.3,0.7,0.6c0.2,0.8-0.9,2.2-1.8,2c-1.4-0.2-2.7-0.5-3.9-1.1
	c-1.8-0.9-3.7-1.8-5.7-2.5c-1.1-0.4-2.2-0.7-3.3-0.9c-2-0.5-3.9-0.9-5.9-1.3c-1-0.2-2.1-0.2-3.1,0.1c-0.3,0.1-0.8,0.4-0.9,0.7
	c-0.1,0.5-0.1,0.9-0.1,1.4h-2.3v-4.1c-1.3-0.6-3-1.3-4.6-2c-2-0.9-4-1.7-5.9-2.8c-1.1-0.6-1.8-1.6-2-2.8c-0.2-1,0.2-1.9,1.1-2.4
	c2.6-1.4,5.5-2.1,8.4-2C18.9,219.4,19.6,219.4,20.4,219.3z"/>
<path class="st6" d="M16.1,222.9c1.9-0.1,3.8-0.1,5.7,0c2.5,0.4,5,0.9,7.4,1.7c2.7,0.8,5.3,1.9,7.9,2.9c0.6,0.2,1.2,0.5,1.8,0.8
	c1.7,0.9,3.6,1.7,5.4,2.2c1.4,0.5,2.7,1.1,4,1.9c3,1.7,5.9,3.4,8.8,5.1c1.3,0.8,2.6,1.7,3.9,2.6c2.9,2.3,6.3,3.1,9.9,3.5
	c3.3,0.4,6.6,1,9.9,1.4c2,0.2,4,0.3,6.1,0.3c2.2,0,4.4-0.3,6.6-0.5c0.9-0.1,1.8-0.3,2.6-0.5c1.2-0.2,2.5-0.3,3.7-0.6
	c0.9-0.3,1.7-0.6,2.5-1c0.3,0.6,0.6,1.3,0.9,2c0.1,0.2,0.1,0.3,0.1,0.5c0,0.1,0,0.1,0,0.2c-0.6,1-1.3,2-2.1,2.8
	c-1.2,0.8-2.3,1.8-3.3,2.9c-0.3,0.4-0.6,0.7-0.9,1c-1,0.9-2.2,1.7-3.2,2.6s-1.9,1.9-2.9,2.9s-2.3,2-3.2,3.1
	c-0.6,0.8-1.1,1.7-1.5,2.6c-0.2,0.5-0.5,0.9-0.8,1.3c-3.5,3.6-7.1,7.1-10.6,10.7c-0.4,0.4-0.8,0.9-1.1,1.4c-0.8,1-1.1,1.1-2.3,0.6
	c-2.6-1.1-5.1-2.3-7.7-3.4c-2.9-1-5.6-2.5-8-4.4c-1.6-1.3-3.1-2.8-4.5-4.2l0.6-1.9c-0.8,0-1.4,0-2-0.1c-2.8-0.3-5.6-1-7.7-3
	c-1.8-1.6-3.2-3.6-4-5.9c-0.1-0.5-0.1-1.2-0.9-1.2c-0.7,0.1-1.2,0.7-1.1,1.4c0,0,0,0,0,0c0,0.9,0.2,1.9,0.6,2.7
	c0.7,1.3,1.6,2.5,2.5,3.7c0.2,0.3,0.4,0.7,0.8,1.3c-1.3,0.3-2.5,0.6-3.6,0.7c-1.9,0.2-3.9,0.4-5.9,0.6c-3.1,0.2-5.6-1-8.1-3
	c1.8-1.3,3.6-1,5.3-1.3c1.3-0.2,2.6-0.2,3.9-0.2c0.8,0.1,1.6-0.5,1.7-1.4c0-0.1,0-0.2,0-0.3c0.1-0.8-0.5-1.5-1.4-1.6
	c-0.1,0-0.1,0-0.2,0c-0.3,0-0.6,0-0.9,0c-2.7,0.1-5.4,0.3-8,0.3c-1.5-0.1-3-0.3-4.4-0.5c-0.6-0.1-1.3-0.2-1.3-0.8v-0.1
	c0.1-0.7,0.5-1.3,1.1-1.7c1-0.5,2-0.9,3-1.1c2.7-0.9,5.6-1.4,8.4-1.3c1.1-0.1,2.1-0.4,3.1-0.8c0.5-0.1,1-0.3,1.5-0.4
	c1.6-0.3,1.9-0.7,1.8-2.7l0.1-0.5c0.5,0.1,1.1,0.2,1.6,0.4c1.1,0.2,2.1,0.9,2.5,2c0.8,1.7,2,3.1,3.6,4c0.8,0.5,1.5,1,2.2,1.6
	c1.1,0.9,2.5,1.3,3.8,1.1c1-0.3,2-0.8,2.9-1.4l-0.1-0.4c-0.5-0.1-1.1-0.2-1.6-0.4c-1-0.2-1.9-0.6-2.8-1c-1.9-1.3-3.7-2.8-5.5-4.3
	c-0.4-0.4-0.7-0.9-0.9-1.5c-0.4-0.6-0.7-1.2-1.1-1.8c-0.6-0.9-1.6-1-2.6-1.2c-3.8-0.5-7.4-1.8-10.8-3.6c-1-0.5-1.9-1.2-2.8-1.9
	c-0.7-0.6-1.1-1.5-1.1-2.5c0-0.5,0.1-0.9,0.1-1.4c0-0.3,0.5-0.6,0.9-0.7c1-0.3,2.1-0.3,3.1-0.1c2,0.4,3.9,0.9,5.9,1.3
	c1.1,0.2,2.2,0.5,3.3,0.9c2,0.7,3.9,1.5,5.7,2.5c1.2,0.6,2.6,0.9,3.9,1.1c0.8,0.2,2-1.2,1.8-2c-0.1-0.3-0.4-0.6-0.7-0.6
	c-4.3-0.9-8-3.5-12.3-4.3c-3.4-0.7-6.8-1.7-10.2-2.8c-1.1-0.4-2.2-0.9-3.3-1.4c-2.4-1.1-4.9-2.1-7.4-3.2c-0.6-0.3-1.2-0.6-1.9-1
	C13.5,223.3,14.8,223,16.1,222.9z"/>
<path class="st1" d="M102.9,230.9c0.6-0.5,2.3-0.3,3.1,0.5c1.1,1,1.7,2.3,1.8,3.8c0,0.8,0.3,1.6,0.9,2.3c0.5,0.7,0.9,1.4,1.4,2.1
	c1.1,1.8,2.9,2.8,4.5,4c1.8,1.4,3.9,2.3,6.1,2.7c-1.8,1.8-3.3,3.5-3.8,5.6c0,0.1-0.1,0.3-0.1,0.4c-0.2,0-0.3,0.1-0.3,0.1
	c-4-2.3-7.9-4.7-10.5-8.7c-0.3-0.4-0.5-0.9-0.7-1.4c-0.8-2.4-1.9-4.6-3.1-6.8c-0.3-0.7-0.3-1.4-0.1-2.1
	C102,232.4,102.3,231.6,102.9,230.9z"/>
<path d="M21.1,235.6h2.3c-0.1,0.9,0.3,1.9,1.1,2.5c0.9,0.7,1.8,1.3,2.8,1.9c3.3,1.9,7,3.1,10.8,3.6c1.1,0.1,2,0.2,2.6,1.2
	c0.4,0.6,0.8,1.2,1.1,1.8c0.2,0.5,0.5,1,0.9,1.5c1.8,1.5,3.6,3,5.5,4.3c0.9,0.5,1.8,0.8,2.8,1c0.5,0.2,1.1,0.3,1.6,0.4l0.1,0.4
	c-0.9,0.6-1.9,1.1-2.9,1.4c-1.4,0.2-2.8-0.2-3.8-1.1c-0.7-0.6-1.4-1.1-2.2-1.6c-1.6-1-2.8-2.4-3.6-4c-0.4-1.1-1.4-1.8-2.5-2
	c-0.5-0.1-1-0.3-1.6-0.4c-2.3-0.5-4.6-0.8-6.6-2c-1-0.6-2.1-1.2-3.2-1.6c-1.6-0.8-3.1-2-4.2-3.4c-4.5-0.1-8.9-0.4-13.5,0.2
	c0.7,1,1.8,1.7,2.9,2c2.3,0.9,4.6,1.6,6.9,2.5c2.4,0.7,4.9,1.3,7.5,1.8c2.4,0.6,4.9,0.9,7.4,1.1c0.9,0,1.8,0.1,2.6,0.1
	c0.1,2.1-0.2,2.5-1.8,2.7c-0.5,0.1-1,0.3-1.5,0.4c-1,0.4-2,0.7-3.1,0.8c-2.9-0.1-5.7,0.4-8.4,1.3c-1,0.3-2,0.6-3,1.1
	c-0.6,0.4-1,1-1.1,1.7v0.1l-2.3-1.1c0.5-2,2.1-3.5,4.1-4c1.4-0.3,2.7-0.9,4.2-1.4c-2-0.6-3.8-1.3-5.7-1.7c-2.4-0.6-4.8-1.5-7.1-2.6
	c-1.5-0.8-2.9-1.9-3.9-3.3c-1.4-1.8-0.2-3.9,2.3-4.4c0.2,0,0.5,0,0.7,0c1.6,0.1,3.2,0.1,4.7,0c1.9-0.2,3.9,0,5.8,0
	c0.4,0,0.7-0.1,1.1-0.2L21.1,235.6z"/>
<path d="M207.2,239.8c-1.2-0.3-1.3-1.2-1.3-2.2C207.7,238.1,207.9,238.5,207.2,239.8z"/>
<path class="st6" d="M8.6,239.4c4.6-0.6,9-0.3,13.5-0.2c1.1,1.5,2.5,2.6,4.2,3.4c1.1,0.5,2.2,1,3.2,1.6c2,1.3,4.4,1.6,6.6,2
	l-0.1,0.5c-0.9,0-1.8-0.1-2.6-0.1c-2.5-0.1-5-0.5-7.4-1.1c-2.5-0.4-5-1-7.5-1.8c-2.3-0.9-4.6-1.6-6.9-2.5
	C10.4,241.1,9.3,240.4,8.6,239.4z"/>
<path d="M103.4,245.3l2.4-1.6c2.6,4,6.4,6.4,10.5,8.7c0,0,0.1,0,0.3-0.1c0-0.1,0.1-0.3,0.1-0.4l2.4,0.7c0,0.7,0.5,1.3,1.4,1.6
	c0.3,0.1,0.6,0.2,0.9,0.2c4.6,0.9,9.1,1.9,13.7,2.8c2.2,0.4,4.4,0.6,6.5,1c3.6,0.8,7.2,1.6,10.9,2.5l0.3-0.8l2.2,0.7
	c0,0.7,0.4,1.2,1.1,1.4c3.4,1,6.9,2.1,10.3,2.8c2.5,0.6,5.2,0.7,7.8,1.1c2.1,0.3,4.2,0.8,6.3,1.2c2.3,0.4,4.6,0.8,6.9,1.3
	c3.4,0.7,6.9,0.6,10.2-0.4c-0.4-1.6-1.3-3.1-0.3-4.8l2.2,1.2c0,0.8,0.2,1.6,0.5,2.3c0.2,1,1.2,1.6,2.2,1.3c0,0,0,0,0,0
	c0.8-0.1,1.7-0.2,2.5-0.3c3.9-0.2,7.9,0,11.8-0.7c2.1-0.4,4.1-0.7,6.1-1.2c1.8-0.5,3.5-1.1,5.3-1.7c0.3-0.1,0.7-0.3,1-0.4l1.3,2.7
	c-0.7,0.5-1.6,0.9-2.5,1.1c-1,0.2-2,0.7-3.1,1c-0.8,0.1-1.4,0.9-1.4,1.7l-2.2-0.1v-0.4c-2.1,0.3-4,0.8-5.9,1
	c-3.8,0.3-7.6,0.4-11.4,0.7c-2.5,0.2-5,0-7.4,0.7c-2.3,0.5-4.6,0.7-6.9,0.4c-1.9-0.2-3.7-0.6-5.3-0.9c-2.9,2.2-6,4-9.3,5.5
	c-0.7,0.3-1.4,0.6-2,1c-1.4,0.9-2.8,1.8-4.2,2.7c-0.3,0.2-0.5,0.6-0.5,1v0.2h-2.4c0.2-1,0.2-2.1,0.1-3.1c-0.2-2.1-0.5-4.2-2.3-5.6
	c-0.3-0.2-0.5-0.5-0.5-0.9c0-1-0.6-1.9-1.5-2.3c-1.7-1.1-3.5-2.1-5.3-2.8c-2.5-0.9-5.1-1.3-7.7-1.2c-2.4-0.2-4.7,0.1-7,0.7
	c-3.3,1-5.8,3.6-6.7,6.9c-0.2,0.9-0.4,1.9-0.5,2.8l-2.1-0.2c-0.1,0-0.2,0-0.3,0v-1.2c0.1-0.1,0.2-0.2,0.2-0.3c0.4-2.5,1-4.9,2.8-6.9
	c0.2-0.2,0.4-0.5,0.5-0.8c0.1-0.3,0.1-0.7,0-1c-0.2-0.9-0.4-1.7-0.6-2.6s-0.3-1.9-0.4-2.7c-4.8-1-9.4-1.9-14-3
	c-1.6-0.3-3.2-0.9-4.6-1.7c-2.4-1.4-4.6-2.9-6.9-4.5c-1.3-0.9-2.3-2-3.6-3.1c-0.9,1.8-2.7,2.5-4.2,3.7c-0.2,0.2-0.4,0.4-0.7,0.6
	l-1.6,1.4l-1.9-1.9c0.3-0.3,0.7-0.6,0.9-1c1-1.1,2.1-2.1,3.3-2.9c0.8-0.8,1.6-1.8,2.1-2.8C103.4,245.4,103.4,245.3,103.4,245.3z
	 M137,261.2v3.8c2.2-1,4.3-1.9,6.4-2.9C141.3,261.4,139.2,261.6,137,261.2z M169.4,269.1c-1.3-0.2-2.6-0.5-4.1-0.8
	c0.5,0.9,1.1,1.5,1.1,2.1c0,1.6,0.7,3,1,4.5c0.2,0.7,0.3,1.4,0.4,2l11.6-6c-3.1-0.7-5.6-1.7-8.4-1.4
	C170.4,269.4,169.9,269.3,169.4,269.1z"/>
<path class="st8" d="M101.1,252c1.5-1.2,3.3-1.9,4.2-3.7c1.3,1.1,2.4,2.2,3.6,3.1c2.2,1.6,4.5,3.1,6.9,4.5c1.5,0.8,3,1.4,4.6,1.7
	c4.6,1.1,9.2,2,14,3c0.1,0.8,0.2,1.8,0.4,2.7s0.4,1.7,0.6,2.6c0.1,0.3,0.1,0.7,0,1c-0.1,0.3-0.3,0.5-0.5,0.8
	c-1.8,1.9-2.4,4.4-2.8,6.9c0,0.1-0.1,0.2-0.2,0.3c-2.7,0.4-5.5,0.8-8.2,1.3c-2.2,0.4-4.5,0.4-6.8-0.1c-1.9-0.4-3.9-0.8-5.8-1.1
	c-1.8-0.5-3.4-1.2-5-2.2c-3.6-1.8-6.5-4.6-9.8-6.8c-0.5-0.4-1.1-0.7-1.7-1l-4-2.3c1.3-1.5,2.3-2.9,3.6-4.1c1.5-1.5,3.1-2.9,4.7-4.4
	l1.6-1.4C100.7,252.4,100.9,252.2,101.1,252z M114.4,264c-0.3-2.3-1.1-4.3-4.2-3.5c-1.2,0.4-2.4,1.1-3.3,2c-1.3,1.1-1.8,2.7-1.6,4.4
	c0.1,1.4,1.1,2.6,2.4,3c2.4,0.9,5-0.2,6.1-2.6c0.3-0.8,0.5-1.7,0.7-2.5c-0.1,0-0.1,0-0.2,0C114.3,264.5,114.4,264.2,114.4,264
	L114.4,264z"/>
<path class="st9" d="M119.7,251.2c1.1-1.3,2.3-2.5,3.5-3.8c10.2,3.5,19.9,8.1,30.6,9.6l-1,2.8l-0.3,0.8c-3.7-0.9-7.2-1.7-10.9-2.5
	c-2.1-0.5-4.4-0.6-6.5-1c-4.6-0.9-9.1-1.9-13.7-2.8c-0.3-0.1-0.6-0.1-0.9-0.2c-0.9-0.4-1.4-0.9-1.4-1.6
	C119.2,252,119.4,251.5,119.7,251.2z"/>
<path d="M97,252.1l1.9,1.9c-1.6,1.4-3.2,2.9-4.7,4.4c-1.2,1.2-2.3,2.6-3.6,4.1l4,2.3c0.6,0.3,1.2,0.6,1.7,1c3.3,2.2,6.2,5,9.8,6.8
	c1.6,1,3.2,1.7,5,2.2c1.9,0.4,3.9,0.8,5.8,1.1c2.2,0.4,4.5,0.5,6.8,0.1c2.8-0.5,5.5-0.9,8.2-1.3v1.2v1.6v0.2v0
	c-1.6,0.4-3.2,0.8-4.8,1c-3.1,0.6-6.2,1.3-9.4,0.6c-0.8-0.2-1.6-0.3-2.5-0.4c-3-0.4-5.9-1.4-8.6-2.8c-1.5-0.8-3-1.6-4.4-2.5
	c-1.4-0.9-2.8-1.9-4.1-3c-2.1-1.8-4.5-3.3-6.9-4.6c-1.2-0.6-2-0.5-3.1,0.6c-1.9,1.9-3.8,3.7-5.8,5.6c-3.4,3.2-6.5,6.8-9.1,10.7
	c-1.6,2.5-3,5.2-4.5,7.8c-0.9,1.6-1.9,3.3-2.8,4.9s-1.7,3.1-2.4,4.7c-0.8,1.8-1.2,3.7-2.1,5.5c-2,4.3-3.7,8.8-5.1,13.4
	c-0.7,2.2-0.9,4.5-0.6,6.7c0.1,1.5,0,3.1-0.2,4.6c-0.1,2.2-0.9,4.4,0.3,6.5c1.3,2.5,1.9,5.1,2.6,7.8c0.3,0.7,0.6,1.4,1,2.1
	c1,1.6,2,3.3,2.8,5c0.9,2.6,2.2,4.9,3.9,7c0.7,0.8,1.4,1.7,2.1,2.5c2.2,2.5,4.3,5.1,6.6,7.5c0.8,0.8,1.7,1.4,1.7,2.7
	c0,0.2,0.3,0.5,0.4,0.7c1.4,1.4,2.9,2.7,4.4,4l-1.4,1.6l-1.2-1c-0.5-0.4-0.9-0.4-1.3,0.2c-0.2,0.3-0.5,0.6-0.8,0.7
	c-1.2,0.7-2.4,1.3-3.6,2c-2,1.2-3.7,2.8-5.9,3.7c-0.6,0.3-1.1,0.7-1.5,1.2c-1,0.9-1.9,1.8-2.9,2.6c-1.8,1.4-2.9,3.6-3,5.9
	c-0.1,1.7,0.1,3.5,0.5,5.1l-1.8,0.4c-0.7-2.6-0.9-5.4-0.5-8.1c0.3-2,1.3-3.9,2.8-5.3c1.7-1.6,3.4-3.2,5-4.8c0.1-0.1,0.3-0.3,0.4-0.3
	c3.6-1.5,6.2-4.4,10-5.8c-2.8-2.6-4.3-6-7-8.5c-1.2-1.3-2.4-2.8-3.4-4.3c-1.3-1.4-2.4-2.9-3.5-4.5c-1.1-1.9-2-3.9-3-5.9
	s-2.1-4.2-3.2-6.4c-0.2-0.5-0.4-1-0.5-1.5c-0.6-2.7-1.8-5.2-2.7-7.8c-0.4-1.8-0.6-3.6-0.4-5.5c0-2.5,0.2-5,0.4-7.5
	c0-1,0.1-1.9,0.3-2.8c1.4-5.1,3.1-10,5.3-14.8c1.1-2.3,2.1-4.7,2.9-7.1c0.8-2,1.9-4,3.1-5.8c1.4-2.4,2.7-4.8,4-7.2
	c0.8-1.4,1.5-2.8,2.2-4.2c-4.3-2-8.6-3.8-12.7-6c-3.5-1.8-6.5-4.4-8.8-7.6c-0.6-0.5-1.3-0.9-2-1c-1.4-0.4-2.7-0.8-4.1-1.2
	c-0.3-0.1-0.7-0.1-1-0.1c-1.8,0.8-3.8,1.2-5.7,1.3c-1.2,0.1-2.5,0.4-3.7,0.6c-3.3,0.6-6.7,0-9.6-1.8c-1.2-0.8-2.2-1.8-3-3
	c-0.4-0.6-0.2-1.6-0.3-2.4c-1-0.4-2.2-0.7-3.3-1.3c-1.5-0.7-2.2-2.5-1.7-4l0.1-0.4l2.3,1.1c0,0.6,0.7,0.7,1.3,0.8
	c1.5,0.3,2.9,0.5,4.4,0.5c2.7,0,5.4-0.2,8-0.3c0.3,0,0.6,0,0.9,0c0.8-0.1,1.5,0.6,1.6,1.4c0,0.1,0,0.1,0,0.2
	c0.1,0.8-0.6,1.6-1.4,1.6c-0.1,0-0.2,0-0.3,0c-1.3,0-2.6,0-3.9,0.2c-1.7,0.3-3.6,0.1-5.3,1.3c2.5,2,5,3.2,8.1,3
	c2-0.1,3.9-0.3,5.9-0.6c1.1-0.1,2.3-0.5,3.6-0.7c-0.4-0.6-0.6-0.9-0.8-1.3c-0.9-1.2-1.7-2.4-2.5-3.7c-0.4-0.9-0.6-1.8-0.6-2.7
	c-0.1-0.7,0.4-1.3,1.1-1.4c0,0,0,0,0,0c0.7-0.1,0.7,0.7,0.9,1.2c0.8,2.3,2.2,4.3,4,5.9c2.1,2,4.9,2.6,7.7,3c0.6,0.1,1.3,0.1,2,0.1
	l-0.6,1.9c1.5,1.4,2.9,2.9,4.5,4.2c2.4,1.9,5.1,3.3,8,4.4c2.6,1,5.1,2.3,7.7,3.4c1.2,0.5,1.4,0.4,2.3-0.6c0.4-0.5,0.7-0.9,1.1-1.4
	c3.5-3.6,7.1-7.1,10.6-10.7c0.3-0.4,0.6-0.9,0.8-1.3c0.4-0.9,0.9-1.8,1.5-2.6c1-1.1,2.1-2,3.2-3.1s1.9-2,2.9-2.9S96,253.1,97,252.1z
	"/>
<path class="st1" d="M156.1,258c0.5,0.1,1.1,0.2,1.6,0.3c2.1,0.6,4.2,0.9,6.3,1.1c4,0.5,7.9,1.3,11.8,1.9s7.7,1.5,11.7,1.4
	c3.1-0.1,6.3,0.3,9.8,0.5c-1,1.8-0.1,3.3,0.3,4.8c-3.3,1-6.8,1.1-10.2,0.4c-2.3-0.4-4.6-0.9-6.9-1.3c-2.1-0.4-4.2-0.8-6.3-1.2
	c-2.6-0.4-5.2-0.5-7.8-1.1c-3.5-0.8-6.9-1.8-10.4-2.8c-0.6-0.2-1.1-0.7-1.1-1.4c0-0.2,0-0.4,0.1-0.6
	C155.4,259.3,155.7,258.7,156.1,258z"/>
<path d="M110.2,260.4c3.1-0.8,3.9,1.2,4.2,3.5c0,0.2,0,0.5-0.1,0.7c0.1,0,0.1,0,0.2,0c-0.2,0.9-0.4,1.7-0.7,2.5
	c-1,2.3-3.7,3.4-6.1,2.6c-1.3-0.4-2.3-1.6-2.4-3c-0.3-1.6,0.3-3.3,1.6-4.4C107.8,261.5,108.9,260.9,110.2,260.4z M113,263.8
	c-1.9-0.9-4.1-0.2-5.1,1.7c-0.2,0.3-0.3,0.7-0.3,1.1C109.9,267.5,112.1,266.4,113,263.8z"/>
<path class="st1" d="M137,265v-3.8c2.2,0.4,4.4,0.2,6.4,1C141.2,263.1,139.2,264,137,265z"/>
<path class="st9" d="M217.2,262.7c3.4,0.1,6.8-0.5,10.1-0.4c0.8,0,1.5,0.1,2.4,0.2c-0.2,0.4-0.4,0.8-0.8,1.1c-0.3,0.2-0.7,0.3-1,0.4
	c-1.8,0.6-3.5,1.3-5.3,1.7c-2,0.5-4.1,0.9-6.1,1.2c-3.9,0.7-7.8,0.5-11.8,0.7c-0.8,0-1.7,0.2-2.5,0.3c-1,0.3-2-0.3-2.2-1.3
	c0,0,0,0,0,0c-0.3-0.7-0.5-1.5-0.5-2.3c0-0.6,0.1-1.1,0.3-1.6c1,0,2-0.1,3-0.1C207.6,262.5,212.4,262.5,217.2,262.7z"/>
<path class="st10" d="M107.6,266.5c0.3-2.1,2.3-3.5,4.4-3.1c0.4,0.1,0.7,0.2,1.1,0.3C112.1,266.4,109.9,267.5,107.6,266.5z"/>
<path class="st10" d="M148.4,265.8c2.6-0.1,5.2,0.3,7.7,1.2c1.9,0.7,3.7,1.7,5.3,2.8c0.9,0.4,1.5,1.3,1.5,2.3
	c0.1,0.3,0.2,0.7,0.5,0.9c1.8,1.5,2.1,3.6,2.3,5.6c0.2,1,0.1,2.1-0.1,3.1c-0.1,0.5-0.4,0.9-0.8,1.3c-0.2,0.2-0.4,0.5-0.6,0.7
	c-2.5,1.8-4.9,3.6-7.4,5.3c-0.8,0.4-1.7,0.8-2.7,1c-3.2,1.1-6.7,1.3-10,0.3c-3.1-0.8-5.8-2.8-7.5-5.5c-1.7-2.6-2.5-5.6-2.3-8.7
	c0.1-0.9,0.2-1.9,0.5-2.8c0.9-3.3,3.4-5.9,6.7-6.9C143.8,265.9,146.1,265.6,148.4,265.8z M156.8,271.4c-0.9-1.5-2.4-2.5-4.1-2.7
	c-6.2,0.2-8.6,3.3-11.1,7.9c-0.9,1.7,0.5,5.5,2.3,6.9c0.6,0.5,1.3,0.9,1.8,1.5c0.8,0.7,1.9,1.1,3,0.9c2.7-0.1,4.9-1.4,7.2-2.5
	c1.5-0.7,2.5-2,2.9-3.6c0.2-0.7,0.5-1.5,0.7-2.2c0.7-2-0.1-4.3-1.9-5.4C157.2,272,157,271.7,156.8,271.4L156.8,271.4z"/>
<path class="st1" d="M88.1,266.8c1.1-1,1.9-1.2,3.1-0.6c2.5,1.3,4.8,2.8,6.9,4.6c1.3,1.1,2.7,2.1,4.1,3v2.9
	c-0.3-0.3-0.7-0.5-1.2-0.5c-0.3,0-0.6,0.1-0.8,0.3c-1.9,1.5-3.5,3.3-4.7,5.3c-0.7,1.2-1.6,2.3-2.6,3.3c-1,1.2-1.8,2.5-2.5,3.9
	c-1.7,3.1-3.5,6.1-5,9.3c-0.9,1.9-1.3,4.1-2.1,6.1c-1.6,4.3-2.3,8.8-2.3,13.4c-0.1,6-0.2,12-0.3,17.9c0,3.9,0.2,7.8-0.1,11.6
	c-0.2,3.8,0.2,7.5,1.2,11.2c1.3,5.9,3.1,11.6,5.1,17.3c0.8,2.2,1.5,4.4,2.3,6.9c-2.8-2.1-5.4-4.1-8-6.2c-1.5-1.3-3-2.6-4.4-4
	c-0.2-0.2-0.5-0.5-0.4-0.7c0-1.3-0.9-1.9-1.7-2.7c-2.3-2.4-4.4-5-6.6-7.5c-0.7-0.8-1.4-1.7-2.1-2.5c-1.7-2.1-3-4.4-3.9-7
	c-0.8-1.7-1.7-3.4-2.8-5c-0.4-0.7-0.7-1.4-1-2.1c-0.8-2.6-1.3-5.3-2.6-7.8c-1.1-2.1-0.4-4.3-0.3-6.5c0.2-1.5,0.3-3.1,0.2-4.6
	c-0.4-2.2-0.2-4.5,0.6-6.7c1.4-4.6,3.1-9,5.1-13.4c0.9-1.7,1.3-3.7,2.1-5.5c0.7-1.6,1.6-3.2,2.4-4.7s1.9-3.3,2.8-4.9
	c1.5-2.6,2.9-5.3,4.5-7.8c2.6-3.9,5.6-7.5,9.1-10.7C84.3,270.5,86.2,268.7,88.1,266.8z M79.9,347.6l-0.1-0.5v0.5H79.9z"/>
<path class="st1" d="M165.2,268.3c1.5,0.3,2.8,0.5,4.1,0.8c0.5,0.2,1,0.2,1.6,0.3c2.8-0.2,5.3,0.8,8.4,1.4l-11.6,6.1
	c-0.1-0.7-0.2-1.4-0.4-2c-0.4-1.5-1.1-2.9-1-4.5C166.4,269.8,165.7,269.2,165.2,268.3z"/>
<path d="M152.7,268.7c1.7,0.2,3.3,1.2,4.1,2.7c0.2,0.3,0.4,0.6,0.7,0.8c1.8,1.1,2.6,3.4,1.9,5.4c-0.2,0.8-0.4,1.5-0.7,2.2
	c-0.4,1.6-1.5,2.9-2.9,3.6c-2.3,1.1-4.5,2.4-7.2,2.5c-1.1,0.1-2.2-0.2-3-0.9c-0.6-0.5-1.2-1-1.8-1.5c-1.8-1.5-3.2-5.2-2.3-6.9
	C144.1,272.1,146.5,269,152.7,268.7z M153.8,272.6c-0.5-0.2-1.1-0.4-1.7-0.6c-1.9,0.1-3.7,0.7-5.1,2c-1.1,1.1-2.1,2.3-2.9,3.6
	c-0.5,1.1-0.2,2.3,0.7,3.1c0.5,0.5,1.1,0.9,1.7,1.3c0.7,0.4,1.5,0.6,2.4,0.5c1.5-0.3,3-0.8,4.4-1.3c2.2-0.6,3.8-2.6,4-4.9
	c0.2-0.7,0-1.4-0.6-1.9C155.7,273.8,154.7,273.2,153.8,272.6z"/>
<path class="st8" d="M221.1,269.6v0.4c-0.1,1.2-0.1,2.3-0.3,3.3c-0.1,0.5-0.3,0.9-0.6,1.3c-1.6,2.8-0.9,6.4,1.7,8.4
	c0.7,0.6,1.3,1.2,1.8,1.9c0.4,0.4,0.9,0.9,1.5,1.5c-1.3,0.4-2.4,0.7-3.4,0.9c-3.5,0.9-7.1,1.6-10.7,2c-3.4,0.5-6.7,1.2-10,2.2
	c-3.8,1-7.6,1.4-11.5,1.2c-3-0.2-6.1-0.6-9.1-0.7s-6.1,0.2-9.1,0.3c-0.4,0.1-0.8,0.2-1.1,0.5c-1.9-1-2.9-2.8-4-4.6
	c-0.6-0.6-0.6-1.5,0-2.1c0.2-0.2,0.3-0.5,0.5-0.7c0.9-0.9,1.4-2.1,1.3-3.3v-0.2c0-0.4,0.2-0.8,0.5-1c1.4-1,2.8-1.9,4.2-2.7
	c0.6-0.4,1.4-0.7,2-1c3.3-1.5,6.4-3.4,9.3-5.5c1.6,0.3,3.5,0.7,5.3,0.9c2.3,0.3,4.7,0.2,6.9-0.4c2.4-0.7,4.9-0.5,7.4-0.7
	c3.8-0.3,7.6-0.4,11.4-0.7C217.1,270.4,219,269.9,221.1,269.6z M199.3,279.3c-1.4-1.4-4.2-0.7-5.2,1.1c-0.7,1.3-0.9,2.9-0.6,4.3v1.3
	c0,0.4,0,0.8,0.1,1.3c0.2,1.2,0.9,2,1.8,1.9c1.9-0.2,3.6-0.7,4.6-2.5c0.6-1.2,0.9-2.4,1-3.7C201,281.5,200.4,280.1,199.3,279.3z"/>
<path d="M221.1,269.9l2.2,0.1c0,0.5,0,1-0.1,1.6c-0.2,1,0.7,1.2,1.4,1.5c1.9,0.7,2.9,2.7,2.2,4.6c0,0,0,0,0,0
	c-0.3,1-0.6,1.9-0.9,2.9c-0.3,0.9-0.1,1.8,0.5,2.5c0.6,0.9,1.2,1.8,1.6,2.7c-0.6,1.5,0,2.7,0.9,3.8c0.1,0.1,0,0.4,0.1,0.5l0.8,2.9
	l-1.9,0.6l-0.3-0.9c-0.4-1.3-0.5-2.7-1.9-3.7c-2,0.6-4,1.2-6.1,1.9c0,0.8,0,1.4,0,2.1v0.3h-2.4c0-0.5-0.1-1.1-0.5-1.5
	c-1.3,0.1-2.4,0.2-3.5,0.3c-3.7,0.2-7.1,1.4-10.6,2.3c-3.4,0.9-6.9,1.4-10.4,1.4c-0.5,0-1,0-1.6,0.1l0.3,1.3l-2.5,0.2l0-0.6H186
	c0.1-1.1-0.6-1.4-1.5-1.4c-0.4,0-0.8-0.1-1.3-0.2c-1.9-0.4-3.8-0.5-5.7-0.3c-1.3,0.3-2.7,0.1-4.1,0.4c-1.2,0.2-2.2-0.5-3.3-0.5
	l0.1-2.3c0.4-0.2,0.7-0.4,1.1-0.5c3-0.2,6.1-0.4,9.1-0.3s6.1,0.5,9.1,0.7c3.9,0.2,7.8-0.2,11.5-1.2c3.3-1,6.6-1.7,10-2.2
	c3.6-0.4,7.2-1.1,10.7-2c1.1-0.3,2.1-0.6,3.4-0.9c-0.7-0.6-1.1-1-1.5-1.5c-0.5-0.7-1.1-1.3-1.8-1.9c-2.5-2-3.2-5.5-1.7-8.3
	c0.3-0.4,0.5-0.8,0.6-1.3C221,272.2,221,271.2,221.1,269.9z M223.1,276.3c-0.8,0-1.2,0.4-1.3,1.3c0,1.2,0.8,2.1,2,2.2
	c0.7,0,1.3-0.5,1.3-1.2c0,0,0-0.1,0-0.1C225.1,277.3,224.2,276.4,223.1,276.3L223.1,276.3z"/>
<path class="st1" d="M152.1,272.1c0.6,0.1,1.1,0.3,1.7,0.6c1,0.5,1.9,1.1,2.8,1.8c0.6,0.4,0.8,1.2,0.6,1.9c-0.2,2.3-1.8,4.3-4,4.9
	c-1.4,0.5-2.9,1-4.4,1.3c-0.8,0-1.6-0.2-2.4-0.5c-0.6-0.4-1.2-0.8-1.7-1.3c-0.9-0.7-1.2-2-0.7-3.1c0.8-1.3,1.8-2.5,2.9-3.6
	C148.4,272.8,150.2,272.1,152.1,272.1z"/>
<path class="st9" d="M102.2,276.8v-2.9c1.4,0.9,2.9,1.7,4.4,2.5c2.7,1.4,5.6,2.3,8.6,2.8c0.8,0.1,1.6,0.3,2.5,0.4
	c3.2,0.7,6.3-0.1,9.4-0.6c1.6-0.3,3.2-0.7,4.8-1c0.2,1,0.4,2.1,0.6,3.1c0.8,3.1,2.2,5.9,4.3,8.3c2.1,2.2,4.6,3.9,7.5,4.9l-2.4,6.2
	c-2.4,5.7-4.1,11.6-5.3,17.6c-0.3,1.3-0.6,2.7-1,4c-0.6,2-1.1,4-1.3,6.1c-0.2,2.5-0.8,5-1.2,7.4c-0.5,3.4-1.1,6.7-1.6,10.1
	c-0.6,4.6-1.3,9.2-1.8,13.9c-0.3,2.7-0.1,5.4-0.3,8.1c-0.2,4-0.6,8-0.9,12c-0.1,2.2,0,4.4,0,6.6c0,1.7,0.2,3.5,0.3,5.2
	c0,0.3-0.1,0.5-0.1,0.8c-0.4,0.1-0.8,0.2-1.2,0.2c-2.9,0.2-5.8,0.1-8.8-0.1c-4.7-0.4-9.4-1.2-13.9-2.4c-1.2-0.4-2.5-0.5-3.7-0.9
	c-1.9-0.6-3.7-1.2-5.6-1.9c-0.2-0.1-0.5-0.2-0.7-0.4c-0.7-0.5-1-1.2-1-2c-0.1-0.4-0.2-0.8-0.5-1.1c-1.2-1.9-2-3.9-2.6-6
	c-0.5-1.9-1.3-3.7-1.8-5.6c-1.4-4.9-3.1-9.7-4.2-14.6c-0.7-3.1-1.1-6.4-1-9.6c0.1-3.1-0.1-6.2-0.1-9.3c0-0.7,0.1-1.4,0.1-2.1
	l0.1-19.4c0.2-3.2,0.7-6.3,1.7-9.3c0.4-1.8,1-3.7,1.7-5.4c1-2.4,2.2-4.7,3.4-7c0.8-1.6,1.8-3.1,2.8-4.6c0.6-1,1.2-2.1,2.6-2.3
	c0.2-1.3,0.8-2.6,1.7-3.6c0.5-0.7,1.1-1.4,1.5-2.1c0.6-1,1.5-1.8,2.6-2.4c1-0.5,1.1-1,0.9-2.1C102.9,277.6,102.6,277.1,102.2,276.8z
	"/>
<path class="st1" d="M132,276c0.1,0,0.2,0,0.3,0l-0.3,1.6V276z"/>
<path d="M132.2,276l2.1,0.2c-0.2,3.1,0.6,6.1,2.3,8.7c1.7,2.7,4.4,4.7,7.6,5.5c3.3,0.9,6.8,0.8,10-0.3c0.9-0.2,1.8-0.6,2.7-1
	c2.5-1.7,4.9-3.5,7.4-5.3c0.2-0.2,0.4-0.4,0.6-0.7c0.3-0.4,0.6-0.8,0.8-1.3h2.4c0.1,1.2-0.4,2.5-1.3,3.3c-0.2,0.2-0.3,0.5-0.5,0.7
	c-0.6,0.6-0.6,1.5,0,2.1c1.1,1.8,2.1,3.6,4,4.6l-0.1,2.3c-0.3,0-0.6,0-0.8,0.1c-0.2,0.1-0.6-0.1-0.8-0.3c-0.7-0.6-1.4-1.3-2-2
	c-1.1-1.4-2-2.9-3-4.3c-2.6,1.8-4.8,4-7.7,4.9s-5.8,1.9-9.4,1l-2-0.2c-2.9-1-5.5-2.6-7.5-4.9c-2.1-2.4-3.5-5.2-4.3-8.3
	c-0.3-1-0.4-2.1-0.6-3.1l0,0l0,0v-0.2L132.2,276z"/>
<path class="st10" d="M221.7,277.6c0.1-0.9,0.5-1.3,1.3-1.3c1.2,0.1,2.1,1.1,2.1,2.2c0,0.7-0.5,1.3-1.2,1.3c0,0-0.1,0-0.1,0
	C222.6,279.7,221.7,278.7,221.7,277.6z"/>
<path d="M100.2,276.5c0.2-0.2,0.5-0.3,0.8-0.3c0.4,0,0.9,0.2,1.2,0.5c0.4,0.4,0.6,0.8,0.7,1.3c0.3,1.1,0.1,1.6-0.9,2.1
	c-1.1,0.5-2,1.4-2.6,2.4c-0.5,0.7-1,1.5-1.5,2.1c-1,1-1.6,2.2-1.7,3.6c-1.3,0.2-1.9,1.3-2.6,2.3c-0.9,1.5-1.9,3-2.8,4.6
	c-1.2,2.3-2.4,4.6-3.4,7c-0.7,1.8-1.3,3.6-1.7,5.4c-1,3-1.5,6.1-1.7,9.3l-0.1,19.4c0,0.7-0.1,1.4-0.1,2.1c0,3.1,0.2,6.2,0.1,9.3
	c-0.1,3.2,0.3,6.4,1,9.6c1.1,4.9,2.7,9.8,4.2,14.6c0.6,1.9,1.4,3.7,1.8,5.6c0.6,2.1,1.5,4.1,2.6,6c0.2,0.3,0.4,0.7,0.5,1.1
	c0,0.8,0.3,1.5,1,2l-0.4,2.7c-0.9-0.5-1.7-0.9-2.4-1.3c-0.8-0.5-1.6-1-2.4-1.6c-1.2-1-2.3-2.2-3.4-3.2c-0.5,1-1.1,1.9-1.8,2.7
	c-1.8,1.6-3.6,3.1-5.4,4.6c-3,2.4-5.3,5.2-5.5,9.2c-0.1,1.4-0.1,2.7,0.1,4.1l-1.9,0.3c-0.3-2.3-0.2-4.7,0.2-7
	c0.2-1.5,0.7-2.9,1.5-4.2c2.3-3.4,5.2-6.3,8.5-8.6c1-0.6,1.7-1.5,2.2-2.5c-1.5-1.3-2.9-2.5-4.3-3.8l1.4-1.6c2.5,2.1,5.2,4.1,8,6.2
	c-0.8-2.5-1.5-4.7-2.3-6.9c-2.1-5.6-3.8-11.4-5.1-17.3c-1-3.6-1.4-7.4-1.2-11.2c0.3-3.9,0-7.7,0.1-11.6c0.1-6,0.2-12,0.3-17.9
	c-0.1-4.5,0.7-9.1,2.3-13.3c0.8-2,1.2-4.1,2.1-6.1c1.5-3.2,3.3-6.2,5-9.3c0.6-1.4,1.5-2.7,2.5-3.9c1-1,1.9-2.1,2.6-3.3
	C96.7,279.8,98.3,278,100.2,276.5z"/>
<path class="st1" d="M132,277.6v0.2l0,0l0,0V277.6z"/>
<path class="st1" d="M131.9,277.8L131.9,277.8L131.9,277.8z"/>
<path d="M194.1,280.4c1-1.7,3.8-2.4,5.2-1.1c1.1,0.8,1.7,2.1,1.7,3.5c-0.1,1.3-0.4,2.6-1,3.7c-1,1.9-2.8,2.3-4.6,2.5
	c-0.9,0.1-1.6-0.7-1.8-1.9c-0.1-0.4-0.1-0.8-0.1-1.3v-1.3C193.2,283.3,193.4,281.7,194.1,280.4z M199,283.8l-1.2-1.9
	c-2.4,0.4-2.9,1.4-1.9,3.7C197.6,285.4,198,285.2,199,283.8z"/>
<path class="st10" d="M197.8,281.9l1.2,1.9c-1,1.4-1.4,1.6-3.2,1.8C194.8,283.3,195.4,282.3,197.8,281.9z"/>
<path class="st1" d="M155.8,293.3c3-0.8,5.1-3.1,7.7-4.9c1,1.4,1.9,2.9,3,4.3c0.6,0.7,1.3,1.4,2,2c0.2,0.2,0.6,0.4,0.8,0.3
	c0.3-0.1,0.5-0.2,0.8-0.1c1.1,0,2.2,0.7,3.3,0.5c1.3-0.3,2.7-0.1,4.1-0.4c1.9-0.2,3.8-0.1,5.7,0.3c0.4,0,0.8,0.2,1.3,0.2
	c0.9,0,1.6,0.3,1.5,1.4h2.3l0,0.6c0.1,1.3,0.3,2.5,0.3,3.8c0.1,4.2,0.2,8.4,0,12.6c-0.1,3.1-0.7,6.2-1,9.2
	c-0.4,3.4-0.8,6.8-1.4,10.1c-0.7,3.6-1,7.4-1.5,11c-0.8,4.2-2,8.4-3.6,12.4c-2,5.2-4.4,10.3-7.1,15.3c-0.7,1.4-1.6,2.7-2.3,4
	c-0.1,0.4-0.2,0.9-0.1,1.3c0,0.3,0,0.7-0.1,1c-0.5,1.6-1.9,2.8-3.6,3.1c-3.5,1-7.1,1.6-10.8,1.9c-3.1,0.2-6,1.7-7.9,4.1
	c-0.5,0.6-1,1.3-1.5,2c-0.7,1.2-2.1,2-3.5,2c-2,0.1-3.9,0.7-5.8,0.9s-3.9,0-6.1,0c-0.1-1.5-0.2-2.8-0.3-4.1
	c-0.1-2.1-0.2-4.2-0.1-6.3c0-1.9,0.1-3.8,0.4-5.7c0.7-4,0.4-8.1,0.6-12.2c0.2-3.3,0.6-6.6,0.9-10c0.3-2.9,0.7-5.8,1.2-8.7
	c0.7-4.3,1.4-8.6,2.1-12.9c0.1-0.9,0-1.9,0.2-2.9c0.5-2.3,1-4.6,1.6-7c0.4-1.8,0.9-3.5,1.1-5.3c0.6-3.3,1.6-6.6,2.9-9.8
	c1-2.8,2-5.6,3.1-8.4c0.1-0.4,0.3-0.8,0.6-1.1c0.9-1,0.8-2.6-0.2-3.5c0,0,0,0,0,0C149.9,295.2,152.9,294.1,155.8,293.3z"/>
<path class="st1" d="M219.7,291c2.1-0.7,4.1-1.3,6.1-1.9c1.3,1,1.5,2.4,1.9,3.7l0.3,0.9c0.8,2.6,1.4,5.3,2.2,7.9
	c1,3.6,0.8,7.3,0.4,11c-0.3,2.1-0.5,4.2-0.7,6.3l-0.2,2c-0.7,5.2-2.3,10.2-4.9,14.7c-2.6,4.9-5.2,9.8-7.6,14.8
	c-0.9,1.9-1.5,3.9-2.4,5.8c-1.3,3-3.1,5.7-5.3,8.1c-2.4,2.5-4.6,5.2-7.1,7.6c-2.9,2.7-6.1,5.2-9.2,7.7c-0.4,0.2-0.8,0.4-1.2,0.5
	c0.2-0.7,0.5-1.3,0.9-1.9c0.3-0.5,0.8-0.9,1.4-1.1c0.2-0.1,0.4-0.3,0.5-0.5c1.3-2.3,2.6-4.5,3.9-6.8c1.1-1.9,2-3.8,3.2-5.6
	c1.7-2.9,3.1-5.9,4.4-8.9c1.6-3.4,2.1-7.1,3.1-10.7c1.7-6.2,3.3-12.4,4.9-18.6c0.6-2.3,0.9-4.6,1.4-6.8c0.3-1.6,0.7-3.1,1.1-4.7
	c0.7-2.6,1.3-5.3,1.9-8c0.5-2.3,0.9-4.6,1.1-7c0.1-2,0.1-4,0.1-6v-0.3C219.7,292.4,219.7,291.8,219.7,291z"/>
<path class="st9" d="M213.2,292.1c1.1-0.1,2.3-0.2,3.5-0.3c0.4,0.4,0.5,0.9,0.5,1.5c0,0.5-0.1,1-0.1,1.5c-0.2,2.7-0.4,5.5-0.9,8.2
	c-0.5,2.9-1.2,5.7-1.9,8.5c-0.9,3.8-1.8,7.5-2.7,11.3c-0.8,3.1-1.6,6.2-2.4,9.4s-1.6,6.5-2.5,9.7c-0.7,2.6-1.2,5.4-2.1,8
	c-1.5,4.7-3.6,9.3-6.3,13.4c-1.8,2.7-3.2,5.7-4.8,8.6c-1,1.8-2,3.6-2.8,5.4c-0.8,1.6-1.5,3.3-2.1,5.1c-0.2,0.5-0.6,0.9-1,1.3
	c-2.1,1.8-4.3,3.6-6.5,5.3c-1.6,1.3-2.9,2.8-4,4.6c-1.5,2.4-3,4.8-5.7,6.2c-2.4,1.4-4.5,3.1-6.3,5.2c-0.8,0.8-1.5,1.6-2.2,2.5
	c-1,1.4-0.6,2.7,0.3,4.1c1.2,1.8,2.2,3.8,3.1,5.8c0.5,1.5,0.8,3.1,1,4.7l-4.4,0.9l-0.2-0.5c-0.4-1-1-2-1.8-2.8
	c-2.3-2.5-3.6-5.8-3.7-9.3c0-0.2,0-0.4,0-0.5c1.9-6.5,5-12.2,10.6-16.3c0.8-0.6,1.5-1.4,2.2-2c1.8-1.5,3.5-3,5.3-4.5
	c0.9-0.8,1.7-1.6,2.7-2.5c-0.3-0.4-0.5-0.8-0.5-1.3c0.1-0.9,0.5-1.7,1-2.4c0.5-1,0.5-2.1-0.1-3.1c-0.3-0.6-1-0.9-1.6-0.7
	c-0.1,0.1-0.3,0.1-0.4,0.3c-0.5,0.4-1.1,0.7-1.7,0.9c0.3-1.5,0.8-2.9,1.6-4.3c0.9-1.4,1.7-3,2.4-4.5c1.1-2.2,2.2-4.5,3.2-6.7
	c2.3-4.9,4-10.1,5.3-15.4c0.5-2.4,0.6-4.8,1-7.3c0.2-1.6,0.6-3.2,0.8-4.8c0.5-3.5,0.9-7,1.3-10.5c0.4-3.2,0.9-6.4,1.1-9.6
	c0.2-3,0.1-6.1,0.1-9.1c0-2.4-0.2-4.8-0.4-7.1c-0.1-0.7-0.2-1.3-0.4-2l-0.3-1.3c0.6,0,1.1-0.1,1.6-0.1c3.5,0,7-0.5,10.4-1.4
	C206.1,293.5,209.6,292.3,213.2,292.1z"/>
<path d="M217.2,293.3h2.4c0,2,0,4-0.1,6c-0.2,2.4-0.6,4.7-1.1,7c-0.5,2.7-1.1,5.4-1.9,8c-0.4,1.5-0.8,3.1-1.1,4.7
	c-0.5,2.3-0.8,4.6-1.4,6.8c-1.6,6.2-3.2,12.5-4.9,18.6c-1,3.6-1.5,7.3-3.1,10.8c-1.3,3.1-2.7,6.1-4.4,8.9c-1.2,1.8-2.1,3.7-3.2,5.6
	c-1.3,2.3-2.6,4.5-3.9,6.8c-0.1,0.2-0.3,0.4-0.5,0.5c-0.6,0.2-1.1,0.6-1.4,1.1l-2-0.9c0.9-1.8,1.8-3.6,2.8-5.4
	c1.6-2.9,3-5.9,4.8-8.6c2.7-4.1,4.8-8.6,6.3-13.4c0.8-2.6,1.4-5.3,2.1-8c0.8-3.2,1.6-6.5,2.5-9.7s1.7-6.2,2.4-9.4
	c0.9-3.8,1.8-7.5,2.7-11.3c0.7-2.9,1.4-5.7,1.9-8.5c0.5-2.7,0.7-5.4,0.9-8.2C217.2,294.3,217.2,293.8,217.2,293.3z"/>
<path d="M144.4,294.1l2,0.2c1.1,0.9,1.2,2.5,0.3,3.5c0,0,0,0,0,0c-0.2,0.4-0.4,0.7-0.6,1.1c-1,2.8-2,5.6-3.1,8.4
	c-1.3,3.2-2.3,6.4-2.9,9.8c-0.3,1.8-0.8,3.5-1.1,5.3c-0.5,2.3-1.1,4.6-1.6,7c-0.2,0.9-0.1,1.9-0.2,2.9c-0.7,4.3-1.4,8.6-2.1,12.9
	c-0.4,2.9-0.9,5.8-1.2,8.7c-0.4,3.3-0.7,6.6-0.9,10c-0.3,4,0.1,8.1-0.6,12.2c-0.3,1.9-0.4,3.8-0.4,5.7c0,2.1,0.1,4.2,0.1,6.3
	c0,1.3,0.2,2.6,0.3,4.1c2.2,0,4.2,0.1,6.1,0s3.9-0.8,5.8-0.9c1.4,0,2.8-0.8,3.5-2c0.5-0.7,0.9-1.4,1.5-2c1.9-2.5,4.8-4,7.9-4.1
	c3.6-0.3,7.2-0.9,10.8-1.9c1.7-0.3,3.1-1.4,3.6-3.1c0.1-0.3,0.1-0.7,0.1-1c0-0.4,0-0.9,0.1-1.3c0.7-1.4,1.6-2.7,2.3-4
	c2.7-4.9,5-10,7.1-15.3c1.7-4,2.9-8.1,3.6-12.4c0.5-3.7,0.9-7.4,1.5-11c0.6-3.3,0.9-6.7,1.4-10.1c0.4-3.1,0.9-6.1,1-9.2
	c0.2-4.2,0-8.4,0-12.6c0-1.3-0.2-2.5-0.3-3.8l2.5-0.2c0.2,0.7,0.3,1.3,0.4,2c0.2,2.4,0.4,4.8,0.4,7.1c0.1,3,0.1,6.1-0.1,9.1
	c-0.2,3.2-0.7,6.4-1.1,9.6c-0.4,3.5-0.9,7-1.3,10.5c-0.2,1.6-0.6,3.2-0.8,4.8c-0.4,2.4-0.5,4.9-1,7.3c-1.2,5.3-3,10.4-5.3,15.4
	c-1,2.3-2.1,4.5-3.2,6.7c-0.7,1.6-1.5,3.1-2.4,4.5c-0.8,1.3-1.3,2.8-1.6,4.3c0.6-0.2,1.2-0.5,1.7-0.9c0.5-0.5,1.3-0.5,1.7,0
	c0.1,0.1,0.2,0.2,0.3,0.4c0.6,0.9,0.7,2.1,0.1,3.1c-0.5,0.7-0.9,1.5-1,2.4l-2-1.3c-0.5,0-1,0.1-1.5,0.2c-1.6,0.5-3.2,1.2-4.9,1.7
	c-3.5,1.1-7.2,1.8-10.9,2.2c-3.6,0.1-6.9,2.2-8.4,5.5c-0.5,1-1.4,1.8-2.4,2.4c-0.9,0.4-1.7,1.1-2.2,2c-0.3,0.5-0.7,0.9-1.1,1.2
	c-1.8,1.4-3.2,3.2-4.1,5.3c-0.7,1.6-1.2,3.3,0,4.9c1,1.3,2,2.5,3,3.8c0.6,0.8,1.2,1.6,1.8,2.4c0.8,1.3,1.4,2.6,2.1,3.9
	c0.2,0.3,0.3,0.6,0.5,0.9l-1.3,1.8c-1.1-1.5-2-3.1-2.9-4.7c-0.9-1.8-2.3-3.1-3.3-4.8c-0.8-1.3-1.8-2.4-2.4-3.7
	c-1.1-1.9-1.1-4.3-0.1-6.2c0.9-1.8,2-3.5,3.1-5.3c-0.8,0-1.7,0-2.6,0c-1.9,0-3.9,0.1-5.9,0.1c-1.3,0-2.6,0.1-3.9,0.1
	c-3-0.1-6,0-8.9-0.3s-6.1-0.9-9.1-1.5c-3-0.6-6-1.4-9.1-2.1c-0.4-0.1-0.7,0-1.1,0.1c-2.4,0.7-4.8,1.4-7.2,2.1
	c-3,0.9-5.4,2.8-7.6,4.9c-0.5,0.4-0.8,1-0.9,1.6l-2.1-0.1c0-1.7,0.7-3.3,1.9-4.5c0.9-0.8,1.8-1.5,2.8-2.2c1.2-0.8,2.5-1.6,3.8-2.3
	c1.5-0.7,3-1.1,4.8-1.8l-0.9-0.5l0.4-2.7c0.2,0.1,0.4,0.3,0.7,0.4c1.8,0.7,3.7,1.4,5.6,1.9c1.2,0.4,2.5,0.5,3.7,0.9
	c4.6,1.2,9.2,2,13.9,2.4c2.9,0.3,5.8,0.3,8.8,0.1c0.4,0,0.8-0.1,1.2-0.2c0.1-0.3,0.1-0.5,0.1-0.8c-0.1-1.7-0.2-3.5-0.3-5.2
	c0-2.2-0.1-4.4,0-6.6c0.2-4,0.6-8,0.9-12c0.2-2.7,0-5.4,0.3-8.1c0.5-4.6,1.1-9.3,1.8-13.9c0.5-3.4,1-6.7,1.6-10.1
	c0.4-2.5,1-4.9,1.2-7.4c0.2-2.1,0.6-4.1,1.3-6.1c0.4-1.3,0.7-2.7,1-4c1.2-6,2.9-12,5.3-17.6L144.4,294.1z"/>
<path d="M229.7,318.9l2.6,0.3c-0.1,0.8-0.1,1.6-0.2,2.4c-0.2,3.2-0.8,6.3-1.8,9.4c-0.7,2.5-2.3,4.7-3.5,7c-1.4,2.7-2.8,5.4-4.2,8
	c-1.8,3.3-3.2,6.8-4.6,10.3c-0.8,2-1.6,4.1-3.2,5.7c-0.1,0.1-0.2,0.3-0.3,0.4c-1.1,2.8-3.5,4.6-5.4,6.8c-1.6,1.8-3.3,3.6-5,5.3
	c-0.3,0.3-0.6,0.6-0.9,0.9c-2.2,1.8-4.5,3.7-6.7,5.5c-1.8,1.4-3.7,2.8-5.5,4.2c-2.6,2-5.3,3.9-7.6,6.1c-1.7,1.8-3.3,3.7-4.8,5.8
	c-1.5,1.9-2.9,3.9-5.1,5c-0.6,0.4-1.2,0.8-1.6,1.4c-1.8,1.6-3.5,3.2-5.3,4.8c-1,0.7-1.1,2.1-0.4,3c0,0,0.1,0.1,0.1,0.1
	c1,1.6,2.1,3.2,3,4.8c0.3,0.5,0.4,1.1,0.5,1.7c0.2,0.8,0.3,1.6,0.5,2.5c0.4,0,0.7,0,1.1,0c3-0.4,6.1-0.4,9.1,0.1
	c0.8,0.2,1.5,0.5,2.1,0.9c2.1,1.4,3.9,3.4,5,5.7c0.4,0.7,0.9,1.3,1.6,1.7c0.8,0.6,1.7,0.9,2.4,1.6c0.6,0.5,1.1,1.2,1.4,2
	c0.5,1.6,0.9,3.3,1,5v0.7h-2c0-0.8-0.2-1.6-0.4-2.4c-0.4-1.5-0.7-2.9-2.2-3.7c-1-0.6-1.9-1.2-2.9-1.9c-0.6,0.4-1.2,0.7-1.8,0.9
	c-3.6,1-7.2,1.6-10.9,1.9c-2,0.1-4.1,0-6.1,0c-2.1,0.1-4.1,0-6.1-0.6l-0.2-0.1l0.2-2.2c0.3,0.1,0.6,0.1,0.9,0.1
	c1.6,0.1,3.2,0,4.8,0.2c3,0.3,6.1-0.2,9.1-0.3c0.3,0,0.6,0,0.9-0.1c2-0.5,3.9-1,5.8-1.6c0.7-0.3,1.4-0.6,2-1c-1.3-2.9-2.3-3.6-5.1-4
	c-1.3-0.2-2.6-0.1-3.9-0.2c-1.5-0.3-3,0-4.3,0.8c-0.5,0.3-1.1,0.6-1.6,0.7c-3.9,0.8-7.7,1.5-11.6,2.2c-0.4,0-0.8,0-1.2-0.1
	c-0.9-0.1-1.9-0.3-2.9-0.4v-1.7c2.2,0.1,4.3-0.3,6.3-1.1l2.2-0.9l0.2,0.5l4.4-0.9c-0.2-1.6-0.5-3.2-1-4.7c-0.9-2-1.9-3.9-3.1-5.8
	c-0.9-1.4-1.2-2.8-0.3-4.1c0.7-0.9,1.4-1.7,2.2-2.5c1.8-2.1,3.9-3.8,6.3-5.2c2.7-1.4,4.2-3.8,5.7-6.2c1.1-1.7,2.4-3.3,4-4.6
	c2.2-1.8,4.3-3.5,6.5-5.3c0.4-0.3,0.8-0.8,1-1.3c0.6-1.7,1.3-3.4,2.1-5.1l2,0.9c-0.3,0.6-0.6,1.3-0.9,1.9c0.4-0.1,0.8-0.3,1.2-0.5
	c3.1-2.5,6.3-5,9.2-7.7c2.5-2.4,4.7-5,7.1-7.6c2.2-2.4,3.9-5.1,5.3-8.1c0.9-1.9,1.5-3.9,2.4-5.8c2.5-5,5.1-9.9,7.6-14.8
	c2.5-4.5,4.2-9.5,4.9-14.7L229.7,318.9z"/>
<path d="M79.8,347.1l0.1,0.5h-0.1L79.8,347.1z"/>
<path class="st9" d="M77.3,377.2c0.4-0.6,0.8-0.7,1.3-0.2l1.2,1c1.4,1.2,2.9,2.5,4.3,3.8c-0.5,1-1.3,1.9-2.2,2.5
	c-3.4,2.3-6.3,5.2-8.5,8.6c-0.8,1.3-1.3,2.7-1.5,4.2c-0.4,2.3-0.4,4.7-0.2,7c0.1,0.6,0.2,1.1,0.3,1.6c0.4,1.6,1.1,3.2,2.1,4.5
	c1.4,1.8,2.5,3.8,3.2,6c-1.8-0.4-3.5-0.7-5.1-1c-0.2,0-0.5-0.1-0.7-0.2c-2-0.5-3.9-1.1-4.5-3.4c-1.9-1.8-3-4.1-4.2-6.4
	c-1.2-2.1-2.1-4.3-2.6-6.6c-0.4-1.7-0.6-3.4-0.5-5.1c0.1-2.3,1.2-4.5,3-5.9c1-0.8,1.9-1.8,2.9-2.6c0.4-0.5,0.9-0.9,1.5-1.2
	c2.2-0.9,3.9-2.5,5.9-3.7c1.2-0.7,2.4-1.3,3.6-2C76.9,377.7,77.1,377.5,77.3,377.2z"/>
<path d="M175.7,381.9l2,1.3c0,0.5,0.2,1,0.5,1.3c-1,0.9-1.8,1.8-2.7,2.5c-1.7,1.5-3.5,3-5.3,4.5c-0.8,0.7-1.4,1.4-2.2,2
	c-5.5,4.1-8.7,9.8-10.6,16.3c0,0.2,0,0.4,0,0.5c0.1,3.4,1.4,6.7,3.7,9.3c0.8,0.8,1.4,1.7,1.8,2.8l-2.2,0.9c-0.2-0.5-0.5-1-0.8-1.5
	c-0.9-1.3-1.8-2.6-2.8-3.9c-1.9-2.3-2.3-5-2.6-7.8c0-0.5,0-1.1,0.1-1.6c0.3-1.4,0.7-2.7,1.1-4c1.5-4.1,3.9-7.8,7.2-10.8
	c3.7-3.4,7.4-6.7,11.1-10.1C174.7,383.3,175.2,382.6,175.7,381.9z"/>
<path class="st1" d="M174.2,382.2c0.5-0.1,1-0.2,1.5-0.2c-0.5,0.7-1.1,1.4-1.6,2c-3.7,3.4-7.4,6.7-11.1,10.1
	c-3.2,2.9-5.7,6.6-7.2,10.8c-0.4,1.3-0.8,2.6-1.1,4c-0.1,0.5-0.2,1.1-0.1,1.6c0.3,2.8,0.8,5.5,2.6,7.8c1,1.2,1.9,2.5,2.8,3.9
	c0.3,0.5,0.6,1,0.8,1.5c-2,0.8-4.1,1.2-6.3,1.1c-0.3,0-0.6,0-0.8-0.1c-0.5,0-0.9-0.1-1.3-0.4c-1.8-1.7-3.4-3.6-4.8-5.7
	c-0.2-0.3-0.4-0.6-0.5-0.9c-0.7-1.3-1.3-2.7-2.1-3.9c-0.6-0.8-1.2-1.7-1.8-2.4c-1-1.3-2-2.5-3-3.8c-1.2-1.6-0.7-3.3,0-4.9
	c0.9-2.1,2.3-3.9,4.1-5.3c0.4-0.3,0.8-0.7,1.1-1.2c0.5-0.9,1.3-1.6,2.2-2c1-0.5,1.8-1.3,2.4-2.4c1.5-3.3,4.8-5.4,8.4-5.5
	c3.7-0.4,7.3-1.1,10.9-2.2C171,383.4,172.6,382.7,174.2,382.2z"/>
<path class="st1" d="M86.4,383.1c1.1,1.1,2.3,2.2,3.4,3.2c0.7,0.6,1.5,1.1,2.4,1.6c0.8,0.5,1.5,0.9,2.4,1.3l0.9,0.5
	c-1.8,0.6-3.4,1.1-4.8,1.8c-1.3,0.6-2.6,1.4-3.8,2.3c-1,0.7-1.9,1.4-2.8,2.2c-1.2,1.2-1.9,2.8-1.9,4.5c-0.1,1.9,0.7,3.8,2.2,4.9
	c0.8,0.7,1.6,1.5,2.3,2.4c1.2,1.3,2.3,2.8,3.4,4.2c-0.7,1.1-2,1.5-3.1,1.9c-1.7,0.6-3.4,1-5.1,1.6c-0.8,0.3-1.6-0.1-2-0.8
	c-1.8-2.6-3.6-5.2-5.2-7.9c-0.5-0.9-0.9-2-1-3.1c-0.1-1.4-0.2-2.7-0.1-4.1c0.2-4,2.5-6.8,5.5-9.2c1.9-1.5,3.7-3,5.4-4.6
	C85.3,385,85.9,384.1,86.4,383.1z"/>
<path d="M58.4,399l1.8-0.4c0.6,2.3,1.5,4.5,2.6,6.6c1.2,2.2,2.3,4.6,4.2,6.4c0.6,2.3,2.6,2.9,4.5,3.4c0.2,0.1,0.4,0.1,0.7,0.2
	c1.7,0.3,3.4,0.7,5.1,1c-0.7-2.2-1.8-4.2-3.2-6c-1-1.3-1.7-2.9-2.1-4.5c-0.1-0.5-0.2-1.1-0.3-1.6l1.9-0.3c0.1,1.1,0.5,2.1,1,3.1
	c1.6,2.7,3.5,5.3,5.2,7.9c0.4,0.7,1.2,1.1,2,0.8c1.7-0.5,3.5-0.9,5.1-1.6c1.2-0.5,2.5-0.9,3.1-1.9c-1.2-1.5-2.3-2.9-3.4-4.2
	c-0.7-0.9-1.5-1.7-2.3-2.4c-1.5-1.2-2.3-3-2.2-4.9l2.1,0.1c0,1,0.5,1.9,1.4,2.4c1.2,1,2.2,2.1,3.1,3.4c0.8,1.2,1.9,2.1,3.2,2.6
	c0.6,0.1,1.2,0.2,1.7,0.1c0.4,0,0.8-0.3,1.2-0.2c2.9,0.4,5,3,4.9,5.9c0.1,1.5-0.4,3.1-1.3,4.3c1.4,0.9,2.6,1.9,3.9,2.6
	c0.8,0.4,1.4,1.1,1.6,2c0.4,1.3,0.7,2.6,0.9,3.9l-2.3,0.2c0-1.8-1.1-3.5-2.8-4.2c-1.3-0.6-2.7-1.4-2.8-3.4c-2.1,1-4,2-6,2.9
	c-0.9,0.5-1.8,0.9-2.8,1.1c-2.2,0.3-4.4,1-6.6,1.4c-1.6,0.4-3.2,0.6-4.8,0.5c-1.8-0.3-3.5-0.7-5.2-1.4c-2.4-0.9-4.9-1.2-7.4-1
	c-1.8,0.3-3.5,0.7-5.3,1c-4.3,0.7-8.7,1.4-13,2.2c-3.1,0.6-6.3,0.5-9.4,1.4c-3.5,0.9-6.9,2.2-10.2,3.9c-1.1,0.5-2,1.5-2.5,2.6
	l-0.6,2.6c-1-1-1.7-2.3-2.1-3.6c-0.2-0.8,0-1.7,0.6-2.3c1.3-1.6,3-2.8,4.9-3.5c4.3-2,8.8-3.4,13.5-4.1c0.7-0.1,1.5,0.1,2.3,0
	c4-0.5,8-1.1,12.1-1.7c1.6-0.3,3.1-0.8,4.7-1.2c0.9-0.2,1.9-0.4,2.8-0.5c0.7,0,1.4-0.3,2-0.7c0.4-0.4,1.2-0.3,1.9-0.5
	c0.3-1.1,0.5-2.1,0.6-3.2c0-0.7-0.2-1.4-0.6-2c-2.9-4.1-5.6-8.2-7.1-13C58.8,400.5,58.6,399.7,58.4,399z M93.6,411
	c-0.1,0.2-0.2,0.5-0.2,0.7c0.1,1.4-0.7,2.7-1.9,3.5c-1.7,1.4-3.6,2.4-5.7,2.9c-2.3,0.5-4.5,1.4-7,1.4c-3.2-0.1-6.4-0.7-9.4-1.7
	c-1.4,1.4-1.3,2.5,0.4,3.1c1.5,0.5,3,0.8,4.5,1.3c2.6,0.8,5.2,0.1,7.8-0.3c2.1-0.3,4.1-0.7,6.1-1.3c3.1-0.8,6-2.2,8.5-4.1
	c0.4-0.3,0.7-0.7,0.8-1.1c0.2-1.3-0.4-2.7-1.6-3.3C95.3,411.7,94.5,411.4,93.6,411z"/>
<path class="st9" d="M93.5,411.7c0-0.2,0.1-0.5,0.2-0.7c0.9,0.4,1.7,0.7,2.5,1.1c1.2,0.7,1.8,2,1.6,3.3c-0.1,0.4-0.4,0.8-0.8,1.1
	c-2.5,1.9-5.4,3.3-8.5,4.1c-2,0.5-4.1,0.9-6.2,1.2c-2.6,0.4-5.2,1-7.8,0.3c-1.5-0.4-3-0.8-4.5-1.3c-1.7-0.6-1.9-1.7-0.4-3.1
	c3,1,6.2,1.6,9.4,1.7c2.4-0.1,4.7-0.9,7-1.4c2.1-0.6,4-1.6,5.7-2.9C92.8,414.4,93.5,413.1,93.5,411.7z"/>
<path d="M146.4,420.2l1.3-1.8c1.4,2,3,3.9,4.8,5.7c0.4,0.3,0.8,0.4,1.3,0.4c0.3,0,0.6,0.1,0.8,0.1v1.7c-0.3,0-0.7,0-1,0.1
	c-1.1,0.3-2.3,0.1-3.1-0.7l-2.2,1.9c2.3,1.1,4.8,1.7,7.3,1.8c2.1,0.2,4.2,0,6.2,0.6l-0.2,2.2c-0.2,0-0.5,0-0.7-0.1
	c-2-0.1-3.9-0.3-5.9-0.3c-1.2,0.1-2.4-0.2-3.5-0.7c-0.2-0.1-0.6,0-0.9,0c-0.2,0.3-0.3,0.7-0.5,1c-0.7,1.1-1.4,1.6-2.7,1.1
	c-2.7-1-5.7-1.3-8.4-2.5c-3.6-1.7-7.5-2.4-11.5-2c-1.9,0.2-3.8,0.4-5.7,0.7c-4.3,0.9-8.2,2.4-11.4,5.5c-1.2,1.2-1.1,1.9,0.4,2.7
	c0.6,0.3,1.2,0.6,1.7,1l0.3,2.4c-1,0.8-1.9,0.8-2.6-0.2c-0.2-0.2-0.4-0.3-0.6-0.3c-1.6-0.6-2.7-2.1-2.8-3.8c0-1.1,0.4-2.1,1-3
	c0.7-0.9,1.5-1.7,2.3-2.4c2.5-2.3,5.5-3.8,8.8-4.6c3.8-1.1,7.7-1.6,11.7-1.5c2.4,0.2,4.8,0.7,7.1,1.6c3,1.1,6.2,2,9.6,3.1
	c-0.6-1.1-1.1-1.8-1.5-2.6c-0.4-0.6-0.2-1.3,0.4-1.7c0,0,0,0,0,0c0.8-0.6,1.5-1.2,2.3-1.9C147.9,422.4,147.1,421.3,146.4,420.2z"/>
<path class="st11" d="M97.2,420.2c0.1,2,1.4,2.7,2.8,3.4c1.7,0.8,2.7,2.4,2.8,4.2c0.3,2.8-0.2,5.4-2.3,7.4c-0.8,0.8-1.7,1.5-2.7,1.9
	c-1.7,0.6-3.4,1.1-5.1,1.5c-3.3,0.8-6.6,1.5-10,2.2c-1.3,0.3-2.7,0.4-4.1,0.5c-5,0.3-10,0.6-15,0.8c-4.4,0.2-8.7,0.3-13.1,0.4
	c-3.2,0.1-6.3,0.4-9.5,0.5c-1.6,0.1-3.2,0.1-4.8,0.1c-1.5-0.1-3-0.8-4-2c1-0.8,2.1-1.5,3.3-2.1c1.8-0.8,2.4-2.1,2.5-4.1
	c-1.7,0.3-3.3,1-4.7,1.9c-1.4,0.8-2.7,1.9-4.3,3c-0.6-0.7-1.4-1.6-2.3-2.4c-0.8-0.9-1.7-1.7-2.5-2.5c0.5-1.2,1.4-2.1,2.5-2.6
	c3.2-1.7,6.7-3,10.2-3.9c3.1-0.9,6.3-0.8,9.4-1.4c4.3-0.8,8.7-1.5,13-2.2c1.8-0.3,3.5-0.8,5.3-1c2.5-0.2,5,0.1,7.4,1
	c1.7,0.6,3.4,1.1,5.2,1.4c1.6,0,3.2-0.2,4.8-0.5c2.2-0.4,4.4-1.1,6.6-1.4c1-0.2,1.9-0.6,2.8-1.1C93.2,422.2,95.1,421.3,97.2,420.2z"
	/>
<path class="st9" d="M171.8,423.8c1.3-0.8,2.8-1.1,4.3-0.8c1.3,0.1,2.6,0,3.9,0.2c2.9,0.4,3.8,1.2,5.1,4c-0.6,0.4-1.3,0.7-2,1
	c-1.9,0.6-3.9,1.1-5.8,1.6c-0.3,0.1-0.6,0.1-0.9,0.1c-3,0.1-6,0.6-9.1,0.3c-1.6-0.2-3.2-0.1-4.8-0.2c-0.3,0-0.6,0-0.9-0.1
	c-2-0.7-4.1-0.5-6.2-0.6c-2.5-0.1-5-0.7-7.3-1.8l2.2-1.9c0.9,0.8,2.1,1,3.1,0.7c0.3-0.1,0.7-0.1,1-0.1c0.9,0,1.9,0.3,2.9,0.4
	c0.4,0.1,0.8,0.1,1.2,0.1c3.9-0.7,7.7-1.5,11.6-2.2C170.7,424.4,171.3,424.2,171.8,423.8z"/>
<path d="M102.7,427.8l2.3-0.2c0.3,2.4,0.1,4.7-0.6,7l-0.2,0.6c-1.1,2.7-3.4,4.8-6.2,5.6c-1.1,0.3-2.1,0.8-3.2,1.1
	c-1.8,0.4-3.7,0.8-5.6,1.2c-0.9,0.2-1.8,0.4-2.8,0.6c-4.1,0.9-8.2,1.4-12.4,1.5c-3.6,0.1-7.1,0.5-10.7,0.6
	c-4.2,0.2-8.5,0.2-12.7,0.4c-4,0.2-7.9,0.4-11.9,0.7c-2.5,0.2-4.8-0.1-6.6-2c-0.3-0.2-0.6-0.4-0.9-0.6c-3-1.3-5.5-3.5-7.2-6.2
	c-0.1-0.2-0.2-0.3-0.3-0.5l0.6-2.6c0.8,0.8,1.7,1.6,2.5,2.5s1.6,1.8,2.3,2.4c1.6-1.1,2.8-2.1,4.3-3c1.4-0.9,3-1.6,4.7-1.9
	c-0.1,2.1-0.7,3.4-2.5,4.1c-1.2,0.6-2.3,1.3-3.3,2.1c1,1.2,2.5,1.9,4,2c1.6,0.1,3.2,0,4.8,0c3.2-0.1,6.3-0.4,9.5-0.5
	c4.4-0.2,8.7-0.2,13.1-0.4c5-0.2,10-0.5,15-0.8c1.4-0.1,2.7-0.3,4.1-0.5c3.3-0.7,6.7-1.4,10-2.2c1.7-0.4,3.5-0.9,5.1-1.5
	c1-0.5,2-1.1,2.7-2C102.6,433.2,103.1,430.6,102.7,427.8z"/>
<path class="st11" d="M127.4,428.6c3.9-0.4,7.9,0.3,11.5,2.1c2.7,1.2,5.6,1.5,8.4,2.5c1.2,0.5,2,0,2.7-1.1c0.2-0.3,0.3-0.6,0.5-1
	c0.3,0,0.7-0.1,0.9,0c1.1,0.5,2.3,0.8,3.5,0.7c2,0.1,3.9,0.2,5.9,0.3c0.2,0,0.5,0,0.7,0.1l0.2,0.1c2,0.5,4.1,0.7,6.1,0.6
	c2,0,4.1,0.1,6.1,0c3.7-0.3,7.3-0.9,10.9-1.9c0.6-0.2,1.2-0.5,1.8-0.9c0.9,0.7,1.9,1.3,2.9,1.9c1.5,0.8,1.9,2.2,2.2,3.7
	c0.2,0.8,0.4,1.6,0.4,2.4c0,1.4-0.8,2-3.1,2.7c-2.8,0.9-5.8,1.3-8.7,1.9c-0.8,0.2-1.6,0.3-2.5,0.4c-1.8,0.2-3.5,0.5-5.3,0.6
	c-5.2,0.4-10.4,0.4-15.5,1.2c-1.5,0.2-3.1,0.3-4.7,0.2c-5.1,0-10.1-0.1-15.2-0.1c-1.7,0-3.3-0.4-5-0.4c-5,0.1-9.5-2.1-14.3-2.8
	c-0.9-0.2-1.9-0.6-2.7-1c1.9-2.6,4.5-2.7,7-3.5c0.9-0.8,0.4-1.8,0.1-2.7c-0.1-0.3-1-0.7-1.3-0.6c-3.1,0.9-6.4,1.4-7.7,4.9l-0.6-0.4
	c-0.6-0.4-1.1-0.7-1.7-1c-1.5-0.8-1.6-1.5-0.4-2.7c3.2-3.2,7.1-4.7,11.4-5.5C123.6,429,125.5,428.8,127.4,428.6z"/>
<path d="M120.8,434c0.4-0.1,1.3,0.3,1.3,0.6c0.2,0.9,0.8,2-0.1,2.7c-2.5,0.8-5.1,0.9-7,3.5c0.9,0.4,1.8,0.8,2.7,1
	c4.8,0.7,9.4,2.9,14.3,2.8c1.7,0,3.3,0.4,5,0.4c5.1,0.1,10.1,0.1,15.2,0.1c1.6,0.1,3.1,0,4.7-0.2c5.1-0.9,10.3-0.8,15.5-1.2
	c1.8-0.1,3.5-0.4,5.3-0.6c0.8-0.1,1.6-0.2,2.5-0.4c2.9-0.6,5.9-1.1,8.7-1.9c2.3-0.7,3.1-1.3,3.1-2.7h2c0,1.1-0.3,2.3-0.7,3.3
	c-0.7,0.8-1.6,1.4-2.6,1.7c-1.9,0.8-3.8,1.4-5.8,1.9c-2.8,0.7-5.6,1.2-8.4,1.7c-1.7,0.3-3.3,0.4-5,0.5c-3.2,0.2-6.4,0.3-9.6,0.5
	c-1.8,0.1-3.5,0.4-5.3,0.6c-1,0.1-2,0.1-3,0.1c-3.1,0.1-6.2,0.2-9.3,0.2c-3.9-0.1-7.9-0.4-11.8-0.5c-2.8-0.2-5.6-0.6-8.3-1.4
	c-2.1-0.5-4.2-0.8-6.3-1.3c-0.9-0.3-1.8-0.6-2.7-1c-1.4-0.5-2.4-1.9-2.4-3.4l-0.3-2.4l0.6,0.4C114.4,435.4,117.7,434.9,120.8,434z"
	/>
</svg>
