<svg id="Calque_1" data-name="Calque 1" xmlns="http://www.w3.org/2000/svg" xmlns:xlink="http://www.w3.org/1999/xlink" viewBox="0 0 1000 1000"><defs><style>.cls-1,.cls-2{fill:#ffdead;}.cls-1,.cls-6{stroke:#f84248;stroke-miterlimit:10;}.cls-3{fill:#39b54a;}.cls-4{fill:#fcee21;}.cls-5{fill:#ffff62;}.cls-6{fill:#f84248;}.cls-7{fill:#9d3e0c;}.cls-8{fill:#fff;}.cls-9{fill:#a96239;}.cls-10{fill:red;}.cls-11{fill:#a67c52;}.cls-12{fill:#b3b3b3;}.cls-13{fill:url(#Dégradé_sans_nom_7);}.cls-14{fill:url(#Dégradé_sans_nom_7-2);}.cls-15{fill:#d9e021;}.cls-16{fill:gray;}.cls-17{fill:#999;}.cls-18{fill:#4d4d4d;}</style><linearGradient id="Dégradé_sans_nom_7" x1="544.29" y1="461.88" x2="569.12" y2="461.88" gradientUnits="userSpaceOnUse"><stop offset="0" stop-color="#29aa00"/><stop offset="0.89"/></linearGradient><linearGradient id="Dégradé_sans_nom_7-2" x1="573.18" y1="422.87" x2="594.08" y2="422.87" xlink:href="#Dégradé_sans_nom_7"/></defs><title>Astérix panneau inté</title><polygon class="cls-1" points="404.38 347.9 407.13 342.15 407.67 335.86 407.67 328 413.27 324.67 418.73 320.17 436.2 324.33 443.15 330.68 447.07 332.99 442.11 337.17 439.69 344.5 441.09 350.19 442.42 352.51 442.42 360.98 444.53 363.34 448.46 356.67 449.17 363.01 452.73 358.78 456.17 365.83 457.04 367.56 458.33 366.5 457.31 360.98 458.33 357.05 460.57 355.48 463.06 345.98 467.33 341.84 471.39 340.6 477.69 342.15 481.52 347.03 482.83 352.51 481.52 359.92 479.83 366.67 477 371.67 473.67 375.36 469.45 377.33 464.26 377.33 457.31 374.67 459.2 380.92 458 389.76 449.33 402.12 439.69 389.76 433.06 384.33 428.2 382.28 422.11 376.6 420.31 371.67 416.99 372.53 401.62 380.92 387.67 380.92 375 373.67 368.41 365.05 365.93 356.52 366.67 349.64 374 343 382.33 341.84 404.38 347.9"/><polygon class="cls-2" points="398.18 381.65 401.62 380.92 405.63 389 411.38 395.74 417.75 399.07 423.96 401.88 430.74 405.67 437.9 411.63 441.09 414.25 437.46 419.38 433.99 421.42 424.35 422.59 414.38 421.42 409 420.28 405 411.25 401.62 406.41 398.88 400.64 398.18 398.1 399.63 392.25 398.18 381.65"/><path class="cls-3" d="M356.47,576.88l-1.74.48a1.51,1.51,0,0,0,.39-1.46c-1-2.9-3.3-5.6-6.44-5.78l.76,2.8c1.55-.76,1.68-1.74,1.81-3.29.12-1.35-.65-3.53-.62-4.83a7.6,7.6,0,0,0-.22-3.36,1.51,1.51,0,0,0-2.89,0c-1.53,3.93-4.27,9.7-.79,13.26a1.52,1.52,0,0,0,2.36-.3,5.3,5.3,0,0,0,.28-4.78,1.5,1.5,0,0,0-2.94.4c0,2.83,1.14,4.44,2.76,6.6,2.29,3-.84,2.5-3.84,2.51-1.82,0-3.73-.76-5.5-.58-2.5.25-5.4-.31-6.15,2.76a1.52,1.52,0,0,0,1.45,1.9c5.14.13,10.14-.14,14-3.85a1.51,1.51,0,0,0-1.06-2.56l-1.08.05c-1.39.06-2.17,2.09-.76,2.79a3.37,3.37,0,0,0,4.18-.47c1-.77.26-2.16-.66-2.51a20.17,20.17,0,0,0-3.73-1l1.05,1.85,2.87-3.29L348,572.16c-.57,1.15-.92,1.73-.18,2.86a1.49,1.49,0,0,0,1.3.74l.45,0-.4-3c-1.67.51-3.31,1-5,1.33l1.69.69c-.8-1.19,1.66-3.77.44-5.74a1.52,1.52,0,0,0-2.8.76c-.23,2.87-.32,5.72-.28,8.6l2.8-.76-.56-.86a1.54,1.54,0,0,0-1.7-.69l-2.32.84,1.85,1.85.66-1.64a1.51,1.51,0,0,0-1.05-1.85c1,.17.92-2,.59-2.66-.74-1.54-4.11-2.11-5.46-2.65-1-.4-1.82.58-1.9,1.44a4.54,4.54,0,0,0,1.32,3.8v-2.12a5.67,5.67,0,0,0-1.4,2.2c-.45,1.07.85,2.16,1.85,1.84l2.13-.44-1.5-1.5-.2,1.9,1.1-1.45-2.41,1,1.9,1.45c-.13-1.93-1.39-3.56-3.61-3-2.91.75-2.67,4.68-3.47,6.85-.59,1.59,2,2.67,2.74,1.16a3.83,3.83,0,0,0,.85-2.64l-.89-2.2c-1.37,2.28-5.45.61-4.17,4.74l1.45-1.9c-2.13-.09-4.17-3.78-6.21-4.62a14.7,14.7,0,0,0-3.17-.7l-.4-.05q-3.3-1.57-2.23.44a1.52,1.52,0,0,0,.36-2.74l-1-.67v2.59c-.07.05,3.6,1.82,4.73,1.48a1.52,1.52,0,0,0,.66-2.51c-1.35-1.34.76-1.44,1.32-2.12a19.42,19.42,0,0,0,2.82-4.74c.83-2,.75-3.45-1.08-4.78a1.51,1.51,0,0,0-2.2,1.7,103,103,0,0,0,3.93,10,18.79,18.79,0,0,1,1,2.24c.49.58.35.9-.42.94,0-.14-1.08,1.09-1.14,1.21h2.59a24.74,24.74,0,0,1-2.49-8c-.11-.87-.87-1.83-1.9-1.45-4.64,1.72-3.08,6.16-.66,9.21,1.09,1.38,3.14-.38,2.36-1.82a13.92,13.92,0,0,0-4.51-5L323,574.54c2.5.77,3,1.3,5.44.2a1.51,1.51,0,0,0,.36,2.74l2,.47c1.87.44,2.68-2.45.8-2.9l-2-.46.35,2.74.43-.2a1.51,1.51,0,0,0,.75-1.29l0-.54a1.46,1.46,0,0,0-.74-1.29c-2-1.24-4.41-1.69-6.62-2.36-1.72-.52-2.47,1.81-1.15,2.74a8.64,8.64,0,0,1,3.42,3.94l2.36-1.82-.66-4.2-1.9-1.44a29.83,29.83,0,0,0,2.9,9.53,1.51,1.51,0,0,0,2.59,0c.63-1.39,2.6-.69,2.51-3.12-.06-1.45-1.38-3-2-4.3a88.87,88.87,0,0,1-3.63-9.34l-2.2,1.69c.4.3-.95,2.46-1.07,2.67-1.48,2.42-.66.91-2.18,2-.59.42-1.31.43-1.8,1.08-1.48,1.93,0,4,1.38,5.45l.66-2.51c-.73.22-2.34-1.48-3.09-1.63a2.53,2.53,0,0,0-2.35.45,1.52,1.52,0,0,0,0,2.59l1,.67.36-2.74a3.37,3.37,0,0,0-2.53,1.74,1.48,1.48,0,0,0,0,1.52c1.49,2.37,4.12,1.77,6.61,2.35,4,.9,4.52,5,8.73,5.21a1.51,1.51,0,0,0,1.44-1.9c.27.86,3.62-2,3.87-2.43a1.52,1.52,0,0,0-.9-2.2l-.49-.16a1.51,1.51,0,0,0-1.46.39,12.23,12.23,0,0,0-2.29,3.78l2.74,1.16a16.49,16.49,0,0,0,1.19-4.66c.06.85.93,1.85,1.9,1.44l2.41-1a1.61,1.61,0,0,0,1.1-1.45l.2-1.9a1.5,1.5,0,0,0-1.5-1.5,9.44,9.44,0,0,0-2.93.55l1.84,1.84.63-.87a1.54,1.54,0,0,0,0-2.12l-.44-1.68-1.89,1.45,2.69,1.08c.73-.18.75,0,.07.67.08.29-.22,1.09-.17,1.46a2.52,2.52,0,0,0,2.27,2.1l-1-1.84-.67,1.64a1.51,1.51,0,0,0,1.85,1.84l2.32-.84-1.69-.69.56.87a1.51,1.51,0,0,0,2.79-.76c0-2.88,0-5.73.28-8.6l-2.79.75c.84,1.36-1.83,3.67-.44,5.75a1.58,1.58,0,0,0,1.7.69c1.7-.39,3.34-.82,5-1.34s1.35-3-.4-2.94l1,.93a1.51,1.51,0,0,0-2.05-2,8.48,8.48,0,0,0-4.25,5.08,1.5,1.5,0,0,0,1,1.84,20,20,0,0,1,3.73,1l-.66-2.5h-.54l-.76,2.8,1.08-.05-1.06-2.56c-3.29,3.13-7.68,3.08-11.92,3l1.44,1.9c0-.13,6.19-.11,5.83-.15,3.18.38,7.8.46,10.62-1.32a1.47,1.47,0,0,0,.74-1.29c-.15-3.66-4.36-5.46-4.35-9.33l-2.95.4,0,2.47,2.35-.31c-2.14-2.19.66-8,1.56-10.35h-2.89c-.08-.23-.06,8.33.4,8.1-1.43.69-.61,2.72.76,2.79-.95,0,4.11,4,3.48,2.61.18.42-.46,1.82,0,2.74,1.44,2.6,4.5,2.31,6.38.53,1.4-1.33-.72-3.45-2.12-2.12Z"/><polygon class="cls-4" points="255.48 374.31 279.64 351.73 362.83 355.48 365.9 366.47 363.89 396.84 278.83 397.82 253.78 377.66 255.48 374.31"/><polygon class="cls-5" points="401.62 380.92 420.31 370.71 423.46 377.67 433.06 384.33 439.69 389.76 446.33 398.1 449.83 404.52 452.73 415.24 452.73 418.75 445.69 413.22 448.46 418.75 449.5 424.53 441.49 413.21 430.74 405.67 421.14 400.11 412.67 395.74 407.17 391.35 401.62 380.92"/><polygon class="cls-6" points="426.63 407.25 428.2 404.52 417.75 399.07 416.01 407.25 416.99 413.22 419.72 413.75 423.46 411.63 426.63 407.25"/><path class="cls-7" d="M364.34,353.27c.26,2.47.5,4.71.72,7a15.87,15.87,0,0,0,2.44,6.68c.35.56.75,1.07.33,1.81a1.3,1.3,0,0,0,.13,1,6.64,6.64,0,0,1,.41,3.5c0,4.3-.91,8.55-.8,12.87.06,2.43-.41,4.87-.54,7.31-.09,1.77,0,3.56,0,5.53-1.27.07-2.55.18-3.84.19-3.64,0-7.29.05-10.93,0-2.92,0-5.83-.14-8.74-.11-3.29,0-6.57.23-9.85.32-1.26,0-2.52,0-3.78,0-6.16.14-12.32.33-18.49.42-2.38,0-4.77-.26-7.15-.25-3.46,0-6.93.19-10.39.24-2.73,0-5.47,0-8.2,0-2.21,0-4.41.19-6.62.32a3.26,3.26,0,0,1-2.4-.88c-2.74-2.32-5.55-4.55-8.28-6.89-2-1.7-3.85-3.56-5.83-5.28-1.7-1.48-3.54-2.8-5.24-4.29-2.58-2.27-5.08-4.62-7.79-7.09a12.66,12.66,0,0,1,1.44-1.64c3.22-2.57,6.48-5.09,9.71-7.66,1.12-.89,2.18-1.85,3.26-2.79a66.57,66.57,0,0,1,5.41-4.67c3-2.08,5.06-5,7.87-7.27a3.71,3.71,0,0,1,2.24-.88c5.39-.32,10.77-.06,16.15.08,2.92.08,5.83.45,8.74.58,3.29.14,6.58.17,9.86.24,9.4.22,18.8.39,28.19.68,3.47.11,6.92.56,10.38.78,1.84.12,3.7.12,5.55.14C360.34,353.28,362.41,353.27,364.34,353.27ZM286.9,361.1c1.54,10.36.6,20.64-.13,31a7.69,7.69,0,0,0-1.13.31c-.73.34-.57,1-.41,1.57a1.15,1.15,0,0,0,.92.6c1.78-.05,3.57-.21,5.36-.3a1.67,1.67,0,0,0,1.62-1.2l-3.87-1.12c0-.29-.06-.64,0-1q.28-5.08.58-10.16a73.24,73.24,0,0,0-.16-11.28c-.15-1.61-.12-3.23-.18-4.85l.36-.1c1.73,3,3.49,6.06,5.2,9.1s3.5,6,5,9.13,4.22,5.6,5.41,9l-2,.61c-.18,1.55-.06,1.84.94,1.79,1.43-.06,2.85-.2,4.27-.39a1,1,0,0,0,.65-.69,1.08,1.08,0,0,0-.36-.9,4.42,4.42,0,0,0-1.14-.51c0-1.61,0-3.16,0-4.71.12-4.84.3-9.68.38-14.53.07-3.87.05-7.75,0-11.62a1.52,1.52,0,0,1,1-1.66c.64-.25,1.25-.53,1.09-1.56a6,6,0,0,0-1.26-.34c-1.55,0-3.1,0-4.66,0-.5,0-1.08.08-1,.71a1.63,1.63,0,0,0,.74,1.06,7.26,7.26,0,0,0,1.71.46,20.48,20.48,0,0,1,.26,2.53c-.05,2.3-.19,4.61-.26,6.91-.06,1.79-.06,3.59-.11,5.38-.07,2.57-.18,5.14-.26,7.71-.06,2.06-.11,4.13-.18,6.61-1.93-2.87-3.68-5.32-4.51-8.29a8,8,0,0,0-.82-2c-2.18-3.62-4.41-7.2-6.6-10.81-1.31-2.17-2.57-4.37-3.85-6.56.79-.4,1.9.2,2.44-.86a1.11,1.11,0,0,0-1.2-1.08c-1.67,0-3.35,0-5,0-.2,0-.41.2-.67.34.09.43.18.82.26,1.22Zm72.09.28a17.27,17.27,0,0,0,.61,2.28,1.24,1.24,0,0,0,.92.68c.28,0,.7-.45.79-.77.2-.81.2-1.66.35-2.47.3-1.67,0-2.08-1.68-2-4.18.13-8.37.3-12.56.42a4.25,4.25,0,0,0-3.07,1c-.37-.38-.62-.88-1-1-.87-.29-1.75.25-1.6,1.67a70.75,70.75,0,0,1,.35,10c-.24,5.79-.31,11.59-.47,17.38,0,1.25-.17,2.5-.16,3.75,0,.33.31.92.55,1,1.85.33,3.65,1,5.58.9,2.27-.1,4.55-.08,6.82-.08,1.92,0,3.84,0,5.76.05.62,0,1.27-.05,1.36-.84.14-1.36.23-2.74.28-4.11a1.07,1.07,0,0,0-1.05-1.21c-.75,0-1,.43-1.1,1.13-.1.93-.26,1.85-.4,2.76-2.71,0-5.28.07-7.84,0s-5.05.86-7.7.32c.4-4.56.17-9,.65-13.34a3,3,0,0,1,.53-.2c3.59,0,7.18-.05,10.77-.05a2,2,0,0,1,1,.29c1.07.64,1.52.59,1.74-.51a7.23,7.23,0,0,0-.08-2.62,1.14,1.14,0,0,0-.87-.68c-.3,0-.64.37-.9.64s-.14.41-.27.84l-11.93,0a15.47,15.47,0,0,1-.29-5.44,44.86,44.86,0,0,0,.13-4.64c0-1.43-.16-2.86-.2-4.29a4.33,4.33,0,0,1,.24-1.06,17.9,17.9,0,0,0,2.4.32C350.68,361.39,354.74,361.38,359,361.38Zm-35.71-.75a12.54,12.54,0,0,1,.25,1.4c.08,1.54.14,3.08.19,4.63,0,.35,0,.71-.06,1.07-.07,1.12-.14,2.25-.19,3.37,0,.54,0,1.08,0,1.61-.13,3.53-.24,7.05-.41,10.58-.11,2.19-.33,4.37-.49,6.56-.5.07-.8.09-1.09.15-.68.15-1.35.4-1.22,1.25s.48,1.37,1.44,1.24c1.3-.17,2.62-.25,3.9-.5.8-.16.92-.73.36-1.31A7.22,7.22,0,0,0,325,390c.17-3,.3-5.7.51-8.44a99.8,99.8,0,0,0,0-17.2,27.56,27.56,0,0,1,.17-3.87h2.2a34.74,34.74,0,0,0,4.79-.08,3.11,3.11,0,0,1,3,.73c1.78-1.37,1.38-2.92.62-4.67-.3.21-.61.3-.65.46-.28,1-1,1.17-1.94,1.17-1.73,0-3.47,0-5.21,0-2,.07-3.92.25-5.89.3-2.39,0-4.79,0-7.19,0-1.32,0-1.78.45-2,1.59a2.27,2.27,0,0,0,1.47,2.84c.2-.73.4-1.45.62-2.23ZM363.54,395l-.66.05-6.43.35c-2,.12-4.05.26-6.08.34-.71,0-1.42-.16-2.12-.15-2,0-4.06.2-6.08.18-2.56,0-5.11-.26-7.67-.27-2.32,0-4.65.18-7,.28-1.9.09-3.86.5-5.7.2-3.69-.6-7.35.19-11-.12a52.71,52.71,0,0,0-6,.2c-1.67.06-3.35.06-5,.1-.51,0-1.13-.12-1.2.95a28.92,28.92,0,0,0,4.82.14c3.24-.45,6.55.26,9.76-.64.2-.06.45.14.69.16,1.9.12,3.8.31,5.7.33,1.64,0,3.29-.21,4.94-.22,3.46,0,6.92,0,10.38,0,2.74,0,5.48.18,8.22.24,1.2,0,2.4,0,3.59-.06,1.67,0,3.34-.06,5-.07.29,0,.59.11.88.09,1.94-.16,3.88-.39,5.83-.5,1-.05,2,.13,3,.17a19.26,19.26,0,0,0,2.52,0c1-.09,1.32-.58,1.06-1.57a4.63,4.63,0,0,1-.19-1.52c.13-2,.33-4.05.47-6.08a20.1,20.1,0,0,1,.07-2.46,12.47,12.47,0,0,0,.3-4,23.55,23.55,0,0,1,.07-3.75c0-1,.08-2,.09-3,0-2.18.05-4.37,0-6.55,0-1.07.54-2.23-.31-3.34-.33.17-.76.26-.8.43a7.91,7.91,0,0,0-.22,1.94c0,.62.21,1.25.21,1.88,0,2.08-.13,4.15-.15,6.22-.05,3.71,0,7.43-.14,11.13C364.23,389.05,363.83,392,363.54,395Zm-88.36-34.77a309.69,309.69,0,0,1-.47,32.53c-1.07.26-2.23-.44-2.69.92a1.76,1.76,0,0,0,.24.45c1.43,1.24,5.26,1.57,6.8.56.3-.2.63-.69.57-1a1.39,1.39,0,0,0-.87-.76,8.76,8.76,0,0,0-1.77-.21c1.24-10.92.57-21.73.75-32.55l1.58-.74c-.12-1.45-.44-1.82-1.64-1.83-1.41,0-2.82,0-4.23.1a9.08,9.08,0,0,0-1.63.37C272.05,360.46,274,359.65,275.18,360.26Zm1.09-5a21.16,21.16,0,0,0,2-1.37c1.44-1.33,3-1.48,4.95-1.25a59.81,59.81,0,0,0,7,0,38.64,38.64,0,0,1,6.55.09,30.78,30.78,0,0,0,4,.83c4.26.14,8.51,1,12.79.1a3.84,3.84,0,0,1,1.41.15,17.07,17.07,0,0,0,4.84-.06,4.22,4.22,0,0,0-1.93-.81c-2.73-.28-5.46-.54-8.2-.72-4.34-.29-8.7-.5-13.05-.74a14.35,14.35,0,0,0-4.58,0,11.15,11.15,0,0,1-3,.18c-2.62,0-5.25-.06-7.87-.18-2-.1-3.25,1.31-4.65,2.37C276.28,354,276.36,354.52,276.27,355.28Zm-6,5.79c-.26.18-.54.34-.79.55-1.1.92-2.15,1.9-3.28,2.78-3.4,2.65-6.82,5.25-10.23,7.88a3,3,0,0,0-1.56,2.53,3.41,3.41,0,0,0,.64.75,50.77,50.77,0,0,1,7.65,6.47c.86.82,1.79,1.57,2.72,2.33.43.35.87.39,1.14-.39-3.65-3.18-7.32-6.39-11-9.66,1.16-.94,2.37-2,3.62-2.95q3.67-2.88,7.39-5.71A11.08,11.08,0,0,0,270.24,361.07ZM324,353.43l.16.42a33.65,33.65,0,0,0,9.72,1.29c3.36,0,6.72.3,10.08,0,0-1.51-1-1.44-1.75-1.47-2.06-.06-4.14,0-6.2-.1-2.56-.13-5.11-.37-7.66-.54-1.08-.06-2.15-.09-3.22,0A3.61,3.61,0,0,0,324,353.43Zm-55.55,38c.55-1,.13-1.47-.44-2-2-1.87-3.95-3.79-5.95-5.67-2.73-2.57-5.48-5.12-8.26-7.71-.56,1.08-.57,1.1,0,1.6.86.81,1.74,1.6,2.61,2.41,2.1,1.93,4.21,3.84,6.28,5.79C264.58,387.65,266.44,389.48,268.47,391.44Zm28.71,5.73.06-.42a5.52,5.52,0,0,0-1.35-.32c-2.07.08-4.13.29-6.2.32-3.24.06-6.49,0-9.82,0,.69,1,.69,1.06,1.17,1.06,1.19,0,2.38-.07,3.57-.1l4.45-.08c1.12,0,2.24,0,3.35-.06.92-.08,1.77-.52,2.78-.12C295.73,397.67,296.51,397.29,297.18,397.17Zm58.37-43c-2.48-.16-4.71.73-7,1.27-.58.13-1.1.43-.92,1.07s.69,1.26,1.44,1.07c1.95-.49,3.89-1.06,5.8-1.7A1.1,1.1,0,0,0,355.55,354.18Zm-18,40.24a5.71,5.71,0,0,0,.91-.47,4.59,4.59,0,0,0,1.75-2.83,1.76,1.76,0,0,0-.36-1.43,1.72,1.72,0,0,0-1.95-.5,4.92,4.92,0,0,1-1.09.45,2.33,2.33,0,0,0-1.82,2.61A2.94,2.94,0,0,0,337.56,394.42ZM335,363.19c1.31,2.15,3.22,2.46,4.45.78.45-.61.91-1.29.35-2.12a2.42,2.42,0,0,0-2.49-.8A3.23,3.23,0,0,0,335,363.19ZM364,356.25c-.58-1.87-.57-1.82-2.18-1.52a5.78,5.78,0,0,1-1.71-.24c-.46-.05-1-.2-1,.77,1.37.42,2.77.86,4.18,1.25C363.45,356.56,363.69,356.37,364,356.25ZM338,367.51c-1.49-.19-2.36-1.24-3.71-1,.05,1.15.92,1.37,1.64,1.72S337.12,368.27,338,367.51Z"/><path class="cls-2" d="M423,424.72a2.9,2.9,0,0,0-1.45-1h-2.25l-6.08-1.24L409,420.28l-6,1.14-7.68.57-2.44,2.13.47,4-4.71-3.85-2.89-5.53-.87,6.9-26.13,9.73L333.6,448.13l-12.15-14.69h-7.2L309,420.28l-4.19-1.53-3.13,1.53-.75,5.37,4.62,10.93,5.7,5.92v5.63l2.24,5.62L285,474.8l-4.29,7,1.12,4.63,5.38-1.53,8.85-7.58,6.53-2.54-4.06,8.12.12,3.85,2.94,1,3.13-.52,1,1.89,1.28,2h2.81l1.36.87,3.43,1.59,6.12-.72,5.71-4.41,2.17-2.05L333,481l2-6.87,1.1-8.38.53-2.77,5.65-.85,8.37-3.13,15.3-6.29,6.45-4.46,7.87-.92,14.84-2.7L408.38,440l10.34-6.51,4.74-3.12,2.54-2.89Z"/><path class="cls-8" d="M50.74,812l19.42.06c2.81,0,5.61,0,8.42,0,1.61,0,3.22-.13,4.83-.13,2.44,0,4.87.12,7.3.13q16.11,0,32.2.06a25.35,25.35,0,0,0,2.84-.44c1.42-.15,2.84-.25,4.27-.35a1.62,1.62,0,0,1,.88.12c1.66,1,3.49.71,5.27.71l180,.25,112.66.14q34.9,0,69.8.1l59.38,0,57,.08,99,.14c17.39,0,34.79.1,52.18.07,5.07,0,10.13.1,15.19.06s10.2,0,15.3,0l15.3,0c5,0,10.07,0,15.11,0l15.3,0,15.3,0c5.1,0,10.2,0,15.3,0l19.78,0v1L50.74,813Z"/><path d="M868.32,648.72v0Z"/><path d="M570.85,420.22a7.94,7.94,0,0,1,.69-1.46c1.49-2.08,3.08-4.09,4.54-6.2a2.25,2.25,0,0,1,3-.78c5.58,2.18,11,4.77,15.29,9.07.42.41.94.74,1.38,1.14a3.29,3.29,0,0,1,.79,4.34c-.76,1.33-1.78,2.52-2.63,3.81-.61.94-1.13,1.95-1.66,2.88,2.24,2.85,1.49,4.59-3.27,7.53,0,.74.13,1.57.16,2.39a2.31,2.31,0,0,1-1.37,2.48c-.85.39-1.65.9-2.5,1.37.28,4.29-.41,5.07-6.33,7,.26.34.51.64.73.95a5.54,5.54,0,0,1-.79,6.44,3.75,3.75,0,0,1-4.31.79c-1-.45-2-1-3.12-1.57-.28.32-.58.6-.81.92a18.09,18.09,0,0,1-5.18,4.64c-1.54.95-3.1,1.54-4.85,1a14.09,14.09,0,0,1-1.18,1.78c-1.09,1.19-2.27,2.3-3.37,3.48-.47.5-.85,1.09-1.33,1.71a25.3,25.3,0,0,1,5.94,5.67c3,4.09,1.8,9.49-1.45,11.71a18.34,18.34,0,0,1-7.69,2.7c-.58.1-1.18.12-2,.19a23.07,23.07,0,0,0-.16,2.46,59.38,59.38,0,0,1-1.5,15.5,45.35,45.35,0,0,1-1.93,6,10.42,10.42,0,0,1-4.28,4.93c-.45.29-.87.61-1.37,1,3.62,2.3,7.09,4.69,10.76,6.74a18.24,18.24,0,0,0,8.46,2.66c3.34.09,6.67.59,10,.89,1.55.15,3.1.24,4.65.37l10.71.93a2.19,2.19,0,0,0,.36,0c.3-.76.65-1.5.89-2.28.8-2.58,2.85-4,5-5.32a14.63,14.63,0,0,1,6.15-2.3,12.22,12.22,0,0,1,7.6,1.38,16,16,0,0,1,5,3.81,19.69,19.69,0,0,0,1.45,1.43,3.58,3.58,0,0,0,.85-.1c3.35-1,6,.2,8,2.79a15.18,15.18,0,0,1,3.28,7.66,13.5,13.5,0,0,1,5.23,5.44,2,2,0,0,0,.89.82,9,9,0,0,1,3.88,4.06,27.16,27.16,0,0,0,2.13,3.11c1.91,2.59,3.84,5.17,5.76,7.75,1.67,2.25,3.42,4.44,5,6.75a63,63,0,0,1,4,6.58c1.89,3.65,3.65,7.37,5.32,11.13.94,2.12,1.57,4.38,2.38,6.57a27,27,0,0,1,1.25,3,23.31,23.31,0,0,1,.92,7.41c-.12,1.56.15,3.16,0,4.79a19.25,19.25,0,0,1-1.42,5.16,5.28,5.28,0,0,1-1.52,2.18c-2.43,1.88-5,3.58-8.15,3.9a11.19,11.19,0,0,1-2.13.23,1.88,1.88,0,0,0-2.21,1.65c-.38,2.22-2,2.88-3.75,3.4-2.93.89-6,.6-8.93.3-5.3-.53-10.14-2.56-14.83-5a17,17,0,0,1-3.47-2.75,33.25,33.25,0,0,1-4.11-5.16,29.27,29.27,0,0,1-3.38-6.07c-1.85-4.29-3.22-8.73-4.64-13.17-.93-2.89-1.71-5.84-2.8-8.67-1-2.61-2.33-5.11-3.53-7.65-.23-.47-.55-.91-.86-1.41a11,11,0,0,0-1.06.35c-5.08,2.22-7.52-.86-8.35-4.29a18.34,18.34,0,0,1-.44-4.62,23.82,23.82,0,0,0-1.08-7.07c-.33-1.14-.72-2.26-1.11-3.44a6.12,6.12,0,0,0-1.21,0,81.08,81.08,0,0,1-18.2,1.41c-3-.07-6,0-9-.19-4.29-.29-8.56-.77-12.84-1.2a38.91,38.91,0,0,1-3.9-.54,13.78,13.78,0,0,1-5.16-2.44c-1.6-1.13-3.27-2.19-4.87-3.33-.87-.63-1.69-1.33-2.51-2-3.76-3.14-7.53-6.27-11.24-9.46-1.4-1.21-2.66-2.59-4-3.89l-3.5-3.48c-.33.63-.68,1.24-1,1.86-1.61,3.13-3.23,6.25-4.79,9.4-.82,1.66-1.48,3.39-2.29,5-1.2,2.47-2.43,4.92-3.72,7.33a2.85,2.85,0,0,0,.47,3.82,26.83,26.83,0,0,1,4.54,5.51c1.67,3,3.2,6.08,3.36,9.51a12.35,12.35,0,0,1-2.65,8.4,17.28,17.28,0,0,1-7.7,5.95,25.78,25.78,0,0,1-3.82.86c-.41.09-.86,0-1.25.09-3,.82-5.67-.09-8.24-1.52-3.56-2-7.38-3.4-11.1-5a6.54,6.54,0,0,1-3.33-2.55,2.46,2.46,0,0,0-1.76-1,36.71,36.71,0,0,1-12.5-3q-9.09-3.59-18-7.54c-3-1.34-5.8-3.09-8.66-4.71-1.86-1.06-3.69-2.16-5.48-3.33a58.74,58.74,0,0,1-11-8.83,41.51,41.51,0,0,1-3-3.5c-1.81-2.44-3.66-4.86-5.29-7.42-2.36-3.7-2-7.43.1-11.19a8.68,8.68,0,0,1,4.33-3.81,1.94,1.94,0,0,0,1.36-1.72,12.22,12.22,0,0,1,.42-1.74,9.82,9.82,0,0,1,4.41-5.84c4.45-3,9.4-3.59,14.57-3.47,4.94.11,9.79.69,14.23,3,2.74,1.43,5.75,2.34,8.24,4.25,3,2.29,6,4.58,9,6.8,3.25,2.4,6.52,4.78,9.84,7.09s6.95,4.64,9.79,7.74a11.86,11.86,0,0,0,1,.82,91.87,91.87,0,0,0,3.22-9.95c-3.29,1-6,0-8.67-1.24-3.88-1.88-5.34-5.57-4.29-9a2,2,0,0,0,0-.44c-2.74-.84-4.79-2.81-6.83-4.69a51.92,51.92,0,0,1-4.87-5.48,6,6,0,0,1-1.42-2.64,3.89,3.89,0,0,0-2.31-3,19.38,19.38,0,0,1-5.42-4.37c-2-2.07-3.75-4.32-5.65-6.53l-5.1.49c-.22-.7-.38-1.19-.55-1.72a4.84,4.84,0,0,0-.54,0c-1.43.14-2.86.27-4.28.45-1.22.15-2.16-.07-2.31-1.68-.67.06-1.25.08-1.81.16-.95.12-1.9.33-2.85.41s-1.27-.12-1.39-1.25c-.08-.76-.21-1.51-.31-2.24-1,1.15-1.87,2.39-2.95,3.45a4.49,4.49,0,0,1-5.1,1.19,5.12,5.12,0,0,1-3.43-4.22,21.23,21.23,0,0,1,4.41-16.84,2.94,2.94,0,0,1,4.14-.66,10.58,10.58,0,0,1,3.8,4.86c.22.48.37,1,.62,1.67,1.16-1,2.1-.46,3,.31a3.32,3.32,0,0,0,2.58,1c.51-.05,1.09.39,1.61.66.76.4,1.5.83,2.25,1.25l.28-.27c-.78-2.8-1.42-5.64-2.39-8.37a33.08,33.08,0,0,1-1.45-7c-.46-3.5-1.05-7-1.38-10.48a98.23,98.23,0,0,1-.44-9.85,65.1,65.1,0,0,0-.86-10.16c-.29-1.94-.57-3.88-.87-5.94A4,4,0,0,0,422,433.1a26.09,26.09,0,0,1-6.5,4.39c-1.21.64-2.41,1.31-3.65,1.9-2.05,1-4.11,1.92-6.18,2.86-1.9.86-3.77,1.81-5.72,2.53a54.71,54.71,0,0,1-6.5,2c-2.36.57-4.78.93-7.18,1.34a13.69,13.69,0,0,1-5.7,0c-.89-.21-1.94.3-2.93.44s-1.75.2-2.63.28l-2.49.23a3.3,3.3,0,0,0-2.08,1.21,17.52,17.52,0,0,1-3.68,3.05c-3.84,2.16-7.63,4.43-11.84,5.87-2.65.91-5.23,2-8,3.11.28,1.33-.57,2.61-.13,4.18.39,1.42-.1,3.08-.12,4.63q0,4.72,0,9.45c0,2.32.07,4.65.17,7,.05,1.19.33,2.36.35,3.55,0,1.36-.23,2.72-.24,4.09,0,5.39,0,10.78-.05,16.17,0,1.55,0,3.09-.11,4.64-.14,2.91-.39,5.81-.49,8.73-.05,1.66.16,3.34.17,5a82.79,82.79,0,0,1-.49,11.46,6.22,6.22,0,0,0,0,1.43,73.52,73.52,0,0,1,0,9.27,32.19,32.19,0,0,0,.51,9.07c1.83-1.49,2.58-4.11,5.55-4.28-.13,1-.21,1.83-.35,2.67a36.92,36.92,0,0,0-.79,4.95,47.76,47.76,0,0,0,.51,5.67l1-1c.88.68.6,1.28.12,1.89a2.2,2.2,0,0,1-2.32,1c-.52-.19-.57-.39-.62-2.89a5,5,0,0,0-.87.89c-.53.94-1,1.91-1.49,2.85-.31.57-.75,1-1.45.58s-.48-1-.21-1.42c1-1.74,2.07-3.49,3.21-5.16.39-.56.84-1.05.58-1.74a7,7,0,0,1,0-4.11,6,6,0,0,0-.77,1c-1.35,2.8-2.71,5.59-4,8.43-.85,1.9-.78,1.93-3,2.86l-3.09-2.55c-.3.6-.58,1.25-.93,1.86-.63,1.08-1.31,2.13-2,3.21a7.21,7.21,0,0,0-.8,1.53c-.23.81-.62,1.27-1.5,1.21a1.67,1.67,0,0,1-1.66-1.58,28.93,28.93,0,0,0-.36-3.37,28,28,0,0,0-4.69-10.26c-1,1.48.5,3.4-1.43,4.71-.16-1.68-.28-3.09-.41-4.49-.09-.94-.26-1.88-.27-2.83a2.14,2.14,0,0,1,.42-1.42,1.09,1.09,0,0,1,1.61.12c1.11,1.17,2.17,2.38,3.24,3.58.27.3.49.65.91,1.22a30.82,30.82,0,0,0,.45-3.32c0-2.26-.09-4.51-.1-6.76,0-.53.23-1.06.22-1.59,0-1.25-.2-2.49-.23-3.74-.11-4.11-.31-8.23-.22-12.34.09-4.29.51-8.57.73-12.86.06-1.31-.12-2.62-.07-3.93.13-4.16.41-8.32.44-12.48,0-3-.28-6.07-.42-9.1-.13-2.74-.21-5.47-.36-8.21-.05-.87-.29-1.74-.48-2.88-1.13,1.1-2.05,2-3,2.91a21.23,21.23,0,0,1-9.91,5.48,7.44,7.44,0,0,1-7.88-3,3.55,3.55,0,0,1-4-.5,5.07,5.07,0,0,1-2-3.59,5.68,5.68,0,0,0-1.18.47,2.65,2.65,0,0,1-3.46-.34,12.65,12.65,0,0,1-2.4-3.07,2.85,2.85,0,0,1,0-2.76c.74-1.57,1.45-3.15,2.17-4.72a1.81,1.81,0,0,0,.18-.83c-.87.64-2.22.62-2.43,2,0,.18-.31.33-.49.47-2.94,2.34-5.86,4.7-8.84,7a8.61,8.61,0,0,1-2.83,1.51c-2.82.76-4.93-1.29-5.34-4.06a6.87,6.87,0,0,1,1.3-4.91,43.9,43.9,0,0,1,7.17-8.22c2.62-2.34,5.5-4.4,8-6.83a52.87,52.87,0,0,1,7.15-5.55c2.11-1.43,4.44-2.54,6.67-3.79.56-.32,1.1-.66,1.67-1-.25-.74-.43-1.37-.67-2a10.86,10.86,0,0,1-.8-4.74,9,9,0,0,0,0-1.8,4.49,4.49,0,0,0-2.09-3.71c-2.17-1.31-3.26-3.62-4.46-5.74a28.58,28.58,0,0,1-3.61-9.89,10.28,10.28,0,0,1,.22-5,4.94,4.94,0,0,1,3.87-3.32c3.47-.84,6.08,1.06,7.66,4.13a44.17,44.17,0,0,1,2,5.15c.54,1.46,1,3,1.54,4.4s.85,1.6,2.31,1.31c3.65-.75,6.27.72,8.26,3.67,1.16,1.73,2.36,3.45,3.56,5.15a7.68,7.68,0,0,0,.94.9,9.39,9.39,0,0,0,.13-1.12c0-1.26,0-2.52,0-3.77,0-4.48,0-9,0-13.44,0-3.94.15-7.88.28-11.82.05-1.9.23-3.78.3-5.68a9.74,9.74,0,0,0-.22-1.76c-.13-.75-.27-1.49-.44-2.43-.65,0-1.38,0-2.12,0l-10.15.28c-2.26.06-4.51.19-6.77.18a25.38,25.38,0,0,1-4.09-.36,23.62,23.62,0,0,0-4.45,0c-3.34.07-6.7-.08-10.05,0s-6.93.23-10.39.33a29.62,29.62,0,0,1-3.77,0,7.61,7.61,0,0,1-3.86-1.67c-4.78-3.54-8.94-7.76-13.4-11.65q-3.81-3.33-7.66-6.63c-1.89-1.64-3.81-3.24-5.7-4.88-1.46-1.26-1.27-3.1.42-4.43,3.35-2.64,6.62-5.4,10.09-7.87a63,63,0,0,0,5.69-4.87c1.91-1.75,4-3.33,5.95-5,.7-.61,1.35-1.29,2-1.94,1.62-1.58,3.15-3.24,4.87-4.68.92-.77,1.93-1.62,3.49-.67.91.56,2.32.36,3.51.37,3.75,0,7.5,0,11.26-.06.11,0,.24.1.34.08,3.06-.77,6.06.08,9.07.38a188.77,188.77,0,0,0,19.17.73h4.49c-.3-1.19-.53-2.22-.83-3.23-.61-2.05-.49-3.08,1.51-3.69.09,0,.15-.18.34-.42l-1.58-.23c-.06-.24-.15-.38-.12-.46a2.54,2.54,0,0,1,3.8-.69c.54.61.89.57,1.24-.15.77-1.55,1-1.65,2.56-1.39a26.57,26.57,0,0,0,3.53.51c1.36,0,2.37.36,2.53,2,.91.09,1.74.13,2.56.25a16,16,0,0,1,2.27.47c2.11.6,2.34,1.18,1.61,3.27-.44,1.29-.7,2.64-1.08,4.12,6.23.38,12.29,1.17,18.44.74.29-.7.52-1.31.79-1.89a12.65,12.65,0,0,1,9-7.44,33.33,33.33,0,0,1,10-.6,41.59,41.59,0,0,1,7.53,1.54c4.19,1.13,8.34,2.43,12.53,3.67,1.08-1.87,2.81-11.54,2.23-13.58-.32,1-.5,1.63-.74,2.26a8.74,8.74,0,0,1-.88,1.94,1.06,1.06,0,0,1-1.58.27,1.17,1.17,0,0,1-.51-1.52,54.87,54.87,0,0,1,9.49-17.14,5.53,5.53,0,0,1,3.81-2.33c-1.09-2.18-2.23-4.25-3.17-6.41-1.2-2.72-.77-5.5.1-8.22a5.58,5.58,0,0,1,2.31-2.89c2.27-1.56,4.26-.29,5.15,1.9a42.11,42.11,0,0,1,1.76,6.19c.41,1.74.63,3.52,1,5.38a2.85,2.85,0,0,0,.54-3c-.7-1.43-.31-2.78-.31-4.19,1.46-.63,1.82.7,2.28,1.4a12.37,12.37,0,0,1,1,2.92l1-.42c-.09-.3-.09-.57-.23-.73-2.14-2.5-1.85-5.28-.92-8.12.3-.91.6-1.82,1-2.7a18.33,18.33,0,0,1,6.41-7.76c2.79-2,5.8-3.71,8.69-5.58a45.27,45.27,0,0,0,7.87-5.85c2.54-2.58,5.26-5,7.71-7.67a39.52,39.52,0,0,0,4.64-6.06,84,84,0,0,1,7-9.73,15.41,15.41,0,0,1,4.79-3.33,3.86,3.86,0,0,1,4.68,1.25A6.78,6.78,0,0,1,481,259.7a36.77,36.77,0,0,1-3.83,6.46c-.78,1.21-1.61,2.38-2.37,3.51.27.69.46,1.26.71,1.8,1.37,2.89.55,5.44-1.19,7.86a14.83,14.83,0,0,1-5.45,4.76c-2.65,1.34-5.13,3-7.75,4.6.81,2.27.06,4.09-1.49,5.85a28.61,28.61,0,0,1-6,4.79l-1.57,1.05c.12.36.2.69.33,1a3.23,3.23,0,0,1-.84,4.19,7,7,0,0,0-1.07,1.59l4.6,2c0-.42-.05-.63-.06-.85a4,4,0,0,1,4.12-4.39,7,7,0,0,1,7.12,4c.91-.48,1.8-.92,2.68-1.41a29.77,29.77,0,0,1,9.18-2.89c3.69-.7,7.41-1.29,11.14-1.72a56.44,56.44,0,0,0,21.87-7.49,85.16,85.16,0,0,0,11.15-8.09,17.92,17.92,0,0,1,6.89-3.35c3.33-.85,5.45.87,5.7,4.26.24,3.18-1.53,5.28-3.68,7a69.53,69.53,0,0,1-7.64,5,2.52,2.52,0,0,0-1.57,2.76,6.68,6.68,0,0,1-2.79,6.21,34.67,34.67,0,0,1-17,6.93,2.4,2.4,0,0,0-.53.12,2.12,2.12,0,0,0-.35.21c-.4,4.33-3.2,6.4-7.08,7.69s-8.09,1.51-12.21,1.7c-1.49.07-3,.18-4.62.28-.13,2.64-2,3.89-4,4.91l0,9c.58.18,1,.37,1.46.46a10.31,10.31,0,0,1,7.2,5.66,18.54,18.54,0,0,1,2.25,10.22,43.41,43.41,0,0,1-1.31,7,5.85,5.85,0,0,0,1,5,19.24,19.24,0,0,1,2.74,5.59,23.26,23.26,0,0,1-.22,15.49c-.36,1-.54,2.07-.84,3.09a2.13,2.13,0,0,1-.38.56c-2-.26-2-.27-2.44-2a17.09,17.09,0,0,0-1.92-5.56c-.25-.38-.53-.73-1-1.35-.83,3.38-2.76,5.82-4.71,8.22a17.71,17.71,0,0,1-2,1.77,20.42,20.42,0,0,1-1.72,1.51,1.58,1.58,0,0,1-1.22.32c-.56-.29-.16-.78,0-1.23.66-1.67,1.29-3.35,1.84-5.05a14.74,14.74,0,0,0,.34-2.46c-1.77,2-3.21,3.9-4.9,5.53S463.55,394,460.9,394c-.3,1.72-.61,3.46-.94,5.39l-2,.19-1.69-3.41c-1.81,2.36-3.44,4.46-5,6.59a1.53,1.53,0,0,0-.21,1.14c.52,1.9,1.09,3.79,1.67,5.67.41,1.34,1.29,1.71,2.7,1.22a2.51,2.51,0,0,1,.78,0,10.42,10.42,0,0,0,1.77-.05c1.83-.35,1.83-.38,3.36.74,4.79-1.36,9.68-2.67,14.53-4.13,9.55-2.87,19-6.11,28.83-7.91,2.34-.42,4.7-.78,7.06-1a5.93,5.93,0,0,1,2.63.37c2.59.92,5.17,1.89,7.69,3a50.18,50.18,0,0,1,4.56,2.47c3,1.68,6,3.3,8.86,5.08,4.42,2.72,8.78,5.55,13.16,8.34,1.55,1,3,2.1,4.63,3a15.56,15.56,0,0,0,3.81,1.46,12.66,12.66,0,0,0,6.52-.16C565.92,421.18,568.34,420.77,570.85,420.22ZM338.26,345.55v-2.89a5,5,0,0,0-3-.4c-.34,2,1.1,3.88-.43,5.95a18.09,18.09,0,0,1-1.92-1.79,15.87,15.87,0,0,1-1.23-2.09c-1.93.36-2,.49-1.81,2.14.16,1,.37,2.1.54,3.12l13.78.22c.22-1.53.44-3.11.69-4.9-1-.21-1.76-.42-2.56-.53s-1.49,0-1.71,1.09c-.12.54-.7,1-1.22,1.66l-1.14-1.63ZM440.41,338c.25-.22.62-.39.73-.66a5.15,5.15,0,0,1,2-2.62A14.23,14.23,0,0,0,445,333c-1.66-.84-3-2.48-5.21-1.63.21,2.18.43,4.41.64,6.64-1.19,1-2.09.85-2.81-.46a6.18,6.18,0,0,1-.41-1c-.65-2-1.22-4-2-5.92a11.77,11.77,0,0,0-2.92-4.45,2.86,2.86,0,0,0-4.18,0c-.35.32-.65.7-1,1-.58.6-1.09,1.29-2.13.85s-.9-1.24-.86-2.09c.06-1.25,0-2.5,0-3.91l-4.15-.92c.1,1.4.22,2.53.25,3.65s0,2.33,0,3.49c-1.74,0-1.71,0-2.28-1-.26-.43-.59-1-1-1.13a5.29,5.29,0,0,0-4.61.73c-1.25,1-2.41,2.1-3.56,3.11a46.67,46.67,0,0,1-2.18,16.89l2,.89c.28-1.72.55-3.24.79-4.77A34.41,34.41,0,0,1,412,333.9a2.46,2.46,0,0,1,4.09-1c1.51,1.2,2,2.91,2.44,4.66a30.48,30.48,0,0,1,.25,12.11,3.26,3.26,0,0,1-.45,1.52c-.31.37-.92.49-2,1a6.91,6.91,0,0,1,1.23.58,5.9,5.9,0,0,1,1.25,1.19,1.31,1.31,0,0,1,.22,1.1,1.22,1.22,0,0,1-1.06.43,6.3,6.3,0,0,1-2-.77c-.7-.43-1.24-1.13-2-1.51a79.78,79.78,0,0,0-12.81-5.54A102.6,102.6,0,0,0,386.49,344a23.89,23.89,0,0,0-13.88,1.59,9.44,9.44,0,0,0-5,5.83c-.72,2.05-.37,4.12-.33,6.21.07,4,1.82,7.21,3.95,10.34a31.84,31.84,0,0,0,9.14,8.39c6.5,4.33,13.44,5.07,20.74,2.72a58.67,58.67,0,0,0,11.19-4.77c1.55-.89,3.07-1.85,4.58-2.82,1-.64,1.48-.56,1.94.5a6.42,6.42,0,0,1,.27,1.09c-4.72,3.93-10.36,6.09-16,8.5.35.73.84,1.3.85,1.87,0,1.89,1.46,2.95,2.3,4.37-.22-1.33-1.11-2.52-.56-4.17l2.17.82a6.78,6.78,0,0,0,3,4.61c.85.65,1.82,1.14,2.71,1.74a9.21,9.21,0,0,1,1.07,1c-3,.39-4.8-1.53-7-2.57a6.63,6.63,0,0,0,.46.9,23.88,23.88,0,0,0,8.63,7.14c3.53,1.74,7.16,3.29,10.67,5.06a46.38,46.38,0,0,1,6.15,3.66c1.84,1.32,3.36,3.09,5.21,4.4a29.48,29.48,0,0,1,8.15,8.83,6.43,6.43,0,0,0,1,1.06,12.57,12.57,0,0,0-2.12-5.19c-.81-1.29-2.15-2.33-2.22-4.11a1.83,1.83,0,0,1,2.12.27c1.57,1.37,3.4,2.43,4.69,4.14a6.69,6.69,0,0,0,1.27.94c-.35-1.92-.63-3.48-.9-5.05-.56-3.19-1.24-6.36-3.12-9.08s-3.79-5.38-5.85-7.95c-2.89-3.61-6.55-6.4-10.22-9.17a5.77,5.77,0,0,0-3.43-1.34,1.57,1.57,0,0,1-1.12-.39c-.77-1.08-2.45-1.41-2.51-3.09,0-.19-.4-.39-.64-.57a10.23,10.23,0,0,1-4.27-9c.05-2.8,1-5.15,3.64-6.54a10.23,10.23,0,0,1,2.62-1.13,5,5,0,0,1,5.27,1.64l-1.45,1a3.06,3.06,0,0,0-3.58-.81,4.53,4.53,0,0,0-3.2,2.4,9.16,9.16,0,0,0,2.35,10.8c2,1.72,4.34,2.41,7,1a9.34,9.34,0,0,0,4.3-8,1.28,1.28,0,0,0-.92-1.18c-.71-.26-1-.74-.67-1.69a10.53,10.53,0,0,1,1.88.29c2.44.84,3.63,2.79,4.26,5.13.4,1.46,0,2.09-1.67,3.1-.2-.87-.38-1.67-.61-2.73-1.22,3.67-3.18,6.38-7.08,7.48,1.2.89,2.36,1.38,2.95,2.26a9.81,9.81,0,0,0,2.34,2.38c2,1.49,3.38,3.62,5.13,5.37a27.11,27.11,0,0,1,5.6,7.79,10.26,10.26,0,0,0,1.64,2c.84-1.12,1.46-2.07,2.2-2.92a25.76,25.76,0,0,0,6.41-14.1c.34-2.81.15-5.49-1.56-7.89-.48-.68-.87-1.42-1.29-2.1l1.09-2a4,4,0,0,1,2.37,1.06,17.79,17.79,0,0,0,2.85,1.81,18,18,0,0,0,6.81,1.37,4.51,4.51,0,0,0,1.4-.23c3.21-1,5.37-3.33,7.1-6a30.68,30.68,0,0,0,4.09-10.44c.88-4.06,1.16-8-.46-12s-3.51-5.82-7.8-6.41a5.83,5.83,0,0,0-4.93,1.53,14.88,14.88,0,0,0-3.33,4.18,25.4,25.4,0,0,0-2.5,9.9c0,.63-.11,1.27-.19,2.12l-2.54-.72a2,2,0,0,0-.22.64c-.09,2.43-.58,4.87.66,7.21.57,1.07.33,1.25-.76,1.68a2.36,2.36,0,0,1-3-.94,22.23,22.23,0,0,1-3.83-6.68c-.28,1.49-.55,3-.83,4.43-2-.21-2.34-.43-2.76-1.95-.34-1.25-.57-2.53-.9-4-1.58,2.34-1.62,4.84-1.77,7.29-1.4.7-1.74.72-2.09-.16a47.52,47.52,0,0,1-2-5.72,18,18,0,0,1-.19-7.39c-.63-.64-1.31-1.05-1.54-1.63a14.54,14.54,0,0,1-.54-8.46C439.61,341.2,440,339.59,440.41,338Zm-76.07,15.29c-1.93,0-4,0-6.06,0-1.85,0-3.71,0-5.55-.14-3.46-.22-6.91-.67-10.38-.78-9.39-.29-18.79-.46-28.19-.68-3.28-.07-6.57-.1-9.86-.24-2.91-.13-5.82-.5-8.74-.58-5.38-.14-10.76-.4-16.15-.08a3.71,3.71,0,0,0-2.24.88c-2.81,2.23-4.91,5.19-7.87,7.27a66.57,66.57,0,0,0-5.41,4.67c-1.08.94-2.14,1.9-3.26,2.79-3.23,2.57-6.49,5.09-9.71,7.66a12.66,12.66,0,0,0-1.44,1.64c2.71,2.47,5.21,4.82,7.79,7.09,1.7,1.49,3.54,2.81,5.24,4.29,2,1.72,3.84,3.58,5.83,5.28,2.73,2.34,5.54,4.57,8.28,6.89a3.26,3.26,0,0,0,2.4.88c2.21-.13,4.41-.28,6.62-.32,2.73,0,5.47,0,8.2,0,3.46,0,6.93-.23,10.39-.24,2.38,0,4.77.28,7.15.25,6.17-.09,12.33-.28,18.49-.42,1.26,0,2.52.05,3.78,0,3.28-.09,6.56-.28,9.85-.32,2.91,0,5.82.1,8.74.11,3.64,0,7.29,0,10.93,0,1.29,0,2.57-.12,3.84-.19,0-2-.07-3.76,0-5.53.13-2.44.6-4.88.54-7.31-.11-4.32.76-8.57.8-12.87a6.64,6.64,0,0,0-.41-3.5,1.3,1.3,0,0,1-.13-1c.42-.74,0-1.25-.33-1.81a15.87,15.87,0,0,1-2.44-6.68C364.84,358,364.6,355.74,364.34,353.27Zm47.74,172.91c-.53,1.18,0,1.72.78,2.19a3.89,3.89,0,0,1,1.25,1c.26.38.49,1.11.29,1.39s-.9.42-1.4.45a1.88,1.88,0,0,1-1-.4c-.83-.56-1.65-1.14-2.45-1.74a2.23,2.23,0,0,0-2.66-.24,10.09,10.09,0,0,1-2,.77,6.39,6.39,0,0,0-4.91,6.12,8.42,8.42,0,0,0,1.56,5.24,107.71,107.71,0,0,0,6.91,9.13c2.85,3.31,6.5,5.76,10,8.26,2.86,2,5.9,3.77,8.9,5.57a52.39,52.39,0,0,0,5.32,2.86c3.14,1.43,6.37,2.66,9.52,4.06a104.42,104.42,0,0,0,17,6c1.42.35,2.95.92,4.56.38.92-.31,1.52.26,1.9,1.41a4.37,4.37,0,0,0,3.09,3.18,24.6,24.6,0,0,1,3.52,1.26q4,1.79,7.93,3.69a8.73,8.73,0,0,0,6.4.91,4.34,4.34,0,0,1,.89-.08,13.55,13.55,0,0,0,10-5.22,8,8,0,0,0,2.17-5.55,19.92,19.92,0,0,0-3.35-9.54c-3.23-4.95-7.81-8.71-11.74-13a67.91,67.91,0,0,0-6.21-5.64c-2.21-1.9-4.63-3.57-6.7-5.61a46.11,46.11,0,0,0-7.44-5.57c-3.2-2.08-6.56-4-9.56-6.3s-6.45-4.3-9.68-6.43c-2.34-1.53-4.92-2.69-7.42-4a31.34,31.34,0,0,0-10.82-3.06,28.34,28.34,0,0,0-9.63.25,19.86,19.86,0,0,0-3.82.88c-2.3,1-4.47,2.31-5.27,5a9,9,0,0,1-1.1,1.82ZM321,473.23c-.06-4.1,1.74-7.67,3.87-11.1a10.21,10.21,0,0,1,1.89-2.11c.6-.54,1.29-.58,1.89.34a8.14,8.14,0,0,1-.69,1.15,23.25,23.25,0,0,0-5.25,11.41,2.43,2.43,0,0,0,.38,1.77,10.64,10.64,0,0,1,1.82,4.19c.21,2.57-1.69,4.42-2.92,6.58-.84-.47-1.5-1.13-2.16-1.14-1,0-1.37-.61-1.84-1.2a16.28,16.28,0,0,1-.89-1.46,5.24,5.24,0,0,0-.74.89c-1.17,2.32-2.7,4.46-3.39,7s-.12,3.31,2.48,3.34a5.8,5.8,0,0,0,1.23-.18c4.59-.91,8.16-3.46,11.36-6.76a27.1,27.1,0,0,0,5.22-8.5A19.94,19.94,0,0,0,334.8,472a23.28,23.28,0,0,0,.11-4.09,28.77,28.77,0,0,1,.42-4.63c.64-.38,1.19-1,1.75-1a17.54,17.54,0,0,0,6.05-1.17c4.22-1.51,8.44-3,12.59-4.68a28.53,28.53,0,0,0,6.31-2.95c1.88-1.35,3.94-2.46,5.89-3.71a5.76,5.76,0,0,0,2-1.64c.84-1.56,1.95-1.51,3.31-1a5.23,5.23,0,0,0,4.17-.26,5.93,5.93,0,0,1,2-.5c1.42-.11,2.86,0,4.27-.18a63.75,63.75,0,0,0,10.69-2.1c1.83-.52,3.66-1.07,5.45-1.71,1.51-.54,3-1.18,4.44-1.86,2.76-1.27,5.55-2.49,8.22-3.94a76.67,76.67,0,0,0,10.88-7.74c.42-.34.67-.64.47-1.2-.32-1-.62-1.92-.9-2.9a1.3,1.3,0,0,0-1.45-1c-1.08,0-2.16-.05-3.24-.11-2.57-.16-5.12-.4-7.43-1.74a2.42,2.42,0,0,0-1.34-.36c-1.66.22-3.3.52-4.95.82-2.7.5-5.39,1.05-8.09,1.54a1.87,1.87,0,0,1-1.19-.19,1.37,1.37,0,0,1-.61-.94c0-.22.36-.57.63-.72a4.94,4.94,0,0,1,1.35-.48c2.81-.53,5.64-1,8.45-1.55.73-.14,1.45-.32,2.15-.47-.77-1.73-1.46-3.29-2.14-4.86a22.38,22.38,0,0,0-3.07-5.45,13.39,13.39,0,0,1-2.84-5.73,12.32,12.32,0,0,0-.69-1.71c-.77,1.84-1.4,3.31-2,4.8A31.78,31.78,0,0,0,394,418.4c0,3.15,0,6.36,1.49,9.09L394,430c-2.18.25-3.34-1.49-4.56-2.85a45.14,45.14,0,0,1-3.23-4.6,6.32,6.32,0,0,0,0,2.25c.18,1.54.44,3.07.57,4.62,0,.4-.23,1.09-.51,1.19a1.79,1.79,0,0,1-1.46-.23,6.24,6.24,0,0,1-1.31-1.65c-.81-1.31-.9-1.44-2.27-1-3,1-6,1.95-9,3.1s-6,2.52-9,3.9c-3.45,1.61-7.06,2.86-10.42,4.68-2.51,1.36-5.21,2.39-7.77,3.67-3.45,1.73-6.87,3.54-10.28,5.36a2,2,0,0,1-1.85.05,10.41,10.41,0,0,1-4.53-3.67c-1.78-2.25-3.44-4.58-5.08-6.93-1.41-2-3.17-3.18-5.75-2.86a20,20,0,0,1-2.32,0,1.87,1.87,0,0,1-1.78-1,13.79,13.79,0,0,1-1-1.89c-.66-1.74-1.2-3.51-1.85-5.25-.51-1.38-1.09-2.73-1.67-4.15-1.25,1.12-1.19,1.11-1.12,2.18a6.2,6.2,0,0,0,2.11,3.84,5.49,5.49,0,0,1,1.07,1.4,1.19,1.19,0,0,1-.25,1.1,1.27,1.27,0,0,1-1.14,0,7.72,7.72,0,0,1-4.28-5.4c-.36-1.94-.05-3.42,1.8-4.35.08,0,.08-.22.18-.56a16.94,16.94,0,0,0-2.25-.88,1.84,1.84,0,0,0-2.45,1.67,12.81,12.81,0,0,0,.11,4.45,34.46,34.46,0,0,0,4.52,10.65,7.88,7.88,0,0,0,3.14,3.32c1.86.89,2.07,2.41,2.07,4.12,0,.12-.09.23-.1.34a12.68,12.68,0,0,0,1.14,7,16.44,16.44,0,0,0,3.55,5.55,7.68,7.68,0,0,1,1.05,1.22,1.38,1.38,0,0,1,0,1.81c-.58.66-1.07.11-1.54-.25a4.65,4.65,0,0,1-.67-.58c-1.16-1.26-2.31-2.54-3.51-3.86a9.36,9.36,0,0,0-.95.67,40.64,40.64,0,0,1-5.68,4.05c-2.32,1.45-4.49,3.16-6.66,4.84-1.37,1.05-2.59,2.28-3.91,3.4s-2.66,2-3.84,3.19c-2,1.92-3.83,3.93-5.66,6a29.33,29.33,0,0,0-2.7,3.57,4.47,4.47,0,0,0-.75,4,3.16,3.16,0,0,0,3.13-.58,84,84,0,0,0,8.6-6.7,21.15,21.15,0,0,1,6.94-4.25,4.94,4.94,0,0,0,2.31-1.77c1.82-2.2,3.75-4.31,5.73-6.37a5.6,5.6,0,0,1,4.51-1.77,3.94,3.94,0,0,1,3.37,3c.06.6.06,1.24-.77,1.37a1,1,0,0,1-1.29-.88c-.07-.41-.14-.81-.22-1.31a4.7,4.7,0,0,0-4.08,1.6c2.85.89,2.85.89,2.25,2.62-2.72.53-3.72,2.71-2.23,5.22.73-1.16,1.42-2.26,2.12-3.35a6.31,6.31,0,0,1,4-3c2.13-.49,3.72,1.59,3.83,3.1a1.16,1.16,0,0,1-1,1.31c-.72.12-1.09-.32-1.13-1.06a8.21,8.21,0,0,0-.28-1.27l-2.32,1c1.06,1.49,1.07,1.5-.08,2.58-.39.37-.83.69-1.23,1a2.29,2.29,0,0,0-.22.4l1.16.64,1.24-1.45c.28.34.49.6.64.77Zm322,148c-.62-.16-1.26-.29-1.88-.49a4.65,4.65,0,0,1-3.07-3.44c-.24-.83.08-1.27.9-1.43a1.29,1.29,0,0,1,1.61.77,3,3,0,0,0,3.09,1.74,5.29,5.29,0,0,1,.88.11c3.3.32,6.41,0,9.25-2a7.42,7.42,0,0,0,3-4c1-3.17.63-6.41.53-9.63a13.08,13.08,0,0,0-.79-4.2c-2.32-6.13-4.43-12.34-7.49-18.19A110.57,110.57,0,0,0,640.65,567c-1.43-2-3.08-3.8-4.51-5.79-1.76-2.46-3.39-5-5.1-7.53a18.72,18.72,0,0,0-1.35-1.58c-.9,1.83-1.83,3.42-2.47,5.13a9.33,9.33,0,0,1-2.49,3.63,25.82,25.82,0,0,1-10.12,6c-3.08.94-6.18,1.84-9.21,2.92a21.4,21.4,0,0,0-7.23,4.24c-.44.4-.85.79-.63,1.35.64,1.66.62,3.45,1.54,5.09a50.62,50.62,0,0,1,3.37,7.69c1,2.74,1.67,5.61,2.56,8.39.84,2.61,1.75,5.2,2.71,7.78A38,38,0,0,0,613,614a22.45,22.45,0,0,0,9.93,7.64,36.52,36.52,0,0,0,14.87,2.76,11.78,11.78,0,0,0,2.13-.24C642.05,623.7,642.77,623,643,621.28ZM556.94,439.8a9.31,9.31,0,0,1,1.1,1.63c1,2.49,1.88,5,3,7.48a5.34,5.34,0,0,0,1.84,2.11c3.46,2.34,7,4.59,10.49,6.86.81.52,1.61,1.06,2.45,1.49s1.43.16,1.64-.88a5.46,5.46,0,0,0-.87-3.93,7.75,7.75,0,0,1-.86-1.76c-.39-1.5.44-2.27,2-2a11.91,11.91,0,0,0,2.65.31,2.17,2.17,0,0,0,2-3.28,17.67,17.67,0,0,0-1.49-2.23,7.52,7.52,0,0,1-1-1.45,1.55,1.55,0,0,1,.16-1.26c.14-.2.82-.21,1.12-.05.86.46,1.66,1,2.57,1.63l1.47-.16c1.42-.13,1.54-.27,1.45-1.8-.06-.94-.13-1.89-.2-3,1.1-.61,2.22-1.19,3.28-1.87.67-.43,1.35-1.09,1.06-1.91a14.9,14.9,0,0,0-1.46-2.56c-2-.24-3.15-1.83-4.57-3a47.8,47.8,0,0,0-7.91-5.5c-2.27-1.14-4.65-2.12-7.21-1.87a53.16,53.16,0,0,0-7,1.4,11.68,11.68,0,0,1-6.37-.08,37.31,37.31,0,0,1-3.76-1.57,6.57,6.57,0,0,1-1.09-.63c-1.65-1.05-3.3-2.1-4.92-3.19-2.71-1.83-5.4-3.7-8.11-5.53-1.56-1-3.09-2.16-4.74-3.07-2.28-1.25-4.71-2.22-7-3.51a66.87,66.87,0,0,0-10.83-5,14.54,14.54,0,0,0-8.43-.69c-4.62,1.13-9.25,2.24-13.85,3.46-2.81.74-5.59,1.67-8.37,2.54-1.65.51-3.29,1.07-4.94,1.56-3.47,1-6.95,2-10.42,3.05-2.74.82-5.45,1.71-8.3,2.6a16,16,0,0,0,1.81,9.53c1.66.29,3.05.58,4.44.76a56.47,56.47,0,0,0,6.19.64,29.93,29.93,0,0,0,5.14-.62c3.93-.68,7.87-1.35,11.78-2.16,3.32-.68,6.6-1.58,9.92-2.33,1.21-.27,2.51-.24,3.69-.59a19.81,19.81,0,0,1,7.1-.67c4.39.29,8.57,1.56,12.78,2.67a49.75,49.75,0,0,1,10,4.29,77.29,77.29,0,0,1,7.29,4.19,67.3,67.3,0,0,1,6.6,5.08,10.57,10.57,0,0,1,2.85,3.38c1,2.14,2,4.33,2,6.79,0,.15.13.3.28.63.5-.74.91-1.37,1.34-2,.61-.87,1.36-1.64,1.32-2.85C556,440.65,556.5,440.31,556.94,439.8Zm-11.42,28.89c1.34-2.3,2.66-4.63,4.05-6.93a3.43,3.43,0,0,0,.5-2.86,10.65,10.65,0,0,1,.56-7.71c.78-1.55,1.12-2.95.1-4.47a1.06,1.06,0,0,1-.19-.5,19.19,19.19,0,0,0-1.5-5.84,11.23,11.23,0,0,0-4-5.14A83.51,83.51,0,0,0,533.59,428a38.84,38.84,0,0,0-5.85-2.66c-4.5-1.4-9.07-2.58-13.63-3.77a16.9,16.9,0,0,0-7.42-.3c-2.11.39-4.23.76-6.32,1.23-2.67.6-5.3,1.4-8,1.95q-7.18,1.47-14.41,2.73a21.31,21.31,0,0,1-11.93-.94c-.21-.09-.52.06-.94.13.24.4.37.66.54.89a23.21,23.21,0,0,0,8.2,7.06c2,1.14,3.91,3,6.57,2.84.17,0,.35.27.53.4a16.63,16.63,0,0,0,1.91,1.32c1.85.94,3.7,1.89,5.62,2.67,3.41,1.39,6.83,2.75,10.31,3.92,3.66,1.24,7.45,2,11,3.77s7.13,3.24,10,6a2.57,2.57,0,0,0,2.74.91,2.75,2.75,0,0,1,3.33,1.08c1.57,2,3,4.15,4.51,6.23L534,468.5C537.9,467.1,541.68,468.28,545.52,468.69ZM547,494.44c-1.81-.12-3.65-.36-5.49-.35-6.82,0-13.65-.56-20.47.18-1.95.22-3.92.3-5.87.57-2.78.39-5.54.91-8.32,1.33a14.2,14.2,0,0,0-12,8.21c-1.77,3.86-3.7,7.64-5.38,11.53-1.56,3.62-2.86,7.35-4.33,11s-3,7-4.34,10.57c-1.12,2.93-2,5.94-3,8.78,2.41,1.51,4.8,3,7.22,4.51s4,4.25,6.46,5.8q9.6-19.16,19.15-38.25c.1-.2.06-.47.05-.36-1.06-.88-2.36-1.44-2.74-2.38a38.06,38.06,0,0,1-1.49-6h1.89c-.5,2.51.92,4.18,2.16,5.94.39.54.51,1.33,1,1.75,1.5,1.36,1.55,1.33.87,3-.4,1-.84,2-1.31,3.15a19.23,19.23,0,0,1,2.55,0,53.09,53.09,0,0,0,11.41.09c3.5-.22,7-.88,10.44-1.44a13.88,13.88,0,0,0,3.93-1.13c2.91-1.46,4.43-4.14,5.4-7.09A53.12,53.12,0,0,0,547,494.44Zm51.2,44.68a10.09,10.09,0,0,1-2.66.73c-2.4-.07-4.78-.3-7.17-.52-4.34-.41-8.68-.88-13-1.3-2.79-.27-5.59-.48-8.38-.73-2.44-.23-4.88-.68-7.32-.69-4.14,0-7.67-1.69-11.08-3.68-1.91-1.1-3.62-2.54-5.43-3.81a27.4,27.4,0,0,0-3-2c-1.08-.56-2.13-1-2.24-2.39-9.32,1.69-18.52,2.86-27.78.84a13.73,13.73,0,0,0-2.66,5.48c.55.28,1.07.53,1.58.81a3,3,0,0,1,1,.64,55.1,55.1,0,0,0,8.2,8c3.84,3.22,7.77,6.36,11.79,9.37,2.62,2,5.35,3.87,8.67,4.51,1.81.35,3.67.4,5.52.57,3.56.33,7.12.72,10.69.95,2.5.16,5,.13,7.53.14a90.1,90.1,0,0,0,14.31-.69c3.06-.48,6.11-1.16,9.2-1.39,4.86-.37,9.49-1.69,14.33-2.85A23.61,23.61,0,0,0,598.2,539.12ZM381.34,425.24c-.6-1.29-1.07-2.38-1.6-3.45a29.38,29.38,0,0,1-3-10.8,38.2,38.2,0,0,1,.77-11.76c1.2-5,2.42-10,5.06-14.48a15.51,15.51,0,0,0,1-3.36,54.41,54.41,0,0,1-12.93-9.72c0,10.16-.85,20-1.5,29.85-4.13.61-8.07.37-12,.39s-7.84.12-11.68.19c0,1.94-.07,3.78,0,5.62a14.66,14.66,0,0,1-.08,4.81,11.3,11.3,0,0,0-.43,3.37c.11,2.68-.49,5.33-.16,8,.23,1.81-.2,3.69-.24,5.54-.09,3.16-.1,6.33-.14,9.5,0,.58-.06,1.16-.11,2.08,1.06-.39,1.89-.64,2.67-1,4.07-1.86,8.12-3.77,12.19-5.64,1.79-.82,3.62-1.56,5.42-2.35,2.78-1.24,5.52-2.56,8.33-3.71S378.44,426.3,381.34,425.24Zm203.8,132.45a43.71,43.71,0,0,1,1.5,5.15c.42,2.53.46,5.12.82,7.66a15.73,15.73,0,0,0,1.1,3.93,2,2,0,0,0,2.84,1,5.61,5.61,0,0,0,1.21-.74c1.92-1.4,3.78-2.91,5.76-4.22a37.11,37.11,0,0,1,10.56-4.77c3.76-1,7.52-2,10.74-4.32,1.58-1.14,3.37-2.14,4.3-3.94a40.1,40.1,0,0,0,2.09-5.12,3.83,3.83,0,0,0,0-1.93c-.57-2.9-2.51-4.68-5.08-5.85a28.76,28.76,0,0,1-9.55-7.66c-1.73-2-3.51-3.91-5.37-5.77a9.52,9.52,0,0,0-6.71-3.06A12,12,0,0,0,589,533.55a8.84,8.84,0,0,0-.73,2.23c.88.15,1.51.28,2.16.36,2.77.38,5.54.73,8.32,1.12a1.16,1.16,0,0,1,.78.32,10.17,10.17,0,0,1,1.74,2.88,38.33,38.33,0,0,1,1.32,10.29,5.61,5.61,0,0,1-1.15,3.49c-1,1.34-1.17,1.39-2.29.49Zm-247.48-93a4.26,4.26,0,0,0-.29,1.12c-.05,1.71,0,3.41-.06,5.12a23.52,23.52,0,0,1-2.79,9.92c-.57,1.11-1.22,2.19-1.84,3.29-.42.76-.76,1.61-.18,2.35a4.57,4.57,0,0,1,.74,2.7c.13,1.66.22,3.33.33,5,.24,3.68.51,7.35.72,11a11.94,11.94,0,0,1-.09,3.92c-.65,2.18-.22,4.36-.34,6.53-.14,2.37.1,4.76,0,7.14-.24,4.34-.86,8.68-.89,13-.06,6.21.37,12.42.39,18.63,0,3.56-.4,7.12-.62,10.68-1,1.82.12,3.23,1.11,4.73.09-1.83.17-3.66.28-5.83,2.35,1.89,1.15,4.42,2,6.36,1-3.59,2.28-7.07,2.21-10.83a1,1,0,0,1,.07-.52,1.42,1.42,0,0,1,.63-.52.64.64,0,0,1,.55.33,8.27,8.27,0,0,1,.5,2.26c0,1.31-.23,2.62-.34,3.93A8.19,8.19,0,0,0,342,571c.8-1.8,1.6-3.47,2.27-5.19a6.66,6.66,0,0,0,.43-2.43c0-1.42-.29-2.85-.3-4.27,0-4.43.05-8.86.1-13.29q.09-8.16.19-16.3c0-3.52.1-7,.17-10.55.09-4.12.25-8.24.29-12.36,0-3.41-.34-6.84,0-10.22.35-3.86-.38-7.63-.24-11.45a22,22,0,0,0,0-3.54,19.66,19.66,0,0,1,.05-7.49,3.77,3.77,0,0,0,0-.89q.06-4.39.11-8.79a11.77,11.77,0,0,0-.14-1.25Zm181.91-163.1a8.64,8.64,0,0,0-1.49.46,66.34,66.34,0,0,1-8.76,3.65,54.53,54.53,0,0,1-10.86,2.95,12.56,12.56,0,0,1-2.67.14,1.25,1.25,0,0,1-.93-.57c-.27-.55.17-.86.66-1.05,1.4-.53,2.79-1.07,4.19-1.58,2.86-1,5.75-2,8.58-3.08q4.83-1.87,9.58-4a60,60,0,0,0,11.75-6.79c1.79-1.34,3-3,2.75-5.67a8.74,8.74,0,0,0-2.27-.07,15.94,15.94,0,0,0-6.63,3.3c-2.54,2.15-5.29,4.08-8,6.07a45.46,45.46,0,0,1-10,5.48,54.82,54.82,0,0,1-13.73,3.88c-3.32.42-6.61,1-9.92,1.48a39.2,39.2,0,0,0-11.38,3c-3.06,1.42-5.95,3.24-7.65,6.28a64.42,64.42,0,0,0-3.59,7.61c-.5,1.24-1,1.87-2.41,1.88a4.53,4.53,0,0,0-4,3.55,2.29,2.29,0,0,0,.29,1.68,4.76,4.76,0,0,0,4.54,2,4,4,0,0,0,3.35-3.59,8.91,8.91,0,0,1,.44-1.53,5.86,5.86,0,0,0,1.64.8c2.71.21,5.46.51,8.14-.17a10.32,10.32,0,0,0,2.95-1.59c.37-.24.51-.82.85-1.41-.77-.05-1.24-.05-1.71-.11-1.95-.26-3.89-.51-5.83-.81-.76-.12-1.3-.51-1-1.64,1.47,0,2.95,0,4.43,0,5.32-.21,10.64-.39,15.95-.71a20.63,20.63,0,0,0,9.5-2.86,4,4,0,0,0,2.15-2.82c-1.32.09-2.55.15-3.78.27-2.38.24-4.75.56-7.13.75-2.72.21-5.46.36-8.19.47a5.49,5.49,0,0,1-1.91-.33c-.28-.09-.46-.5-.83-.95,1.88-.53,3.45-1.09,5.06-1.4s3.3-.36,4.95-.58c4.74-.6,9.48-1.16,14.2-1.87,6.11-.93,11.83-2.86,16.73-6.81A5,5,0,0,0,519.57,301.61Zm-92.7,9.79c-.9,2-1.47,4-3.33,5.29a1.17,1.17,0,0,0-.38.6c-.3,1-1.12,1.08-1.88.86s-.53-1-.5-1.68a30.15,30.15,0,0,0,.08-5.37c-.37-2.83-1-5.63-1.66-8.42a4,4,0,0,0-1.79-2.91,9.55,9.55,0,0,0-1.6,8.85,31.73,31.73,0,0,0,1.77,3.91c.95,2.12,3,3.81,2.33,6.5l4.64.87.91-2.82c1.9.21,3.67.34,5.42.61,4.08.65,6.19,3.51,7.72,7a5.19,5.19,0,0,0,1.39,2c1.57,1.19,3.09,2.45,4.62,3.68s3.12,2.19,4.68,3.28c.82.59,1.61,1.23,2.43,1.81,2.35,1.64,4.73,3.22,7,4.9,1.53,1.1,3,2.33,4.53,3.57,2.05-2.36,4.3-4.44,7.63-5a44.79,44.79,0,0,0,0-8.27h-7.56c-1.36,2.48-1.44,2.37-3.18,3.54-2.82,1.89-6.05.71-8.23-1.55a6.09,6.09,0,0,1-1.84-3.41c-.31-2.24,1.68-5.25,3.95-6,.9-.31,1.81-.57,2.68-.84l2.94-7.06c-.58-.4-1-.69-1.45-1a25.8,25.8,0,0,0-14.17-5.87,27.41,27.41,0,0,0-12,1.32C430.42,310.4,428.68,310.84,426.87,311.4Zm46.2-39.57c-1.38,1.72-2.63,3.31-3.94,4.86-.88,1.05-1.82,2.05-2.8,3-.22.21-.91.3-1.05.15a2.36,2.36,0,0,1-.39-1.23c0-.19.22-.41.35-.61,1.91-2.82,3.77-5.67,5.72-8.46s4-5.36,5.87-8.13a10.46,10.46,0,0,0,1.94-5.69c0-1.8-.35-2.11-2.15-1.64a5.5,5.5,0,0,0-1.49.58,17.78,17.78,0,0,0-4.78,4.28c-1.66,2.2-3.34,4.39-4.81,6.7a53.17,53.17,0,0,1-5.5,7.27,87.89,87.89,0,0,1-7,6.94,38.92,38.92,0,0,1-3.32,3c-2.86,1.94-5.85,3.69-8.75,5.58s-5.74,3.71-7.88,6.44a16.8,16.8,0,0,0-3.72,8.24c-.2,1.59-.24,3.22,1.15,4.64,5.82-2.7,11.88-2.21,18.07-1.2,0-1.72,2-2.57,1.86-4.59a4.36,4.36,0,0,0-.9.45c-.45.39-.84.85-1.28,1.26s-1.12.82-1.77.36a1.27,1.27,0,0,1-.27-1.9,6,6,0,0,1,.85-1.36,37.46,37.46,0,0,1,3.19-2.58c2.67-1.9,5.55-3.52,7.73-6.06a3,3,0,0,0,1-2.44c-3.82,1.14-7.11,3.54-11.4,3.43.88-.58.74-1.6,1.71-2,2.32-1.06,4.56-2.29,6.82-3.47s4.55-2.34,6.78-3.6c2-1.14,3.92-2.51,6-3.6a11.55,11.55,0,0,0,4.41-4.79A2.94,2.94,0,0,0,473.07,271.83Zm25.3,220.28c.83-.65,1.66-1.3,2.49-2a35.78,35.78,0,0,1,4.45-3.58c2.51-1.42,4.65-3.31,7-4.93,4.35-3,8.7-6.08,13.25-8.78a57.91,57.91,0,0,0,5.7-3.77c-1.72-2.57-3.37-5.05-5.06-7.51-.66-1-1.38-1.92-2.12-2.85a1.46,1.46,0,0,0-1.77-.45c-1.15.4-2.38.63-3.48,1.14-2.5,1.14-5,2.3-7.39,3.66-3.79,2.15-7.51,4.43-11.22,6.74-3.4,2.12-6.74,4.33-10.1,6.52-1.43.94-2.81,1.94-4.21,2.92l.17.31a2.83,2.83,0,0,0,.86-.31,3.61,3.61,0,0,1,3.89-.4,12.78,12.78,0,0,1,2.66,1.47C496.36,482.47,499.75,487.27,498.37,492.11Zm-82.9-79.74c-.8-1.61-1.47-2.86-2.05-4.17a8.89,8.89,0,0,0-2.91-3.57c-.81-.6-1.71-1.08-2.52-1.67a3.63,3.63,0,0,1-.67-.94,4,4,0,0,1,1.14-.61,2.47,2.47,0,0,1,1.16.33,14,14,0,0,1,4.87,3.87c.24.27.52.51.8.78.45-2.25.86-4.34,1.29-6.52-.54-.27-1-.49-1.48-.75a28.19,28.19,0,0,1-6.68-4.8c-3.36-3.44-5.4-7.66-7.33-12-1.6.09-1.66.2-1.25,2.63,1-.13,1.15.58,1.2,1.34a11.79,11.79,0,0,1,0,2c-.38,3.08-.81,6.15-1.18,9.24a5.86,5.86,0,0,0,.11,2.09,17,17,0,0,0,1.14,3.21A28.59,28.59,0,0,0,404,408a20.23,20.23,0,0,1,2.67,4.21c.54,1.2,1,2.45,1.62,3.6a9,9,0,0,0,1.87,2.57,11.45,11.45,0,0,0,7.51,2.86c2.33,0,4.65.24,7,.22s4.76-.13,7.13-.37c3.92-.41,6.09-3.2,8.26-6.37-3.07-2.55-6-5.33-9.22-7.57a44.7,44.7,0,0,0-12.29-6.05,24.75,24.75,0,0,0-.95,6.77c.05,1.58,0,3.16,0,4.83,2.41.16,4-1.4,5.5-3,.78-.81,1.52-1.67,2.33-2.45.48-.47,1.07-1.31,1.78-.64s-.21,1.3-.56,1.83c-.89,1.33-1.86,2.62-2.87,3.87-1.36,1.69-3,3-5.32,2.81a29.91,29.91,0,0,1-7.91-1.44c-1.35-.45-1.38-.53-.82-2.2Zm-31.67,12.2c.1-.54.15-.69.16-.85.1-1.91.14-3.83.3-5.73s.95-2.54,2.61-2c.71.25.85.74.92,1.37a15.06,15.06,0,0,0,1.81,6.14,8.51,8.51,0,0,0,3,3.22c-1-2-.91-4.17-1-6.28-.06-1.24.08-2.49.11-3.74a32.53,32.53,0,0,1,2.38-10.24c1.08-3,2.51-5.84,3.26-8.88a39.36,39.36,0,0,0,.87-8.54,40.77,40.77,0,0,0-.74-5.95c-4,.37-7.83.57-11.42-.85-1.24,2.67-2.42,5.2-3.59,7.74a1.79,1.79,0,0,0-.09.35c-.76,2.94-1.57,5.88-2.28,8.84a32.65,32.65,0,0,0-.83,10.69,37.43,37.43,0,0,0,2.54,10.58C382.29,421.78,383,423,383.8,424.57ZM332.48,402a10.67,10.67,0,0,0-.09,1.45c.07,1.25.29,2.49.26,3.73-.06,2.56-.34,5.13-.33,7.69,0,2.19.34,4.36.13,6.59-.29,2.95-.06,5.94-.13,8.91,0,1.59-.29,3.18-.32,4.78,0,1.41.14,2.83.18,4.24a3,3,0,0,1-.16,1.39c-1,1.95-.33,3.56.93,5.07.73.86,1.14,1,2.15.39,2.75-1.54,5.48-3.11,8.24-4.69a5.35,5.35,0,0,0,0-1.06c-.73-3.24-.57-6.53-.57-9.8s.2-6.32.35-9.47c.12-2.54.29-5.08.45-7.62.06-.95.24-1.9.22-2.84-.07-2.39-.21-4.77-.33-7.16,0-.51-.09-1-.14-1.59ZM446.25,342.7c-.13.82-.49,1.49-.17,2.21.07.15-.14.44-.24.65A23.76,23.76,0,0,0,443.25,358a7,7,0,0,0,.76,3.24c2-4.31,4-6.76,6.13-7.21a24,24,0,0,1-.24,2.64,8.2,8.2,0,0,0,0,4.42c1.23-3.73,2.53-5.8,4-6.39-.25,4.06.26,7.9,3.11,11.1-.75-3.79,0-7.41.87-11l2-.28a7.23,7.23,0,0,1,.94-4.5c.74-1.27.83-2.92,1.27-4.67-4.76-3.74-9.8-7.41-14.87-10.81-2.26,1-4.05,2.35-4.8,4.66-.7,2.15-1.7,4.28-1.19,6.77C443,344.94,443.53,342.37,446.25,342.7ZM454,418.37l-.28-.09a4.36,4.36,0,0,1-.17.51c-.71,1.6-1.6,1.71-2.64.34-.32-.41-.69-.78-1.29-1.46.08.77.09,1.16.17,1.54.43,1.86.91,3.7,1.32,5.57.27,1.27.15,1.38-1.38,1.81-2.35-3.81-5.47-7-8.37-10.47-1.43,1.68-2.64,3.25-4,4.68s-3.52,1.66-5.31,2.4a2.13,2.13,0,0,0,0,.59c.69,2.34,1.3,4.72,2.13,7a14.34,14.34,0,0,0,2.15,4.1c2.38,2.93,5.69,4,9.38,4a6.1,6.1,0,0,0,5.33-3.1,16.42,16.42,0,0,0,2.22-6.39c.43-3,.69-6,1-9.07A9.71,9.71,0,0,0,454,418.37Zm4.46-22.63c.5-3,.5-3,3.18-3.54l.35-.07a7.66,7.66,0,0,0,4.63-2.49c1.45-1.73,2.82-3.53,4.11-5.37a4.25,4.25,0,0,0,.88-4l2-.16c1.08,2.76.93,5.53,1.2,8.53a15.07,15.07,0,0,0,3.72-7c-.62-1-2.31-1.1-2.36-2.62,1.36-.49,1.38-.51,2.42.06a14.13,14.13,0,0,1,5,5.3c.28.46.53.95.91,1.63.24-.66.4-1,.48-1.33a22.51,22.51,0,0,0-1.55-14.17c-.12-.28-.25-.7-.45-.75-1.18-.27-1.22-1.38-1.68-2.26a3,3,0,0,0-.42.48,19.57,19.57,0,0,1-4.79,6.64,15,15,0,0,1-4.35,3.07,13.3,13.3,0,0,1-8.43.23l-4.19-1c2.63,6.24.61,11.76-1.8,17.16Zm9.31,125.61c.89-.83,1.89-1.6,2.71-2.53a75.1,75.1,0,0,1,8.07-7.48,50.46,50.46,0,0,0,4.53-4.34l-6.06-2.14c.22,1.08.4,2.06.62,3a3,3,0,0,1-1.36,3.69,4.47,4.47,0,0,1-4.92.2,15.29,15.29,0,0,1-5.45-5.56c-1.2-1.86-1.31-4.06-1.92-6.1a1.2,1.2,0,0,1,.41-.91,5.32,5.32,0,0,1,5.77-1.31c.31.12.63.22,1.26.44l-2.37-4.61c-.71.74-1.27,1.43-1.92,2a139.25,139.25,0,0,0-10.63,10.83,3.52,3.52,0,0,0-.12,5.12,65.08,65.08,0,0,0,5,5.59C463.21,519,465,520.68,467.81,521.35ZM547.55,478a1.35,1.35,0,0,0,.28-.15c3.21-3.6,6.4-7.2,9.62-10.79a3.55,3.55,0,0,1,1.23-1c1-.37,2-.58,3-.88a3.87,3.87,0,0,0,1.31-.52c1.55-1.2,3.12-2.4,4.57-3.71a11.57,11.57,0,0,0,1.53-2.18l-1.28-1a1.89,1.89,0,0,0-.33.54c-.26,1.39-1.35,2.09-2.41,2.74s-1.74.3-2.21-.81a3.33,3.33,0,0,0-.67-1.23,14.8,14.8,0,0,0-7-3.79c-.67-.13-1.32-.25-1.51-1a1.82,1.82,0,0,1,.5-2,14.06,14.06,0,0,0,1.57-1.93l1.86-2.43c-.25-.57-.56-1.25-.94-2.13-.71,1.2-1.27,2.23-1.91,3.22-2.22,3.47-3.26,7.12-2.14,11.25a3.46,3.46,0,0,1-.46,2.2c-.9,1.75-1.93,3.43-2.92,5.12a26.66,26.66,0,0,1-2.73,4.38,19.44,19.44,0,0,0-2.25,3.4,6.16,6.16,0,0,0,.76.86C545.89,476.82,546.75,477.42,547.55,478ZM483.3,503.88c3.36,0,5.19-2.44,4.25-5.12a24.71,24.71,0,0,0-8.79-11.66,5.09,5.09,0,0,0-4.21-1.13c-2.5.53-4,2.49-3.24,4.95,1.11,3.43,2.51,6.7,5.48,9a13.66,13.66,0,0,1,1.23,1.29A10,10,0,0,0,483.3,503.88Zm93.16-86a5.88,5.88,0,0,1,4.66.75l2.68,1.78a25.15,25.15,0,0,1,6.05,6c.9,1.18.77,1.63-.25,2.74-.24.26-.42.56-.67.89l1.29,1.39c.74-1.06,1.47-2,2.07-3s1.13-2.2,1.79-3.5c-2.94-2.49-5.79-5-8.76-7.38a19.43,19.43,0,0,0-6.13-3.21c-.63-.2-1.15-.24-1.59.34l-4.42,5.85,2.4.47ZM309.84,468.44l-.25-.21a5.13,5.13,0,0,0-.66.56c-3.57,4.19-6.9,8.54-9,13.68a5,5,0,0,0-.13,2.77c.27,1.23.95,1.43,2.15,1,.87-.31,1.77-.58,2.71-.88.84-3.42,3.26-6,4.91-9.07-1.93-1.07-2.51-2.65-1.62-4.48C308.52,470.65,309.21,469.56,309.84,468.44Zm102.37,20.65a14.4,14.4,0,0,0,0,1.61,6.48,6.48,0,0,0,.33,1.56c.54,1.46,1.55,1.81,2.72.79a10,10,0,0,0,2-2.51,17.09,17.09,0,0,0,2-7.9,8.39,8.39,0,0,0-1.83-5.68c-.77-1-1.45-1-2.14,0a19.27,19.27,0,0,0-1.47,3A23,23,0,0,0,412.21,489.09ZM480,484a81.79,81.79,0,0,1,6.21,6.48,77.68,77.68,0,0,1,4.68,7.58c.8-.67,1.63-1.35,2.44-2l2.64-2.22c-5.62-.73-11.87-6-12-13Zm15,7.05c1.26-2.09.71-4.43-1.69-7-2-2.23-4.85-3.62-7-2A13.62,13.62,0,0,0,495,491.06Zm-179.65-12.2-2.94-1.72a10.74,10.74,0,0,0-1,1.23,56.69,56.69,0,0,0-2.79,5,22.36,22.36,0,0,0-1.54,4.73c-.33,1.63.35,2.19,2,2a4,4,0,0,0,.73-.2C310.94,485.88,313.46,482.55,315.38,478.86ZM475,509.51c.66-4.27-5-10.36-8.06-8.77a7.68,7.68,0,0,0,.26,1.44,18.13,18.13,0,0,0,1.24,2.77,11.38,11.38,0,0,0,4.08,4.41A2.37,2.37,0,0,0,475,509.51ZM423,492.36l3.85-.69c0-2.16,0-4.19,0-6.21a1.6,1.6,0,0,0-.47-1.11c-.94-.68-2-1.24-3.39-2.12C423,485.84,423,489,423,492.36Zm41.24-183.14c-1-2.26-2.93-2.89-5.19-3-.87,0-1.66,0-2,1.06-.42,1.34-.18,2.85.6,3.46,1,.83,2.07,1.68,3,2.45Zm-35.1,175.55v8.82l3.48-.47v-6.69Zm-15-150.72c-1.84,4.8-2.56,9.68-3.59,14.54l1.84,1.05c.25-2.94.6-5.71.71-8.49a3.84,3.84,0,0,1,2.92-4C415.53,336.06,415.58,334.82,414.13,334.05Zm143,119.1c1.48.86,2.82,1.52,4,2.37s2.27,1.87,3.55,3l1.29-2.24c-1.42-.9-2.67-1.8-4-2.53a6.47,6.47,0,0,1-3.2-3Zm63.72,88.17c-1.11-3.8-4.68-8-7.64-7.29C614.35,536.55,617.85,539.93,620.86,541.32ZM577.94,421.8l9.35,6.48.36-.26a4,4,0,0,0-.54-1.29c-1.23-1.21-2.49-2.4-3.83-3.48a27.9,27.9,0,0,0-3.15-2.05C579,420.52,578.56,420.65,577.94,421.8Zm-161-77.2a11.69,11.69,0,0,0-.65-5.46c-1.48,1.64-1.77,4.86-.59,6.38ZM438.2,494.51c-1.13-1.79-2.12-3.34-3.24-5.09-.58,2.19.65,3.59,1.21,5.25ZM319.25,481.85l1-2.13-.93-1.46a5.54,5.54,0,0,0-1.81,3.14Zm3.75-3-.94-2.55-2.16.84Zm218.27-2.74-.31.4c.21,1.13,1.2,1,2,1.18l.21-.31ZM544,481.6l.28-.28-.83-.69-.18.19Zm-2.6-2.62-.17.21.9.73.19-.24Z"/><path d="M646.78,438.39a3.75,3.75,0,0,1,2.69-1.4c3.32-.3,6.65-.53,10-.77,2.84-.21,5.68-.45,8.52-.57,1.35-.06,2.72.25,4.07.19,3-.12,5.88-.46,8.83-.55s6.07,0,9.1.06c2.13,0,4.26-.12,6.38,0s4.46.42,6.7.61c.92.08,1.85,0,2.78.07s1.65.14,2.47.2,1,.49,1.17,1.27a5.11,5.11,0,0,1-2.94.22c-2.85-.19-5.69-.59-8.55-.71-4.92-.2-9.85-.17-14.78-.39-3.49-.15-7,.27-10.45.33-5.85.11-11.69.47-17.53.82-1.72.1-3.41.52-5.13.76-1.05.14-2.11.21-3.17.31Z"/><path d="M556.68,329.56c-5,1.39-9.91,1.4-14.77,1.74-2.07.14-4.15,0-6.22.07-3.16.1-6.32.26-9.48.4q-3.4.15-6.79.34c-4.46.27-8.92.58-13.39.83-1.43.08-2.86,0-4.29,0-.13,0-.26-.21-.47-.4a6.32,6.32,0,0,1,3.23-.93c4.82-.31,9.63-.7,14.45-1,2.38-.15,4.77-.22,7.16-.33,2.8-.13,5.59-.3,8.39-.4a42.87,42.87,0,0,1,7.6,0,15,15,0,0,0,3.18-.28c3.54-.33,7.11.43,10.64-.38C556.09,329.2,556.31,329.4,556.68,329.56Z"/><path d="M672.54,607.7c4.37-1,8.15-3.05,10.2-7.13,1.92-3.81,3.07-7.88,1.48-12.35.52,0,1.1-.09,1.27.12,1,1.21,2.28,2.31,2.1,4.13-.44,4.38-1.17,8.66-4.33,12a8.26,8.26,0,0,1-1.3,1.21c-2.18,1.48-4.39,2.88-7.08,3.26C673.56,609.18,673.35,609.12,672.54,607.7Z"/><path d="M402.31,578a34.46,34.46,0,0,1-2.52-3A30.43,30.43,0,0,1,395,564.09c-.43-2.28-1.22-4.49-1.74-6.75a17.52,17.52,0,0,1-.22-8.51,6.74,6.74,0,0,1,1.26-2.32c.23-.31.86-.32,1.32-.47.09.37.18.51.14.59-1.37,3.3-1,6.62-.47,10A62.08,62.08,0,0,0,399,570.11a72.08,72.08,0,0,0,3.35,6.47C402.61,577,403.09,577.32,402.31,578Z"/><path d="M670.15,602.51a9.89,9.89,0,0,0,2.26-1.42,13.12,13.12,0,0,0,2.22-3.17,27.16,27.16,0,0,0,2.27-8.59,15.77,15.77,0,0,0-.18-2.76l.89-.43a2.48,2.48,0,0,1,.42.34,7.63,7.63,0,0,1,1,6.35,21.69,21.69,0,0,1-3.32,8.6,5.24,5.24,0,0,1-3.94,2.15A1.32,1.32,0,0,1,670.15,602.51Z"/><path d="M319.45,571.5c.89-1.22-.11-3,1.3-4a4.36,4.36,0,0,1,3,2.59c1,2.16,2,4.31,3,6.46.22.47.41,1-.17,1.22a1.52,1.52,0,0,1-1.28-.22,11.24,11.24,0,0,1-2.52-4.06c-.38-.9-.88-1.75-1.41-2.78-.92,1.35.38,3.25-1.54,4.08l-1.21-2.13c-.32,1.72-.61,3.25-.93,4.77,0,0-.31,0-.6.08a18.4,18.4,0,0,1,.58-7.3C318.92,570,318.68,571.25,319.45,571.5Z"/><path d="M603.76,352.22c-3.85.28-7.71.52-11.55.86-5.59.48-11.17,1-16.76,1.57-1.13.11-2.25.28-3.38.36a2,2,0,0,1-2.2-1.19,11.12,11.12,0,0,1,1.73-.45c2.08-.19,4.17-.34,6.26-.47,3.75-.25,7.5-.49,11.25-.69,3.5-.2,7-.37,10.49-.49,1.38-.05,2.77.06,4.16.1Z"/><path d="M353.88,574.33c-1.4,1.08-1.76,3.15-4.1,2.74.09-.48,0-1,.28-1.31a36.39,36.39,0,0,1,3.33-3.47c.87-.77,1.86-.34,2.16.79.2.74.36,1.49.53,2.2a9.06,9.06,0,0,1,2.49-.6c.38,0,.87.77,1.07,1.29.52,1.39.06,2.45-1.13,2.75-.2-.64-.4-1.3-.59-1.94-1.21,0-1.15,2.34-2.92,1.22C354.68,576.94,354.3,575.72,353.88,574.33Z"/><path d="M339.44,577.77c-1.33,1.21-.77,3.71-3,4.44-.12-.27-.34-.53-.28-.66.89-2.08,1.82-4.14,2.75-6.2.26-.56.66-1.23,1.31-.93a2.81,2.81,0,0,1,1.12,1.45,6.23,6.23,0,0,1,.15,1.83c.52-.44.84-.75,1.2-1,.94-.65,1.72-.37,2,.75a22.08,22.08,0,0,1,.58,2.8.71.71,0,0,1-1.31.51,16.38,16.38,0,0,1-1-1.85C341.31,580.6,340.54,579.65,339.44,577.77Z"/><path d="M516.6,335.75a5.66,5.66,0,0,1,3.7-1.24c2.19-.08,4.39,0,6.58,0a93.91,93.91,0,0,0,11.25-.19,43.71,43.71,0,0,1,6.57,0,16.37,16.37,0,0,1-4.65.79q-6.34.31-12.69.53c-3.16.11-6.32.16-9.48.22C517.6,335.87,517.32,335.81,516.6,335.75Z"/><path d="M396.69,576.63c1.61,2.48,3.13,4.88,4.73,7.24.73,1.08,1.66,2,2.41,3.09a25.59,25.59,0,0,1,1.38,2.39l-.31.27c-.81-.71-1.67-1.37-2.41-2.15a37.88,37.88,0,0,1-6.28-8.79,4.18,4.18,0,0,1-.41-1.17C395.7,576.92,396,576.62,396.69,576.63Z"/><path d="M605.43,408.89c.51,1.9-1.33,8.48-3.22,11-.53.72-.88,1.95-2.47,1.59a5.73,5.73,0,0,1,.42-1.27,40.86,40.86,0,0,0,5.13-11.34S605.39,408.9,605.43,408.89Z"/><path d="M687.94,584.24h1.45c.09.09.21.16.24.26.65,1.79,1.48,3.53,1.43,5.5a2.52,2.52,0,0,1-.2,1.21,1.21,1.21,0,0,1-1,.52c-.27,0-.64-.49-.69-.81-.29-1.57-.46-3.17-.72-4.75C688.37,585.55,688.14,585,687.94,584.24Z"/><path d="M408.11,575.49c-.32-.11-.78-.11-.94-.33a15.92,15.92,0,0,1-2.86-4.89c-.23-.77.14-1.11.74-1.48,1.54.4,1.64,1.84,2.11,3s.89,2.25,1.34,3.37Z"/><path d="M667.65,443.92l.1,1.32c-2.27,0-4.46,0-6.64,0-.69,0-1.06-.42-1.05-1.31Z"/><path d="M329.07,571.66c-.81.44-1.31.24-1.59-.56l-1.64.44a2.23,2.23,0,0,1,.94-2.73,2,2,0,0,1,1.8.11C329.63,569.61,329.11,570.72,329.07,571.66Z"/><path d="M600.75,410.12c.23.47.45.7.41.86-.39,1.55-.8,3.09-1.25,4.62a1,1,0,0,1-1.42.61.66.66,0,0,1-.23-.62A30.94,30.94,0,0,1,600.75,410.12Z"/><path d="M422.62,437.91c.42.32.93.51,1,.78a11.19,11.19,0,0,1,.11,2.65c0,.27-.47.66-.79.74a.77.77,0,0,1-1-.75A5.92,5.92,0,0,1,422.62,437.91Z"/><path d="M421.77,434.77c.8.59,1,1.08.51,1.77a14.76,14.76,0,0,0-.87,1.35.78.78,0,0,1-1.19.36.81.81,0,0,1-.25-1.35C420.51,436.21,421.11,435.55,421.77,434.77Z"/><path d="M332,584.9c-.32-.93-.58-1.64-.82-2.35a.83.83,0,0,1,.68-1.19.84.84,0,0,1,1.11.82C333,583.06,333.11,584.05,332,584.9Z"/><path d="M665.67,344.39l-.49-1.09.22-.15a2.87,2.87,0,0,1,.46.53,2,2,0,0,1,.1.61Z"/><path d="M603.59,645c0-.47-.07-1-.1-1.43h.18V645Z"/><path d="M824.54,572.36c-.08,0-.2.13-.23.11s-.12-.17-.18-.25.18-.11.23-.09S824.48,572.28,824.54,572.36Z"/><path class="cls-8" d="M237.32,702.07h0Z"/><path class="cls-8" d="M359,702.56h0Z"/><path class="cls-8" d="M149.22,701.56h1.65v.05h-1.48Z"/><path class="cls-8" d="M378.73,702.61h-1.39v0h1.42Z"/><path class="cls-8" d="M371.57,702.56H373v0h-1.38Z"/><path class="cls-8" d="M381.5,702.61l.76-.11v.11Z"/><path class="cls-9" d="M412.08,526.18l-5-.59a9,9,0,0,0,1.1-1.82c.8-2.7,3-4,5.27-5a19.86,19.86,0,0,1,3.82-.88,28.34,28.34,0,0,1,9.63-.25,31.34,31.34,0,0,1,10.82,3.06c2.5,1.3,5.08,2.46,7.42,4,3.23,2.13,6.6,4,9.68,6.43s6.36,4.22,9.56,6.3a46.11,46.11,0,0,1,7.44,5.57c2.07,2,4.49,3.71,6.7,5.61a67.91,67.91,0,0,1,6.21,5.64c3.93,4.33,8.51,8.09,11.74,13a19.92,19.92,0,0,1,3.35,9.54,8,8,0,0,1-2.17,5.55,13.55,13.55,0,0,1-10,5.22,4.34,4.34,0,0,0-.89.08,8.73,8.73,0,0,1-6.4-.91q-3.94-1.9-7.93-3.69a24.6,24.6,0,0,0-3.52-1.26,4.37,4.37,0,0,1-3.09-3.18c-.38-1.15-1-1.72-1.9-1.41-1.61.54-3.14,0-4.56-.38a104.42,104.42,0,0,1-17-6c-3.15-1.4-6.38-2.63-9.52-4.06a52.39,52.39,0,0,1-5.32-2.86c-3-1.8-6-3.56-8.9-5.57-3.55-2.5-7.2-5-10-8.26a107.71,107.71,0,0,1-6.91-9.13,8.42,8.42,0,0,1-1.56-5.24,6.39,6.39,0,0,1,4.91-6.12,10.09,10.09,0,0,0,2-.77,2.23,2.23,0,0,1,2.66.24c.8.6,1.62,1.18,2.45,1.74a1.88,1.88,0,0,0,1,.4c.5,0,1.18-.13,1.4-.45s0-1-.29-1.39a3.89,3.89,0,0,0-1.25-1C412.1,527.9,411.55,527.36,412.08,526.18Zm66.76,35.18a7.46,7.46,0,0,0-2.09,0,10.12,10.12,0,0,0-7.13,9.34,1,1,0,0,0,.83,1.2,1.13,1.13,0,0,0,1.41-.8,11.64,11.64,0,0,0,.58-1.88,6.68,6.68,0,0,1,3.69-5.13A4.64,4.64,0,0,0,478.84,561.36Zm-10.67,4.24c-.58.38-.87.47-1,.67-.6,1-1.19,1.92-1.7,2.93a13.55,13.55,0,0,0-.89,2.32.85.85,0,0,0,.28.74.78.78,0,0,0,.74-.2A14.43,14.43,0,0,0,468.17,565.6Zm18.71,5.51c.14,1.29.26,2.58.43,3.86a2.7,2.7,0,0,0,.42,1.15.89.89,0,0,0,.77.23.85.85,0,0,0,.57-.55,6.93,6.93,0,0,0-1-4.59A.69.69,0,0,0,486.88,571.11Z"/><path class="cls-9" d="M643,621.28c-.27,1.76-1,2.42-3.13,2.87a11.78,11.78,0,0,1-2.13.24,36.52,36.52,0,0,1-14.87-2.76A22.45,22.45,0,0,1,613,614a38,38,0,0,1-5.26-9.7c-1-2.58-1.87-5.17-2.71-7.78-.89-2.78-1.57-5.65-2.56-8.39a50.62,50.62,0,0,0-3.37-7.69c-.92-1.64-.9-3.43-1.54-5.09-.22-.56.19-1,.63-1.35a21.4,21.4,0,0,1,7.23-4.24c3-1.08,6.13-2,9.21-2.92a25.82,25.82,0,0,0,10.12-6,9.33,9.33,0,0,0,2.49-3.63c.64-1.71,1.57-3.3,2.47-5.13A18.72,18.72,0,0,1,631,553.7c1.71,2.5,3.34,5.07,5.1,7.53,1.43,2,3.08,3.81,4.51,5.79a110.57,110.57,0,0,1,8.46,13.49c3.06,5.85,5.17,12.06,7.49,18.19a13.08,13.08,0,0,1,.79,4.2c.1,3.22.48,6.46-.53,9.63a7.42,7.42,0,0,1-3,4c-2.84,2-6,2.29-9.25,2a5.29,5.29,0,0,0-.88-.11,3,3,0,0,1-3.09-1.74,1.29,1.29,0,0,0-1.61-.77c-.82.16-1.14.6-.9,1.43a4.65,4.65,0,0,0,3.07,3.44C641.78,621,642.42,621.12,643,621.28Zm-29.4-51.58c-2.18.12-2.68.72-2.28,2.52a18.38,18.38,0,0,0,2.82,6.71,9.22,9.22,0,0,0,2.19,2,1.91,1.91,0,0,0,2.34-.26,1.82,1.82,0,0,0,.46-2,18,18,0,0,1-.42-3,6.45,6.45,0,0,0-2-4.29A4.58,4.58,0,0,0,613.64,569.7ZM635,609c-1.06.09-1,.74-.74,1.39.63,1.4,1.29,2.79,2,4.13a1.38,1.38,0,0,0,1.17.45c.25,0,.57-.6.6-.95a2,2,0,0,0-.4-1.14C636.78,611.53,635.86,610.25,635,609Zm-15.46-25.68a1.17,1.17,0,0,0,1.87-.68,5.54,5.54,0,0,0,0-3.85c-.28-.72-.79-1.2-1.52-.74C619.76,579.78,619.64,581.41,619.51,583.28Zm10.76,22.42c1.61.65,3.32-.2,3.34-1.59C632.17,603.85,630.92,604,630.27,605.7Zm-9.53-20.63c.55.19,1,.31,1.14-.36,0-.13-.23-.44-.39-.46C620.84,584.14,620.76,584.57,620.74,585.07Z"/><path class="cls-2" d="M556.94,439.8c-.44.51-1,.85-1,1.16,0,1.21-.71,2-1.32,2.85-.43.61-.84,1.24-1.34,2-.15-.33-.28-.48-.28-.63,0-2.46-1.07-4.65-2-6.79a10.57,10.57,0,0,0-2.85-3.38,67.3,67.3,0,0,0-6.6-5.08,77.29,77.29,0,0,0-7.29-4.19,49.75,49.75,0,0,0-10-4.29c-4.21-1.11-8.39-2.38-12.78-2.67a19.81,19.81,0,0,0-7.1.67c-1.18.35-2.48.32-3.69.59-3.32.75-6.6,1.65-9.92,2.33-3.91.81-7.85,1.48-11.78,2.16a29.93,29.93,0,0,1-5.14.62,56.47,56.47,0,0,1-6.19-.64c-1.39-.18-2.78-.47-4.44-.76a16,16,0,0,1-1.81-9.53c2.85-.89,5.56-1.78,8.3-2.6,3.47-1,6.95-2,10.42-3.05,1.65-.49,3.29-1.05,4.94-1.56,2.78-.87,5.56-1.8,8.37-2.54,4.6-1.22,9.23-2.33,13.85-3.46a14.54,14.54,0,0,1,8.43.69,66.87,66.87,0,0,1,10.83,5c2.26,1.29,4.69,2.26,7,3.51,1.65.91,3.18,2,4.74,3.07,2.71,1.83,5.4,3.7,8.11,5.53,1.62,1.09,3.27,2.14,4.92,3.19a6.57,6.57,0,0,0,1.09.63,37.31,37.31,0,0,0,3.76,1.57,11.68,11.68,0,0,0,6.37.08,53.16,53.16,0,0,1,7-1.4c2.56-.25,4.94.73,7.21,1.87a47.8,47.8,0,0,1,7.91,5.5c1.42,1.13,2.57,2.72,4.57,3a14.9,14.9,0,0,1,1.46,2.56c.29.82-.39,1.48-1.06,1.91-1.06.68-2.18,1.26-3.28,1.87.07,1.1.14,2.05.2,3,.09,1.53,0,1.67-1.45,1.8l-1.47.16c-.91-.59-1.71-1.17-2.57-1.63-.3-.16-1-.15-1.12.05a1.55,1.55,0,0,0-.16,1.26,7.52,7.52,0,0,0,1,1.45,17.67,17.67,0,0,1,1.49,2.23,2.17,2.17,0,0,1-2,3.28,11.91,11.91,0,0,1-2.65-.31c-1.52-.3-2.35.47-2,2a7.75,7.75,0,0,0,.86,1.76,5.46,5.46,0,0,1,.87,3.93c-.21,1-.71,1.36-1.64.88s-1.64-1-2.45-1.49c-3.51-2.27-7-4.52-10.49-6.86a5.34,5.34,0,0,1-1.84-2.11c-1.08-2.45-2-5-3-7.48A9.31,9.31,0,0,0,556.94,439.8Zm14-12.46c-.29-.17-.58-.47-.89-.49-2-.09-4.08-.58-6,.58a3.61,3.61,0,0,1-3.54.27,5.08,5.08,0,0,0-1.91-.25c-.65,0-.73.46-.62,1,2,1.1,3.92,1.9,6.18.53a6.11,6.11,0,0,1,2.59-.57,19.53,19.53,0,0,1,2.86.05C570.48,428.54,571,428.28,571,427.34Zm-16.59.26c.37-1.6.18-2.19-.75-2.84-1.34-.95-2.18-1-3.23-.3-.53.36-.93.75-.32,1.56C551.89,425.1,552.94,426.65,554.38,427.6Zm22.73,12.32c-.54.17-1,.19-1.06.35a21.63,21.63,0,0,0-1,3.52c-.08.55.57.81,1,.51a2.08,2.08,0,0,0,.95-1.18A22.05,22.05,0,0,0,577.11,439.92Zm-3.38,6.37c-2.62,0-3.32.46-3.21,1.91C572.9,448.46,573.91,447.9,573.73,446.29ZM507,403.54a4,4,0,0,0,5-.38C509.42,402.74,508.72,402.78,507,403.54Zm74.66,31.3c-.25-.59-.56-1-1.22-.59a4.47,4.47,0,0,0-1.17,1c-.3.43-.54,1.05.07,1.44s1,.08,1.37-.43S581.29,435.4,581.65,434.84Z"/><path class="cls-10" d="M547,494.44A53.12,53.12,0,0,1,544.76,514c-1,2.95-2.49,5.63-5.4,7.09a13.88,13.88,0,0,1-3.93,1.13c-3.47.56-6.94,1.22-10.44,1.44a53.09,53.09,0,0,1-11.41-.09,19.23,19.23,0,0,0-2.55,0c.47-1.12.91-2.13,1.31-3.15.68-1.72.63-1.69-.87-3-.46-.42-.58-1.21-1-1.75-1.24-1.76-2.66-3.43-2.16-5.94h-1.89a38.06,38.06,0,0,0,1.49,6c.38.94,1.68,1.5,2.74,2.38,0-.11.05.16-.05.36q-9.56,19.11-19.15,38.25c-2.51-1.55-4-4.27-6.46-5.8s-4.81-3-7.22-4.51c1-2.84,1.87-5.85,3-8.78,1.36-3.56,2.92-7,4.34-10.57s2.77-7.39,4.33-11c1.68-3.89,3.61-7.67,5.38-11.53a14.2,14.2,0,0,1,12-8.21c2.78-.42,5.54-.94,8.32-1.33,2-.27,3.92-.35,5.87-.57,6.82-.74,13.65-.14,20.47-.18C543.35,494.08,545.19,494.32,547,494.44Zm-66.07,49.79a5.87,5.87,0,0,0,2.11,2.06c1.06.76,2.09,1.59,3.09,2.43s2.16,1.89,3.25,2.82a1.23,1.23,0,0,0,1.77.09c.51-.48.29-1.15-.49-1.77l-7.7-6.12C482.09,543.05,482,543.08,480.93,544.23ZM494,513.31c1.23.29,1.42-.58,1.74-1.26,1.11-2.32,2.11-4.69,3.33-6.94.66-1.22.61-2.11-.4-3C497.3,503.1,494.38,510.05,494,513.31ZM512.29,512c.11-.53.24-.78.17-.87-.26-.34-.54-.8-.9-.91-.59-.18-.82.27-.86.83a5.74,5.74,0,0,0-.12,1.58,8.68,8.68,0,0,0,.92,2.23,1,1,0,0,0,.94.15,1.09,1.09,0,0,0,.48-.84,4.13,4.13,0,0,0-.34-1.18C512.45,512.51,512.33,512.07,512.29,512Zm-3.13,8c-.69-.56-1.33-1.15-2-1.62a1,1,0,0,0-1,0c-.23.27-.43.85-.28,1.1a2.52,2.52,0,0,0,1.21,1.14C507.71,520.8,508.59,521.31,509.16,520Z"/><path class="cls-10" d="M598.2,539.12a23.61,23.61,0,0,1,2.12,12c-4.84,1.16-9.47,2.48-14.33,2.85-3.09.23-6.14.91-9.2,1.39a90.1,90.1,0,0,1-14.31.69c-2.51,0-5,0-7.53-.14-3.57-.23-7.13-.62-10.69-.95-1.85-.17-3.71-.22-5.52-.57-3.32-.64-6-2.55-8.67-4.51-4-3-8-6.15-11.79-9.37a55.1,55.1,0,0,1-8.2-8,3,3,0,0,0-1-.64c-.51-.28-1-.53-1.58-.81a13.73,13.73,0,0,1,2.66-5.48c9.26,2,18.46.85,27.78-.84.11,1.35,1.16,1.83,2.24,2.39a27.4,27.4,0,0,1,3,2c1.81,1.27,3.52,2.71,5.43,3.81,3.41,2,6.94,3.68,11.08,3.68,2.44,0,4.88.46,7.32.69,2.79.25,5.59.46,8.38.73,4.34.42,8.68.89,13,1.3,2.39.22,4.77.45,7.17.52A10.09,10.09,0,0,0,598.2,539.12Zm-52.94-2.3c1.13,2.42,3.3,3.22,5.53,3.91a1.74,1.74,0,0,0,2.2-.7c-.68-.37-1.27-.71-1.88-1-1.57-.79-3.27-1.33-4.57-2.61C546.1,536,545.68,536.25,545.26,536.82Zm-10.14,13.11c-.25,1.62-.17,1.84,1,2.25a12,12,0,0,0,2.39.66,1.64,1.64,0,0,0,2-1.16C538.79,550.9,537.13,549.91,535.12,549.93Z"/><path class="cls-9" d="M585.14,557.69l14-3c1.12.9,1.28.85,2.29-.49a5.61,5.61,0,0,0,1.15-3.49,38.33,38.33,0,0,0-1.32-10.29,10.17,10.17,0,0,0-1.74-2.88,1.16,1.16,0,0,0-.78-.32c-2.78-.39-5.55-.74-8.32-1.12-.65-.08-1.28-.21-2.16-.36a8.84,8.84,0,0,1,.73-2.23,12,12,0,0,1,10.33-5.48,9.52,9.52,0,0,1,6.71,3.06c1.86,1.86,3.64,3.79,5.37,5.77a28.76,28.76,0,0,0,9.55,7.66c2.57,1.17,4.51,3,5.08,5.85a3.83,3.83,0,0,1,0,1.93,40.1,40.1,0,0,1-2.09,5.12c-.93,1.8-2.72,2.8-4.3,3.94-3.22,2.32-7,3.29-10.74,4.32a37.11,37.11,0,0,0-10.56,4.77c-2,1.31-3.84,2.82-5.76,4.22a5.61,5.61,0,0,1-1.21.74,2,2,0,0,1-2.84-1,15.73,15.73,0,0,1-1.1-3.93c-.36-2.54-.4-5.13-.82-7.66A43.71,43.71,0,0,0,585.14,557.69Z"/><path class="cls-11" d="M337.66,464.71l7.19-1.73a11.77,11.77,0,0,1,.14,1.25q0,4.39-.11,8.79a3.77,3.77,0,0,1,0,.89,19.66,19.66,0,0,0-.05,7.49,22,22,0,0,1,0,3.54c-.14,3.82.59,7.59.24,11.45-.31,3.38.06,6.81,0,10.22,0,4.12-.2,8.24-.29,12.36-.07,3.51-.12,7-.17,10.55q-.11,8.15-.19,16.3c-.05,4.43-.11,8.86-.1,13.29,0,1.42.29,2.85.3,4.27a6.66,6.66,0,0,1-.43,2.43c-.67,1.72-1.47,3.39-2.27,5.19a8.19,8.19,0,0,1-2.24-5.93c.11-1.31.33-2.62.34-3.93a8.27,8.27,0,0,0-.5-2.26.64.64,0,0,0-.55-.33,1.42,1.42,0,0,0-.63.52,1,1,0,0,0-.07.52c.07,3.76-1.22,7.24-2.21,10.83-.86-1.94.34-4.47-2-6.36-.11,2.17-.19,4-.28,5.83-1-1.5-2.14-2.91-1.11-4.73.22-3.56.62-7.12.62-10.68,0-6.21-.45-12.42-.39-18.63,0-4.35.65-8.69.89-13,.13-2.38-.11-4.77,0-7.14.12-2.17-.31-4.35.34-6.53a11.94,11.94,0,0,0,.09-3.92c-.21-3.68-.48-7.35-.72-11-.11-1.66-.2-3.33-.33-5a4.57,4.57,0,0,0-.74-2.7c-.58-.74-.24-1.59.18-2.35.62-1.1,1.27-2.18,1.84-3.29a23.52,23.52,0,0,0,2.79-9.92c.07-1.71,0-3.41.06-5.12A4.26,4.26,0,0,1,337.66,464.71Zm-2.21,90.06h.39v-3c0-1.08,0-2.16.05-3.23.07-1.66.25-3.32.28-5,.05-3.82-.48-7.65.56-11.42a4.84,4.84,0,0,0,0-2,15.39,15.39,0,0,1,0-6.55,4.29,4.29,0,0,0,0-.72c.16-2.47-.09-4.94,0-7.42.23-4.57.26-9.15.34-13.73.05-2.69.05-5.39.06-8.08s-.73-5.38-.35-8.14a46.75,46.75,0,0,0,.06-6.17l-1-.4c-.07,1-.16,1.81-.16,2.62,0,5.3.14,10.59.14,15.88,0,2.19-.32,4.37-.32,6.55,0,2.48-.23,5-.18,7.44.06,3.18-.62,6.35.16,9.55a12.49,12.49,0,0,1-.07,3.9c-.06.67-.45,1.31-.49,2-.11,1.88.4,3.75.05,5.66a8.61,8.61,0,0,0-.13,2.75,36.68,36.68,0,0,1,.36,6.35c0,2.69-.12,5.37-.25,8.06A16,16,0,0,0,335.45,554.77Zm7.17-39-.46-.06c-.18,2.33-.41,4.67-.5,7-.06,1.72.11,3.45.1,5.18q-.06,7.57-.21,15.17c0,1.31-.24,2.61-.28,3.92,0,1.92,0,3.85,0,5.77a1.43,1.43,0,0,0,.66-1c.23-1.34.43-2.69.63-4a46.75,46.75,0,0,0,.69-5.09c.08-2.56-.1-5.13-.13-7.69,0-.77.15-1.55.14-2.32,0-3-.43-6-.11-8.86S342.77,518.41,342.62,515.76ZM339.36,523l-.6,0a8.12,8.12,0,0,0-.35,2.35,20.25,20.25,0,0,1,0,4.92c-.18,2,0,4-.07,6-.1,2.6-.32,5.21-.44,7.81s-.23,5-.25,7.51a11.26,11.26,0,0,0,.45,2.24l.42,0c.39-3.39.75-6.78,1.19-10.16s-.16-6.9,0-10.34A57.72,57.72,0,0,0,339.36,523Zm2.24-31.81.53,0a24.21,24.21,0,0,0,.67-6.83,23,23,0,0,1,.33-6.41,4.55,4.55,0,0,0,.07-1c-.07-2.67-.79-5.3-.35-8,0-.18-.3-.43-.46-.64-.26.25-.74.5-.75.76,0,1.72,0,3.45.06,5.18,0,1.42.47,2.94.13,4.26-.74,2.84-.37,5.68-.48,8.52C341.3,488.35,341.51,489.76,341.6,491.17ZM339.15,521c1.08-9.36-.12-18.62,0-27.92-1.07,0-1.12.62-1.1,1.25,0,1.89.1,3.78.12,5.68,0,.82-.16,1.65-.1,2.46.16,2.06.55,4.12.58,6.18a21.5,21.5,0,0,0,.3,5.19,2,2,0,0,1-.1.88c-.46,1.7,0,3.43-.13,5.14C338.7,520.24,339,520.63,339.15,521Zm.85-48.69c-1.47.75-1.55.78-1.54,2.09,0,1.73.16,3.45.24,5.17.13,2.73-.35,5.48.4,8.23a4.77,4.77,0,0,0,.64-1.89c.05-2.51,0-5,0-7.53,0-1.06,0-2.12,0-3.18S339.92,473.28,340,472.32Zm2.26,30.87H342v3.37h.21Z"/><path class="cls-8" d="M519.57,301.61a5,5,0,0,1-2.05,3.78c-4.9,3.95-10.62,5.88-16.73,6.81-4.72.71-9.46,1.27-14.2,1.87-1.65.22-3.32.26-4.95.58s-3.18.87-5.06,1.4c.37.45.55.86.83.95a5.49,5.49,0,0,0,1.91.33c2.73-.11,5.47-.26,8.19-.47,2.38-.19,4.75-.51,7.13-.75,1.23-.12,2.46-.18,3.78-.27a4,4,0,0,1-2.15,2.82,20.63,20.63,0,0,1-9.5,2.86c-5.31.32-10.63.5-15.95.71-1.48,0-3,0-4.43,0-.26,1.13.28,1.52,1,1.64,1.94.3,3.88.55,5.83.81.47.06.94.06,1.71.11-.34.59-.48,1.17-.85,1.41a10.32,10.32,0,0,1-2.95,1.59c-2.68.68-5.43.38-8.14.17a5.86,5.86,0,0,1-1.64-.8,8.91,8.91,0,0,0-.44,1.53,4,4,0,0,1-3.35,3.59,4.76,4.76,0,0,1-4.54-2,2.29,2.29,0,0,1-.29-1.68,4.53,4.53,0,0,1,4-3.55c1.39,0,1.91-.64,2.41-1.88a64.42,64.42,0,0,1,3.59-7.61c1.7-3,4.59-4.86,7.65-6.28a39.2,39.2,0,0,1,11.38-3c3.31-.46,6.6-1.06,9.92-1.48a54.82,54.82,0,0,0,13.73-3.88,45.46,45.46,0,0,0,10-5.48c2.69-2,5.44-3.92,8-6.07a15.94,15.94,0,0,1,6.63-3.3,8.74,8.74,0,0,1,2.27.07c.29,2.67-1,4.33-2.75,5.67a60,60,0,0,1-11.75,6.79q-4.74,2.1-9.58,4c-2.83,1.1-5.72,2.05-8.58,3.08-1.4.51-2.79,1.05-4.19,1.58-.49.19-.93.5-.66,1.05a1.25,1.25,0,0,0,.93.57,12.56,12.56,0,0,0,2.67-.14,54.53,54.53,0,0,0,10.86-2.95,66.34,66.34,0,0,0,8.76-3.65A8.64,8.64,0,0,1,519.57,301.61Zm-40.64,9.54a7.15,7.15,0,0,0-6.51,3.77c-.45,1.11-.07,1.74,1.32,2.09a7.52,7.52,0,0,1,3.28-3.39C477.91,313.08,478.93,312.57,478.93,311.15Zm-21.77,15.74c-1.36,0-2.28.65-2.29,1.71a3.05,3.05,0,0,0,2.2,2.51c1.34,0,2.14-.64,2.13-1.81C459.19,327.81,458.44,326.92,457.16,326.89ZM493,307l-.4-.35c-2.64.15-4.68,1.58-6.72,3.13a1.07,1.07,0,0,0,1.61.69c1.47-.63,3-1.21,4.35-2C492.31,308.23,492.58,307.51,493,307Z"/><path class="cls-12" d="M426.87,311.4c1.81-.56,3.55-1,5.21-1.63a27.41,27.41,0,0,1,12-1.32,25.8,25.8,0,0,1,14.17,5.87c.42.33.87.62,1.45,1l-2.94,7.06c-.87.27-1.78.53-2.68.84-2.27.79-4.26,3.8-3.95,6a6.09,6.09,0,0,0,1.84,3.41c2.18,2.26,5.41,3.44,8.23,1.55,1.74-1.17,1.82-1.06,3.18-3.54h7.56a44.79,44.79,0,0,1,0,8.27c-3.33.54-5.58,2.62-7.63,5-1.56-1.24-3-2.47-4.53-3.57-2.32-1.68-4.7-3.26-7-4.9-.82-.58-1.61-1.22-2.43-1.81-1.56-1.09-3.2-2.09-4.68-3.28s-3.05-2.49-4.62-3.68a5.19,5.19,0,0,1-1.39-2c-1.53-3.5-3.64-6.36-7.72-7-1.75-.27-3.52-.4-5.42-.61l-.91,2.82-4.64-.87c.69-2.69-1.38-4.38-2.33-6.5a31.73,31.73,0,0,1-1.77-3.91,9.55,9.55,0,0,1,1.6-8.85,4,4,0,0,1,1.79,2.91c.64,2.79,1.29,5.59,1.66,8.42a30.15,30.15,0,0,1-.08,5.37c0,.64-.35,1.43.5,1.68s1.58.15,1.88-.86a1.17,1.17,0,0,1,.38-.6C425.4,315.43,426,313.36,426.87,311.4Zm6.18.92c.68.36,1.07.75,1.37.69,1.44-.29,2.87-.68,4.28-1.08.25-.07.43-.39.65-.6C437.24,311.27,435.06,310.19,433.05,312.32Z"/><path class="cls-8" d="M473.07,271.83a2.94,2.94,0,0,1,.27,3.8,11.55,11.55,0,0,1-4.41,4.79c-2.05,1.09-3.95,2.46-6,3.6-2.23,1.26-4.51,2.42-6.78,3.6s-4.5,2.41-6.82,3.47c-1,.44-.83,1.46-1.71,2,4.29.11,7.58-2.29,11.4-3.43a3,3,0,0,1-1,2.44c-2.18,2.54-5.06,4.16-7.73,6.06a37.46,37.46,0,0,0-3.19,2.58,6,6,0,0,0-.85,1.36,1.27,1.27,0,0,0,.27,1.9c.65.46,1.26.11,1.77-.36s.83-.87,1.28-1.26a4.36,4.36,0,0,1,.9-.45c.18,2-1.9,2.87-1.86,4.59-6.19-1-12.25-1.5-18.07,1.2-1.39-1.42-1.35-3.05-1.15-4.64a16.8,16.8,0,0,1,3.72-8.24c2.14-2.73,5-4.57,7.88-6.44s5.89-3.64,8.75-5.58a38.92,38.92,0,0,0,3.32-3,87.89,87.89,0,0,0,7-6.94,53.17,53.17,0,0,0,5.5-7.27c1.47-2.31,3.15-4.5,4.81-6.7a17.78,17.78,0,0,1,4.78-4.28,5.5,5.5,0,0,1,1.49-.58c1.8-.47,2.19-.16,2.15,1.64a10.46,10.46,0,0,1-1.94,5.69c-1.87,2.77-3.95,5.39-5.87,8.13s-3.81,5.64-5.72,8.46c-.13.2-.37.42-.35.61a2.36,2.36,0,0,0,.39,1.23c.14.15.83.06,1.05-.15,1-1,1.92-2,2.8-3C470.44,275.14,471.69,273.55,473.07,271.83Zm-14.46,9.3a28.54,28.54,0,0,1,2.5-1.72c2.29-1.24,3.15-3.33,3.36-5.71.06-.64.18-1.75-1.16-2.06a15.93,15.93,0,0,0-.83,1.72,13.91,13.91,0,0,1-3.61,6.05C458.24,280,458.45,280.47,458.61,281.13ZM438.74,305l.49,0c.08-.49.15-1,.23-1.47.49-2.87.83-5.8,3.57-7.64.2-.14.34-.8.24-.87-.27-.21-.83-.44-1-.3a9.43,9.43,0,0,0-2.07,1.91c-1.62,2.22-1.8,4.85-1.86,7.47C438.34,304.4,438.6,304.71,438.74,305Zm5.25-5.55c-2.06.65-3,2.39-2.24,4.1.71-1,1.38-1.94,2-2.89A4.18,4.18,0,0,0,444,299.47Z"/><path class="cls-3" d="M498.37,492.11c1.38-4.84-2-9.64-4.89-11.79a12.78,12.78,0,0,0-2.66-1.47,3.61,3.61,0,0,0-3.89.4,2.83,2.83,0,0,1-.86.31l-.17-.31c1.4-1,2.78-2,4.21-2.92,3.36-2.19,6.7-4.4,10.1-6.52,3.71-2.31,7.43-4.59,11.22-6.74,2.39-1.36,4.89-2.52,7.39-3.66,1.1-.51,2.33-.74,3.48-1.14a1.46,1.46,0,0,1,1.77.45c.74.93,1.46,1.88,2.12,2.85,1.69,2.46,3.34,4.94,5.06,7.51a57.91,57.91,0,0,1-5.7,3.77c-4.55,2.7-8.9,5.75-13.25,8.78-2.34,1.62-4.48,3.51-7,4.93a35.78,35.78,0,0,0-4.45,3.58C500,490.81,499.2,491.46,498.37,492.11Z"/><path class="cls-5" d="M383.8,424.57c-.79-1.57-1.51-2.79-2-4.09a37.43,37.43,0,0,1-2.54-10.58,32.65,32.65,0,0,1,.83-10.69c.71-3,1.52-5.9,2.28-8.84a1.79,1.79,0,0,1,.09-.35c1.17-2.54,2.35-5.07,3.59-7.74,3.59,1.42,7.4,1.22,11.42.85a40.77,40.77,0,0,1,.74,5.95,39.36,39.36,0,0,1-.87,8.54c-.75,3-2.18,5.91-3.26,8.88a32.53,32.53,0,0,0-2.38,10.24c0,1.25-.17,2.5-.11,3.74.11,2.11.06,4.26,1,6.28a8.51,8.51,0,0,1-3-3.22,15.06,15.06,0,0,1-1.81-6.14c-.07-.63-.21-1.12-.92-1.37-1.66-.58-2.44-.07-2.61,2s-.2,3.82-.3,5.73C384,423.88,383.9,424,383.8,424.57Zm10.3-30.49a3.82,3.82,0,0,0-.49.78c-.67,2.3-1.31,4.6-2,7l1.1.27a19.46,19.46,0,0,0,2.32-6.59A1.08,1.08,0,0,0,394.1,394.08Z"/><path class="cls-11" d="M332.48,402h10.83c.05.56.11,1.08.14,1.59.12,2.39.26,4.77.33,7.16,0,.94-.16,1.89-.22,2.84-.16,2.54-.33,5.08-.45,7.62-.15,3.15-.36,6.31-.35,9.47s-.16,6.56.57,9.8a5.35,5.35,0,0,1,0,1.06c-2.76,1.58-5.49,3.15-8.24,4.69-1,.57-1.42.47-2.15-.39-1.26-1.51-1.9-3.12-.93-5.07a3,3,0,0,0,.16-1.39c0-1.41-.2-2.83-.18-4.24,0-1.6.29-3.19.32-4.78.07-3-.16-6,.13-8.91.21-2.23-.13-4.4-.13-6.59,0-2.56.27-5.13.33-7.69,0-1.24-.19-2.48-.26-3.73A10.67,10.67,0,0,1,332.48,402Zm2.58,3.66a6,6,0,0,0-.67,4,12.79,12.79,0,0,1,.33,2.28,46.69,46.69,0,0,1-.34,5.68,63.72,63.72,0,0,0-.51,10.61c.06,2.74-.05,5.5-.25,8.24a12.92,12.92,0,0,0,.68,4.48c.8-.56,1.14-1.09.92-1.92a7.31,7.31,0,0,1-.33-2c0-2.8.25-5.61.2-8.42-.07-4.57.87-9.09.58-13.68-.15-2.48.23-5,.33-7.49C336,406.75,336.44,405.8,335.06,405.64Zm2-2.27a34.73,34.73,0,0,1,.27,3.55c0,2.08-.19,4.15-.29,6.23-.18,3.64-.13,7.27,0,10.91.08,2,.2,4.05.28,6.08q0,1.42,0,2.85c-.08,3.08-.19,6.17-.26,9.25a5.21,5.21,0,0,0,.22,1.13,2.16,2.16,0,0,0,1.06-2.13q.06-3,0-6.05c-.05-3.93.33-7.85-.2-11.79a58.39,58.39,0,0,1-.07-6.21c-.07-3,.29-6,.38-9,0-1.39-.12-2.79-.2-4.36Zm3.06,34.83.49,0,.21-2c.33-2.78.8-5.56.21-8.37a10.27,10.27,0,0,1,0-2.15c0-3.23.16-6.46.11-9.69a32.26,32.26,0,0,1,.42-8.21c.14-.56,0-1-.57-1.07s-1,.29-1,.94c0,1.06,0,2.12,0,3.18.09,4.1.2,8.21.3,12.32a7.56,7.56,0,0,1,0,1.43c-.74,4-.07,8-.42,12A6.64,6.64,0,0,0,340.1,438.2Z"/><path class="cls-5" d="M446.25,342.7c-2.72-.33-3.24,2.24-5,3.27-.51-2.49.49-4.62,1.19-6.77.75-2.31,2.54-3.67,4.8-4.66,5.07,3.4,10.11,7.07,14.87,10.81-.44,1.75-.53,3.4-1.27,4.67a7.23,7.23,0,0,0-.94,4.5l-2,.28c-.85,3.62-1.62,7.24-.87,11-2.85-3.2-3.36-7-3.11-11.1-1.47.59-2.77,2.66-4,6.39a8.2,8.2,0,0,1,0-4.42,24,24,0,0,0,.24-2.64c-2.11.45-4.14,2.9-6.13,7.21a7,7,0,0,1-.76-3.24,23.76,23.76,0,0,1,2.59-12.47c.1-.21.31-.5.24-.65C445.76,344.19,446.12,343.52,446.25,342.7Zm-.33,8.71c.79-2.17,1.62-4.49,2.54-7C446.17,346.53,445.19,349.43,445.92,351.41Z"/><path class="cls-2" d="M454,418.37a9.71,9.71,0,0,1,.2,1.92c-.28,3-.54,6.06-1,9.07a16.42,16.42,0,0,1-2.22,6.39,6.1,6.1,0,0,1-5.33,3.1c-3.69.06-7-1-9.38-4a14.34,14.34,0,0,1-2.15-4.1c-.83-2.29-1.44-4.67-2.13-7a2.13,2.13,0,0,1,0-.59c1.79-.74,3.89-.91,5.31-2.4s2.56-3,4-4.68c2.9,3.42,6,6.66,8.37,10.47,1.53-.43,1.65-.54,1.38-1.81-.41-1.87-.89-3.71-1.32-5.57-.08-.38-.09-.77-.17-1.54.6.68,1,1.05,1.29,1.46,1,1.37,1.93,1.26,2.64-.34a4.36,4.36,0,0,0,.17-.51Zm-14.35,6.79c2.52,1.13,3.81.34,4.84-2.57a13.29,13.29,0,0,1-2.16,1.74A14.65,14.65,0,0,1,439.69,425.16Z"/><path class="cls-5" d="M458.5,395.74l-1.19-1.61c2.41-5.4,4.43-10.92,1.8-17.16l4.19,1a13.3,13.3,0,0,0,8.43-.23,15,15,0,0,0,4.35-3.07,19.57,19.57,0,0,0,4.79-6.64,3,3,0,0,1,.42-.48c.46.88.5,2,1.68,2.26.2.05.33.47.45.75A22.51,22.51,0,0,1,485,384.74c-.08.35-.24.67-.48,1.33-.38-.68-.63-1.17-.91-1.63a14.13,14.13,0,0,0-5-5.3c-1-.57-1.06-.55-2.42-.06.05,1.52,1.74,1.62,2.36,2.62a15.07,15.07,0,0,1-3.72,7c-.27-3-.12-5.77-1.2-8.53l-2,.16a4.25,4.25,0,0,1-.88,4c-1.29,1.84-2.66,3.64-4.11,5.37a7.66,7.66,0,0,1-4.63,2.49l-.35.07C459,392.72,459,392.72,458.5,395.74Zm3.43-7.34c.2.37.28.71.48.83a2.21,2.21,0,0,0,2.66-.27,4.07,4.07,0,0,0,1.54-3.09c0-.15-.64-.45-1-.42a1.3,1.3,0,0,0-.79.66A4.57,4.57,0,0,1,461.93,388.4Z"/><path class="cls-3" d="M467.81,521.35c-2.78-.67-4.6-2.38-6.35-4.06a65.08,65.08,0,0,1-5-5.59,3.52,3.52,0,0,1,.12-5.12,139.25,139.25,0,0,1,10.63-10.83c.65-.58,1.21-1.27,1.92-2l2.37,4.61c-.63-.22-1-.32-1.26-.44a5.32,5.32,0,0,0-5.77,1.31,1.2,1.2,0,0,0-.41.91c.61,2,.72,4.24,1.92,6.1a15.29,15.29,0,0,0,5.45,5.56,4.47,4.47,0,0,0,4.92-.2,3,3,0,0,0,1.36-3.69c-.22-1-.4-2-.62-3l6.06,2.14a50.46,50.46,0,0,1-4.53,4.34,75.1,75.1,0,0,0-8.07,7.48C469.7,519.75,468.7,520.52,467.81,521.35Z"/><path class="cls-13" d="M547.55,478c-.8-.59-1.66-1.19-2.5-1.84a6.16,6.16,0,0,1-.76-.86,19.44,19.44,0,0,1,2.25-3.4,26.66,26.66,0,0,0,2.73-4.38c1-1.69,2-3.37,2.92-5.12a3.46,3.46,0,0,0,.46-2.2c-1.12-4.13-.08-7.78,2.14-11.25.64-1,1.2-2,1.91-3.22.38.88.69,1.56.94,2.13l-1.86,2.43a14.06,14.06,0,0,1-1.57,1.93,1.82,1.82,0,0,0-.5,2c.19.77.84.89,1.51,1a14.8,14.8,0,0,1,7,3.79,3.33,3.33,0,0,1,.67,1.23c.47,1.11,1.18,1.44,2.21.81s2.15-1.35,2.41-2.74a1.89,1.89,0,0,1,.33-.54l1.28,1a11.57,11.57,0,0,1-1.53,2.18c-1.45,1.31-3,2.51-4.57,3.71a3.87,3.87,0,0,1-1.31.52c-1,.3-2.05.51-3,.88a3.55,3.55,0,0,0-1.23,1c-3.22,3.59-6.41,7.19-9.62,10.79A1.35,1.35,0,0,1,547.55,478Zm0-2.84a2,2,0,0,0,2.06-1.09c1-1.66,1.76-3.44,2.61-5.18,0,0-.12-.16-.19-.24C549.75,470.5,547.54,473.67,547.56,475.17Z"/><path class="cls-4" d="M483.3,503.88a10,10,0,0,1-5.28-2.66,13.66,13.66,0,0,0-1.23-1.29c-3-2.31-4.37-5.58-5.48-9-.8-2.46.74-4.42,3.24-4.95a5.09,5.09,0,0,1,4.21,1.13,24.71,24.71,0,0,1,8.79,11.66C488.49,501.44,486.66,503.88,483.3,503.88Zm-8.1-11.1a2.69,2.69,0,0,0,.33.87,30,30,0,0,0,2.09,2.67,1.88,1.88,0,0,0,2.68.41,2.39,2.39,0,0,0,1-3.09,6.37,6.37,0,0,0-3.18-3A2.18,2.18,0,0,0,475.2,492.78Z"/><path class="cls-14" d="M576.46,417.9l-.88,3.14-2.4-.47,4.42-5.85c.44-.58,1-.54,1.59-.34a19.43,19.43,0,0,1,6.13,3.21c3,2.37,5.82,4.89,8.76,7.38-.66,1.3-1.16,2.44-1.79,3.5s-1.33,2-2.07,3l-1.29-1.39c.25-.33.43-.63.67-.89,1-1.11,1.15-1.56.25-2.74a25.15,25.15,0,0,0-6.05-6l-2.68-1.78A5.88,5.88,0,0,0,576.46,417.9Z"/><path class="cls-2" d="M309.84,468.44c-.63,1.12-1.32,2.21-1.88,3.37-.89,1.83-.31,3.41,1.62,4.48-1.65,3-4.07,5.65-4.91,9.07-.94.3-1.84.57-2.71.88-1.2.43-1.88.23-2.15-1a5,5,0,0,1,.13-2.77c2.09-5.14,5.42-9.49,9-13.68a5.13,5.13,0,0,1,.66-.56Z"/><path class="cls-15" d="M412.21,489.09a23,23,0,0,1,1.62-9.09,19.27,19.27,0,0,1,1.47-3c.69-1,1.37-1,2.14,0a8.39,8.39,0,0,1,1.83,5.68,17.09,17.09,0,0,1-2,7.9,10,10,0,0,1-2,2.51c-1.17,1-2.18.67-2.72-.79a6.48,6.48,0,0,1-.33-1.56A14.4,14.4,0,0,1,412.21,489.09Zm1-4a2.11,2.11,0,0,0,0,.83c.15.34.41.78.7.85a1.31,1.31,0,0,0,1-.43,2.36,2.36,0,0,0,.47-.95c.57-1.6,1.15-3.2,1.69-4.81a1,1,0,0,0-.51-1.36,1.07,1.07,0,0,0-1.4.4C413.86,481.16,413.52,483.07,413.24,485.07Z"/><path class="cls-11" d="M338.22,345.5l1.14,1.63c.52-.68,1.1-1.12,1.22-1.66.22-1.07.88-1.2,1.71-1.09s1.59.32,2.56.53c-.25,1.79-.47,3.37-.69,4.9l-13.78-.22c-.17-1-.38-2.07-.54-3.12-.24-1.65-.12-1.78,1.81-2.14a15.87,15.87,0,0,0,1.23,2.09,18.09,18.09,0,0,0,1.92,1.79c1.53-2.07.09-4,.43-5.95a5,5,0,0,1,3,.4c0,1,0,1.94,0,2.89l-1.21-1.71c-1.08,1.14-.26,2.17-.14,3.15.07.6.08,1.47,1.31,1.62Zm3.41,2.93c1.65.28,1.82.2,2-.71.24-1.29-.08-1.87-1.35-2.22C342.07,346.44,341.86,347.38,341.63,348.43Z"/><path class="cls-3" d="M480,484l4-3.16c.13,7,6.38,12.23,12,13L493.37,496c-.81.69-1.64,1.37-2.44,2a77.68,77.68,0,0,0-4.68-7.58A81.79,81.79,0,0,0,480,484Z"/><path class="cls-4" d="M495,491.06a13.62,13.62,0,0,1-8.72-9.07c2.18-1.59,5-.2,7,2C495.74,486.63,496.29,489,495,491.06Z"/><path class="cls-2" d="M315.38,478.86c-1.92,3.69-4.44,7-5.52,11.05a4,4,0,0,1-.73.2c-1.67.17-2.35-.39-2-2a22.36,22.36,0,0,1,1.54-4.73,56.69,56.69,0,0,1,2.79-5,10.74,10.74,0,0,1,1-1.23Z"/><path class="cls-4" d="M475,509.51a2.37,2.37,0,0,1-2.48-.15,11.38,11.38,0,0,1-4.08-4.41,18.13,18.13,0,0,1-1.24-2.77,7.68,7.68,0,0,1-.26-1.44C469.91,499.15,475.61,505.24,475,509.51Z"/><path class="cls-16" d="M423,492.36c0-3.33,0-6.52,0-10.13,1.43.88,2.45,1.44,3.39,2.12a1.6,1.6,0,0,1,.47,1.11c0,2,0,4.05,0,6.21Z"/><path class="cls-17" d="M464.26,309.22l-3.55,4c-1-.77-2-1.62-3-2.45-.78-.61-1-2.12-.6-3.46.33-1.06,1.12-1.08,2-1.06C461.33,306.33,463.25,307,464.26,309.22Zm-5.3-.9c.64,1.42,1.07,1.47,2.81.32C460.76,307.52,460.36,307.48,459,308.32Z"/><path class="cls-16" d="M429.16,484.77l3.48,1.66v6.69l-3.48.47Z"/><path class="cls-8" d="M414.13,334.05c1.45.77,1.4,2,1.88,3.09a3.84,3.84,0,0,0-2.92,4c-.11,2.78-.46,5.55-.71,8.49l-1.84-1.05C411.57,343.73,412.29,338.85,414.13,334.05Z"/><path class="cls-4" d="M557.14,453.15l1.65-2.43a6.47,6.47,0,0,0,3.2,3c1.34.73,2.59,1.63,4,2.53l-1.29,2.24c-1.28-1.08-2.35-2.1-3.55-3S558.62,454,557.14,453.15Z"/><path class="cls-9" d="M620.86,541.32c-3-1.39-6.51-4.77-7.64-7.29C616.18,533.33,619.75,537.52,620.86,541.32Z"/><path class="cls-4" d="M577.94,421.8c.62-1.15,1-1.28,2.19-.6a27.9,27.9,0,0,1,3.15,2.05c1.34,1.08,2.6,2.27,3.83,3.48a4,4,0,0,1,.54,1.29l-.36.26Z"/><path class="cls-2" d="M440.45,338c-.21-2.23-.43-4.46-.64-6.64,2.24-.85,3.55.79,5.21,1.63a14.23,14.23,0,0,1-1.85,1.7,5.15,5.15,0,0,0-2,2.62c-.11.27-.48.44-.72.66Z"/><path class="cls-8" d="M416.93,344.6l-1.24.92c-1.18-1.52-.89-4.74.59-6.38A11.69,11.69,0,0,1,416.93,344.6Z"/><path class="cls-16" d="M438.2,494.51l-2,.16c-.56-1.66-1.79-3.06-1.21-5.25C436.08,491.17,437.07,492.72,438.2,494.51Z"/><path class="cls-2" d="M319.25,481.85l-1.74-.45a5.54,5.54,0,0,1,1.81-3.14l.93,1.46Z"/><path class="cls-2" d="M323,478.81l-3.1-1.71,2.16-.84Z"/><path d="M541.27,476.07l1.87,1.27-.21.31c-.77-.2-1.76,0-2-1.18Z"/><path d="M544,481.6l-.73-.78.18-.19.83.69Z"/><path d="M541.38,479l.92.7-.19.24-.9-.73Z"/><path d="M433.93,338.94a38.69,38.69,0,0,1-1.67,11.11c-.36,1.32-.57,2.7-1,4-1.12,3.54-3.46,4.95-6.69,4.7a3.61,3.61,0,0,1-3.38-2.52,11,11,0,0,1-.71-6.12,2.52,2.52,0,0,0,.08-.54c-.2-4,1.22-7.74,2-11.56a13.79,13.79,0,0,1,3.5-6,4.12,4.12,0,0,1,6.66.89,11.81,11.81,0,0,1,1.12,3.35A13.31,13.31,0,0,1,433.93,338.94Zm-8.47,18.13c-.09-.41-.13-.7-.21-1a27.19,27.19,0,0,1-.44-12.17,7.37,7.37,0,0,1,1.92-4.16,4.15,4.15,0,0,1,5.13-1,27.34,27.34,0,0,0-.57-3.78,2.91,2.91,0,0,0-2.13-2.22,2.43,2.43,0,0,0-2.28,1.47,21.25,21.25,0,0,0-1.9,3.82,41.77,41.77,0,0,0-1.15,5.24c-.48,2.7-1,5.4-1.29,8.13a7.63,7.63,0,0,0,1,4.49A1.74,1.74,0,0,0,425.46,357.07Zm5-16.33a1.53,1.53,0,0,0-2.16.88,9.61,9.61,0,0,0-.53,6.1,1,1,0,0,0,.67.67,1,1,0,0,0,.89-.35A9.24,9.24,0,0,0,430.44,340.74Z"/><path d="M463.06,369.09c.4-.29.74-.71,1.14-.8,1.91-.42,2.72-1.82,3.26-3.47a14,14,0,0,0,1-5.59,4.34,4.34,0,0,0-1.86-3.67c-1.15-.74-1.09-.85-.6-2.2a23.91,23.91,0,0,1,1.54-4,5.14,5.14,0,0,1,4-2.67c2.83-.24,5.3,1.73,5.89,4.9A14,14,0,0,1,474,363.77a1.29,1.29,0,0,1-2,.28c.76-2.14,1.53-4.31,2.28-6.48a9.89,9.89,0,0,0,0-6.68c-.68-1.89-2.45-2.27-3.77-.73a11.36,11.36,0,0,0-1.75,3.3,1.63,1.63,0,0,0,.55,1.37,6.31,6.31,0,0,1,2,6,24.85,24.85,0,0,1-1.75,6,5.8,5.8,0,0,1-3.61,3A2.45,2.45,0,0,1,463.06,369.09Z"/><path d="M393.09,350.72c.44-.94.85-.79,1.36-.64a42,42,0,0,1,9.93,4.27c.76.45,1.6.78,2.34,1.26a1.16,1.16,0,0,1,.43,1c-.18.62-.71.51-1.17.26-2.53-1.32-5-2.67-7.58-4-.73-.37-1.55-.6-2.32-.91C395.11,351.58,394.15,351.17,393.09,350.72Z"/><path d="M437.9,356.67c-.63,2.45-1.58,3.33-3.65,3.24a18.78,18.78,0,0,1-3.83-.74c-.27-.07-.42-.59-.62-.91a4,4,0,0,1,1.05-.42,3.06,3.06,0,0,1,1,.21,4.73,4.73,0,0,0,4.54-.83A4.92,4.92,0,0,1,437.9,356.67Z"/><path d="M434.34,354c1.08-.37,1.53-1.88,3.12-1.41-.26,1-.39,1.95-1.43,2.28A1.16,1.16,0,0,1,434.34,354Z"/><path d="M286.9,361.1l-1.6-.4c-.08-.4-.17-.79-.26-1.22.26-.14.47-.34.67-.34,1.67,0,3.35-.05,5,0a1.11,1.11,0,0,1,1.2,1.08c-.54,1.06-1.65.46-2.44.86,1.28,2.19,2.54,4.39,3.85,6.56,2.19,3.61,4.42,7.19,6.6,10.81a8,8,0,0,1,.82,2c.83,3,2.58,5.42,4.51,8.29.07-2.48.12-4.55.18-6.61.08-2.57.19-5.14.26-7.71.05-1.79.05-3.59.11-5.38.07-2.3.21-4.61.26-6.91a20.48,20.48,0,0,0-.26-2.53,7.26,7.26,0,0,1-1.71-.46,1.63,1.63,0,0,1-.74-1.06c-.07-.63.51-.7,1-.71,1.56,0,3.11,0,4.66,0a6,6,0,0,1,1.26.34c.16,1-.45,1.31-1.09,1.56a1.52,1.52,0,0,0-1,1.66c.06,3.87.08,7.75,0,11.62-.08,4.85-.26,9.69-.38,14.53,0,1.55,0,3.1,0,4.71a4.42,4.42,0,0,1,1.14.51,1.08,1.08,0,0,1,.36.9,1,1,0,0,1-.65.69c-1.42.19-2.84.33-4.27.39-1,.05-1.12-.24-.94-1.79l2-.61c-1.19-3.45-3.91-5.89-5.41-9s-3.28-6.1-5-9.13-3.47-6.07-5.2-9.1l-.36.1c.06,1.62,0,3.24.18,4.85a73.24,73.24,0,0,1,.16,11.28q-.3,5.07-.58,10.16c0,.35,0,.7,0,1l3.87,1.12a1.67,1.67,0,0,1-1.62,1.2c-1.79.09-3.58.25-5.36.3a1.15,1.15,0,0,1-.92-.6c-.16-.53-.32-1.23.41-1.57a7.69,7.69,0,0,1,1.13-.31C287.5,381.74,288.44,371.46,286.9,361.1Z"/><path d="M359,361.38c-4.25,0-8.31,0-12.36,0a17.9,17.9,0,0,1-2.4-.32,4.33,4.33,0,0,0-.24,1.06c0,1.43.18,2.86.2,4.29a44.86,44.86,0,0,1-.13,4.64,15.47,15.47,0,0,0,.29,5.44l11.93,0c.13-.43.13-.7.27-.84s.6-.65.9-.64a1.14,1.14,0,0,1,.87.68,7.23,7.23,0,0,1,.08,2.62c-.22,1.1-.67,1.15-1.74.51a2,2,0,0,0-1-.29c-3.59,0-7.18,0-10.77.05a3,3,0,0,0-.53.2c-.48,4.33-.25,8.78-.65,13.34,2.65.54,5.15-.43,7.7-.32s5.13,0,7.84,0c.14-.91.3-1.83.4-2.76.07-.7.35-1.17,1.1-1.13a1.07,1.07,0,0,1,1.05,1.21c-.05,1.37-.14,2.75-.28,4.11-.09.79-.74.84-1.36.84-1.92,0-3.84-.06-5.76-.05-2.27,0-4.55,0-6.82.08-1.93.09-3.73-.57-5.58-.9-.24,0-.55-.63-.55-1,0-1.25.13-2.5.16-3.75.16-5.79.23-11.59.47-17.38a70.75,70.75,0,0,0-.35-10c-.15-1.42.73-2,1.6-1.67.38.12.63.62,1,1a4.25,4.25,0,0,1,3.07-1c4.19-.12,8.38-.29,12.56-.42,1.68-.05,2,.36,1.68,2-.15.81-.15,1.66-.35,2.47-.09.32-.51.77-.79.77a1.24,1.24,0,0,1-.92-.68A17.27,17.27,0,0,1,359,361.38Z"/><path d="M323.28,360.63h-7.69c-.22.78-.42,1.5-.62,2.23A2.27,2.27,0,0,1,313.5,360c.2-1.14.66-1.57,2-1.59,2.4,0,4.8,0,7.19,0,2-.05,3.93-.23,5.89-.3,1.74-.05,3.48,0,5.21,0,.9,0,1.66-.13,1.94-1.17,0-.16.35-.25.65-.46.76,1.75,1.16,3.3-.62,4.67a3.11,3.11,0,0,0-3-.73,34.74,34.74,0,0,1-4.79.08h-2.2a27.56,27.56,0,0,0-.17,3.87,99.8,99.8,0,0,1,0,17.2c-.21,2.74-.34,5.49-.51,8.44a7.22,7.22,0,0,1,.93.71c.56.58.44,1.15-.36,1.31-1.28.25-2.6.33-3.9.5-1,.13-1.32-.5-1.44-1.24s.54-1.1,1.22-1.25c.29-.06.59-.08,1.09-.15.16-2.19.38-4.37.49-6.56.17-3.53.28-7.05.41-10.58,0-.53,0-1.07,0-1.61,0-1.12.12-2.25.19-3.37,0-.36.07-.72.06-1.07-.05-1.55-.11-3.09-.19-4.63A12.54,12.54,0,0,0,323.28,360.63Z"/><path d="M363.54,395c.29-3,.69-6,.82-8.94.16-3.7.09-7.42.14-11.13,0-2.07.13-4.14.15-6.22,0-.63-.21-1.26-.21-1.88a7.91,7.91,0,0,1,.22-1.94c0-.17.47-.26.8-.43.85,1.11.29,2.27.31,3.34.05,2.18,0,4.37,0,6.55,0,1-.06,2-.09,3a23.55,23.55,0,0,0-.07,3.75,12.47,12.47,0,0,1-.3,4,20.1,20.1,0,0,0-.07,2.46c-.14,2-.34,4.05-.47,6.08a4.63,4.63,0,0,0,.19,1.52c.26,1,0,1.48-1.06,1.57a19.26,19.26,0,0,1-2.52,0c-1,0-2-.22-3-.17-1.95.11-3.89.34-5.83.5-.29,0-.59-.1-.88-.09-1.67,0-3.34.05-5,.07-1.19,0-2.39.08-3.59.06-2.74-.06-5.48-.2-8.22-.24-3.46-.06-6.92-.07-10.38,0-1.65,0-3.3.24-4.94.22-1.9,0-3.8-.21-5.7-.33-.24,0-.49-.22-.69-.16-3.21.9-6.52.19-9.76.64a28.92,28.92,0,0,1-4.82-.14c.07-1.07.69-.94,1.2-.95,1.67,0,3.35,0,5-.1a52.71,52.71,0,0,1,6-.2c3.68.31,7.34-.48,11,.12,1.84.3,3.8-.11,5.7-.2,2.32-.1,4.65-.28,7-.28,2.56,0,5.11.25,7.67.27,2,0,4.05-.14,6.08-.18.7,0,1.41.18,2.12.15,2-.08,4.05-.22,6.08-.34l6.43-.35Z"/><path d="M275.18,360.26c-1.2-.61-3.13.2-3.36-2.12a9.08,9.08,0,0,1,1.63-.37c1.41-.08,2.82-.1,4.23-.1,1.2,0,1.52.38,1.64,1.83l-1.58.74c-.18,10.82.49,21.63-.75,32.55a8.76,8.76,0,0,1,1.77.21,1.39,1.39,0,0,1,.87.76c.06.27-.27.76-.57,1-1.54,1-5.37.68-6.8-.56a1.76,1.76,0,0,1-.24-.45c.46-1.36,1.62-.66,2.69-.92A309.69,309.69,0,0,0,275.18,360.26Z"/><path d="M276.27,355.28c.09-.76,0-1.25.19-1.39,1.4-1.06,2.62-2.47,4.65-2.37,2.62.12,5.25.15,7.87.18a11.15,11.15,0,0,0,3-.18,14.35,14.35,0,0,1,4.58,0c4.35.24,8.71.45,13.05.74,2.74.18,5.47.44,8.2.72a4.22,4.22,0,0,1,1.93.81,17.07,17.07,0,0,1-4.84.06,3.84,3.84,0,0,0-1.41-.15c-4.28.89-8.53,0-12.79-.1a30.78,30.78,0,0,1-4-.83,38.64,38.64,0,0,0-6.55-.09,59.81,59.81,0,0,1-7,0c-1.91-.23-3.51-.08-4.95,1.25A21.16,21.16,0,0,1,276.27,355.28Z"/><path d="M270.24,361.07a11.08,11.08,0,0,1-3.75,4.58q-3.71,2.84-7.39,5.71c-1.25,1-2.46,2-3.62,2.95,3.73,3.27,7.4,6.48,11,9.66-.27.78-.71.74-1.14.39-.93-.76-1.86-1.51-2.72-2.33a50.77,50.77,0,0,0-7.65-6.47,3.41,3.41,0,0,1-.64-.75,3,3,0,0,1,1.56-2.53c3.41-2.63,6.83-5.23,10.23-7.88,1.13-.88,2.18-1.86,3.28-2.78C269.7,361.41,270,361.25,270.24,361.07Z"/><path d="M324,353.43a3.61,3.61,0,0,1,1.13-.45c1.07,0,2.14,0,3.22,0,2.55.17,5.1.41,7.66.54,2.06.1,4.14,0,6.2.1.8,0,1.77,0,1.75,1.47-3.36.3-6.72,0-10.08,0a33.65,33.65,0,0,1-9.72-1.29Z"/><path d="M268.47,391.44c-2-2-3.89-3.79-5.8-5.58-2.07-1.95-4.18-3.86-6.28-5.79-.87-.81-1.75-1.6-2.61-2.41-.53-.5-.52-.52,0-1.6,2.78,2.59,5.53,5.14,8.26,7.71,2,1.88,3.95,3.8,5.95,5.67C268.6,390,269,390.44,268.47,391.44Z"/><path d="M297.18,397.17c-.67.12-1.45.5-2,.29-1-.4-1.86,0-2.78.12-1.11.08-2.23,0-3.35.06l-4.45.08c-1.19,0-2.38.1-3.57.1-.48,0-.48-.07-1.17-1.06,3.33,0,6.58.05,9.82,0,2.07,0,4.13-.24,6.2-.32a5.52,5.52,0,0,1,1.35.32Z"/><path d="M355.55,354.18a1.1,1.1,0,0,1-.68,1.71c-1.91.64-3.85,1.21-5.8,1.7-.75.19-1.26-.43-1.44-1.07s.34-.94.92-1.07C350.84,354.91,353.07,354,355.55,354.18Z"/><path d="M337.56,394.42a2.94,2.94,0,0,1-2.56-2.17,2.33,2.33,0,0,1,1.82-2.61,4.92,4.92,0,0,0,1.09-.45,1.72,1.72,0,0,1,1.95.5,1.76,1.76,0,0,1,.36,1.43,4.59,4.59,0,0,1-1.75,2.83A5.71,5.71,0,0,1,337.56,394.42Zm1.21-4.66c-.23.16-.47.3-.69.47a8.31,8.31,0,0,1-.63.57c-1,.66-1.07.89-.36,2.14C339.25,392.32,339.79,391.35,338.77,389.76Z"/><path d="M335,363.19a3.23,3.23,0,0,1,2.31-2.14,2.42,2.42,0,0,1,2.49.8c.56.83.1,1.51-.35,2.12C338.18,365.65,336.27,365.34,335,363.19Zm1.84.14c1.64,0,1.75-.07,1.5-1.39C337.08,362.24,337.08,362.24,336.8,363.33Z"/><path d="M364,356.25c-.32.12-.56.31-.74.26-1.41-.39-2.81-.83-4.18-1.25,0-1,.57-.82,1-.77a5.78,5.78,0,0,0,1.71.24C363.44,354.43,363.43,354.38,364,356.25Z"/><path d="M338,367.51c-.84.76-1.37,1.07-2.07.72s-1.59-.57-1.64-1.72C335.6,366.27,336.47,367.32,338,367.51Z"/><path d="M478.84,561.36a4.64,4.64,0,0,1-2.71,2.75,6.68,6.68,0,0,0-3.69,5.13,11.64,11.64,0,0,1-.58,1.88,1.13,1.13,0,0,1-1.41.8,1,1,0,0,1-.83-1.2,10.12,10.12,0,0,1,7.13-9.34A7.46,7.46,0,0,1,478.84,561.36Z"/><path d="M468.17,565.6a14.43,14.43,0,0,1-2.57,6.46.78.78,0,0,1-.74.2.85.85,0,0,1-.28-.74,13.55,13.55,0,0,1,.89-2.32c.51-1,1.1-2,1.7-2.93C467.3,566.07,467.59,566,468.17,565.6Z"/><path d="M486.88,571.11a.69.69,0,0,1,1.18.1,6.93,6.93,0,0,1,1,4.59.85.85,0,0,1-.57.55.89.89,0,0,1-.77-.23,2.7,2.7,0,0,1-.42-1.15C487.14,573.69,487,572.4,486.88,571.11Z"/><path d="M329.77,464.39l-2.11,5.77h-.91c-.71-1.91,0-3.52.95-5.07A1.52,1.52,0,0,1,329.77,464.39Z"/><path d="M330.54,477.24a7.54,7.54,0,0,1-1.53,4.27c-.2.28-.75.32-1.27.31A6.6,6.6,0,0,1,330.54,477.24Z"/><path d="M293.42,471.52c.63-.58,1.19-.6,1.56.06a15.91,15.91,0,0,1,1.1,2.41.8.8,0,0,1-.25.74.84.84,0,0,1-.78-.07A4.49,4.49,0,0,1,293.42,471.52Z"/><path d="M341.93,453.3l-4.31,2.91a2.26,2.26,0,0,1-.21-.24,39.48,39.48,0,0,1,2.72-2.91A1.12,1.12,0,0,1,341.93,453.3Z"/><path d="M296.94,469.43a6.36,6.36,0,0,1,1.13,1,5,5,0,0,1,.33,1.2c.15.49.61,1.1-.08,1.41s-1.13-.37-1.42-1C296.54,471.31,296.54,471.14,296.94,469.43Z"/><path d="M613.64,569.7a4.58,4.58,0,0,1,3.1,1.73,6.45,6.45,0,0,1,2,4.29,18,18,0,0,0,.42,3,1.82,1.82,0,0,1-.46,2,1.91,1.91,0,0,1-2.34.26,9.22,9.22,0,0,1-2.19-2,18.38,18.38,0,0,1-2.82-6.71C611,570.42,611.46,569.82,613.64,569.7Zm0,1.82c.06,3.1,1.75,6.61,3.65,7.74a4,4,0,0,0,.18-1.23c-.24-1.28-.53-2.55-.86-3.81C616.25,572.76,615.16,572,613.67,571.52Z"/><path d="M635,609c.89,1.29,1.81,2.57,2.68,3.88a2,2,0,0,1,.4,1.14c0,.35-.35.91-.6.95a1.38,1.38,0,0,1-1.17-.45c-.76-1.34-1.42-2.73-2-4.13C633.94,609.7,633.91,609.05,635,609Z"/><path d="M619.51,583.28c.13-1.87.25-3.5.38-5.27.73-.46,1.24,0,1.52.74a5.54,5.54,0,0,1,0,3.85A1.17,1.17,0,0,1,619.51,583.28Z"/><path d="M630.27,605.7c.65-1.69,1.9-1.85,3.34-1.59C633.59,605.5,631.88,606.35,630.27,605.7Z"/><path d="M620.74,585.07c0-.5.1-.93.75-.82.16,0,.42.33.39.46C621.76,585.38,621.29,585.26,620.74,585.07Z"/><path d="M571,427.34c0,.94-.49,1.2-1.28,1.16a19.53,19.53,0,0,0-2.86-.05,6.11,6.11,0,0,0-2.59.57c-2.26,1.37-4.2.57-6.18-.53-.11-.58,0-1.05.62-1a5.08,5.08,0,0,1,1.91.25,3.61,3.61,0,0,0,3.54-.27c1.87-1.16,3.94-.67,6-.58C570.39,426.87,570.68,427.17,571,427.34Z"/><path d="M554.38,427.6c-1.44-1-2.49-2.5-4.3-1.58-.61-.81-.21-1.2.32-1.56,1.05-.72,1.89-.65,3.23.3C554.56,425.41,554.75,426,554.38,427.6Z"/><path d="M577.11,439.92a22.05,22.05,0,0,1-.05,3.2,2.08,2.08,0,0,1-.95,1.18c-.47.3-1.12,0-1-.51a21.63,21.63,0,0,1,1-3.52C576.11,440.11,576.57,440.09,577.11,439.92Z"/><path d="M573.73,446.29c.18,1.61-.83,2.17-3.21,1.91C570.41,446.75,571.11,446.32,573.73,446.29Z"/><path d="M507,403.54c1.73-.76,2.43-.8,5-.38A4,4,0,0,1,507,403.54Z"/><path d="M581.65,434.84c-.36.56-.65,1-.95,1.45s-.83.78-1.37.43-.37-1-.07-1.44a4.47,4.47,0,0,1,1.17-1C581.09,433.79,581.4,434.25,581.65,434.84Z"/><path d="M469.45,428.87c1.6-.94,3-.33,3.5,1.55C471.35,431.2,470.31,430.74,469.45,428.87Z"/><path d="M480.93,544.23c1-1.15,1.16-1.18,2-.49l7.7,6.12c.78.62,1,1.29.49,1.77a1.23,1.23,0,0,1-1.77-.09c-1.09-.93-2.15-1.91-3.25-2.82s-2-1.67-3.09-2.43A5.87,5.87,0,0,1,480.93,544.23Z"/><path d="M494,513.31c.35-3.26,3.27-10.21,4.67-11.19,1,.88,1.06,1.77.4,3-1.22,2.25-2.22,4.62-3.33,6.94C495.45,512.73,495.26,513.6,494,513.31Z"/><path d="M512.29,512c0,.12.16.56.29,1a4.13,4.13,0,0,1,.34,1.18,1.09,1.09,0,0,1-.48.84,1,1,0,0,1-.94-.15,8.68,8.68,0,0,1-.92-2.23,5.74,5.74,0,0,1,.12-1.58c0-.56.27-1,.86-.83.36.11.64.57.9.91C512.53,511.17,512.4,511.42,512.29,512Z"/><path d="M509.16,520c-.57,1.35-1.45.84-2.08.63a2.52,2.52,0,0,1-1.21-1.14c-.15-.25.05-.83.28-1.1a1,1,0,0,1,1,0C507.83,518.81,508.47,519.4,509.16,520Z"/><path d="M545.26,536.82c.42-.57.84-.86,1.28-.41,1.3,1.28,3,1.82,4.57,2.61.61.3,1.2.64,1.88,1a1.74,1.74,0,0,1-2.2.7C548.56,540,546.39,539.24,545.26,536.82Z"/><path d="M535.12,549.93c2,0,3.67,1,5.44,1.75a1.64,1.64,0,0,1-2,1.16,12,12,0,0,1-2.39-.66C535,551.77,534.87,551.55,535.12,549.93Z"/><path d="M335.45,554.77a16,16,0,0,1-.39-5.07c.13-2.69.27-5.37.25-8.06a36.68,36.68,0,0,0-.36-6.35,8.61,8.61,0,0,1,.13-2.75c.35-1.91-.16-3.78-.05-5.66,0-.66.43-1.3.49-2a12.49,12.49,0,0,0,.07-3.9c-.78-3.2-.1-6.37-.16-9.55-.05-2.48.19-5,.18-7.44,0-2.18.32-4.36.32-6.55,0-5.29-.1-10.58-.14-15.88,0-.81.09-1.62.16-2.62l1,.4a46.75,46.75,0,0,1-.06,6.17c-.38,2.76.36,5.42.35,8.14s0,5.39-.06,8.08c-.08,4.58-.11,9.16-.34,13.73-.13,2.48.12,5,0,7.42a4.29,4.29,0,0,1,0,.72,15.39,15.39,0,0,0,0,6.55,4.84,4.84,0,0,1,0,2c-1,3.77-.51,7.6-.56,11.42,0,1.66-.21,3.32-.28,5-.05,1.07,0,2.15-.05,3.23v3Z"/><path d="M342.62,515.76c.15,2.65.82,5.21.51,8s.07,5.9.11,8.86c0,.77-.15,1.55-.14,2.32,0,2.56.21,5.13.13,7.69a46.75,46.75,0,0,1-.69,5.09c-.2,1.35-.4,2.7-.63,4a1.43,1.43,0,0,1-.66,1c0-1.92,0-3.85,0-5.77,0-1.31.26-2.61.28-3.92q.15-7.59.21-15.17c0-1.73-.16-3.46-.1-5.18.09-2.33.32-4.67.5-7Z"/><path d="M339.36,523a57.72,57.72,0,0,1,.36,10.27c-.18,3.44.43,6.89,0,10.34s-.8,6.77-1.19,10.16l-.42,0a11.26,11.26,0,0,1-.45-2.24c0-2.5.13-5,.25-7.51s.34-5.21.44-7.81c.07-2-.11-4,.07-6a20.25,20.25,0,0,0,0-4.92,8.12,8.12,0,0,1,.35-2.35Z"/><path d="M341.6,491.17c-.09-1.41-.3-2.82-.25-4.22.11-2.84-.26-5.68.48-8.52.34-1.32-.09-2.84-.13-4.26-.05-1.73-.1-3.46-.06-5.18,0-.26.49-.51.75-.76.16.21.49.46.46.64-.44,2.69.28,5.32.35,8a4.55,4.55,0,0,1-.07,1,23,23,0,0,0-.33,6.41,24.21,24.21,0,0,1-.67,6.83Z"/><path d="M339.15,521c-.15-.38-.45-.77-.43-1.14.14-1.71-.33-3.44.13-5.14a2,2,0,0,0,.1-.88,21.5,21.5,0,0,1-.3-5.19c0-2.06-.42-4.12-.58-6.18-.06-.81.1-1.64.1-2.46,0-1.9-.08-3.79-.12-5.68,0-.63,0-1.22,1.1-1.25C339,502.39,340.23,511.65,339.15,521Z"/><path d="M340,472.32c-.08,1-.19,1.92-.24,2.89s0,2.12,0,3.18c0,2.51.06,5,0,7.53a4.77,4.77,0,0,1-.64,1.89c-.75-2.75-.27-5.5-.4-8.23-.08-1.72-.22-3.44-.24-5.17C338.45,473.1,338.53,473.07,340,472.32Z"/><path d="M342.26,503.19v3.38H342V503.2Z"/><path d="M478.93,311.15c0,1.42-1,1.93-1.91,2.47a7.52,7.52,0,0,0-3.28,3.39c-1.39-.35-1.77-1-1.32-2.09A7.15,7.15,0,0,1,478.93,311.15Z"/><path d="M457.16,326.89c1.28,0,2,.92,2,2.41,0,1.17-.79,1.84-2.13,1.81a3.05,3.05,0,0,1-2.2-2.51C454.88,327.54,455.8,326.86,457.16,326.89Z"/><path d="M493,307c-.38.51-.65,1.23-1.16,1.5-1.39.76-2.88,1.34-4.35,2a1.07,1.07,0,0,1-1.61-.69c2-1.55,4.08-3,6.72-3.13Z"/><path d="M433.05,312.32c2-2.13,4.19-1.05,6.3-1-.22.21-.4.53-.65.6-1.41.4-2.84.79-4.28,1.08C434.12,313.07,433.73,312.68,433.05,312.32Z"/><path d="M458.61,281.13c-.16-.66-.37-1.14.26-1.72a13.91,13.91,0,0,0,3.61-6.05,15.93,15.93,0,0,1,.83-1.72c1.34.31,1.22,1.42,1.16,2.06-.21,2.38-1.07,4.47-3.36,5.71A28.54,28.54,0,0,0,458.61,281.13Z"/><path d="M438.74,305c-.14-.31-.4-.62-.4-.93.06-2.62.24-5.25,1.86-7.47a9.43,9.43,0,0,1,2.07-1.91c.17-.14.73.09,1,.3.1.07,0,.73-.24.87-2.74,1.84-3.08,4.77-3.57,7.64-.08.49-.15,1-.23,1.47Z"/><path d="M444,299.47a4.18,4.18,0,0,1-.26,1.21c-.6.95-1.27,1.87-2,2.89C441,301.86,441.93,300.12,444,299.47Z"/><path d="M418.72,416.62a9.81,9.81,0,0,1,1.6-.83,8.27,8.27,0,0,0,4.52-3.81c.71-1.15,1.54-2.22,2.35-3.37,1,.38,1.26.87.79,1.68-.7,1.24-1.37,2.5-2.12,3.72-.37.6-.91,1.1-1.31,1.68-1,1.48-2.59,1.83-4.17,2.11C419.7,417.92,419.09,417.66,418.72,416.62Z"/><path d="M404.73,391.31l2.4,5c-.87,1-.87,1-2.46-.44-.23.63-.42,1.22-.66,1.78a2.86,2.86,0,0,1-.71,1.2A1.6,1.6,0,0,1,402,399c-.51-.19-.43-.69-.29-1.22.47-1.66.86-3.34,1.22-5C403.25,391.36,403.22,391.35,404.73,391.31Z"/><path d="M394.1,394.08a1.08,1.08,0,0,1,.94,1.45,19.46,19.46,0,0,1-2.32,6.59l-1.1-.27c.68-2.39,1.32-4.69,2-7A3.82,3.82,0,0,1,394.1,394.08Z"/><path d="M335.06,405.64c1.38.16,1,1.11.94,1.8-.1,2.5-.48,5-.33,7.49.29,4.59-.65,9.11-.58,13.68.05,2.81-.16,5.62-.2,8.42a7.31,7.31,0,0,0,.33,2c.22.83-.12,1.36-.92,1.92a12.92,12.92,0,0,1-.68-4.48c.2-2.74.31-5.5.25-8.24a63.72,63.72,0,0,1,.51-10.61,46.69,46.69,0,0,0,.34-5.68,12.79,12.79,0,0,0-.33-2.28A6,6,0,0,1,335.06,405.64Z"/><path d="M337,403.37l1.23.45c.08,1.57.24,3,.2,4.36-.09,3-.45,6-.38,9a58.39,58.39,0,0,0,.07,6.21c.53,3.94.15,7.86.2,11.79q0,3,0,6.05a2.16,2.16,0,0,1-1.06,2.13,5.21,5.21,0,0,1-.22-1.13c.07-3.08.18-6.17.26-9.25q0-1.42,0-2.85c-.08-2-.2-4.05-.28-6.08-.14-3.64-.19-7.27,0-10.91.1-2.08.26-4.15.29-6.23A34.73,34.73,0,0,0,337,403.37Z"/><path d="M340.1,438.2a6.64,6.64,0,0,1-.28-1.62c.35-4-.32-8,.42-12a7.56,7.56,0,0,0,0-1.43c-.1-4.11-.21-8.22-.3-12.32,0-1.06,0-2.12,0-3.18,0-.65.29-1.06,1-.94s.71.51.57,1.07a32.26,32.26,0,0,0-.42,8.21c.05,3.23-.07,6.46-.11,9.69a10.27,10.27,0,0,0,0,2.15c.59,2.81.12,5.59-.21,8.37l-.21,2Z"/><path d="M445.92,351.41c-.73-2,.25-4.88,2.54-7C447.54,346.92,446.71,349.24,445.92,351.41Z"/><path d="M439.69,425.16a14.65,14.65,0,0,0,2.68-.83,13.29,13.29,0,0,0,2.16-1.74C443.5,425.5,442.21,426.29,439.69,425.16Z"/><path d="M461.93,388.4a4.57,4.57,0,0,0,2.93-2.29,1.3,1.3,0,0,1,.79-.66c.32,0,1,.27,1,.42a4.07,4.07,0,0,1-1.54,3.09,2.21,2.21,0,0,1-2.66.27C462.21,389.11,462.13,388.77,461.93,388.4Z"/><path d="M547.56,475.17c0-1.5,2.19-4.67,4.48-6.51.07.08.21.2.19.24-.85,1.74-1.63,3.52-2.61,5.18A2,2,0,0,1,547.56,475.17Z"/><path d="M475.2,492.78a2.18,2.18,0,0,1,2.91-2.12,6.37,6.37,0,0,1,3.18,3,2.39,2.39,0,0,1-1,3.09,1.88,1.88,0,0,1-2.68-.41,30,30,0,0,1-2.09-2.67A2.69,2.69,0,0,1,475.2,492.78Zm1.89-.36c1.29,2.68,1.34,2.72,2.76,2C479,493.75,478.63,492.55,477.09,492.42Z"/><path d="M413.24,485.07c.28-2,.62-3.91,2-5.47a1.07,1.07,0,0,1,1.4-.4,1,1,0,0,1,.51,1.36c-.54,1.61-1.12,3.21-1.69,4.81a2.36,2.36,0,0,1-.47.95,1.31,1.31,0,0,1-1,.43c-.29-.07-.55-.51-.7-.85A2.11,2.11,0,0,1,413.24,485.07Z"/><path d="M338.22,345.5v3.11c-1.23-.15-1.24-1-1.31-1.62-.12-1-.94-2,.14-3.15l1.21,1.71Z"/><path d="M341.63,348.43c.23-1.05.44-2,.64-2.93,1.27.35,1.59.93,1.35,2.22C343.45,348.63,343.28,348.71,341.63,348.43Z"/><path class="cls-17" d="M459,308.32c1.4-.84,1.8-.8,2.81.32C460,309.79,459.6,309.74,459,308.32Z"/><path class="cls-8" d="M425.46,357.07a1.74,1.74,0,0,1-1.95-1.14,7.63,7.63,0,0,1-1-4.49c.27-2.73.81-5.43,1.29-8.13a41.77,41.77,0,0,1,1.15-5.24,21.25,21.25,0,0,1,1.9-3.82,2.43,2.43,0,0,1,2.28-1.47,2.91,2.91,0,0,1,2.13,2.22,27.34,27.34,0,0,1,.57,3.78,4.15,4.15,0,0,0-5.13,1,7.37,7.37,0,0,0-1.92,4.16,27.19,27.19,0,0,0,.44,12.17C425.33,356.37,425.37,356.66,425.46,357.07Z"/><path class="cls-8" d="M430.44,340.74a9.24,9.24,0,0,1-1.13,7.3,1,1,0,0,1-.89.35,1,1,0,0,1-.67-.67,9.61,9.61,0,0,1,.53-6.1A1.53,1.53,0,0,1,430.44,340.74Z"/><path class="cls-15" d="M338.77,389.76c1,1.59.48,2.56-1.68,3.18-.71-1.25-.67-1.48.36-2.14a8.31,8.31,0,0,0,.63-.57C338.3,390.06,338.54,389.92,338.77,389.76Z"/><path class="cls-15" d="M336.8,363.33c.28-1.09.28-1.09,1.5-1.39C338.55,363.26,338.44,363.37,336.8,363.33Z"/><path class="cls-18" d="M613.67,571.52c1.49.52,2.58,1.24,3,2.7.33,1.26.62,2.53.86,3.81a4,4,0,0,1-.18,1.23C615.42,578.13,613.73,574.62,613.67,571.52Z"/><path class="cls-8" d="M477.09,492.42c1.54.13,1.88,1.33,2.76,2C478.43,495.14,478.38,495.1,477.09,492.42Z"/></svg>