<?xml version="1.0" encoding="utf-8"?>
<!-- Generator: Adobe Illustrator 22.1.0, SVG Export Plug-In . SVG Version: 6.00 Build 0)  -->
<svg version="1.1" id="Calque_1" xmlns="http://www.w3.org/2000/svg" xmlns:xlink="http://www.w3.org/1999/xlink" x="0px" y="0px"
	 viewBox="0 0 828.1 264.2" style="enable-background:new 0 0 828.1 264.2;" xml:space="preserve">
<style type="text/css">
	.st0{fill:#00B26E;}
	.st1{fill:#B3B3B3;}
	.st2{fill:#FFFFFF;}
	.st3{fill:#B35B3D;}
	.st4{fill:#E98B38;}
	.st5{fill:#4271D6;}
	.st6{fill:#FF0000;}
	.st7{fill:#CCCCCC;}
	.st8{fill:#FFD7C2;}
	.st9{fill:#FFF435;}
	.st10{fill:#56B746;}
	.st11{fill:#1A1A1A;}
	.st12{fill:#FFBA98;}
	.st13{fill:#D4145A;}
	.st14{fill:#42210B;}
</style>
<title>Mario Asterix Menhir</title>
<path d="M56.6,228.7c0.7-1.8,1.3-3.3,2-4.8c0.3-0.6,1-1,1.7-0.7c0.1,0,0.1,0.1,0.2,0.1c0.7,0.3,1.3,0.8,1.8,1.4
	c0.7,1.1,1.5,1.9,3.1,1.7c-0.4,0.8-1.3,1.2-2.2,0.8c-0.2-0.1-0.4-0.3-0.6-0.4c-0.5-0.4-0.9-1-1.3-1.4c-0.8-0.9-1.3-0.8-1.9,0.2
	c-0.3,0.5-0.4,1-0.6,1.5C58.3,227.7,58,228.5,56.6,228.7z"/>
<path class="st0" d="M53.3,265.2l-67.2,0.1c4.7,0,9.5,0,14.2-0.1c2.3,0,4.5-0.3,6.8-0.3c1.4,0,2.7,0.2,4.1,0.2
	c2.5,0,4.9-0.2,7.3-0.2C30,265.1,41.6,265.2,53.3,265.2z"/>
<path d="M828.1,187.2v78.1c-0.6,0-1.2,0-1.8,0c-80,0-159.9-0.1-239.9-0.1c-12.8,0-25.7,0.1-38.5,0.1s-25.9,0-38.9,0H77.1
	c-2.6,0-5.3,0-7.9,0c-0.4,0-0.7,0-1.1,0l474.1-0.7c3.4,0,6.7,0,10.1,0c11.4,0,22.9,0,34.3,0c11.9,0,23.8,0,35.6,0
	c2.1,0,4.2-0.1,6.3-0.1h6c2.1,0,4.1,0.1,6.2,0.1c1.8,0,3.6-0.1,5.4-0.1c0,0,0,0,0.1,0h2.6c2,0,4,0.2,6.1,0.3c1.4,0,2.9,0,4.3-0.1
	c0.6-0.1,1.3-0.1,1.9-0.2h4.3c0.6,0,1.3,0.1,2,0.2c1.6,0.1,3.1,0,4.7-0.1c2.1,0,4.1,0.1,6.2,0.1c0.2,0,0.5,0,0.7,0
	c1.2,0,2.5,0,3.7,0c0.8,0,1.6-0.2,2.4-0.2h1.2c3.2,0,6.3,0.2,9.5,0.2c13.7,0,27.3-0.2,41-0.2c10.2,0,20.4,0,30.6,0
	c14.3,0,28.5,0,42.8-0.1c0.7,0,1.4,0,2,0h13.4c0.7-0.1,1.4-0.2,2.1-0.3c0-0.7,0-1.4,0-2c-0.1-3.9-0.4-7.9-0.4-11.8
	c-0.1-3.2,0.1-6.3,0.1-9.5c0-6,0-12.1,0.1-18.1c0-7.9,0.1-15.8,0.2-23.7c0-3.5,0.1-6.9,0.2-10.4
	C827.8,187.9,827.9,187.5,828.1,187.2z"/>
<path d="M-14,265.3v-3.2c0.2,0.1,0.4,0.3,0.6,0.4L-14,265.3z"/>
<path d="M-14,265.3l0.6-2.9c0.9,0.3,1.8,0.5,2.7,0.4c3.9,0,7.9,0.2,11.8,0.2c4.7,0,9.4,0,14.1,0c13,0,26,0.1,39,0.1
	c3.9,0,7.7,0.1,11.6,0.1c8.5,0.1,17.1,0.1,25.7,0.1c13.2,0,26.4,0.1,39.6,0.1c0.8-0.1,1.5,0,2.3,0.1c0.6,0.3,1.3,0.2,1.8-0.1
	c0.1,0,0.1,0,0.2,0c1.3,0.2,2.7,0.2,4.1,0.1c1.2,0,2.4,0,3.5,0.2c15.1,0,30.1,0,45.2,0c17.8,0,35.6,0,53.4,0.1
	c0.8-0.1,1.6,0,2.4,0.3c0.6,0.3,1.5-0.3,2.3-0.3c1.5,0,3,0.2,4.4,0.2s3.1-0.2,4.6-0.2c2.8,0,5.5,0.1,8.3,0.2c1.1,0,2.3-0.2,3.4-0.2
	s2.1,0.1,3.2,0.1c3.4,0,6.8,0.1,10.1,0.1c1.6,0,3.2-0.2,4.8-0.2c2.1,0,4.3,0.2,6.4,0.2c14,0,28,0,42.1,0c9.5,0,19-0.1,28.6-0.1
	c5.8,0,11.6,0.1,17.4,0.1c9.2,0,18.3-0.1,27.5-0.1c15.5,0,31,0,46.4,0.1c2.9,0,5.8,0.2,8.8,0.2c1.4,0,2.7-0.1,4.1-0.1
	c2.8,0,5.6,0.1,8.3,0.1c1.5,0,3-0.2,4.5-0.2c1.7,0,3.4,0.1,5.1,0.1c0.9,0,1.8,0.1,2.7,0.1c2.1,0,4.3-0.2,6.4-0.2
	c3.7,0,7.4,0.2,11.1,0.2c1.9,0,3.8-0.2,5.7-0.2c2.6,0,5.3,0.1,7.9,0.2c8.1,0,16.1,0,24.2,0l-474.1,0.7c-0.2,0-0.5-0.1-0.7-0.2
	c-2-1-4.1-0.6-6.1-0.3c-1.3,0.2-2.6,0.4-3.9,0.5h-4.2c-11.6,0-23.2-0.1-34.8-0.2c-2.4,0-4.9,0.2-7.3,0.2c-1.4,0-2.7-0.3-4.1-0.2
	c-2.3,0-4.5,0.2-6.8,0.3C-4.5,265.3-9.3,265.3-14,265.3z"/>
<path d="M56.7,265.2c-1.2,0-2.3,0-3.5,0h4.2C57.2,265.2,57,265.2,56.7,265.2z"/>
<path class="st0" d="M68.2,265.2H57.4c1.3-0.1,2.6-0.3,3.9-0.5c2.1-0.3,4.1-0.7,6.1,0.3C67.7,265.1,67.9,265.2,68.2,265.2z"/>
<path class="st0" d="M487,264.5c-0.9,0-1.8,0-2.7-0.1c-1.7,0-3.4-0.2-5.1-0.1c-1.5,0-3,0.2-4.5,0.2c-2.8,0-5.6-0.1-8.3-0.1
	c-1.4,0-2.7,0.1-4.1,0.1c-2.9,0-5.8-0.2-8.8-0.2c-15.5-0.1-31-0.1-46.4-0.1c-9.2,0-18.3,0.1-27.5,0.1c-5.8,0-11.6-0.1-17.4-0.1
	c-9.5,0-19,0.1-28.6,0.1c-14,0-28,0-42.1,0c-2.1,0-4.3-0.2-6.4-0.2c-1.6,0-3.2,0.2-4.8,0.2c-3.4,0-6.8,0-10.1-0.1
	c-1.1,0-2.1-0.2-3.2-0.1s-2.3,0.2-3.4,0.2c-2.8,0-5.5-0.2-8.3-0.2c-1.5,0-3.1,0.2-4.6,0.2s-3-0.2-4.4-0.2c-0.8,0-1.7,0.6-2.3,0.3
	c-0.8-0.3-1.6-0.4-2.4-0.3c-17.8,0-35.6-0.1-53.4-0.1c-15.1,0-30.1,0-45.2,0c-1.2-0.2-2.4-0.2-3.5-0.2c-1.4,0.1-2.7,0.1-4.1-0.1
	c-0.1,0-0.1,0-0.2,0c-0.6,0.3-1.3,0.4-1.8,0.1c-0.7-0.2-1.5-0.2-2.3-0.1c-13.2,0-26.4,0-39.6-0.1c-8.6,0-17.1,0-25.7-0.1
	c-3.9,0-7.7-0.1-11.6-0.1c-13-0.1-26-0.1-39-0.1c-4.7,0-9.4,0-14.1,0c-3.9,0-7.9-0.2-11.8-0.2c-0.9,0.1-1.9-0.1-2.7-0.4L0,201.9
	c1.3,0.2,2.6,0.3,3.9,0.4h0.3h0.1c2.3,0.2,4.7,0.3,7,0.2c7.8,0,15.6,0.2,23.4,0.4c5.3,0.1,10.7,0.2,16,0.1c4.4,0,8.8-0.3,13.3-0.5
	c5.3-0.2,10.6-0.4,15.9-0.6c4-0.1,8.1-0.2,12.2-0.3c5.9-0.1,11.7-0.3,17.6-0.4c4.8,0,9.7,0.1,14.5,0.3c1.9,0,3.8,0.3,5.7,0.3
	c2.9,0.2,5.8,0.3,8.8,0.4c3.9,0.2,7.7,0.5,11.6,0.6c1,0,2-0.1,3-0.2c2.7-0.2,5.3-0.4,8-0.7l0,0c1.5-0.1,3-0.2,4.5-0.3
	c3.3-0.2,6.6-0.4,9.8-0.4c3.9,0,7.8,0.5,11.7,0.5c4.1,0,8.2-0.3,12.3-0.6c2.3-0.2,4.5-0.6,6.8-0.7l5.7-0.1h0.3c1.1,0,2.2,0,3.3,0
	c3,0,6,0,9-0.2c0.1,0,0.1,0,0.2,0c1.9-0.1,3.8-0.3,5.6-0.7c0,0,0.1,0,0.1,0l14.9-1.7c2.4-0.2,4.9-0.5,7.3-1c2.6-0.5,5.2-1.2,7.8-1.9
	c5.1-1.2,10.4-1.6,15.6-1.2c5.8,0.4,11.6,0.2,17.4-0.3l21.6-1.7c3.7-0.2,7.4-0.5,11-1.1c1.9-0.4,3.9-0.6,5.9-0.6
	c3.2,0,6.4,0.4,9.6,0.6c4.3,0.2,8.5,0.4,12.8,0.5c3.4,0,6.8-0.1,10.2-0.2c3.2-0.1,6.3-0.3,9.5-0.3c2.8,0,5.6,0.1,8.4,0
	c4.5-0.2,8.9-0.5,13.4-0.9c3.1-0.2,6.2-0.5,9.3-0.9c3-0.3,6-0.4,9-0.1c5.7,0.3,11.3,1,17,1.2c5.2,0.2,10.4,0.5,15.6,1.1
	s10.1,1.1,15.1,1.6c3.6,0.3,7.1,0.5,10.7,0.6c2.6,0.1,5.1,0,7.7-0.3c2.9-0.2,5.7-0.8,8.4-1.8l4.9-1.5l10,1.2c0.3,0.3,0.6,0.6,1,0.9
	l0.4,0.3l0.2-1.1l9.6,2.7c0.1,0.8,0.3,1.6,0.5,2.4c0.1,0,0.1,0,0.2,0v-2.4h0.5c0.3,1.7,1.4,3.2,2.8,4.1c1.6,1.2,2.7,2.8,4.5,3.8
	c0.8,0.4,1.3,1.3,2,2c0.3,0.4,0.7,0.8,1.2,1.1c2.3,1.3,4.7,2.7,7,4c1.2,0.6,2.5,1,3.5,1.7c2.5,1.7,5.2,2.9,8.2,3.6
	c4.8,1,9.3,3.1,14.1,3.8c3.2,0.4,6.2,1.5,9.4,1.9c3.7,0.4,7.4,1.2,11.2,1.5c2.4,0.2,4.8,0.5,7.3,0.7c0.3,0.1,0.6,0.1,0.8,0.3
	l-0.4,0.6c1.2,0,2.3-0.1,3.5,0c1.5,0.1,3.1,0.4,4.6,0.6c2.1,0.3,4.2,0.7,6.3,1.2c1.6,0.5,3.3,0.7,5,0.7c0.9,0,1.8,0.1,2.7,0.2
	c2.5,0.3,5,0.6,7.5,0.9c2.2,0.3,4.4,0.6,6.6,0.9c1.4,0.2,2.7,0.4,4.1,0.5c1.6,0,3.2,0.1,4.8,0.3c4.5,0.7,9,1.1,13.6,1.3
	c1.3,0.1,2.5,0.1,3.8,0.3c4.4,0.5,8.8,1.5,13.4,1.2c1.9-0.1,3.8-0.3,5.7-0.3c3.3,0,6.6,0.2,9.9,0.3c1.1,0,2.3,0.1,3.4,0.3
	c2.4,0.4,4.9,0.6,7.3,0.4c3.2-0.1,6.4-0.2,9.7-0.4c1.4-0.1,2.8-0.3,4.2-0.6c1.7-0.3,3.4-0.6,5.1-0.9c1.9-0.3,3.9-0.7,5.8-1
	c0.3-0.1,0.6-0.1,0.9-0.1c3.3-0.1,6.6-0.9,9.7-2.2l1,0.7c0.4-0.2,0.7-0.4,1-0.6l0,0l3-1.8l0,0h0.1l0,0l0.1-0.1
	c0.7-0.6,1.4-1.1,2-1.7c0.7-0.5,1.4-1.1,1.9-1.8c0.7-1.2,1.3-2.5,1.8-3.9c0.4-0.9,0.7-1.9,0.9-2.9c0.5-2.4,0.8-4.8,1.5-7.1
	c0.6-2,0.8-4.1,0.6-6.2c-0.1-1.3,0-1.5,1.3-1.8c3-0.6,5.8-1.7,8.5-3.1c1.1-0.6,2.3-1,3.5-1.2c3.2-0.3,6.5-0.3,9.7,0.1
	c3.3,0.5,6.5,1.3,9.7,1.5c4.5,0.3,8.9,0.2,13.4,0.1l19.4,0.5c0.3,0.4,0.9,0.5,1.2,0.2c0.1-0.1,0.2-0.2,0.3-0.3l0,0l6.1-0.6
	c0.4,0,0.8,0,1.1,0c2.9,0.3,5.7,0.2,8.6-0.2c1.4-0.2,2.8-0.2,4-1.3l-0.2,69.7c-3.1,0-6.3-0.1-9.4-0.1c-1.3,0-2.7,0.1-4,0.1
	l-125.9,0.2c-0.3,0-0.5,0-0.8,0c-0.2,0-0.3,0-0.5,0h-19.6c-1.4-0.1-2.9-0.1-4.3,0h-12.3c-0.2,0-0.4,0-0.6,0c-0.7,0-1.3,0-2,0
	c0,0,0,0-0.1,0h-11.6c-1,0-2,0-3,0s-2,0-3,0l-86.3,0.1c-8.1,0-16.1,0-24.2,0c-2.6,0-5.3-0.2-7.9-0.2c-1.9,0-3.8,0.2-5.7,0.2
	c-3.7,0-7.4-0.2-11.1-0.2C491.3,264.3,489.2,264.5,487,264.5z M117.5,255.5c0.3,0.1,0.6,0.1,0.9,0c0.4-0.2,0.7-0.5,1-0.8
	c-1.5-0.4-2.7-0.8-3.9-1.2c-1.2-0.3-2.4-0.2-3.5,0.3c-0.2,0.1-0.3,0.6-0.6,1.3C113.8,254.5,115.7,255,117.5,255.5L117.5,255.5z
	 M569.4,249.8c0,0,0.1,0.1,0.2,0.2c0.9-0.6,1.8-1.3,2.5-1.8c1.2,0.5,2,1.3,2.9,1.3c1.9,0.1,3.4-1,5-1.9c-0.9-0.4-1.6-1-2.6-0.2
	c-1.6,1.4-2.1,1.3-3.8,0.1c-0.6-0.5-1.3-0.9-2.1-0.2S569.1,248.1,569.4,249.8z M267.5,231.6c-0.8,2-0.8,2.2,0.5,3.1l0.3-1.7l3.1,1.2
	c0.5-1,1-2,1.6-3.1c0.3-0.4,0.6-0.8,0.8-1.2c0.1-0.4,0.1-0.9,0-1.3c-0.4,0.3-0.7,0.6-1,0.9c-0.3,0.4-0.6,0.8-0.9,1.3
	c-1,1.4-1.2,1.5-2.8,1C268.4,231.8,267.9,231.7,267.5,231.6z M786.5,229.1c0.4,0.4,1,0.4,1.4,0c0.1-0.1,0.1-0.2,0.2-0.2
	c-0.6-1.2-1.9-1.6-3-2.3c-1.8-1.2-3.6-0.4-5.5-0.2c0.1,0.4,0.2,0.9,0.3,1.3c0.3,0.7,0.8,0.9,1.4,0.3c0.6-0.5,0.9-1.2,1.8-0.8
	c0.7,0.2,1.3,0.5,1.9,0.8C785.4,228.3,786,228.6,786.5,229.1L786.5,229.1z M396.6,212.3c0.2,0.1,0.3,0.1,0.5,0
	c0.2-0.2,0.4-0.5,0.6-0.6c1.3-1.1,2.6-2.2,4.6-1.1c0.7,0.2,1.5,0.2,2.3,0.1c0.7-0.1,1.5-0.3,2.2-0.5c-0.5-0.7-1.4-1-2.2-0.8
	c-0.9,0.1-1.9,0.1-2.8-0.2c-1.1-0.4-2.4-0.2-3.4,0.6c-0.8,0.7-1.6,1.4-2.4,2.1C396.4,212.1,396.5,212.2,396.6,212.3L396.6,212.3z"/>
<path d="M634.6,264.4h-6c1,0,2,0,3,0S633.6,264.4,634.6,264.4z"/>
<path d="M648.9,264.4h-2.6c0.6,0,1.3,0,2,0C648.5,264.4,648.7,264.4,648.9,264.4z"/>
<path d="M665.5,264.4h-4.3C662.6,264.3,664,264.3,665.5,264.4z"/>
<path d="M685.1,264.3c0.2,0,0.3,0,0.5,0c0.3,0,0.5,0,0.8,0H685.1z"/>
<path d="M825.6,264.1h-13.4c1.3,0,2.7-0.1,4-0.1C819.4,264,822.5,264.1,825.6,264.1z"/>
<path d="M118.4,255.6c-0.3,0.1-0.6,0.1-0.9,0c-1.9-0.5-3.7-1.1-6-0.3c0.3-0.7,0.3-1.2,0.6-1.3c1.1-0.5,2.3-0.6,3.5-0.3
	c1.2,0.4,2.4,0.7,3.9,1.2C119.1,255.1,118.8,255.4,118.4,255.6z"/>
<path d="M569.6,250c-0.2-0.1-0.2-0.2-0.2-0.2c-0.3-1.7,1.4-1.8,2.2-2.5c0.9-0.7,1.5-0.2,2.1,0.2c1.7,1.3,2.2,1.3,3.8-0.1
	c1-0.8,1.7-0.2,2.6,0.2c-1.6,0.9-3.1,2-5,1.9c-0.9-0.1-1.8-0.8-2.9-1.3C571.5,248.7,570.5,249.4,569.6,250z"/>
<path d="M267.9,234.7c-1.3-0.9-1.3-1.1-0.5-3.1c0.5,0.1,1,0.2,1.5,0.4c1.7,0.5,1.9,0.4,2.8-1c0.3-0.4,0.6-0.9,0.9-1.3
	c0.3-0.3,0.6-0.6,1-0.9c0.1,0.4,0.1,0.9,0,1.3c-0.2,0.4-0.5,0.8-0.8,1.2c-0.6,1-1.1,2.1-1.6,3.1l-3.1-1.2L267.9,234.7z"/>
<path d="M689.6,231.1c-2.4,0.2-4.9,0.1-7.3-0.4c-1.1-0.2-2.2-0.3-3.4-0.3c-3.3-0.1-6.6-0.3-9.9-0.3c-1.9,0-3.8,0.1-5.7,0.3
	c-4.5,0.3-8.9-0.7-13.4-1.2c-1.3-0.1-2.5-0.2-3.8-0.3c-4.5-0.1-9.1-0.6-13.6-1.3c-1.6-0.2-3.2-0.3-4.8-0.3c-1.4-0.1-2.7-0.3-4.1-0.5
	c-2.2-0.3-4.4-0.6-6.6-0.9c-2.5-0.3-5-0.6-7.5-0.9c-0.9-0.1-1.8-0.2-2.7-0.2c-1.7,0-3.3-0.2-5-0.7c-2.1-0.5-4.2-0.9-6.3-1.2
	c-1.5-0.3-3.1-0.5-4.6-0.6c-1.1-0.1-2.3,0-3.5,0l0.4-0.6c-0.3-0.1-0.6-0.2-0.8-0.3c-2.4-0.2-4.9-0.5-7.3-0.7
	c-3.8-0.3-7.5-1.1-11.2-1.5c-3.2-0.4-6.3-1.4-9.4-1.9c-4.9-0.7-9.4-2.8-14.1-3.8c-2.9-0.7-5.7-1.9-8.2-3.6c-1.1-0.7-2.4-1.1-3.5-1.7
	c-2.3-1.3-4.7-2.6-7-4c-0.4-0.3-0.8-0.7-1.2-1.1c-0.7-0.7-1.2-1.6-2-2c-1.8-0.9-3-2.6-4.5-3.8c-1.5-0.9-2.5-2.4-2.8-4.1h1.9
	c0,0.7,0.4,1.4,1,1.8c1.6,1.2,3.5,2,4.5,4c0,0.1,0.2,0.2,0.3,0.2c3,2.5,6,5,9.6,6.8c1.8,0.8,3.5,1.8,5.2,2.8c2,1.2,4.1,2.2,6.4,2.8
	c3.2,0.9,6.3,1.8,9.5,2.7c1.6,0.4,3.1,0.8,4.7,1.1c1.3,0.3,2.7,0.3,4.1,0.5c1.8,0.2,3.7,0.5,5.5,0.8c0.5,0.1,0.9,0.2,1.4,0.3
	c2.6,0.9,5.3,1.4,8.1,1.6c4.9,0.3,9.8,0.8,14.6,1.3c1.4,0.2,3,0,4.1,1.4c0.2,0.1,0.4,0.2,0.6,0.2c1.5,0.2,3.1,0.5,4.6,0.7
	c2.4,0.3,4.9,0.6,7.3,0.9c3.1,0.4,6.2,1.2,9.4,0.9c0.5,0,1,0.1,1.4,0.2c2.3,0.4,4.6,1,7,1.3c1.4,0.2,2.9-0.1,4.3,0.1
	c4.7,0.5,9.4,1,14.1,1.5c2.4,0.2,4.8,0.3,7.2,0.5c1.9,0.1,3.9,0.4,5.8,0.5c2.9,0.1,5.8,0,8.7,0.1c4.2,0.1,8.5,0.1,12.7,0.2
	c0.9,0,1.8,0.1,2.7,0.3c1.8,0.5,3.8,0.7,5.7,0.6c1.7-0.1,3.3-0.3,5-0.3c2.1,0,4.1-0.4,6.3-0.2c1.7,0.2,3.5-0.2,4.9-1.3l-2-0.2
	c0.5-0.3,1.1-0.4,1.7-0.4c2.4,0.1,4.8-0.3,7.1-1.1c1-0.3,2.1-0.4,3.2-0.3c0.8,0.1,1.6,0.1,2.4-0.1c0.8-0.2,1.7,0.1,2.6-0.2
	c0.8-0.2,1.6-0.4,2.4-0.5c3.7-0.6,6.8-2.6,9.7-4.7c0.3-0.2,0.5-0.5,0.7-0.8c1-2.3,2.8-4.2,2.9-6.9c0-0.3,0.1-0.6,0.3-0.8
	c1.2-3.2,1.9-6.7,1.9-10.1c0-1.1,0.1-2.2-1.6-2.5c0.3-0.2,0.6-0.3,0.8-0.4l3.9,0.1c-1.4,0.3-1.4,0.5-1.3,1.8c0.2,2.1,0,4.2-0.6,6.2
	c-0.7,2.3-1,4.8-1.5,7.1c-0.2,1-0.5,1.9-0.9,2.9c-0.5,1.3-1.1,2.6-1.8,3.9c-0.6,0.7-1.2,1.3-1.9,1.8c-0.7,0.6-1.4,1.1-2,1.7
	c-0.2-0.2-0.5-0.5-0.6-0.5c-1.2,0.5-2.3,1.1-3.3,1.9c0.3,0.2,0.5,0.3,0.7,0.4c-0.3,0.2-0.6,0.4-1,0.6l-1-0.7
	c-3.1,1.3-6.4,2.1-9.7,2.2c-0.3,0-0.6,0-0.9,0.1c-1.9,0.3-3.9,0.6-5.8,1c-1.7,0.3-3.4,0.6-5.1,0.9c-1.4,0.3-2.8,0.5-4.2,0.6
	C696,231,692.8,231,689.6,231.1z"/>
<path class="st1" d="M688.1,229.6c-1.9,0.1-3.8-0.1-5.7-0.6c-0.9-0.2-1.8-0.3-2.7-0.3c-4.2-0.1-8.4-0.2-12.7-0.2
	c-2.9,0-5.8,0-8.7-0.1c-2-0.1-3.9-0.3-5.8-0.5c-2.4-0.2-4.8-0.2-7.2-0.5c-4.7-0.5-9.4-1-14-1.5c-1.4-0.1-2.9,0.1-4.3-0.1
	c-2.3-0.3-4.7-0.9-7-1.3c-0.5-0.1-0.9-0.2-1.4-0.2c-3.2,0.3-6.3-0.5-9.4-0.9c-2.4-0.3-4.8-0.6-7.3-0.9c-1.5-0.2-3.1-0.4-4.6-0.7
	c-0.2,0-0.4-0.1-0.6-0.2c-1-1.4-2.6-1.2-4.1-1.4c-4.9-0.5-9.7-1-14.6-1.3c-2.7-0.1-5.5-0.7-8-1.6c-0.5-0.1-0.9-0.2-1.4-0.3
	c-1.8-0.3-3.6-0.5-5.5-0.8c-1.3-0.2-2.7-0.2-4.1-0.5c-1.6-0.3-3.1-0.7-4.7-1.1c-3.2-0.9-6.3-1.8-9.5-2.7c-2.2-0.7-4.4-1.6-6.4-2.8
	c-1.7-1-3.5-1.9-5.2-2.8c-3.6-1.7-6.6-4.3-9.6-6.8c-0.1-0.1-0.2-0.1-0.3-0.2c-0.9-2-2.9-2.8-4.5-4c-0.6-0.4-1-1-1-1.8l22.5,0.5
	c-0.3,0.7-0.6,1.3-0.9,2c-0.9,1.9-1.1,4-0.8,6.1c0,0.5,0.1,1.1,1,1c0.1-0.2,0.1-0.4,0.1-0.7c-0.3-2,0-4.1,0.9-5.9
	c0.4-0.8,0.7-1.6,0.9-2.5l22.3,0.5c0.4,1.5,0.5,3.1,0.1,4.6c-0.2,1-0.3,2-0.3,3c0,1.7-0.3,3.3-1,4.8c-0.5,1-0.9,2.1-1.2,3.2
	c-0.2,0.9-0.4,2,0.6,2.7c0-0.6,0.1-1.3,0.2-1.9c0.2-0.6,0.5-1.2,0.8-1.8c1.2-2.4,1.9-5.1,1.9-7.8c0-1.2,0.1-2.4,0.4-3.5
	c0.2-1.1,0.2-2.2-0.2-3.3l42.7,1c1.1,2.1,1.1,4.6,0.1,6.8c-0.8,2.1-1.3,4.2-1.3,6.5c0.1,1.2-0.2,2.5-0.7,3.6
	c-0.1,0.3-0.2,0.7-0.3,1.1c1.3-0.6,2.2-1.9,2.1-3.3c0-2.6,0.5-5.1,1.4-7.5c1-2.2,0.9-4.8-0.2-7l49,1.1c-0.3,1.7-0.1,3.4,0.4,5
	c0.4,1.3,0.6,2.6,0.6,4c-0.1,2.2-0.5,4.4-0.7,6.6c-0.1,0.9-0.4,1.8,0.2,2.6c2.1,0.3,2.8,0,2.8-1.5c-0.6,0.2-1.2,0.4-1.9,0.6l0.3-2.8
	c0.3-2.9,0.9-5.8,0-8.7c-0.4-1.6-0.6-3.1-0.5-4.8c0-0.3,0-0.7,0-1l0,0l45.7,1c-0.5,2.1-0.9,4.2-1.5,6.2c-0.5,2.1-0.3,3,1.5,3.8
	c-0.2-1.1-0.3-2.2-0.3-3.3c0.4-2.3,0.9-4.5,1.5-6.7l30.2,0.7c-0.2,0.1-0.5,0.3-0.8,0.4c1.7,0.3,1.6,1.4,1.6,2.5
	c0,3.5-0.7,6.9-1.9,10.1c-0.1,0.3-0.2,0.6-0.3,0.8c-0.1,2.7-1.9,4.6-2.9,6.9c-0.2,0.3-0.4,0.6-0.7,0.8c-3,2.2-6,4.1-9.7,4.7
	c-0.8,0.1-1.6,0.3-2.5,0.5c-0.9,0.3-1.8,0-2.6,0.2c-0.8,0.1-1.6,0.2-2.4,0.1c-1.1-0.1-2.2,0-3.2,0.3c-2.3,0.8-4.7,1.2-7.1,1.1
	c-0.6,0-1.2,0.1-1.7,0.4l2,0.2c-1.4,1.1-3.2,1.6-4.9,1.3c-2.1-0.3-4.2,0.2-6.3,0.2C691.4,229.4,689.7,229.5,688.1,229.6z
	 M689.8,228.5l0.4-0.3l-0.5-0.6l-0.2,0.2L689.8,228.5z M691.6,228.3c0.4,0,0.8-0.1,1.3-0.1v-0.3l-1.3,0.1L691.6,228.3z"/>
<path d="M788.1,228.8c-0.2,0.5-0.8,0.7-1.3,0.4c-0.1,0-0.2-0.1-0.2-0.2c-0.5-0.4-1-0.8-1.6-1.2c-0.6-0.3-1.3-0.6-1.9-0.8
	c-0.9-0.3-1.3,0.3-1.8,0.8c-0.5,0.5-1.1,0.4-1.4-0.3c-0.1-0.4-0.2-0.9-0.3-1.3c1.9-0.2,3.7-1,5.5,0.2
	C786.1,227.2,787.4,227.6,788.1,228.8z"/>
<path d="M690.2,228.2l-0.4,0.3l-0.4-0.7l0.2-0.2L690.2,228.2z"/>
<path d="M692.8,228.2c-0.4,0-0.8,0.1-1.3,0.1l-0.1-0.3l1.3-0.1L692.8,228.2z"/>
<path d="M729.9,224.3l-3,1.8l0,0c-0.2-0.1-0.4-0.2-0.7-0.4c1-0.8,2.1-1.5,3.3-1.9c0.1,0,0.4,0.3,0.5,0.5L729.9,224.3L729.9,224.3
	L729.9,224.3L729.9,224.3z"/>
<path d="M661.3,213.7c-0.1,1.5-0.7,1.8-2.8,1.5c-0.6-0.8-0.3-1.7-0.2-2.6c0.2-2.2,0.6-4.4,0.7-6.6c0-1.4-0.2-2.7-0.6-4
	c-0.5-1.6-0.6-3.3-0.4-5h1.2c0,0.3,0,0.7,0,1c0,1.6,0.2,3.2,0.5,4.8c0.9,2.9,0.3,5.8,0,8.7l-0.3,2.8
	C660.1,214,660.7,213.8,661.3,213.7z"/>
<path d="M605.6,213.7c0.1-0.4,0.2-0.7,0.3-1.1c0.6-1.1,0.8-2.4,0.7-3.6c0-2.2,0.5-4.4,1.3-6.5c1-2.1,1-4.6-0.1-6.8h1.1
	c1.1,2.2,1.2,4.8,0.2,7c-0.9,2.4-1.4,5-1.4,7.5C607.8,211.8,606.9,213.1,605.6,213.7z"/>
<path d="M397.1,212.2c-0.2,0.1-0.3,0.1-0.5,0c-0.1,0-0.3-0.2-0.6-0.5c0.8-0.7,1.5-1.5,2.4-2.1c0.9-0.8,2.2-1,3.4-0.6
	c0.9,0.2,1.8,0.3,2.8,0.2c0.8-0.2,1.7,0.1,2.2,0.8c-0.7,0.2-1.4,0.3-2.2,0.5c-0.8,0.2-1.5,0.2-2.3-0.1c-2-1.1-3.3,0-4.6,1.1
	C397.5,211.8,397.3,212,397.1,212.2z"/>
<path d="M562.2,213.2c-1.1-0.8-0.9-1.8-0.6-2.7c0.3-1.1,0.7-2.2,1.2-3.2c0.7-1.5,1-3.2,1-4.8c0.1-1,0.2-2,0.3-3
	c0.3-1.5,0.3-3.1-0.1-4.6h1.2c0.4,1.1,0.5,2.2,0.2,3.3c-0.3,1.2-0.4,2.4-0.4,3.5c0,2.7-0.7,5.4-1.9,7.8c-0.3,0.6-0.5,1.2-0.8,1.8
	C562.2,211.9,562.2,212.5,562.2,213.2z"/>
<path d="M704.9,208c-1.8-0.8-2.1-1.8-1.5-3.8c0.5-2.1,1-4.2,1.4-6.2h1.3c-0.6,2.2-1.1,4.5-1.5,6.7C704.6,205.8,704.7,207,704.9,208z
	"/>
<path d="M539.6,203.4c-0.8,0.1-0.9-0.5-1-1c-0.3-2.1-0.1-4.2,0.8-6.1c0.3-0.6,0.6-1.3,0.9-2h1.2c-0.3,0.9-0.6,1.7-0.9,2.5
	c-0.9,1.8-1.2,3.9-0.9,5.9C539.7,202.9,539.7,203.1,539.6,203.4z"/>
<path d="M50.7,203.1c-5.3,0.1-10.7,0-16-0.1c-7.8-0.2-15.6-0.4-23.4-0.4c-2.3,0-4.7-0.1-7-0.2l23.7-0.6c4.7,0,9.4,0.2,14.1,0.2
	c2.8,0,5.6-0.1,8.4-0.2c2.3,0,4.5,0,6.8-0.2c1.1-0.1,2.2-0.2,3.2-0.2c0.2,0,0.3,0,0.5,0c1,0,1.9,0,2.9-0.1l0,0l20.9-0.6
	c1.9,0,3.7-0.1,5.6-0.1s3.6-0.1,5.4-0.2h0l47,1.1h0.1c2.4,0.2,4.8,0.3,7.2,0.2l11.2,0.4c-2.7,0.2-5.3,0.4-8,0.7c-1,0.1-2,0.2-3,0.2
	c-3.9-0.2-7.7-0.4-11.6-0.6c-2.9-0.2-5.8-0.3-8.8-0.4c-1.9-0.1-3.8-0.3-5.7-0.3c-4.8-0.1-9.7-0.3-14.5-0.3c-5.9,0-11.7,0.2-17.6,0.4
	c-4.1,0.1-8.1,0.2-12.2,0.3c-5.3,0.2-10.6,0.4-15.9,0.6C59.5,202.7,55.1,203,50.7,203.1z"/>
<path d="M28,201.7l-23.7,0.6c-0.1,0-0.2,0-0.4,0L0,202c4.8-0.1,9.5-0.2,14.3-0.3C18.9,201.6,23.4,201.7,28,201.7z"/>
<path d="M0,201.9l3.9,0.4C2.6,202.2,1.3,202.1,0,201.9z"/>
<path d="M161.3,202.1L161.3,202.1l-11.2-0.4c1.4,0,2.8,0,4.3-0.1c3.9-0.3,7.8-0.7,11.8-1.1c3-0.4,6-0.6,9.1-0.5L161.3,202.1z"/>
<path d="M161.3,202.1l13.9-2.1c0.5,0,1,0,1.4,0.1l7.2,0.3c2.6,0.3,5.2,0.4,7.8,0.3c0.7,0,1.3-0.1,2-0.1l12.8,0.2
	c-2.3,0.1-4.5,0.5-6.8,0.7c-4.1,0.3-8.2,0.6-12.3,0.6c-3.9,0-7.8-0.5-11.7-0.5c-3.3,0-6.6,0.2-9.8,0.4
	C164.3,201.8,162.8,201.9,161.3,202.1z"/>
<path class="st0" d="M50.5,201.8c-2.8,0.1-5.6,0.2-8.4,0.2c-4.7,0-9.4-0.2-14.1-0.2l32.5-0.3c-1.1,0-2.2,0.1-3.2,0.2
	C55,201.7,52.7,201.8,50.5,201.8z"/>
<path class="st0" d="M150.1,201.7c-2.4,0-4.8-0.1-7.2-0.2L150.1,201.7z"/>
<path d="M142.7,201.5l-47-1.1c1.7-0.1,3.3-0.1,5-0.2c0.9,0,1.8-0.4,2.3-1.1c0.6-0.6,1.2-1.2,1.8-1.8c0.9-0.8,1.2-0.6,2.1,0.1
	c1.4,0.9,2.8,1.8,4.2,2.6c0.3,0.1,0.7,0.1,1.1,0.1c1.9,0,3.8,0,5.7,0c1.1,0,2.3,0,3.4,0.1c2.1,0.1,4.2,0.4,6.2,0.3
	c4,0,8,0.3,11.9,0.8C140.7,201.3,141.7,201.4,142.7,201.5z M104.6,200.1h3.9c-0.7-0.5-1.1-0.7-1.4-1
	C105.6,197.8,105.1,198.1,104.6,200.1L104.6,200.1z"/>
<path class="st0" d="M61,201.3l2.9-0.1C62.9,201.3,61.9,201.3,61,201.3z"/>
<path d="M84.7,200.7l-20.8,0.6c0.7,0,1.3-0.1,2-0.2c2.5-0.4,5.1-0.1,7.6-0.2C77.3,200.8,81,200.8,84.7,200.7z"/>
<path class="st0" d="M84.7,200.7l11-0.3c-1.8,0.1-3.6,0.1-5.4,0.2S86.6,200.6,84.7,200.7z"/>
<path class="st0" d="M191.6,200.6c-2.6,0.1-5.2,0-7.8-0.3l9.8,0.1C192.9,200.5,192.2,200.5,191.6,200.6z"/>
<path d="M206.4,200.6l-12.8-0.2c2.8-0.2,5.5-0.5,8.3-0.7c0.6-1.8,0.8-3.5,2.8-4.7c0.2,0.4,0.4,0.7,0.6,1c1.3,1.5,1.3,1.5,3.3,0.7
	c0.4,0.5,0.7,1,1,1.5c0.3,0.8,1.1,1.3,2,1.2c0.9-0.1,1.8-0.2,2.7-0.2c1.4,0,2.8,0,4.2,0c1,0,1.9-0.1,2.9-0.1
	c3.8-0.1,7.5-0.5,11.2-1.3c2.3-0.4,4.6-0.6,6.9-0.7c3.8-0.3,7.5-0.4,11.2-1c2.9-0.5,5.8-1.1,8.7-2c3.5-1.1,7.2-1.7,10.9-1.8l0,0
	l-24.9,5.7c-5,0.4-10,0.9-14.9,1.7c0,0-0.1,0-0.1,0l-5.6,0.7c-0.1,0-0.1,0-0.2,0l-12.3,0.2H212C210.1,200.5,208.3,200.5,206.4,200.6
	z M203.7,198.4c-0.1,0.5,0.1,1,0.7,1c1.4-0.1,2.7-0.3,4.1-0.4v-0.4c-1.4-0.3-3.2,0.2-4.2-1.6C204.1,197.5,203.9,198,203.7,198.4z"/>
<path d="M224.6,200.3c-3,0.2-6,0.3-9,0.2c-1.1,0-2.2,0-3.3,0L224.6,200.3z"/>
<path d="M224.8,200.3l5.6-0.7C228.6,200,226.7,200.2,224.8,200.3z"/>
<path d="M183.7,200.3l-7.2-0.3C179,200,181.4,200,183.7,200.3z"/>
<path class="st2" d="M108.5,200.1h-3.9c0.4-2,1-2.2,2.5-1C107.4,199.4,107.8,199.6,108.5,200.1z"/>
<path class="st2" d="M204.5,199.4c-0.6,0-0.8-0.5-0.7-1c0.2-0.5,0.4-0.9,0.7-1.4c1,1.8,2.7,1.3,4.2,1.6v0.4
	C207.2,199.2,205.8,199.4,204.5,199.4z"/>
<path d="M740.3,198.8L753,193l8.9,1.6c-3.2-0.4-6.4-0.5-9.7-0.1c-1.2,0.2-2.4,0.6-3.5,1.2C746.1,197.1,743.2,198.1,740.3,198.8z"/>
<path d="M632.7,110.2L632.7,110.2c-0.3,0.3-0.6,0.5-1,0.7c-1.5,0.4-3,0.6-4.6,0.8c-1.8,0.3-3.6-0.1-5.2-1c-1.2-0.8-2.7-1.2-4.2-1.3
	c-0.8,0.8-1,2-0.6,3c0.8,2.2,0.9,4.5,0.2,6.7c1.1,0.5,2.3,0.8,3.5,1c1.7,0.1,3.3,0,5-0.2c0.5-0.1,0.9-0.3,1.3-0.5
	c1.7-0.7,3.5-1.4,5.2-2.1L632.7,110.2L632.7,110.2c0.2,0.1,0.3,0.2,0.4,0.3c0.8,0.7,1.1,1.8,1,2.8c0,1.2,0.1,2.4,0.3,3.6l3.5-0.9
	c0-1,0-2.1,0-3.1c0.1-0.9-0.5-1.7-1.5-1.8c0,0-0.1,0-0.1,0v-2C635.1,109.5,634,109.9,632.7,110.2
	C632.7,110.2,632.7,110.2,632.7,110.2z M662.5,143.6L662.5,143.6c0.1-0.3,0.2-0.7,0.3-1c0.9-1.8,1.9-3.4,2.7-5.2
	c1-2.7,2.4-5.2,4.1-7.5c1.3-1.5,2.8-3,4.1-4.4c1.3-0.1,1.6-1.1,1.8-2.1c0.4-2.3,0.7-4.6,1-6.9c0-0.4-0.1-0.8-0.2-1.2
	c-1.3,2.4-2.5,4.7-3.9,6.9c-1.7,2.7-3.4,5.3-5.2,7.9c-1,1.6-2.1,3.2-3.3,4.7c-1,1.3-2.3,2.4-3.7,3.3c-1.3,0.8-2.4,1.9-3.1,3.3
	c1.5,0.9,2.7,1.7,4,2.4C661.6,143.8,662.1,143.6,662.5,143.6L662.5,143.6L662.5,143.6c-0.3,0.7,0,1.5,0.7,1.8c0.1,0,0.1,0,0.2,0.1
	C663,144.9,663.7,143.8,662.5,143.6L662.5,143.6L662.5,143.6z M753,193l-12.8,5.8l-3.9-0.1c0.2-0.1,0.4-0.2,0.6-0.3
	c-0.2-2.9-0.3-5.8-0.7-8.6c-0.2-1.6-0.9-3.1-1.2-4.7c-0.4-2.9-1.6-5.5-2.4-8.3c-0.9-3.1-3.1-5.6-4.5-8.5c-0.1-0.2-0.3-0.3-0.4-0.4
	c-2.3-2.5-4.5-5.1-7-7.5c-1.8-1.9-4.1-3.3-6.6-4c-0.7-0.2-1.5-0.1-2.2,0.3c-1.3,0.7-2.4,1.8-2.9,3.2c-0.7,1.7-1.7,3.1-3,4.3
	c-2.2,1.7-4.6,3-6.8,4.6c-0.3,0.2-0.5,0.4-0.7,0.7c-0.7,1.6-1.9,2.5-3.5,2.3c-0.8-0.1-1.6,0.1-2.2,0.7l0.2,1.3
	c-1.9-0.2-3.8-0.7-5.6-1.5c-0.7-0.6-1.2-1.3-1.5-2.1c-0.3-0.7-0.6-1.4-0.8-2.2c2-2.1,3.3-4.7,3.9-7.5c0-1.1,0-1.8,0-2.6
	c0-0.5,0-1.1-0.1-1.6c-0.2-1-0.6-1.9-0.8-2.9c-0.3-1.7-1.5-2.7-2.6-3.8c-0.8-0.7-1.8-0.4-2.8-0.4c-0.8,0-1.5-0.3-2.3-0.3
	c-0.9-0.1-1.9-0.1-2.8,0.2c-2.2,1.1-4.4,2.1-5.5,4.6c-0.2,0.3-0.3,0.5-0.6,0.7c-1.6,1.8-1.6,1.8-0.3,4.1c0.8,1.2,1.3,2.6,1.5,4.1
	c0.4,3.2,0.6,6.7-2.7,8.9c-0.1,0.1-0.3,0.3-0.4,0.4c-0.4,0.5-1,0.7-1.6,0.5c-0.5-0.1-0.9-0.2-1.4-0.3c-2.6-0.7-4.7-1.9-5.5-4.7
	c-0.2-0.5-0.5-1-0.9-1.3c-1.4-1.8-2.9-3.6-4.3-5.4c-0.8-1-1.5-2-2.3-3.1c-0.2,1.4-0.3,2.5-0.6,3.6c-0.2,1.3-0.6,2.5-1.3,3.7
	c-2.8,3.7-5.9,7.1-10.2,9c-0.1,0.6-0.2,1.2-0.5,1.7c-0.4,0.7-0.9,1.6-1.4,1.7c-0.8,0.1-1,0.6-1.4,1s-0.7,0.8-1.1,1.2
	c-0.9,1-1.5,1.1-2.7,0.5c-1-0.5-2-1.1-2.9-1.8c-1.1-1.1-2.8-1.7-3.3-3.2c0.8-1.3,1.5-2.5,2.3-3.5c0.8-1.1,1.3-2.4,1.6-3.8
	c0.1-0.4,0.3-0.8,0.7-1c0.8-0.5,0.7-1.1,0.4-1.9c-0.9-2.3-1.8-4.5-2.8-6.8c-0.2-0.4-0.7-0.6-1-0.8c-0.1-0.5-0.3-0.9-0.4-1.4
	c-0.7,0.6-1-0.6-1.8-0.3c-1.2,0.6-2.5,1-3.9,1.3c-2,0.3-4,0.2-6.1,0.3c-0.6,0-1.3,0.1-1.8,0.4c-2.2,1.5-4.3,3.2-6.6,4.5
	c-1.7,1.1-3.2,2.5-4.2,4.3c-0.4,0.8-0.8,1.6-1.1,2.5c0.5,0.5,1,0.9,1.5,1.3c2.4,1.3,4.6,2.8,5.5,5.6c0.2,0.5,0.7,1,0.7,1.5
	c-0.1,0.7-0.4,1.3-0.9,1.7c-1.1,1.1-2.3,2-3.6,2.9c-0.8,0.6-1.9,0.6-2.7,0.1c-1.1-0.6-2.2-1.2-3.2-1.9c-1.5-1.2-3.2-2.1-5-2.7
	c-2-0.6-4-1.3-5.9-2.1c-1.1-0.5-2.1-1.1-3.1-1.7c-0.3-0.2-0.6-0.5-0.9-0.9c-0.5-0.8-1-1.6-1.5-2.5c-1.8-3.2-2.6-6.4-1.1-9.9
	c0.1-0.4,0.1-0.7,0.1-1.1c-1.7,0.2-3.3,0.3-4.8,0.6c-1.7,0.1-3.4,0.6-4.9,1.5c-3.4,2-7,3.6-10.8,4.9c-3.1,1.2-6.3,2.1-9.5,3.3
	c-2.8,1.1-5.8,2-8.4,3.6c-1.1,0.6-2.2,1.2-3.4,1.6c-2.8,1.1-5.7,1.8-8.3,3.4c-0.8,0.5-1.7,0.9-2.5,1.4c-2.7,1.6-5.4,3.2-8.1,4.8
	c-2,1.2-2.9,3.3-3.9,5.3c-0.6,1.3-1,2.6-1.3,3.9c0,0.2-0.1,0.4-0.1,0.5h-1.9c0-0.3-0.1-0.6,0-0.9c-0.1,0.1-0.3,0.1-0.4,0.2v0.7h-0.7
	c-0.2-1.3-0.3-1.3-1.5-1.5c-2.6-0.4-5.3-0.8-8-1.2l-1.6-0.2c-0.2-0.1-0.3-0.2-0.5-0.3c-3.1-0.8-6.3-1.5-9.5-0.9
	c-1.4,0.3-2.8,0.7-4.1,1.2c-0.3,0.1-0.5,0.2-0.7,0.3l-3.1,1l-6-0.3c3.4-0.2,6.7-1,9.8-2.3c3.1-1.3,6.5-1.6,9.8-1
	c0.9,0.1,1.9,0.4,2.8,0.5c0.5,0,1.1,0.5,1.6-0.1c0.1-0.1,0.3-0.1,0.5,0c3.1,1.7,6.6,2.5,10.1,2.3c0.7,0.1,1.3-0.2,1.7-0.8
	c1.1-1.6,2.7-2.8,3.5-4.7c0.6-1.3,2-2.2,3.1-3.1c1.1-0.8,2.2-1.5,3.3-2.1c1.3-0.8,2.7-1.6,4-2.3c2.8-1.5,5.7-3.1,8.5-4.6
	c0.3-0.2,0.6-0.3,1-0.3c2.6-0.2,5-1.1,7.1-2.6c0.3-0.2,0.5-0.4,0.7-0.6c0.7-0.8,1.6-1.2,2.6-1.3c2.6-0.6,5.2-1.1,7.4-2.8
	c0,0,0.1-0.1,0.1-0.1c2.3,0.2,3.6-1.8,5.6-2.5l-0.1,1c2-0.8,4-1.2,5.6-2.6c-0.5,0.1-1.1,0.1-1.6,0.2l0-0.2c1.1-0.3,2.2-0.6,3.3-1
	c1.5-0.5,2.9-1.1,4.3-1.7c1.7-0.7,3.5-1.2,5.3-1.3c1.4,0,2.7-0.7,4.1-1c1.3-0.3,2.6-0.8,3.8-1.4l0,0l0,0c-0.3,0.6-0.6,1.2-0.9,1.8
	c-2.2,2.8-2.7,6.5-1.4,9.8c0.5,1.3,1.1,2.5,1.8,3.7c0.2,0.5,0.6,0.9,1,1.3c1.8,1.2,3.7,2.1,5.7,2.8c2.4,0.7,4.9,1.3,7,2.9v0.1l0,0
	l0,0c1.2,1.2,2.6,2.1,4.1,2.7c0.4,0.2,0.9,0.2,1.4,0c1.4-0.9,2.9-1.6,3.6-3.6l-3.3-4.2c-0.7,0.6-1.2,1-1.6,1.4
	c-0.5,0.4-0.9,1.1-1.5,1.5c-0.9,0.8-1.8,1.5-2.7,2.2l0,0l0,0c0-0.8,0.4-1.5,0.9-2c1.1-1.1,2.1-2.3,3-3.6c-0.9-0.8-1.6-1.7-2.3-2.7
	c-1-2.2-2.1-4.3-3.5-6.2c-1.3-1.7-2.4-3.4-3.6-5.1c-1.1-1.7-3-2.7-5-2.7c-0.9,0-1.8,0.2-2.7,0.2v-0.1h-0.1c0.4-1.2,1.5-1.5,2.7-1.8
	c-0.3-0.2-0.7-0.4-1.1-0.5c-2.7-0.4-3.6-2.3-4.1-4.5c-0.3-1.2-0.4-2.4-0.3-3.6c0.2-2.1,1.2-4,2.8-5.4c0.5-0.4,1-0.7,1.5-1.1
	c0-0.4,0-0.7-0.1-1.1c-0.3-0.9,0-1.9,0.9-2.3c0.6-0.3,0.9-0.9,1-1.6c1.1-6.3,3.3-12.3,6.4-17.8c1.6-3,3.9-5.6,6.6-7.7
	c1.7-1.1,3.5-2.1,5.3-2.9c0.9-0.3,1.7-0.5,2.6-0.6c-0.7-1.3-1.5-2.6-2.2-4s-1.3-2.7-1.8-4.1s-0.9-1.7-2.3-1.2
	c-2,0.3-4.1-0.6-5.3-2.2c-1.1-1.6-1.5-3.6-1-5.5c0.2-1.4,0.7-2.8,1.5-4c0.4-0.8,0.4-1.8,0.1-2.7c-0.5-2.1,0.1-4,0.7-5.9
	c0.8-2.3,1.6-4.6,2.4-6.9c0-0.1,0.1-0.3,0.1-0.4c-0.6-1.6,0.8-2.4,1.5-3.5c1.5-2.4,3.2-4.8,4.8-7.1c0.6-0.8,1.3-1.6,2-2.3
	c0.8-0.8,1.7-1.5,2.6-2.2c0.8-0.6,1.6-1,2.4-1.5c0.9-0.5,1.9-1,2.9-1.4c0.3-0.2,0.7-0.3,1-0.4c3-0.4,5.9-1.4,9-1.3
	c2.3,0.2,4.6,0.7,6.8,1.5c0.1,0,0.2,0.1,0.3,0.2l4.7,4.4c0.4,0.4,0.9,0.8,1.3,1.2c0.5,0.4,0.9,0.6,1.2,1.1c2.2,3.9,4.5,7.8,3.8,12.6
	c-0.2,1-0.3,2.1-0.4,3.2c-0.1,0.2-0.1,0.5-0.1,0.7c0.6,2.2-0.9,3.7-2,5.2c-0.8,1.1-1.8,2.1-2.7,3.3c0.3,1.1,0.5,2.2,0.9,3.4
	c0.7,1.8,0.9,3.9,0.5,5.8c-0.2,0.6,0.1,1.2,0.6,1.5c0.8,0.6,1,1.6,0.5,2.4c-0.6,1.4-1.1,2.8-1.2,4.4c-0.1,1.8-0.9,3.5-2.1,4.8
	c-1.2,1-2.1,2.3-2.5,3.7c0.6-0.2,1.2-0.4,1.8-0.7c0.8-0.5,1.9-0.4,2.7,0.1c1.9,1,3.2,2.8,3.7,4.9c0.9,2.7,1.9,5.3,3.2,7.8
	c1.8,3.8,2.4,8,3.3,12c0.1,0.5,0.1,0.9,0,1.4c-0.2,1.2-0.5,2.4,0.5,3.6c0.3,0.3,0.1,1,0.2,1.5l0.2,2.7c0.7-0.6,1.1-0.9,1.5-1.2
	c1.5-1.3,3.1-2.5,4.5-4c1.3-1.4,2.5-2.9,3.6-4.5c2-2.8,3.8-5.6,5.7-8.4c1.1-1.4,2-3,2.9-4.5c0.8-1.6,1.3-3.5,2-5.2
	c0.2-0.6,0.6-1.1,1.1-1.5c-0.7-2.9-2.5-5.9-0.1-8.9c-1.1-0.7-2-1.4-3-1.9c-2.6-1.4-4.3-4-4.6-6.9c0-0.2-0.1-0.3-0.1-0.5
	c0.2-4.7,4.3-8.3,9-8.1c0.4,0,0.9,0.1,1.3,0.2c0.7,0.1,1.4,0.3,2.2,0.4c1.5-4.9,5.4-8.1,8-12.5c-1.8-1.1-1.7-3-1.7-4.8
	c-0.1-3,0.8-6,2.4-8.6c3-4.6,7-8.2,11.1-11.9c1.9-1.7,3.7-3.4,5.4-5.2c1.7-2,3.1-4.3,4-6.7c0.6-1.3,1.6-2.4,2.8-3.1
	c0.7-0.4,1.4-0.7,2.1-1c2.2,1,3,2.3,2.5,4.8c-0.3,1.6-0.8,3.1-1.6,4.5c-0.8,1.1-1.7,2-2.7,2.8c-0.4,0.4-0.9,0.8-1.4,1.2
	c-0.8,0.6-1.2,1.6-1,2.6c0.4,2.2-0.8,3.8-2.7,4.9c-1.5,0.8-3,1.5-4.5,2.2c-0.2,0.1-0.4,0.2-0.5,0.4c0.3,1.1,0.7,2,1,3
	c0.5,1.7-0.3,2.9-1.6,3.9c-1.9,1.6-3.9,3.3-5.8,5c-0.7,0.8-1.1,1.9-1.2,2.9h8c-0.5,0.3-0.8,0.4-1,0.5c1.4,0.9,2.7,1.7,4.1,2.5
	c1.6-2.1,3-4,4.5-6c2.2-2.9,4.8-5.3,7.8-7.4c4.8-3.4,9.2-7.2,13.3-11.4c2-2,4.1-3.8,6.4-5.5c1.3-1.1,3.1-1.3,4.6-0.5l0.2,0.6
	c0.3,1.2,1,2.3,0.4,3.6c-0.7,1.9-2.1,3.5-3.8,4.6c-1,0.5-2.1,1.1-3,1.5c0.1,1.6,0.3,3,0.2,4.4c0,1-0.6,1.9-1.5,2.3
	c-1.7,0.7-3.4,1.3-5.3,2c-0.1,0.2-0.1,0.5-0.1,0.8c0.2,1.7-0.8,2.9-1.7,4.1c-1.3,1.7-3.3,2-5.1,2.9c-2.5,1.2-5,2.3-7.3,3.6
	c-1.9,1.1-3.6,2.6-5,4.3c-0.5,0.5-1,1-1.6,1.4c-0.3,3,0.6,6,1.1,8.9c0.2,1,0.4,2,0.4,3c-0.1,0.8-0.3,1.6-0.7,2.4
	c-0.4,0.9-1,1.7-1.5,2.6c0.3,0.6,0.6,1.1,0.9,1.6c1,1.1,0.8,2.1,0.1,3.3s-0.9,2.3-2.1,2.7c-0.6,0.3-1.2,0.5-1.8,0.6
	c-0.9,0.2-1.8,0.3-2.6,0.4c-1,2.3-0.6,2.6-7.2,8.7c0.2,1.7,0.4,3.3,0.8,5c1.4,5.4,2.9,10.7,5.9,15.5c1.1,1.8,2.3,3.5,3.4,5.4
	c0.5,0.8,0.9,1.7,1.2,2.6c0.3,1.3,0.8,2.5,1.4,3.6c0.6,1,0.5,2.5,0.6,3.8c0.1,2.1,0.1,4.2,0.1,6.3c0,0.4,0.1,0.8,0.2,1.1
	c0.2,0,0.5,0,0.7-0.1c2.4-1,5.1-0.6,7.1,1c0.9,0.6,1.8,1.2,2.6,1.9c1.3,1.2,2.6,2.5,3.8,3.7c1.6,1.6,3.2,3.3,4.7,5
	c0.7,0.9,1.3,1.8,1.8,2.8c0.2,0.3,0.3,0.7,0.5,1c1.5,2.4,3.1,4.7,4.4,7.2c0.8,1.6,1.3,3.3,1.7,5.1c0.9,3.8,1.4,7.6,1.5,11.5
	c0.1,1.1,0.3,2.2,0.6,3.3c3.5-0.5,6.8-1.8,9.8-3.6C750.4,193.6,751.7,193.1,753,193L753,193z M734.9,182.2c0.1,0,0.3-0.1,0.5-0.1
	c0.1-0.8-0.2-1.7-0.8-2.3l-0.4,0.1L734.9,182.2z M631.7,176c1.2,1.1,2.6,2,4.2,2.6c0.8-1.2,1.5-2.2,2.3-3.3c0.6-0.6,1-1.3,1.5-2
	c0.7-1.5,2-2.5,3.6-2.8c1.7-0.4,3.2-1.4,4.3-2.8c1.9-2.4,3.3-5.3,4-8.3c0.4-1.8,0.8-3.7-0.6-5.3c-0.7-0.7-1.4-1.4-2.3-1.9
	c-1.3-1-3.2-0.8-4.4,0.4c-0.5,0.6-1,1.2-1.4,1.8c-0.8,1.2-1.6,2.4-2.4,3.6c-2.2,3.1-4.4,6.2-6.6,9.3c-0.1,0.3-0.2,0.5-0.3,0.8
	c-0.7,2-1.4,4-2.2,6C631,174.8,631.2,175.6,631.7,176z M687.6,169.8c0.6,1.7,1.5,2.2,3.3,1.7s3.5-0.9,5.1-1.4
	c0.4-0.1,0.9-0.6,0.9-0.9c0.1-1.2,0.9-1.6,1.8-2.1c1.3-0.7,2.6-1.5,3.9-2.1c3.6-1.7,5.8-5.4,5.6-9.4c0-2.8-0.5-5.7-0.9-8.9
	c-0.7,0.5-1,0.8-1.3,1c-0.6,0.5-1.2,1-1.8,1.4c-1.8,1.2-3.6,2.4-5.3,3.7s-2.9,2.8-4.4,4c-2.6,2.2-3.6,5.4-5.6,8.1
	c0.6,0.2,1.1,0.2,1.4,0.4c1.2,1.1,2.3,2.3,3.4,3.4c0.2,0.3,0.3,0.5,0.4,0.8l-0.3,0.3l-5.3-4.5l-1.7,2.7
	C687.1,168.8,687.4,169.3,687.6,169.8z M664.4,169.1c1.1,1.2,2.7,2,4.3,2c0.4-0.6,0.9-1.1,1.4-1.6c0.6-0.4,1-1,1-1.8
	c0-0.9,0.2-1.8,0.3-2.7c0.1-0.8,0.1-1.7-0.1-2.5c-0.7-1.8-1.5-3.6-2.4-5.4c-0.6-1.2-1.2-2.3-1.9-3.4c-0.8-1.5-1.7-3-2.6-4.5
	c-1.1-1.5-2.4-2.8-3.6-4.1c-1.7-1.9-4.3-2.9-6.9-2.6c-0.1,1.4-0.2,2.6-0.4,3.8c-0.7,4,0.1,8.2,2.3,11.7c0.2,0.4,0.4,0.7,0.7,1
	c2.4,1.6,3.3,4.5,5.5,6.3c0.2,0.2,0.3,0.5,0.4,0.8C662.9,167.2,663.5,168.2,664.4,169.1z M602.8,166.2c0.6-0.7,1-1.4,1.5-1.9
	c0.9-1.1,1.9-2.1,3-3c1.5-1.2,3.3-2.2,4.9-3.3c0.5-0.4,1-0.8,1.5-1.3c-0.7-0.6-1.3-1.3-1.9-2c-0.2-0.3,0.1-0.8,0.1-1.3
	c0.4,0.1,1,0.1,1.2,0.4c0.8,0.8,1.9,1.3,3,1.5c2.2,0.5,4.4,0.5,6.5,0.1c2-0.3,3.9-1.1,5.5-2.4c1.5-1.2,3-2.4,4.6-3.6
	c0.4,0.1,0.6,0.6,0.5,1c0,0.1-0.1,0.2-0.2,0.3c-0.4,0.6-0.9,1.1-1.4,1.6c-0.5,0.5-1.1,1-1.6,1.5c1.7,3.3,4,6,4.7,9.9
	c0.5-0.7,0.8-1.1,1-1.5c1.2-1.9,2.4-3.9,3.7-5.7c0.7-0.8,1-1.9,0.8-3c-0.2-0.8,0.1-1.6,0.7-2.1c1.9-2,3.3-4.3,4.3-6.9
	c1.7-4.2,1.6-8.7,1.3-13.1c-0.1-0.7-0.4-1.4-0.9-1.9c-1.1-1.7-2.2-3.4-3.3-5.1c-0.7-1.3-1.9-2.3-3.2-3c-0.4,1.2-0.8,2.3-1.2,3.3
	c-0.3,0.7-0.6,1.4-1,2.1c-0.6,1-1.3,0.9-1.8-0.1c-0.5-1.2-1.1-2.3-1.8-3.3c-1-1.2-1.8-2.3-1.5-4.2l-1.7,0.6
	c-1.4,0.6-2.8,1.5-4.3,1.7c-2.2,0.2-4.5,0.2-6.7,0c-1.4-0.1-2.1-0.2-2.7,1.3c-0.6,1.4-1.3,2.7-2.1,4c-0.6,1-1.4,1.1-2,0.1
	c-0.3-0.5-0.5-1-0.7-1.5c-0.6-1.5-1-1.7-2.2-0.7c-1.1,1-2,2-2.9,3.2c-1.3,1.5-2.2,3.3-2.7,5.1c-0.9,3.7-1.1,7.5-0.6,11.2
	c0.3,2,0.4,3.9,0.5,5.9c0.1,1.5-0.4,3-1.4,4.1c-1.4,1.5-2.8,3-4.2,4.5L602.8,166.2z M690.8,154.6c-0.5,1.1-0.3,2.4,0.5,3.3l7.6-6.7
	c-2.3-5.2-4.3-10.5-5.8-15.9c-2.2,0.1-4.4,0.4-6.6,0.7c-2.5,0.5-4.8,1.3-7.4,0.8c-2.2-0.3-4.3-0.5-6.5-0.6
	c-2.3,3.7-4.5,7.3-7.7,10.2c-0.6,0.5-0.4,1,0,1.6c0.8,0.7,1.4,1.6,1.9,2.5c0.7,1.6,1.5,3.2,2.4,4.7c2-3.2,4.7-5.9,7.9-7.8
	c-0.1-1-0.7-1.9-1.7-2.3c-1-0.5-0.9-1.5-1.2-2.3c-0.1-0.5,0.2-1,0.7-1.1c0.3-0.1,0.5,0,0.7,0.1c1.2,0.9,2.6,1.8,3.2,3
	c0.5,1.1,1.4,1.9,2.5,2.3c1.3,0.5,2.9,0.1,3.7-1.1c0.7-1,1.4-2.1,2.2-3c0.4-0.4,0.9-0.8,1.4-1.1l0.4,0.3c-0.3,2.3-2.2,3.8-3.2,5.8
	c1.8,1.2,3.1,2.9,3.9,4.9C690,153.5,690.4,154.1,690.8,154.6L690.8,154.6z M591.6,153.7c3.2,0.2,4.4,2.6,6,4.3
	c1-1.1,1.9-2.1,2.7-3.1c1.2-1.3,1.9-2.9,1.9-4.7c-0.2-2.4-0.4-4.9-0.6-7.3c-0.1-0.3-0.2-0.5-0.3-0.8c-0.5,3.5-2.3,6.7-2.5,10.3
	c-0.1,1.4-1.3,1.8-2.5,0.9c-0.6-0.4-1.2-0.9-1.7-1.4L591.6,153.7z M587,148.7c0.4,2.2,2.5,3.6,4.7,3.2c0.1,0,0.1,0,0.2,0
	c1.8-0.4,2.3-1.7,1.1-3.4c-0.2,0.1-0.4,0.2-0.6,0.2c-0.4-0.1-0.7-0.2-1.1-0.3c0.2-0.4,0.2-1,0.5-1.2c0.8-0.7,2.1-0.6,2.8,0.2
	c0.1,0.1,0.2,0.3,0.3,0.5c0.4,0.7,0.6,1.4,0.9,2.2c0.3,0.7,0.4,1.5,1.4,1.8c0.4-1.8,0.6-3.5,1.1-5.1c0.6-1.7,1-3.4,1.2-5.2
	c-0.9,0.1-1.9,0.1-2.8,0c-1.9-0.3-3.8-0.3-5.5-1.3c-0.6-0.5-1.5-0.5-2.2,0c-1.4,1.1-2.2,2.7-2.4,4.4
	C586.5,146,586.7,147.4,587,148.7L587,148.7z M647.7,150c1.3,0.2,2.4,1.1,3.8,1.8c0-1.7,0.1-3.4,0.3-5.1c0.2-1.4,0.3-2.7,0.1-4.1
	c-0.1-0.4,0-0.9,0.2-1.3c0.6-0.6,0.9-1.5,0.6-2.3c-0.1-1.2-0.7-2.4-0.5-3.5c0.3-2.4,0.1-4.9-0.6-7.2c-0.5-2.2-1.1-4.4-1.8-6.5
	c-1.1-3-2.4-6-3.6-9c-0.7-1.8-1.4-3.6-3.3-4.7c-0.1-0.1-0.2-0.1-0.5-0.2c-1.1,0.3-2.2,0.7-3.2,1v8.3c0,1.5,0.7,2.9,2,3.6
	c0.8,0.6,1.5,1.3,2.1,2.1c0.8,1.1,1.5,2.3,2.3,3.4c1.3,2.1,2.8,4,2.7,6.7c-0.1,2.2,0.2,4.3-0.2,6.5c-0.6,3.3-1.8,6.5-3.5,9.3
	c-0.4,0.6-0.7,1.3-0.9,2C645.3,150.4,646.6,149.8,647.7,150z M700.2,150.3c0.9-0.6,1.7-1.1,2.6-1.7c-0.3-0.8-0.3-1.7-0.7-2
	c-0.8-0.5-0.7-1.1-0.8-1.8c-0.1-0.9-0.2-1.8-0.5-2.6c-1.7-4.1-2.2-8.6-4.3-12.5l-2.5-4.8l-0.4,0.1c0.3,3.2,0.3,6.5,1.1,9.6
	c0.3,1.2,1,2.3,1.1,3.5c0.4,2.4,1.3,4.6,2.4,6.7c0.4,0.8,0.6,1.7,0.5,2.5C698.5,148.8,699,149.5,700.2,150.3L700.2,150.3z
	 M702.5,141.8c0.5,1.8,1,3.5,1.5,5.3c2.6-1.2,3.4-3.1,2.4-5.4c-0.2-0.3-0.3-0.7-0.4-1c-0.5-1.7-1.3-3.3-2.6-4.6
	c-0.8-0.9-1.5-2-2.1-3.1c-1.9-3.7-3.3-7.5-4.4-11.5c-0.5-1.6-0.8-3.2-1.3-4.8c-0.1-0.2-0.3-0.3-0.5-0.4c0.7-0.6,0.3-1.1-0.2-1.9
	l-0.2,1.2c-0.4-0.1-0.7-0.2-0.8,0.4c-0.1,1.4-0.2,2.8-0.1,4.1c0.1,0.7,0.3,1.4,0.7,1.9c2.1,3.2,3.8,6.6,5,10.3
	C701,135.4,701.6,138.7,702.5,141.8z M666.3,139.2c-0.6,1.5-1.6,3-1.5,4.8c3.3-1.9,9.7-13.2,9.9-17.4c-0.3,0.1-0.5,0.3-0.8,0.4
	c-2.7,2.6-4.8,5.6-6.3,9C667.2,137.2,666.7,138.2,666.3,139.2L666.3,139.2z M591.3,138.3c2.1,1.4,4.7,2,7.3,1.7
	c0.2,0,0.3-0.5,0.4-0.6c-1.5-0.2-3-0.6-4.4-1c-1.3-0.6-2.6-1.3-3.8-2.1c-0.5,0.6-0.3,1.5,0.3,2C591.1,138.3,591.2,138.3,591.3,138.3
	L591.3,138.3z M598.7,137.6c0.8,0.2,1.6-0.3,1.8-1.1c0-0.1,0-0.1,0-0.2c0.1-0.7,0.3-1.4,0.6-2.1c1.4-2.4,2.3-5.1,4.2-7.3
	c1.2-1.5,2.5-2.9,4-4.1c0.3-0.2,0.6-0.5,0.9-0.8c-0.3-0.9-0.2-2,0.3-2.8c0.3-0.5,0.4-1.1,0.5-1.7c0.1-3.2,0-6.4,0.1-9.6
	c0-0.5,0.4-1,0.7-1.5c0.9,0.5,1.3,1.5,1.1,2.5c0,2.4,0,4.8,0,7.1c0.1,0.5,0.1,0.9,0.3,1.4c1.1-1.2,2-1.2,3.1,0.1v-1.3
	c0.1-2.7-1.5-5.3-0.1-8c0-0.1-0.1-0.2-0.1-0.3c-0.5-0.3-1-0.7-1.4-1.1c-1.1-1.3-3-1.6-4.4-0.8c-2.1,0.8-4.1,1.9-5.9,3.3
	c-2.5,2.1-4.6,4.6-6.1,7.5c-2,3.8-3.5,7.8-4.5,12c-0.3,1.6-0.7,3.3-1,4.9c-0.2,1.3,0.2,2.3,1.3,2.6
	C595.5,137,597.1,137.4,598.7,137.6L598.7,137.6z M681.4,134.8c1.2,0.4,2.6,0.1,3.5-0.9c0.8-1.2,0.7-3.5-0.2-4.3
	c-1-0.7-2.4-0.9-3.6-0.4c-1.1,0.6-1.1,1.8-1.3,2.6C680,133.3,680.2,134.4,681.4,134.8z M675.6,135l0.2-0.4l-1.1-1.9
	c-0.5,0.7-1,1.2-0.6,1.8C674.4,134.9,675.1,134.9,675.6,135L675.6,135z M687.9,134l0.2,0.5c1.5-0.3,3-0.5,4.4-0.8
	c0.3-1.3,0.1-2.6-0.6-3.7c-0.1-0.2-0.6,0-1.1-0.1C691,132.2,690.1,133.6,687.9,134L687.9,134z M676.8,131.4c-0.5,1.6-0.5,1.6,1,2.3
	C678.1,131.8,678.1,131.8,676.8,131.4L676.8,131.4z M688.9,132.3c0.4-0.5,0.4-1-0.3-1.2C688.3,131.7,688.2,132.1,688.9,132.3
	L688.9,132.3z M691.3,128.4c0.3,0,0.5,0,0.8,0l0.6-14.1c-0.7,0.4-1.2,0.6-1.7,0.9c-0.9,0.5-1.2,0.5-1.7-0.4
	c-0.2-0.3-0.3-0.7-0.4-1.1c-0.6,0.5-1,0.8-1.4,1.1c-0.9,0.8-2.1,1-3.2,0.6c-1.5-0.5-2.7-1.5-3.5-2.9c-0.3-0.9-0.9-1.6-1.7-2
	c-0.8,1.2-1.2,2.7-1,4.2c0.1,1.1,0.1,2.3-0.1,3.4c-0.1,0.8-0.2,1.6-0.3,2.5c-0.3,1.7-0.5,3.4-0.8,5.1c-0.2,0.9-0.3,1.8-0.5,2.8
	c2.1-0.5,4-1,5.8-1.4c0.4-0.1,0.7-0.1,1.1,0C685.7,127.5,688.5,128,691.3,128.4L691.3,128.4z M635.8,124.4h0.7c0-0.4,0-0.8,0-1.2
	c-0.2,0-0.4,0-0.6,0L635.8,124.4z M612.4,122.1c1,0.3,1.7,0.1,2.1-0.6c0.4-0.5,0.4-1.3,0.2-1.9c-0.1-0.5-0.7-0.9-1.2-0.7
	c0,0,0,0,0,0c-0.5,0.2-0.8,0.5-1,1C612.4,120.7,612.3,121.4,612.4,122.1L612.4,122.1z M636.5,121.6c0.7,0.1,1.1-0.6,1.3-2
	c0-1-0.5-1.6-1.4-1.6c-1,0-2.2,0.7-2.3,1.3C634,120.2,635.4,121.6,636.5,121.6L636.5,121.6z M684.7,114.1c0.7,0.2,1.4,0.4,2-0.3
	c0.7-0.9,1.7-1.5,2.8-1.6c0.1-2.7-0.3-5.4-1.2-8c-0.3-0.8-0.3-1.6,0-2.3c-0.2-0.2-0.4-0.3-0.7-0.4c-1.9-0.2-3.7,0.9-4.3,2.7
	c-0.4,1.3-1,2.4-1.9,3.4c-0.4,0.5-0.8,1.2-1.2,1.7c0.5,0.8,0.8,1.5,1.2,2.1C682.2,112.5,683.3,113.5,684.7,114.1z M691.6,113.3
	c0.9,0,1.7-0.5,2.1-1.2c1.8-2.5,1.2-5.1,0.3-7.6c-0.6-1.2-1.3-2.4-2.1-3.5c-0.5,0.2-1.2,0.5-2,0.8L691.6,113.3z M625.4,110.1
	c1.3,0.2,2.6-0.3,3.9-0.4c2.8-0.5,5.4-1.5,7.7-3.1c0.6-0.4,1.2-0.9,1.7-1.5c0.9-1,1.8-2.1,2.6-3.2c0.7-0.9,1.4-1.9,1.3-3.1
	c-0.6,0.6-1.1,1.2-1.6,1.9c-0.2,0.3-0.5,0.6-0.9,0.8c-1.4,0.5-2.9,0.8-4.3,1c-1.1,0-2.2,0.3-3.2,0.9c-0.5,0.4-1.2,0.5-1.8,0.2
	c-1.2-0.6-2.6-0.6-3.8-0.2c-2.4,0.9-4.4-0.4-6.5-0.9c-0.1,0-0.3-0.2-0.4-0.4c-1-1.1-2.4-1.6-3.9-1.4c-1.3,0.2-2.5-0.4-3.1-1.6
	c-0.5-0.7-0.9-1.5-1.4-2.2l-0.5-0.7c0.7-1.1,1.6-1.7,2.2-1.2c1.1,1,2.5,0.9,3.7,1.2c1.8,0.5,3.6,0.9,5.5,1.2l1.3-4.4
	c-1.7,0.1-3.4,0.1-5.2,0.2c-0.7-0.9-0.7-0.9-0.5-1.6c0.1-0.5,0.2-0.9,0.2-1.4c-0.2-4,1.8-7.9,5.1-10.1c0.3-0.2,0.7-0.4,1.1-0.4
	c0.3,0,0.6,0.2,0.9,0.4c0.7,0.6,1.3,1.4,1.7,2.2c0.8,2.5,1.4,5.1,2,7.7c1.2,0.1,2.5,0.3,3.9,0.5c-0.9-1.1-1.1-2.6-0.4-3.8
	c0.1-0.3,0.2-0.7,0.3-1c0.5-2.3,1.8-4.3,3.8-5.6c0.6-0.5,1.3-0.6,2-0.3c0.4,0.2,0.7,0.5,1,0.8c1.8,2,2.7,4.6,2.6,7.2
	c-0.1,1.5-0.1,3-1.6,3.9c0,0,0,0.2,0,0.4c1.2,0.9,1.5-0.7,2.4-0.7c-0.1-1.1-0.2-2.1-0.2-3.1c0-0.2,0-0.5,0.1-0.7
	c0.5-0.6,0.3-1.2,0.1-1.9c-0.4-1-0.7-2-1-3.1c-0.7-2.3-0.3-3.2,1.6-4.6c0.6-0.5,1.1-1.1,1.5-1.7c1.2-2.1,1.4-4.4,1.8-6.7
	c0.8-4.8-1.4-8.7-3.3-12.7c0-0.1-0.1-0.2-0.2-0.3c-1.4-0.8-2.6-1.9-3.5-3.2c-0.6-0.6-1.6-0.9-2.1-1.6c-1.3-1.4-3.1-2.2-4.9-2.3
	c-4.8-0.5-9.6,0.3-13.9,2.5c-2.7,1.3-5,3.1-6.8,5.5c-2.4,3-4.2,6.4-5.3,10.1c-0.1,0.2-0.2,0.5-0.3,0.6c-1.6,2.1-2.7,4.5-3.3,7.1
	c-0.5,2-0.6,4-0.3,6c1.1-0.1,2-0.4,2.9-0.4c0.8,0,1.5-0.3,2-0.9c2.4-2.3,4.8-4.8,8.1-6c1.2-0.6,2.4-1.2,3.4-2
	c-1.7-1.1-1.5-2.6-1.6-4.1c-0.1-3.2,1.1-6.3,3.5-8.5c1.7-1.8,4.1-1.8,6.2-2.6c0.6-0.2,1.2-0.3,1.8-0.2c3.9,0.4,6.9,3.7,6.9,7.6
	c0,1.4-0.2,2.8-0.3,4.4c0.5,0.2,1.1,0.4,1.6,0.6c0.5,0.3,1.2,0.5,1.5,0.9c0.7,1.3,1.3,2.7,1.8,4.1c0.3,0.9-0.4,1.5-1.2,1.1
	c-0.1,0-0.1-0.1-0.2-0.1c-0.7-0.4-1.6-0.5-2.4-0.3c-0.6,0.1-1.3,0.2-2,0.2c-2.3-0.4-4.6,0-7,0.3c-2.2,0.1-4.5,0.5-6.6,1.3
	c-0.3,0.1-0.6,0.3-0.9,0.4c-1.3,0.8-3,0.7-4.1-0.3c-0.7-0.5-1.6-0.5-2.3,0c-0.8,0.4-1.5,0.9-1.5,2c0.2,2.2,0.2,4.4,0.1,6.6
	c-0.2,0.9,0.2,1.9,1,2.4c-0.9,2-1.6,4-2.5,5.8c-0.3,0.6-1,0.9-1.7,1.5l0,0c0,0.1,0,0.2,0.1,0.4c0.2,0.6,0.4,1.3,0.7,1.9l0,0
	c0.8,1.9,1.7,3.7,2.9,5.4c1.7,2.4,3.6,4.4,6.9,4.8c1.5,0.2,3.4,0.3,4.3,2.1C624.4,110,625,110,625.4,110.1L625.4,110.1z
	 M696.7,110.2c1.2-1.2,2.3-2.2,3.3-3.2c1.6-1.5,2.7-3,1.7-5.2c0.8-0.9,1.6-0.5,2.4-0.2c1.8,0.7,3.9-0.2,4.7-2
	c0.6-1.2,0.3-2.6-0.7-3.4c-0.4-0.1-0.7-0.1-1.1,0c-1.1,0.3-2.4,0.1-3.3-0.6c-1.1-0.6-1.8-1.8-1.8-3.1c0-1,0-2,0-3
	c0-1.1,0.2-2.1,0.8-3.1c0.8-1.3,1.3-2.6,2-4c-1.8-1.4-3.8-2.6-5.8-3.8c-1.3-0.7-2.5-1.4-3.8-2.1c-0.3,0.3-0.4,0.4-0.4,0.5
	c-0.9,1.6-2.1,2.5-4.1,2c-0.7-0.1-1.4,0-2.1,0.1l-0.1,0.4c2.6,0.1,2.2,2.3,2.8,3.9c1.7-1,3.9-0.4,4.9,1.3c0.1,0.2,0.2,0.4,0.3,0.6
	c0.2,0.5,0.3,1.1,0.3,1.7c0,1.8-0.7,3.6-2,4.8c-0.9,1-1.9,1.8-3,2.6c-0.7,0.4-1.5,0.5-2.3,0.4c-0.5-0.6-0.7-1.3-1.1-1.5
	c-0.9-0.4-1.7-1.1-2-2.1c-0.4-0.7-0.9-1.3-1.5-1.7c-0.8-0.7-1.8-1.4-2.7-2c-3-2.2-7.2-1.9-9.9,0.7c-0.3,0.4-0.6,0.9-0.7,1.4
	c-0.2,0.5-0.3,1.1-0.5,1.7c-0.8,2.2-0.2,4.6,1.4,6.3c3,2.8,7.1,4.1,11.2,3.5c1.4,0,2.7-1,3.1-2.3c0.3-1.1,1-1.1,1.9-0.9
	c0.3,2.1,0.7,2.7,1.9,2.5c0.8-0.2,1-0.7,0.6-2.2l1-0.8l3.1,2.8c-0.2,0.7-0.4,1.5-0.6,2.3c-0.1,0.3,0,0.7,0.2,1
	c0.7,0.8,1.1,1.9,1.1,2.9C696.1,107.4,696.3,108.6,696.7,110.2L696.7,110.2z M677.7,109.1c1.3-0.7,2.4-1.8,3.2-3.1
	c0.2-0.2,0.3-0.5,0.2-0.8c-0.5-1,0.3-1.5,1.1-2.4c-0.7-0.1-1.1-0.2-1.5-0.2s-0.8,0-1.3-0.1c-1.5-0.2-2.3,0.3-2.5,1.7
	C676.7,105.9,677,107.6,677.7,109.1z M628.2,97.9L628.2,97.9c0.8,0,1.5-0.1,2.3-0.3c1.4-0.3,2.3-1.6,2.1-3c-0.1-0.7-2.3-2.8-2.9-2.8
	c-0.2,0-0.4,0-0.5,0.1c-1.3,0.7-2.7,1.1-3.7,2.4c-0.6,0.7-0.8,1.6-0.7,2.5c0.1,0.9,1.1,0.9,1.8,1.2C627.2,98,627.7,98,628.2,97.9z
	 M705.2,95c1.1,0.3,2.3,0,3-0.9c1.1-1.3,1.7-3,1.6-4.8c-0.1-1.1-0.1-2.2-0.2-3.4c-0.1-1.6-0.3-1.7-2-2c-0.4-0.1-0.9-0.3-1.3-0.5
	c-2.5,2.7-3.1,5.9-2.8,9.3C703.6,93.9,704.3,94.7,705.2,95L705.2,95z M635.8,95.5c1.1-0.6,2-1.1,3.2-1.7c-1.5-0.5-2.6-0.9-3.9-1.4
	L635.8,95.5z M603.6,93.6c0.6,0.4,1.3,0.3,1.8,0c0.8-0.5,1.7-1,2.8-1.6c-0.7-1.6-0.8-3.3-0.3-5c0.4-1.1,0-2.5-0.2-3.7
	c0-0.3-0.6-0.6-0.9-0.7c-1.6-0.6-2.7,0.3-3.9,1.1c-1.4,1.1-1.6,2.9-2,4.5C600.5,90.7,601.4,92.4,603.6,93.6L603.6,93.6z M620,91.6
	h1.4c0.1-2.4,1.2-4.6,3-6.1c1.5-1.3,1.4-2.2-0.2-3.8C621.3,82.9,619.2,87.8,620,91.6L620,91.6z M690.4,88.6c1.1,1,1.4,2.6,0.9,4
	c3.1-1.3,4.6-4.1,3.9-6.9c-0.1-1-1-1.7-2-1.6c-0.3,0-0.6,0.1-0.8,0.3c-0.5,0.3-1,0.7-1.4,1.1C690.1,86.5,689.7,87.8,690.4,88.6
	L690.4,88.6z M634.3,90.6c0.2-0.1,0.3-0.1,0.3-0.1c0.1-0.1,0.2-0.2,0.2-0.3c0.3-2.1,1.6-3.9,3.5-4.9c1.2-0.7,1.3-1.2,0.6-2.3
	c-0.4-0.6-0.8-1.1-1.3-1.6C634.7,82.5,632.9,86.5,634.3,90.6L634.3,90.6z M638.4,88.4c0.2,0.8,0.5,1.5,0.8,2.3
	c1.1-0.7,0.9-1.8,0.9-2.7c0-0.6-0.2-0.9-0.8-0.8c-0.5,0-0.9,0.4-1,0.9C638.3,88.2,638.4,88.3,638.4,88.4L638.4,88.4z M625.2,87.1
	c0.1,0.7,0.7,1.1,1.4,1c0,0,0,0,0,0l-0.7-2C625.5,86.7,625.1,87,625.2,87.1L625.2,87.1z M685.3,83.2c1.8,0.6,1.8,2.5,2.6,4.3
	c0.6-1.6,1.1-2.7,1.5-3.9c0.1-0.6,0.1-1.2,0-1.8c-0.1-0.3-0.4-0.8-0.7-0.9c-0.8-0.3-1.7,0-2.3,0.7C686.2,82.2,685.8,82.6,685.3,83.2
	L685.3,83.2z M708.1,83c0.6-2.1,0.5-4.4-0.3-6.5c-1.1,0.3,0.1,2.8-2.1,1.9c0.2-1.1,0.4-2.1,0.4-3.2c0.1-0.6-0.1-1.2-0.4-1.6
	c-1.5-1.6-3.5-2.6-5.7-2.7c-2.2-0.1-4.3,0.3-6.3,1c-0.6,0.3-1.2,0.7-1.7,1.1c2.9,1.6,5.6,3.1,8.3,4.6C703.1,79.1,705.7,81,708.1,83
	L708.1,83z M685.5,80.9c0.9-0.6,1.6-1.2,2.5-1.8C686.1,79,685.7,79.2,685.5,80.9L685.5,80.9z M709.8,76.9c0.2-0.1,0.5-0.2,0.5-0.3
	c1.7-3.3,4.9-5,7.9-6.8c2.3-1.5,4.8-2.6,7.5-3.4c0.4-0.1,0.8-0.3,1.1-0.5c2.1-1.2,2.7-2.7,2-5.2c-0.7,0.2-1.5,0.3-2.2,0.5
	c-0.7,0.2-1.3,0.6-2.1,0.9c-0.3-0.8,0.2-1.7,1-2c0,0,0.1,0,0.1,0c1.2-0.4,2.4-0.6,3.6-0.8c1.9-0.4,3.7-0.7,5.6-1.2
	c0.5-0.2,0.9-0.5,1.2-1c0.5-1.1,0.5-2.3,0.1-3.5c-1.1,0-1.6,0.9-2.1,1.6s-0.9,0.9-1.7,0.3c0.2-0.4,0.4-0.9,0.6-1.3
	c1.2-1.6,2.8-2.8,4.6-3.5c1.1-0.5,2.2-1.1,3.2-1.8c1.9-1.5,2.4-4.1,1.2-6.2c-1,0.3-1.9,0.7-2.8,1.2c-1.8,1.3-3.5,2.7-5,4.3
	c-4.3,4.7-9.2,8.9-14.5,12.6c-3.6,2.6-6.7,5.8-9.1,9.5c-0.7,1-1.3,2.1-1.9,3.3c-0.2,0.4-0.2,0.9-0.1,1.3
	C709,75.5,709.3,76.2,709.8,76.9L709.8,76.9z M689,76.5c1.6,0.5,3.3,0.3,4.8-0.5c-0.5-0.7-1.2-1.1-2-1.1
	C689.8,74.3,689.4,74.5,689,76.5L689,76.5z M617.5,75.5c0.6,0,1.2,0.3,1.6,0.1c2.5-1,5.1-1.6,7.8-1.8c2.1-0.4,4.1-0.5,6.2-0.5
	c1.8,0.2,3.4-0.4,5.1-0.5c-1.9-2.6-3.2-2.9-4.8-0.9c-1.6-1.2-1.9-1.3-4-1c-0.8,0.1-1.5,0.4-2.3,0.6c-2.7,0.5-5.3,1.4-7.8,2.5
	c-0.7,0.3-1.3,0.7-2,1.1L617.5,75.5z M690.1,71c0.8-0.2,1.6,0.5,2.5-0.1c0.9-0.4,1.6-1.2,1.8-2.2c0.2-1.1,0.7-2.2,1.6-3
	c2-1.6,4-3.4,6-5.1c1.3-0.9,1.6-2.7,0.7-4c0-0.1-0.1-0.1-0.2-0.2c-1.2,0-1.1,2.3-2.9,1.5c0.4-2,1.7-3.8,3.5-4.8
	c1.4-0.7,2.8-1.3,4.2-1.9c1.6-0.6,2.6-2.3,2.3-4c-1.2-0.3-1.4,2.1-2.9,1c0.1-1.2,1.1-1.9,1.9-2.6c1.8-1.7,3.6-3.2,5.5-4.8
	c2.1-1.7,2.3-4.1,2.3-6.5c0.1-0.7-0.4-1.3-1-1.3c-0.3,0-0.6,0-0.9,0.2c-0.8,0.5-1.5,1.1-2.1,1.9c-1.1,1.7-2.2,3.5-3.1,5.4
	c-1,1.7-2.3,3.2-3.7,4.5c-2,2-4.2,3.7-6.3,5.5c-0.7,0.5-1.3,1.1-1.8,1.7c-1.8,2.5-4,4.5-5.8,7c-2.4,3.2-2.7,6.8-2.6,10.5
	C689.2,70.4,689.9,71.1,690.1,71L690.1,71z M619.2,68.8c0.1,1.4,0.4,1.7,2,1.7c0.7-1.6,1-3.4,0.7-5.2c-0.1-1,0.1-1.9,1.3-2.1
	c2.1,1.8,2.1,1.8,3.4,2.2c1-3,1.7-3.8,3.3-3.5c0.6,2.6,0.2,5.6,3.4,7.3c0.8-2,1-4.3,0.5-6.4c-0.7-2.6-3-4.4-5.7-4.4
	c-1.9,0.1-3.7,0.8-5.3,1.8c-1,0.7-1.8,1.6-2.4,2.6C619.4,64.6,619,66.7,619.2,68.8z M624,66.4c-0.3,1.4-0.8,2.6-0.6,4.1
	c2.2-0.5,4.2-1,6.4-1.6l-1.3-3.2c-0.6,2-0.7,2.1-2.5,1.4C625.4,66.9,624.7,66.7,624,66.4L624,66.4z"/>
<path class="st1" d="M736.4,198.7l-30.2-0.7l0.2-0.8c1-3.2,0.9-6.7-0.1-9.9c-0.7-2.4-0.7-5,0-7.4c0.3-1.3,1.1-2.4,2.3-3
	c0.3-0.2,0.5-0.4,0.7-0.7c-0.4-0.2-1-0.2-1.4,0c-1.5,0.7-2.6,2.1-2.8,3.7c-0.4,2.5-0.8,5,0.1,7.6c0.9,2.2,1.1,4.7,0.5,7
	c-0.3,1.1-0.6,2.2-0.8,3.3l-45.7-1c0.3-2.4,0.9-4.8,1.7-7.2c0.9-3.3,0.3-6.5-0.7-9.6c-0.2,0-0.4,0-0.6,0l0.2,1.8
	c0.2,2.3,0.6,4.5,0,6.8c-0.4,1.5-0.9,3-1.2,4.5c-0.2,1.2-0.5,2.4-0.6,3.6l-49-1.1l-0.2-0.4c-0.8-1.3-0.8-2.9-0.1-4.3
	c0.6-1.3,1.4-2.5,2.1-3.7c0.3-0.5,0.9-0.9,0.3-1.5c-0.2,0-0.3,0-0.4,0c-1.8,1.5-3,3.6-3.6,5.8c-0.4,1.1-0.3,2.3,0.3,3.3
	c0.2,0.2,0.3,0.5,0.4,0.7l-42.7-1l-0.1-0.2c-0.4-1.1-0.6-2.2-0.5-3.3c0.3-2.3,0.7-4.6,1.2-6.9c0.8-3,1.5-5.9-0.3-8.8
	c-0.3-0.5-0.3-1.2,0.2-1.7c0,0-0.1-0.2-0.2-0.4c-0.3,0-0.5,0-0.8,0c-0.3,1.5-0.4,1.6,0.2,2.6c0.8,1.9,0.9,4,0.2,5.9
	c-0.7,2.3-1.1,4.8-1.6,7.2c-0.4,1.8-0.3,3.6,0.4,5.3l0.1,0.2l-22.3-0.5l0.4-1.4c0.6-1.9,0.3-2.6-1.3-3.8c-0.7-0.4-1.1-1.1-1-1.9
	c0.1-0.8,0.4-1.6,0.6-2.3c0.2-0.4,0.5-0.9,0.8-1.3c-0.1-0.1-0.2-0.2-0.2-0.2c-1.6,0.4-2.1,1.9-2.4,3.2c-0.2,1.1,0.3,2.3,1.3,2.9
	c1.7,1.3,1.8,2,1,3.9l-0.4,0.8l-22.5-0.5c0-0.2,0-0.4,0.1-0.5c0.3-1.3,0.7-2.6,1.3-3.9c1-2,1.9-4.1,3.9-5.3c2.7-1.6,5.4-3.2,8.1-4.8
	c0.8-0.5,1.7-0.9,2.5-1.4c2.6-1.6,5.5-2.3,8.3-3.4c1.2-0.4,2.3-0.9,3.4-1.6c2.6-1.7,5.5-2.5,8.4-3.6c3.1-1.2,6.3-2.1,9.5-3.3
	c3.7-1.3,7.3-2.9,10.8-4.9c1.5-0.8,3.2-1.3,4.9-1.5c1.5-0.3,3-0.4,4.8-0.6c0,0.4,0,0.7-0.1,1.1c-1.5,3.5-0.6,6.8,1.1,9.9
	c0.5,0.8,1,1.7,1.5,2.5c0.2,0.4,0.5,0.7,0.9,0.9c1,0.6,2,1.2,3.1,1.7c1.9,0.9,3.9,1.6,5.9,2.1c1.8,0.5,3.5,1.5,5,2.7
	c1,0.7,2.2,1.3,3.2,1.9c0.8,0.5,1.9,0.5,2.7-0.1c1.3-0.9,2.5-1.9,3.6-2.9c0.5-0.5,0.8-1.1,0.9-1.7c0-0.5-0.5-1-0.7-1.5
	c-0.9-2.8-3.1-4.2-5.5-5.6c-0.6-0.4-1.1-0.8-1.5-1.3c0.3-0.9,0.7-1.7,1.1-2.5c1.1-1.7,2.5-3.2,4.2-4.3c2.3-1.4,4.4-3,6.6-4.5
	c0.6-0.3,1.2-0.4,1.8-0.4c2-0.1,4.1-0.1,6.1-0.3c1.4-0.2,2.7-0.6,3.9-1.3c0.8-0.3,1.1,0.9,1.8,0.3c0.1,0.5,0.2,1,0.4,1.4
	c0.3,0.3,0.9,0.5,1,0.8c1,2.2,1.8,4.5,2.8,6.8c0.3,0.8,0.4,1.3-0.4,1.9c-0.3,0.2-0.6,0.6-0.7,1c-0.3,1.3-0.8,2.6-1.6,3.8
	c-0.8,1.1-1.5,2.3-2.3,3.5c0.5,1.5,2.2,2.2,3.3,3.2c0.9,0.7,1.8,1.3,2.9,1.8c1.1,0.7,1.8,0.5,2.7-0.5c0.4-0.4,0.7-0.8,1.1-1.2
	s0.6-0.9,1.4-1c0.6-0.1,1-1.1,1.4-1.7c0.2-0.6,0.4-1.1,0.5-1.7c4.4-1.9,7.4-5.3,10.2-9c0.6-1.1,1.1-2.4,1.3-3.7
	c0.3-1.1,0.4-2.2,0.6-3.6c0.9,1.2,1.6,2.2,2.3,3.1c1.4,1.8,2.9,3.6,4.3,5.4c0.4,0.4,0.7,0.8,0.9,1.3c0.8,2.8,2.9,4,5.5,4.7
	c0.5,0.1,0.9,0.2,1.4,0.3c0.6,0.2,1.2,0,1.6-0.4c0.1-0.1,0.2-0.3,0.4-0.4c3.3-2.2,3-5.7,2.7-8.9c-0.2-1.5-0.7-2.8-1.5-4.1
	c-1.3-2.3-1.3-2.3,0.3-4.1c0.2-0.2,0.4-0.4,0.6-0.7c1-2.5,3.3-3.5,5.5-4.6c0.9-0.3,1.9-0.3,2.8-0.2c0.8,0,1.5,0.3,2.3,0.3
	c0.9,0,2-0.3,2.8,0.4c1.1,1,2.3,2.1,2.6,3.8c0.2,1,0.6,1.9,0.8,2.9c0.1,0.5,0.2,1.1,0.1,1.6c0,0.8,0,1.6,0,2.6
	c-0.6,2.8-1.9,5.4-3.9,7.5c0.2,0.7,0.5,1.5,0.8,2.2c0.3,0.8,0.9,1.5,1.5,2.1c1.8,0.9,3.6,1.4,5.6,1.5l-0.2-1.3
	c0.6-0.5,1.4-0.8,2.2-0.7c1.6,0.2,2.8-0.7,3.5-2.3c0.2-0.3,0.4-0.5,0.7-0.7c2.3-1.5,4.7-2.9,6.8-4.6c1.3-1.2,2.4-2.7,3-4.3
	c0.6-1.4,1.6-2.5,2.9-3.2c0.7-0.4,1.4-0.5,2.2-0.3c2.5,0.7,4.8,2.1,6.6,4c2.4,2.4,4.6,5,7,7.5c0.1,0.1,0.3,0.2,0.4,0.4
	c1.4,2.9,3.6,5.3,4.5,8.5c0.8,2.8,1.9,5.4,2.4,8.3c0.2,1.6,1,3.1,1.2,4.7c0.4,2.8,0.5,5.7,0.7,8.6
	C736.7,198.5,736.6,198.6,736.4,198.7z"/>
<path d="M706.2,198h-1.3c0.3-1.1,0.5-2.2,0.8-3.3c0.5-2.3,0.3-4.8-0.5-7c-0.8-2.6-0.4-5.1-0.1-7.6c0.3-1.6,1.3-3,2.8-3.7
	c0.4-0.2,1-0.2,1.4,0c-0.2,0.2-0.4,0.5-0.7,0.7c-1.2,0.6-2.1,1.7-2.4,3c-0.7,2.4-0.7,5,0,7.4c1.1,3.2,1.1,6.6,0.1,9.9L706.2,198z"/>
<path d="M245.5,197.9l24.9-5.7l23.2,1.3c-5.8,0.6-11.6,0.7-17.4,0.3c-5.2-0.4-10.5,0-15.6,1.2c-2.6,0.6-5.2,1.4-7.8,1.9
	C250.3,197.4,247.9,197.7,245.5,197.9z"/>
<path d="M659.2,196.9L659.2,196.9H658c0.1-1.2,0.4-2.4,0.6-3.6c0.3-1.5,0.8-3,1.2-4.5c0.6-2.3,0.2-4.5,0-6.8l-0.2-1.8
	c0.2,0,0.4,0,0.6,0c1.1,3.1,1.6,6.3,0.7,9.6C660.1,192.1,659.5,194.5,659.2,196.9z"/>
<path d="M806,196.6c-0.2,0.4-0.8,0.6-1.2,0.4c-0.1-0.1-0.2-0.2-0.3-0.3L806,196.6C806.1,196.6,806,196.6,806,196.6z"/>
<path d="M806.1,196.6l-1.5,0.2c-0.6-0.6-1.3-0.5-2-0.6c-1.8-0.2-3.7-0.6-5.5-0.7c-1.5,0-3.1,0.1-4.6,0.3c-2.4,0.2-4.9,0.4-7.3,0.4
	l-23.1-1.6L753,193c5.3-0.3,10.6,0.1,15.7,1.1c3.7,0.8,7.5,1,11.2,0.8c2.9-0.2,5.8,0,8.6-0.3c2.7-0.2,5.3-0.4,7.7-2
	c0.9-0.6,1.4-0.6,2.1,0.4c0.5,0.7,1.4,1,2.2,0.7c1.6-0.4,3.2-0.7,4.7-0.9c1.6-0.3,1.6-0.2,1.8,1.6c1.7-0.1,3.4-0.3,5.2-0.3
	c1.3,0,2.6,0.3,3.9,0.3s2.5,0.1,3.8,0.1c2-0.1,4-0.2,6-0.1l-13.7,1.4c-1.8,0-3.7,0.2-5.5,0.2C806.4,196.2,806.2,196.3,806.1,196.6z"
	/>
<path d="M785.1,196.2c-4.5,0.1-9,0.2-13.4-0.1c-3.3-0.2-6.5-1-9.7-1.5L785.1,196.2z"/>
<path d="M515.5,196.1c-0.1,0-0.1,0-0.2,0c-0.2-0.8-0.3-1.6-0.5-2.4h0.7V196.1z"/>
<path d="M821.9,195.8c-2.8,0.4-5.7,0.5-8.6,0.2c-0.4,0-0.8,0-1.1,0l13.7-1.4C824.7,195.6,823.3,195.6,821.9,195.8z"/>
<path d="M608.7,195.4l0.2,0.4h-1.1c-0.1-0.2-0.3-0.5-0.4-0.7c-0.6-1-0.7-2.2-0.3-3.3c0.6-2.3,1.9-4.3,3.6-5.8c0.1-0.1,0.2,0,0.4,0
	c0.6,0.6-0.1,1.1-0.3,1.5c-0.7,1.2-1.5,2.4-2.1,3.7C607.9,192.5,608,194.1,608.7,195.4z"/>
<path d="M565.1,194.6l0.1,0.2h-1.2l-0.1-0.2c-0.6-1.7-0.8-3.5-0.4-5.3c0.5-2.4,0.9-4.8,1.6-7.2c0.7-1.9,0.7-4-0.2-5.9
	c-0.5-1.1-0.5-1.1-0.2-2.6c0.3,0,0.6,0,0.8,0c0.1,0.2,0.2,0.3,0.2,0.4c-0.5,0.4-0.5,1.1-0.2,1.7c1.8,2.9,1,5.8,0.3,8.8
	c-0.5,2.3-0.9,4.6-1.2,6.9C564.5,192.5,564.7,193.6,565.1,194.6z"/>
<path d="M541.6,194.3h-1.2l0.4-0.8c0.9-1.9,0.7-2.6-1-3.9c-1-0.6-1.5-1.8-1.3-2.9c0.3-1.3,0.8-2.8,2.4-3.2c0,0,0.1,0.1,0.2,0.2
	c-0.3,0.4-0.6,0.8-0.8,1.3c-0.3,0.8-0.5,1.5-0.6,2.3c-0.1,0.8,0.3,1.6,1,1.9c1.7,1.2,1.9,1.9,1.3,3.8L541.6,194.3z"/>
<path d="M293.6,193.6l-23.2-1.3l0,0c0.8,0,1.6,0,2.5,0c5.5,0.3,11.1,0.4,16.6,0.2c4.6-0.2,9.1-1,13.7-1.4c2.2-0.2,4.4-0.3,6.6-0.4
	c3.3-0.2,6.5-0.2,9.8-0.5c3.7-0.4,7.3-1,11-1.4c2.5-0.2,5-0.2,7.5,0.3l-15.8,2.3l-7.1,0.6c-0.2,0-0.4,0-0.5,0
	c-3,0.1-5.9,0.2-8.9,0.4c-2.5,0.2-5,0.5-7.5,0.8C296.7,193.2,295.1,193.4,293.6,193.6z"/>
<path d="M480.3,193c-2.6,0.3-5.1,0.3-7.7,0.3c-3.6-0.1-7.2-0.3-10.7-0.6c-5.1-0.4-10.1-1-15.1-1.6s-10.4-0.9-15.6-1.1
	c-5.7-0.2-11.3-0.8-17-1.2c-3-0.3-6-0.2-9,0.1c-3.1,0.4-6.2,0.7-9.3,0.9c-4.5,0.3-8.9,0.7-13.4,0.9c-2.8,0.1-5.6,0-8.4,0l13.3-1.4
	c0.6,0,1.2,0,1.8,0c0.6,0,1.2-0.1,1.7-0.3l10.6-1.1l16-0.2l8.5,0.5c1.2,0.1,2.3,0.2,3.5,0.2l13.2,0.8l9.8,1.3
	c1.1,0.2,2.2,0.3,3.3,0.4c3.7,0.3,7.4,0.5,11.1,0.7s7.2,0.3,10.7,0.3c0.6,0,1.3,0,1.9-0.1l6,0.3l3.1-1
	C486,192.1,483.2,192.7,480.3,193z"/>
<path class="st0" d="M479.7,191.8c-0.6,0-1.2,0.1-1.9,0.1c-3.6,0-7.1-0.2-10.7-0.3s-7.4-0.4-11.1-0.7L479.7,191.8z"/>
<path d="M505.1,192.1l-0.4-0.3c-0.3-0.3-0.6-0.6-1-0.9l1.6,0.2L505.1,192.1z"/>
<path d="M315.1,191.8l7.1-0.6L338,189c2.7,0.4,5.4,0.7,8.2,0.8c3.7,0.2,7.4,0.3,11.1,0.2c0.6,0,1.2,0,1.8-0.1l15.1,0.7
	c-3.2,0.1-6.3,0.3-9.5,0.3c-3.4,0.1-6.8,0.2-10.2,0.2c-4.3-0.1-8.5-0.3-12.8-0.5c-3.2-0.2-6.4-0.5-9.6-0.6c-2,0-3.9,0.2-5.9,0.6
	C322.5,191.3,318.8,191.7,315.1,191.8z"/>
<path class="st0" d="M452.7,190.4l3.3,0.4C454.9,190.8,453.8,190.6,452.7,190.4z"/>
<path d="M387.5,189.3l-13.3,1.4l-15.1-0.7c2.1-0.1,4.2-0.3,6.3-0.5c2.5-0.1,5.1-0.2,7.7-0.2c3.8,0,7.7,0,11.5,0
	C385.5,189.3,386.5,189.3,387.5,189.3z"/>
<path d="M452.7,190.4l-9.8-1.3c2.5,0.3,5.1,0.6,7.6,0.9C451.2,190.2,452,190.3,452.7,190.4z"/>
<path class="st0" d="M357.3,190c-3.7,0-7.4-0.1-11.1-0.2c-2.7-0.1-5.5-0.4-8.2-0.8l21,1C358.5,190,357.9,190,357.3,190z"/>
<path class="st0" d="M387.5,189.3l3.6-0.4c-0.6,0.2-1.1,0.3-1.7,0.3C388.7,189.2,388.1,189.3,387.5,189.3z"/>
<path d="M442.9,189.2l-13.2-0.8c2.9,0.2,5.7,0.2,8.6,0.3C439.8,188.8,441.3,189,442.9,189.2z"/>
<path d="M401.6,187.8l-10.6,1.1c0.3-0.1,0.5-0.3,0.8-0.5c0.5-0.4,1-0.8,1.6-1.2c0.6-0.5,1.4-0.5,2,0c1.2,1,1.8,1,2.9-0.3
	c0.7-0.8,1.3-1.1,2.3-0.5c0.3,0.2,0.9,0.1,1.5,0.2L401.6,187.8z"/>
<path d="M426.2,188.1l-8.5-0.5C420.5,187.8,423.3,188,426.2,188.1z"/>
<path d="M417.7,187.6l-16,0.2c3.1-0.4,6.2-0.6,9.3-0.4C413.2,187.6,415.4,187.5,417.7,187.6z"/>
<path d="M735.4,182.1c-0.1,0-0.3,0.1-0.5,0.1l-0.7-2.3l0.4-0.1C735.2,180.4,735.5,181.3,735.4,182.1z"/>
<path class="st3" d="M606.4,180.3c-0.4,0.2-0.9,0.2-1.4,0c-1.6-0.6-3-1.5-4.2-2.7c0.9-0.7,1.9-1.4,2.7-2.2c0.5-0.5,1-1,1.5-1.5
	s1-0.9,1.6-1.4l3.3,4.2C609.3,178.7,607.7,179.4,606.4,180.3z"/>
<path d="M600.8,177.6L600.8,177.6L600.8,177.6L600.8,177.6C600.8,177.6,600.8,177.6,600.8,177.6z"/>
<path class="st2" d="M600.8,177.6L600.8,177.6L600.8,177.6L600.8,177.6z"/>
<path class="st2" d="M600.8,177.6L600.8,177.6L600.8,177.6z"/>
<path d="M600.8,177.6L600.8,177.6L600.8,177.6z"/>
<path class="st3" d="M600.8,177.6c-2.1-1.6-4.6-2.2-7-2.9c-2-0.7-3.9-1.6-5.7-2.8c-0.4-0.3-0.8-0.8-1-1.3c-0.7-1.2-1.3-2.4-1.8-3.7
	c-1.3-3.3-0.7-7,1.5-9.7c0.4-0.6,0.7-1.2,0.9-1.8c0.9-0.1,1.8-0.2,2.7-0.2c2-0.1,3.9,0.9,5,2.7c1.2,1.7,2.3,3.5,3.6,5.1
	c1.4,1.9,2.5,4,3.5,6.2c0.6,1,1.4,1.9,2.2,2.6c-0.9,1.3-1.9,2.5-3,3.6C601.2,176,600.8,176.8,600.8,177.6z M590.4,168
	c0.3-0.2,0.8-0.4,0.9-0.6c0.2-1,0.3-2.1,0.5-3.2c-2-0.3-1.2-2.2-2-3.2c-1.9,0.3-2,0.6-1.2,2.2c0.1,0.1,0.1,0.2,0.1,0.3
	c0,0.5-0.1,1.1,0.1,1.3c0.2,0.2,0.9,0.3,1.4,0.5c-0.1,0.7-0.2,1.3-0.2,2C589.9,167.5,590.2,167.7,590.4,168z"/>
<path class="st3" d="M635.9,178.7c-1.5-0.6-2.9-1.5-4.1-2.6c-0.6-0.5-0.7-1.3-0.4-1.9c0.8-2,1.5-4,2.2-6c0.1-0.3,0.2-0.6,0.3-0.8
	c2.2-3.1,4.4-6.2,6.6-9.3c0.8-1.2,1.6-2.4,2.4-3.6c0.4-0.6,0.9-1.2,1.4-1.8c1.1-1.3,3-1.4,4.4-0.4c0.8,0.5,1.6,1.2,2.3,1.9
	c1.4,1.6,1,3.5,0.6,5.3c-0.7,3-2.1,5.9-4,8.3c-1.1,1.4-2.6,2.3-4.3,2.8c-1.6,0.3-3,1.3-3.6,2.8c-0.4,0.7-0.9,1.4-1.5,2
	C637.4,176.4,636.7,177.5,635.9,178.7z M638.7,172.3l0.3-0.4c-0.3-0.6-0.4-1.3-0.8-1.7c-0.5-0.4-1.2-0.7-1.9-0.8
	c-0.9-0.1-1.1,0.2-1.1,1.4c0.6,0.2,1.2,0.4,1.8,0.7S638.2,172,638.7,172.3z M642.6,160.1c1.4,0.9,2.7,0.6,3.9-0.6l-0.4-2.7
	c-1.3,0.3-1.2,1.3-1.1,2.1C644.3,159.3,643.5,159.7,642.6,160.1L642.6,160.1z"/>
<path d="M639.1,171.8l-0.3,0.4c-0.5-0.3-1.1-0.5-1.6-0.8s-1.2-0.4-1.8-0.7c0-1.1,0.2-1.5,1.1-1.4c0.7,0.1,1.3,0.3,1.9,0.8
	C638.7,170.6,638.8,171.3,639.1,171.8z"/>
<path class="st4" d="M690.9,171.6c-1.8,0.5-2.7,0-3.3-1.7c-0.2-0.5-0.5-1.1-0.8-1.8l1.7-2.6l5.3,4.5l0.3-0.3
	c-0.1-0.3-0.2-0.6-0.4-0.8c-1.1-1.2-2.2-2.3-3.4-3.4c-0.3-0.2-0.7-0.3-1.4-0.4c1.9-2.7,2.9-5.9,5.6-8.1c1.6-1.3,2.9-2.8,4.4-4
	s3.5-2.5,5.3-3.7c0.6-0.4,1.2-1,1.8-1.4c0.3-0.3,0.6-0.5,1.4-1c0.3,3.3,0.9,6.1,0.9,8.9c0.2,4-2,7.7-5.6,9.4
	c-1.3,0.7-2.6,1.4-3.9,2.1c-0.8,0.5-1.7,0.9-1.8,2.1c0,0.3-0.5,0.8-0.9,0.9C694.3,170.7,692.6,171.2,690.9,171.6z"/>
<path class="st4" d="M668.7,171.1c-1.7,0-3.2-0.8-4.3-2c-0.8-0.9-1.5-1.9-1.9-3c-0.1-0.3-0.2-0.5-0.4-0.8c-2.2-1.8-3.1-4.7-5.5-6.3
	c-0.3-0.3-0.5-0.6-0.7-1c-2.2-3.5-3-7.6-2.3-11.7c0.2-1.2,0.3-2.4,0.4-3.8c2.6-0.3,5.1,0.7,6.9,2.6c1.2,1.4,2.6,2.7,3.6,4.1
	c1,1.4,1.8,2.9,2.6,4.5c0.6,1.1,1.3,2.3,1.9,3.4c0.9,1.8,1.7,3.6,2.4,5.4c0.2,0.8,0.2,1.7,0.1,2.5c0,0.9-0.2,1.8-0.3,2.7
	c0,0.7-0.4,1.4-1,1.8C669.6,170,669.1,170.6,668.7,171.1z M660.8,163.6c0.6,0,1,0.2,1.2,0c1.2-1,2.5-2,3.6-3.1
	c0.3-0.5,0.6-1,0.8-1.6l-0.5-0.2L660.8,163.6z"/>
<path d="M591.2,167.4c0,0.3-0.6,0.4-0.9,0.6c-0.2-0.3-0.5-0.5-0.5-0.8c0-0.7,0.1-1.3,0.2-2c-0.5-0.1-1.1-0.1-1.4-0.5
	c-0.3-0.3-0.1-0.9-0.1-1.3c0-0.1,0-0.2-0.1-0.3c-0.8-1.6-0.7-1.9,1.2-2.2c0.8,1.1,0,2.9,2,3.2C591.5,165.3,591.5,166.4,591.2,167.4z
	"/>
<path d="M553.1,167c-0.2,0.1-0.3,0.2-0.5,0.3l0-0.2c0.2-0.1,0.3-0.1,0.4-0.2L553.1,167z"/>
<path class="st5" d="M604.3,164.3c-0.5,0.5-0.9,1.2-1.5,1.9l-4.6-7.5c1.5-1.6,2.9-3,4.2-4.5c1-1.1,1.5-2.6,1.4-4.1
	c-0.1-2-0.2-4-0.5-5.9c-0.5-3.7-0.3-7.5,0.6-11.2c0.5-1.9,1.4-3.7,2.7-5.1c0.8-1.1,1.8-2.2,2.9-3.2c1.2-1,1.6-0.8,2.2,0.7
	c0.2,0.5,0.4,1,0.7,1.5c0.7,1,1.5,0.9,2-0.1c0.8-1.3,1.5-2.6,2.1-4c0.6-1.5,1.4-1.4,2.7-1.3c2.2,0.2,4.5,0.2,6.7,0
	c1.5-0.2,2.9-1.1,4.3-1.7l1.6-0.6c-0.3,1.9,0.5,3,1.5,4.2c0.7,1,1.3,2.1,1.8,3.3c0.5,1,1.2,1,1.8,0.1c0.4-0.7,0.7-1.4,1-2.1
	c0.4-1,0.8-2.1,1.2-3.3c1.3,0.7,2.5,1.7,3.2,3c1.1,1.7,2.2,3.4,3.3,5.1c0.4,0.6,0.7,1.2,0.9,1.9c0.3,4.4,0.4,8.9-1.3,13.1
	c-0.9,2.6-2.4,4.9-4.3,6.9c-0.6,0.5-0.9,1.3-0.7,2.1c0.2,1.1-0.1,2.2-0.8,3c-1.3,1.8-2.5,3.8-3.7,5.7c-0.3,0.4-0.5,0.8-1,1.5
	c-0.7-3.9-3-6.6-4.7-9.9c0.5-0.5,1-1,1.6-1.5c0.5-0.5,1-1,1.4-1.6c0.3-0.3,0.2-0.8-0.1-1.1c-0.1-0.1-0.2-0.1-0.3-0.2
	c-1.5,1.2-3.1,2.4-4.6,3.6c-1.6,1.2-3.5,2-5.5,2.4c-2.2,0.4-4.4,0.4-6.6-0.1c-1.1-0.1-2.2-0.6-3-1.5c-0.2-0.3-0.8-0.3-1.2-0.4
	c0,0.4-0.3,1-0.1,1.3c0.6,0.7,1.2,1.4,1.9,2c-0.5,0.5-1,0.9-1.5,1.3c-1.6,1.1-3.3,2.1-4.8,3.3C606.3,162.3,605.3,163.3,604.3,164.3z
	"/>
<path d="M662,163.6c-0.2,0.2-0.6,0-1.2,0l5.1-4.8l0.5,0.2c-0.2,0.6-0.4,1.1-0.8,1.6C664.5,161.6,663.3,162.6,662,163.6z"/>
<path d="M646.5,159.5c-1.3,1.2-2.5,1.5-3.9,0.6c1-0.5,1.7-0.8,2.5-1.2c-0.1-0.8-0.2-1.8,1.1-2.1L646.5,159.5z"/>
<path class="st6" d="M691.3,157.9c-0.8-0.9-1-2.2-0.5-3.3c-0.4-0.6-0.8-1.1-1.1-1.8c-0.8-2-2.1-3.7-3.9-4.9c1-2,2.8-3.5,3.2-5.8
	l-0.4-0.3c-0.5,0.3-1,0.7-1.4,1.1c-0.8,1-1.5,2-2.2,3c-0.8,1.2-2.3,1.7-3.7,1.1c-1.1-0.4-2-1.2-2.5-2.3c-0.6-1.2-2-2.2-3.2-3
	c-0.4-0.3-1-0.2-1.3,0.3c-0.1,0.2-0.2,0.5-0.1,0.7c0.3,0.8,0.2,1.8,1.2,2.3c0.9,0.4,1.6,1.3,1.7,2.3c-3.2,1.9-5.9,4.6-7.9,7.8
	c-0.9-1.5-1.7-3.1-2.4-4.7c-0.5-0.9-1.2-1.8-1.9-2.5c-0.4-0.5-0.6-1,0-1.6c3.1-2.9,5.4-6.5,7.7-10.2c2.2,0.1,4.4,0.3,6.5,0.6
	c2.6,0.5,4.9-0.2,7.4-0.8c2.2-0.4,4.4-0.6,6.6-0.7c1.5,5.5,3.4,10.8,5.8,15.9L691.3,157.9z"/>
<path class="st7" d="M597.5,158c-1.6-1.7-2.8-4.1-6-4.3l2.9-1.7c0.5,0.4,1.1,0.9,1.7,1.4c1.2,0.8,2.4,0.4,2.5-0.9
	c0.2-3.5,2-6.7,2.5-10.3c0.1,0.2,0.2,0.5,0.3,0.8c0.2,2.4,0.4,4.9,0.6,7.3c0,1.7-0.7,3.4-1.9,4.7C599.4,155.9,598.5,156.8,597.5,158
	z"/>
<path class="st2" d="M587.6,155.5L587.6,155.5L587.6,155.5L587.6,155.5z"/>
<path d="M587.7,155.4L587.7,155.4L587.7,155.4L587.7,155.4z"/>
<path class="st2" d="M591.8,151.8c-2.2,0.5-4.3-0.8-4.8-3c0-0.1,0-0.1,0-0.2c-0.3-1.3-0.5-2.7-0.4-4.1c0.2-1.7,1.1-3.3,2.4-4.4
	c0.6-0.5,1.5-0.5,2.2,0c1.7,1,3.6,1.1,5.5,1.3c0.9,0.1,1.9,0.1,2.8,0c-0.2,1.8-0.7,3.5-1.2,5.2c-0.5,1.6-0.7,3.3-1.1,5.1
	c-1-0.4-1.1-1.2-1.4-1.8s-0.5-1.5-0.9-2.2c-0.4-1-1.6-1.5-2.6-1c-0.2,0.1-0.3,0.2-0.5,0.3c-0.3,0.2-0.3,0.8-0.5,1.2
	c0.4,0.1,0.7,0.2,1.1,0.3c0.1,0,0.3-0.1,0.5-0.2C594.1,150.1,593.6,151.4,591.8,151.8z"/>
<path class="st6" d="M651.5,151.7c-1.4-0.7-2.5-1.6-3.8-1.8s-2.5,0.4-4,0.8c0.3-0.7,0.6-1.4,0.9-2c1.8-2.8,3-6,3.5-9.3
	c0.4-2.2,0.1-4.4,0.2-6.5c0.1-2.6-1.4-4.6-2.7-6.7c-0.7-1.2-1.4-2.4-2.3-3.4c-0.6-0.8-1.3-1.5-2.1-2.1c-1.3-0.8-2-2.2-2-3.6v-8.3
	c0.9-0.3,2.1-0.7,3.2-1c0.3,0.1,0.4,0.2,0.5,0.2c1.9,1,2.6,2.8,3.3,4.7c1.2,3,2.5,6,3.6,9c0.7,2.1,1.3,4.3,1.8,6.5
	c0.7,2.3,1,4.8,0.6,7.2c-0.2,1.1,0.3,2.3,0.5,3.5c0.2,0.8,0,1.7-0.6,2.3c-0.2,0.4-0.3,0.8-0.2,1.3c0.2,1.4,0.2,2.7-0.1,4.1
	C651.6,148.3,651.5,150,651.5,151.7z"/>
<path class="st8" d="M662.5,143.6c1.2,0.3,0.5,1.3,0.9,1.9c-0.7-0.2-1.1-1-0.9-1.7C662.5,143.8,662.5,143.7,662.5,143.6z"/>
<path class="st8" d="M704,147.1c-0.5-1.8-1-3.5-1.5-5.3c-0.9-3.2-1.6-6.5-2.7-9.6c-1.2-3.6-2.9-7.1-5-10.3c-0.4-0.6-0.7-1.2-0.7-1.9
	c-0.1-1.4,0.1-2.7,0.1-4.1c0-0.6,0.4-0.5,0.8-0.4l0.4,0.7c0.2,0.1,0.5,0.3,0.5,0.4c0.4,1.6,0.8,3.2,1.3,4.8c1,4,2.5,7.9,4.3,11.5
	c0.6,1.1,1.3,2.1,2.1,3.1c1.2,1.3,2.1,2.9,2.6,4.6c0.1,0.3,0.2,0.7,0.4,1C707.4,144,706.6,146,704,147.1z"/>
<path class="st8" d="M662.5,143.6c-0.4,0-0.9,0.2-1.2,0.1c-1.3-0.7-2.5-1.5-4-2.4c0.7-1.3,1.8-2.5,3.1-3.3c1.4-0.9,2.6-2,3.7-3.3
	c1.2-1.5,2.3-3.1,3.3-4.7c1.8-2.6,3.5-5.2,5.2-7.9c1.4-2.2,2.5-4.5,3.9-6.9c0.1,0.4,0.2,0.8,0.2,1.2c-0.3,2.3-0.6,4.6-1,6.9
	c-0.2,1-0.5,2-1.8,2.1c-1.4,1.5-2.8,2.9-4.1,4.4c-1.8,2.3-3.2,4.8-4.1,7.5c-0.7,1.8-1.8,3.5-2.7,5.2
	C662.7,142.9,662.6,143.3,662.5,143.6z"/>
<path class="st2" d="M662.5,143.6L662.5,143.6L662.5,143.6L662.5,143.6z"/>
<path class="st2" d="M662.5,143.6L662.5,143.6L662.5,143.6L662.5,143.6C662.5,143.6,662.5,143.6,662.5,143.6z"/>
<path class="st2" d="M662.5,143.6L662.5,143.6L662.5,143.6z"/>
<path class="st2" d="M598.5,140c-2.5,0.3-5.1-0.3-7.3-1.7c-0.7-0.4-0.9-1.3-0.5-2c0,0,0-0.1,0.1-0.1c1.2,0.8,2.5,1.5,3.8,2.1
	c1.4,0.5,2.9,0.8,4.4,1C598.8,139.6,598.7,140,598.5,140z"/>
<path class="st6" d="M600.5,136.4c-0.1,0.8-0.8,1.4-1.7,1.3c-0.1,0-0.1,0-0.2,0c-1.6-0.3-3.2-0.7-4.8-1.2c-1.1-0.4-1.5-1.3-1.3-2.6
	c0.3-1.6,0.7-3.3,1-4.9c0.9-4.2,2.5-8.2,4.5-12c1.5-2.9,3.6-5.4,6.1-7.5c1.8-1.4,3.8-2.5,5.9-3.3c1.5-0.8,3.3-0.5,4.5,0.8
	c0.4,0.4,0.9,0.8,1.4,1.1c0,0.1,0.1,0.3,0.1,0.3c-1.3,2.7,0.2,5.4,0.1,8v1.3c-1.1-1.3-2-1.4-3.1-0.1c-0.1-0.4-0.2-0.9-0.3-1.4
	c0-2.4,0-4.8,0-7.1c0.2-1-0.3-2-1.1-2.5c-0.2,0.5-0.7,1-0.7,1.5c-0.1,3.2,0,6.4-0.1,9.6c0,0.6-0.2,1.2-0.5,1.7
	c-0.5,0.9-0.6,1.9-0.3,2.8c-0.3,0.3-0.6,0.5-0.9,0.8c-1.5,1.2-2.8,2.6-4,4.1c-1.9,2.2-2.7,4.9-4.2,7.3
	C600.8,135,600.6,135.7,600.5,136.4z"/>
<path class="st9" d="M685,134c-0.9,1-2.3,1.3-3.5,0.9c-1.2-0.5-1.5-1.6-1.6-3c0.2-0.9,0.2-2,1.3-2.6c1.2-0.5,2.5-0.4,3.6,0.4
	C685.6,130.5,685.7,132.8,685,134z"/>
<path class="st10" d="M675.7,134.6l-0.2,0.4c-0.5-0.1-1.3-0.1-1.5-0.5c-0.5-0.6,0.1-1.2,0.6-1.8L675.7,134.6z"/>
<path class="st10" d="M688.1,134.6l-0.2-0.5c2.2-0.5,3.1-1.9,3-4c0.4,0,1-0.1,1.1,0.1c0.7,1.1,0.9,2.5,0.6,3.7
	C691.1,134.1,689.6,134.3,688.1,134.6z"/>
<path class="st9" d="M677.8,133.8c-1.5-0.7-1.5-0.7-1-2.3C678.1,131.8,678.1,131.8,677.8,133.8z"/>
<path class="st9" d="M688.6,131.2c0.7,0.3,0.7,0.7,0.3,1.2C688.2,132.1,688.3,131.7,688.6,131.2z"/>
<path d="M692,128.5c-0.3,0-0.5,0-0.8,0c-2.8-0.5-5.5-0.9-8.3-1.4c-0.4-0.1-0.7-0.1-1.1,0c-1.8,0.4-3.7,0.9-5.8,1.4
	c0.2-1,0.4-1.9,0.5-2.8c0.3-1.7,0.6-3.4,0.8-5.1c0.1-0.8,0.3-1.6,0.3-2.5c0.2-1.1,0.3-2.2,0.1-3.4c-0.2-1.5,0.2-2.9,1-4.2
	c0.8,0.4,1.4,1.1,1.7,2c0.7,1.4,2,2.5,3.5,2.9c1.1,0.4,2.3,0.1,3.2-0.6c0.4-0.3,0.8-0.6,1.4-1.1c0.1,0.4,0.3,0.7,0.4,1.1
	c0.6,0.9,0.8,0.9,1.7,0.4c0.5-0.3,1-0.6,1.7-0.9L692,128.5z"/>
<path class="st11" d="M636.5,124.4h-0.7v-1.2c0.2,0,0.4,0,0.6,0C636.5,123.6,636.5,124,636.5,124.4z"/>
<path class="st9" d="M614.5,121.6c-0.5,0.7-1.1,0.8-2.1,0.6c-0.1-0.7-0.1-1.4,0-2.2c0.2-0.5,0.5-0.8,1-1c0.5-0.1,1.1,0.2,1.2,0.7
	c0,0,0,0,0,0C614.9,120.3,614.9,121,614.5,121.6z"/>
<path class="st9" d="M637.7,119.7c-0.2,1.3-0.6,2.1-1.3,2c-1.1-0.1-2.5-1.4-2.4-2.3c0.1-0.6,1.3-1.4,2.3-1.3
	S637.8,118.6,637.7,119.7z"/>
<path class="st6" d="M625.9,119.9c-1.7,0.2-3.3,0.2-5,0.2c-1.2-0.2-2.4-0.5-3.5-1c0.7-2.2,0.6-4.6-0.2-6.7c-0.4-1-0.2-2.2,0.6-3
	c1.5,0,2.9,0.4,4.2,1.3c1.6,0.9,3.4,1.3,5.2,1c1.6-0.1,3.1-0.4,4.6-0.7c0.4-0.1,0.7-0.4,1.1-0.6l-0.4,7.1c-1.8,0.7-3.5,1.4-5.2,2.1
	C626.8,119.7,626.3,119.8,625.9,119.9z"/>
<path class="st2" d="M695.3,116.3l-0.4-0.7l0.2-1.2C695.6,115.2,695.9,115.7,695.3,116.3z"/>
<path class="st5" d="M637.9,116l-3.5,0.9c-0.2-1.2-0.3-2.4-0.3-3.6c0.1-1-0.2-2.1-1-2.8c-0.1-0.1-0.2-0.2-0.4-0.3
	c1.2-0.4,2.3-0.8,3.6-1.2v2c0.9,0.1,1.6,0.9,1.5,1.8c0,0,0,0,0,0C638,113.9,637.9,114.9,637.9,116z"/>
<path class="st8" d="M686.7,113.8c-0.5,0.7-1.3,0.5-2,0.3c-1.4-0.6-2.6-1.6-3.3-2.9c-0.4-0.6-0.7-1.2-1.2-2.1
	c0.4-0.6,0.8-1.2,1.2-1.7c0.9-1,1.5-2.1,1.9-3.4c0.6-1.8,2.4-2.9,4.3-2.7c0.2,0.1,0.5,0.2,0.7,0.4c-0.3,0.8-0.3,1.6,0,2.3
	c0.8,2.6,1.2,5.3,1.2,8C688.4,112.3,687.4,112.9,686.7,113.8z"/>
<path class="st9" d="M693.7,112.1c-0.5,0.7-1.3,1.2-2.1,1.2l-1.7-11.5c0.8-0.3,1.5-0.6,2-0.8c0.8,1.1,1.5,2.3,2.1,3.5
	C694.9,107,695.5,109.6,693.7,112.1z"/>
<path class="st2" d="M632.7,110.2L632.7,110.2z"/>
<path class="st2" d="M632.7,110.2L632.7,110.2L632.7,110.2z"/>
<path class="st8" d="M629.3,109.6c-1.3,0.2-2.5,0.7-3.9,0.4c-0.4-0.1-1-0.1-1.2-0.3c-1-1.7-2.8-1.9-4.3-2.1
	c-3.2-0.4-5.1-2.4-6.9-4.8c-1.2-1.7-2.2-3.5-2.9-5.4l1.4-0.5c0.5,0.8,0.9,1.5,1.4,2.2c0.6,1.2,1.8,1.8,3.1,1.6
	c1.4-0.2,2.9,0.3,3.8,1.4c0.1,0.1,0.2,0.3,0.4,0.4c2.2,0.5,4.2,1.8,6.6,0.9c1.2-0.4,2.6-0.4,3.8,0.2c0.6,0.3,1.3,0.2,1.8-0.2
	c1-0.6,2.1-0.9,3.2-0.9c1.5-0.2,2.9-0.5,4.3-1c0.4-0.2,0.7-0.4,0.9-0.8c0.5-0.7,1.1-1.3,1.6-1.9c0.2,1.3-0.6,2.2-1.3,3.1
	c-0.8,1.1-1.7,2.2-2.6,3.2c-0.5,0.6-1.1,1.1-1.7,1.5C634.7,108.1,632,109.2,629.3,109.6z M623.9,106.5c1,1,2.1,0.7,3.1,0.7
	c0.4,0,0.4-0.8,0-1.2C626.1,105.2,625,105.4,623.9,106.5L623.9,106.5z"/>
<path class="st8" d="M700,107c-1.1,1-2.1,2-3.3,3.2c-0.3-1.6-0.6-2.8-0.9-4.1c-0.1-1.1-0.5-2.1-1.1-2.9c-0.2-0.3-0.3-0.7-0.2-1
	c0.2-0.8,0.4-1.6,0.6-2.3l-3.1-2.8l-0.1-2.8c1.1-0.7,2.1-1.6,3-2.6c1.3-1.3,2-3,2-4.8c0-0.6-0.1-1.1-0.3-1.7l0.6-0.2
	c0.3,0.8,0.5,1.6,0.7,2.4c0.3,1.1,0.3,1.2,1.6,1.2c0.7-1.2,0.7-2.8-0.2-4c-0.3-0.7-0.5-1.5-0.5-2.2c-0.1-1.1,0-2.2,0-3.3l0.3-0.5
	c2,1.1,3.9,2.4,5.8,3.8c-0.7,1.4-1.3,2.7-2,4c-0.6,0.9-0.8,2-0.8,3.1c0,1-0.1,2,0,3c0,1.3,0.7,2.4,1.8,3.1c0.9,0.7,2.2,1,3.3,0.6
	c0.4-0.1,0.7-0.1,1.1,0c1,0.8,1.3,2.3,0.7,3.4c-0.8,1.8-2.8,2.7-4.7,2c-0.8-0.3-1.5-0.7-2.4,0.2C702.7,104,701.7,105.6,700,107z
	 M704.3,100.6c1.4,0.3,1.5,0.2,1.8-1.6c-0.4,0-0.8,0.1-1.3,0.1c-0.2,0.4-0.3,0.8-0.5,1.1C704.3,100.4,704.3,100.5,704.3,100.6z"/>
<path class="st8" d="M627,107.2c-1,0-2.1,0.4-3.1-0.7c1.1-1.2,2.2-1.3,3.2-0.5C627.4,106.4,627.4,107.2,627,107.2z"/>
<path class="st9" d="M680.9,106c-0.7,1.3-1.8,2.4-3.1,3.1c-0.8-1.5-1.1-3.2-0.8-4.9c0.3-1.4,1-1.9,2.5-1.7c0.4,0.1,0.8,0,1.3,0.1
	s0.8,0.1,1.5,0.2c-0.8,0.9-1.6,1.3-1.1,2.4C681.2,105.4,681.1,105.7,680.9,106z"/>
<path class="st8" d="M683.5,100.8c-4.1,0.6-8.2-0.7-11.2-3.5c-1.6-1.6-2.2-4.1-1.4-6.3c0.2-0.6,0.3-1.1,0.5-1.7
	c0.2-0.5,0.4-0.9,0.7-1.4c2.7-2.6,6.9-2.9,9.9-0.7c0.9,0.7,1.8,1.3,2.7,2c0.6,0.4,1.2,1,1.5,1.7c0.3,0.9,1.1,1.7,2,2.1
	c0.4,0.2,0.7,0.9,1.1,1.5c0.8,0.2,1.6,0,2.3-0.4L692,97l-1,0.8c0.4,1.5,0.2,2.1-0.6,2.2c-1.1,0.2-1.6-0.3-1.9-2.5
	c-0.9-0.2-1.5-0.2-1.9,0.9C686.2,99.8,684.9,100.8,683.5,100.8z"/>
<path d="M706,99c-0.3,1.8-0.4,1.9-1.8,1.6c0-0.1,0-0.2,0-0.4c0.2-0.4,0.3-0.8,0.5-1.1C705.2,99.1,705.6,99,706,99z"/>
<path class="st8" d="M628.3,98L628.3,98c-0.5,0-1.1,0-1.6-0.1c-0.7-0.2-1.7-0.2-1.8-1.2c-0.1-0.9,0.1-1.8,0.7-2.5
	c1-1.2,2.4-1.7,3.7-2.4c0.2-0.1,0.3-0.1,0.5-0.1c0.6,0,2.8,2.1,2.9,2.8c0.2,1.4-0.7,2.7-2.1,3C629.7,97.8,629,97.9,628.3,98z"/>
<path class="st8" d="M610.1,97.5L610.1,97.5c-0.2-0.6-0.5-1.3-0.7-1.9c0-0.1-0.1-0.2-0.1-0.4c0.7-0.6,1.4-1,1.7-1.5
	c0.9-1.8,1.7-3.8,2.5-5.8c-0.8-0.5-1.2-1.5-1-2.4c0.1-2.2,0-4.4-0.1-6.6c-0.1-1.1,0.7-1.6,1.5-2c0.7-0.5,1.6-0.5,2.3,0
	c1.2,1,2.8,1.1,4.1,0.3c0.3-0.2,0.6-0.3,0.9-0.4l0.3,0.6c-0.1,0.1-0.2,0.1-0.3,0.2c-1.4,1.1-2.6,2.4-3.7,3.8
	c-0.3,0.3-0.2,0.9-0.3,1.3c0.5,0,1.1-0.3,1.5-0.6c0.8-0.8,1.6-1.7,2.5-2.5c0.5-0.8,1.6-1,2.4-0.4c0.3,0.1,0.6,0.2,0.9,0.1v0.7
	c-0.4,0-0.8,0.2-1.1,0.4c-3.3,2.3-5.2,6.1-5.1,10.1c0,0.5-0.1,0.9-0.2,1.4c-0.2,0.8-0.2,0.8,0.5,1.6c1.8-0.1,3.5-0.2,5.2-0.2
	l-1.3,4.4c-1.9-0.3-3.7-0.7-5.5-1.2c-1.2-0.4-2.6-0.2-3.7-1.2c-0.6-0.6-1.5,0-2.2,1.2l0.5,0.7L610.1,97.5z"/>
<path class="st12" d="M609.3,95.2"/>
<path class="st9" d="M708.3,94.2c-0.7,0.9-1.9,1.2-3,0.9c-0.9-0.3-1.6-1.1-1.7-2.1c-0.3-3.4,0.3-6.6,2.8-9.3
	c0.4,0.2,0.8,0.3,1.3,0.5c1.8,0.3,1.9,0.4,2,2c0.1,1.1,0.1,2.3,0.2,3.4C710,91.2,709.4,92.9,708.3,94.2z"/>
<path class="st8" d="M639,93.8c-1.2,0.6-2.1,1.1-3.2,1.7l-0.6-3C636.5,92.9,637.5,93.3,639,93.8z"/>
<path class="st8" d="M605.4,93.5c-0.5,0.4-1.3,0.4-1.8,0c-2.2-1.2-3.1-2.9-2.6-5.3c0.3-1.6,0.5-3.4,2-4.5c1.1-0.9,2.3-1.7,3.9-1.1
	c0.4,0.1,0.9,0.4,0.9,0.7c0.2,1.2,0.5,2.6,0.2,3.7c-0.5,1.7-0.4,3.4,0.3,5C607.2,92.5,606.3,93,605.4,93.5z M604.7,90.3
	c0.7,0.2,1.5-0.2,1.7-0.9c0-0.1,0-0.2,0.1-0.3c-0.4-0.2-0.7-0.4-1.1-0.6l0.1-1.6c-1.2-0.2-1.8,0.2-2,1.1
	C603.3,89,604.1,90.2,604.7,90.3L604.7,90.3z"/>
<path class="st8" d="M642.7,91.5c-0.9,0-1.3,1.6-2.4,0.7c0-0.2,0-0.4,0-0.4c1.5-0.9,1.5-2.3,1.6-3.9c0.1-2.6-0.9-5.2-2.6-7.2
	c-0.3-0.4-0.6-0.6-1-0.8l0.2-1.7c0.5,0.2,1,0.6,1.4,1l0.2-2.1c-0.3-0.2-0.7-0.4-1.1-0.6l0.1-1.1c0.8,0.4,1.5-0.2,1.2-1.1
	c-0.5-1.4-1-2.8-1.8-4.1c-0.3-0.4-1-0.6-1.5-0.9s-1.1-0.4-1.6-0.6c0.1-1.5,0.2-3,0.3-4.4c0-3.9-3-7.2-6.9-7.6
	c-0.6-0.1-1.2,0-1.8,0.2c-2.1,0.8-4.4,0.9-6.2,2.6c-2.3,2.2-3.6,5.3-3.5,8.5c0.1,1.5-0.1,3,1.6,4.1c-1.1,0.8-2.2,1.4-3.4,2
	c-3.3,1.2-5.7,3.6-8.1,6c-0.5,0.6-1.2,0.9-2,0.9c-0.9,0-1.9,0.2-2.9,0.4c-0.3-2-0.2-4,0.3-6c0.6-2.6,1.7-5,3.3-7.1
	c0.1-0.2,0.2-0.4,0.3-0.6c1.1-3.7,2.9-7.1,5.4-10c1.8-2.3,4.1-4.2,6.8-5.5c4.3-2.1,9.1-3,13.9-2.5c1.9,0.1,3.7,0.9,4.9,2.3
	c0.6,0.6,1.6,0.9,2.1,1.6c1,1.3,2.2,2.4,3.6,3.2c0.1,0.1,0.2,0.1,0.2,0.3c1.9,4,4.2,8,3.3,12.7c-0.4,2.3-0.6,4.6-1.8,6.7
	c-0.4,0.7-0.9,1.3-1.5,1.7c-1.9,1.4-2.3,2.3-1.6,4.6c0.3,1,0.6,2.1,1,3.1c0.2,0.6,0.4,1.2-0.1,1.9c-0.1,0.2-0.2,0.4-0.1,0.7
	C642.5,89.4,642.6,90.4,642.7,91.5z"/>
<path class="st2" d="M621.3,91.6h-1.4c-0.8-3.8,1.3-8.7,4.3-9.9c1.6,1.5,1.7,2.5,0.2,3.8C622.6,87,621.5,89.3,621.3,91.6z"/>
<path class="st2" d="M691.3,92.6c0.5-1.4,0.2-3-0.9-4c-0.7-0.7-0.3-2.1,0.6-3.1c0.4-0.4,0.9-0.8,1.4-1.1c0.8-0.6,1.9-0.4,2.5,0.4
	c0.2,0.2,0.3,0.5,0.3,0.8C695.9,88.5,694.4,91.3,691.3,92.6z"/>
<path class="st2" d="M634.6,90.5c0,0-0.1,0-0.3,0.1c-1.4-4.1,0.5-8.1,3.4-9.2c0.5,0.5,0.9,1,1.3,1.6c0.7,1.1,0.5,1.7-0.6,2.3
	c-1.9,0.9-3.2,2.8-3.5,4.9C634.7,90.3,634.6,90.4,634.6,90.5z"/>
<path d="M606.5,89.1c-0.1,0.7-0.7,1.3-1.5,1.3c-0.1,0-0.2,0-0.3-0.1c-0.6-0.1-1.3-1.4-1.2-2.2s0.8-1.3,2-1.1l-0.1,1.6
	C605.7,88.7,606.1,88.9,606.5,89.1z"/>
<path class="st8" d="M632.7,90.6c-1.3-0.2-2.6-0.3-3.9-0.5c-0.6-2.5-1.2-5.1-2-7.7c-0.4-0.9-1-1.6-1.7-2.2c-0.2-0.2-0.5-0.4-0.9-0.4
	v-0.7c0.1,0,0.2,0,0.3,0l0.4-0.4c-0.4-0.5-0.6-1.5-1.1-1.5c-0.8-0.2-1.6-0.1-2.4,0.1l-0.3-0.6c2.1-0.7,4.3-1.2,6.6-1.3
	c2.3-0.3,4.6-0.7,7-0.3c0.7,0,1.3,0,1.9-0.2c0.8-0.2,1.7-0.1,2.4,0.3c0.1,0,0.1,0.1,0.2,0.1l-0.2,1.1c-1.6-0.7-3.4-0.4-4.7,0.8
	c-0.7,0.6-1.9,1-1.2,2.5c1.8-1.2,3.5-2.3,5.4-1.5l-0.2,1.7c-0.7-0.3-1.4-0.1-2,0.3c-2,1.2-3.4,3.3-3.8,5.6c-0.1,0.3-0.1,0.7-0.3,1
	C631.6,88,631.8,89.6,632.7,90.6z"/>
<path class="st2" d="M639.2,90.7c-0.3-0.8-0.6-1.6-0.8-2.3c-0.2-0.5,0.1-1,0.6-1.2c0.1,0,0.2,0,0.3,0c0.6,0,0.8,0.2,0.8,0.8
	C640.1,89,640.3,90,639.2,90.7z"/>
<path d="M699.5,88.7c-1.4,0-1.4-0.1-1.6-1.2c-0.2-0.8-0.4-1.6-0.7-2.4l-0.5-1.5c-0.2-0.3-0.3-0.6-0.5-0.9c-1.1-2.2,0-3.7,2.7-3.6
	c0,1.1-0.1,2.2,0,3.3c0,0.8,0.2,1.5,0.5,2.2C700.1,85.8,700.2,87.4,699.5,88.7z"/>
<path class="st2" d="M626.5,88.2c-0.7,0.1-1.3-0.3-1.4-1c0,0,0,0,0,0c0-0.2,0.4-0.5,0.8-0.9L626.5,88.2z"/>
<path class="st2" d="M688,87.6c-0.9-1.8-0.8-3.7-2.6-4.3c0.5-0.6,0.9-1.1,1.2-1.5c0.5-0.7,1.4-1,2.3-0.7c0.3,0,0.6,0.5,0.7,0.9
	c0.1,0.6,0.1,1.2,0,1.8C689.1,84.8,688.6,86,688,87.6z"/>
<path class="st8" d="M697.1,85l-0.6,0.2c-0.6-1.9-2.7-2.9-4.6-2.2c-0.2,0.1-0.4,0.2-0.6,0.3c-0.6-1.6-0.2-3.8-2.8-3.9l0.1-0.4
	c0.7-0.1,1.4-0.2,2.1-0.1c2,0.5,3.2-0.3,4.1-2c0.1-0.1,0.2-0.2,0.4-0.5c1.3,0.7,2.6,1.4,3.8,2.1l-0.3,0.5c-2.7-0.1-3.8,1.4-2.7,3.6
	c0.2,0.3,0.4,0.6,0.5,0.9L697.1,85z"/>
<path d="M618.6,82c-0.4,0.4-0.9,0.6-1.4,0.6c0.1-0.5,0-1,0.3-1.3c1.1-1.4,2.4-2.6,3.7-3.8c0.1-0.1,0.2-0.1,0.3-0.2
	c0.8-0.2,1.6-0.3,2.4-0.1c0.5,0.1,0.7,1,1.1,1.5l-0.4,0.4c-0.1,0-0.2,0-0.3,0c-0.3,0-0.6,0-0.9-0.1c-0.8-0.5-1.8-0.3-2.4,0.4
	C620.2,80.3,619.4,81.1,618.6,82z"/>
<path class="st1" d="M707.7,76.6c0.8,2.1,1,4.4,0.3,6.5c-2.4-2.1-5-3.9-7.8-5.4c-2.7-1.5-5.4-3-8.3-4.6c0.5-0.4,1.1-0.8,1.7-1.1
	c2-0.7,4.2-1.1,6.3-1c2.2,0.1,4.2,1.1,5.7,2.7c0.3,0.5,0.5,1,0.4,1.6c0,1.1-0.3,2.1-0.4,3.2C707.8,79.3,706.7,76.8,707.7,76.6z"/>
<path class="st8" d="M687.9,79.1c-0.9,0.6-1.6,1.2-2.5,1.8C685.7,79.2,686.1,79,687.9,79.1z"/>
<path d="M633.2,79.7c-0.7-1.5,0.5-1.9,1.2-2.5c1.3-1.2,3.1-1.5,4.7-0.8c0.4,0.2,0.7,0.4,1.1,0.6l-0.2,2.1c-0.4-0.4-0.9-0.8-1.4-1
	C636.7,77.3,634.9,78.5,633.2,79.7z"/>
<path class="st2" d="M710.3,76.6c-0.1,0.1-0.3,0.2-0.5,0.3c-0.4-0.7-0.8-1.5-1.1-2.3c-0.1-0.4-0.1-0.9,0.1-1.3
	c0.5-1.1,1.2-2.2,1.8-3.3c2.4-3.7,5.5-6.9,9.1-9.5c5.3-3.6,10.1-7.8,14.5-12.5c1.5-1.6,3.2-3,5-4.3c0.9-0.5,1.8-0.9,2.8-1.2
	c1.3,2.1,0.8,4.7-1.2,6.2c-1,0.7-2.1,1.4-3.2,1.8c-1.9,0.7-3.5,1.9-4.6,3.5c-0.2,0.4-0.4,0.8-0.6,1.3c0.8,0.6,1.3,0.4,1.7-0.3
	c0.4-0.6,0.9-1.5,2.1-1.6c0.4,1.1,0.4,2.4-0.1,3.5c-0.2,0.5-0.7,0.8-1.2,1c-1.8,0.5-3.7,0.8-5.6,1.2c-1.2,0.3-2.5,0.5-3.6,0.8
	c-0.8,0.2-1.4,1.1-1.1,1.9c0,0,0,0.1,0,0.1c0.8-0.3,1.4-0.7,2.1-0.9s1.5-0.4,2.2-0.5c0.7,2.5,0.1,4-2,5.2c-0.4,0.2-0.7,0.4-1.1,0.5
	c-2.7,0.7-5.2,1.8-7.5,3.3C715.2,71.7,712,73.3,710.3,76.6z"/>
<path class="st9" d="M693.7,76.1c-1.5,0.8-3.2,0.9-4.8,0.5c0.5-2.1,0.9-2.3,2.8-1.7C692.6,74.9,693.3,75.4,693.7,76.1z"/>
<path class="st6" d="M619.1,75.6c-0.4,0.2-1.1,0-1.6-0.1l-0.1-0.4c0.7-0.4,1.3-0.8,2-1.1c2.5-1.1,5.1-2,7.8-2.5
	c0.8-0.2,1.5-0.4,2.3-0.6c2.1-0.3,2.4-0.2,4,1c1.6-2,2.9-1.7,4.8,0.9c-1.8,0.1-3.3,0.6-5.1,0.5c-2.1,0-4.2,0.1-6.2,0.5
	C624.2,74,621.6,74.6,619.1,75.6z"/>
<path class="st2" d="M692.6,71c-0.9,0.5-1.7-0.1-2.5,0.1c-0.2,0-0.9-0.7-0.9-1.1c-0.1-3.7,0.2-7.3,2.6-10.5c1.8-2.5,4-4.5,5.8-7
	c0.6-0.6,1.2-1.2,1.8-1.7c2.1-1.8,4.4-3.5,6.3-5.5c1.4-1.3,2.7-2.8,3.7-4.5c0.9-1.9,1.9-3.7,3.1-5.4c0.5-0.8,1.2-1.4,2.1-1.9
	c0.5-0.4,1.3-0.3,1.7,0.3c0.2,0.2,0.3,0.6,0.2,0.9c0,2.4-0.2,4.8-2.3,6.5c-1.9,1.6-3.8,3.1-5.5,4.8c-0.8,0.7-1.8,1.4-1.9,2.6
	c1.5,1.1,1.7-1.3,2.9-1c0.3,1.7-0.6,3.4-2.3,4c-1.4,0.6-2.9,1.2-4.2,1.9c-1.8,1-3.1,2.7-3.5,4.8c1.7,0.8,1.7-1.5,2.9-1.5
	c1,1.2,0.9,3-0.3,4c-0.1,0.1-0.1,0.1-0.2,0.2c-2,1.7-4,3.5-6,5.1c-0.8,0.8-1.4,1.9-1.6,3C694.2,69.8,693.5,70.6,692.6,71z"/>
<path class="st2" d="M621.3,70.6c-1.7,0-1.9-0.3-2-1.7c-0.2-2.1,0.3-4.2,1.3-6c0.6-1,1.4-1.9,2.4-2.6c1.6-1.1,3.4-1.7,5.3-1.8
	c2.7,0,5,1.8,5.7,4.4c0.4,2.1,0.3,4.4-0.5,6.4c-3.2-1.7-2.8-4.7-3.4-7.3c-1.6-0.3-2.4,0.5-3.3,3.5c-1.3-0.3-1.3-0.3-3.4-2.2
	c-1.2,0.2-1.4,1.2-1.3,2.1C622.2,67.2,622,68.9,621.3,70.6z"/>
<path class="st2" d="M623.4,70.5c-0.3-1.5,0.3-2.7,0.6-4.1c0.7,0.2,1.4,0.5,2,0.7c1.8,0.7,1.9,0.6,2.5-1.4l1.3,3.2
	C627.7,69.5,625.6,70,623.4,70.5z"/>
<path d="M668.7,36.8c0,0.2-0.2,0.5-0.3,0.9c-0.7-0.6-1.1-1.5-1.2-2.5c-0.1-1.1-0.3-2.2-0.4-3.4c0.1-0.8-0.2-1.7-0.8-2.3
	c-0.2-0.4-0.3-0.8-0.2-1.3c0.1-0.6,0.4-1.1,0.5-1.7c0.3-1-0.1-2.1-1-2.6c-1.6-1.1-2-2.4-1-3.9c1.1-1.5,2.3-3,3.6-4.4
	c0.3-0.2,0.6-0.4,1-0.6c0.7,0.9,0,1.2-0.4,1.7c-1,1.3-1.9,2.5-2.9,3.8c-0.4,0.5-0.4,1.2,0,1.6c0.1,0.1,0.2,0.2,0.3,0.2
	c0.5,0.4,1,0.9,1.4,1.4c0.7,0.7,0.9,1.8,0.5,2.7c-0.5,0.9-0.5,2,0,2.9c0.2,0.6,0.3,1.1,0.3,1.7C668.4,33,668.6,34.8,668.7,36.8z"/>
<path d="M669.6,10.1c-1.8-0.2-3.5-0.9-5-1.9c-2-1.3-2.2-3.6-0.8-5.6c0.5-0.9,1.3-1.5,2.2-2c0.7-0.5,1.6-0.5,2.3,0
	c0.5,0.4,1.2,0.4,1.6-0.1c0.3-0.2,0.6-0.4,0.9-0.5c0.9-0.2,1.9,0,2.7,0.7c0.7,0.8,0.4,1.7,0,2.5c-0.5,1-1.1,2-1.7,2.9
	C671.2,7.4,670.5,8.7,669.6,10.1z M666.1,7.5c0.9,0.4,1.9,0.7,2.9,1.1c1.2-1.9,2.2-3.5,3.2-5.2c0.5-0.8,0.3-1.5-0.4-1.8
	c-0.8-0.3-1.6,0-2,0.7c-0.1,0.3-0.1,0.7-0.2,1s-0.4,0.9-0.8,1.7l-1.2-3.2c-1.8-0.1-2.5,0.4-3,2.2C664.1,5.4,664.8,6.9,666.1,7.5
	L666.1,7.5z"/>
<path class="st13" d="M669,8.5c-1-0.4-1.9-0.7-2.9-1.1c-1.3-0.6-2-2-1.6-3.4c0.5-1.8,1.2-2.4,3-2.2l1.3,3.2c0.4-0.8,0.6-1.3,0.8-1.7
	c0.2-0.5,0.1-0.7,0.2-1c0.4-0.7,1.2-1,2-0.7c0.7,0.3,0.9,1,0.4,1.8C671.2,5,670.2,6.7,669,8.5z"/>
<polygon class="st5" points="616.2,117.8 615.2,116.9 614.6,116.7 613.9,116.9 613.5,117.2 613.1,117.6 612.8,116.5 612.8,108.1 
	612.6,107.5 612.1,106.9 611.7,106.6 611.9,105.8 613.2,106.1 614.1,106.6 615,107.4 615.6,107.9 615.9,108.1 616,108.5 615.8,109 
	615.6,110 615.5,111 615.6,112.4 615.7,113.1 615.9,114.2 616,114.8 616.1,115.4 616.2,116 616.2,116.5 "/>
<polygon points="611.1,107.9 611.1,105.8 612.5,105.8 612.8,108.1 "/>
<polygon class="st6" points="639.4,75.4 642.3,79.1 644.1,77.4 645.2,75.7 646,73.2 646.4,70.5 646.7,67.2 646.6,65.5 646.3,64.5 
	645.5,61.9 644.4,59.5 643,56.8 641.8,56 640.2,54.4 638.8,53.1 637.3,52 635.9,50.8 634.1,50.1 629.4,49.6 626.3,49.8 623,50.5 
	617.9,52.5 615.6,53.9 612.4,56.8 610.8,58.8 608.2,63.3 607.1,65.7 606.5,67.7 605,70 603.4,73.6 602.5,77.4 602.5,80.6 
	602.6,81.4 605.9,81 607.5,80.1 610.6,77.3 613.3,75.3 616.5,73.8 619.1,72.1 618.4,71.6 617.8,70.7 617.5,68 618.1,64 618.9,62.1 
	619.9,60.7 621,59.5 622.1,58.6 623.5,58 624.9,57.5 627.1,56.9 628.9,56.7 630.7,57.1 631.7,57.5 633,58.4 634.5,60 635.1,61.1 
	635.6,62.5 635.8,64.6 635.7,66.4 635.6,67.8 635.6,68.6 637.9,69.6 638.6,70.1 639.6,72.1 640.2,73.5 640.4,74.2 640,75.4 "/>
<polygon class="st14" points="639.4,75.4 642.3,79.1 640,75.4 "/>
<polygon points="640.3,74.7 643.3,78.2 642.3,79.1 639.4,75.4 "/>
<path d="M640.4,74.2l-0.2,0.5L640.4,74.2z"/>
</svg>
