<svg id="Calque_1" data-name="Calque 1" xmlns="http://www.w3.org/2000/svg" xmlns:xlink="http://www.w3.org/1999/xlink" viewBox="0 0 1000 1000"><defs><style>.cls-1{fill:#fdf1ba;}.cls-2{fill:#998675;}.cls-3{fill:#fff;}.cls-4{fill:url(#Dégradé_sans_nom_6);}.cls-5{fill:url(#Dégradé_sans_nom_6-2);}.cls-6{fill:url(#Dégradé_sans_nom_6-3);}.cls-7{fill:url(#Dégradé_sans_nom_6-4);}.cls-8{fill:url(#Dégradé_sans_nom_6-5);}.cls-9{fill:url(#Dégradé_sans_nom_6-6);}</style><linearGradient id="Dégradé_sans_nom_6" x1="412.11" y1="653.58" x2="412.11" y2="531.17" gradientUnits="userSpaceOnUse"><stop offset="0" stop-color="#f7931e"/><stop offset="1" stop-color="#fcee21"/></linearGradient><linearGradient id="Dégradé_sans_nom_6-2" x1="555.68" y1="651.16" x2="555.68" y2="525.6" xlink:href="#Dégradé_sans_nom_6"/><linearGradient id="Dégradé_sans_nom_6-3" x1="375.55" y1="408.46" x2="458.95" y2="408.46" xlink:href="#Dégradé_sans_nom_6"/><linearGradient id="Dégradé_sans_nom_6-4" x1="344.9" y1="468.22" x2="380.74" y2="468.22" xlink:href="#Dégradé_sans_nom_6"/><linearGradient id="Dégradé_sans_nom_6-5" x1="588.5" y1="406.33" x2="504.59" y2="406.33" xlink:href="#Dégradé_sans_nom_6"/><linearGradient id="Dégradé_sans_nom_6-6" x1="589.44" y1="447.1" x2="608.45" y2="447.1" xlink:href="#Dégradé_sans_nom_6"/></defs><title>astérix penseur</title><path d="M510,686.26l-7.61,7.79c-.79.79-2.35,1.61-2.29,2.32.53,6.91-5.32,8.89-9,12.73-3.4,3.5-6.75,3.38-10.23,1.46s-6.7-4.62-10-7.06c-3.5-2.6-6.91-5.33-10.39-8C450.6,688,439.74,685.11,427.07,685A124.66,124.66,0,0,1,391,679.31c-15.53-4.82-31.75-7.36-47.59-11.21q-25.5-6.18-50.84-13c-15.44-4.16-31.06-7.94-46.08-13.36-18.14-6.56-35.29-15.27-48.3-30.44-1.53-1.78-5.14-2.54-7.77-2.49-11.38.19-22.76.89-34.14,1.35-21.58.86-43.14,1.93-64.5,5.38a10.32,10.32,0,0,1-6.68-.94c1.37-.84,2.67-2.2,4.14-2.43,8.34-1.29,16.7-2.76,25.11-3.33,23.3-1.57,46.63-2.73,70-4.05l8.49-.49c-.83-9.63,5.66-13.59,12.52-17.94,18.1-11.51,37.1-21.24,57.59-27.3,13.92-4.12,28.48-6.2,42.85-8.62,16.63-2.8,33.36-5,50.24-7.47.4-4.74-2.75-5.82-6.7-6.85-18.52-4.84-28.37-17.32-31-36-1.84-12.93,4.91-21.67,14.19-29.11,2-1.59,4.49-2.56,6.81-3.84,0-24.9-3.09-50.25,10.07-73.95-6.34-3.79-12.84-7-18.6-11.25a117.5,117.5,0,0,1-41.95-56.92c-4.41-12.61-6.91-25.9-10.25-38.89a17.09,17.09,0,0,1-.28-2.6c-1.15-13,1.87-15.68,15.61-13.07,0-3.54,0-6.95,0-10.35,0-10.53-.16-21.06.22-31.57a44.14,44.14,0,0,1,2.53-11.92c3.16-9.64,8.35-10.63,16.08-3,2.5-10.31,4.88-20.44,7.44-30.52a77.81,77.81,0,0,1,3.9-12.53c1.52-3.44,4-6.53,9.94-7.29l5.94,7c2.89-7.21,5.35-14,8.34-20.55A73.73,73.73,0,0,1,355,138.72c3-4.3,6.53-4,10.88.08,2.06-5.09,3.66-10,6-14.6,2.79-5.39,5.67-10.92,9.55-15.52,4-4.78,7.37-3.8,9.62,2.1,2.61,6.88,1.34,13.9-.52,20.63-4.73,17.15-9.71,34.23-14.82,51.28a249.82,249.82,0,0,0-10,54.95c-1,14.49-3,29-2.87,43.44.17,16.31,2.17,32.61,3.57,48.89.62,7.22,1.74,14.39,2.7,22.16,14-11.2,27.08-22.31,40.86-32.41,13.59-10,28-18.84,44.41-24.38-4-15.66,2.48-26.69,14.83-34.56,8.9-5.67,19.65-2.12,24.43,7.32a29.51,29.51,0,0,1,1.58,24.12c2.16.9,3.9,1.75,5.72,2.34,13.35,4.34,24.42,12.53,34.75,21.55,14.65,12.79,28.68,26.28,43.37,39.82,4.86-8,7.68-17.62,10-27.43,5.9-25.17,7.51-50.64,6.86-76.52-.52-20.78-.47-41.51-5.52-61.78-4.58-18.38-10-36.53-14.67-54.89a131.17,131.17,0,0,1-3.25-21.45c-.25-2.91,0-6.8,4.18-7.8,4.29-1,8.46-.46,10.85,3.61,4,6.78,7.59,13.78,11.17,20.78,1.84,3.6,3.28,7.41,4.86,11.05.9-.18,1.7-.11,1.88-.41,1.21-2.09.86-5.84,4.56-5.32a13.2,13.2,0,0,1,6.86,3c8.34,7.82,12.64,18,15.88,28.74,1.16,3.81,2.26,7.64,4,13.5,1.78-6.24,2.61-11.38,8.08-11.13s6.53,5.39,7.52,9.54c2.55,10.72,4.66,21.54,7,32.52,2.52.61,7.69.34,9.54,2.68,2.61,3.31,3.57,8.5,3.83,13,1,16.33-1.59,32.38-5.59,48.19,9.71,1.89,10.79,2.68,9.51,12a80.1,80.1,0,0,1-5.42,20.12,109.82,109.82,0,0,1-32,43.18c-2,1.64-3.64,3.78-5.5,5.63-7.31,7.23-15.25,13.54-24.81,17.63-4.54,1.94-9,4.18-14.16,6.61,12.25,18.84,18.72,39,17.12,61.7,6.35-.49,11.66.87,16.51,4.48s6.25,9,7.5,14.42c2.32,10.09,3,20.09-.69,30.16-3.79,10.45-11.74,16.72-21.14,21.05-5.83,2.69-9.41,6-10.22,12.46-.34,2.79-1.9,5.43-3,8.48a23.23,23.23,0,0,0,3.61,1.36c22.81,4.06,44.12,12.59,65.61,20.91,15.57,6,31.21,11.81,45.63,20.14,18.16,10.49,35.71,22,53.63,32.95a16.07,16.07,0,0,0,7.14,2.15c6.06.37,12.14.39,18.21.31s12.22-.48,18.33-.73c2.33-.1,4.68-.34,7-.21,15.72.88,31.44,2,47.16,2.74,10.42.5,20.89.13,31.27,1,11.3.91,22.54,2.59,33.76,4.29,10.66,1.61,21.25,3.7,31.87,5.55,3.05.53,6.18.86,9.12,5.27-23.13-1.09-43.8-8.88-65.55-9.22-21.58-.34-43.13-2.27-64.7-3.17-21.84-.92-43.71-1.43-64.92-2.1-1.87,6-2.92,11.06-5,15.67-5.79,12.7-17.45,18.9-29.52,23.23-18.61,6.69-37.74,11.9-56.67,17.68-9.19,2.8-18.35,5.71-27.63,8.16-24,6.34-47.89,12.79-72,18.46-9,2.12-18.47,2.7-27.76,3-6.69.22-13-2-18.9-5.83C531.09,689.18,520.92,684.65,510,686.26Zm72.86-309.62c-3.37-5.53-6.64-7.77-9.58-6.18-4.33,2.33-4.35,6.26-3.25,10.39a19.22,19.22,0,0,0,1.34,2.93C578.53,386.28,580.11,385.3,582.88,376.64ZM598,311.85c1.14-3.55,2.66-7,3.35-10.65,2.54-13.46,4.75-27,7.2-40.45,1.13-6.27,2-12.86,10.59-13.82-.1-18-.86-35.41-4.69-52.58-1.9-8.54-4.21-17-6.31-25.47-4.45-18-11.74-34.8-20.63-51-1.89-3.44-3.68-7.38-8.68-7.78-3.25,3.67-2.29,8-1.54,11.79a175.51,175.51,0,0,0,5.88,22.84A351.72,351.72,0,0,1,599.43,219c1.33,11.79.5,23.81.92,35.72.58,16.31.36,32.56-2.31,48.73-.46,2.79.09,5.74.17,8.61-.8,1.28-2.1,2.47-2.34,3.85-3.09,17.87-7.19,35.36-17.38,49.77l10.64,13.95c10.09-5.16,20.87-9.75,30.62-16,7-4.49,12.69-11.14,19-16.82,14.59-13.18,25.4-29,31.51-47.65,1.9-5.82,4.28-12,1.32-20-2.48,2.26-4.67,3.59-5.91,5.54a91.32,91.32,0,0,0-5.07,10.14c-4.59,9.74-9.07,19.54-13.79,29.23-.84,1.72-2.53,3.05-3.92,4.48-1.93,2-4.26,3.71-5.88,5.94-8.27,11.37-17.49,21.83-28.55,30.56-.94.74-2.77.34-5.68.61,7.85-7.58,15.06-13.52,21-20.55,6.16-7.3,11.38-15.46,16.46-23.59,4.85-7.77,7-16.5,7.6-27.75-2.94,4.09-4.75,6.34-6.27,8.77-7,11.13-13.82,22.33-20.78,33.47a38.45,38.45,0,0,1-14.63,13.34c3-5.63,5.58-10.71,8.32-15.71,7.87-14.36,15.43-28.84,19.76-44.76,1.56-5.74,3.18-11.47,1.49-18.95-2.2,2.47-3.88,3.68-4.64,5.32-3.78,8.18-7.33,16.46-10.93,24.72-3.5,8-6.88,16.08-10.48,24-1.13,2.5-2.4,5.3-6.42,4.89.11-1.21-.08-2.15.29-2.77,9.7-16.42,12.19-35.08,16.45-53.16,1.45-6.15-.72-17.47-4-22.58-1.26,3.65-2.6,6.44-3.18,9.38-2.88,14.57-5.47,29.2-8.37,43.77-.81,4-1.2,8.47-5.57,12.14C598.47,313.88,598.24,312.88,598,311.85ZM481.84,691l-.17.17c1.79,1.72,3.6,3.43,5.38,5.17,2.37,2.33,4.72,4.68,6.95,6.89,4.17-3.06,3.65-6.27,2.5-9.36-2.84-7.64-5.58-15.33-8.9-22.76-5.57-12.5-14.85-19.2-29.15-17.39a81.44,81.44,0,0,1-9.64.38,34,34,0,0,1-4.34-.51c6.6-3.89,13.54-3,20.32-3.14,9.31-.25,16.57,3.91,21,11.84s7.8,16.23,11.83,24.28c.78,1.57,2.45,2.7,3.7,4,1.55-1.56,3.43-2.92,4.53-4.75.61-1,.09-2.87-.23-4.27a93.23,93.23,0,0,0-17.47-36.85c-10.18-12.9-14.7-13.89-30.28-8.58-3.82,1.31-7.85,2-11.78,3-.19-.66-.38-1.31-.58-2,5.39-2,10.84-3.77,16.14-6,11-4.53,19.18-.24,26.27,7.88,8.38,9.58,14.08,20.67,18.25,32.62.5,1.44,1.07,2.85,1.6,4.28a5,5,0,0,0,1.71-4.17c-2.27-20.24-10.17-37.75-26.39-50.53-3.3-2.6-8.65-3-13.15-3.54-2.72-.3-5.62,1.32-8.46,1.92-17.65,3.71-34.56,11-54.23,10.44-2.42,7-5.12,14-7.25,21.19-2.18,7.34-3.81,14.85-6.21,24.42-7.21-17.54-13.66-33.21-19.84-48.23-3.84-1.33-7.44-2.39-10.9-3.8-7.29-3-14.48-6.2-21.77-9.17-16.4-6.69-32.09-15.45-50.15-17.42-.66-.07-1.19-1.3-2.13-2.39a63,63,0,0,1,31.32,6.07c7.4,3.46,15,6.54,22.55,9.64,2.11.86,4.55,1.88,6.66,1.58,7.64-1.1,15.2-2.74,21.63-4,1.18-11.27,2.47-21.57,3.2-31.91.19-2.63-.91-5.64-2.22-8-2.5-4.6-6-8.68-8.28-13.37-2.51-5.17-5.65-6.8-11.62-6.7-16.2.26-31.83,4-47.71,6.24-24.08,3.36-47.81,8.08-69.58,19.49-11.34,6-22.45,12.41-33.36,19.14-5.77,3.55-6.48,7.64-2.79,13.38,2.49,3.88,5.4,7.9,9.07,10.54,17.61,12.71,36.5,23,57.85,28.14,13.61,3.28,27.17,6.72,40.77,10,13.86,3.39,27.73,6.79,41.63,10.06s27.81,6.28,41.68,9.59c4.51,1.08,8.8,3.43,13.34,4,11.48,1.38,22.83,4.86,34.63,2.68a10.61,10.61,0,0,1,6,.69c9.41,4.43,18.69,9.07,26.26,16.56A60.16,60.16,0,0,0,481.15,707c1.91,1.16,4.65.94,9.27,1.74-2.23-4.8-3.45-7.54-4.76-10.23C484.43,696,483.12,693.46,481.84,691ZM596.47,460.47l-2.2-.54c-3,8.38-6.15,16.72-9,25.16-.84,2.49-1,5.14-5.14,5.43,4.42-26.74,11.29-53.25,2.16-80.93-5.06,1.34-9.54,2.47-14,3.72-11.23,3.16-22.37,6.69-33.69,9.44A52.93,52.93,0,0,1,519,424a57.08,57.08,0,0,1-25-7.7c9.46-4.74,18-8.87,26.4-13.28s16.71-9.14,25.12-13.77c-16.25-11.53-61-18.86-75.34-12.41-.94,7.16,6.32,13.19,3,20.84a63.77,63.77,0,0,1-6.94-13c-2.89-6.93-3.71-7.54-11.09-6.17-5.73,1.06-11.5,2.08-17.1,3.68-4.29,1.23-8.33,3.32-13.36,5.38,6.58,7.23,12.28,13.45,17.92,19.73C449.22,414.72,456,422,468.84,417c-7.26,15.14-22.32,17.34-32.87,25.84,8.26,14.26,11.3,29.56,8.31,45.94-2.77,1.85-5.26,4-8.14,5.35-7.7,3.52-13.16,9.59-18.38,15.82-4.42,5.28-6.1,11.19-5.36,18.58,1.07,10.47,7.11,17.59,13.13,25.08,20.74,25.77,48.07,31.36,78.79,25,22-4.57,37.4-17.18,42.94-39.92,5.07-20.8-.64-45.35-28-51.78-1.82-.43-3.48-1.53-6.75-3,4.95-1.59,6-4,5.52-7.67-.35-2.52.29-5.26.86-7.82,2.2-10,4.87-19.89,10.84-28.4,4.9-7,9.08-7.67,16.29-3.27,1.24.75,2.46,1.53,4.55,2.83l16.1-11c-1.78,7.32-8.55,9.15-13.41,13.49,3.3,17.58,10,34.74,6.19,54.68l-3.12-4.78-13,3c3.42,8,6.92,16.13,10.78,25.13,17.58,6,23.51,23.4,31.46,39.32,6-8.84,14.35-30.66,16.07-41.59l-3.92.55c1.77-11.18,3.47-22,5.48-34.72-6.17,8-7,16.58-13.69,23.43C591.93,490.51,594.2,475.49,596.47,460.47ZM553.16,681l-.75,1.9-5.46-2c-6.83-2.46-13.55-5.26-20.5-7.29-11.22-3.28-12.15-2.6-15.87,9,11.87-1.78,22.14,2.48,31.32,8.91a34.71,34.71,0,0,0,23.91,6.29,170.33,170.33,0,0,0,26.63-4.63c15-3.86,29.54-9.45,44.63-12.63,35.48-7.5,69.87-18.61,104.18-30,8.89-3,17.07-7.57,23.63-14.62,10.61-11.4,10.35-18.07-2.48-26.9-11.52-7.93-23.57-15.12-35.59-22.3-25.68-15.34-53.66-25.65-81.54-35.94-14.6-5.39-29.31-11.43-46.07-11.67-1.8,4.4-3,9.36-5.65,13.4-5.57,8.56-6.47,17.39-4.86,27.29,1.1,6.76.21,13.85.21,21,5.19,1.16,9.81,1.86,14.21,3.23,12.24,3.82,24.49,7.69,36.55,12,4.55,1.64,8.42,1.13,12.66-.49q13.48-5.15,27.15-9.81c8.57-2.9,17.25-5.56,26.48-4.86,1.38.11,2.7.93,4,1.42a6.3,6.3,0,0,1-4.06,2.29c-7.43,1.31-15.13,1.74-22.25,4-30.79,9.87-61.41,20.28-92.1,30.46-5.16,1.71-9.22,4.11-10.76,10.08-1.3,5-3.94,9.69-6,14.52-1.08,2.58-2.33,4.84-6.05,3.45-.25-5.67.16-11.54-.94-17.11s-2.18-11.69-7.34-15.36c-6.42-4.56-12.82-9.27-19.76-12.92-4.49-2.36-10-4.31-14.91-4-10.52.62-19.85,5.46-29.19,11.09,2.17,3.63,3.9,6.51,5.53,9.22,17.69-5.73,23.37-6.39,29.56-3.6,9.77,4.42,21.62,13.33,23.61,18.38-6.46-4.27-12.23-8.19-18.11-12-10.36-6.63-23.25-6-32.47,1.7l4,10.49c8.46-.9,16.34-2.15,24.43.71,11.49,4.06,16.19,6.55,19.17,12.9-13.22-7.26-25.93-15.13-42.07-9.43,1,4.54,1.8,8.07,2.48,11.12A70,70,0,0,1,553.16,681ZM468.75,370.42c16.16-1.37,32-1.13,47.27,2.78,12.94,3.31,25.35,8.71,38.05,13,4,1.34,8.2,2.07,13.81,3.45-7.54-13-.39-20.17,8.11-27-2.33-3.23-4-5.92-6-8.26A263.34,263.34,0,0,0,532.85,320c-10.39-8.08-20.93-15.85-33.25-20.85-4.27-1.74-8-2.41-12.36.38-7.25,4.59-15.24,5.71-23.3,1.7a13.47,13.47,0,0,0-11.7-.36c-3.77,1.56-7.75,2.8-11.17,4.94-13.58,8.5-27.37,16.77-40.32,26.16-9.63,7-18.09,15.61-27.07,23.49-2.71,2.38-2.64,5.05-2.27,8.6.91,8.7,7.78,14,10.37,21.29,1.46,0,2.44.28,3.14,0,10.91-5,21.79-5.54,33-.78,1.94.83,4.93-.35,7.29-1.08,8.87-2.76,17.68-5.72,26.52-8.59,2.39-.77,4.79-1.5,7.75-2.42-8.09-17.51-20.7-30-35.16-41.36,3.22.27,6.49.73,8.61,2.54A133.29,133.29,0,0,1,448,348.26c5.41,6.31,10.09,13.25,16.12,21.28-1.74-7.51-2.91-13.46-4.54-19.29a157.62,157.62,0,0,0-5.53-16.56c-2.16-5.3-4.93-10.35-7.43-15.52l2-1.2c1.89,2.33,4.36,4.4,5.54,7a178.16,178.16,0,0,1,7.85,20.36C464.67,353,466.56,361.77,468.75,370.42ZM344.34,248.69l-2.17-.37c-.26-1.62-.87-3.26-.73-4.84.75-8.41.87-17,2.71-25.15,4.53-20.19,9.84-40.21,14.91-60.29,1.47-5.81,3.77-11.56.48-17.63-19.31,14.94-35.44,118.4-26.07,135.48.93-3.5,1.55-7.31,3-10.74.78-1.8,3.13-4.13,4.68-4.07s3.85,2.35,4.77,4.18a28.8,28.8,0,0,1,2.3,8.41q5.14,31.49,10.06,63c.12.8-.63,1.73-1.73,4.52-1.5-5-2.75-7.95-3.23-11-2.33-14.68-4.35-29.41-6.69-44.09-1.12-7-1.44-14.38-6.69-22.06-8.38,29-.39,55.35,5.39,82a53.79,53.79,0,0,1-6.23-13.31c-2.93-9.18-5.47-18.48-8.39-27.66-.88-2.76-1.28-6.19-6.15-7.61.59,6.87.49,13.07,1.74,19,3.22,15.15,7.3,30.06,15.88,43.29,1.11,1.72,2.73,3.71.12,6.49-4.78-7.56-8.6-15.1-13.84-21.48s-6.72-16.36-16.93-19.21c-.12,6.72,3.17,11.95,5.93,17.2,5.48,10.43,13.14,19.28,21.33,27.68,1.9,2,5,3.51,2.84,7.33a8.85,8.85,0,0,1-2.38-1c-17.33-15.69-28.75-35.09-35-57.43-3.46-12.33-5.8-25-8.71-37.44-1.7-7.33-4.84-9.4-12.37-8.07,0,4-.44,8.09.07,12.07,2.13,16.6,6.94,32.48,13.43,47.87,7.79,18.45,20.66,33,36.14,45.08,6,4.72,12.79,9.14,21.57,10.26,1.12-8.58,4.71-15.17,13.56-17a31.51,31.51,0,0,0-.52-5c-5.41-19.23-6.76-39.11-8.2-58.81a375.89,375.89,0,0,1,1.23-70c2.53-22.13,6.47-43.81,12.87-65.09q6.18-20.55,12.27-41.14c2-6.71,2.28-13.43,0-22.44-3.36,4.82-6.13,7.78-7.72,11.27-3.86,8.49-7.8,17-10.57,25.9Q359,173.51,352,200.64c-3.33,13-6.26,26.14-6,39.76C346.1,243.15,344.94,245.93,344.34,248.69Zm14,253.08-2,.34c2.36,9.27,4.76,18.52,7,27.8.4,1.64.77,3.63.17,5.06-.49,1.16-2.43,1.73-4,2.74,5.67,9.79,9.62,20.19,17.55,28.7,7.6-16.07,11.89-33.73,30.73-40.15-.34-12.81,8.41-20.2,15.81-28.19-14.6-10.56-12.87-26.16-14.19-41.69-4.06,4-4.91,8.15-5,12.48-.22,7.59-.16,15.2-.4,22.8-.05,1.79-.85,3.56-1.3,5.34l-1.91-.08c-.45-4.22-1.18-8.43-1.28-12.66-.08-3.17,1.18-6.41.9-9.53-.87-9.68,2-18.65,5.74-27.09,4.67-10.42,13.16-17.86,24-10.4,3.07,2.11,5.95,1.58,8.93-1.84-13.71-4.17-23.7-13.39-33.55-22.37-13.67-12.46-18-6.07-20.58,7.12-2,10.24-2.38,20.8-3.87,31.16-2.68,18.66-2.07,37.23.77,55.81.31,2-.13,4.08-.22,6.12l-2.09.27-12.57-35.22a3.32,3.32,0,0,0-.85,2.82c2.29,11.41,4.48,22.84,7,34.19.74,3.28,1.21,5.74-3.69,6.7Zm45.86,88.08c-4.39,18.95-8.62,37.84-8.22,57.55,12-27.13,24.83-53.45,52-69.29-18.34-12.2-34.3-25.43-40.29-46.94-6.8,1.27-11.07,4.84-14.31,10.11-15.85,25.85-20.62,53.69-14.68,83.29.93,4.68,1.89,9.93,6.44,14.56.37-11.75-1.75-22.45,2.25-32.76.86,15.83-.45,31.78,3.77,47.21,1.47-11.06,2-22.13,3.5-33.06C396.14,609.88,397,598.84,404.23,589.85Zm12,25.74c2.46,1.77,4.36,3.08,6.21,4.48,4.4,3.33,8.71,4.63,14.43,2.39,14.48-5.67,30.36-6.62,44.17-15.31,11.44-7.2,25.39-8.24,38.89-8.83,2.8-.12,5.66,1,8.49,1.51,0,.67-.07,1.34-.11,2-8.5,1-17,1.75-25.5,3a67.17,67.17,0,0,0-24.11,8.19l15.16,12.44c5.45-2.24,11-4.15,16.18-6.7,11.19-5.47,22.23-6.2,33.8.76,2.26-3.34,4.29-6.35,6.74-10-6-7.69-11.58-15.11-17.51-22.21-6.61-7.92-14.32-10.69-24.7-6.29-15.73,6.65-32.13,5.1-48.1.7-6-1.66-10.52-.73-15.52,2.44C432.61,592,424.4,603.11,416.26,615.59ZM575.18,650.7l1.78.46c2.23-6.19,5.15-12.24,6.51-18.62a112.3,112.3,0,0,0,2-20.83c.29-12.46,1.85-25-.33-37.4-3-17.12-10-32.23-22.7-44.39-2.65-2.54-5.43-5.16-9.59-4-1.77,20.91-9.39,38.17-27.7,50C547.7,592,557.55,616.12,569,639.34a95.49,95.49,0,0,0-1.46-15.76c-.92-5.16-2.3-10.24-3.4-15.37-1-4.72-4.85-8.84-2.87-14.25,7.48,12.41,8.62,26.76,12.17,40.44,2.72-18.89.71-37.45-2.51-56.09a10.16,10.16,0,0,1,3.3,5C579.2,605.66,579,628.14,575.18,650.7ZM640,262.89c.38-5.82,1.3-13.37,1.27-20.93-.12-27.07-5.47-53.29-14.2-78.82-3.07-9-7.29-17.51-16.24-23.49-1.94,10.62-.23,20.49,2.22,29.8,7,26.65,10.14,53.69,10.7,81.13.17,8.33,0,16.66,0,25.33ZM375.55,396.12c15.81,1.06,19,2.57,31.13,12.76,7.8,6.55,15.75,13.1,24.36,18.46,10.83,6.75,18,5.32,27.91-4-9.47-2-14.78-9-20.68-15.26-1.4-1.48-2.48-3.26-3.88-4.75C427.2,395.63,420,388.08,408.87,386,395.8,383.61,385.13,388.25,375.55,396.12ZM353.07,519.66l2.37-.08a50.57,50.57,0,0,0-.31-5.09c-1.48-8.91-3.19-17.78-4.49-26.72-.59-4.06-2.09-8.79,3.78-11.3,5.12,7.74,3.55,18.11,9.79,24.82-.65-12.19-1.38-24.34-1.9-36.49-.15-3.29-.75-7.14,4.38-8.63l8.05,31.77c1.38-12.21,2-24.11,2.88-36,.88-11.69,2.06-23.36,3.12-35.15-.81.26-1.5.29-1.88.65-12.36,11.68-22.15,25.33-30.4,40.12a26.17,26.17,0,0,0-3.39,16c.64,5.5.69,11.09,1.69,16.51C348.59,500,350.94,509.8,353.07,519.66Zm-20.93-352C316.36,184.42,310.7,255.3,321,295.18l7.48-5a36.63,36.63,0,0,0-.05-6.11c-3.66-21.87-1-43.65,1.25-65.37,1.06-10.11,3.82-20,5.36-30.11A35,35,0,0,0,332.14,167.69Zm-28.89,43.37c-4.43,9-5.72,17.87-5.82,26.81-.1,9.3.61,18.62,1.25,27.91,1.28,18.87,3.72,37.55,10.69,55.18l10.95,4.24a39.46,39.46,0,0,0,0-5.59c-2.15-14.36-4.65-28.67-6.53-43.07C312.14,264.21,309,252,311,239.32a48.92,48.92,0,0,0,.46-10.47C311,222.27,310.2,215.67,303.25,211.06ZM504.59,416.55c9.54,3.88,18.67,5,28,2.64,18.27-4.7,36.48-9.63,54.7-14.51.37-.1.61-.71,1.23-1.48-2.31-1.37-4.44-2.84-6.73-4-15-7.41-30.11-10.69-45.67-1C526,404.49,515.61,410.17,504.59,416.55Zm107.88,30.19c-1.29,22.16-2.52,43.12-3.78,64.84,7.35-3.36,13.56-6.7,18.29-12.63,10.42-13.09,8.14-32.73,2.25-44.74-1.58-3.23-5.87-5.47-9.38-7.3C617.94,445.92,615.08,446.74,612.47,446.74ZM366.42,399,360,395.86c-6.12-3-7-2.67-9.81,3.49-5.28,11.59-7,24-7.63,36.49-.37,7.1-.06,14.24-.06,23,7.89-11.39,14-21.59,21.48-30.59s16.53-16.9,25.2-25.59c-4.88-3-10.18-2.49-15-.82-4.47,1.55-8.41,4.59-12.59,7l-1-1.4Zm268-92.38c2.37-3.61,4.47-7.43,7.16-10.8a35.68,35.68,0,0,0,7.33-18.39c1.33-10.68,2.64-21.37,4-32a193,193,0,0,0-.7-52.38c-1-6.92-2.8-14-8.11-20.13-1.09,1.94-2.33,3.16-2.38,4.43-.3,7.76-.82,15.56-.35,23.29.81,13.37,3.21,26.69,3.25,40,0,14.8-1.8,29.6-2.87,44.39-.08,1.11-.22,2.65-.94,3.22C635,292.86,635.69,300.12,634.37,306.57ZM492.57,283c.07-8.22-1.76-12.74-7.29-17.91-3.57-3.34-10-4.47-13.55-1.38a63.71,63.71,0,0,0-11.61,12.9c-4.18,6.54-3.41,13.21.67,17.91,4.53,5.2,13.23,6.68,21.12,3.59S492.49,291.25,492.57,283Zm-140.49,249a250,250,0,0,1-11.65-58.3c-.05-.67-1.08-1.26-2.09-2.36a25.49,25.49,0,0,0-15.92,22.07C321.2,508.22,330,527.9,352.08,532.06ZM635.8,620.94c-.06-.64-.12-1.28-.19-1.92-15-5.71-29.62-12.55-46.29-13-.88,10.5-1.7,20.26-2.61,31.17Zm29.33-404.85-2.47.07c-1.06,1.63-2.93,3.19-3.07,4.9-2.26,26.7-7.85,53.12-6.77,80.23a86,86,0,0,0,5.92-13.08c7.27-20.26,11-41.09,9.2-62.65C667.68,222.35,666.1,219.25,665.13,216.09ZM599,481c.78-2.73,1.61-5.46,2.34-8.2,1-3.65.74-8.45,3-10.74,4.37-4.38,3.56-9.2,3.71-14.18a85.53,85.53,0,0,0,.28-8.75c-.19-2.52-.43-5.44-1.78-7.41A192.26,192.26,0,0,0,594.29,416c-1.12-1.32-3.19-1.84-4.85-2.74v46.65l.84.23c1.58-5.57,3.17-11.13,5.27-18.54C603.1,455.63,597.49,468.31,599,481Zm-65.66-34.25c-9.72,10.68-13.06,23.36-10.94,37.38l13.85,5.37C531.67,476.12,531,463.05,533.37,446.74Zm73.17-25.43c-.7-13.6-7.15-24.53-14.13-35.22-2.27-3.46-5.25-3-8.21-.65s-5.72,4.4-8.74,6.71c7.61,4.05,16.19,7.29,24.14,13.63l-4.92,2.54Zm-173,61.49c8.21-10.14,7.27-24.23-1.94-31.72-6.7,5.25-5.11,11.66-4.37,22.63C427.5,477.55,428.53,481.87,433.56,482.8ZM550,450.3l-1.77-.26c-1.49,2.65-4,5.22-4.25,8-.42,5.43.3,11,.86,16.45.31,3.06,1.73,5.68,5.35,5.88,2.21.13,5.71-4.41,5.88-7.58a10.75,10.75,0,0,0-.44-3.47C553.82,463,551.91,456.63,550,450.3ZM356.73,613.8l-.09,1.92,16.62,7.67c-.42-4.64-.69-7.65-1-11.35Zm201.44,15.81,1.34-1.48c-2.23-4.26-4.46-8.51-7.34-14l-5,7.72ZM376.25,384.68c-.24-5.25-3.84-7.28-8.44-8-3.19-.47-5.31,1-5.8,3.27ZM412.35,445l14.07-4.33C418,436.34,417.23,436.6,412.35,445Zm190.52,61.29,2.1.59,1.56-16.29-1.2-.1ZM420.65,625.93c.16-.54.31-1.07.46-1.61l-7.22-4.5c-1.26,2.28-2.14,3.88-3.36,6.11ZM363.12,385.76l5.95,4.69c.64-1.09,2-2.35,1.78-3.25C370.16,384.13,368.1,383.17,363.12,385.76Zm169.13,56.32,11.44-1.93C538.26,435.87,535.38,436.58,532.25,442.08Z"/><path d="M486.53,170.27c-6.24-4.73-5.17-9.56-4.81-13.9.42-5,3.6-8.61,7.85-10.82,4.77-2.48,9.85-3.86,14.8,0s7.41,9.28,6.11,15.29c-1.75,8.14-4.58,16-7.4,25.55-1.56-2.2-3.2-3.52-3-4.36,1.37-5.37,3.23-10.6,4.73-15.93a27.76,27.76,0,0,0,1.31-7.62c-.08-7.4-4-11.22-10.58-10.79-6.24.41-10.31,5.21-10,12C485.68,162.58,486.08,165.47,486.53,170.27Z"/><path d="M402.63,229.05c-5.83-.55-6.53-4.23-7-7.94-.69-5.14-.14-9.92,4.46-13.33,6.7-5,14.62-3.15,17.9,4.41,2.38,5.5,3.16,10.93-.67,16.55-3.34,4.9-5.7,10.45-9.49,17.58-.34-3.36-1.12-5.26-.56-6.6a58.44,58.44,0,0,1,5-9.14c3.69-5.71,3.15-11.53,1-17.54-1.18-3.29-3.61-4.37-6.79-4.13s-5.79,1.53-6.36,4.85a23.56,23.56,0,0,0,0,7.68C400.48,223.85,401.62,226.15,402.63,229.05Z"/><path d="M663.24,135.92c-1.89-1.69-3.74-2.52-4-3.72-1.14-5,3.56-12.64,8.26-14,6.47-1.83,12.64,1.07,14.87,7.35a22.4,22.4,0,0,1,1.21,7.67c0,3.18-.88,6.34-1.12,9.53-.2,2.77,0,5.56-1.55,9-.87-1.33-2.41-2.61-2.49-4-.23-4.06.18-8.16.2-12.24a41.76,41.76,0,0,0-.38-7.84,7,7,0,0,0-6.57-6.07c-3.86-.32-5.87,2.37-6.91,5.58C664,129.65,663.84,132.26,663.24,135.92Z"/><path d="M553.78,254.16c1.74-8.77,8.27-12,14.94-9.39,5,2,7,8.13,5,15.09-1.83,6.35-4.88,11.68-10.82,15.23-3.62,2.16-6.76,5.1-11.33,6.92.66-1.61.91-3.64,2.06-4.74a74.47,74.47,0,0,1,8.86-7,16.26,16.26,0,0,0,7.14-13.35c.07-2.53-1.1-6.07-3-7.44-2.52-1.86-6.06-1.39-8.67,1.38A36.83,36.83,0,0,1,553.78,254.16Z"/><path d="M275.36,184.93c-3.74-.7-4.26-2.67-3.94-5.17.48-3.74,1.06-7.46,1.52-11.2a19.3,19.3,0,0,0,.12-4.36c-.54-4.87-3.12-7.58-6.92-7.47s-7.4,4.08-7.44,8.29a51.92,51.92,0,0,0,1,7c-5.62-.63-5.7-4.47-5.57-7.68.23-5.48,6.7-11.67,12.09-12.23S277,156.23,277,162.37C277,169.75,276,177.12,275.36,184.93Z"/><path d="M632,392.05c-1-8.11,2.14-12.32,9.59-12.89,6.2-.47,12.88,5.78,11.57,12.31-1.35,6.71-4.59,13-7.2,19.46-.17.43-2,.2-3.52.31-.14-4.79,2.43-8.07,3.69-11.77a32.78,32.78,0,0,0,2-10.1c0-3.59-2.54-5.82-6.16-6.14-3.42-.31-5.61,1.41-5.92,4.94C635.83,390.78,635.32,392.84,632,392.05Z"/><path d="M293.65,412.87c3.18-4.72,5.69-8.05,7.74-11.65a28,28,0,0,0,3.61-8.65,4.39,4.39,0,0,0-6.63-4.75c-3.88,2.3-7.2,5.58-11.24,8.81-1.18-5.19,2-7.73,5.05-10.21s6.86-4.3,10.53-2.53c2.59,1.24,5.43,3.95,6.23,6.58C310.92,397,303,409.06,293.65,412.87Z"/><path d="M412.92,260c-.75,2.41-1.47,4.75-2.16,7-4.21.42-6.45-1.12-5.64-4.8C406.06,257.89,409.07,257.94,412.92,260Z"/><path d="M502.13,198.05c1.8,3.16,3.56,4.93,3.58,6.73,0,1.37-2.16,2.77-3.37,4.16-1.53-1.35-4.2-2.63-4.29-4.08C497.94,203.15,500.05,201.29,502.13,198.05Z"/><path d="M181.9,409.78a2.49,2.49,0,0,1,.83,0c3.09,1.3,4.45,3.44,2.71,6.59-.29.51-2.22.75-2.84.33C179.76,414.75,179.24,412.34,181.9,409.78Z"/><path d="M279.38,195c1.46,1.78,2.89,2.72,2.95,3.75.21,3.26-2.46,4.29-5,4.7-.82.13-2.84-2.12-2.75-2.27A77.12,77.12,0,0,1,279.38,195Z"/><path d="M690.84,171.35c-2.74,1.24-5.36,2.62-6.73-.9-.39-1,.76-3.69,1.69-4C689,165.53,690.67,167.27,690.84,171.35Z"/><path d="M545.44,305.66c-1.2-5.17-.23-7.61,3-7.56,1.19,0,2.33,2.58,3.49,4Z"/><path d="M288.85,419.88c2.6,4,4.2,5.35,4.08,6.55s-2,2.09-3.16,3.12c-.93-1.48-2.3-2.87-2.66-4.48C286.85,423.91,287.92,422.45,288.85,419.88Z"/><path d="M639.47,430.45c1.86-1.34,3.19-2.94,3.95-2.71,1.29.4,2.21,2,3.28,3-.77.72-1.66,2.13-2.28,2C643,432.53,641.62,431.54,639.47,430.45Z"/><path class="cls-1" d="M596.47,460.47c-2.27,15-4.54,30-7,46.57,6.67-6.85,7.52-15.39,13.69-23.43-2,12.73-3.71,23.54-5.48,34.72l3.92-.55c-1.72,10.93-10.07,32.75-16.07,41.59-8-15.92-13.88-33.29-31.46-39.32-3.86-9-7.36-17.17-10.78-25.13l13-3,3.12,4.78c3.84-19.94-2.89-37.1-6.19-54.68,4.86-4.34,11.63-6.17,13.41-13.49l-16.1,11c-2.09-1.3-3.31-2.08-4.55-2.83-7.21-4.4-11.39-3.73-16.29,3.27-6,8.51-8.64,18.41-10.84,28.4-.57,2.56-1.21,5.3-.86,7.82.49,3.66-.57,6.08-5.52,7.67,3.27,1.5,4.93,2.6,6.75,3,27.41,6.43,33.12,31,28,51.78-5.54,22.74-20.91,35.35-42.94,39.92-30.72,6.37-58.05.78-78.79-25-6-7.49-12.06-14.61-13.13-25.08-.74-7.39.94-13.3,5.36-18.58,5.22-6.23,10.68-12.3,18.38-15.82,2.88-1.32,5.37-3.5,8.14-5.35,3-16.38,0-31.68-8.31-45.94,10.55-8.5,25.61-10.7,32.87-25.84-12.86,5-19.62-2.26-26.31-9.72-5.64-6.28-11.34-12.5-17.92-19.73,5-2.06,9.07-4.15,13.36-5.38,5.6-1.6,11.37-2.62,17.1-3.68,7.38-1.37,8.2-.76,11.09,6.17a63.77,63.77,0,0,0,6.94,13c3.34-7.65-3.92-13.68-3-20.84,14.34-6.45,59.09.88,75.34,12.41-8.41,4.63-16.69,9.34-25.12,13.77s-16.94,8.54-26.4,13.28a57.08,57.08,0,0,0,25,7.7,52.93,52.93,0,0,0,15.63-1.21c11.32-2.75,22.46-6.28,33.69-9.44,4.44-1.25,8.92-2.38,14-3.72,9.13,27.68,2.26,54.19-2.16,80.93,4.1-.29,4.3-2.94,5.14-5.43,2.86-8.44,6-16.78,9-25.16Z"/><path class="cls-1" d="M553.16,681a70,70,0,0,0-40.37-12.6c-.68-3.05-1.47-6.58-2.48-11.12,16.14-5.7,28.85,2.17,42.07,9.43-3-6.35-7.68-8.84-19.17-12.9-8.09-2.86-16-1.61-24.43-.71l-4-10.49c9.22-7.67,22.11-8.33,32.47-1.7,5.88,3.77,11.65,7.69,18.11,12-2-5.05-13.84-14-23.61-18.38-6.19-2.79-11.87-2.13-29.56,3.6-1.63-2.71-3.36-5.59-5.53-9.22,9.34-5.63,18.67-10.47,29.19-11.09,4.91-.29,10.42,1.66,14.91,4,6.94,3.65,13.34,8.36,19.76,12.92,5.16,3.67,6.24,9.8,7.34,15.36s.69,11.44.94,17.11c3.72,1.39,5-.87,6.05-3.45,2-4.83,4.67-9.5,6-14.52,1.54-6,5.6-8.37,10.76-10.08,30.69-10.18,61.31-20.59,92.1-30.46,7.12-2.27,14.82-2.7,22.25-4a6.3,6.3,0,0,0,4.06-2.29c-1.35-.49-2.67-1.31-4-1.42-9.23-.7-17.91,2-26.48,4.86q-13.66,4.63-27.15,9.81c-4.24,1.62-8.11,2.13-12.66.49-12.06-4.35-24.31-8.22-36.55-12-4.4-1.37-9-2.07-14.21-3.23,0-7.18.89-14.27-.21-21-1.61-9.9-.71-18.73,4.86-27.29,2.63-4,3.85-9,5.65-13.4,16.76.24,31.47,6.28,46.07,11.67,27.88,10.29,55.86,20.6,81.54,35.94,12,7.18,24.07,14.37,35.59,22.3,12.83,8.83,13.09,15.5,2.48,26.9-6.56,7.05-14.74,11.67-23.63,14.62-34.31,11.39-68.7,22.5-104.18,30-15.09,3.18-29.66,8.77-44.63,12.63a170.33,170.33,0,0,1-26.63,4.63,34.71,34.71,0,0,1-23.91-6.29c-9.18-6.43-19.45-10.69-31.32-8.91,3.72-11.59,4.65-12.27,15.87-9,6.95,2,13.67,4.83,20.5,7.29l5.46,2Z"/><path class="cls-1" d="M481.84,691c1.28,2.5,2.59,5,3.82,7.51,1.31,2.69,2.53,5.43,4.76,10.23-4.62-.8-7.36-.58-9.27-1.74a60.16,60.16,0,0,1-11.06-8.42c-7.57-7.49-16.85-12.13-26.26-16.56a10.61,10.61,0,0,0-6-.69c-11.8,2.18-23.15-1.3-34.63-2.68-4.54-.55-8.83-2.9-13.34-4C376,671.32,362,668.3,348.15,665s-27.77-6.67-41.63-10.06c-13.6-3.32-27.16-6.76-40.77-10-21.35-5.15-40.24-15.43-57.85-28.14-3.67-2.64-6.58-6.66-9.07-10.54-3.69-5.74-3-9.83,2.79-13.38,10.91-6.73,22-13.18,33.36-19.14,21.77-11.41,45.5-16.13,69.58-19.49,15.88-2.22,31.51-6,47.71-6.24,6-.1,9.11,1.53,11.62,6.7,2.27,4.69,5.78,8.77,8.28,13.37,1.31,2.4,2.41,5.41,2.22,8-.73,10.34-2,20.64-3.2,31.91-6.43,1.21-14,2.85-21.63,4-2.11.3-4.55-.72-6.66-1.58-7.57-3.1-15.15-6.18-22.55-9.64A63,63,0,0,0,289,594.69c.94,1.09,1.47,2.32,2.13,2.39,18.06,2,33.75,10.73,50.15,17.42,7.29,3,14.48,6.2,21.77,9.17,3.46,1.41,7.06,2.47,10.9,3.8,6.18,15,12.63,30.69,19.84,48.23,2.4-9.57,4-17.08,6.21-24.42,2.13-7.19,4.83-14.21,7.25-21.19,19.67.58,36.58-6.73,54.23-10.44,2.84-.6,5.74-2.22,8.46-1.92,4.5.49,9.85.94,13.15,3.54,16.22,12.78,24.12,30.29,26.39,50.53A5,5,0,0,1,507.8,676c-.53-1.43-1.1-2.84-1.6-4.28-4.17-12-9.87-23-18.25-32.62-7.09-8.12-15.3-12.41-26.27-7.88-5.3,2.19-10.75,4-16.14,6,.2.66.39,1.31.58,2,3.93-1,8-1.69,11.78-3,15.58-5.31,20.1-4.32,30.28,8.58a93.23,93.23,0,0,1,17.47,36.85c.32,1.4.84,3.25.23,4.27-1.1,1.83-3,3.19-4.53,4.75-1.25-1.34-2.92-2.47-3.7-4-4-8-7.42-16.45-11.83-24.28s-11.72-12.09-21-11.84c-6.78.18-13.72-.75-20.32,3.14a34,34,0,0,0,4.34.51,81.44,81.44,0,0,0,9.64-.38c14.3-1.81,23.58,4.89,29.15,17.39,3.32,7.43,6.06,15.12,8.9,22.76,1.15,3.09,1.67,6.3-2.5,9.36-2.23-2.21-4.58-4.56-6.95-6.89-1.78-1.74-3.59-3.45-5.38-5.17-3.28-13.82-25.05-23.61-35.41-14.94,1.86.21,3.26.73,4.47.44,11.06-2.64,19.18,2,26,10.16C478.13,688.44,480.13,689.58,481.84,691Z"/><path class="cls-2" d="M468.75,370.42c-2.19-8.65-4.08-17.46-6.69-26.05A178.16,178.16,0,0,0,454.21,324c-1.18-2.64-3.65-4.71-5.54-7l-2,1.2c2.5,5.17,5.27,10.22,7.43,15.52a157.62,157.62,0,0,1,5.53,16.56c1.63,5.83,2.8,11.78,4.54,19.29-6-8-10.71-15-16.12-21.28A133.29,133.29,0,0,0,433,333.65c-2.12-1.81-5.39-2.27-8.61-2.54,14.46,11.34,27.07,23.85,35.16,41.36-3,.92-5.36,1.65-7.75,2.42-8.84,2.87-17.65,5.83-26.52,8.59-2.36.73-5.35,1.91-7.29,1.08-11.23-4.76-22.11-4.21-33,.78-.7.32-1.68,0-3.14,0-2.59-7.34-9.46-12.59-10.37-21.29-.37-3.55-.44-6.22,2.27-8.6,9-7.88,17.44-16.49,27.07-23.49,12.95-9.39,26.74-17.66,40.32-26.16,3.42-2.14,7.4-3.38,11.17-4.94a13.47,13.47,0,0,1,11.7.36c8.06,4,16.05,2.89,23.3-1.7,4.4-2.79,8.09-2.12,12.36-.38,12.32,5,22.86,12.77,33.25,20.85A263.34,263.34,0,0,1,570,354.41c2,2.34,3.69,5,6,8.26-8.5,6.81-15.65,13.93-8.11,27-5.61-1.38-9.82-2.11-13.81-3.45-12.7-4.29-25.11-9.69-38.05-13C500.74,369.29,484.91,369.05,468.75,370.42Z"/><path class="cls-3" d="M344.34,248.69c.6-2.76,1.76-5.54,1.7-8.29-.3-13.62,2.63-26.77,6-39.76q7-27.12,15.36-53.85c2.77-8.88,6.71-17.41,10.57-25.9,1.59-3.49,4.36-6.45,7.72-11.27,2.24,9,2,15.73,0,22.44q-6.09,20.58-12.27,41.14c-6.4,21.28-10.34,43-12.87,65.09a375.89,375.89,0,0,0-1.23,70c1.44,19.7,2.79,39.58,8.2,58.81a31.51,31.51,0,0,1,.52,5c-8.85,1.79-12.44,8.38-13.56,17-8.78-1.12-15.55-5.54-21.57-10.26-15.48-12.12-28.35-26.63-36.14-45.08-6.49-15.39-11.3-31.27-13.43-47.87-.51-4-.07-8.09-.07-12.07,7.53-1.33,10.67.74,12.37,8.07,2.91,12.48,5.25,25.11,8.71,37.44,6.26,22.34,17.68,41.74,35,57.43a8.85,8.85,0,0,0,2.38,1c2.18-3.82-.94-5.37-2.84-7.33-8.19-8.4-15.85-17.25-21.33-27.68-2.76-5.25-6.05-10.48-5.93-17.2,10.21,2.85,11.65,12.78,16.93,19.21s9.06,13.92,13.84,21.48c2.61-2.78,1-4.77-.12-6.49-8.58-13.23-12.66-28.14-15.88-43.29-1.25-5.9-1.15-12.1-1.74-19,4.87,1.42,5.27,4.85,6.15,7.61,2.92,9.18,5.46,18.48,8.39,27.66A53.79,53.79,0,0,0,345.36,346c-5.78-26.62-13.77-52.94-5.39-82,5.25,7.68,5.57,15,6.69,22.06,2.34,14.68,4.36,29.41,6.69,44.09.48,3,1.73,6,3.23,11,1.1-2.79,1.85-3.72,1.73-4.52q-4.94-31.51-10.06-63a28.8,28.8,0,0,0-2.3-8.41c-.92-1.83-3.08-4.11-4.77-4.18s-3.9,2.27-4.68,4.07c-1.48,3.43-2.1,7.24-3,10.74-9.37-17.08,6.76-120.54,26.07-135.48,3.29,6.07,1,11.82-.48,17.63-5.07,20.08-10.38,40.1-14.91,60.29-1.84,8.17-2,16.74-2.71,25.15-.14,1.58.47,3.22.73,4.84Z"/><path class="cls-1" d="M358.37,501.77,369.55,522c4.9-1,4.43-3.42,3.69-6.7-2.56-11.35-4.75-22.78-7-34.19a3.32,3.32,0,0,1,.85-2.82l12.57,35.22,2.09-.27c.09-2,.53-4.14.22-6.12-2.84-18.58-3.45-37.15-.77-55.81C382.65,441,383,430.39,385,420.15c2.62-13.19,6.91-19.58,20.58-7.12,9.85,9,19.84,18.2,33.55,22.37-3,3.42-5.86,4-8.93,1.84-10.86-7.46-19.35,0-24,10.4-3.78,8.44-6.61,17.41-5.74,27.09.28,3.12-1,6.36-.9,9.53.1,4.23.83,8.44,1.28,12.66l1.91.08c.45-1.78,1.25-3.55,1.3-5.34.24-7.6.18-15.21.4-22.8.13-4.33,1-8.49,5-12.48,1.32,15.53-.41,31.13,14.19,41.69-7.4,8-16.15,15.38-15.81,28.19-18.84,6.42-23.13,24.08-30.73,40.15-7.93-8.51-11.88-18.91-17.55-28.7,1.57-1,3.51-1.58,4-2.74.6-1.43.23-3.42-.17-5.06-2.26-9.28-4.66-18.53-7-27.8Z"/><path class="cls-4" d="M404.23,589.85c-7.22,9-8.09,20-9.57,30.67-1.53,10.93-2,22-3.5,33.06-4.22-15.43-2.91-31.38-3.77-47.21-4,10.31-1.88,21-2.25,32.76-4.55-4.63-5.51-9.88-6.44-14.56-5.94-29.6-1.17-57.44,14.68-83.29,3.24-5.27,7.51-8.84,14.31-10.11,6,21.51,21.95,34.74,40.29,46.94-27.14,15.84-40,42.16-52,69.29C395.61,627.69,399.84,608.8,404.23,589.85Z"/><path class="cls-3" d="M598,311.88c.23,1,.46,2,.88,3.87,4.37-3.67,4.76-8.1,5.57-12.14,2.9-14.57,5.49-29.2,8.37-43.77.58-2.94,1.92-5.73,3.18-9.38,3.23,5.11,5.4,16.43,4,22.58-4.26,18.08-6.75,36.74-16.45,53.16-.37.62-.18,1.56-.29,2.77,4,.41,5.29-2.39,6.42-4.89,3.6-8,7-16,10.48-24,3.6-8.26,7.15-16.54,10.93-24.72.76-1.64,2.44-2.85,4.64-5.32,1.69,7.48.07,13.21-1.49,18.95-4.33,15.92-11.89,30.4-19.76,44.76-2.74,5-5.34,10.08-8.32,15.71a38.45,38.45,0,0,0,14.63-13.34c7-11.14,13.81-22.34,20.78-33.47,1.52-2.43,3.33-4.68,6.27-8.77-.61,11.25-2.75,20-7.6,27.75-5.08,8.13-10.3,16.29-16.46,23.59-5.93,7-13.14,13-21,20.55,2.91-.27,4.74.13,5.68-.61,11.06-8.73,20.28-19.19,28.55-30.56,1.62-2.23,3.95-3.94,5.88-5.94,1.39-1.43,3.08-2.76,3.92-4.48,4.72-9.69,9.2-19.49,13.79-29.23a91.32,91.32,0,0,1,5.07-10.14c1.24-1.95,3.43-3.28,5.91-5.54,3,7.92.58,14.14-1.32,20-6.11,18.69-16.92,34.47-31.51,47.65-6.28,5.68-11.93,12.33-19,16.82-9.75,6.22-20.53,10.81-30.62,16l-10.64-13.95c10.19-14.41,14.29-31.9,17.38-49.77.24-1.38,1.54-2.57,2.34-3.85Z"/><path class="cls-1" d="M416.26,615.59c8.14-12.48,16.35-23.63,28.52-31.33,5-3.17,9.48-4.1,15.52-2.44,16,4.4,32.37,5.95,48.1-.7,10.38-4.4,18.09-1.63,24.7,6.29,5.93,7.1,11.47,14.52,17.51,22.21-2.45,3.61-4.48,6.62-6.74,10-11.57-7-22.61-6.23-33.8-.76-5.21,2.55-10.73,4.46-16.18,6.7l-15.16-12.44a67.17,67.17,0,0,1,24.11-8.19c8.46-1.3,17-2.06,25.5-3,0-.67.07-1.34.11-2-2.83-.53-5.69-1.63-8.49-1.51-13.5.59-27.45,1.63-38.89,8.83-13.81,8.69-29.69,9.64-44.17,15.31-5.72,2.24-10,.94-14.43-2.39C420.62,618.67,418.72,617.36,416.26,615.59Z"/><path class="cls-5" d="M575.18,650.7c3.79-22.56,4-45-1-67.39a10.16,10.16,0,0,0-3.3-5c3.22,18.64,5.23,37.2,2.51,56.09-3.55-13.68-4.69-28-12.17-40.44-2,5.41,1.85,9.53,2.87,14.25,1.1,5.13,2.48,10.21,3.4,15.37A95.49,95.49,0,0,1,569,639.34c-11.42-23.22-21.27-47.35-43.86-63.49,18.31-11.81,25.93-29.07,27.7-50,4.16-1.11,6.94,1.51,9.59,4,12.69,12.16,19.69,27.27,22.7,44.39,2.18,12.44.62,24.94.33,37.4a112.3,112.3,0,0,1-2,20.83c-1.36,6.38-4.28,12.43-6.51,18.62Z"/><path class="cls-3" d="M598.21,312.06c-.08-2.87-.63-5.82-.17-8.61,2.67-16.17,2.89-32.42,2.31-48.73-.42-11.91.41-23.93-.92-35.72a351.72,351.72,0,0,0-16.28-74.24,175.51,175.51,0,0,1-5.88-22.84c-.75-3.79-1.71-8.12,1.54-11.79,5,.4,6.79,4.34,8.68,7.78,8.89,16.17,16.18,33,20.63,51,2.1,8.49,4.41,16.93,6.31,25.47,3.83,17.17,4.59,34.62,4.69,52.58-8.61,1-9.46,7.55-10.59,13.82-2.45,13.47-4.66,27-7.2,40.45-.69,3.63-2.21,7.1-3.33,10.66C598,311.88,598.21,312.06,598.21,312.06Z"/><path class="cls-3" d="M640,262.89l-16.23,13c0-8.67.15-17,0-25.33-.56-27.44-3.68-54.48-10.7-81.13-2.45-9.31-4.16-19.18-2.22-29.8,9,6,13.17,14.5,16.24,23.49,8.73,25.53,14.08,51.75,14.2,78.82C641.28,249.52,640.36,257.07,640,262.89Z"/><path class="cls-6" d="M375.55,396.12c9.58-7.87,20.25-12.51,33.32-10.1,11.13,2.06,18.33,9.61,25.52,17.29,1.4,1.49,2.48,3.27,3.88,4.75,5.9,6.26,11.21,13.3,20.68,15.26-9.9,9.34-17.08,10.77-27.91,4-8.61-5.36-16.56-11.91-24.36-18.46C394.57,398.69,391.36,397.18,375.55,396.12Z"/><path class="cls-7" d="M353.07,519.66c-2.13-9.86-4.48-19.68-6.31-29.59-1-5.42-1.05-11-1.69-16.51a26.17,26.17,0,0,1,3.39-16c8.25-14.79,18-28.44,30.4-40.12.38-.36,1.07-.39,1.88-.65-1.06,11.79-2.24,23.46-3.12,35.15-.9,11.89-1.5,23.79-2.88,36l-8.05-31.77c-5.13,1.49-4.53,5.34-4.38,8.63.52,12.15,1.25,24.3,1.9,36.49-6.24-6.71-4.67-17.08-9.79-24.82-5.87,2.51-4.37,7.24-3.78,11.3,1.3,8.94,3,17.81,4.49,26.72a50.57,50.57,0,0,1,.31,5.09Z"/><path class="cls-3" d="M332.14,167.69a35,35,0,0,1,2.92,20.89c-1.54,10.08-4.3,20-5.36,30.11-2.29,21.72-4.91,43.5-1.25,65.37a36.63,36.63,0,0,1,.05,6.11l-7.48,5C310.7,255.3,316.36,184.42,332.14,167.69Z"/><path class="cls-3" d="M303.25,211.06c6.95,4.61,7.71,11.21,8.17,17.79a48.92,48.92,0,0,1-.46,10.47c-1.93,12.64,1.18,24.89,2.79,37.22,1.88,14.4,4.38,28.71,6.53,43.07a39.46,39.46,0,0,1,0,5.59L309.37,321c-7-17.63-9.41-36.31-10.69-55.18-.64-9.29-1.35-18.61-1.25-27.91C297.53,228.93,298.82,220.05,303.25,211.06Z"/><path class="cls-8" d="M504.59,416.55c11-6.38,21.44-12.06,31.51-18.32,15.56-9.68,30.62-6.4,45.67,1,2.29,1.12,4.42,2.59,6.73,4-.62.77-.86,1.38-1.23,1.48-18.22,4.88-36.43,9.81-54.7,14.51C523.26,421.59,514.13,420.43,504.59,416.55Z"/><path class="cls-1" d="M612.47,446.74c2.61,0,5.47-.82,7.38.17,3.51,1.83,7.8,4.07,9.38,7.3,5.89,12,8.17,31.65-2.25,44.74-4.73,5.93-10.94,9.27-18.29,12.63C610,489.86,611.18,468.9,612.47,446.74Z"/><path class="cls-2" d="M366.42,399l-5.77,8.49,1,1.4c4.18-2.39,8.12-5.43,12.59-7,4.8-1.67,10.1-2.15,15,.82-8.67,8.69-17.65,16.54-25.2,25.59s-13.59,19.2-21.48,30.59c0-8.78-.31-15.92.06-23,.67-12.52,2.35-24.9,7.63-36.49,2.8-6.16,3.69-6.46,9.81-3.49Z"/><path class="cls-3" d="M634.37,306.57c1.32-6.45.6-13.71,6.41-18.37.72-.57.86-2.11.94-3.22,1.07-14.79,2.92-29.59,2.87-44.39,0-13.35-2.44-26.67-3.25-40-.47-7.73,0-15.53.35-23.29,0-1.27,1.29-2.49,2.38-4.43,5.31,6.13,7.12,13.21,8.11,20.13a193,193,0,0,1,.7,52.38c-1.38,10.67-2.69,21.36-4,32a35.68,35.68,0,0,1-7.33,18.39C638.84,299.14,636.74,303,634.37,306.57Z"/><path class="cls-2" d="M492.57,283c-.08,8.24-2.73,12-10.66,15.11s-16.59,1.61-21.12-3.59c-4.08-4.7-4.85-11.37-.67-17.91a63.71,63.71,0,0,1,11.61-12.9c3.5-3.09,10-2,13.55,1.38C490.81,270.27,492.64,274.79,492.57,283Z"/><path class="cls-1" d="M352.08,532.06c-22.12-4.16-30.88-23.84-29.66-38.59a25.49,25.49,0,0,1,15.92-22.07c1,1.1,2,1.69,2.09,2.36A250,250,0,0,0,352.08,532.06Z"/><path class="cls-3" d="M635.8,620.94l-49.09,16.28c.91-10.91,1.73-20.67,2.61-31.17,16.67.42,31.32,7.26,46.29,13C635.68,619.66,635.74,620.3,635.8,620.94Z"/><path class="cls-3" d="M665.13,216.09c1,3.16,2.55,6.26,2.81,9.47,1.77,21.56-1.93,42.39-9.2,62.65a86,86,0,0,1-5.92,13.08c-1.08-27.11,4.51-53.53,6.77-80.23.14-1.71,2-3.27,3.07-4.9Z"/><path class="cls-9" d="M599,481c-1.54-12.68,4.07-25.36-3.48-39.43-2.1,7.41-3.69,13-5.27,18.54l-.84-.23V413.22c1.66.9,3.73,1.42,4.85,2.74a192.26,192.26,0,0,1,12.32,15.75c1.35,2,1.59,4.89,1.78,7.41a85.53,85.53,0,0,1-.28,8.75c-.15,5,.66,9.8-3.71,14.18-2.29,2.29-2.06,7.09-3,10.74C600.64,475.53,599.81,478.26,599,481Z"/><path class="cls-3" d="M533.37,446.74c-2.36,16.31-1.7,29.38,2.91,42.75l-13.85-5.37C520.31,470.1,523.65,457.42,533.37,446.74Z"/><path class="cls-2" d="M606.54,421.31l-11.86-13,4.92-2.54c-8-6.34-16.53-9.58-24.14-13.63,3-2.31,5.9-4.49,8.74-6.71s5.94-2.81,8.21.65C599.39,396.78,605.84,407.71,606.54,421.31Z"/><path class="cls-3" d="M433.56,482.8c-5-.93-6.06-5.25-6.31-9.09-.74-11-2.33-17.38,4.37-22.63C440.83,458.57,441.77,472.66,433.56,482.8Z"/><path class="cls-3" d="M550,450.3c1.89,6.33,3.8,12.65,5.63,19a10.75,10.75,0,0,1,.44,3.47c-.17,3.17-3.67,7.71-5.88,7.58-3.62-.2-5-2.82-5.35-5.88-.56-5.47-1.28-11-.86-16.45.21-2.76,2.76-5.33,4.25-8Z"/><path class="cls-3" d="M356.73,613.8,372.24,612c.33,3.7.6,6.71,1,11.35l-16.62-7.67Z"/><path d="M582.88,376.64c-2.77,8.66-4.35,9.64-11.49,7.14-.13-9.16,1.64-10.49,9.78-7.37A7.35,7.35,0,0,0,582.88,376.64Z"/><path class="cls-3" d="M558.17,629.61l-11-7.74,5-7.72c2.88,5.47,5.11,9.72,7.34,14Z"/><path class="cls-3" d="M376.25,384.68,362,380c.49-2.3,2.61-3.74,5.8-3.27C372.41,377.4,376,379.43,376.25,384.68Z"/><path class="cls-3" d="M582.88,376.64a7.35,7.35,0,0,1-1.71-.23c-8.14-3.12-9.91-1.79-9.78,7.37a19.22,19.22,0,0,1-1.34-2.93c-1.1-4.13-1.08-8.06,3.25-10.39C576.24,368.87,579.51,371.11,582.88,376.64Z"/><path class="cls-3" d="M412.35,445c4.88-8.43,5.69-8.69,14.07-4.33Z"/><path class="cls-3" d="M602.87,506.32l2.46-15.8,1.2.1L605,506.91Z"/><path class="cls-3" d="M420.65,625.93H410.53c1.22-2.23,2.1-3.83,3.36-6.11l7.22,4.5C421,624.86,420.81,625.39,420.65,625.93Z"/><path class="cls-3" d="M363.12,385.76c5-2.59,7-1.63,7.73,1.44.21.9-1.14,2.16-1.78,3.25Z"/><path class="cls-3" d="M532.25,442.08c3.13-5.5,6-6.21,11.44-1.93Z"/><path d="M481.84,691c-1.71-1.38-3.71-2.52-5.09-4.17-6.84-8.2-15-12.8-26-10.16-1.21.29-2.61-.23-4.47-.44,10.36-8.67,32.13,1.12,35.41,14.94Z"/></svg>