<svg id="Calque_1" data-name="Calque 1" xmlns="http://www.w3.org/2000/svg" xmlns:xlink="http://www.w3.org/1999/xlink" viewBox="0 0 1000 1000"><defs><style>.cls-1{fill:url(#Dégradé_sans_nom_4);}.cls-2{fill:url(#Dégradé_sans_nom_13);}.cls-3{fill:url(#Dégradé_sans_nom_13-2);}.cls-4{fill:url(#Dégradé_sans_nom_8);}.cls-5{fill:url(#Dégradé_sans_nom_15);}.cls-6{fill:url(#Dégradé_sans_nom_6);}.cls-7{fill:url(#Dégradé_sans_nom_16);}.cls-8{fill:#009245;}.cls-9{fill:#a67c52;}.cls-10{fill:#c69c6d;}.cls-11{fill:#006837;}.cls-12{fill:#fff;}</style><linearGradient id="Dégradé_sans_nom_4" x1="565.37" y1="289.6" x2="565.37" y2="903.45" gradientUnits="userSpaceOnUse"><stop offset="0" stop-color="#8cc63f"/><stop offset="1" stop-color="#39b54a"/></linearGradient><linearGradient id="Dégradé_sans_nom_13" x1="274.8" y1="837.8" x2="720.17" y2="837.8" gradientUnits="userSpaceOnUse"><stop offset="0" stop-color="#009245"/><stop offset="0.52" stop-color="#007e3e"/><stop offset="1" stop-color="#006837"/></linearGradient><linearGradient id="Dégradé_sans_nom_13-2" x1="431.94" y1="411.48" x2="815.88" y2="411.48" xlink:href="#Dégradé_sans_nom_13"/><linearGradient id="Dégradé_sans_nom_8" x1="200.3" y1="706.9" x2="527.61" y2="706.9" gradientUnits="userSpaceOnUse"><stop offset="0" stop-color="#8cc63f"/><stop offset="0.41" stop-color="#8ac63f"/><stop offset="0.59" stop-color="#83c440"/><stop offset="0.72" stop-color="#76c142"/><stop offset="0.84" stop-color="#64be44"/><stop offset="0.94" stop-color="#4db947"/><stop offset="1" stop-color="#39b54a"/></linearGradient><linearGradient id="Dégradé_sans_nom_15" x1="656.27" y1="682.89" x2="877.77" y2="682.89" gradientUnits="userSpaceOnUse"><stop offset="0" stop-color="#009245"/><stop offset="0.15" stop-color="#00803f"/><stop offset="0.34" stop-color="#00723a"/><stop offset="0.57" stop-color="#006a38"/><stop offset="1" stop-color="#006837"/></linearGradient><linearGradient id="Dégradé_sans_nom_6" x1="579.37" y1="538.35" x2="872.08" y2="538.35" gradientUnits="userSpaceOnUse"><stop offset="0" stop-color="#8cc63f"/><stop offset="0.04" stop-color="#83c440"/><stop offset="0.18" stop-color="#68bf44"/><stop offset="0.33" stop-color="#53ba47"/><stop offset="0.49" stop-color="#44b748"/><stop offset="0.69" stop-color="#3cb64a"/><stop offset="1" stop-color="#39b54a"/></linearGradient><linearGradient id="Dégradé_sans_nom_16" x1="244.88" y1="539.29" x2="446.74" y2="539.29" gradientUnits="userSpaceOnUse"><stop offset="0" stop-color="#009245"/><stop offset="0.53" stop-color="#009044"/><stop offset="0.73" stop-color="#008942"/><stop offset="0.86" stop-color="#007d3e"/><stop offset="0.98" stop-color="#006d39"/><stop offset="1" stop-color="#006837"/></linearGradient></defs><title>gourde</title><path d="M568.35,124c2.24-10.83,4.63-21.24,6.44-31.74,1-5.6.91-11.38,1.36-17.07.38-4.74,1.09-9.47,1.2-14.22a153.41,153.41,0,0,0-.47-16.33c-.39-4.5,3.17-10,8.33-11.35A45.7,45.7,0,0,1,592.86,32c7.88-.74,15.79-1.21,23.65-2.09s15.42.07,23.07,1.44c3.8.68,7.68.85,11.52,1.33,4.2.53,8.44.93,12.58,1.75,22.12,4.35,44,9.85,64.71,18.78C739.12,57.88,750,62.8,758.93,70.8c2.68,2.4,6.08,4,9.28,5.79S772,79,770.39,82.47c-1.06,2.31-2.53,4.43-3.78,6.66a406.53,406.53,0,0,0-21.79,46.51c-3.5,8.71-7.12,17.38-10.66,26.08-.55,1.35-.81,2.83-1.48,4.12-1.41,2.71-.46,4.92,1.89,6,5.75,2.65,8,8.35,11.73,12.71A12,12,0,0,1,749,195.39c-1.63,7.5-3.84,14.93-11.31,18.72a60.61,60.61,0,0,1-13,4.43c-2.14.52-3.25,1.28-3.74,3.32-4,16.67-8.35,33.25-11.89,50-2.15,10.24-4,20.65-3.39,31.24.11,2.19.7,4.38.66,6.56-.07,3.46,1.86,5.27,4.56,6.9,7.06,4.26,14.16,8.5,21,13.11,5.47,3.7,10.64,7.84,15.81,11.95,5.48,4.37,10.91,8.81,16.16,13.44,10.17,9,20.59,17.69,30.13,27.29,5.89,5.94,10.58,13.13,15.36,20.07,4.47,6.5,9.23,12.51,15.43,17.55,4.07,3.32,7.4,7.71,10.52,12,8.36,11.52,13.68,24.71,19.64,37.51,6.76,14.51,13.6,29.06,19.1,44.06,2.91,7.92,4.39,16.78-.27,25.27-1,1.91-.7,5.15.09,7.39,5,14.07,6.28,28.7,7.45,43.43,1.06,13.41,2.26,26.81,1.59,40.25-.41,8.26-1.5,16.51-2.54,24.73-1,7.66-1.85,15.37-3.5,22.9-2.12,9.68-4.89,19.23-7.52,28.79A332.57,332.57,0,0,1,855.16,747c-7.89,18.77-14.71,38-25.17,55.65-4.88,8.22-9.64,16.52-14.81,24.57-5.62,8.76-11.43,17.44-17.56,25.85-8.28,11.34-18.16,21.27-28.27,31-2.09,2-3.8,4.48-6,6.3-7.51,6.11-14.95,12.34-23.36,17.25a5.53,5.53,0,0,1-5.76.41c-2.8-1.47-5.18-1-8.28,0-8.45,2.62-15.41,7.91-23.22,11.64-10.46,5-20.68,10.49-31.14,15.47-7.27,3.46-15.11,5.82-22.12,9.7-13.71,7.6-28.61,11.58-43.53,15.56a114.45,114.45,0,0,1-15.25,2.55c-7.85,1-15.73,1.92-23.62,2.5-8.09.59-16.22,1.12-24.32,1-8.27-.17-16.51-1.19-24.77-1.85-4-.33-8.07-.82-12.11-1-5.85-.31-11.72-.29-17.57-.7a58.61,58.61,0,0,1-8-1.61c-10.17-2.12-20.47-3.62-30.32-7.19-4.46-1.61-9.26-2.26-13.83-3.58q-7.63-2.2-15.15-4.86c-6.22-2.22-12.4-4.54-18.49-7.09-2.25-.94-4.1-2.8-6.27-4-3.23-1.76-6.59-3.27-9.88-4.91-1.8-.9-3.63-1.75-5.35-2.79-3.89-2.36-7.5-5.31-11.62-7.16-12.57-5.63-23.12-14.29-34.29-22-5.56-3.85-11.24-7.56-16.57-11.72-5.53-4.31-11.45-8.07-16.26-13.43-5.73-6.37-12.44-11.86-18.68-17.79-3-2.85-5.89-5.82-8.85-8.72-2.44-2.39-5-4.67-7.34-7.14-4.31-4.5-8.69-9-12.73-13.71-3.18-3.74-5.78-8-8.89-11.78a13.37,13.37,0,0,0-4.49-3.16,16.39,16.39,0,0,1-7.45-7.89c-6.56-13.4-13.8-26.45-18-41-1.62-5.67-4.35-11.14-7.12-16.53-3.08-6-4.89-12.68-6.81-19.19-2.7-9.16-5-18.44-7.45-27.67-.28-1.07-.87-2.32-.57-3.22,1.76-5.22-.42-10.19-.76-15.26s-1.66-10.17-2.06-15.29c-1-13.44-1.74-26.91-2.7-40.36-.39-5.51-1.47-11-1.52-16.51-.07-7.38.52-14.76.92-22.14.13-2.38.86-4.76.83-7.13-.14-11,2.24-21.6,4.17-32.32,1.87-10.42,5.37-20.25,9.18-30.08,4.79-12.36,8.87-25,13.44-37.44,4.71-12.83,10.75-25,17.22-37.1,6.92-12.9,14.18-25.55,23-37.19,6.46-8.49,13.18-16.82,20.28-24.78,10.56-11.83,21.51-23.32,32.39-34.87,3.77-4,8.07-7.53,11.66-11.68,5.6-6.48,12.36-11.53,19.13-16.59a44.77,44.77,0,0,1,6.72-3.81c9.54-4.82,18.95-9.93,28.7-14.26,10.08-4.48,20.15-9.26,31.15-11.06a44.66,44.66,0,0,1,13.11-.13c2.43.34,4.7.8,7,0,6.1-2,12.48-2.88,18.57-5.15s12.56-2.75,18.84-4.17c3-.69,6-1.88,9-2.57,6.09-1.4,12.18-2.87,18.35-3.84,9.1-1.44,18.26-2.49,27.4-3.66a11.23,11.23,0,0,0,9-6.62c4.11-8.44,7.94-17,11.87-25.53,5.53-12,7.24-25.08,10.89-37.61,1.68-5.77,1.55-12,2.45-18.05.75-5-1.37-8.74-5.77-10-5.37-1.56-6.93-5.85-8.41-9.94a20.06,20.06,0,0,1,2.61-19c4.78-6.75,10.83-11.95,19.4-13.58C562.83,126.43,565.51,125,568.35,124ZM410.75,289.84v-.14a17.23,17.23,0,0,0-3.87,0c-10.62,2.49-20.7,6.56-30.58,11.07-6.8,3.1-13.21,7.09-20,10.14a111,111,0,0,0-23.4,14.49,32.55,32.55,0,0,0-10.48,13.7c-1.51,3.88-.18,7.5-.05,11.28.35,10.5,3.77,20.28,7.21,29.87,5.83,16.23,12.08,32.35,20.37,47.57,2.1,3.86,3.52,8.08,5.51,12,2.89,5.74,6,11.37,9.05,17q6.82,12.66,13.7,25.29c3.35,6.14,6.76,12.24,10.16,18.36,2,3.52,3.88,7.05,5.89,10.54,1.29,2.23,3,4.27,4,6.59a250,250,0,0,0,17.54,32.21c8.36,13,17.37,25.61,25.68,38.65,4.11,6.47,9.7,11.67,13.32,18.73,5.74,11.2,13.82,21.11,21.87,30.88,6.14,7.46,12.21,15,18.14,22.6,3.5,4.49,6.47,9.4,10,13.83,6.46,8,13.25,15.78,19.78,23.75,4.17,5.09,8,10.48,12.22,15.51,8.52,10.09,18.72,18.74,25.66,30.17a8.63,8.63,0,0,0,1.54,1.54,86.65,86.65,0,0,1,6.79,6.47c9.59,11.31,18.64,23.08,29.83,33,5.35,4.72,8.59,11.59,15.16,15.15.53.28.63,1.28,1.06,1.84A37.22,37.22,0,0,0,620,805.8c5.52,5.6,11.06,11.2,16.68,16.71,6.62,6.5,13.32,12.93,20,19.35,8.07,7.75,16.25,15.39,24.25,23.2,4,3.86,7.43,8.24,11.5,12,4.32,3.94,9.72,6.82,13.53,11.16,6.92,7.89,16.12,11.19,25.42,14.57a11.91,11.91,0,0,0,10.14-1,89.15,89.15,0,0,0,18-13.58c6.16-5.73,11.71-12.11,17.67-18.07,5.75-5.75,11.45-11.52,16-18.32,4-6,8.14-11.82,12.33-17.64,5-6.93,4.89-7.84-2.18-12.46-.31-.2-.67-.34-1-.55-6.74-4.83-13.79-9.29-20.1-14.62-5.58-4.73-10.3-10.48-15.46-15.7-4.66-4.71-9.6-9.15-14.07-14-9.71-10.61-19.18-21.45-28.77-32.17-7.51-8.4-15.76-16.23-22.37-25.28-7.7-10.54-17.27-19.42-24.69-30.22-6.65-9.68-14.77-18.38-22.45-27.34-14.07-16.42-25.71-34.61-38.19-52.19-8.63-12.17-17.77-23.9-27-35.6-8.32-10.56-17.69-20.3-24.29-32.2-2.11-3.8-5.12-7.11-7.74-10.62s-5.53-7-8-10.66c-5.54-8.46-10.92-17-16.28-25.61-5.63-9-11.16-18.15-16.72-27.24-5.74-9.4-11.49-18.79-17.16-28.23-6.53-10.88-13.06-21.76-19.42-32.73-4-6.86-7.6-13.93-11.5-20.84-4.79-8.49-9.82-16.84-14.53-25.38-4.89-8.87-9.13-18.13-14.38-26.79a201.16,201.16,0,0,1-18.15-38.37c-1.33-3.83-3.51-5.3-7.17-5.43C413,289.8,411.86,289.84,410.75,289.84ZM720.17,903.45a82.17,82.17,0,0,1-7.11-4.52c-5-4-10-8-14.71-12.26-7.38-6.65-14.54-13.53-21.79-20.32-10.23-9.57-20.49-19.11-30.65-28.75-7.49-7.09-14.82-14.35-22.27-21.48-4.5-4.31-9.11-8.51-13.67-12.77-.38-.35-.93-.65-1.07-1.08-1.7-5.34-5.91-8.7-9.65-12.44-5.46-5.46-11.23-10.66-16.3-16.46C568.42,756.7,554.18,739.78,539.8,723c-2.13-2.48-4.46-4.8-6.65-7.23-1.71-1.9-3.16-1.79-5.21-.2a42.41,42.41,0,0,1-8.38,5c-6.54,3-13.2,5.64-19.84,8.37-11.41,4.7-22.75,9.57-34.28,14-12,4.58-24.27,8.64-36.39,13-8,2.86-15.67,6.33-24.16,7.72a43.75,43.75,0,0,0-13.07,4.35c-2.7,1.42-5.37,1.88-8.16,2.58-6.07,1.53-12.74,2.31-17.88,5.48-8.2,5-17.47,6.79-25.94,10.68-7.29,3.36-15.16,4.28-22.69,6.56-13,3.93-26.19,7.51-39.27,11.29a16.63,16.63,0,0,0-3.08,1.71l2.07,6.71c4.45.38,8.86-3.46,12.72.87-2.28,4.94-8,.78-11,4.75.87,2.23,1.85,4.75,2.81,7.19,6.85-.48,6.85-.48,8.67,3l-7.49.94c2.28,5,4.22,9.27,6,13.09,4,.71,8.05-4.18,11,2.13l-7.94,2.3c1.93,3,3.66,5.81,5.48,8.54s3.74,5.06,5.35,7.75c4.23,7.09,10.07,12.73,16.36,17.86,4.42,3.6,9.38,6.52,14.1,9.75,4.11,2.82,8.22,5.62,12.32,8.45,5.13,3.54,9.88,7.88,15.45,10.47,10.53,4.9,19.93,11.66,30.17,17,13.42,7,27.12,13.31,41.63,17.7,8.29,2.51,16.57,5.13,25,7.08,16,3.7,32,7.73,48.64,7,4-.18,8.09.57,12.14.84,8.47.57,16.93,1.26,25.41,1.58a113.11,113.11,0,0,0,13.26-.56c13.42-1.07,26.9-1.67,40.2-3.56,8.86-1.25,17.61-3.9,26.13-6.78,10.74-3.64,21.2-8.15,31.77-12.3.34-.13.58-.47.91-.63,5.25-2.61,10.49-5.25,15.78-7.79,7.3-3.49,14.71-6.73,21.93-10.38,7.4-3.74,14.66-7.78,21.89-11.84C717.15,906.48,718.43,905,720.17,903.45ZM431.94,309.72c1.72,3.5,3.21,6.84,4.95,10q13.42,24.74,27,49.4c8.1,14.67,16.38,29.25,24.54,43.88,1.89,3.38,3.42,7,5.44,10.26,3.26,5.32,6.89,10.42,10.17,15.73,5.31,8.6,10.37,17.36,15.72,25.94,3.76,6,8,11.75,12.06,17.59,3.79,5.52,6.73,11.72,10.67,17.29,2.4,3.41,3.95,7.42,6.29,10.88,8.07,11.92,16.35,23.7,24.47,35.58,1.63,2.4,3.42,3,6.1,1.77,10.5-5,21-9.77,31.56-14.7,3.46-1.62,6.76-3.62,10.29-5.08,9.53-4,19.14-7.72,28.72-11.58,8.88-3.58,17.81-7,26.59-10.83,7.45-3.21,14.71-6.88,22.08-10.28,11.72-5.39,23.72-10.24,35.13-16.2,13.73-7.19,26.94-15.35,40.43-23,7.68-4.36,15.64-8.26,23.18-12.84,6.4-3.9,13.13-7.55,16.81-14.74,2.33-4.53,2.55-8.66-.49-12.92-3.21-4.51-6.37-9.05-9.34-13.72-7.1-11.15-16.25-20.52-26.1-29.13-9.27-8.12-19.15-15.54-28.75-23.29-6-4.85-11.78-10-18-14.51-7-5-14.49-9.47-21.8-14.1a8,8,0,0,0-7.84-.52c-7.64,3.06-15.32,6.26-23.27,8.3-6.91,1.78-14.18,2.18-21.33,2.92a84.67,84.67,0,0,1-14.31.63c-10.26-.72-20.56-1.53-30.72-3.11-8.88-1.38-17.61-3.75-26.36-5.89-8.46-2.07-16-6.39-24-9.74A123.57,123.57,0,0,1,539.29,301a43.29,43.29,0,0,1-14.4-16.3c-1.78-3.56-4-6.93-6-10.39-5.94-.32-28.81,7-38,12.24L483,296.73c-4.93-1.94-3.74-6.57-6.35-9.17l-12.57,5.16,3.87,6.66c-3.26,1-3.26,1-7.57-5.39l-16.12,7.19c1.05,1.86,1.77,3.09,2.44,4.34s1.36,2.75,2.29,4.61c-5.88,1-4.38-4.66-7.36-6.22C437.8,304.27,435.4,307.51,431.94,309.72Zm17.18,298.64c-6.3,3.06-12.15,6.22-18.25,8.8q-27.72,11.72-55.61,23-21.72,8.87-43.56,17.42c-7,2.76-14.22,5.11-21.24,7.87-19.55,7.67-39,15.63-58.6,23.08a208.07,208.07,0,0,1-22.73,6.69c-8.2,2.1-16.42,4.4-25.07,3.62a30.92,30.92,0,0,0-3.76.16c.72,4,1.26,7.66,2,11.24,3.91,17.85,11.29,34.49,17.91,51.4,1.05,2.69,1.58,5.61,2.84,8.17,4.77,9.7,9.74,19.3,14.63,28.93,1.88,3.69,4.57,6.28,9,6.44,2.39.09,4.87.44,7.16,0,10.29-2.07,20.72-3.75,30.74-6.77,17.62-5.29,35.51-9.77,52.63-16.68,6.48-2.61,13.15-4.75,19.73-7.12,7.28-2.61,14.55-5.25,21.83-7.85q4.68-1.66,9.41-3.22c12.6-4.12,25.29-8,37.8-12.39,11.28-3.94,22.21-8.93,33.59-12.5,12.71-4,24.83-9.3,37.05-14.45,7.47-3.14,15.16-5.8,22.58-9.07,3-1.33,6.34-2.73,8.41-6.27C501,675.9,473.66,643.58,449.12,608.36Zm207.15,48.51c8.53,8.57,14.56,18.76,22.79,27.17a51.48,51.48,0,0,1,4,4.6c3.92,5.1,7.58,10.4,11.68,15.35,10.61,12.84,21.21,25.7,32.17,38.24,8.28,9.46,17.63,18,25.18,28.09a58.54,58.54,0,0,0,5.39,5.53c6.79,7,13.59,13.92,20.34,20.92,1,1,1.59,2.42,2.62,3.38,8.11,7.63,17.92,12.87,27.16,18.89,3.53,2.3,6.31,1.43,8.44-2.1,4.57-7.58,9.41-15,13.36-22.94,5-10,9.48-20.4,13.82-30.78,6.54-15.63,13.42-31.16,18-47.52,4.13-14.7,9.64-29,11.46-44.36,1.27-10.75,3-21.44,4.12-32.21.75-7.51.83-15.1.92-22.66.08-6.78,0-13.58-.46-20.33-.74-10.09-1.87-20.16-3-30.22-.77-7.09-3.89-13.46-6-20.46-4.54,3.66-8.22,7.44-12.6,10a297.9,297.9,0,0,1-37.87,19.25c-11.15,4.57-21.64,10.77-32.39,16.31-12.08,6.23-24,12.72-36.22,18.74-9.55,4.71-19.15,9.3-28.34,14.71-3.94,2.32-8,4.45-12.09,6.5-8.69,4.36-17.91,7.87-26,13.09S665.37,651.59,656.27,656.87Zm-1.62-6.12a45,45,0,0,0,5.87-1.38,184.8,184.8,0,0,0,22.37-10.69c14-7.82,28.42-14.91,42.71-22.22,7.89-4,15.95-7.72,23.81-11.82C768.88,594.48,788.2,584,807.74,574c11.81-6.06,24-11.39,35.86-17.32,7.91-4,15.53-8.39,21.32-15.41,3.81-4.61,7.73-9.06,7.08-15.56a35.49,35.49,0,0,0-1.54-8.14c-2.82-8.17-5.6-16.38-9-24.33-3.88-9.13-8-18.18-12.71-26.92-5.56-10.4-9.2-21.82-16.56-31.25-3.56-4.57-6.92-9.32-11.46-13.55-1.4,3.79-2.24,7-3.72,9.91-3.87,7.59-10.87,11.94-17.9,16-11.31,6.51-23,12.31-34.17,19.1-16.86,10.28-34.06,19.8-52.19,27.68-15.18,6.59-30.07,13.85-45.22,20.53-8.93,3.93-18.14,7.22-27.15,11-8.15,3.39-16.22,7-24.31,10.52C606,540.62,596.76,547,585.93,549.86c-2.18.58-4.1,2.18-6.56,3.55,1.68,2.49,3,4.71,4.57,6.69,7.64,9.49,15.4,18.88,23,28.37,3.56,4.41,7.17,8.8,10.41,13.45,7.69,11,15.18,22.19,22.71,33.33,1.11,1.65,1.63,3.87,3,5.13,4.31,3.86,7.44,8.53,10.28,13.46a12.14,12.14,0,0,0,1.21,1.36ZM446.74,604.39,435.62,588.1c-.83-1.22-1.71-2.41-2.54-3.63-3.19-4.73-6.5-9.39-9.54-14.21-5.88-9.35-11.82-18.68-17.36-28.23-4.89-8.43-9.13-17.24-13.91-25.73-6.69-11.87-13.78-23.51-20.38-35.42q-9.24-16.65-17.79-33.69c-6.44-12.86-12.75-25.8-18.58-38.94-2.27-5.11-5.89-8.68-9.79-12.93L314,410.25c3,3,8,2.82,8.67,7.63-4.72,1.09-6.62-4.37-11.5-4.49l-14.57,25.83c2.5,1,4.5,1.85,6.57,2.48,2.76.84,2.46,2.48,1.71,4.74l-10.05-4.75-16.06,31.47a80.62,80.62,0,0,0,7.6,3c2.49.7,4.87,1.18,5.3,4.52-5.71,1.21-9.37-4-14.93-3.7-2.42,8.3-4.89,16.72-7.47,25.57l11.52,3.09c-3,3.69-3.53,3.79-7.11,2.31-1.91-.79-3.94-1.32-6.39-2.12-2.5,9.65-4.8,18.51-7.26,28L272,538.05c-.7,1-1.2,2.13-1.49,2.08-3.7-.66-7.37-1.48-11.17-2.28-2.79,6.92-5.28,14.12-5.57,21.73,3.31,2.27,7.86-.08,10.63,4-4,3.57-7.93-1.58-11.63.08-3.5,9.18-4.61,15.06-4,21.22,4.4,2,9.73.42,14.8,3.74-5.87,3.76-11-1.37-16,.6-.63,8.56-1.25,17.08-1.86,25.41,3.41,1.23,7.26-.09,8.51,4.55h-8.72v21.7c7.8.06,7.8.06,9.7,3.74l-10.26,1.45c.9,7,1.75,13.67,2.62,20.37,7.34-1.14,7.34-1.14,8.54,2.38L248.21,671c.56,4.67-.09,9.14,5.1,12.28,4.93-2.06,10.28-4.45,15.74-6.56,10.63-4.1,21.5-7.52,31.91-12.29,7.48-3.43,15.66-5.3,23.29-8.45,8.69-3.58,17.11-7.81,25.65-11.75,2.68-1.23,5.43-2.31,8.07-3.63,9-4.54,19.12-6.14,28.36-10.46,16.19-7.56,33-13.8,49.51-20.66C439.18,608.07,442.41,606.42,446.74,604.39ZM557.09,178.05c-4.86,34.3-13.17,66.82-33,95.49a53.41,53.41,0,0,0,17.29,23.14c12.74,9.69,27.16,16.24,42.12,21.36,16.12,5.52,33.05,7.08,50,8.2,9.4.62,18.75.21,28.13.07,14.4-.22,27.26-5.29,40.07-11.11-.77-10.29-1.5-20.41.28-30.5.86-4.89,1.66-9.79,2.51-14.69a247.79,247.79,0,0,1,9.18-37.55c1.38-4.09,2-8.45,3.11-13.38-3.71-.15-6.61-.4-9.51-.37a149.28,149.28,0,0,1-34.66-3.46c-12.38-2.83-24.64-6.29-36.85-9.83-12-3.48-24-7.36-35.92-11.14-8.26-2.61-16.59-5.08-24.7-8.1C569.17,184,563.45,180.94,557.09,178.05ZM254,536.15c-4.28-4-10.07-2.4-14.69-6.27,6.28-3,10.81,2.4,16.32,1.45l7.36-28c-4.93-3.19-10.72-2.94-15.2-7.64,6.79-.84,11.23,3.78,17.12,3.87l8.25-25-14.3-6.77c6.37-3.51,10.35,3.51,16.17,3.14,5-9.19,10-18.4,14.91-27.66,1.39-2.62.71-3.59-2.44-4.52-4.48-1.32-8.94-2.72-13.38-4.08.48-3,2-2.44,3.76-1.86,4.19,1.41,8.41,2.71,12.6,4.13,1.93.66,2.93.07,3.93-1.75,4.48-8.17,9.14-16.24,14.1-25-4.92-2.9-9.57-5.78-14.36-8.39-1.87-1-2.45-1.92-1.08-4,6.08,2.76,10.6,8,16.64,10.12,6.66-5.95,10.75-11.36,12.92-17.26l-12.43-12.17c-1.42-1.38-1.43-1.37-.4-3.64,5.75,4,9.92,9.87,16,13.93-1.29-7.83-3.42-15.24-5.13-22.75s-3-15.14-4.35-22.19c-3.14,2.83-6.67,5.34-9.35,8.55-8.62,10.35-19.05,19-27.34,29.67-4.22,5.44-9.3,10.3-13.41,15.92-5.56,7.59-11.53,14.93-16.53,22.87a366,366,0,0,0-34.39,71c-3.57,9.9-6.91,19.87-10.35,29.82-1.75,5.05-4,10-5.14,15.19-2.88,13.69-5.47,27.44-6.48,41.46-.81,11.25-1.82,22.47-1.17,33.74.54,9.2,1.41,18.38,2.12,27.57.28,3.66,1.25,7.45.59,10.94a14.58,14.58,0,0,0,.85,8.24,11.47,11.47,0,0,1,.46,2.7c.87,8.06,1.6,16.14,2.67,24.17.4,3,1.61,5.86,2.37,8.52,12.18.86,37.18-4.59,43.53-9.41-.55-4.14-1.13-8.44-1.73-13H232.85c2.18-4.42,6.57-1.82,9.54-4.58-.54-6.73-1.11-14-1.71-21.57l-12.77-.57c3.7-5.56,9.13-.77,13.08-4.35v-22.9L227.69,615c-.21-2,.27-2.75,2.12-2.38,3.57.7,7.16,1.29,11.58,2.07.59-9.26,1.15-17.9,1.7-26.47-10.06-1.49-10.06-1.49-11.44-5.39l11.15,2.62c1.88-8.26,3.58-15.71,5.34-23.45l-14.71-4.9c6.2-3,10.61,2.42,15.57,1Q251.54,547,254,536.15ZM582.87,46.22a11,11,0,0,0-.54,1.88c-.76,11.76-1.47,23.51-2.25,35.26-.2,3-.51,5.89-1,8.8-.71,4.36-1.58,8.7-2.43,13-1.95,9.94-3.55,20-6.09,29.76-1,3.68.2,5.6,2.4,7.64a32.6,32.6,0,0,0,4,2.83c9.87,6.65,21,10.56,31.91,15.09,18.11,7.58,37.47,11,56.39,15.8,12.11,3.06,24.65,4.52,37.06,6.26,6.33.89,12.79.82,19,1.17,12.55-34.06,25.49-67.46,43.07-99.62-2,.25-3.24.34-4.46.55-8,1.37-16,3-24.18,2.49-3.86-.23-7.76-1.11-11.56-.78-14.64,1.24-28.58-2.69-42.66-5.39-12.29-2.36-24.51-5.23-36.65-8.3-10.53-2.67-21.07-5.44-31.3-9s-19.23-9.34-27.86-15.76A29.05,29.05,0,0,0,582.87,46.22Zm156.75,135.4c-3,3.77-6.21,5.91-10.52,5.95-4.75,0-9.51-.13-14.27,0-17,.47-33.32-3.78-49.81-6.71-10.14-1.8-20-5.34-30-7.52-20.58-4.45-39.76-12.47-58.05-22.56-7.63-4.21-15.47-9-17.62-18.64-5.35.27-8.1,4.34-11.46,7.31-8.19,7.21-7.79,18.95.65,25.78,11,8.91,23.61,14.87,36.77,19.72,6,2.22,12.39,3.54,18.54,5.47,9.69,3,19.28,6.37,29,9.29,10.07,3,20.24,5.68,30.36,8.53,3.9,1.09,7.72,2.82,11.69,3.29,17,2,34,5.24,51.23,2.5,7-1.11,13.18-3.5,16.32-10.58.82-1.85,1.55-3.74,2.48-5.53a7.89,7.89,0,0,0-.19-7.48C743.24,187.52,741.44,184.76,739.62,181.62ZM763.73,79.38c-2.91-2-4.72-3.2-6.48-4.46-13-9.26-26.71-16.94-42-21.9a460.54,460.54,0,0,0-51.15-13.5c-10.44-2.09-21.11-3.08-31.72-4.21-14.6-1.56-29.06.54-43.5,2.38-1.62.21-4.35.06-4.62,3.54a110.11,110.11,0,0,1,9.28,6.25C603.9,56,616.16,60.52,628.77,64c15.05,4.12,30.28,7.58,45.5,11.06,9.49,2.17,19.07,4,28.67,5.68a91.91,91.91,0,0,0,13.18,1c4.19.11,8.45-.61,12.57-.11,9,1.08,18,.35,27-.17C758,81.25,760.22,80.28,763.73,79.38Zm-480.3,764.1-5.54-12.69c-2.76-1-5.31,1.66-7.68-1.57l6.46-2.62-3.4-9.08h-7.6c-.08-.86-.33-1.79-.16-1.88,2-1,4.1-1.86,6.16-2.76-2-6.33-2.73-6.74-9-5.28l-13.4,3.14c.9,2,1.31,4.18,2.56,5.52,8.33,8.89,16.86,17.58,25.26,26.39C278.94,844.59,280.84,844.43,283.43,843.48ZM443.36,297.31,459,290.05c-2-5.45-2.17-5.55-6.75-4.49-1.44.33-2.89.58-4.33.88l-23.11,5,5.64,14.38,9.9-6.41c-2-2.91-3.56-5.25-5.55-8.19C440.38,290.36,440,295.51,443.36,297.31ZM475.54,284c-.33-3-.94-4.65-3.85-3.7-3.6,1.18-7.25,2.21-11.36,3.44l2.25,5.12Zm20.37-7.62c-8.28-.85-13.32.48-18.35,3.87,1,.6,1.94,1.68,2.52,1.49C485.39,280.07,490.64,278.19,495.91,276.37Zm231.48-94,1,1.11c2.28-1.21,5.68-.61,6.7-3.7s-2.53-3.59-4-5.26c-.31-.34-.92-.42-1.67-.74C728.66,176.74,728,179.54,727.39,182.33Zm-436.9,673.8c-1.07-5.38-3.86-8.15-8-7.72ZM566.34,130.07l-1.11-.28-.78,2.85,1.22.31C565.89,132,566.11,131,566.34,130.07Z"/><path class="cls-1" d="M410.75,289.84c1.11,0,2.22,0,3.32,0,3.66.13,5.84,1.6,7.17,5.43a201.16,201.16,0,0,0,18.15,38.37c5.25,8.66,9.49,17.92,14.38,26.79,4.71,8.54,9.74,16.89,14.53,25.38,3.9,6.91,7.52,14,11.5,20.84,6.36,11,12.89,21.85,19.42,32.73,5.67,9.44,11.42,18.83,17.16,28.23,5.56,9.09,11.09,18.2,16.72,27.24,5.36,8.58,10.74,17.15,16.28,25.61,2.43,3.7,5.31,7.1,8,10.66s5.63,6.82,7.74,10.62c6.6,11.9,16,21.64,24.29,32.2,9.21,11.7,18.35,23.43,27,35.6,12.48,17.58,24.12,35.77,38.19,52.19,7.68,9,15.8,17.66,22.45,27.34,7.42,10.8,17,19.68,24.69,30.22,6.61,9.05,14.86,16.88,22.37,25.28,9.59,10.72,19.06,21.56,28.77,32.17,4.47,4.88,9.41,9.32,14.07,14,5.16,5.22,9.88,11,15.46,15.7,6.31,5.33,13.36,9.79,20.1,14.62.29.21.65.35,1,.55,7.07,4.62,7.18,5.53,2.18,12.46-4.19,5.82-8.33,11.68-12.33,17.64-4.57,6.8-10.27,12.57-16,18.32-6,6-11.51,12.34-17.67,18.07a89.15,89.15,0,0,1-18,13.58,11.91,11.91,0,0,1-10.14,1c-9.3-3.38-18.5-6.68-25.42-14.57-3.81-4.34-9.21-7.22-13.53-11.16-4.07-3.72-7.54-8.1-11.5-12-8-7.81-16.18-15.45-24.25-23.2-6.7-6.42-13.4-12.85-20-19.35C631.05,817,625.51,811.4,620,805.8a37.22,37.22,0,0,1-3.12-3.83c-.43-.56-.53-1.56-1.06-1.84-6.57-3.56-9.81-10.43-15.16-15.15-11.19-9.88-20.24-21.65-29.83-33a86.65,86.65,0,0,0-6.79-6.47,8.63,8.63,0,0,1-1.54-1.54c-6.94-11.43-17.14-20.08-25.66-30.17-4.24-5-8.05-10.42-12.22-15.51-6.53-8-13.32-15.73-19.78-23.75-3.57-4.43-6.54-9.34-10-13.83-5.93-7.62-12-15.14-18.14-22.6-8-9.77-16.13-19.68-21.87-30.88-3.62-7.06-9.21-12.26-13.32-18.73-8.31-13-17.32-25.63-25.68-38.65a250,250,0,0,1-17.54-32.21c-1.05-2.32-2.72-4.36-4-6.59-2-3.49-3.94-7-5.89-10.54-3.4-6.12-6.81-12.22-10.16-18.36q-6.9-12.63-13.7-25.29c-3.05-5.66-6.16-11.29-9.05-17-2-3.93-3.41-8.15-5.51-12-8.29-15.22-14.54-31.34-20.37-47.57-3.44-9.59-6.86-19.37-7.21-29.87-.13-3.78-1.46-7.4.05-11.28a32.55,32.55,0,0,1,10.48-13.7A111,111,0,0,1,356.27,311c6.82-3.05,13.23-7,20-10.14,9.88-4.51,20-8.58,30.58-11.07a17.23,17.23,0,0,1,3.87,0Z"/><path class="cls-2" d="M720.17,903.45c-1.74,1.51-3,3-4.64,3.94-7.23,4.06-14.49,8.1-21.89,11.84-7.22,3.65-14.63,6.89-21.93,10.38-5.29,2.54-10.53,5.18-15.78,7.79-.33.16-.57.5-.91.63-10.57,4.15-21,8.66-31.77,12.3-8.52,2.88-17.27,5.53-26.13,6.78-13.3,1.89-26.78,2.49-40.2,3.56a113.11,113.11,0,0,1-13.26.56c-8.48-.32-16.94-1-25.41-1.58-4-.27-8.12-1-12.14-.84-16.68.74-32.64-3.29-48.64-7-8.43-2-16.71-4.57-25-7.08C418,940.35,404.26,934,390.84,927c-10.24-5.34-19.64-12.1-30.17-17-5.57-2.59-10.32-6.93-15.45-10.47-4.1-2.83-8.21-5.63-12.32-8.45-4.72-3.23-9.68-6.15-14.1-9.75-6.29-5.13-12.13-10.77-16.36-17.86-1.61-2.69-3.61-5.14-5.35-7.75s-3.55-5.52-5.48-8.54l7.94-2.3c-2.95-6.31-7-1.42-11-2.13-1.74-3.82-3.68-8.1-6-13.09l7.49-.94c-1.82-3.5-1.82-3.5-8.67-3-1-2.44-1.94-5-2.81-7.19,3-4,8.71.19,11-4.75-3.86-4.33-8.27-.49-12.72-.87l-2.07-6.71a16.63,16.63,0,0,1,3.08-1.71c13.08-3.78,26.23-7.36,39.27-11.29,7.53-2.28,15.4-3.2,22.69-6.56,8.47-3.89,17.74-5.63,25.94-10.68,5.14-3.17,11.81-4,17.88-5.48,2.79-.7,5.46-1.16,8.16-2.58a43.75,43.75,0,0,1,13.07-4.35c8.49-1.39,16.2-4.86,24.16-7.72,12.12-4.35,24.36-8.41,36.39-13,11.53-4.39,22.87-9.26,34.28-14,6.64-2.73,13.3-5.41,19.84-8.37a42.41,42.41,0,0,0,8.38-5c2-1.59,3.5-1.7,5.21.2,2.19,2.43,4.52,4.75,6.65,7.23,14.38,16.8,28.62,33.72,43.15,50.39,5.07,5.8,10.84,11,16.3,16.46,3.74,3.74,8,7.1,9.65,12.44.14.43.69.73,1.07,1.08,4.56,4.26,9.17,8.46,13.67,12.77,7.45,7.13,14.78,14.39,22.27,21.48,10.16,9.64,20.42,19.18,30.65,28.75,7.25,6.79,14.41,13.67,21.79,20.32,4.73,4.28,9.72,8.28,14.71,12.26A82.17,82.17,0,0,0,720.17,903.45Z"/><path class="cls-3" d="M431.94,309.72c3.46-2.21,5.86-5.45,9.69-5.81,3,1.56,1.48,7.19,7.36,6.22-.93-1.86-1.58-3.25-2.29-4.61s-1.39-2.48-2.44-4.34L460.38,294c4.31,6.39,4.31,6.39,7.57,5.39l-3.87-6.66,12.57-5.16c2.61,2.6,1.42,7.23,6.35,9.17l-2.14-10.23c9.24-5.23,32.11-12.56,38-12.24,2,3.46,4.2,6.83,6,10.39a43.29,43.29,0,0,0,14.4,16.3,123.57,123.57,0,0,0,22.48,12.81c8,3.35,15.52,7.67,24,9.74,8.75,2.14,17.48,4.51,26.36,5.89,10.16,1.58,20.46,2.39,30.72,3.11a84.67,84.67,0,0,0,14.31-.63c7.15-.74,14.42-1.14,21.33-2.92,7.95-2,15.63-5.24,23.27-8.3a8,8,0,0,1,7.84.52c7.31,4.63,14.77,9.07,21.8,14.1,6.27,4.48,12,9.66,18,14.51,9.6,7.75,19.48,15.17,28.75,23.29,9.85,8.61,19,18,26.1,29.13,3,4.67,6.13,9.21,9.34,13.72,3,4.26,2.82,8.39.49,12.92-3.68,7.19-10.41,10.84-16.81,14.74-7.54,4.58-15.5,8.48-23.18,12.84-13.49,7.64-26.7,15.8-40.43,23-11.41,6-23.41,10.81-35.13,16.2-7.37,3.4-14.63,7.07-22.08,10.28-8.78,3.8-17.71,7.25-26.59,10.83-9.58,3.86-19.19,7.61-28.72,11.58-3.53,1.46-6.83,3.46-10.29,5.08-10.51,4.93-21.06,9.75-31.56,14.7-2.68,1.26-4.47.63-6.1-1.77-8.12-11.88-16.4-23.66-24.47-35.58-2.34-3.46-3.89-7.47-6.29-10.88-3.94-5.57-6.88-11.77-10.67-17.29-4-5.84-8.3-11.55-12.06-17.59-5.35-8.58-10.41-17.34-15.72-25.94-3.28-5.31-6.91-10.41-10.17-15.73-2-3.29-3.55-6.88-5.44-10.26-8.16-14.63-16.44-29.21-24.54-43.88q-13.61-24.63-27-49.4C435.15,316.56,433.66,313.22,431.94,309.72Z"/><path class="cls-4" d="M449.12,608.36c24.54,35.22,51.86,67.54,78.49,100.52-2.07,3.54-5.39,4.94-8.41,6.27-7.42,3.27-15.11,5.93-22.58,9.07-12.22,5.15-24.34,10.46-37.05,14.45-11.38,3.57-22.31,8.56-33.59,12.5-12.51,4.38-25.2,8.27-37.8,12.39q-4.73,1.55-9.41,3.22c-7.28,2.6-14.55,5.24-21.83,7.85-6.58,2.37-13.25,4.51-19.73,7.12-17.12,6.91-35,11.39-52.63,16.68-10,3-20.45,4.7-30.74,6.77-2.29.46-4.77.11-7.16,0-4.38-.16-7.07-2.75-9-6.44-4.89-9.63-9.86-19.23-14.63-28.93-1.26-2.56-1.79-5.48-2.84-8.17-6.62-16.91-14-33.55-17.91-51.4-.79-3.58-1.33-7.23-2-11.24a30.92,30.92,0,0,1,3.76-.16c8.65.78,16.87-1.52,25.07-3.62a208.07,208.07,0,0,0,22.73-6.69c19.63-7.45,39.05-15.41,58.6-23.08,7-2.76,14.21-5.11,21.24-7.87q21.82-8.58,43.56-17.42,27.87-11.38,55.61-23C437,614.58,442.82,611.42,449.12,608.36Z"/><path class="cls-5" d="M656.27,656.87c9.1-5.28,18.37-7.56,26.51-12.8s17.34-8.73,26-13.09c4.09-2.05,8.15-4.18,12.09-6.5,9.19-5.41,18.79-10,28.34-14.71,12.19-6,24.14-12.51,36.22-18.74,10.75-5.54,21.24-11.74,32.39-16.31a297.9,297.9,0,0,0,37.87-19.25c4.38-2.57,8.06-6.35,12.6-10,2.11,7,5.23,13.37,6,20.46,1.09,10.06,2.22,20.13,3,30.22.5,6.75.54,13.55.46,20.33-.09,7.56-.17,15.15-.92,22.66-1.07,10.77-2.85,21.46-4.12,32.21-1.82,15.32-7.33,29.66-11.46,44.36-4.6,16.36-11.48,31.89-18,47.52C838.88,773.6,834.42,784,829.4,794c-3.95,7.9-8.79,15.36-13.36,22.94-2.13,3.53-4.91,4.4-8.44,2.1-9.24-6-19.05-11.26-27.16-18.89-1-1-1.63-2.36-2.62-3.38-6.75-7-13.55-13.95-20.34-20.92a58.54,58.54,0,0,1-5.39-5.53c-7.55-10.13-16.9-18.63-25.18-28.09-11-12.54-21.56-25.4-32.17-38.24-4.1-5-7.76-10.25-11.68-15.35a51.48,51.48,0,0,0-4-4.6C670.83,675.63,664.8,665.44,656.27,656.87Z"/><path class="cls-6" d="M654.65,650.75v4.45a12.14,12.14,0,0,1-1.21-1.36c-2.84-4.93-6-9.6-10.28-13.46-1.42-1.26-1.94-3.48-3-5.13-7.53-11.14-15-22.3-22.71-33.33-3.24-4.65-6.85-9-10.41-13.45-7.65-9.49-15.41-18.88-23-28.37-1.6-2-2.89-4.2-4.57-6.69,2.46-1.37,4.38-3,6.56-3.55C596.76,547,606,540.62,616.1,536.2c8.09-3.53,16.16-7.13,24.31-10.52,9-3.75,18.22-7,27.15-11,15.15-6.68,30-13.94,45.22-20.53,18.13-7.88,35.33-17.4,52.19-27.68,11.13-6.79,22.86-12.59,34.17-19.1,7-4,14-8.4,17.9-16,1.48-2.9,2.32-6.12,3.72-9.91,4.54,4.23,7.9,9,11.46,13.55,7.36,9.43,11,20.85,16.56,31.25,4.69,8.74,8.83,17.79,12.71,26.92,3.37,7.95,6.15,16.16,9,24.33a35.49,35.49,0,0,1,1.54,8.14c.65,6.5-3.27,10.95-7.08,15.56-5.79,7-13.41,11.45-21.32,15.41-11.87,5.93-24.05,11.26-35.86,17.32-19.54,10-38.86,20.5-58.33,30.66-7.86,4.1-15.92,7.79-23.81,11.82-14.29,7.31-28.7,14.4-42.71,22.22a184.8,184.8,0,0,1-22.37,10.69A45,45,0,0,1,654.65,650.75Z"/><path class="cls-7" d="M446.74,604.39c-4.33,2-7.56,3.68-10.9,5.06-16.52,6.86-33.32,13.1-49.51,20.66C377.09,634.43,367,636,358,640.57c-2.64,1.32-5.39,2.4-8.07,3.63-8.54,3.94-17,8.17-25.65,11.75-7.63,3.15-15.81,5-23.29,8.45-10.41,4.77-21.28,8.19-31.91,12.29-5.46,2.11-10.81,4.5-15.74,6.56-5.19-3.14-4.54-7.61-5.1-12.28l7.83-2.13c-1.2-3.52-1.2-3.52-8.54-2.38-.87-6.7-1.72-13.39-2.62-20.37l10.26-1.45c-1.9-3.68-1.9-3.68-9.7-3.74V619.2h8.72c-1.25-4.64-5.1-3.32-8.51-4.55.61-8.33,1.23-16.85,1.86-25.41,5-2,10.15,3.16,16-.6-5.07-3.32-10.4-1.76-14.8-3.74-.58-6.16.53-12,4-21.22,3.7-1.66,7.64,3.49,11.63-.08-2.77-4.1-7.32-1.75-10.63-4,.29-7.61,2.78-14.81,5.57-21.73,3.8.8,7.47,1.62,11.17,2.28.29,0,.79-1.06,1.49-2.08L260,533.81c2.46-9.48,4.76-18.34,7.26-28,2.45.8,4.48,1.33,6.39,2.12,3.58,1.48,4.11,1.38,7.11-2.31l-11.52-3.09c2.58-8.85,5.05-17.27,7.47-25.57,5.56-.26,9.22,4.91,14.93,3.7-.43-3.34-2.81-3.82-5.3-4.52a80.62,80.62,0,0,1-7.6-3l16.06-31.47,10.05,4.75c.75-2.26,1.05-3.9-1.71-4.74-2.07-.63-4.07-1.52-6.57-2.48l14.57-25.83c4.88.12,6.78,5.58,11.5,4.49-.64-4.81-5.7-4.6-8.67-7.63l11.72-14.93c3.9,4.25,7.52,7.82,9.79,12.93,5.83,13.14,12.14,26.08,18.58,38.94q8.52,17,17.79,33.69c6.6,11.91,13.69,23.55,20.38,35.42,4.78,8.49,9,17.3,13.91,25.73,5.54,9.55,11.48,18.88,17.36,28.23,3,4.82,6.35,9.48,9.54,14.21.83,1.22,1.71,2.41,2.54,3.63Z"/><path class="cls-8" d="M557.09,178.05c6.36,2.89,12.08,5.9,18.09,8.13,8.11,3,16.44,5.49,24.7,8.1,12,3.78,23.88,7.66,35.92,11.14,12.21,3.54,24.47,7,36.85,9.83a149.28,149.28,0,0,0,34.66,3.46c2.9,0,5.8.22,9.51.37-1.12,4.93-1.73,9.29-3.11,13.38A247.79,247.79,0,0,0,704.53,270c-.85,4.9-1.65,9.8-2.51,14.69-1.78,10.09-1,20.21-.28,30.5-12.81,5.82-25.67,10.89-40.07,11.11-9.38.14-18.73.55-28.13-.07-16.95-1.12-33.88-2.68-50-8.2-15-5.12-29.38-11.67-42.12-21.36a53.41,53.41,0,0,1-17.29-23.14C543.92,244.87,552.23,212.35,557.09,178.05Z"/><path class="cls-8" d="M254,536.15q-2.5,10.88-5,22c-5,1.4-9.37-4.05-15.57-1l14.71,4.9c-1.76,7.74-3.46,15.19-5.34,23.45l-11.15-2.62c1.38,3.9,1.38,3.9,11.44,5.39-.55,8.57-1.11,17.21-1.7,26.47-4.42-.78-8-1.37-11.58-2.07-1.85-.37-2.33.42-2.12,2.38l13.3,2.86v22.9c-4,3.58-9.38-1.21-13.08,4.35l12.77.57c.6,7.57,1.17,14.84,1.71,21.57-3,2.76-7.36.16-9.54,4.58H243c.6,4.54,1.18,8.84,1.73,13-6.35,4.82-31.35,10.27-43.53,9.41-.76-2.66-2-5.54-2.37-8.52-1.07-8-1.8-16.11-2.67-24.17a11.47,11.47,0,0,0-.46-2.7,14.58,14.58,0,0,1-.85-8.24c.66-3.49-.31-7.28-.59-10.94-.71-9.19-1.58-18.37-2.12-27.57-.65-11.27.36-22.49,1.17-33.74,1-14,3.6-27.77,6.48-41.46,1.09-5.2,3.39-10.14,5.14-15.19,3.44-9.95,6.78-19.92,10.35-29.82a366,366,0,0,1,34.39-71c5-7.94,11-15.28,16.53-22.87,4.11-5.62,9.19-10.48,13.41-15.92,8.29-10.71,18.72-19.32,27.34-29.67,2.68-3.21,6.21-5.72,9.35-8.55,1.37,7.05,2.65,14.66,4.35,22.19s3.84,14.92,5.13,22.75c-6-4.06-10.21-9.91-16-13.93-1,2.27-1,2.26.4,3.64l12.43,12.17c-2.17,5.9-6.26,11.31-12.92,17.26-6-2.17-10.56-7.36-16.64-10.12-1.37,2.1-.79,3,1.08,4,4.79,2.61,9.44,5.49,14.36,8.39-5,8.76-9.62,16.83-14.1,25-1,1.82-2,2.41-3.93,1.75-4.19-1.42-8.41-2.72-12.6-4.13-1.71-.58-3.28-1.13-3.76,1.86,4.44,1.36,8.9,2.76,13.38,4.08,3.15.93,3.83,1.9,2.44,4.52-4.92,9.26-9.94,18.47-14.91,27.66-5.82.37-9.8-6.65-16.17-3.14l14.3,6.77-8.25,25c-5.89-.09-10.33-4.71-17.12-3.87,4.48,4.7,10.27,4.45,15.2,7.64l-7.36,28c-5.51.95-10-4.41-16.32-1.45C244,533.75,249.76,532.19,254,536.15Z"/><path class="cls-9" d="M582.87,46.22a29.05,29.05,0,0,1,2.89,1.66c8.63,6.42,17.75,12.18,27.86,15.76s20.77,6.38,31.3,9c12.14,3.07,24.36,5.94,36.65,8.3,14.08,2.7,28,6.63,42.66,5.39,3.8-.33,7.7.55,11.56.78C744,87.66,752,86,760,84.67c1.22-.21,2.46-.3,4.46-.55-17.58,32.16-30.52,65.56-43.07,99.62-6.21-.35-12.67-.28-19-1.17-12.41-1.74-25-3.2-37.06-6.26-18.92-4.77-38.28-8.22-56.39-15.8-10.86-4.53-22-8.44-31.91-15.09a32.6,32.6,0,0,1-4-2.83c-2.2-2-3.35-4-2.4-7.64,2.54-9.79,4.14-19.82,6.09-29.76.85-4.33,1.72-8.67,2.43-13,.47-2.91.78-5.85,1-8.8.78-11.75,1.49-23.5,2.25-35.26A11,11,0,0,1,582.87,46.22Zm42.67,37.06c-.07,4.48,2.22,4.09,4.78,3.56C630.3,83.47,628.37,83.15,625.54,83.28Zm35.39,50.42c.67,2.22,1,3.3,1.32,4.38l4.83-2.21Zm-61.84-5.63-.7,1.39,3.06,2.3c.62-1,1.28-1.92,1.82-2.92.09-.16-.33-.58-.69-1.16Zm-17.09-3,4.1-1.63-1.44-3.72C582.34,120.76,580.68,121.67,582,125.07Zm39.51,10c1.41,1,2.21,1.91,3.19,2.2.41.12,1.8-1.3,1.69-1.55a6.94,6.94,0,0,0-2.1-2.69C624.08,132.88,622.89,134,621.51,135.07Zm45.86-35-5.89,2.37C665.9,104.72,665.9,104.72,667.37,100Zm8.11-11.13c-1-2.13-1.67-3.81-4.08-3a1.52,1.52,0,0,0-.66,1.33C671.24,89.64,672.89,89.77,675.48,88.91ZM680,153.7c-.93.91-2,1.51-1.94,2a8.91,8.91,0,0,0,1.3,2.72c.78-.6,2-1.08,2.2-1.82S680.74,155,680,153.7Zm20.81-53.57,2.85,2.71c.54-.58,1.55-1.18,1.52-1.74A7.53,7.53,0,0,0,704,98.48Zm-52.53,57.36c-1.12-1-1.85-2.06-2.6-2.07s-1.48,1.09-2.22,1.7c.66.75,1.22,1.95,2,2.12S647.05,158.32,648.29,157.49Zm-.24-40.71c-.94-3.18-2-4.22-3.85-3.2-.48.27-.43,1.5-.62,2.29Zm55.41,40c.56-1.35,1-2.44,1.47-3.53-.93-.15-2.19-.76-2.73-.37C700.41,154.13,701.67,155.22,703.46,156.74ZM591,75.6c.93,1.61,1.92,2.67,3.51,1.4.5-.39.83-1.9.51-2.26C593.75,73.29,592.44,73.91,591,75.6Zm13.17,33.67,3.17-2.48c-.61-.59-1.22-1.68-1.82-1.67C603.48,105.13,603.26,106.49,604.18,109.27Zm117,16.42c-3.93-1.65-4-1.56-4,3.07Zm13.51-22.2c-3.31-.47-3.31-.47-3.95,2.49C732.75,106.68,734.08,106.24,734.66,103.49ZM622.15,101.8,621,102.88c.26,1.17-.26,2.92,2.09,2.58.54-.08,1-.72,1.48-1.1C623.73,103.51,622.94,102.65,622.15,101.8Zm98.66,59.39c-2.87-1.27-3.53-.05-3.64,1.45,0,.43.91.93,1.4,1.4Zm-108.28-8.92c-1.11.77-2.16,1.11-2.31,1.69s.57,1.41.91,2.13c.69-.39,1.69-.62,2-1.21S612.85,153.48,612.53,152.27Zm69.75-31.12.15,1.26,2.73.37c.09-1,.18-1.9.33-3.42Zm49.52,10c-.64,1-1.32,1.6-1.34,2.23,0,.44.87.9,1.36,1.35a8.06,8.06,0,0,0,1.45-1.9C733.37,132.56,732.53,131.94,731.8,131.13ZM753,97.35c-.54,1.13-1,1.67-1,2.2,0,.35.89,1,1.06,1a2.79,2.79,0,0,0,1.38-1.35C754.55,98.87,753.77,98.28,753,97.35Z"/><path class="cls-8" d="M739.62,181.62c1.82,3.14,3.62,5.9,5.07,8.83a7.89,7.89,0,0,1,.19,7.48c-.93,1.79-1.66,3.68-2.48,5.53-3.14,7.08-9.27,9.47-16.32,10.58-17.26,2.74-34.22-.51-51.23-2.5-4-.47-7.79-2.2-11.69-3.29-10.12-2.85-20.29-5.51-30.36-8.53-9.72-2.92-19.31-6.27-29-9.29-6.15-1.93-12.51-3.25-18.54-5.47-13.16-4.85-25.76-10.81-36.77-19.72-8.44-6.83-8.84-18.57-.65-25.78,3.36-3,6.11-7,11.46-7.31,2.15,9.68,10,14.43,17.62,18.64,18.29,10.09,37.47,18.11,58.05,22.56,10.09,2.18,19.91,5.72,30,7.52,16.49,2.93,32.84,7.18,49.81,6.71,4.76-.14,9.52,0,14.27,0C733.41,187.53,736.66,185.39,739.62,181.62Z"/><path class="cls-10" d="M763.73,79.38c-3.51.9-5.77,1.87-8.08,2-9,.52-17.93,1.25-27,.17-4.12-.5-8.38.22-12.57.11a91.91,91.91,0,0,1-13.18-1c-9.6-1.66-19.18-3.51-28.67-5.68-15.22-3.48-30.45-6.94-45.5-11.06-12.61-3.45-24.87-8-35.23-16.49a110.11,110.11,0,0,0-9.28-6.25c.27-3.48,3-3.33,4.62-3.54,14.44-1.84,28.9-3.94,43.5-2.38,10.61,1.13,21.28,2.12,31.72,4.21A460.54,460.54,0,0,1,715.25,53c15.29,5,29,12.64,42,21.9C759,76.18,760.82,77.38,763.73,79.38ZM655,42.12l-4.55-1.9C650.72,44.51,650.72,44.51,655,42.12ZM631.2,56.51c1.33,2.35,2.65,2.5,3.87,1.3.36-.35-.13-1.57-.24-2.39ZM736.13,76.36c-.28-1.7-1-2.78-2.88-2.09a1.51,1.51,0,0,0-.59,1.34C733.38,77.38,734.58,77.54,736.13,76.36ZM613.77,45.18c-1.24,2.88-.26,3.72,2.16,3.31.41-.06.75-.51,1.64-1.17Zm58,17.35c-.89,1.09-1.78,1.72-1.75,2.29s1,1.19,1.68,1.4c.31.1,1.33-.75,1.31-1.12C673,64.4,672.41,63.73,671.79,62.53Zm40.7,4.15c-1.47,3.75-1.47,3.75,1.69,3.76ZM692.71,53c-1.21-.67-1.8-1.26-2.32-1.21s-1,.75-1.46,1.16c.49.38,1,1,1.48,1.07S691.5,53.59,692.71,53Z"/><path class="cls-8" d="M283.43,843.48c-2.59.95-4.49,1.11-6.34-.83-8.4-8.81-16.93-17.5-25.26-26.39-1.25-1.34-1.66-3.49-2.56-5.52l13.4-3.14c6.27-1.46,7-1.05,9,5.28-2.06.9-4.14,1.77-6.16,2.76-.17.09.08,1,.16,1.88h7.6l3.4,9.08-6.46,2.62c2.37,3.23,4.92.53,7.68,1.57Z"/><path class="cls-8" d="M443.36,297.31c-3.37-1.8-3-6.95-8.57-6.13,2,2.94,3.57,5.28,5.55,8.19l-9.9,6.41L424.8,291.4l23.11-5c1.44-.3,2.89-.55,4.33-.88,4.58-1.06,4.75-1,6.75,4.49Z"/><path class="cls-8" d="M475.54,284l-13,4.86-2.25-5.12c4.11-1.23,7.76-2.26,11.36-3.44C474.6,279.34,475.21,281,475.54,284Z"/><path class="cls-8" d="M495.91,276.37c-5.27,1.82-10.52,3.7-15.83,5.36-.58.19-1.56-.89-2.52-1.49C482.59,276.85,487.63,275.52,495.91,276.37Z"/><path class="cls-11" d="M727.39,182.33c.63-2.79,1.27-5.59,2-8.59.75.32,1.36.4,1.67.74,1.5,1.67,5,2.23,4,5.26s-4.42,2.49-6.7,3.7Z"/><path class="cls-12" d="M290.49,856.13l-8-7.72C286.63,848,289.42,850.75,290.49,856.13Z"/><path class="cls-11" d="M566.34,130.07c-.23,1-.45,1.92-.67,2.88l-1.22-.31.78-2.85Z"/><path d="M625.54,83.28c2.83-.13,4.76.19,4.78,3.56C627.76,87.37,625.47,87.76,625.54,83.28Z"/><path d="M660.93,133.7l6.15,2.17-4.83,2.21C661.92,137,661.6,135.92,660.93,133.7Z"/><path d="M599.09,128.07l3.49-.39c.36.58.78,1,.69,1.16-.54,1-1.2,1.95-1.82,2.92l-3.06-2.3Z"/><path d="M582,125.07c-1.32-3.4.34-4.31,2.66-5.35l1.44,3.72Z"/><path d="M621.51,135.07c1.38-1,2.57-2.19,2.78-2a6.94,6.94,0,0,1,2.1,2.69c.11.25-1.28,1.67-1.69,1.55C623.72,137,622.92,136.1,621.51,135.07Z"/><path d="M667.37,100c-1.47,4.68-1.47,4.68-5.89,2.37Z"/><path d="M675.48,88.91c-2.59.86-4.24.73-4.74-1.7a1.52,1.52,0,0,1,.66-1.33C673.81,85.1,674.53,86.78,675.48,88.91Z"/><path d="M680,153.7c.73,1.26,1.72,2.21,1.56,2.88s-1.42,1.22-2.2,1.82a8.91,8.91,0,0,1-1.3-2.72C678,155.21,679.08,154.61,680,153.7Z"/><path d="M700.82,100.13,704,98.48a7.53,7.53,0,0,1,1.21,2.62c0,.56-1,1.16-1.52,1.74Z"/><path d="M648.29,157.49c-1.24.83-2.16,1.89-2.81,1.75s-1.35-1.37-2-2.12c.74-.61,1.49-1.71,2.22-1.7S647.17,156.53,648.29,157.49Z"/><path d="M648.05,116.78l-4.47-.91c.19-.79.14-2,.62-2.29C646.08,112.56,647.11,113.6,648.05,116.78Z"/><path d="M703.46,156.74c-1.79-1.52-3.05-2.61-1.26-3.9.54-.39,1.8.22,2.73.37C704.47,154.3,704,155.39,703.46,156.74Z"/><path d="M591,75.6c1.43-1.69,2.74-2.31,4-.86.32.36,0,1.87-.51,2.26C592.93,78.27,591.94,77.21,591,75.6Z"/><path d="M604.18,109.27c-.92-2.78-.7-4.14,1.35-4.15.6,0,1.21,1.08,1.82,1.67Z"/><path d="M721.15,125.69l-4,3.07C717.1,124.13,717.22,124,721.15,125.69Z"/><path d="M734.66,103.49c-.58,2.75-1.91,3.19-3.95,2.49C731.35,103,731.35,103,734.66,103.49Z"/><path d="M622.15,101.8c.79.85,1.58,1.71,2.38,2.56-.49.38-.94,1-1.48,1.1-2.35.34-1.83-1.41-2.09-2.58Z"/><path d="M720.81,161.19,718.57,164c-.49-.47-1.43-1-1.4-1.4C717.28,161.14,717.94,159.92,720.81,161.19Z"/><path d="M612.53,152.27c.32,1.21.86,2.12.6,2.61s-1.31.82-2,1.21c-.34-.72-1.07-1.54-.91-2.13S611.42,153,612.53,152.27Z"/><path d="M682.28,121.15l3.21-1.79c-.15,1.52-.24,2.47-.33,3.42l-2.73-.37Z"/><path d="M731.8,131.13c.73.81,1.57,1.43,1.47,1.68a8.06,8.06,0,0,1-1.45,1.9c-.49-.45-1.37-.91-1.36-1.35C730.48,132.73,731.16,132.13,731.8,131.13Z"/><path d="M753,97.35c.78.93,1.56,1.52,1.46,1.81a2.79,2.79,0,0,1-1.38,1.35c-.17.09-1.05-.61-1.06-1C752,99,752.45,98.48,753,97.35Z"/><path d="M655,42.12c-4.3,2.39-4.3,2.39-4.55-1.9Z"/><path d="M631.2,56.51l3.63-1.09c.11.82.6,2,.24,2.39C633.85,59,632.53,58.86,631.2,56.51Z"/><path d="M736.13,76.36c-1.55,1.18-2.75,1-3.47-.75a1.51,1.51,0,0,1,.59-1.34C735.14,73.58,735.85,74.66,736.13,76.36Z"/><path d="M613.77,45.18l3.8,2.14c-.89.66-1.23,1.11-1.64,1.17C613.51,48.9,612.53,48.06,613.77,45.18Z"/><path d="M671.79,62.53c.62,1.2,1.19,1.87,1.24,2.57,0,.37-1,1.22-1.31,1.12-.68-.21-1.65-.87-1.68-1.4S670.9,63.62,671.79,62.53Z"/><path d="M712.49,66.68l1.69,3.76C711,70.43,711,70.43,712.49,66.68Z"/><path d="M692.71,53c-1.21.57-1.79,1.08-2.3,1s-1-.69-1.48-1.07c.49-.41.94-1.11,1.46-1.16S691.5,52.35,692.71,53Z"/></svg>