<svg id="Calque_1" data-name="Calque 1" xmlns="http://www.w3.org/2000/svg" xmlns:xlink="http://www.w3.org/1999/xlink" viewBox="0 0 1000 1000"><defs><style>.cls-1{fill:#fdf1ba;}.cls-2{fill:red;}.cls-3{fill:#fff;}.cls-4{fill:#998675;}.cls-5{fill:#754c24;}.cls-6{fill:url(#Dégradé_sans_nom_6);}.cls-7{fill:url(#Dégradé_sans_nom_6-2);}.cls-8{fill:#39b54a;}.cls-9{fill:#603813;}.cls-10{fill:#006837;}.cls-11{fill:url(#Dégradé_sans_nom_6-3);}.cls-12{fill:url(#Dégradé_sans_nom_6-4);}.cls-13{fill:#736357;}.cls-14{fill:#a67c52;}.cls-15{fill:#ed1e79;}.cls-16{fill:#ff0;}</style><linearGradient id="Dégradé_sans_nom_6" x1="292.25" y1="344.03" x2="358.7" y2="344.03" gradientUnits="userSpaceOnUse"><stop offset="0" stop-color="#f7931e"/><stop offset="1" stop-color="#fcee21"/></linearGradient><linearGradient id="Dégradé_sans_nom_6-2" x1="186.78" y1="247.42" x2="239.55" y2="247.42" xlink:href="#Dégradé_sans_nom_6"/><linearGradient id="Dégradé_sans_nom_6-3" x1="320.38" y1="188.38" x2="384.17" y2="188.38" xlink:href="#Dégradé_sans_nom_6"/><linearGradient id="Dégradé_sans_nom_6-4" x1="258.8" y1="218.93" x2="290.32" y2="218.93" xlink:href="#Dégradé_sans_nom_6"/></defs><title>astérix et idéfix</title><path d="M396.18,471.41c5.23-5,10.12-10.43,15.79-14.87,6-4.67,12.67-8.45,19.13-12.5a11.63,11.63,0,0,1,5.26-2.13c2.82-.12,6.45-.37,8.32,1.17,2.75,2.25,2.05,6.22-.1,8.94a131.5,131.5,0,0,1-11.8,13.36c-3.87,3.75-8.36,6.86-12.5,10.19.15.7.11,1.5.38,1.62,7.42,3.45,10.1,9.17,9,17.21-.4,2.89.26,6,.73,8.92.82,5.21,1,10.1-2.06,14.94-1.47,2.29-1.81,5.61-1.83,8.47-.08,12.15-8.73,21.68-21.17,22.72-7.71.66-15.4.15-22.59-2.87-9.78-4.1-19.52-8.35-29-13-12.15-6-25.13-8.5-38.28-10.79-1.65,14.56,15.31,98.74,21.53,108.76,6.73-1.66,13.25-4.57,19.76-4.54,7.9,0,15.25.2,22.59-3.6a12,12,0,0,1,13.17,1.69c3.58,3.09,7.38,2.75,11.48,2.87a19.7,19.7,0,0,1,8.55,1.94c4.47,2.41,4.69,5.2,1.52,9.35-5.71,7.47-14.37,10.62-22.17,15-3.76,2.11-7.6,4.09-13.1,7,3.69.78,5.61,1.2,7.54,1.58,5.06,1,10.21,1.68,15.17,3,3.42.93,6.84,2.64,7,7,.2,4.12-1.44,7.86-5,9.72-3.26,1.7-7.12,2.45-10.81,3.08-1.75.3-3.76-.51-5.59-1-8.7-2.52-17.42-4-26.54-2.4-3.72.63-7.64.1-11.46.15-2.17,0-4.63-.47-6.46.35-10.14,4.59-19.77,1.46-29.46-1.42-1.77-.52-3.5-1.2-6.67-2.31,3.79,8.08,5.4,15.39,13.76,19.08,7.82,3.45,13.83,9.73,18,17.39,6.38,11.8,2.2,23.9-10.05,29.16a68.68,68.68,0,0,1-27.09,5.24c-19.68.15-38.55-3.67-56.78-10.43-14.15-5.26-26.8-13.14-37.22-24.55-5.35-5.86-7.33-13.29-11.31-19.74-.69-1.11,0-3.1.16-4.69.19-2.62.43-5.25.71-8.75-4.68,1.63-8.31,2.74-11.83,4.14-15.06,6-30.54,7.89-46.52,4.86-11.77-2.24-21.74-7.14-26.93-18.89-1.53-3.48-3.65-6.71-5.07-10.23-3.41-8.44-1.69-15.14,6.25-19.37,6.42-3.42,13.59-5.59,20.62-7.65,8.6-2.51,17.46-3.93,25.45-8.55,4.68-2.72,7.66-5.87,8-11.32a30.11,30.11,0,0,1,.89-4.21c-2.38-.6-4.71-1.27-7.08-1.78-9.73-2.1-18.59-5.57-26.27-12.45-5.21-4.67-11.77-7.86-17.82-11.55a15.54,15.54,0,0,0-4.58-1.3,50.89,50.89,0,0,1-5.57-1.15c-8.86-3.13-10.27-8.6-3.92-16.19-.82-2.9-1.81-6-2.55-9.14-1.89-8-.75-16,2-23.37,4.25-11.49,9.21-22.78,18.2-31.72a14.47,14.47,0,0,0,4-7.63c2.73-18.75,8.5-36.6,15.18-54.23q3.35-8.81,6.05-17.83A193.88,193.88,0,0,1,164.62,379c5.28-8.9,9.35-18.52,14.62-27.44A288.34,288.34,0,0,1,215.45,303a4.69,4.69,0,0,0,.82-1.17L198.18,266c-5.58,9.55-3.64,20.09-.49,31.05-6.13-3-7-5.58-10.91-23.38-1.9-8.68-1.28-17.1.92-26.72l-14.23,9.24c.74-7.49,5.25-11.26,8.45-15.63s6.89-8.29,11.35-13.59l-20.86,2.11c6.81-13.1,20.78-10.45,32.78-16.07l-19.73-6.89c12.35-3.82,23.35,1.11,34.84,4.39,1.31-12.88,3.8-24.92,10.36-35.59l2.14.28a26.22,26.22,0,0,1,.45,4.88c-.51,5.39-1.42,10.75-1.77,16.16-.13,2,.87,4,1.8,6,2.07-20.15,10.55-37.67,21-54.85-9,0-17.85.26-26.63-.08a148.58,148.58,0,0,1-21.81-2.1c-5.87-1.1-7.35-4.25-7-11.26-6-1.08-12.18-1.64-18-3.4-9.09-2.72-18-6.16-26.85-9.54a9.83,9.83,0,0,1-4.23-3.61c-2.38-3.47-1.4-6.49,2.71-7.49,3.61-.87,7.45-.8,12.58-1.27-5.1-2.69-9.31-4.45-13-7-5.58-3.84-10.82-8.17-16.15-12.37-2.21-1.74-4.36-3.83-2.59-6.91,1.62-2.81,4.28-2.92,7.18-1.89.95.34,2.13.06,3.76.06-5-4.64-9.95-8.75-14.35-13.36a38.9,38.9,0,0,1-7-9.92c-1.69-3.56.09-6.21,4-5.92a86.72,86.72,0,0,1,16,2.85,132.76,132.76,0,0,1,17.82,6.1c19.89,8.58,41,10.88,62.26,12.73a150.38,150.38,0,0,0,15.44.71c4.87-.07,9.73-.75,16.17-1.29-4.3-2-7.41-3.25-10.4-4.77a60.4,60.4,0,0,1-8.51-4.86c-5.12-3.77-4.71-6.05,1.25-9a12.91,12.91,0,0,0,1.72-1.12C233,48.4,227.19,44,221.45,39.51a15,15,0,0,1-3.78-4.2c-2.29-4.06-1.53-6.19,3.47-10.35L209.64,8.42c3-3.95,6.2-5,10.32-3.44,4.3,1.66,8.77,2.95,12.9,4.95Q249,17.75,265,26.09c10.08,5.31,21.19,6.8,32,9.53a341.41,341.41,0,0,1,35.25,10.5c17.14,6.35,26.16,20.29,29.78,37.33,3.52,16.58-3.64,29.89-18.51,38.1a24.43,24.43,0,0,0-2.19,1.55c16.63,8,29.69,19.45,38.88,36.65,7-18.24,13.47-35.5,28.72-47.26-7,10.12-15.53,19.35-19.05,33.52,11-10.29,19.23-21.56,32.86-25.95-4.69,3.88-9.43,7.69-14.05,11.66a100.49,100.49,0,0,0-21.29,24.65c-1.38,2.31-1.87,4.1-1,6.8a44.58,44.58,0,0,1,1.72,10.45,12.69,12.69,0,0,1-.85,6.36c-9.25,18.76-4.3,37.13,1.39,55.43,1.66,5.33,6.2,8.22,11.08,10.25a86.13,86.13,0,0,0,13.15,4.51c22.33,5.21,31.3,37.47,18.49,54.13a56,56,0,0,1-15,13.69c-11,6.64-22.95,11.94-36.34,9.58-5.76-1-11.21-3.85-16.16-5.63l-23.92,30.91,9.39,5.59c-3.49,5.23-6.28,9.86-9.53,14.15-4.5,5.94-7.82,6.7-15,3.93-3-1.18-6-2.61-9.1-4-2.15,1.76-4.27,3.47-6.36,5.21-4.72,4-6.39,8.28-5.41,15,1.79,12.36,1.37,25,2.47,37.49,1.45,16.57,3.45,33.09,5.29,49.62.36,3.26,1.8,5.24,5.64,5.71,8.37,1,16.65,2.7,25,4.09,4.12.69,7.18-.53,9.94-4a116.66,116.66,0,0,1,14.32-15.62c7.27-6.31,16.2-5.91,24.89-3.48,1.92.53,3.21,3.26,4.77,4.95-13.37-7-21.63-5.75-32.25,4.89-2.68,2.68-5.56,5.38-7.4,8.61-4.15,7.31-10.38,9.23-18,7.83-15.79-2.91-31.56-5.89-47.28-9.15-13.07-2.72-26-6.24-39.55-3.49-.36.07-.85-.54-1.61-1,3.89-4.72,10.36-1.79,13.93-4.23-.59-10.83-1.64-20.89-1.57-30.94.16-19.91,1-39.82,1.47-59.73.27-10.68-.33-21.33-3.32-31.62-2.4-8.21-5.94-15.94-14.27-20-7-3.44-12.45-1.62-15.15,5.63-2.28,6.11-4.6,12.45-5.3,18.86-2.44,22.21-4.64,44.48-6,66.78-.71,11.67,0,23.5,1,35.18,1.1,13,3.13,26,8.48,38.19s13.72,19,27.67,19c13.34,0,26.69,1.36,40,1.43a146.87,146.87,0,0,1,52.66,10.07c8.62,3.34,16.76,7.89,25.19,11.74,9.28,4.24,18.9,7.06,29.28,6.18,8.68-.73,16.52-4.83,17.73-13.15s4.14-16.47,4.84-24.87c.47-5.63-.36-11.39-.72-17.08-.28-4.47-2.34-7.7-6.7-9.33-1.93-.72-3.74-1.73-6.21-2.91l23-20.87-9.59-7.06c-10.51,7-21.37,14.21-30.26,24-2.93,3.22-5.87,6.44-9,9.47-.85.83-2.37,1-3.59,1.42l-1.09-1.61ZM234.68,622.25c.5-3.14,1-6.28,1.72-10.84-5.08,4.51-1.25,7.85-1.63,11.1-2.46-1-5.1-1.45-5.74-4.93-1.34-7.2,5.28-8.61,9-12.27-1.73-4.86-3.27-9.4-8.3-11.36-15,10.34-16.29,40.23-2.14,53.4C231.6,639.35,233.05,630.81,234.68,622.25Zm173,12.83c-1.24.17-3,.95-3.63.41-5.16-4.21-10.66-3.16-16.21-1.42-3.87,1.21-7.63,2.78-11.51,3.94-1.19.35-2.63-.13-5.42-.35,6.21-5.73,13.34-5.85,19.7-9.19-4.32-3.43-8.33-2.69-11.95-1-6.33,3-12.52,6.43-18.59,10-2.95,1.74-5.76,2.55-9,1.45h.15l9.45-7.17c-10.25-1.66-15.17-.24-21.22,5.85l9.22,16.86c-2.93-.79-5-.75-5.45-1.57-3.8-7.23-8.55-14.26-10.66-22-5.49-20.21-10.13-40.67-14.42-61.17-2.91-13.87-4.65-28-6.9-42-1-6.29-1.62-6.67-7.72-4.4a61.12,61.12,0,0,1,2.58,29,180.38,180.38,0,0,1-5.22,24.59c-1.29,4.48-.27,7.53,1.83,11.4,6.87,12.71,13.5,25.58,19.49,38.72a64.47,64.47,0,0,1,5.91,30.24c-.26,5.21-1.56,9.59-5.82,12.83-2.87,2.18-5.68,4.43-8.76,6.85,10.94,4.42,15.12,4.91,23.95,3-7.22-6.06-7.22-6.06-6.57-10.25,8.44,8.3,18.75,10.46,29.61,8.87,10.57-1.54,20.55.2,30.57,2.95a8.33,8.33,0,0,0,1.82,0c-1.2-3.09-4.57-6.32.48-8.92.15,6.58.15,6.58,6.16,7,.82-6.72.63-6.92-6.47-6.77l7.4-3.86c-13.95-3.14-27.6-3-40-8.71,2.68-1,5.18-.66,7.69-.58,2.09.06,4.55.55,6.2-.34q14.77-8,29.17-16.64c2.73-1.64,4.82-4.34,8.23-7.51-2.72,0-3.52,0-4.27,0l2.18-3.59-7.37.48ZM278.07,260.9l-1.94-.17c-.7-5-1.32-10-2.1-15-1.49-9.56-1.69-10-5.15-14.21-2.64,20.36-3.3,22.43-8.29,24.54,0-4.29.22-8.38-.06-12.43s-1-8.11-1.62-12.15c-1.87-12.22-14.47-18.32-25.26-12.35-6.55,3.63-9.18,9.91-11.12,16.49-2.63,8.94,3,19.14,11.86,21.08,7.17,1.56,14.55,2.13,22.11,3.17-.1-.27.09,0,.07.23,0,.54-.22,1.07-.29,1.61-1.63,14.11-.54,27.68,11.39,37.33,8.9,7.21,14.46,16.08,17.89,26.77,1.92,6,4.53,11.74,7.06,18.18,3.87-8.62,6.48-16.78,11-23.73,4.61-7.14,11.05-13.09,16.74-19.63l-17-4.57-2.66,7.2c-2.76-7.06,0-13.13,7.39-17.79.21-.14.87.41,1.72.85L307.19,292a21.75,21.75,0,0,0,16.4,4.43c11.41-1.59,16.54-7.7,13.57-18.43-3.3-11.91-11.35-18.91-23.62-21-1.79-.29-3.53-.91-5.29-1.37.14-.76.27-1.51.41-2.27l13.14.94q-1.43-4.31-2.87-8.59c2.15-.19,3.2.16,3.68.89,3.62,5.4,6.42,11.56,10.83,16.18,7.19,7.51,9.39,16.21,7.15,25.6-1.43,6,.58,9.7,4.07,13.72,8.14,9.39,19.06,14.33,29.92,19.58,7.12,3.44,14.32,3.6,21.56,1.69,5.51-1.45,11.18-3.25,16-6.18,12.54-7.65,23.21-16.87,21.11-33.85-1.76-14.18-8.34-24.6-22.43-29.33-3.62-1.22-7.19-2.63-10.83-3.78-8.4-2.65-14.37-7.85-16.54-16.52a149.51,149.51,0,0,1-4.24-21.57c-.72-7.42-.16-15-.16-23.28-12.48,5.2-25.24,3.62-36.3,10.26-10.65,6.38-20.47,13.14-26.51,24.43-3-3.37-2.94-3.36,1.8-18.71,2-6.59,4-13.2,6.07-20.28-11.94.85-21.17,6.65-30.51,11.6.38,9.17,1,17.85,1,26.53s.36,17.59-4,26c-3.56-8.69-1.76-18.83-8.7-27.89,0,8,.42,14.74-.12,21.38C281.32,248.48,281.18,255.14,278.07,260.9Zm-67,253c-.51,8.65-.54,16.55-1.52,24.32-2.55,20.31-9.21,38.72-25.6,52.35-1.6,1.33-2.67,3.31-3.88,5.07-3,4.34-8.36,6.95-12.65,4.46-7.34-4.26-14.5-.71-21.75-1,10.62,6.31,22,8.93,34.14,6.72,11.45-2.08,21.66-7.24,31.38-13.49,10.32-6.64,20.6-13.37,32.84-16.15,2.35-.53,4.54-1.39,7.15,1.77-7.55,3.59-16.18,3-22.29,9.34l8.82,7c.65-3.65,1.13-6.33,1.91-10.68,1.56,2.54,2.91,3.71,2.88,4.85-.15,6.81-.11,13.7-1.06,20.43-2.75,19.48-8.74,38.18-14.69,56.86a43.17,43.17,0,0,0-1,5.7c12.09,6.41,24.4,7.76,37.29,5.58,2.46-8,4.72-15.54,7.13-23,3.51-10.91,6.36-22.11,10.88-32.59,9-20.87,16.2-42.28,19.95-64.61,1.55-9.24.42-19.07-.51-28.52-.59-6-1.85-6.23-8.19-6.58-13.62-.73-27.24-1.47-40.86-2.3-5.81-.35-11.35-1.91-15.61-6-3.59-3.47-7.81-3.88-12.13-3.07C219.27,511.08,214.94,512.73,211.11,513.85Zm79.12-377.63c-1.87,1.71-2.24,2.34-2.63,2.35-11,.22-21.71-.92-32.15-4.61a30.47,30.47,0,0,0-9.39-1.32c-3-.07-6,.73-8.95.81-9,.24-18.05.33-27.07.43-3.29,0-6.75-.39-8.38,4.79,2.2,1.36,4.45,3.66,7.06,4.17a84.28,84.28,0,0,0,17.05,1.7c10.07-.1,20.13-1.32,30.19-1.19,7,.09,14,1.67,21,2.54,2.31.29,4.63.58,6.94.64,4,.1,8.17-.7,11.93.24s6.48.46,8.69-2.33a39.11,39.11,0,0,0,5.2-8.13c3.2-7.19,2.7-14.77,2.07-22.44a34.38,34.38,0,0,0-14.05-25.74c-11.13-8.5-24-11.42-37.62-11.64-9.26-.15-18.61,1.54-27.79.81-24.21-1.93-48.41-4.25-71.36-13.3-8.12-3.2-16.5-5.75-24.86-8.27-2.85-.86-6-2.12-9.26-.48,6,12.11,15.59,19.81,26.54,26.23,8.45,5,18.19,5.16,27.27,7.66C201.91,95,224,92.76,245.68,93.87c7.79.4,15.68-.21,23.4.72,7,.83,13.77,3,20.6,4.85,2.08.55,4,1.77,3.28,4.8a68.69,68.69,0,0,0-33.83-7c-4,.18-8.09.56-10.55,4.85,1.95,3.76,5.16,5.12,8.75,5.47,11.38,1.12,22.78,2,34.16,3.07a44.6,44.6,0,0,1,4.69.91c-9.31,3-18.41,2.74-27.52,1.4-11.12-1.65-22-1.93-33.93,4.94,3.55,1.34,5.57,2.49,7.71,2.84,15.61,2.55,31.25,4.6,47,.91,2-.46,4.21-1.92,5.38,2a46.65,46.65,0,0,1-6.3,1.41c-7.87.68-15.75,1.21-23.63,1.74-2.91.19-6.1-.37-8.05,4.7C267.46,134.71,278.18,135.68,290.23,136.22Zm-34.48,81.41a49,49,0,0,0,4.67-3.16c11.06-9.46,23.71-16.43,36.25-23.64,13.51-7.77,29.76-9.07,42.58-18.36a4,4,0,0,1,1.53-.56c6.93-1.38,13.86-2.72,20.79-4.11,5.21-1,10.4-2.15,15.71-3.24-7.64-21.4-43-46.47-60.36-43.28-.79,12.12-4.81,22.73-15.35,29.56,2.1,8.89,1.3,14.1-3,17-4.74,3.28-10,4.6-15.45,1.75-8.36-4.36-6.91-11.9-5.52-19.27-2.85-1.18-5.27-2.58-7.88-3.18-5.14-1.18-9.74-1.45-13.42,4.14A120.47,120.47,0,0,0,240.42,186c-2.5,9.1-3.28,18.44-4.54,28.72C243.87,211.16,249.47,215.62,255.75,217.63Zm-49.2,489.44c2.35,3,3.69,5.07,5.32,6.83,13.43,14.49,30.55,22.43,49.33,27.14,7.87,2,15.89,3.94,23.94,4.48,13.48.91,26.88,2.15,40.29-3.11,11.39-4.46,15.81-14.62,9.22-26.28-4.2-7.43-11.06-11.81-18-16.09-1.36-.84-4-1.2-5.19-.44-4,2.58-7.87,1.36-11.77.2-7.56-2.26-15-5-23.13-4.07-5.13.57-10.32.88-15.39,1.8-6.39,1.16-13.57,1.38-18.84,4.58C231.29,708.86,220.39,712.45,206.55,707.07Zm-96.92-46.13c2.43,4.2,4.64,7.62,6.45,11.23a25.8,25.8,0,0,0,12.09,11.71c11.48,5.68,23.77,6.25,35.88,3.91,11.38-2.21,22.42-6.18,33.26-9.27,1-3.88,2-6.74,2.34-9.69,1-8.75,6.75-13.32,14.15-16.44,2.65-1.12,5.46-1.87,7.23-2.46-2.5-6.91-4.34-13.44-7.21-19.48s-8.52-11-9.8-18.65c6.12,0,4.32,6.82,8.58,8.31,1.55-11.05,4.12-21.68,12.69-30-9.33,2.7-16.55,9.08-25,12.71-8.91,3.8-18.4,6.24-28.38,9.52a33.78,33.78,0,0,0-1,21.55c2.2,7.35,6.61,14,10.52,22-11.14,3.75-22.22,8.37-33.75,11.12C134.8,670,122.54,664.78,109.63,660.94ZM217.45,7.83l-1,1.94c6.73,11.59,16.65,20.21,28.13,26.5a199.06,199.06,0,0,0,47,18.78c12.42,3.12,25.77,2.84,37,10.61,4.45,3.08,9.82,4.81,14.42,7.71,2.36,1.49,5.83,3.27,4.07,7.64-11.5-9.51-19.37-13.29-25-12.19,6.13,11.25,16.78,17.68,27.08,24.78C333.7,89,322.26,75.12,304.86,75.68c11.55,10.32,25.52,16.81,38.48,25.14-1.69.59-3.28.87-4.53.34-5-2.11-9.88-4.62-14.92-6.7a42.55,42.55,0,0,0-8.62-2.4c-1.08-.19-3.15.52-3.37,1.24-.39,1.32-.27,3.42.57,4.36,1.41,1.56,3.51,2.54,5.39,3.63,4.09,2.37,8.23,4.65,13.38,7.55-4.24,1.58-6.24-.7-8.51-1.59-2.44-1-4.8-2.07-8.05-3.49.77,4.86,1.4,8.75,1.86,11.66,5.61,1.52,10.28,2.85,15,4a13.29,13.29,0,0,0,5.51.6c11.17-2.26,21.23-14.23,21.84-25.7.93-17.16-12-38.42-28.15-44.52-10.93-4.12-22.37-6.93-33.64-10.09-9.7-2.72-19.92-4-29.13-7.89-13.79-5.75-26.87-13.2-40.31-19.81C224.36,10.4,220.86,9.22,217.45,7.83Zm61.23,468.65c10,2.91,19.06,6.22,29.14,6.46a76.18,76.18,0,0,0,0-7.92c-1.42-13-3.22-25.91-4.4-38.91-1-11.4-1.33-22.87-2.12-34.3-.25-3.56-1-7.08-1.65-11-7.29,5.11-6.72,13.31-11,20.79,0-8-.17-14.07,0-20.15.32-9.79-.29-19.82,1.67-29.29,2.22-10.71-3-18.84-6.12-29.27-1.05,3.36-1.88,5.37-2.3,7.45q-5.38,26.79-10.61,53.62a37.56,37.56,0,0,0-.83,9.66c.92,12.77,1.87,25.54,3.31,38.25C275.06,453.43,277,465,278.68,476.48Zm54-179.67c-2.61,1.84-6,4-9.12,6.47-10.19,8.08-18.85,17.45-22.68,30.21-2.73,9.11-5.57,18.3-6.94,27.67-1.45,9.95-1.23,20.15-1.73,30.08,8.76-8.67,17-17.25,25.72-25.37,9.15-8.55,19-16.3,28-25.09A54.62,54.62,0,0,0,358.7,320.5ZM298.12,587c-9,24.63-18.88,47.2-24.71,70.92l33.19,18.2c4.35-2.78,9.74-5.87,14.66-9.57a9,9,0,0,0,3.05-6.19c.13-5.66.19-11.5-1-17C319.07,623.41,308.94,606,298.12,587Zm-71.44,65.21c-3.81.88-5.92,1.32-8,1.85-7.75,2-13.12,6.28-14.58,14.63-1.26,7.24-3.21,14.38-4,21.66a12.84,12.84,0,0,0,2.94,8.81C210,707,222.85,709.68,231.34,704c9.54-6.33,20.07-8.29,30.82-9.91,12.7-1.91,25.44-3.41,37.83,2.17,2.41,1.08,5.46.72,8.36,1.05-.33-17-17.71-30.24-37.21-33.92-1,4.07-1.94,8.17-2.83,12l5.86,2.11c-16.65,9.56-54.76,1.3-60.23-13.12l8.12,3.36ZM220.9,298.59c-1-10.85-3.66-20.27-2.75-31.42,10.77,6.64,11.94,17.16,15.16,27.45,5.19-11.24,7.6-21.83,5.47-33.29-3-.79-5.67-1.28-8.19-2.19-8.66-3.15-15-13.91-12.38-22.3,2-6.43,4.23-13,9.76-17.72,1.42-1.21,2.8-3.66,2.6-5.36-.67-5.88-2-11.68-3.15-17.5h-1.06l-3,18.07c-2.67.34-6.56.23-6.73,1-1.15,5-4.65,4-7.74,3.37-7.09-1.36-13.54.55-20.69,3,5.74,2.51,12.32-1.79,17,4.6l-10.77,6.19c-3.7,2.12-6.53,4.87-7.65,9.53,6-.63,7.4-8,14.65-7.82-11.51,11.55-14.05,24.49-11.06,39.61,4.55-5.34,2.8-14,10.45-17C204.19,272.35,209.44,286.3,220.9,298.59Zm-57.67,249,15.29,41.3c21.17-9.29,31.41-51.58,26.69-71C191.65,528.24,176.21,535.43,163.23,547.56ZM140,85.21c6,9.46,14.3,13.22,22.45,16.46,27.54,11,55.42,20,85.65,7.92-4.25-3.28-4.34-7.42-1.28-11.88-18.39-.91-36.11-.86-53.59-2.9S158.65,88.67,140,85.21Zm24.48,544.12c-8.29,2.71-16.78,5.57-25.32,8.25-4.15,1.3-8.55,1.91-12.59,3.47a62,62,0,0,0-13.08,6.48c-6.11,4.26-5.73,8.63,1.17,11.33,11.23,4.39,22.82,7.89,35,3.77,8.45-2.85,16.8-6,24.9-8.94C170.94,645,167.56,636.78,164.47,629.33Zm-57.26-66.2c8.07-5.79,16-11.42,23.88-17.16,9.32-6.81,9-6.79,6.54-18.17-2.11-9.72-3.52-19.59-5.33-29.93a20.3,20.3,0,0,0-4.39,2.14c-14.85,11.85-21.79,28.11-24.9,46.21A20.74,20.74,0,0,0,107.21,563.13Zm69.57,31.94c-3.8-10.44-7.47-20.35-11-30.31-6.77-19-13.67-37.93-16.17-58.08-.66-5.31-.71-10.69-1.08-16.63H138.07a11.79,11.79,0,0,0-.85,2.31c-.12,1.36-.1,2.72-.14,4.08-.45,14.95,2.87,29.16,7.94,43.13,6.2,17.11,10,35.08,18.49,51.39C166.94,597.57,168,598.18,176.78,595.07ZM383.19,166.92c-6.67,1.15-12.86,2.09-19,3.3-7.49,1.48-14.94,3.14-22.38,4.8a20.52,20.52,0,0,0-13.38,10.13c-4.23,7.24-5,15.59-8.06,24.7,7.89-5.16,14.05-9.57,20.57-13.37,8.4-4.9,17.92-6.06,27.33-7.92C384.47,185.37,385.64,180.82,383.19,166.92Zm-129-39,0-1.56c-2-.41-4-.79-6-1.23-4.5-1-9.77-.92-13.29-3.35-4.75-3.29-9.48-3-14.55-3.36-8.12-.51-16.22-1.36-24.31-2.2-12.13-1.25-24.24-2.69-36.38-3.89-2-.2-4.1.41-6.17.66-.52,4.44,2.34,6.11,5,7,8.69,3,17.36,6.53,26.34,8.25,18.57,3.55,37.45,2.12,56.22,1.68C245.46,129.85,249.81,128.62,254.17,127.91ZM153.6,492.05c-2.45,10.3,0,26.37,4.71,33.11l36.89-21.52C182.82,492.86,168.89,490,153.6,492.05ZM315,64.4c-2.37-.59-5-1.43-7.62-1.85-12.66-2-25.13-4.67-37-9.62-13.78-5.75-27.85-10.86-39.62-20.64-2.59-2.15-6.71-2.45-11.72-4.14,1.39,3.26,1.63,5.06,2.66,6,4.38,4,8.46,8.81,13.62,11.33A384.47,384.47,0,0,0,276.48,63.2C286.63,66.75,296.86,71,308,71.13c1.79,0,3.55,1.27,5.35,1.87,1.64.55,3.32,1,5.35,1.6C317.33,70.82,316.24,67.83,315,64.4ZM159.73,593.34l-12.35-33.72c-9.27,4.13-23.38,14.54-28.87,21.31C130.65,589.82,143.44,596.13,159.73,593.34Zm40.93-87.55c-14.95,6.86-29.73,14-42.39,25,1.39,4.22,2.64,8,4.1,12.41,4.33-3.15,7.95-6,11.73-8.5,8.79-5.91,17.77-11.54,26.46-17.59C206.31,513.09,206.15,511.42,200.66,505.79ZM142,543c-1.9,1.07-3.38,1.73-4.68,2.65Q122.42,556.26,107.6,567a19.14,19.14,0,0,0-3.61,3.29,5.22,5.22,0,0,0,1.49,8.23c3.5,2,6.7,1.17,9.79-1.12,4.59-3.39,9.29-6.63,13.86-10,5.62-4.18,11.15-8.46,16.93-12.86C144.62,550.37,143.37,546.85,142,543Zm102-279.57a61.56,61.56,0,0,1-.59,7.3c-1.16,5.56-2.57,11.07-3.85,16.6-1.53,6.62-.07,12.44,4.95,17.1,3.58,3.31,7.51,2.94,11.71.87-1.52-2.21-2.73-4-4-5.78s-2.61-3.58-3.92-5.36c7.93.69,9.85,8,15.17,11.56,5.09,3.38,9.16,8.3,15.05,13.82-2.83-8.94-8.52-13.13-13.6-17.37-9-7.48-12-17.07-12.49-28.05-.15-3.47,0-7,0-10.69ZM311.85,88C307.3,84.3,302,82.07,300.76,76c-.29-1.4-3.3-2.68-5.28-3.21-13.09-3.48-26.21-6.95-38.45-12.86-6.28-3-12.52-3.11-21.06-2.33,3.78,2.52,6,4.38,8.54,5.63a153.23,153.23,0,0,0,14.17,6.17c4.52,1.69,9.13,3.48,13.85,4.17a57.11,57.11,0,0,1,26.86,11c2.78,2.11,5.39,4.44,8.3,6.86ZM263.6,232c1.35-4.16,2.28-7,3.38-10.35,7.65,3.62,6.65,11.69,11.18,16.77.15-2.75.37-4.9.37-7,0-3.27-.22-6.54-.16-9.8.05-2.86-.89-6.51,3.21-7.34,3.7-.75,4,2.86,5.31,5.06l2.48,4.14c.48-8.08,2.34-15.93-1-24-5.74,3.6-10.9,6.56-15.76,10s-9.34,7.17-13.82,10.65C260.44,224.14,261.74,227.38,263.6,232Zm10.09,243c.72-10-1.89-19.71-3.15-29.52-1.28-10-1.21-20.27-4.12-30.07-.63,11.79-.89,23.5-.53,35.2.2,6.5,1.34,13,2.24,19.46C268.49,472.72,268.92,475.72,273.69,475ZM288.43,148.5c-5.88.14-9.64,3.67-9.52,8.91a10.83,10.83,0,0,0,11,10.66,9.72,9.72,0,0,0,9.79-9.78C299.7,151.81,295.68,148.32,288.43,148.5ZM319.91,369c11.43,7.6,16.31,6.28,21.26-5.56C333.66,362.87,325.54,359.68,319.91,369Zm-148,102.64,16.12,4.91c1.17-1.53,2.34-2.95,3.37-4.46.2-.29-.12-.94-.32-2.12L173,465.18a31.85,31.85,0,0,0-1,3.37A24.92,24.92,0,0,0,171.94,471.68Zm19.23,12.72c-9.92-8.77-20.15-11-27.2-6.12A76.37,76.37,0,0,0,191.17,484.4Zm-28.54,2.1,21.78,4.56c-.61-3.52-.58-3.62-13.09-6.94C168.36,483.34,164.49,481.09,162.63,486.5Zm60.68-207.62c-1.24,6.74.13,11.73,3.23,18.13C228.63,289.57,227.42,284.55,223.31,278.88ZM432.24,450.57c5.05,4.21,5.05,4.21,7.67-3.26Zm-91-91.62c-3.45-2.41-5.65-4.54-8.58,0Z"/><path d="M763.1,672.89l-16-16.84c-.15,9.86-1.39,17.91,2.09,26.47,3.58,8.81,1.56,18.07-5.37,25.09-2.19,2.22-6.16,3.3-9.45,3.67-3.93.43-8-.27-12-.87a39.92,39.92,0,0,1-7.69-2.3c-1.72-.64-3.23-2.24-4.94-2.42-6.45-.66-8.62-4.91-9.58-10.44-8.81-3.11-10.91-7.65-6.2-15.65,2.11-3.58,5.85-6.25,9-9.15a62.84,62.84,0,0,1,5.78-4.25c-.73-.88-1.07-1.57-1.3-1.54-10.54,1.76-16.64-3.86-21.63-12.26-11.27-19-20.21-38.68-21.49-61.13-.47-8.37-1.09-16.74-1.63-25-7.39-1.61-7.83-1.52-17.6,3.38-.86,9.67.23,18.73,9.41,24.65-4.19,6.55-9.38-2.76-13.45,1.51l-15.53-5.09c-.14,8.81-.14,17.16-.43,25.49-.34,9.81-.23,19.7-1.57,29.38C621.78,657.94,608.29,664,597.16,658a6.54,6.54,0,0,1-2.74-5.17q1.22-14.22,3.28-28.36c1.88-13,4.15-25.85,6.09-38.79.39-2.65.05-5.42.05-8.42-9.82-1.93-13.36-10.32-17.47-18.05a46.17,46.17,0,0,0-23.72,14.24c-4.27-4,.7-9.27-2.74-13-.16-.17.19-1.08.53-1.42,5.52-5.47,6.14-13.2,9.22-19.78,3.51-7.49,7.08-14.85,16.79-16.26,1.68-.25,3.69-3.1,4.29-5.11,3.4-11.49,6.46-23.09,9.56-34.67,1.47-5.53,2.58-11.17,4.19-16.66,2.52-8.62,9.15-14.05,15.79-19.39,2.32-1.86,4.81-3.52,7.28-5.32-7.81-6.85-16.86-10-28.48-10.84,8.48-3.57,17-.79,28.93,6.33-1.59-8.76-6.86-15-11.56-23,13,2.11,19.73,11.17,28.06,20.24.24-10.08-4.09-17.41-6.49-25.64,6.59,2.08,9.17,5.62,23.08,31,0-5.91.19-10.28-.05-14.62s-.9-8.83-.64-13.43c8.4,8.42,9.7,20.31,16,30.9,3-7.39,2.47-15.31,7.82-21.15,2.56,11.1-.71,22.71,4.11,34.22,3.16-7,1.92-15.35,9.5-21-.31,13.29-.87,25.46-.8,37.61s0,24.49,3.61,37.15c1.14-.81,2.13-1.19,2.64-1.91,6-8.48,15.48-9.12,24.5-10.67a7.93,7.93,0,0,1,4,.56c5.42,2.09,11.09,3.82,16.06,6.73,2.81,1.64,4.67,5.15,6.56,8.08,3.82,5.91,7.07,12.21,11.09,18,6.38,9.15,12.95,18.2,19.89,26.93A204.92,204.92,0,0,0,824,594.78c5.15,3.82,10.65,7.15,17,11.38l-8.71,1.62c8.47,12.36,15.7,25,18.21,39.81,5.88,1.11,11.06,2.64,15.47,7,11.24,11.15,12.25,11.25,27.24,10.39,0,.51.28,1.14.07,1.5a12.19,12.19,0,0,1-1.71,1.94L897,671.1c-4.37,1.15-7.22,2.6-10,2.49-5.53-.22-9.1,2.79-13,5.9-4.23,3.36-8.58,6.93-13.47,9-9.3,4-18.1,1.3-26.28-4.4l-5.52,4.5c1.74,5,4,9.63,4.86,14.49,1,5.85-1,8.08-7,8.43-7.86.46-15.84,1.3-23.43-2a8.4,8.4,0,0,0-3.19-.59c-7.28-.07-14.56,0-21.84-.1A15.26,15.26,0,0,1,766.4,704a12.44,12.44,0,0,0-6.94-3.27c-7-1-10.06-5.3-6.87-11.62C755.38,683.59,759.3,678.66,763.1,672.89Zm83-8.36,8.86,4.11.63-2.24-9.5-1.78c-.8,7.06-.61,7.33,4.62,6.13C849.17,668.63,847.63,666.55,846.12,664.53ZM600.44,497.08l.16-.22c-2.34,8-4.69,15.93-7.27,24.66a70.26,70.26,0,0,0,7.64,1.41,31.13,31.13,0,0,1,19.13,8.49c6.91,6.31,13.29,13.21,20.56,20.52,2.47-1.29,5.9-2.22,7.94-4.43,1.56-1.68,1.35-5,2.2-8.77,3.53,4.59,6.15,8,8.69,11.37.13.18-.45.88-1,1.84L653,549.24l-12,6.38c1,3.32,2,6.77,2.91,9.88l19.94-4.85c.2-.91.49-1.94.64-3q3.46-23.88,6.87-47.78c.3-2.14.14-4.54,3.61-4.06a6.39,6.39,0,0,1,.6,2.29c-2.32,15.93-5.14,31.8-7,47.79-2.89,25.28-1.53,50.19,9.23,73.84.14.31.83.38,1.36.6.15-1.36.31-2.68.55-4.76,1.87,1.87,3.09,5.18,6.39,2.12.82-.77,4.1,1.58,6.28,1.64s4.16-.94,6.18-1.65c2.28-.79,4.48-1.78,6.43-2.57-3.71-12.61-7.65-24.27-10.53-36.19-3.4-14-5.68-28.36-8.81-42.47-3.48-15.7-3-31.42-1-47.19.31-2.42,1.54-4.73,2.34-7.09l2.25.56c-.5,4.65-.92,9.31-1.49,14-2.63,21.57,2.23,42.37,6.57,63.21.53,2.55,2.33,4.84,3.55,7.25,1-5.78.15-10.91.09-16,0-4.66-1.79-9.75,2.13-15.4,1.1,11.32,1,21.28,3.21,30.7,3.71,15.9,8.42,31.62,13.59,47.12,4.63,13.89,7.77,27.87,7.23,42.52-.14,3.62,0,6.66,4.3,8.4a15.43,15.43,0,0,1-4.2,1.13c-8.64,1.52-15.07,6.07-18.82,14.07-3.09,6.59-1.94,9.06,5.28,12.12,5.9-15.42,5.9-15.42,10-16.42-1.57,4-4,8.38-4.86,13-1.32,7.18,1.67,9.31,9.35,7.69,1.16-12.72,1.93-14.41,7.24-16.31-1.11,3.4-2.62,6.88-3.32,10.51-.58,3,0,6.23,3.49,7.47,3.26,1.15,6.55,1.16,9-1.86,5.28-6.61,7.49-13.72,4-22a22.2,22.2,0,0,1-1.74-8.62c.2-15.55.75-31.1,1-46.65a284.57,284.57,0,0,0-7.52-72.29,31.9,31.9,0,0,1-.33-5.8c1.85.61,2.56,1.41,2.81,2.33,6.94,25.24,8.38,51.07,8.14,77.06-.05,5.16-1.27,10.31-1.25,15.46a12.33,12.33,0,0,0,2.66,7.33A109.68,109.68,0,0,0,762,665.51c5.5,4.67,11.53,8.72,18.33,13.77-4.33-26.92,3.52-50.29,17.61-55,.09.23.33.6.25.69-1,1.22-2,2.43-3.1,3.57-9.57,10-14,22-13.76,35.71.14,7.54,1.93,14.18,10.34,16.7.57.17.91,1.12,2.07,2.64-3.34.32-6,.35-8.45.85-5.74,1.15-11.15,3.13-14.22,8.58-3.84,6.83-.74,11.76,8,12.32.16-7.87,2.87-14.05,11.76-15.23-1.52,1.72-4,2.67-5.1,4.48-1.45,2.42-2.81,5.72-2.25,8.21.37,1.68,4,3.27,6.37,3.71,2.8.52,5.84-.25,8.61-.46,1.84-13.42,2.78-15,8.88-15.33-1.39,2.27-3.22,4.39-4.06,6.84-1.81,5.21.66,9.94,5.9,10.44,7,.66,14.05,1.75,20.87-.25,2.94-9.28-3.61-14-9.4-19.07,3-1.36,5.33-2.08,7.29-3.4,14.14-9.52,24.07-30.34,16.91-48.16-2.23-5.56-4.5-11.23-7.69-16.25-4.91-7.74-9.46-16.17-19.37-19-.37-.11-.47-1.18-.92-2.45l10.84,2.39c-8.05-6.78-14.75-12-20.94-17.73-17.66-16.41-34-33.91-45-55.74C758,521,753.6,514.1,745.8,510.22c-.92-.46-2.48-1.5-2.37-1.87,1.35-4.62-2.7-4.14-4.72-4.49-3.28-.58-6.74-.16-10.08-.16-.13-1.34-.23-2.35-.46-4.59l-14,6.46c-.21-.13-1.51-1.44-2.24-1.18-6.76,2.43-7.89,9.46-11.7,16.35-6.49-24-7.46-46.86-6.24-70.62-3.7,5.42-1.46,12.32-7.48,17.46-1.74-10.31-3.27-19.34-4.79-28.36l-.9,0c-1.38,7.31-2.75,14.62-4.2,22.34-4.43-2.25-3.61-5.78-3.49-8.8.37-9.7-3.73-17.88-9-25.94v24.81c-5.87-4.31-5.4-10.3-8-14.56-2.91-4.72-5.68-9.52-8.51-14.29-.25,4.73.84,8.95,1.33,13.23.45,3.94,3.29,7.91.56,12.43-9-15.19-15.25-22-23.59-25.81,2.63,6.73,5.27,13.48,7.89,20.2-10.65,4.3-19.5,12.17-22.28,19.39,19.37-8.08,19.37-8.08,25-5.27-3.8,1.53-6.66,2.63-9.49,3.82-5.51,2.31-11.06,4.52-16.44,7.1a7.33,7.33,0,0,0-3.59,4C604.63,480.18,602.59,488.65,600.44,497.08Zm40.86,94.61-5.5-9,1.39-1.09,5.55,5.43c-.44-19.27-4.4-39.61-17.16-43.92-3.15,4.08-5.87,8.54-9.52,12a7.9,7.9,0,0,0-2.7,7C614.12,576.77,625.88,589.41,641.3,591.69ZM609,577c-2.19,14.28-4.24,27.67-6.25,40.8l7.16,2.9L613,616c.64,3.25,1,5.06,1.36,6.86,5.45-4.15,8.14-9.37,7.39-16.48a73.54,73.54,0,0,1,0-14.76c.7-7.16-5-10.38-8.57-14.82C612.7,576.2,610.66,576.9,609,577Zm-42.3-13.73,33.19-12.56c-2.73-4.56-5.19-8.16-7.12-12s-3.29-8-5.22-12.76c-2.37.88-5.21,1.08-6.62,2.6-5.71,6.16-10.7,12.81-9.69,22.08a11.76,11.76,0,0,1-1,5.33C569.12,558.67,567.68,561.23,566.67,563.31ZM701.56,690.82c3.09-8.75,9.9-14.25,19-17.85A69.73,69.73,0,0,0,718,641.84a74.36,74.36,0,0,0-.61,12.17c.08,6.26-1,11.79-7.7,14.55a25.64,25.64,0,0,0-6.06,4c-4.31,3.47-8.09,7.24-8.1,13.45C695.51,689.89,697.13,691.41,701.56,690.82ZM591.14,558.16c4.82,13.67,9.88,17.13,20,13.6a94.82,94.82,0,0,0-1.27-9.45c-1.45-6.22-6.94-8.94-12.81-6.6C595.08,556.51,593.11,557.34,591.14,558.16ZM712,635.63c2.31-13.44-5.81-40.5-14.91-49.18C701.88,602.27,706.68,618.1,712,635.63Zm57.83,41.8c-1.44-.54-2.54-1.41-3.34-1.19-6.19,1.69-12.68,13-11.17,19.13.68,2.76,2.38,3.43,5,2.53.92-3.36,1.44-6.92,2.89-10C764.76,684.44,767.21,681.43,769.82,677.43Zm8.76,4.3c-2.66-.4-5.48-1.72-6.83-.83a17.7,17.7,0,0,0-5.47,6.87c-1.16,2.33-1.29,5.17-2,8.54C769.29,691.18,773.4,687,778.58,681.73Zm-180.72-33.1h.52v-5.9h-.52Z"/><path class="cls-1" d="M278.07,260.9c3.11-5.76,3.25-12.42,3.76-18.78.54-6.64.12-13.35.12-21.38,6.94,9.06,5.14,19.2,8.7,27.89,4.33-8.37,4-17.23,4-26s-.65-17.36-1-26.53c9.34-4.95,18.57-10.75,30.51-11.6-2.11,7.08-4,13.69-6.07,20.28-4.74,15.35-4.76,15.34-1.8,18.71,6-11.29,15.86-18.05,26.51-24.43,11.06-6.64,23.82-5.06,36.3-10.26,0,8.31-.56,15.86.16,23.28a149.51,149.51,0,0,0,4.24,21.57c2.17,8.67,8.14,13.87,16.54,16.52,3.64,1.15,7.21,2.56,10.83,3.78,14.09,4.73,20.67,15.15,22.43,29.33,2.1,17-8.57,26.2-21.11,33.85-4.81,2.93-10.48,4.73-16,6.18-7.24,1.91-14.44,1.75-21.56-1.69-10.86-5.25-21.78-10.19-29.92-19.58-3.49-4-5.5-7.69-4.07-13.72,2.24-9.39,0-18.09-7.15-25.6-4.41-4.62-7.21-10.78-10.83-16.18-.48-.73-1.53-1.08-3.68-.89q1.44,4.29,2.87,8.59l-13.14-.94c-.14.76-.27,1.51-.41,2.27,1.76.46,3.5,1.08,5.29,1.37,12.27,2.06,20.32,9.06,23.62,21,3,10.73-2.16,16.84-13.57,18.43a21.75,21.75,0,0,1-16.4-4.43l2.55-5.66c-.85-.44-1.51-1-1.72-.85-7.38,4.66-10.15,10.73-7.39,17.79l2.66-7.2,17,4.57c-5.69,6.54-12.13,12.49-16.74,19.63-4.48,6.95-7.09,15.11-11,23.73-2.53-6.44-5.14-12.2-7.06-18.18-3.43-10.69-9-19.56-17.89-26.77-11.93-9.65-13-23.22-11.39-37.33.07-.54.25-1.07.29-1.61,0-.24-.17-.5-.07-.23-7.56-1-14.94-1.61-22.11-3.17-8.88-1.94-14.49-12.14-11.86-21.08,1.94-6.58,4.57-12.86,11.12-16.49,10.79-6,23.39.13,25.26,12.35.62,4,1.34,8.08,1.62,12.15s.06,8.14.06,12.43c5-2.11,5.65-4.18,8.29-24.54,3.46,4.21,3.66,4.65,5.15,14.21.78,5,1.4,10,2.1,15Zm84.26-50.39c-9.86-6-15.82-.67-19.61,7.86a21.08,21.08,0,0,0-1.72,5.45c-1.27,8.61-2.62,17.23-3.46,25.89a43.29,43.29,0,0,0,.66,12.23c.89,4.58,7.23,7.87,10.9,5.34,7.4-5.1,14.54-10.81,18.83-19,1.18-2.24,1.31-5.36,1-8-.77-7.31-1.72-14.64-3.2-21.84-.85-4.14-.11-6.77,3.67-8.8,1.58-.86,3.91-2,2.38-5.27ZM250.77,234.43c2.21-3.33,1.81-5.2-.71-6.36-6.12-2.81-12.19-2.83-17.88,1.05-4.94,3.38-7.65,7.89-6.82,14.08.85.09,1.3.23,1.37.13,1.6-2.56,3.17-5.15,4.87-7.93,4.13,16.66,4.13,16.66,10,15.51-3.31-6.64-8.29-13-3.47-21.19C243.18,228.26,247.23,229.67,250.77,234.43Z"/><path class="cls-1" d="M396.18,471.41l-13.51,12.23,1.09,1.61c1.22-.45,2.74-.59,3.59-1.42,3.11-3,6-6.25,9-9.47,8.89-9.76,19.75-16.95,30.26-24l9.59,7.06-23,20.87c2.47,1.18,4.28,2.19,6.21,2.91,4.36,1.63,6.42,4.86,6.7,9.33.36,5.69,1.19,11.45.72,17.08-.7,8.4-3.6,16.44-4.84,24.87s-9.05,12.42-17.73,13.15c-10.38.88-20-1.94-29.28-6.18-8.43-3.85-16.57-8.4-25.19-11.74a146.87,146.87,0,0,0-52.66-10.07c-13.34-.07-26.69-1.48-40-1.43-14,0-22.38-7-27.67-19s-7.38-25.15-8.48-38.19c-1-11.68-1.71-23.51-1-35.18,1.36-22.3,3.56-44.57,6-66.78.7-6.41,3-12.75,5.3-18.86,2.7-7.25,8.15-9.07,15.15-5.63,8.33,4.1,11.87,11.83,14.27,20,3,10.29,3.59,20.94,3.32,31.62-.52,19.91-1.31,39.82-1.47,59.73-.07,10.05,1,20.11,1.57,30.94-3.57,2.44-10-.49-13.93,4.23.76.51,1.25,1.12,1.61,1,13.54-2.75,26.48.77,39.55,3.49,15.72,3.26,31.49,6.24,47.28,9.15,7.6,1.4,13.83-.52,18-7.83,1.84-3.23,4.72-5.93,7.4-8.61,10.62-10.64,18.88-11.85,32.25-4.89C396.25,471.55,396.18,471.41,396.18,471.41Zm13.57,44.43c0-.83,0-1.65,0-2.48-3.23.7-6.79-1.55-10.48,2.48Zm-6.13-20.18.18,1.75c3.08.53,6.28,1.91,9.67-1.75Zm-7,32.71c1.83,2.7,3.79,5.1,9.12,4.06Zm-16-54.16-.35,1.58,5.65,1.27.34-1.5Z"/><path class="cls-2" d="M211.11,513.85c3.83-1.12,8.16-2.77,12.65-3.6,4.32-.81,8.54-.4,12.13,3.07,4.26,4.14,9.8,5.7,15.61,6,13.62.83,27.24,1.57,40.86,2.3,6.34.35,7.6.54,8.19,6.58.93,9.45,2.06,19.28.51,28.52-3.75,22.33-10.95,43.74-19.95,64.61-4.52,10.48-7.37,21.68-10.88,32.59-2.41,7.51-4.67,15.08-7.13,23-12.89,2.18-25.2.83-37.29-5.58a43.17,43.17,0,0,1,1-5.7c6-18.68,11.94-37.38,14.69-56.86,1-6.73.91-13.62,1.06-20.43,0-1.14-1.32-2.31-2.88-4.85-.78,4.35-1.26,7-1.91,10.68l-8.82-7c6.11-6.31,14.74-5.75,22.29-9.34-2.61-3.16-4.8-2.3-7.15-1.77-12.24,2.78-22.52,9.51-32.84,16.15-9.72,6.25-19.93,11.41-31.38,13.49-12.16,2.21-23.52-.41-34.14-6.72,7.25.27,14.41-3.28,21.75,1,4.29,2.49,9.68-.12,12.65-4.46,1.21-1.76,2.28-3.74,3.88-5.07,16.39-13.63,23-32,25.6-52.35C210.57,530.4,210.6,522.5,211.11,513.85Z"/><path class="cls-3" d="M290.23,136.22c-12.05-.54-22.77-1.51-33.4-4.77,1.95-5.07,5.14-4.51,8.05-4.7,7.88-.53,15.76-1.06,23.63-1.74a46.65,46.65,0,0,0,6.3-1.41c-1.17-3.89-3.39-2.43-5.38-2-15.74,3.69-31.38,1.64-47-.91-2.14-.35-4.16-1.5-7.71-2.84,11.89-6.87,22.81-6.59,33.93-4.94,9.11,1.34,18.21,1.61,27.52-1.4a44.6,44.6,0,0,0-4.69-.91c-11.38-1-22.78-1.95-34.16-3.07-3.59-.35-6.8-1.71-8.75-5.47,2.46-4.29,6.51-4.67,10.55-4.85a68.69,68.69,0,0,1,33.83,7c.7-3-1.2-4.25-3.28-4.8-6.83-1.8-13.64-4-20.6-4.85-7.72-.93-15.61-.32-23.4-.72C224,92.76,201.91,95,180.63,89.14c-9.08-2.5-18.82-2.71-27.27-7.66-11-6.42-20.53-14.12-26.54-26.23,3.24-1.64,6.41-.38,9.26.48,8.36,2.52,16.74,5.07,24.86,8.27,22.95,9,47.15,11.37,71.36,13.3,9.18.73,18.53-1,27.79-.81,13.58.22,26.49,3.14,37.62,11.64a34.38,34.38,0,0,1,14.05,25.74c.63,7.67,1.13,15.25-2.07,22.44a39.11,39.11,0,0,1-5.2,8.13c-2.21,2.79-4.94,3.27-8.69,2.33s-7.94-.14-11.93-.24c-2.31-.06-4.63-.35-6.94-.64-7-.87-14-2.45-21-2.54-10.06-.13-20.12,1.09-30.19,1.19a84.28,84.28,0,0,1-17.05-1.7c-2.61-.51-4.86-2.81-7.06-4.17,1.63-5.18,5.09-4.75,8.38-4.79,9-.1,18.05-.19,27.07-.43,3-.08,6-.88,8.95-.81a30.47,30.47,0,0,1,9.39,1.32c10.44,3.69,21.19,4.83,32.15,4.61C288,138.56,288.36,137.93,290.23,136.22Z"/><path class="cls-4" d="M255.75,217.63c-6.28-2-11.88-6.47-19.87-2.9,1.26-10.28,2-19.62,4.54-28.72a120.47,120.47,0,0,1,15.92-34.69c3.68-5.59,8.28-5.32,13.42-4.14,2.61.6,5,2,7.88,3.18-1.39,7.37-2.84,14.91,5.52,19.27,5.45,2.85,10.71,1.53,15.45-1.75,4.26-2.94,5.06-8.15,3-17,10.54-6.83,14.56-17.44,15.35-29.56,17.37-3.19,52.72,21.88,60.36,43.28-5.31,1.09-10.5,2.2-15.71,3.24-6.93,1.39-13.86,2.73-20.79,4.11a4,4,0,0,0-1.53.56c-12.82,9.29-29.07,10.59-42.58,18.36C284.13,198,271.48,205,260.42,214.47A49,49,0,0,1,255.75,217.63Z"/><path class="cls-5" d="M206.55,707.07c13.84,5.38,24.74,1.79,35.8-5,5.27-3.2,12.45-3.42,18.84-4.58,5.07-.92,10.26-1.23,15.39-1.8,8.11-.91,15.57,1.81,23.13,4.07,3.9,1.16,7.73,2.38,11.77-.2,1.2-.76,3.83-.4,5.19.44,6.92,4.28,13.78,8.66,18,16.09,6.59,11.66,2.17,21.82-9.22,26.28-13.41,5.26-26.81,4-40.29,3.11-8.05-.54-16.07-2.5-23.94-4.48-18.78-4.71-35.9-12.65-49.33-27.14C210.24,712.14,208.9,710.11,206.55,707.07Z"/><path class="cls-1" d="M393.35,672.65c-5,2.58-1.66,5.81-.46,8.9a8.33,8.33,0,0,1-1.82,0c-10-2.75-20-4.49-30.57-2.95-10.86,1.59-21.17-.57-29.61-8.87-.65,4.19-.65,4.19,6.57,10.25-8.83,1.91-13,1.42-23.95-3,3.08-2.42,5.89-4.67,8.76-6.85,4.26-3.24,5.56-7.62,5.82-12.83a64.47,64.47,0,0,0-5.91-30.24c-6-13.14-12.62-26-19.49-38.72-2.1-3.87-3.12-6.92-1.83-11.4a180.38,180.38,0,0,0,5.22-24.59,61.12,61.12,0,0,0-2.58-29c6.1-2.27,6.71-1.89,7.72,4.4,2.25,14,4,28.13,6.9,42,4.29,20.5,8.93,41,14.42,61.17,2.11,7.74,6.86,14.77,10.66,22,.43.82,2.52.78,5.45,1.57l-9.22-16.86c6.05-6.09,11-7.51,21.22-5.85-3.42,2.6-6.43,4.88-9.43,7.18-.57,1.09-1.16,2.17-2,3.75,6.36,1.47,11,6,18.68,7.19-5.06-6.69-11.52-7.92-16.83-11,3.27,1.1,6.08.29,9-1.45,6.07-3.56,12.26-7,18.59-10,3.62-1.73,7.63-2.47,11.95,1-6.36,3.34-13.49,3.46-19.7,9.19,2.79.22,4.23.7,5.42.35,3.88-1.16,7.64-2.73,11.51-3.94,5.55-1.74,11-2.79,16.21,1.42.65.54,2.39-.24,3.63-.41l-.25.19h4.32c-3.41,3.17-5.5,5.87-8.23,7.51q-14.37,8.67-29.17,16.64c-1.65.89-4.11.4-6.2.34-2.51-.08-5-.38-7.69.58,12.39,5.73,26,5.57,40,8.71l-7.4,3.86Z"/><path class="cls-5" d="M109.63,660.94c12.91,3.84,25.17,9.06,38,6,11.53-2.75,22.61-7.37,33.75-11.12-3.91-7.93-8.32-14.62-10.52-22a33.78,33.78,0,0,1,1-21.55c10-3.28,19.47-5.72,28.38-9.52,8.5-3.63,15.72-10,25-12.71-8.57,8.36-11.14,19-12.69,30-4.26-1.49-2.46-8.32-8.58-8.31,1.28,7.64,6.86,12.48,9.8,18.65S218.53,643,221,649.93c-1.77.59-4.58,1.34-7.23,2.46-7.4,3.12-13.13,7.69-14.15,16.44-.35,2.95-1.38,5.81-2.34,9.69-10.84,3.09-21.88,7.06-33.26,9.27-12.11,2.34-24.4,1.77-35.88-3.91a25.8,25.8,0,0,1-12.09-11.71C114.27,668.56,112.06,665.14,109.63,660.94Z"/><path class="cls-3" d="M217.45,7.83c3.41,1.39,6.91,2.57,10.2,4.19,13.44,6.61,26.52,14.06,40.31,19.81,9.21,3.84,19.43,5.17,29.13,7.89,11.27,3.16,22.71,6,33.64,10.09,16.14,6.1,29.08,27.36,28.15,44.52-.61,11.47-10.67,23.44-21.84,25.7a13.29,13.29,0,0,1-5.51-.6c-4.71-1.16-9.38-2.49-15-4-.46-2.91-1.09-6.8-1.86-11.66,3.25,1.42,5.61,2.54,8.05,3.49,2.27.89,4.27,3.17,8.51,1.59-5.15-2.9-9.29-5.18-13.38-7.55-1.88-1.09-4-2.07-5.39-3.63-.84-.94-1-3-.57-4.36.22-.72,2.29-1.43,3.37-1.24a42.55,42.55,0,0,1,8.62,2.4c5,2.08,9.9,4.59,14.92,6.7,1.25.53,2.84.25,4.53-.34-13-8.33-26.93-14.82-38.48-25.14,17.4-.56,28.84,13.33,44.27,17.92-10.3-7.1-20.95-13.53-27.08-24.78,5.6-1.1,13.47,2.68,25,12.19,1.76-4.37-1.71-6.15-4.07-7.64-4.6-2.9-10-4.63-14.42-7.71-11.2-7.77-24.55-7.49-37-10.61a199.06,199.06,0,0,1-47-18.78C233.05,30,223.13,21.36,216.4,9.77Z"/><path class="cls-1" d="M278.68,476.48c-1.67-11.53-3.62-23.05-4.93-34.64-1.44-12.71-2.39-25.48-3.31-38.25a37.56,37.56,0,0,1,.83-9.66q5.18-26.83,10.61-53.62c.42-2.08,1.25-4.09,2.3-7.45,3.15,10.43,8.34,18.56,6.12,29.27-2,9.47-1.35,19.5-1.67,29.29-.21,6.08,0,12.18,0,20.15,4.3-7.48,3.73-15.68,11-20.79.61,4,1.4,7.47,1.65,11,.79,11.43,1.09,22.9,2.12,34.3,1.18,13,3,25.94,4.4,38.91a76.18,76.18,0,0,1,0,7.92C297.74,482.7,288.67,479.39,278.68,476.48Z"/><path class="cls-6" d="M332.72,296.81l26,23.69a54.62,54.62,0,0,1-12.77,20.28c-8.91,8.79-18.81,16.54-28,25.09-8.69,8.12-17,16.7-25.72,25.37.5-9.93.28-20.13,1.73-30.08,1.37-9.37,4.21-18.56,6.94-27.67,3.83-12.76,12.49-22.13,22.68-30.21C326.73,300.8,330.11,298.65,332.72,296.81Z"/><path class="cls-2" d="M298.12,587c10.82,18.93,20.95,36.37,25.21,56.36,1.17,5.5,1.11,11.34,1,17a9,9,0,0,1-3.05,6.19c-4.92,3.7-10.31,6.79-14.66,9.57L273.41,658C279.24,634.24,289.13,611.67,298.12,587Z"/><path class="cls-2" d="M226.68,652.25l-4.62,15.5-8.12-3.36c5.47,14.42,43.58,22.68,60.23,13.12l-5.86-2.11c.89-3.8,1.86-7.9,2.83-12,19.5,3.68,36.88,17,37.21,33.92-2.9-.33-6,0-8.36-1.05-12.39-5.58-25.13-4.08-37.83-2.17-10.75,1.62-21.28,3.58-30.82,9.91-8.49,5.64-21.37,3-28.28-4.84a12.84,12.84,0,0,1-2.94-8.81c.77-7.28,2.72-14.42,4-21.66,1.46-8.35,6.83-12.64,14.58-14.63C220.76,653.57,222.87,653.13,226.68,652.25Zm-15.87,22c-4.93,2.18-5.95,4.25-3,7.11,2.31,2.21,5.17,4.44,8.16,5.21,9,2.29,18,4.55,27.19,5.54,9.48,1,19.25.53,28.06-3.69a26.9,26.9,0,0,0,9.46-8.37c1.94-2.66.94-5.59-3.33-5.82-1.31,8.29-4.19,11.3-12.45,13.09-15.92,3.45-31.46,1.31-46.68-3.66C211.47,681.45,211.5,681,210.81,674.26Z"/><path class="cls-7" d="M220.9,298.59c-11.46-12.29-16.71-26.24-20.08-41.87-7.65,3.06-5.9,11.69-10.45,17-3-15.12-.45-28.06,11.06-39.61-7.25-.16-8.61,7.19-14.65,7.82,1.12-4.66,3.95-7.41,7.65-9.53l10.77-6.19c-4.72-6.39-11.3-2.09-17-4.6,7.15-2.41,13.6-4.32,20.69-3,3.09.59,6.59,1.67,7.74-3.37.17-.74,4.06-.63,6.73-1l3-18.07h1.06c1.1,5.82,2.48,11.62,3.15,17.5.2,1.7-1.18,4.15-2.6,5.36-5.53,4.73-7.76,11.29-9.76,17.72-2.61,8.39,3.72,19.15,12.38,22.3,2.52.91,5.19,1.4,8.19,2.19,2.13,11.46-.28,22.05-5.47,33.29-3.22-10.29-4.39-20.81-15.16-27.45C217.24,278.32,219.88,287.74,220.9,298.59Z"/><path class="cls-8" d="M163.23,547.56c13-12.13,28.42-19.32,42-29.73,4.72,19.45-5.52,61.74-26.69,71Z"/><path class="cls-3" d="M140,85.21c18.66,3.46,35.83,7.58,53.23,9.6s35.2,2,53.59,2.9c-3.06,4.46-3,8.6,1.28,11.88-30.23,12.13-58.11,3-85.65-7.92C154.29,98.43,146,94.67,140,85.21Z"/><path class="cls-9" d="M164.47,629.33c3.09,7.45,6.47,15.62,10.09,24.36-8.1,2.92-16.45,6.09-24.9,8.94-12.19,4.12-23.78.62-35-3.77-6.9-2.7-7.28-7.07-1.17-11.33a62,62,0,0,1,13.08-6.48c4-1.56,8.44-2.17,12.59-3.47C147.69,634.9,156.18,632,164.47,629.33Z"/><path class="cls-8" d="M107.21,563.13a20.74,20.74,0,0,1-4.2-16.91c3.11-18.1,10-34.36,24.9-46.21a20.3,20.3,0,0,1,4.39-2.14c1.81,10.34,3.22,20.21,5.33,29.93,2.48,11.38,2.78,11.36-6.54,18.17C123.22,551.71,115.28,557.34,107.21,563.13Z"/><path class="cls-10" d="M176.78,595.07c-8.79,3.11-9.84,2.5-13.27-4.11C155,574.65,151.22,556.68,145,539.57c-5.07-14-8.39-28.18-7.94-43.13,0-1.36,0-2.72.14-4.08a11.79,11.79,0,0,1,.85-2.31h10.44c.37,5.94.42,11.32,1.08,16.63,2.5,20.15,9.4,39.11,16.17,58.08C169.31,574.72,173,584.63,176.78,595.07Z"/><path class="cls-11" d="M383.19,166.92c2.45,13.9,1.28,18.45-14.91,21.64-9.41,1.86-18.93,3-27.33,7.92-6.52,3.8-12.68,8.21-20.57,13.37,3.08-9.11,3.83-17.46,8.06-24.7A20.52,20.52,0,0,1,341.82,175c7.44-1.66,14.89-3.32,22.38-4.8C370.33,169,376.52,168.07,383.19,166.92Z"/><path class="cls-3" d="M254.17,127.91c-4.36.71-8.71,1.94-13.09,2-18.77.44-37.65,1.87-56.22-1.68-9-1.72-17.65-5.21-26.34-8.25-2.68-.93-5.54-2.6-5-7,2.07-.25,4.16-.86,6.17-.66,12.14,1.2,24.25,2.64,36.38,3.89,8.09.84,16.19,1.69,24.31,2.2,5.07.32,9.8.07,14.55,3.36,3.52,2.43,8.79,2.34,13.29,3.35,2,.44,4,.82,6,1.23Z"/><path class="cls-8" d="M153.6,492.05c15.29-2.06,29.22.81,41.6,11.59l-36.89,21.52C153.64,518.42,151.15,502.35,153.6,492.05Z"/><path class="cls-3" d="M315,64.4c1.26,3.43,2.35,6.42,3.73,10.2-2-.6-3.71-1-5.35-1.6-1.8-.6-3.56-1.84-5.35-1.87-11.15-.17-21.38-4.38-31.53-7.93a384.47,384.47,0,0,1-41.19-17.73c-5.16-2.52-9.24-7.34-13.62-11.33-1-.93-1.27-2.73-2.66-6,5,1.69,9.13,2,11.72,4.14,11.77,9.78,25.84,14.89,39.62,20.64,11.88,5,24.35,7.65,37,9.62C310,63,312.61,63.81,315,64.4Z"/><path class="cls-8" d="M159.73,593.34c-16.29,2.79-29.08-3.52-41.22-12.41,5.49-6.77,19.6-17.18,28.87-21.31Z"/><path class="cls-2" d="M234.73,622.33c-1.68,8.48-3.13,17-7.14,25-14.15-13.17-12.86-43.06,2.14-53.4,5,2,6.57,6.5,8.3,11.36-3.72,3.66-10.34,5.07-9,12.27.64,3.48,3.28,3.93,5.74,4.93Z"/><path class="cls-10" d="M200.66,505.79c5.49,5.63,5.65,7.3-.1,11.31-8.69,6-17.67,11.68-26.46,17.59-3.78,2.55-7.4,5.35-11.73,8.5-1.46-4.41-2.71-8.19-4.1-12.41C170.93,519.79,185.71,512.65,200.66,505.79Z"/><path class="cls-10" d="M142,543c1.36,3.83,2.61,7.35,4.05,11.44-5.78,4.4-11.31,8.68-16.93,12.86-4.57,3.41-9.27,6.65-13.86,10-3.09,2.29-6.29,3.12-9.79,1.12a5.22,5.22,0,0,1-1.49-8.23A19.14,19.14,0,0,1,107.6,567q14.82-10.69,29.73-21.29C138.63,544.75,140.11,544.09,142,543Z"/><path class="cls-1" d="M244.05,263.45h8.41c0,3.73-.12,7.22,0,10.69.45,11,3.54,20.57,12.49,28.05,5.08,4.24,10.77,8.43,13.6,17.37-5.89-5.52-10-10.44-15.05-13.82-5.32-3.52-7.24-10.87-15.17-11.56,1.31,1.78,2.64,3.56,3.92,5.36s2.47,3.57,4,5.78c-4.2,2.07-8.13,2.44-11.71-.87-5-4.66-6.48-10.48-4.95-17.1,1.28-5.53,2.69-11,3.85-16.6A61.56,61.56,0,0,0,244.05,263.45Z"/><path class="cls-3" d="M311.85,88l-4.16,3.33c-2.91-2.42-5.52-4.75-8.3-6.86a57.11,57.11,0,0,0-26.86-11c-4.72-.69-9.33-2.48-13.85-4.17a153.23,153.23,0,0,1-14.17-6.17c-2.53-1.25-4.76-3.11-8.54-5.63,8.54-.78,14.78-.71,21.06,2.33,12.24,5.91,25.36,9.38,38.45,12.86,2,.53,5,1.81,5.28,3.21C302,82.07,307.3,84.3,311.85,88Z"/><path class="cls-12" d="M263.6,232c-1.86-4.62-3.16-7.86-4.8-11.95,4.48-3.48,9-7.28,13.82-10.65s10-6.36,15.76-10c3.33,8.07,1.47,15.92,1,24l-2.48-4.14c-1.31-2.2-1.61-5.81-5.31-5.06-4.1.83-3.16,4.48-3.21,7.34-.06,3.26.17,6.53.16,9.8,0,2.14-.22,4.29-.37,7-4.53-5.08-3.53-13.15-11.18-16.77C265.88,225,265,227.84,263.6,232Z"/><path class="cls-3" d="M273.69,475c-4.77.74-5.2-2.26-5.56-4.93-.9-6.47-2-13-2.24-19.46-.36-11.7-.1-23.41.53-35.2,2.91,9.8,2.84,20.05,4.12,30.07C271.8,455.27,274.41,465,273.69,475Z"/><path class="cls-13" d="M288.43,148.5c7.25-.18,11.27,3.31,11.3,9.79a9.72,9.72,0,0,1-9.79,9.78,10.83,10.83,0,0,1-11-10.66C278.79,152.17,282.55,148.64,288.43,148.5Zm-4.31,4.08c-1.2,4-1.87,8,2.35,10.89,2.77,1.88,7.24,1.47,8.79-1.41a10.16,10.16,0,0,0,.52-7.45C294.44,151,291.32,150.68,284.12,152.58Z"/><path class="cls-1" d="M319.91,369c5.63-9.36,13.75-6.17,21.26-5.56C336.22,375.32,331.34,376.64,319.91,369Z"/><path class="cls-14" d="M171.94,471.68a24.92,24.92,0,0,1,0-3.13,31.85,31.85,0,0,1,1-3.37L191.11,470c.2,1.18.52,1.83.32,2.12-1,1.51-2.2,2.93-3.37,4.46Z"/><path class="cls-8" d="M191.17,484.4a76.37,76.37,0,0,1-27.2-6.12C171,473.35,181.25,475.63,191.17,484.4Z"/><path class="cls-8" d="M162.63,486.5c1.86-5.41,5.73-3.16,8.69-2.38,12.51,3.32,12.48,3.42,13.09,6.94Z"/><path class="cls-3" d="M223.31,278.88c4.11,5.67,5.32,10.69,3.23,18.13C223.44,290.61,222.07,285.62,223.31,278.88Z"/><path class="cls-3" d="M393.06,672.91c7.1-.15,7.29.05,6.47,6.77-6-.47-6-.47-6.17-7Z"/><path class="cls-3" d="M432.24,450.57l7.67-3.26C437.29,454.78,437.29,454.78,432.24,450.57Z"/><path class="cls-15" d="M341.28,359H332.7C335.63,354.41,337.83,356.54,341.28,359Z"/><path class="cls-2" d="M234.77,622.51c.38-3.25-3.45-6.59,1.63-11.1-.73,4.56-1.22,7.7-1.7,10.88A1.06,1.06,0,0,1,234.77,622.51Z"/><path class="cls-3" d="M407.69,635.08l-5.39-3,7.37-.48c-1,1.62-1.58,2.6-2.2,3.6Z"/><path class="cls-3" d="M600.44,497.08c2.15-8.43,4.19-16.9,6.58-25.26a7.33,7.33,0,0,1,3.59-4c5.38-2.58,10.93-4.79,16.44-7.1,2.83-1.19,5.69-2.29,9.49-3.82-5.64-2.81-5.64-2.81-25,5.27,2.78-7.22,11.63-15.09,22.28-19.39-2.62-6.72-5.26-13.47-7.89-20.2,8.34,3.79,14.62,10.62,23.59,25.81,2.73-4.52-.11-8.49-.56-12.43-.49-4.28-1.58-8.5-1.33-13.23,2.83,4.77,5.6,9.57,8.51,14.29,2.63,4.26,2.16,10.25,8,14.56V426.78c5.27,8.06,9.37,16.24,9,25.94-.12,3-.94,6.55,3.49,8.8,1.45-7.72,2.82-15,4.2-22.34l.9,0c1.52,9,3,18,4.79,28.36,6-5.14,3.78-12,7.48-17.46-1.22,23.76-.25,46.58,6.24,70.62,3.81-6.89,4.94-13.92,11.7-16.35.73-.26,2,1.05,2.24,1.18l14-6.46c.23,2.24.33,3.25.46,4.59,3.34,0,6.8-.42,10.08.16,2,.35,6.07-.13,4.72,4.49-.11.37,1.45,1.41,2.37,1.87,7.8,3.88,12.21,10.8,15.92,18.14,11,21.83,27.38,39.33,45,55.74,6.19,5.76,12.89,10.95,20.94,17.73l-10.84-2.39c.45,1.27.55,2.34.92,2.45,9.91,2.81,14.46,11.24,19.37,19,3.19,5,5.46,10.69,7.69,16.25,7.16,17.82-2.77,38.64-16.91,48.16-2,1.32-4.33,2-7.29,3.4,5.79,5.12,12.34,9.79,9.4,19.07-6.82,2-13.91.91-20.87.25-5.24-.5-7.71-5.23-5.9-10.44.84-2.45,2.67-4.57,4.06-6.84-6.1.36-7,1.91-8.88,15.33-2.77.21-5.81,1-8.61.46-2.38-.44-6-2-6.37-3.71-.56-2.49.8-5.79,2.25-8.21,1.08-1.81,3.58-2.76,5.1-4.48-8.89,1.18-11.6,7.36-11.76,15.23-8.72-.56-11.82-5.49-8-12.32,3.07-5.45,8.48-7.43,14.22-8.58,2.5-.5,5.11-.53,8.45-.85-1.16-1.52-1.5-2.47-2.07-2.64-8.41-2.52-10.2-9.16-10.34-16.7-.26-13.74,4.19-25.72,13.76-35.71,1.09-1.14,2.09-2.35,3.1-3.57.08-.09-.16-.46-.25-.69-14.09,4.71-21.94,28.08-17.61,55-6.8-5-12.83-9.1-18.33-13.77a109.68,109.68,0,0,1-12.63-12.87,12.33,12.33,0,0,1-2.66-7.33c0-5.15,1.2-10.3,1.25-15.46.24-26-1.2-51.82-8.14-77.06-.25-.92-1-1.72-2.81-2.33a31.9,31.9,0,0,0,.33,5.8,284.57,284.57,0,0,1,7.52,72.29c-.29,15.55-.84,31.1-1,46.65a22.2,22.2,0,0,0,1.74,8.62c3.52,8.32,1.31,15.43-4,22-2.42,3-5.71,3-9,1.86-3.51-1.24-4.07-4.47-3.49-7.47.7-3.63,2.21-7.11,3.32-10.51-5.31,1.9-6.08,3.59-7.24,16.31-7.68,1.62-10.67-.51-9.35-7.69.85-4.63,3.29-9,4.86-13-4.11,1-4.11,1-10,16.42-7.22-3.06-8.37-5.53-5.28-12.12,3.75-8,10.18-12.55,18.82-14.07a15.43,15.43,0,0,0,4.2-1.13c-4.32-1.74-4.44-4.78-4.3-8.4.54-14.65-2.6-28.63-7.23-42.52-5.17-15.5-9.88-31.22-13.59-47.12-2.21-9.42-2.11-19.38-3.21-30.7-3.92,5.65-2.18,10.74-2.13,15.4.06,5.13.92,10.26-.09,16-1.22-2.41-3-4.7-3.55-7.25-4.34-20.84-9.2-41.64-6.57-63.21.57-4.65,1-9.31,1.49-14l-2.25-.56c-.8,2.36-2,4.67-2.34,7.09-2,15.77-2.48,31.49,1,47.19,3.13,14.11,5.41,28.43,8.81,42.47,2.88,11.92,6.82,23.58,10.53,36.19-1.95.79-4.15,1.78-6.43,2.57-2,.71-4.13,1.7-6.18,1.65s-5.46-2.41-6.28-1.64c-3.3,3.06-4.52-.25-6.39-2.12-.24,2.08-.4,3.4-.55,4.76-.53-.22-1.22-.29-1.36-.6-10.76-23.65-12.12-48.56-9.23-73.84,1.83-16,4.65-31.86,7-47.79a6.39,6.39,0,0,0-.6-2.29c-3.47-.48-3.31,1.92-3.61,4.06q-3.39,23.91-6.87,47.78c-.15,1.06-.44,2.09-.64,3l-19.94,4.85c-.91-3.11-1.93-6.56-2.91-9.88l12-6.38,5.51,2.71c.52-1,1.1-1.66,1-1.84-2.54-3.42-5.16-6.78-8.69-11.37-.85,3.78-.64,7.09-2.2,8.77-2,2.21-5.47,3.14-7.94,4.43-7.27-7.31-13.65-14.21-20.56-20.52A31.13,31.13,0,0,0,601,522.93a70.26,70.26,0,0,1-7.64-1.41c2.58-8.73,4.93-16.7,7.27-24.67-.77,11.27,4,14.73,17.41,12.54,8.39-18.85,8.5-34.79-.1-43.82-.91,3.32,1.1,6.44-1.79,9.71C610.21,482,605.59,489.75,600.44,497.08Zm47.5-26.61c-.7,2.49-1.3,3.43-1,3.88,2.11,3.64.73,6-1.47,9.45a118.1,118.1,0,0,0-11.94,23.06c-3.65,9.94,4.08,18.83,15.26,18.75C655.91,507.7,657.81,489.89,647.94,470.47Zm19.86,19.2c1.86-10.33-4.54-17.27-9.81-24.3-3.2-4.27-7.65-8.29-14.57-7.48,5.35,5,10.93,9,14.93,14.27S664.72,483.79,667.8,489.67Z"/><path class="cls-3" d="M641.3,591.69c-15.42-2.28-27.18-14.92-27.94-29.51a7.9,7.9,0,0,1,2.7-7c3.65-3.47,6.37-7.93,9.52-12,12.76,4.31,16.72,24.65,17.16,43.92l-5.55-5.43-1.39,1.09Z"/><path class="cls-3" d="M609,577c1.69-.14,3.73-.84,4.2-.26,3.62,4.44,9.27,7.66,8.57,14.82a73.54,73.54,0,0,0,0,14.76c.75,7.11-1.94,12.33-7.39,16.48-.36-1.8-.72-3.61-1.36-6.86l-3.1,4.76-7.16-2.9C604.73,604.71,606.78,591.32,609,577Z"/><path class="cls-3" d="M566.67,563.31c1-2.08,2.45-4.64,3.52-7.34a11.76,11.76,0,0,0,1-5.33c-1-9.27,4-15.92,9.69-22.08,1.41-1.52,4.25-1.72,6.62-2.6,1.93,4.79,3.31,8.91,5.22,12.76s4.39,7.47,7.12,12Z"/><path class="cls-3" d="M701.56,690.82c-4.43.59-6-.93-6-4.84,0-6.21,3.79-10,8.1-13.45a25.64,25.64,0,0,1,6.06-4c6.72-2.76,7.78-8.29,7.7-14.55a74.36,74.36,0,0,1,.61-12.17A69.73,69.73,0,0,1,720.53,673C711.46,676.57,704.65,682.07,701.56,690.82Z"/><path class="cls-3" d="M591.14,558.16c2-.82,3.94-1.65,5.93-2.45,5.87-2.34,11.36.38,12.81,6.6a94.82,94.82,0,0,1,1.27,9.45C601,575.29,596,571.83,591.14,558.16Z"/><path class="cls-3" d="M712,635.63c-5.31-17.53-10.11-33.36-14.91-49.18C706.18,595.13,714.3,622.19,712,635.63Z"/><path class="cls-3" d="M769.82,677.43c-2.61,4-5.06,7-6.65,10.42-1.45,3.13-2,6.69-2.89,10-2.59.9-4.29.23-5-2.53-1.51-6.14,5-17.44,11.17-19.13C767.28,676,768.38,676.89,769.82,677.43Z"/><path class="cls-3" d="M778.58,681.73c-5.18,5.27-9.29,9.45-14.35,14.58.76-3.37.89-6.21,2-8.54a17.7,17.7,0,0,1,5.47-6.87C773.1,680,775.92,681.33,778.58,681.73Z"/><path class="cls-3" d="M846.1,664.48l4.63,6.27c-5.23,1.2-5.42.93-4.62-6.13Z"/><path class="cls-3" d="M846.11,664.62l9.5,1.78-.63,2.24c-3-1.37-5.91-2.74-8.87-4.14C846.1,664.48,846.11,664.62,846.11,664.62Z"/><path class="cls-3" d="M597.86,648.63v-5.9h.52v5.9Z"/><path d="M362.33,210.51l9.48-6.11c1.53,3.22-.8,4.41-2.38,5.27-3.78,2-4.52,4.66-3.67,8.8,1.48,7.2,2.43,14.53,3.2,21.84.28,2.62.15,5.74-1,8-4.29,8.18-11.43,13.89-18.83,19-3.67,2.53-10-.76-10.9-5.34a43.29,43.29,0,0,1-.66-12.23c.84-8.66,2.19-17.28,3.46-25.89a21.08,21.08,0,0,1,1.72-5.45C346.51,209.84,352.47,204.53,362.33,210.51Zm1.62,22c.55-5.56.15-11-2.73-16.15-13.05,6.8-18.61,16-18.7,30.45C351.85,236.15,353.79,236.6,364,232.52Zm-19.78-8.36,16.52-13c-4.36,0-7.34-.89-9.18.18C347.19,213.84,344.48,217.88,344.17,224.16Zm9.05,26.71c10.16,1.68,13.16-1.51,11-10.63Z"/><path d="M250.77,234.43c-3.54-4.76-7.59-6.17-12.63-4.71-4.82,8.15.16,14.55,3.47,21.19-5.88,1.15-5.88,1.15-10-15.51-1.7,2.78-3.27,5.37-4.87,7.93-.07.1-.52,0-1.37-.13-.83-6.19,1.88-10.7,6.82-14.08,5.69-3.88,11.76-3.86,17.88-1.05C252.58,229.23,253,231.1,250.77,234.43Z"/><path d="M409.75,515.84h-10.5c3.69-4,7.25-1.78,10.48-2.48C409.74,514.19,409.74,515,409.75,515.84Z"/><path d="M403.62,495.66h9.85c-3.39,3.66-6.59,2.28-9.67,1.75Z"/><path d="M396.66,528.37l9.12,4.06C400.45,533.47,398.49,531.07,396.66,528.37Z"/><path d="M380.64,474.21l5.64,1.35-.34,1.5-5.65-1.27Z"/><path d="M351.05,639c5.31,3,11.77,4.27,16.83,11-7.69-1.14-12.32-5.72-18.68-7.19.86-1.58,1.45-2.66,2-3.75Z"/><path d="M210.81,674.26c.69,6.75.66,7.19,7.45,9.41,15.22,5,30.76,7.11,46.68,3.66,8.26-1.79,11.14-4.8,12.45-13.09,4.27.23,5.27,3.16,3.33,5.82a26.9,26.9,0,0,1-9.46,8.37c-8.81,4.22-18.58,4.72-28.06,3.69-9.16-1-18.23-3.25-27.19-5.54-3-.77-5.85-3-8.16-5.21C204.86,678.51,205.88,676.44,210.81,674.26Z"/><path d="M284.12,152.58c7.2-1.9,10.32-1.61,11.66,2a10.16,10.16,0,0,1-.52,7.45c-1.55,2.88-6,3.29-8.79,1.41C282.25,160.59,282.92,156.59,284.12,152.58Zm2.68,2.82c-.72,4.49,1.12,6.36,4.79,5.94.94-.11,2.51-2.23,2.36-3.21C293.31,153.86,290.28,154.47,286.8,155.4Z"/><path d="M647.94,470.47c9.87,19.42,8,37.23.81,55.14-11.18.08-18.91-8.81-15.26-18.75a118.1,118.1,0,0,1,11.94-23.06c2.2-3.4,3.58-5.81,1.47-9.45C646.64,473.9,647.24,473,647.94,470.47Zm-2.59,19.23c-9.56,12-10,14.11-4.47,18.37C646.46,502.82,647.15,500.22,645.35,489.7Zm1.06,33.91c1.41-4.32,2.37-7.24,3.22-9.84l-13.78,2.72Z"/><path d="M600.44,497.08c5.15-7.33,9.77-15.13,15.68-21.8,2.89-3.27.88-6.39,1.79-9.71,8.6,9,8.49,25,.1,43.82-13.39,2.19-18.18-1.27-17.41-12.54ZM615.84,481c-9.13,7.86-10,9.85-6.55,15.64C615.57,493.7,616.73,490.94,615.84,481Zm-11.71,19.61c1.73,5.46,4.13,7.47,8.54,7.29,3.68-.15,4.34-2.39,4.35-4.75Z"/><path d="M667.8,489.67c-3.08-5.88-5.47-12.3-9.45-17.51s-9.58-9.28-14.93-14.27c6.92-.81,11.37,3.21,14.57,7.48C663.26,472.4,669.66,479.34,667.8,489.67Z"/><path class="cls-3" d="M364,232.52c-10.16,4.08-12.1,3.63-21.43,14.3.09-14.4,5.65-23.65,18.7-30.45C364.1,221.52,364.5,227,364,232.52Z"/><path class="cls-1" d="M344.17,224.16c.31-6.28,3-10.32,7.34-12.84,1.84-1.07,4.82-.18,9.18-.18Z"/><path class="cls-3" d="M353.22,250.87l11-10.63C366.38,249.36,363.38,252.55,353.22,250.87Z"/><path class="cls-16" d="M286.8,155.4c3.48-.93,6.51-1.54,7.15,2.73.15,1-1.42,3.1-2.36,3.21C287.92,161.76,286.08,159.89,286.8,155.4Z"/><path class="cls-3" d="M645.35,489.7c1.8,10.52,1.11,13.12-4.47,18.37C635.32,503.81,635.79,501.69,645.35,489.7Z"/><path class="cls-3" d="M646.41,523.61l-10.56-7.12,13.78-2.72C648.78,516.37,647.82,519.29,646.41,523.61Z"/><path class="cls-3" d="M615.84,481c.89,10-.27,12.73-6.55,15.64C605.87,490.82,606.71,488.83,615.84,481Z"/><path class="cls-3" d="M604.13,500.58,617,503.12c0,2.36-.67,4.6-4.35,4.75C608.26,508.05,605.86,506,604.13,500.58Z"/></svg>