<svg id="Calque_1" data-name="Calque 1" xmlns="http://www.w3.org/2000/svg" xmlns:xlink="http://www.w3.org/1999/xlink" viewBox="0 0 920.6 699.8"><defs><style>.cls-1{fill:#ffd7c2;}.cls-2{fill:#fff;}.cls-3{fill:red;}.cls-4{fill:#e98b38;}.cls-5{fill:none;}.cls-6{fill:#fff435;}.cls-7{fill:url(#Dégradé_sans_nom);}.cls-8{fill:#009245;}.cls-9{fill:#39b54a;}.cls-10{fill:url(#Dégradé_sans_nom-2);}.cls-11{fill:#ed1c24;}.cls-12{fill:url(#Dégradé_sans_nom-3);}.cls-13{fill:url(#Dégradé_sans_nom-4);}.cls-14{fill:#b35b3d;}.cls-15{fill:url(#Dégradé_sans_nom-5);}.cls-16{fill:#e2001a;}.cls-17{font-size:40px;font-family:LucidaHandwriting-Italic, Lucida Handwriting;font-style:italic;}.cls-18{font-size:46px;}.cls-19{font-size:49px;}</style><linearGradient id="Dégradé_sans_nom" x1="-2654.59" y1="3101.66" x2="-2620.25" y2="3101.66" gradientTransform="translate(-2932.71 -2488.04) rotate(-90)" gradientUnits="userSpaceOnUse"><stop offset="0" stop-color="#fff"/><stop offset="1"/></linearGradient><linearGradient id="Dégradé_sans_nom-2" x1="-2635.2" y1="3082.62" x2="-2620.91" y2="3082.62" xlink:href="#Dégradé_sans_nom"/><linearGradient id="Dégradé_sans_nom-3" x1="-2631.15" y1="3131.51" x2="-2624.78" y2="3131.51" xlink:href="#Dégradé_sans_nom"/><linearGradient id="Dégradé_sans_nom-4" x1="-2668.76" y1="3069.29" x2="-2662.73" y2="3069.29" xlink:href="#Dégradé_sans_nom"/><linearGradient id="Dégradé_sans_nom-5" x1="-2633.2" y1="3137.41" x2="-2629.69" y2="3137.41" xlink:href="#Dégradé_sans_nom"/></defs><title>Astérix chez les insaliens</title><polygon class="cls-1" points="178.55 257.51 210.95 243.51 241.15 273.11 224.55 291.71 219.75 296.91 204.35 304.61 196.05 305.51 189.45 304.91 180.95 300.11 173.15 294.21 178.55 257.51"/><polygon points="210.95 305.51 222.65 296.91 223.55 300.71 225.45 311.81 228.95 325.11 234.75 343.11 240.55 359.71 246.05 375.21 251.95 399.31 253.75 412.21 253.45 437.21 233.25 443.11 149.65 416.01 147.15 392.61 150.75 390.81 157.95 340.01 169.55 298.71 171.95 297.41 177.15 301.41 187.15 307.51 210.95 305.51"/><path d="M114.75,423.61c-3.4,1.5-5.7,0-7.1-4.3a47.84,47.84,0,0,1-6.2-2.6,5.17,5.17,0,0,1-1.8-7,6.42,6.42,0,0,1,1-1.3,8,8,0,0,0,1.3-1.3c.9-1.3.7-1.9-.9-2.6-4.8-2.3-9.8-4.3-14.4-7a89.87,89.87,0,0,1-11.1-8.4c-5-4.1-8.3-9.6-11.4-15.1-2.6-4.5-5.6-9-6.4-14.3-.2-1.4-.4-2.8-.6-4.5-3.3-.4-2.1-3.4-2.7-5.4-.5-1.8,1-2.8,2-4.1a20.18,20.18,0,0,1,7.5-5c5.9-2.9,11.7-5.7,17.6-8.4,3.9-1.8,7.9-3.3,11.8-5.1s8-4,11.9-6c3.5-1.6,7-3.2,10.5-4.7,8.6-3.6,17.3-7.2,26-10.7,7.3-2.9,14.7-5.5,22-8.3a9.39,9.39,0,0,0,2.6-1.4c-4.2.7-7.1-1.5-10.2-3.7-4.9-3.4-6.4-8.6-8.3-13.7a65,65,0,0,1-2.2-7.4c-7.7-.3-14.2-2.9-17.5-10.9-4.7,5.7-10.5,6.6-17.2,4l-.2.4a46.81,46.81,0,0,0,2.9,3.7c.7.7,1.1,1.4.7,2.3a1.69,1.69,0,0,1-2.1,1.1h-.1a14.43,14.43,0,0,1-4.5-1.7c-4.7-3.4-9-7.1-11-12.8-.7-1.8-1.6-3.5-2.6-5.8a9.68,9.68,0,0,1-.8,2.4,2.91,2.91,0,0,1-1.7,1.4c-1,.1-1.5-.6-1.7-1.7-.7-3.4-2-6.7-1.9-10.2.1-2,0-4.1.2-6.1a35,35,0,0,1,6.2-16.1c2-2.7,4.1-5.5,7.6-6.9a2.86,2.86,0,0,0-3.6-.2c-1,.4-2,.6-2.6-.4s.1-1.8,1-2.5c2.6-2,5-4.3,7.6-6.2a22.34,22.34,0,0,1,14-3.8,25.63,25.63,0,0,1,11.6,3c-.1-.9-.2-1.5-.3-2.1-.4-4.2-.8-8.3-1.3-12.5a23.23,23.23,0,0,1,0-9.1c.5-2.1,1-4.1,1.5-6.2a3.2,3.2,0,0,0-.3-3,37.48,37.48,0,0,1-2.1-5c-3.8,3.5-7.8,2.1-11.7-.1a30.21,30.21,0,0,1-10.3-9.8,21.07,21.07,0,0,1-3.5-14.2,22.26,22.26,0,0,1,1.3-4.4l-1.4-2.1-7.5-10.5a2.19,2.19,0,0,1-.3-.5c-.9-3-2-6.1-2.8-9.1a12,12,0,0,1,1-7.9c.5-1.3,2-2.2,3.2-3.4-.9-2.2-2-4.6-2.8-7.2-1.2-3.9-1.8-7.8.2-11.7a5.66,5.66,0,0,1,2.6-2.9c1.4-.6,1.7-1.5,1.3-3a39.27,39.27,0,0,1-.7-17.7,38,38,0,0,1,3.5-9.2c1.3-2.4,3.9-3.5,7-3.7.2-1.4.3-2.8.5-4.2.3-2.8.4-5.7.9-8.5.7-3.9.9-7.8,2.7-11.4a23.43,23.43,0,0,1,2.6-4.3c1.5-1.9,5-1.4,6.4.9a15.89,15.89,0,0,1,2.4,6.7c.7,5.7,0,11.2-.4,16.8-.3,4.7-.4,9.4-.3,14.2a41.77,41.77,0,0,0,4.7,18.7c3.2,5.7,6.6,11.4,9.8,17.1a23.35,23.35,0,0,1,2.1,4.9c2,5.9,3.9,11.8,4.5,18.1.3,4.5.1,9,.2,13.4a43.1,43.1,0,0,1-.9,7.1,28.19,28.19,0,0,0,3.6-3.3,18.94,18.94,0,0,1,6-4.5c3.6-1.9,6.6-.4,7.5,4.2a8.85,8.85,0,0,1,0,2.3c.9-.3,1.9-.6,2.8-1,3-1.5,5.9-3.1,8.9-4.4a38.59,38.59,0,0,1,5.8-1.7c-2.2-4.9-5.2-9.6-3.3-15.4a80.34,80.34,0,0,1-3.9-9.1,18.45,18.45,0,0,1,1.9-15.2c.7-1.2,2.4-1.8,3.6-2.7-.6-2.4-1.3-4.9-2-7.3a29.44,29.44,0,0,1-.9-9.8,5.91,5.91,0,0,1,4.6-5.9,13.79,13.79,0,0,0,2-.8,15,15,0,0,0,0-3c-1.2-5.9-.1-11.7,0-17.5.1-4.2,2.3-7.9,4.7-11.2.9-1.3,3-1.8,4.5-2.6a11.63,11.63,0,0,1,1.8-.4l.7-3.3a101.2,101.2,0,0,1,2.5-10.9,28.11,28.11,0,0,1,4.1-8.1c1.4-1.8,3.6-3.9,6.4-2.7a13.47,13.47,0,0,1,5.7,4,8.63,8.63,0,0,1,1.9,5.8,112.27,112.27,0,0,1-2.5,19.1,117.92,117.92,0,0,0-1.9,11.9c-.3,3.1-.3,6.2-.4,9.3a76.43,76.43,0,0,0,2.4,17.9,109.63,109.63,0,0,1,3,22.8,77.79,77.79,0,0,1-4,23.9,28.06,28.06,0,0,1-5.2,9.8,1.87,1.87,0,0,1,.4.3c2.8-1.7,5.6-3.5,8.5-5,3.6-1.8,7.3-3.4,10.9-5.1,2.2-1,4.2.3,6.2.9,1.2.3,1.3,2.9.3,3.6a5.12,5.12,0,0,1-2.1,1,66.56,66.56,0,0,0-21.1,7.5,8.64,8.64,0,0,0-1.6,1,5.5,5.5,0,0,0-.7.9l3.6,3.6c1.2-.6,2.4-1.1,3.6-1.7a45.64,45.64,0,0,1,13.4-4.3,5.85,5.85,0,0,1,1.3-.2c2,0,3.4.9,3.5,2.5a3.79,3.79,0,0,1-3,3.9,8.55,8.55,0,0,1-1.6,0,34.19,34.19,0,0,0-4.5.4c-2.7.5-5.4,1.1-8.1,1.7a13.36,13.36,0,0,0-1.8.7,15.52,15.52,0,0,0,.4,2.1c1.1,3.3,2.1,6.5,3.4,9.7a2.69,2.69,0,0,0,1.8,1.3,5.53,5.53,0,0,1,3.9,6.8l-.3.9c-.8,2-2.3,3.6-2.1,6,.1,1.2,0,2.5.1,3.7.5,4.9,1,9.8,1.7,14.6.4,3.3,1,6.5,1.5,9.9a11,11,0,0,0,1.8-.2,17.33,17.33,0,0,1,3.2-.3,54.14,54.14,0,0,1,15.5,2.6,15,15,0,0,1,10.9,13.8,20.59,20.59,0,0,1-.1,8.2,10.7,10.7,0,0,1-1.3,3.1c-1.2,2-1.7,4.5-3.6,6.2a22,22,0,0,0-1.4,1.8,4.89,4.89,0,0,0,1.2,1.3,14.45,14.45,0,0,1,4.7,5.7,35.36,35.36,0,0,1,4.6,17.4c0,1.2.4,2.4.4,3.7a31,31,0,0,1-2.2,12.7c-1.7,4.5-3.3,9.1-6.5,12.8a49.52,49.52,0,0,1-12.1,11.2,6.48,6.48,0,0,0-1.6,1.7c-.8.9-1.1,2.2-2.3,2.8l-1.9-6-2.5,1.3.4-4.6c-1.5-2-2.5.3-4,.4a3.79,3.79,0,0,1,0-1.5c.7-2,.4-4.1.9-6.1a19.66,19.66,0,0,0,.2-6.4,32,32,0,0,0-1.6-6.8,44.83,44.83,0,0,0-6.8-13,20.11,20.11,0,0,0-6.9-7,72.43,72.43,0,0,0-14.1,11.8,103.55,103.55,0,0,0-7.7,8.5,67.36,67.36,0,0,0-9.1,14.4,12.11,12.11,0,0,0-.9,7c.5,2.5.4,2.6-2,2a9.15,9.15,0,0,0-1.7.1c3.7,2.8,7,5.4,10.5,7.9,4.8,3.5,10.5,4.1,16.1,3.5a35.43,35.43,0,0,0,14.6-5.7,71.7,71.7,0,0,0,10.1-8.1c.3-.3.9-.2,1.7-.3a12.58,12.58,0,0,1-3.6,5.5c-2.3,2.1-4.8,4-7.1,6.1a3.74,3.74,0,0,0-1.2,2c-.5,1.9-.6,3.9-1.2,5.7a10.47,10.47,0,0,1-7.9,6.9,18.85,18.85,0,0,1-18.7-4.1,14.93,14.93,0,0,1-1.2-1.4c-2.1-1.9-2.3-5.3-5-6.8,0-2.2-1.9-2.8-3.2-3.9-1.6-1.5-3.5-2.7-5.3-4.1l-2.4,1.4a21,21,0,0,1,6.3,6.3,19.07,19.07,0,0,1,3,7.9c.6,3.1-.7,5.8-2.1,8.4a51.11,51.11,0,0,1-5.4,9c-3.1,3.7-6.4,7.5-11.5,8.8a6.63,6.63,0,0,0-1.9.9,18.19,18.19,0,0,0,0,3.3,48.39,48.39,0,0,1-.4,11.4c-.3,2.6-.3,5.2-.6,7.7a149.13,149.13,0,0,1-3.2,18.9,39.59,39.59,0,0,1-3,9.4c-.6,1.2-1,2.5-3,2.4,1.2,1.9,2.4,3.8,3.8,5.6a20,20,0,0,1,4.9,13.4,16.24,16.24,0,0,0,.2,1.8l4.5,1.5c6.1,2,12.2,3.9,18.3,6a4.18,4.18,0,0,0,3.1-.2,9.33,9.33,0,0,1,10.8,2.2l1.7,1.8a28.87,28.87,0,0,1,4.5.6,8.36,8.36,0,0,0,4.7-.1,26.55,26.55,0,0,1,9.7-1.4,10.12,10.12,0,0,1,7.7,4.7c1.2,1.6,2.3,2.9,4.5,2.7a5.37,5.37,0,0,1,2.1.5,3.58,3.58,0,0,0,2.5,0c2.1-.6,4.3-1,6.4.5a4.76,4.76,0,0,0,2.3.7c4.7.3,9.4.6,14.5.9a58.5,58.5,0,0,0,.4-7.1,130.46,130.46,0,0,0-.6-15.3,140.83,140.83,0,0,0-4.2-24.2c-.7-2.7-1.1-5.5-1.9-8.1-2.2-6.8-4-13.7-7-20.2-1.1-2.7-2.1-5.5-3-8.3-2.5-7.5-5.2-15-7.5-22.6-1.7-5.6-3.2-11.3-4.6-17-.9-3.6-1.3-7.4-1.9-11.1a1.55,1.55,0,0,1,.9-2,1.72,1.72,0,0,1,2.2.4,5.6,5.6,0,0,0,1.5,1c6.3,2.1,12.5,4.2,18.8,6.3,7.9,2.6,15.8,5.1,23.6,7.8,3,1,6,2.5,9,3.6,6,2.1,12.1,3.8,18,6,7.9,2.9,15.8,5.5,23.4,9.2,6.3,3.1,12.9,5.6,19.4,8.6,2.8,1.3,5.4,3,8.2,4.5a4.22,4.22,0,0,1,2.2,3.5,19.67,19.67,0,0,1,.1,4.2c0,1.7.5,2.4,2.3,2.7,1,.1,2,.1,3,.1,4.2.2,8.4.4,12.6.4s8.6-.3,12.9-.5c3.5-.1,7-.4,10.5-.5,7.5-.2,15-.3,22.6-.3,4.5,0,9,.4,13.4.3s9.1-.6,13.7-.6,9.1.3,13.6.5c1.9.1,3.7.1,5.6.1h18.8c4.6,0,9.3.1,13.9.1H513a140.27,140.27,0,0,1,14.5.1c9.9,1.1,19.8.6,29.7,1.3,1.3.1,2.7-.2,4-.2,8.9.1,17.7.4,26.6.3,7.5-.1,14.8-.7,22.2-.8,5.7-.1,11.4.1,17.2.3,6.3.2,12.7.5,19.1.7l21.2.6c4.8.1,9.6.2,14.5.5,8.3.6,16.5,1.3,24.8,1.9,4.6.3,9.3.4,13.9.8,10.5.8,21.1.7,31.6,1.1,7.7.2,15.3.9,23,1.4,3.3.2,6.6.3,9.9.6,6,.6,12,1.3,18.1,1.9,5,.5,10.1.9,15.2,1.5,6,.6,12.1,1.3,18.1,1.9l12.3,1.2c8.3.9,16.7,1.7,25,2.6,5.1.5,10.1,1,15.2,1.7,6.3.8,12.5,1.7,18.8,2.5H909c2.2.1,2.3.4,2.4,2.6.3,5.8-1,11.4-1.5,17-.5,6.1-2.1,12.1-1.8,18.4.2,4.2-.7,8.5-1.3,12.8-.7,5.2-1.8,10.4-2,15.7-.2,4.7-1,9.4-1.4,14.1s-.5,9.6-.7,14.5c-.3,5.1-.5,10.2-.9,15.2-.5,6.3-1.1,12.6-1.6,18.9-.2,2.4-.3,4.8-.5,7.2-.4,4.5-.9,9-1.2,13.3,0,1.1.5,2.2.5,3.3a9.24,9.24,0,0,1-.8,2.7,5.43,5.43,0,0,1-1.8,0c-2.6-1.4-5.3-1.1-8-1.3a59.26,59.26,0,0,1-7.3-1.6c-6.4-1.2-12.7-2.6-19.3-2.4a39.34,39.34,0,0,1-4.8-.6l-10.7-1.5c-2.2-.3-4.4-.5-6.6-.7l-12.8-1.2c-6.8-.6-13.7-.6-20.5-1.9a25.59,25.59,0,0,0-6.2-.2,129.88,129.88,0,0,1-15.2-1.3c-3-.3-6.1-.2-9.1-.3l-21.9-.9c-3.2-.1-6.4,0-9.7-.2a123.27,123.27,0,0,1-14.9-1.5c-3.9-.6-7.8-.8-11.7-1.1-5.3-.4-10.7-.8-16-1-2.9-.1-5.7.4-8.6.3-6.9-.2-13.9-.6-20.9-1-1.8-.1-3.6-.1-5.4-.2-6.2-.2-12.3-.3-18.5-.6-3.9-.2-7.8-.6-11.7-.9-1.5-.1-3-.1-4.6-.1l-14.2-.6c-9.5-.3-19.1-.3-28.6-.7-7.5-.3-14.9-.1-22.5.1-9.7.4-19.5.6-29.2.6-16.5.1-33.1.1-49.6,0-7.5,0-14.9-.4-22.5-.6-6.7-.3-13.4-.7-20.1-.9-3.9-.1-7.8.3-11.8.3-4.5,0-9.1-.3-13.6-.3-8.3.1-16.6.5-24.9.6-8.8.1-17.6,0-26.4-.2-7.8-.2-15.7-.8-23.5-.9-4.2,0-8.3.6-12.5.8-7.9.3-15.7.4-23.6.7-5.4.2-10.9.8-16.3,1.1a40.7,40.7,0,0,1-5-.3c-.8-7-.3-13.9-.4-20.8s.6-13.8.8-21l-11.9,4.9c-.5.2-1,.5-1.5.7-4.3,2.3-8.3,1.5-12.1-1.3-2.2-1.6-4.5-3.2-6.9-4.9a44.42,44.42,0,0,1-11,20.3c-2.4-.7-2.5-.8-3.7,1-1.4,2.2-2.8,4.4-4,6.7-1.6,3.1-3.1,6.3-4.6,9.4a130.9,130.9,0,0,1-11.9,20.9l-.6.9c-3.9,6.3-7.8,12.6-11.8,18.8a127.41,127.41,0,0,1-7.8,11.4c-3,3.7-5.5,7.7-8.2,11.6-3.3,4.8-7,9.5-10.5,14.2-3.8,5.2-7.5,10.5-11.3,15.6-4.5,6-9.2,11.6-13.6,17.5-2.9,3.8-5.5,7.9-8.2,11.8-1.2,1.7-2.3,3.6-3.7,5.8a13.64,13.64,0,0,1,9.7,4.3c2.4,2.1,5.5,3.9,6.1,8a58,58,0,0,0,10.1,1.9l13,1.5c2.7.3,5.5.4,8.3.8,6.4.9,12.8,1.7,19,3a29.21,29.21,0,0,1,11.6,5.3,13.53,13.53,0,0,1,4.6,6.2c1.2,3,.6,5.2-2.2,7.3a66.61,66.61,0,0,1-5.9,3.8c-1.4,7-6.3,10.2-12.9,11.6-4.7,1-9.5,1.8-14.2,2.7a120.38,120.38,0,0,1-18.9,1.5c-3,.1-5.9.2-8.8.2a52,52,0,0,1-15.6-3,84.21,84.21,0,0,1-17.3-8.5c-3.5-2.2-7.3-4.1-10.2-7.2-2.2-2.3-4.3-4.7-6.5-7.1-1.5-1.7-3-3.5-4.5-5.2a4,4,0,0,0-1.5-1,18.2,18.2,0,0,1-8.3-7.7,2.37,2.37,0,0,0-2.3-1.5c-1.2.1-1.5,1.1-1.8,2.1-.5,2-1,4-1.3,6a50.75,50.75,0,0,1-6,15.1,43.12,43.12,0,0,1-14.5,15.8,20.69,20.69,0,0,1-10.2,3.7,12.19,12.19,0,0,1-7.4-2,11.17,11.17,0,0,1-1.9-2.4,19.73,19.73,0,0,1-11,1.7,32.36,32.36,0,0,1-8.6-1.9,131.76,131.76,0,0,1-13.4-7.1,25,25,0,0,1-4.6-4.6c-4.5-1.1-9.1-2-12.6-6.1-3.2-3.8-2.2-9.4.3-12.3a49,49,0,0,1,7.5-7.6c4.3-3.3,8.4-6.8,12.7-10.1,3.1-2.4,6.5-4.5,9.7-6.6a7.09,7.09,0,0,0,3-3.6,23.08,23.08,0,0,1,5.6-8.1c5.2-5.5,10.9-10.3,18.2-12.9,1.8-.6,3.7-1.1,5.8-1.7,1.1-6.2,2.1-12.7,3.4-19,1.9-9,4-17.9,6.4-26.9,2-7.8,4.6-15.4,6.8-23.1,3-10.8,7.1-21.3,10.9-31.9.5-1.5,1.3-2.8,1.9-4.2,1.3-3.2,2.6-6.5,3.9-9.7,1-2.6,2.1-5.1,3.2-7.6.3-.7.6-1.5.9-2.2.4-1.8.3-2-1.5-2.8a7.73,7.73,0,0,1-4.9-5.2,8.86,8.86,0,0,0-.8-1.7,11.56,11.56,0,0,1-1.7-10.2v-.9a35.45,35.45,0,0,1-4.7-.7,4.86,4.86,0,0,1-3.7-5.7,5.22,5.22,0,0,1,1.4-2.5,6.58,6.58,0,0,0,2-5.8c-.8-5.1,1.5-9.4,4.2-13.4,3.2-4.6,7.8-7.5,12.7-9.9,1.9-.9,3.7-1.7,5.6-2.5.7-.3,1-.6.7-1.4,1.5,1.1,2.7.7,2.9-1a21.05,21.05,0,0,1,2.3-6.8,5.78,5.78,0,0,0,.5-1.4l-5.2-2.9a2.89,2.89,0,0,0-2.6-2.7,27.53,27.53,0,0,1-4.5-1.7c-.7-.3-1.5-.4-2.1-.6-1,1.3-1.9,2.3-2.7,3.3a3.63,3.63,0,0,0,.3,5.1,2.18,2.18,0,0,0,.8.5c2,1.2,3.8.4,5.7,0,1.4-.3,1.4-1.7,1.8-2.7a2.41,2.41,0,0,1,.6-.8c1-.1,1.8-.2,2.7-.3a22.08,22.08,0,0,1-4.5,7.5c.4,1.7,1,3,3.2,3.2.7,0,1.3.7,1.9,1l-.2.4Zm68-306.5c.2,2.8.3,5.7.6,8.5s1,3.3,3.8,3.2a21.6,21.6,0,0,1,11.9,3.3l1.8-1.6c-1-1.5-1-2,0-4.1a56.56,56.56,0,0,0,6.3-18.4c.7-5.8,1.8-11.4,1-17.3-.7-5.2-1.2-10.5-2.3-15.6s-2-10.7-2.7-16.1a41,41,0,0,1-.3-9.9c.3-4.3,1.2-8.6,1.8-13l.5-3.2c.8-4.8,1.8-9.7,2.4-14.5a30.11,30.11,0,0,0-.3-6.7,3.76,3.76,0,0,0-2.6-3.4,14,14,0,0,1-2.7-2.1,9.58,9.58,0,0,0-2.5,2,25.72,25.72,0,0,0-3.6,6.2,92.27,92.27,0,0,0-4.3,24.9,59.25,59.25,0,0,0,1.8,17.8c.3,1.2.4,2.5.7,3.7-6.3-8.8-5.6-18.8-4.8-28.8a3.09,3.09,0,0,0-3.8,1.5,18.35,18.35,0,0,0-4.1,9.2,83.23,83.23,0,0,0-.5,11.2c.1,4-.2,8,1.5,11.8a1.1,1.1,0,0,1,0,.8c0,3.4,1.9,6.2,2.7,9.4.7-.9,1.2-1.9,1.8-2.7a1.36,1.36,0,0,1,1.8-.7c.1,0,.2.1.3.2.8.6.5,1.2,0,1.9a18.94,18.94,0,0,0-2.9,7.7,29.24,29.24,0,0,0,2,18.2c.3.7,1,1.5.2,2.8l-3.4-5a54.41,54.41,0,0,0-.9,5.7,48.64,48.64,0,0,0,0,5.4,30.76,30.76,0,0,0,.4,5.3,37.13,37.13,0,0,0,1.6,4.7l-.6.3-2.6-2.6c0-.2.1-.5,0-.7-2.1-5.3-1.1-10.7-.7-16.1.1-1.6.5-2.8,2.2-2.8a1.58,1.58,0,0,0,.1-.4,27.33,27.33,0,0,1-.3-16.5,5.34,5.34,0,0,0-.4-3.3c-1.3-3-3.2-5.7-3.8-9.1a4.19,4.19,0,0,0-.9-1.4c-3.5.5-4.2.8-4.4,4a33.63,33.63,0,0,0,.5,8.4c1,4.3,2.3,8.6,3.7,12.9a27.54,27.54,0,0,1,1.9,9.8c-2.7-3.6-2.6-7.8-4.7-11.1-1.8-.2-2.7.6-3.3,2.3a19.61,19.61,0,0,0,0,14.3c1.1,2.9,2.3,5.8,3.4,8.7a14.13,14.13,0,0,1,.6,2.2c-.8-.1-1.2-.2-1.9-.3.4,4.2,1,8.3,3.4,11.9,1.5-.3,3-.6,4.1-.9-.7-2.5-1.5-4.8-2-7.1A3.9,3.9,0,0,1,182.75,117.11Zm42.7,398.4,6-12.6c.3-.6.5-1.2,1-2.4-1.4.6-2.2.8-3,1.2-2.1,1.1-4.2,2.3-6.4,3.3-1.4.6-2.8,1.7-4.8,1.1.8-.6,1.4-1.1,2-1.5,4.1-2.6,8.1-5.1,12.2-7.7,2.6,0,3.2-2.1,4.2-3.9l1.9-3.5c-3.7-.7-7.1-1.6-10.6-2a39.71,39.71,0,0,1-10.1-2.2c-3.1-1.3-6.4-2-9.6-3-1.2-.4-1.6.2-2.1,1.1-1.5,2.8-3,5.7-4.7,8.4a36.9,36.9,0,0,1-7.2,8.5,11.25,11.25,0,0,1-2.1,1.2c4.1-6.8,9-12.9,11.9-20.5-17.4-6.5-34.7-12.8-51.9-19.2-2.3,3.1-4.4,6.1-6.7,8.9-3.3,4-7.9,6.2-12.2,9a1.93,1.93,0,0,1-1,.3c-1.3-.1-1.9.7-2.3,1.8-.9,2-2.1,2.6-4,1.6a3.33,3.33,0,0,0-3.7.2c-4.2,2.8-8.8,3-13.7,2.5a15.33,15.33,0,0,1-1.1,2.7,38.08,38.08,0,0,0-3.7,9.7,13.16,13.16,0,0,1-1.3,3.8c-3.6,6.2-5.6,13.1-8.1,19.8-3.2,8.7-5.8,17.7-8.4,26.5-2.3,7.6-4.4,15.2-6.4,22.9-1.8,6.9-3.3,13.8-4.9,20.8-.7,3.3-1.1,6.7-1.7,10-1,5.3-2,10.7-3,16-.2,1.3-.1,2.6-1.8,3.3.4.2.8.4,1.3.6,2,.5,4,.9,6,1.4,3.7.8,7.5,1.7,11.3,2.4a15.48,15.48,0,0,0,4.3,0c.5,0,1.3-1.1,1.2-1.3-1.1-2.6.3-4.5,1.5-6.5,2.3-3.8,4.6-7.6,7-11.4s4.7-7.6,7.3-11.3c4-5.5,8.1-10.9,12.2-16.3,5.1-6.5,10.4-13,15.7-19.3,2.8-3.3,6-6.2,8.8-9.4,3.3-3.8,6.4-7.9,9.6-11.8.7-.8,1.2-1.8,1.8-2.6,4-4.8,8.1-9.5,11.9-14.5a86.42,86.42,0,0,0,5.7-9.1c-2.2-1.4-4.2-2.9-6.4-4.1a35.23,35.23,0,0,0-4.2-1.5c.7,1.2,1.1,2.1,1.7,3a4.71,4.71,0,0,1,0,4.6,1.17,1.17,0,0,1-1.3.8c-.1,0-.2-.1-.4-.2-.4-3.8-.7-4.6-2.9-6.3-1-.8-2.4-1.1-3.2-1.9a10.36,10.36,0,0,1-1.5-3.2v-.5c1-1.1,2.1-.7,3.2-.3a69.2,69.2,0,0,1,13.8,5.7,7.33,7.33,0,0,1,3,2.2c.7,1.3,1.6,1.2,2.6,1l12.6-2.4c1.4-.3,2.8-.4,4.2-.6l4.2-.6c-4.9,3.8-10.7,4.3-16.6,5.5a47.65,47.65,0,0,1,6.3,3.4c1.8,1.4,4.1,2.6,4.1,5.7-.5-.2-.9-.4-1.3-.6a31.1,31.1,0,0,0-9-5.2c-1.6-.7-3.3-1.3-5-1.9a2.27,2.27,0,0,0-3,1c0,.1-.1.1-.1.2-1.6,2.6-3.2,5.4-5,7.9-2.5,3.4-5.2,6.6-7.8,9.9-1.6,2-3.3,4-4.9,6-3.3,4.1-6.6,8.2-10,12.2s-6.9,7.5-10.1,11.4a12.72,12.72,0,0,0-3,8.4c-.1,2.1-.3,4.3-.6,6.4-.6,4.5-1,9.1-1.9,13.4-1.6,8.1-3.5,16.2-5.5,24.2s-4.4,16-6.7,23.9c-.3,1.1-.8,2.4-2.6,2.3l-.2-3a22.84,22.84,0,0,0-2.2,2.2c-1.2,1.8-.6,3,1.5,3.3a14.15,14.15,0,0,0,2.9.2c3.7-.2,7.3-.5,11-.9,2.8-.3,5.7.2,7.7-.9,2.2-3.5,4-6.4,5.8-9.4a200.56,200.56,0,0,1,14.9-21.5c6.5-8.4,12.8-17,19.2-25.4,2.5-3.4,4.9-6.8,7.5-10.2,1.9-2.6,3.9-5.1,5.8-7.7,1-1.4,1.8-2.9,2.8-4.3,3.8-5.5,7.8-10.9,11.5-16.4,4.3-6.5,8.4-13.1,12.5-19.7,2.9-4.2,5.6-8.7,8.3-13.1.8.2,1.5.1,1.6-1Zm70.3-61.7c-2.5-.2-4.2-1.9-5.8-3.6-2-2.2-4-4.5-6-6.7a3,3,0,0,0-.8.4c-2.9,2.4-5.7,4.8-8.5,7.3-.6.5-1.5,1.5-2,.7-1-1.5-1.9-.4-2.7-.2a4.81,4.81,0,0,1-3.9.2,7.19,7.19,0,0,1-4.4-5.3c-.5-2.7-.6-2.7,1.6-4.3.3-.2.5-.5.8-.7l7.1-7.3,4.6-4.6a12.11,12.11,0,0,1-7.7-10.2c-3.7,1.6-7.1,3.2-10.2,4.5,0,2,.1,3.6,0,5.2-.5,5.6-1.1,11.2-1.5,16.8a5.49,5.49,0,0,0,1,3.7,41.64,41.64,0,0,0,9.7,9.5,37.18,37.18,0,0,1,4.5,3.3,5.37,5.37,0,0,0,3.2,1.3,4.44,4.44,0,0,0,3.7-.7,80.77,80.77,0,0,1,14.8-7.9c.9-.5,1.7-1,2.5-1.4l2.4.4a4.53,4.53,0,0,1-1.2,3.7c-2.9,3.7-3.8,8.2-5.6,12.4a2.05,2.05,0,0,0,0,1.1c-.1,4.4-.3,8.8-.4,13.1-.1,6.9-.1,13.8-.2,20.7,0,1.6-.2,3.3-.3,5.1a17.52,17.52,0,0,0,4,.5c3.4-.5,6.9-.4,10.3-.7,5.3-.3,10.5-.2,15.8-.4,6.3-.3,12.7-.9,19-1,6.6-.1,13.2.3,19.8.4,3.5.1,6.9.1,10.5.2,4.7.1,9.4.3,14.1.3,7.2,0,14.5-.2,21.7-.3,8.5-.1,17-.3,25.5-.4,3.5,0,7,.2,10.5.2,4.2,0,8.4-.3,12.6-.1,8.1.3,16.1,1,24.2,1.3,8.8.3,17.7.2,26.5.2h20.4c2.9,0,5.7.4,8.6.3,5.9-.2,11.8-.6,17.6-.8,9.5-.3,18.9-.7,28.4-.7,13,.1,26.1.6,39.1,1,6,.2,11.9.5,17.9.7,10.4.4,20.7.9,31.1,1.4l7.2.3c6.2.3,12.5.7,18.7.7,5,0,10-.6,14.9,0,2.2.3,4.5.4,6.7.6,3.7.3,7.4.2,10.9.9a163.29,163.29,0,0,0,22.1,1.8c10.1.4,20.2.2,30.2,1.1,7.2.6,14.5.8,21.7,1.3s14.1,1.2,21.1,1.7c4.3.3,8.6.4,12.8.8,3,.2,5.8.8,8.8,1.2,4.1.5,8.1.9,12.2,1.4l4.5.6c5,.5,10.1.8,15.2,1.5s9.8,1.8,14.7,2.7c1.4.2,2.8.3,4.3.4.4-4.1.9-7.8,1.2-11.5.4-4.5.8-9.1,1.1-13.6.7-8.7,1.4-17.5,1.9-26.2.5-7.3.8-14.6,1.2-22,.3-4.4.7-8.7,1.1-13.1.2-2.6.5-5.2.8-7.7,1-7.6,2.6-15.1,2.6-22.8a146.41,146.41,0,0,1,2-18.7c.6-4.3,2-8.4.6-13-.9-.1-1.8-.4-2.8-.5l-12.2-1.5c-6.4-.7-12.9-1.5-19.3-2.3-2.8-.3-5.7-.7-8.5-1-3.5-.3-6.9-.5-10.5-.8-2.3-.2-4.6-.4-6.9-.7-3.9-.4-7.8-1-11.7-1.4-3-.3-6-.5-9.1-.8-4.9-.4-9.8-1-14.7-1.5-2.5-.2-5-.4-7.5-.7-6.4-.7-12.7-1.7-19.1-2.2-7.3-.6-14.6-1-21.9-1.4-6.9-.4-13.9-.7-20.8-.9s-13.5-.3-20.3-.6c-5.1-.2-10.1-.8-15.2-1.2-5.5-.4-11-.7-16.5-1l-26.7-1.5c-6-.3-12.1-.3-18.1-.6-4.2-.1-8.4-.4-12.6-.6s-8.1-.1-12.1-.1c-1.7,0-3.4-.3-5.1-.3s-3.2.3-4.8.3l-17.9.3c-2.8,0-5.7.3-8.5.3-7.2-.1-14.5-.4-21.7-.5-5.3-.1-10.5,0-15.8,0a109.85,109.85,0,0,1-11.5-.2,169.15,169.15,0,0,0-17.4-1c-8.8,0-17.5.1-26.3.1-7.9,0-15.9-.3-23.9-.4-2,0-3.9.3-5.9.3-4.3,0-8.6-.4-12.8-.4a130.2,130.2,0,0,0-15.3.2,122,122,0,0,1-17.1.1c-2.8-.1-5.5-.2-8.3-.2-3.5,0-6.9.4-10.5.4q-11,0-21.9.9c-3.9.3-7.9-.2-11.8-.2h-14a20.91,20.91,0,0,1-9.6,10.3,68.58,68.58,0,0,1-7.8,3.5,100.86,100.86,0,0,1-15.4,4.5c-2.5.4-5,1.2-7.5,1.7.4,2.2,1,4.2,1.2,6.2.9,7-2.3,13-4.7,19.1a21.11,21.11,0,0,1-2.6,4,10.88,10.88,0,0,1,5.8,7.1,16.05,16.05,0,0,1-.1,9.7,24.3,24.3,0,0,1-2,3.5,8.35,8.35,0,0,1-8.4,4.5,4,4,0,0,0-2.2.4c-2.9,2-5.6,4-8.4,6.1-.5.3-1.1.7-1.7,1,.8,1.1,1.2,1.7,1.6,2.2l7.3,8.2C296.15,451.91,296.75,452.71,295.75,453.81Zm-183.3-10.6,2.4,1.3a1.35,1.35,0,0,1,.7,1.6c0,.1-.1.1-.1.2a1.24,1.24,0,0,1-1.8.6l-3.9-1.8a13.11,13.11,0,0,0-6.4-1.5c-3,.3-4.5,2.4-2.9,5,2.4,4,5.1,7.8,10,9,2.3.6,4.5,1,6.8,1.7a6.68,6.68,0,0,0,6.7-1.7,61.47,61.47,0,0,0,8.6-8.3c3.1-3.8,6.4-7.5,9.4-11.3,1.9-2.4,3.6-5.1,5.5-7.6,1.1-1.4,2.6-2.5,1.7-4.6a1.85,1.85,0,0,1,.2-.7,55.94,55.94,0,0,1,2.2-5.7c3.2-6.5,1.6-12.4-2.3-17.9a53.8,53.8,0,0,0-6.5-7.8c-4.5-4.2-9.2-8.2-13.8-12.2s-9.1-7.8-13.7-11.5c-5.9-4.7-11.9-9.1-17.9-13.7-1.7-1.3-1.7-1.7-.1-3.8l12.3,8.4c2-1.4,3.7-2.8,5.6-3.9,5.1-3,10-6.3,15.5-8.4,7.1-2.7,13.9-5.9,20.9-8.9,2-.9,4.1-1.8,6.1-2.8a21,21,0,0,1,2.6-1.3,14.17,14.17,0,0,0,7.1-5.4c2.5-3.3,4.5-7,6.7-10.6,2.7-4.3,1.2-8.5-.7-12.4a17.33,17.33,0,0,0-7.3-6.9,2.8,2.8,0,0,0-2.2,0c-6.7,2.5-13.3,5.1-20,7.6-6.4,2.4-12.8,4.8-19.2,7.4-4,1.6-8,3.4-11.9,5.2a51.07,51.07,0,0,0-6.3,2.9c-7,3.9-14.1,7.3-21.3,10.5-4.7,2.1-9.5,4.2-14.1,6.5-4,2-7.8,4.3-11.6,6.7-2.7,1.7-2.8,4-.4,6.1a2.79,2.79,0,0,1,1.1,2.2,24.85,24.85,0,0,0,2.2,9.3c2.1,4,4.4,7.9,6.7,11.8a44.44,44.44,0,0,0,12.3,13.6c2,1.4,3.7,3,5.8,4.3,2,1.1,4.1,2.2,6.2,3.1,2.2,1.1,4.5,2.3,6.8,3.2,5.3,2.1,10.6,4.3,16,6a62.89,62.89,0,0,0,11.9,3c.7,0,1.3.7,2.3,1.3-1,.8-1.5,1.5-2.2,1.6-3.8,1-5.6,3.9-6.8,7.3a27.69,27.69,0,0,0-1.1,13.4,114.6,114.6,0,0,1,.6,11.7,2.28,2.28,0,0,1-2,2.6h0l-1.2-8Zm35.4-215.6a15.05,15.05,0,0,1-2.2-1.1c-1.3-1-2.5-2.3-3.9-3.2a12.44,12.44,0,0,0-9.9-1.9,1.94,1.94,0,0,1-2.5-.8,9.76,9.76,0,0,0-6.5-4.3,17.42,17.42,0,0,0-13.9,3.4c-2.7,1.9-4.7,4.8-7,7.3a3.38,3.38,0,0,0-.6,1.2,15.88,15.88,0,0,0-1.5,9.1q.6,3.45.9,6.9a7.52,7.52,0,0,0,3.7,5.6,15.33,15.33,0,0,0,7.8,2.5c4.5.4,8.5-.2,11.8-3.6a15.67,15.67,0,0,0,3.9-4.6c.3-.7,1.1-1.5,1.9-.9.4.3.4,1.2.6,1.9a2.2,2.2,0,0,1-.1.8,22,22,0,0,0,.1,11.1,13.4,13.4,0,0,0,15.5,10.4,76.59,76.59,0,0,1,5.5-21c2.7-7,8-12.1,12.7-17.7l-6.2-2.5c-.3.5-.4.6-.4.8,0,1.1-.5,1.7-1.6,1.6a1.67,1.67,0,0,1-1.7-1.6v-.4a8.78,8.78,0,0,1,1-3.5,6.59,6.59,0,0,1,5.8-3.3c.5,0,1.4.4,1.5.8a2.9,2.9,0,0,1-.5,1.8,5.63,5.63,0,0,1-1.4,1c.4.3.7.5,1,.7a15,15,0,0,0,8.4,1.1c3.8-.3,8.3-4.1,9-7.7a3.83,3.83,0,0,0-1.9-4.1,9.38,9.38,0,0,0-6.1-1.6,2.11,2.11,0,0,1-2.6-1.4c0-.2-.1-.3-.1-.5,1.2-.6,2.5-1.1,3.9-1.8-.2-.5-.5-.9-.7-1.5a25.5,25.5,0,0,1-2.2-5.4,74.85,74.85,0,0,1-1.3-9.5,34.22,34.22,0,0,1,1.3-11.5,8.41,8.41,0,0,1,7.3-6.5,3.82,3.82,0,0,1,3.5.9,14.18,14.18,0,0,1,4.7,9,44.67,44.67,0,0,1-1.1,16.7,14.1,14.1,0,0,1-3.5,7.5,30.41,30.41,0,0,1-2.5,2.1,8.27,8.27,0,0,1,1.6.9,7.08,7.08,0,0,1,3.3,6.1,7.47,7.47,0,0,1-2.8,6.5c-3.5,2.5-3.6,5.7-3.2,9.4a13.63,13.63,0,0,0,7.9,11.6,24.55,24.55,0,0,0,11.9,2.5c4.6-.2,9.3-.2,13.9-.7a42,42,0,0,0,9.3-2.2,97,97,0,0,0,9.3-4.1,17.76,17.76,0,0,0,4.8-2.8c4.5-4.2,9.2-8.4,12.4-13.9a16.31,16.31,0,0,0,1.9-10.8c-.5-4.7-2.4-8.7-6.9-10.8a28.41,28.41,0,0,0-6.8-2.2,34.51,34.51,0,0,0-10.1-1.2c-4,.4-8.2.2-11.8,2.8-.3.2-.7,0-1,.1-3.1.9-6.6,1-9.2,3.3a1.31,1.31,0,0,1-1.2.3c-1.6-.8-2.9.1-4.2.8a12.09,12.09,0,0,1-1.8.5c.1-2.7,3-2.4,3.8-4.3-.1-.6-.2-1.5-.3-2.3a71.72,71.72,0,0,1-1.5-16,13.41,13.41,0,0,0,0-4c-.6-2.4.4-4.5,1-6.5a4.4,4.4,0,0,1,3.7-3.1,3.72,3.72,0,0,1,4,2.5c.5,1.1,1.4,2.1,1.9,3.2a43.67,43.67,0,0,1,5.2,18.7,23.36,23.36,0,0,0,.4,2.6c1.3-.3,2.4-.5,3.5-.7a3.71,3.71,0,0,0,.2-.9c-.6-4-1.2-7.9-1.8-11.9-.2-1.7-.4-3.4-.7-5-.6-3.9-1.3-7.8-1.8-11.8a5.32,5.32,0,0,0-4.1-5c-1.9-.5-3.8-1-5.7-1.3-5.5-.9-7.9-3.9-7.2-9.5,1.6-1.1,3.1-.3,4.5.5a14.29,14.29,0,0,0,9.5,1.9,4.53,4.53,0,0,0-2.7-3.3c-2.1-1.1-4.4-2-6.5-3-1.3-.6-2.1.1-2.9.8-1.1,1-2,2-3,3s-1.6,1-3.1-.4l2.5-3.6-.3-.5c-1,.3-1.9.6-2.9.8-.7.1-1.8.5-2.2.2a2.49,2.49,0,0,0-2.7-.5,95.88,95.88,0,0,0-17.5,3.8,25.57,25.57,0,0,0-6.4,3.2,67.83,67.83,0,0,0-8.4,6.6,20.33,20.33,0,0,0-4.7,5.8c-1.7,3.7-3.7,7.3-4.5,11.4a3.43,3.43,0,0,0,1.2,3.7,11.43,11.43,0,0,1,2.4,2.5c3.2,5,6,10.1,5.9,16.3-1.6,1.6-3-.4-4.9-.5a15.18,15.18,0,0,1,2.9,9.4c0,1.1.1,2.3.2,3.4.1,1.6.1,1.6-1.9,1.9-1-1.1-1.3-3-3.1-3.1a77.6,77.6,0,0,1,1.3,8.2A83.79,83.79,0,0,1,147.85,227.61Zm156.1,153-.3-.6c.5-.6.9-1.5,1.5-1.8a48.69,48.69,0,0,1,7.1-3c3.8-1.2,7.8-2,11.6-3.3,5.7-1.9,11.7-3.3,16.8-6.8a15.18,15.18,0,0,0,7.1-13.6,4,4,0,0,0-2.2-3.7,46.38,46.38,0,0,0-10-4.9c-.9-.3-1.8-.7-2.7-1.1-1.6-.8-3.1-1.8-4.7-2.5-7.2-3.1-14.4-6.2-21.8-9-6.2-2.4-12.4-4.4-18.7-6.6-2.3-.8-4.7-1.5-7.1-2.4-5.3-2-10.6-4.2-16-6.1-7.1-2.5-14.2-4.7-21.3-7l-12.9-4.5a25.58,25.58,0,0,0-2.7-.5c.4,10,3.9,18.8,6.5,27.5,5.1,1.8,10,3.3,14.7,5.1,10.7,4.1,21.3,8.2,31.9,12.5,3.8,1.5,8,2.5,11,5.8,3.3-3.2,6.5-6.2,9.6-9.2a2.07,2.07,0,0,1,2.9-.4,1.21,1.21,0,0,1,.5.5,17.62,17.62,0,0,1-2.3,3.7,128.69,128.69,0,0,0-9.5,8.7,117.32,117.32,0,0,0-9.4,10.5,28.6,28.6,0,0,0-5.4,10.9,71.05,71.05,0,0,0-2,12.1c-.3,6.4-.7,12.8.7,19.2a20.21,20.21,0,0,0,.6,3.4c.8,2.3,1.7,4.5,2.7,6.7.7,1.5,1.5,3,2.2,4.4,4-1.1,4.5-1.7,3.5-5.3-.3-1-.6-2.1-.8-3.1s-.4-2.4-.6-3.6a2.35,2.35,0,0,1,.8-.2.55.55,0,0,1,.5.2c1.6,2,3.1,4,3,6.8,0,.8.2,1.4,1.3,1.3a11,11,0,0,0,.2-1.8c-.3-2.9,1.1-4.9,3.1-6.7a11.49,11.49,0,0,1,6-2.8,4,4,0,0,0,2.7-1.9,42.32,42.32,0,0,0,4.2-9.5,29.74,29.74,0,0,0,.9-14.5C306.65,381.61,306.05,380.31,304,380.61Zm-163.1-236.3A43.25,43.25,0,0,1,136,159a25.59,25.59,0,0,1,.2-6.2c.6-3.5,1.5-7,2.3-10.5a83,83,0,0,0,1.5-18.6,52.93,52.93,0,0,0-2.1-14.8,81.72,81.72,0,0,0-5-12.7c-3-6-6.7-11.5-9.8-17.4a36,36,0,0,1-3.4-9.5,88,88,0,0,1-1.1-11.4,45.92,45.92,0,0,1-.1-8.3,124.93,124.93,0,0,0,.6-21.2,10,10,0,0,0-1.8-4.7c-.9-1.5-2.2-1.2-3.2.4a23,23,0,0,0-2.7,8c-.7,5.1-1.9,10.1-1.8,15.3.1,3.7.1,7.3,0,11a73,73,0,0,0,2.3,19.8,10.29,10.29,0,0,1,.2,5.5,3.69,3.69,0,0,1-2.4-3.3c-.5-2.6-.7-5.1-1.4-7.6a47.15,47.15,0,0,1-1.1-13.5,43.73,43.73,0,0,0-.6-7.2,4.85,4.85,0,0,0-5.5,2.8,41.44,41.44,0,0,0-2.8,8.4c-1.1,5-.2,10,.7,14.8,1,5.2,2.8,10.3,4.3,15.4a42.93,42.93,0,0,0,1.6,4.3c-.9.9-1.6.6-2-.3-.9-2.1-1.8-4.3-2.6-6.4s-1.6-4.8-2.4-7.3a6.81,6.81,0,0,0-3.6,6.8c.3,5.8,2.7,10.9,5.4,15.8,1.5,2.8,3.2,5.5,4.8,8.2-.7.9-1.3.7-1.9,0-1.5-1.9-3-3.8-4.3-5.7-.5-.8-.9-1.6-2-1.3a2.57,2.57,0,0,0-2,2,14.28,14.28,0,0,0,.3,8.9c2.1,6,5.6,11.1,9,16.4l2.1,2.4c1.5,1.8,3.5,3.2,4.5,5.5-2.4,1-2.9-3-5.3-1.7a12,12,0,0,0-.5,6.5,27.35,27.35,0,0,0,11.6,15.5c3.5,2.2,7.3,3.7,11.6,2.7.9-5.9,3.1-8.7,6.6-8.2l-2.3,3.1a18.91,18.91,0,0,1,4-.8,2.51,2.51,0,0,0,2.2-1.2l6.1-9Zm-82.3,546c.2.3.2.5.4.6,3,2.3,6.2,2.1,9.4,1.1a24.67,24.67,0,0,0,9.9-6.6,39.89,39.89,0,0,0,9.5-13.5,143.55,143.55,0,0,0,6-18.2,3.83,3.83,0,0,0-1.3-4c-3.9-3.9-9-5.8-13.3-7.9-1.4.7-2.4,1.2-3.4,1.6a25.33,25.33,0,0,0-3.6,1.2c-3.3,1.8-6.6,3.8-9.9,5.7a4.13,4.13,0,0,1-1.9.2,40.44,40.44,0,0,1,14.8-10,4.92,4.92,0,0,0-2.9-.6,14.84,14.84,0,0,0-4.1,1.2c-4.4,2-8.6,4.2-13,6.3a6.47,6.47,0,0,1-1.3.4,1.23,1.23,0,0,1,.5-1c3.6-3.3,8-5.4,12.2-7.6a11.51,11.51,0,0,0,1.7-1.4c-4.2-.6-7.8-1.3-11.4-1.6-3.9-.3-7.9,0-11.8-.1-2.6-.1-5-.1-6.7,2.3a2.7,2.7,0,0,1-.8.7,211.26,211.26,0,0,0-17.4,12.4,86.27,86.27,0,0,0-11.6,11c-3.2,3.9-2.3,10,2.1,11.8,3.2,1.3,6.4,2.8,10,2.8a15.67,15.67,0,0,1,3,.5l.4.6-2,.9c.4.6.4.8.5.9a49.48,49.48,0,0,0,16.9,9.1A25.55,25.55,0,0,0,54,689a37.13,37.13,0,0,1,5.8-1.1,5.66,5.66,0,0,1,1.8.3,3.77,3.77,0,0,1-1.6,1.2A3.07,3.07,0,0,0,58.55,690.31Zm160-14.1c.3-.1.5-.2.8-.3,1.1-.9,2.2-1.8,3.3-2.8a3.85,3.85,0,0,0,1-5.3l-.1-.1a12.5,12.5,0,0,0-6.6-5.6,93.24,93.24,0,0,0-9.9-3c-2.3-.5-4.7-.9-7.1-1.2-6.7-.8-13.4-1.5-20.2-2.4-5.8-.7-11.5-1.3-17.2-2.3-2.9-.5-6-1.2-8-3.7-5.5,1-8.6,2.3-11.4,4.6,5.1,2.9,9.8,6.5,16.1,7.2-2.3,1.8-3.6,2.1-5.2,1.5a44,44,0,0,1-12.4-6.8,2.27,2.27,0,0,0-2.9-.2c-3.4,1.8-6.8,3.5-10.3,5.1s-6.6,3.2-10.5,2.8a10.88,10.88,0,0,0-3,.7c1.6,1.5,3.2,2.8,4.5,4.3a67.62,67.62,0,0,0,16.2,13,95.71,95.71,0,0,0,14.4,7,51.1,51.1,0,0,0,20.1,3.2c4.1,0,8.2-.6,12.3-.8a112.91,112.91,0,0,0,24.5-4,13.9,13.9,0,0,0,7.2-4.4c1.7-1.9,1.8-4.7.1-6a15.24,15.24,0,0,0-4.1-2.4,39.57,39.57,0,0,0-14.5-1.7,82.25,82.25,0,0,1-8.6-.1,17.39,17.39,0,0,1-5-1.7c-.6-.3-.9-1.2-1.4-1.8,1.6-1,1.6-1.1,2.8-.7a23.6,23.6,0,0,0,7.9,1.1c3.8,0,7.7-.1,11.5,0C208.85,669.61,214.65,670.81,218.55,676.21ZM153.45,459c2.7,1.2,5.4,2.4,8.1,3.4,4,1.5,8.2,2.6,12.1,4.2,9.6,3.7,19.1,7.6,28.8,10.7,1.8.6,3.5,1.4,5.2,2,4.2,1.4,8.5,2.7,12.7,4a8.33,8.33,0,0,0,1.5.4c7.7,1.5,15.4,2.8,22.9,4.2l3-6c.9-1.9,1.8-3.7,2.7-5.5,1.7-3.3,1.4-6.8,1.3-10.3a4.51,4.51,0,0,1-.4-5.4,1.55,1.55,0,0,0-.3-.6,60.68,60.68,0,0,1-18.5-1.4.75.75,0,0,0-.5.1,14.07,14.07,0,0,1-7.6-.9c-1.5-.4-2.7-1.8-4.2-2.2s-3.4.1-5-.1a7.29,7.29,0,0,0-3.6.3,13.79,13.79,0,0,1-11.9-.7,41.06,41.06,0,0,1-3.9-2.4,18.64,18.64,0,0,0-7.8-3.3c-1.9-.5-3.6-.4-5.4-1.8-1.5-1.1-3.9-.9-5.9-1.3-.7-.3-1.3-.6-1.9-.9a12.09,12.09,0,0,0-1.8-.5c-1.8-.3-3.7-.5-5.5-.9-2.5-.6-5-1.2-7.5-2a1.6,1.6,0,0,0-2,.8,4.46,4.46,0,0,0-.3,4.6c.9,1.8.4,3.6-1,3.8-1.7.2-1.9,1.3-2.1,2.5A38.38,38.38,0,0,1,153.45,459Zm120.4-40.8c.9-3.7,0-7.2-.9-10.6a32.31,32.31,0,0,1-.9-9.8c0-1.6.3-3.2.3-4.8a61.24,61.24,0,0,1,3.5-18.5c2-5.6,5.7-9.9,9.5-14.1,1.5-1.6,3.1-3.1,4.8-4.8-18.3-7.5-36.1-15.1-55.1-21.4,2,5.9,3.8,11.1,5.6,16.2,1.5,4.3,3.4,8.4,4.8,12.8,2.4,7.5,5.3,14.9,6.7,22.8.9,5,2.6,9.8,3.2,14.8.7,5.8,2.1,11.6,2,17.5a24.77,24.77,0,0,0,.3,2.7,2.66,2.66,0,0,0,1.2-.3c3-1.3,6-2.5,8.8-3.8,1.9-.8,2.1-.8,3,1.2a6.12,6.12,0,0,1,.5,1.2c.4,4.1,3.4,6.4,5.6,9.5l3.2-2.3-4.5-8.4c-.2.1-.5.2-.7.3-.1-.2-.5-.2-.9-.2Zm-71-167.5c-.2-.2-.3-.3-.3-.4h-.8c-6,.1-11.8,0-17.3-2.5s-9.7-6-10.5-12.4c-.2-1.4-.3-2.9-.4-4.3-.1-.9-.3-1.8-.4-2.7a9.44,9.44,0,0,0-6,2.2,51.46,51.46,0,0,0-6.5,6.7,37.57,37.57,0,0,0-7.5,12.8,98.26,98.26,0,0,0-3,10.2,26.78,26.78,0,0,0-.8,11.6,54.5,54.5,0,0,0,2,6.9q1.35,3.45,3,6.9a4.28,4.28,0,0,0,1.4,1.6,40.87,40.87,0,0,0,4.4,3.9c1.6,1.1,3.5,2.5,5.2,2.5s4.3.4,5.5-1.9c3,.9,3.5.7,3.3-2.3a15.57,15.57,0,0,1,2.6-9.1,46.88,46.88,0,0,1,4.9-7.6c2.5-2.9,4.4-6.3,7-9a86.34,86.34,0,0,1,13.4-12.2,2.42,2.42,0,0,0,.8-.9Zm29.1,41.1c.9-.3,1.9-.9,2.5-.7a2,2,0,0,0,2.4-.6c6-5.3,10.7-11.5,13-19.3a43.69,43.69,0,0,0,1.7-6.2,41.79,41.79,0,0,0,.1-10.6,38.27,38.27,0,0,0-4.3-15.6,12.29,12.29,0,0,0-5.1-5c-2.3,2-4.5,4.1-6.9,5.9a37.87,37.87,0,0,1-6,3.8,97.11,97.11,0,0,1-9.4,3.8c-2.3.8-4.6,1.5-6.9,2.2,6.9,7.2,11.9,15.4,13.9,25.4a31.92,31.92,0,0,1,.3,6.9,30.67,30.67,0,0,1-.7,4.2,3.76,3.76,0,0,0,.6,3.4q.15-.9.3-1.5l.4-1.5c.5-1.8,1.4-2.7,2.4-2.4,1.5.6,1.1,2,.8,3A4.49,4.49,0,0,0,232,291.81ZM112,363c6.1,5.1,11.9,9.9,17.7,14.7s11.5,9.9,17.4,14.9c1.1-3.5,2.3-6.8,3.2-10.1a143.05,143.05,0,0,0,3.9-24.3c.3-3.5.3-7.1.7-10.7a15.56,15.56,0,0,0-.4-5.7c-3.2,1.2-6.3,2.2-9.4,3.5-3.6,1.5-7.2,3-10.8,4.7s-6.9,3.2-10.3,5c-3,1.6-5.8,3.4-8.7,5.2-1,.9-2.2,1.8-3.3,2.8Zm18.8-153c-2.7-4.3-6.9-5.1-10.8-5.6a21.52,21.52,0,0,0-17.7,6,47.27,47.27,0,0,1,4,3.4c1.2,1.2.7,1.9-.5,2.5a6.11,6.11,0,0,1-1.3.3,10.32,10.32,0,0,0-5.4,3.2,32.42,32.42,0,0,0-7.7,16.4,45.08,45.08,0,0,0-.4,8.2,20.42,20.42,0,0,0,.8,4.3c1.3-1.6,2.1-3.5,4.3-2.5,3,10.6,6.9,16.8,11.5,19,0-.5-.1-.9-.1-1.4-.1-3,.5-3.6,3.4-3.3a6.64,6.64,0,0,1,2,.6,12.07,12.07,0,0,0,14-2.6,2,2,0,0,0,.6-1.4c-.2-2.3-.6-4.7-.9-7q-2,1.65-3.6,3.3c-2.1,1.9-4.8,1.9-7.3,2-4.9.3-9.6-.2-13.6-3.6a10.58,10.58,0,0,1-4.1-6.6c-.5-3.1-.8-6.2-1-9.3a17.53,17.53,0,0,1,4.3-12.8c1.3-1.6,2.8-3,4-4.6a9.83,9.83,0,0,1,4.9-3.1,57.57,57.57,0,0,1,5.9-1.8,15.15,15.15,0,0,1,14.9,3.5,2.6,2.6,0,0,0,2.4.7,11.44,11.44,0,0,1,4.5.3,86.1,86.1,0,0,1,8.2,3.2,50.67,50.67,0,0,0-.9-5.4,6.78,6.78,0,0,0-1.7-3.5,3.55,3.55,0,0,1-1.2-3.2c.2-2.3.4-2.7,2.6-2.2q2,.45,4.2.9a12.86,12.86,0,0,0-4-8.6,2.46,2.46,0,0,1-.7-3.1c.5-1.2,1.5-1.2,2.7-.9s2.1.3,3.2.4a24.94,24.94,0,0,0-8.5-14.3,3.78,3.78,0,0,0-2.7-1,30.55,30.55,0,0,0-8.3,3c.2,1.5.4,2.9.6,4.3.5,3.9.9,7.8,1.3,11.7.4,3,.9,5.8,1.2,8.7.2,1.5-.3,1.9-1.9,1.8A4.87,4.87,0,0,1,130.75,210Zm-.3,361.5c-1.1,1.2-1.9,1.9-2.6,2.8-1.9,2.4-3.7,4.8-5.5,7.2-3.6,4.7-7.2,9.5-10.7,14.3-1,1.4-1.8,2.9-2.7,4.3-2.2,3.3-4.4,6.5-6.5,9.8-1.1,1.7-2.2,3.5-3.2,5.2s-.9,1.9.4,3.4a49.06,49.06,0,0,1,3.9,5.1,39.58,39.58,0,0,1,2.1,4.7c4.7-.4,9.2-2.7,14-.2,4.4-18.7,9.6-37,10.8-56.6Zm-87.6,60.7c2.7,0,5-.1,7.3,0a89,89,0,0,1,14.6,1.2,99.73,99.73,0,0,1,16.1,4.9,45.43,45.43,0,0,1,12.4,6.8c1.2,1.1,2.4,2.3,3.6,3.5.3-.3.4-.5.6-.7,3.2-5.3,5-10.8,4.2-17.1a17.4,17.4,0,0,0-3.5-9.3,16.32,16.32,0,0,0-2-1.7,28.51,28.51,0,0,0-1.4,5c-.3,3.3-.6,4-3.9,4.6a20.91,20.91,0,0,1-5,0,75.79,75.79,0,0,1-8.1-1.3c-2.1-.4-4-1.3-6.1-1.9s-4.3-1.1-6.5-1.7a4.74,4.74,0,0,1-1.9-1.2,1.25,1.25,0,0,1,1-2.1,22.63,22.63,0,0,1,2.5.1l.7-6.7C60.85,614.31,46.45,625.41,42.85,632.21Zm57.1,18.1a29.39,29.39,0,0,0,6.2,6.5,17.39,17.39,0,0,0,5,3.1,19.51,19.51,0,0,0,12.4-.5,99,99,0,0,0,12.3-5.9c6-3.1,11.9-6.5,18.7-7.5v-.3a16,16,0,0,0-10.9-5.8,1.71,1.71,0,0,0-1.3.7,16,16,0,0,0-1,2.3l2,.9c-2.4.8-4.4,2.4-6.9,2.7a69.33,69.33,0,0,1-7.8,1c-3,0-6,.9-9,1.2a12.47,12.47,0,0,1-7.3-1.4,4,4,0,0,1-1.9-5.3c0-.1.1-.1.1-.2a10.58,10.58,0,0,1,4.7-5.3,5.23,5.23,0,0,0,2.9-5.5c-3-1.3-9.1-.8-12.5,1C106.85,639,103.15,644.61,100,650.31Zm97.3-515.8c-1.6-.6-2.6-1.1-3.7-1.4a31.33,31.33,0,0,0-12.2-.6,43,43,0,0,0-12.6,3.5c-5.6,2.7-11.3,5.4-16,9.5-.9.8-1.9,1.4-2.7,2.2-1.6,1.6-3,3.3-4.4,5-1.8,2.4-3.4,4.9-4.9,7l4.2,6.8a62.82,62.82,0,0,1,4.6-6.3,53.18,53.18,0,0,1,10.5-9c5.3-3.8,11.5-5.2,17.6-6.6,3.6-.8,7.2-1,10.8-1.6,1.2-.2,3,0,2.4-2.2,0-.2.6-.6.9-.9Zm15.9,292.9c-5.8.1-10.5,1.4-14.2,5.5a3.81,3.81,0,0,1-1.3.9,3.66,3.66,0,0,0-2.5,3.7c0,.7-.4,1.4-.4,2.1-.1,1.7-.6,3.6,0,5,2.8,8,10.8,11.5,19.1,6.8,3.2-3.4,6.6-6.5,7.3-11.5a11.47,11.47,0,0,0-2.1-9.3C217.45,428.61,215.55,426.91,213.15,427.41Zm-93.9,35.9c-3.7-1-7.4-2-11-3a2.69,2.69,0,0,0-2.7.6c-1.5,1.1-3.1,2-4.7,3-.4.2-.9.5-.9.8a18.62,18.62,0,0,0-.9,4.7,10.2,10.2,0,0,0,8.8,9c4.6.7,8.8-.7,12.8-2.1Zm11.6,7.9c2.1-1.5,4-2.8,5.8-4.3a45.08,45.08,0,0,0,5.1-4.7,57,57,0,0,0,4.2-5.5c1.2-1.8,3.1-3.2,3.8-5.8a5.24,5.24,0,0,1-5.4-.3c-.5-2.6,2.1-3.3,3.1-4.9l-2.6-5.3c-2.8,3.2-5.3,6.1-7.9,8.9s-5.4,5.9-8.3,8.7c-1.7,1.7-1.9,2.1-1,4.3.8,1.9,1.5,3.8,2.2,5.7a18.93,18.93,0,0,0,1,3.2Zm43.7-33.4a4.68,4.68,0,0,0,1.6,4.4,8.42,8.42,0,0,0,7.2,1.5,11.36,11.36,0,0,0,4.1-2.4,28,28,0,0,0,5.3-6.6c.9-1.5,1.5-2.6.9-4.3a20.16,20.16,0,0,0-.7-2.3c-1.5-3.2-4.1-5.3-7.8-4.5a14.06,14.06,0,0,0-10.6,14.2Zm79-.6a86,86,0,0,0-13.4-.7c1,3.8,1.5,7.2.1,10.8a21.46,21.46,0,0,1-6.9,8.6,104.31,104.31,0,0,0,16.7,2c2.5-6.7,2.9-13.6,3.5-20.7Zm-80.9,5.9a13.36,13.36,0,0,1-.2-10.9,17.1,17.1,0,0,1,6.1-8.9c-2.4-.6-4.4-1-6.3-1.6-4.5-1.3-9.1-2.7-13.6-4-2-.6-2.9-.1-3.8,1.5a65.7,65.7,0,0,0-4.7,11.3c-.4,1.5-1.2,2.9-1.7,4.3a25.89,25.89,0,0,0,5-3.7,1.67,1.67,0,0,0,.4-1.5c-.3-2.1,1.5-2.6,2.6-3.6,1.7-1.5,2.8-.7,4.1.6.9-.7,1.6-1.3,2.4-1.9a4.26,4.26,0,0,1,6,.2,4.13,4.13,0,0,1,.7,1.1c1.3,2.3.9,3.5-1.4,4.9-1.7,1-3.3,2.1-4.5,2.8l-1.5,4.5c.2.5.4.9.6,1.3s.6,1,.9,1.1c2.9.8,5.6,1.6,8.9,2.5Zm49.8,5.4v1.6c0,3.7,2.5,5.6,6,4.5a13.38,13.38,0,0,0,8.4-7.7,10.82,10.82,0,0,0,0-9.3c-1.4-3-3.8-3.4-6.5-1.6a27.13,27.13,0,0,0-5.9,6.3,8.45,8.45,0,0,0-2,6.2Zm31.2,8.3c.6,2.3,1.1,4.3,1.6,6.3a8.8,8.8,0,0,0,.5,1.5,38,38,0,0,0,7.8,8.7,4,4,0,0,0,3.8,1.3c1.2-3.5,2.7-6.8,2.3-10.8-6.3-1.9-10.7-6.3-14.6-11.7Zm-137.4-29.6c-3.4,1.7-6.8,3-10,4.9-7.4,4.3-12.1,10.3-12.5,19.3l3-1.9v-2.1c0-3.9,1.7-6,5.5-6.6a10.34,10.34,0,0,1,6.5.7,2.74,2.74,0,0,0,3.6-.4,58.72,58.72,0,0,1,5.4-4.1l-.7-4.3c-2.7,1.1-5.2,2.1-7.7,3.1l-.4-.5a3.78,3.78,0,0,1,.9-1.2c1.8-1.3,3.7-2.5,5.6-3.7a2.16,2.16,0,0,0,.8-3.2Zm156.8,40-2.6,8.8c1.4-.5,2.2-.9,3-1.2,4.9-1.9,9.8-3.8,14.7-5.6a2.34,2.34,0,0,0,1.5-1.7l2.2-6.8a13.05,13.05,0,0,0,.5-2.1c-6.7,3-12.3,7-19.3,8.6Zm-102-278.1c2.5-.1,4.4.1,5.7,1.9a9,9,0,0,1,1.7,3c.6,2.3,1,4.6,1.5,7.2a1.49,1.49,0,0,0,.3-.7,55.06,55.06,0,0,0,1.2-15.1,15.47,15.47,0,0,0-2.7-7.5,2.65,2.65,0,0,0-3.6-1.1,2.41,2.41,0,0,0-1,1c-2.5,3.2-2.8,7.1-3.1,11.3ZM211,305.51a28.75,28.75,0,0,1-23.8,2c-.1.5-.3.7-.2.8a4.05,4.05,0,0,0,.5.9,15.75,15.75,0,0,0,15.6,5.4C207.45,313.81,210.15,310.81,211,305.51Zm88.9,106.9a6.24,6.24,0,0,0-5.6,2.9c-1.9,2.9-.9,10.6,2.8,13.4,2.4,1.8,4.6,1.8,7.2-.4-3.3-1.6-4.3-4.5-4.5-7.9,0-2.5.1-5.2.1-8Zm-153.7-265.2q3.75-3,7.5-5.7c3-2.3,3.1-2.4,2.3-6.2-.5-2.4-1.3-2.9-3.5-1.8-3.5,1.7-6,4.6-8.5,7.5a1.52,1.52,0,0,0-.3,1.3c.3,1.7.8,3.7,2.5,4.9Zm5.8,306.5c-1.9,2.6-3.5,4.7-5.1,6.7a62,62,0,0,1-5.5,6,104.39,104.39,0,0,1-8.3,6.6c-2.1,1.6-2.2,2.4-.8,4.8,4.5-2.8,9.2-5.3,12.4-9.6S150.65,459.61,152,453.71Zm-47.3,5.2-6.9-7.6c-1.9,2-3.8,4.1-5.6,6.2a3.06,3.06,0,0,0-.7,3.6c.7,1.3,2,1.2,3.2,1.2a2.2,2.2,0,0,0,.8-.1,28.23,28.23,0,0,0,9.2-3.3Zm26.7-296.7c-1.8,4.1,0,7.3,2.7,10.1a3.85,3.85,0,0,0,5.5.6l.6-.6a6.47,6.47,0,0,0-.6-9.1,7.71,7.71,0,0,0-8.2-1Zm71,10.6c-3.1,3.6-1.9,7.5-1.8,11,3.9-1,5.6,2.1,8.1,4.5a32.55,32.55,0,0,0-6.3-15.5Zm65.7,267.9c-1.5,1.8-3.6,3-2.8,5.8.6,2,1.8,2.8,4.2,3s4.5.1,5.4-2.9c-3.2-1-5.2-3.2-6.8-5.9Zm36.8-15.9a1.91,1.91,0,0,0,2.2-1.5v-.4a17.92,17.92,0,0,0-1.6-8.8c-.3-.7-1.1-1.2-1.7-1.8l-.7.3c.3,4.2-.6,8.4,1.8,12.2ZM277.15,445l3.5-3c-4.2-.3-6.3-2.4-7.6-6l-2.7,3c1.6,2.6,3.3,4.9,6.8,6Zm6.6-17.4c-.7.8-1.5,1.4-1.5,2a5.79,5.79,0,0,0,1,4.6c1.6,2,5.1,1.7,7.8-.6-3.6-1-4.9-2.1-7.3-6Zm-4.9,3.5c-2.7,2.1-3.1,2.8-2.6,4.5.9,3.3,3.5,4.3,6.5,4.5l2.4-2C281.05,437.31,279.25,434.91,278.85,431.11ZM149,444l6.3-7.6-1.6-1.9-5.9,4.2Zm54.3-305.1A21.1,21.1,0,0,0,201,137a2.13,2.13,0,0,0-1.7-.2c-1.9,1.7-4.1,3.3-5,6.3a8.7,8.7,0,0,0,3.6-.4,40.39,40.39,0,0,0,5.4-3.8Zm86.6,285.3a7.84,7.84,0,0,0-1.4.5c-1.7.8-2,1.7-1.1,3.4a7.63,7.63,0,0,0,.8,1.1c.9,1.3,2.5,1.5,3.7,2.4s1.7.5,2.4-.1Zm-183.1,56.9c.5.6.7.9.9,1,4.2,1.9,8.3,1,12.4-.3.9-.3,2.4-.6,1.8-2.1s-1.7-.4-2.5-.1C115.45,480.71,111.55,482.21,106.75,481.11Zm24.7-300.4c.8-.3,1.4-.4,1.9-.6,2.4-1,4.9-2.1,7.3-3.1,1.4-.5,1.1-1.4,1.1-2.3a18.59,18.59,0,0,1-4.6,1.9,19.1,19.1,0,0,1-4.7-.7C132,177.31,130.85,178.61,131.45,180.71Zm39.9,12.1a24.52,24.52,0,0,0,.2,2.7,2.38,2.38,0,0,0,2.6,2.2c.5,0,1.4-.6,1.4-.8a10.8,10.8,0,0,0-1-3.5C174,192.41,172.85,192,171.35,192.81Zm29.7.7c2.5-1.3,2.6-3.5,3.2-5.4-1.2-1.5-2.4-1.6-3.9-.3Zm-44.2,234.6a21,21,0,0,0-.3,5,8,8,0,0,0,1.9,3c.2.2.8.1,1.2.2a3.21,3.21,0,0,0,.1-1.4c-.6-1.8-1.2-3.5-1.9-5.2C157.55,429.11,157.15,428.61,156.85,428.11Zm-5.6,16.1.2.4c1.1,0,2.3-.1,3.3-.2a14.2,14.2,0,0,0,2-5.3l-3.1,2.7Zm40.4,2.8-.4-4.8-4,3.9Zm-26.6-21c.2,1.3-1.4,2.6.4,3.4.7.3,2.1-.7,2.2-1.5.2-1.2-.6-1.8-2.6-1.9Zm37.4-282.5c1.6.7,2.9,1.2,4.1,1.7l.4-.4-1.6-3.2Zm21.6,291.1.6,2.6,3-2.9a34.82,34.82,0,0,0-3.6.3Zm-63-5c-.3,1.8-.3,1.8.8,3.1,1.5-2.1,1.4-2.6-.8-3.1Zm38.2-1-3.2-.6.7,3Zm20.5,24.5L219,450l-2,3.1ZM120,411.21c1.9,1.6,1.9,1.6,2.7.3Zm50.6-115.7c-1.1-1.1-1.9-.4-2.8,0Z"/><path class="cls-2" d="M295.75,453.81c1-1,.4-1.8-.3-2.6-2.5-2.7-4.9-5.4-7.3-8.2-.4-.5-.8-1.1-1.6-2.2a15.05,15.05,0,0,0,1.7-1c2.8-2,5.6-4.1,8.4-6.1a3.48,3.48,0,0,1,2.2-.4,8.35,8.35,0,0,0,8.4-4.5,23.67,23.67,0,0,0,2.2-3.3,15.33,15.33,0,0,0,.1-9.7,10.88,10.88,0,0,0-5.8-7.1,24.84,24.84,0,0,0,2.6-4c2.4-6.2,5.6-12.2,4.7-19.1-.3-2-.8-4-1.2-6.2,2.5-.6,4.9-1.3,7.5-1.7a104.29,104.29,0,0,0,15.4-4.5,54.61,54.61,0,0,0,7.8-3.5,20.5,20.5,0,0,0,9.6-10.3h14c3.9,0,7.9.5,11.8.2,7.3-.6,14.6-1,21.9-.9,3.5,0,7-.4,10.5-.4,2.8,0,5.5.1,8.3.2a139.38,139.38,0,0,0,17.1-.1c5.1-.3,10.2-.4,15.3-.2,4.3,0,8.6.3,12.8.4,2,0,3.9-.3,5.9-.3,7.9.1,15.9.4,23.9.4,8.8,0,17.5-.1,26.3-.1a145,145,0,0,1,17.4,1,110.33,110.33,0,0,0,11.5.2h15.8c7.2.1,14.5.4,21.7.5,2.8,0,5.7-.2,8.5-.3l17.9-.3c1.6,0,3.2-.3,4.8-.3s3.4.2,5.1.3c4,.1,8.1,0,12.1.1s8.4.4,12.6.6c6,.2,12.1.3,18.1.6,9,.4,17.8.9,26.7,1.5,5.5.3,11,.7,16.5,1,5.1.4,10.1.9,15.2,1.2,6.8.3,13.5.3,20.3.6s13.9.6,20.8.9c7.3.4,14.6.7,21.9,1.4,6.4.6,12.7,1.5,19.1,2.2,2.5.3,5,.4,7.5.7l14.7,1.5c3,.3,6,.4,9.1.8,3.9.4,7.8.9,11.7,1.4,2.3.3,4.6.5,6.9.7,3.5.3,6.9.5,10.5.8,2.9.3,5.7.6,8.5,1,6.4.8,12.9,1.5,19.3,2.3,4.1.5,8.1.9,12.2,1.5a23.25,23.25,0,0,1,2.8.5c1.4,4.5,0,8.7-.6,13a147.66,147.66,0,0,0-2.1,18.9c0,7.8-1.6,15.2-2.6,22.8-.3,2.6-.6,5.1-.8,7.7-.4,4.4-.9,8.7-1.1,13.1-.5,7.3-.7,14.6-1.2,22-.6,8.7-1.3,17.5-1.9,26.2-.3,4.5-.7,9.1-1.1,13.6-.3,3.7-.8,7.5-1.2,11.5-1.5-.1-2.9-.2-4.3-.4-4.9-.9-9.8-2-14.7-2.7s-10.1-1-15.2-1.5l-4.5-.6c-4.1-.5-8.2-.9-12.2-1.4-3-.4-5.8-.9-8.8-1.2-4.3-.4-8.6-.5-12.8-.8-7-.5-14.1-1.2-21.1-1.7s-14.5-.7-21.7-1.3c-10.1-.8-20.1-.7-30.2-1.1a163.29,163.29,0,0,1-22.1-1.8c-3.6-.6-7.3-.6-10.9-.9-2.2-.2-4.5-.3-6.7-.6-5-.7-10-.1-14.9,0-6.2,0-12.5-.4-18.7-.7l-7.2-.3c-10.4-.5-20.7-1-31.1-1.4-6-.3-11.9-.6-17.9-.7-13-.4-26.1-.9-39.1-1-9.5-.1-18.9.4-28.4.7-5.9.2-11.8.6-17.6.8-2.9.1-5.7-.3-8.6-.3h-20.4c-8.8,0-17.7,0-26.5-.2-8.1-.2-16.1-1-24.2-1.3-4.2-.2-8.4.1-12.6.1-3.5,0-7-.2-10.5-.2-8.5.1-17,.3-25.5.4-7.2.1-14.4.3-21.7.3-4.7,0-9.4-.2-14.1-.3-3.5-.1-7-.1-10.5-.2-6.6-.1-13.2-.5-19.8-.4-6.3.1-12.7.8-19,1-5.3.2-10.5.1-15.8.4-3.4.2-6.9.2-10.3.7a18.25,18.25,0,0,1-4-.5c.1-1.8.3-3.5.3-5.1.1-6.9.1-13.8.2-20.7,0-4.4.2-8.7.4-13.1a2.05,2.05,0,0,1,0-1.1c1.7-4.2,2.7-8.7,5.6-12.4a4.32,4.32,0,0,0,1.2-3.7l-2.4-.4Z"/><path class="cls-3" d="M225.45,515.51c-2.8,4.5-5.5,9-8.3,13.4-4.1,6.6-8.2,13.2-12.5,19.7-3.7,5.6-7.7,11-11.5,16.4-1,1.4-1.8,2.9-2.8,4.3-1.9,2.6-3.9,5.1-5.8,7.7-2.5,3.4-4.9,6.9-7.5,10.2-6.4,8.5-12.7,17.1-19.2,25.4a175.31,175.31,0,0,0-14.9,21.5c-1.7,3-3.6,6-5.8,9.4-2,1.1-4.9.6-7.7.9-3.6.4-7.3.6-11,.9a14.15,14.15,0,0,1-2.9-.2c-2.1-.3-2.7-1.5-1.5-3.3a15.25,15.25,0,0,1,2.2-2.2l.2,3c1.8.1,2.3-1.3,2.6-2.3,2.3-8,4.6-15.9,6.7-23.9s3.8-16.1,5.5-24.2c.9-4.5,1.3-9,1.9-13.4a33.87,33.87,0,0,0,.6-6.4,12.4,12.4,0,0,1,3-8.4c3.2-3.9,6.8-7.5,10.1-11.4s6.7-8.1,10-12.2c1.6-2,3.3-4,4.9-6,2.6-3.3,5.3-6.5,7.8-9.9,1.8-2.5,3.3-5.2,5-7.9a2.29,2.29,0,0,1,2.9-1.3c.1,0,.1,0,.2.1,1.7.6,3.3,1.2,5,1.9a38.37,38.37,0,0,1,9,5.2,3.79,3.79,0,0,0,1.3.6c.1-3.1-2.3-4.4-4.1-5.7a38.3,38.3,0,0,0-6.3-3.4c5.9-1.3,11.7-1.8,16.6-5.5l-4.2.6c-1.4.2-2.8.3-4.2.6l-12.6,2.4c-1.1.2-1.9.3-2.6-1a6.54,6.54,0,0,0-3-2.2,69.2,69.2,0,0,0-13.8-5.7c-1.1-.3-2.2-.8-3.2.3v.5a10.36,10.36,0,0,0,1.5,3.2c.8.9,2.2,1.2,3.2,1.9,2.2,1.7,2.5,2.6,2.9,6.3a1.1,1.1,0,0,0,1.5-.3c.1-.1.1-.2.2-.4a4.71,4.71,0,0,0,0-4.6c-.6-.9-1-1.8-1.7-3a29.91,29.91,0,0,1,4.2,1.5c2.2,1.2,4.2,2.6,6.4,4.1-1.8,3.1-3.7,6.2-5.7,9.1-3.8,4.9-7.9,9.6-11.9,14.5-.7.8-1.2,1.8-1.8,2.6-3.2,4-6.3,8-9.6,11.8-2.8,3.2-6,6.1-8.8,9.4-5.3,6.3-10.6,12.8-15.7,19.3-4.2,5.3-8.3,10.7-12.2,16.3-2.6,3.6-4.9,7.5-7.3,11.3s-4.6,7.5-6.9,11.3c-1.2,2-2.6,3.9-1.5,6.5.1.2-.7,1.3-1.2,1.3a15.48,15.48,0,0,1-4.3,0c-3.8-.7-7.5-1.5-11.3-2.4-2-.4-4-.9-6-1.4a7.54,7.54,0,0,1-1.3-.6c1.6-.8,1.6-2,1.8-3.3.9-5.4,2-10.7,3-16,.6-3.3,1-6.7,1.7-10,1.5-7,3.1-13.9,4.9-20.8,2-7.7,4.1-15.3,6.4-22.9,2.7-8.9,5.3-17.8,8.4-26.5,2.4-6.7,4.5-13.6,8.1-19.8a13.16,13.16,0,0,0,1.3-3.8,40.53,40.53,0,0,1,3.7-9.7c.4-.9.7-1.8,1.1-2.7,4.8.4,9.5.3,13.7-2.5a3.34,3.34,0,0,1,3.7-.2c1.9.9,3.2.3,4-1.6.5-1.1,1-1.9,2.3-1.8a1.69,1.69,0,0,0,1-.3c4.3-2.7,9-4.9,12.2-9,2.3-2.8,4.5-5.8,6.7-8.9q25.65,9.45,51.9,19.2c-3,7.6-7.8,13.7-11.9,20.5a8.78,8.78,0,0,0,2.1-1.2,36.52,36.52,0,0,0,7.2-8.5c1.7-2.7,3.2-5.6,4.7-8.4.5-.9.9-1.5,2.1-1.1,3.2,1,6.6,1.7,9.6,3a34.41,34.41,0,0,0,10.1,2.2c3.5.4,7,1.3,10.6,2l-1.8,3.5c-.9,1.8-1.6,3.8-4.2,3.9-4.1,2.6-8.1,5.1-12.2,7.7-.6.4-1.2.9-2,1.5,2,.6,3.4-.5,4.8-1.1,2.2-1,4.3-2.2,6.4-3.3a20.33,20.33,0,0,1,3-1.2c-.5,1.2-.8,1.8-1,2.4l-6,12.6Zm-63.1-2.7c-4.1-1.1-11.7,0-14.9,2.2-.3.2-.4.8-.7,1.4a17.93,17.93,0,0,0,7.6-.7c2.4-.5,4.9-.7,7.6-1Z"/><path class="cls-1" d="M112.45,443.21l5.4-3.4,1.2,8a2.19,2.19,0,0,0,2-2.5h0a113.15,113.15,0,0,0-.6-11.7,27.69,27.69,0,0,1,1.1-13.4c1.2-3.3,3-6.2,6.8-7.3.7-.2,1.2-.9,2.2-1.6-1-.6-1.6-1.2-2.3-1.3a48.33,48.33,0,0,1-11.9-3c-5.4-1.7-10.7-3.9-16-6-2.3-.9-4.5-2.1-6.8-3.2-2.1-.9-4.2-2-6.2-3.1-2-1.3-3.8-3-5.8-4.3a43.33,43.33,0,0,1-12.3-13.6c-2.3-3.9-4.6-7.8-6.7-11.8a23.07,23.07,0,0,1-2.2-9.3,2.66,2.66,0,0,0-1.1-2.2c-2.4-2.2-2.3-4.5.4-6.1,3.8-2.4,7.6-4.6,11.6-6.7,4.6-2.4,9.3-4.5,14.1-6.5q11-4.8,21.3-10.5c2-1.1,4.2-1.9,6.3-2.9,4-1.7,7.9-3.6,11.9-5.2,6.4-2.6,12.8-4.9,19.2-7.4,6.7-2.6,13.3-5.1,20-7.6a2.8,2.8,0,0,1,2.2,0,16.26,16.26,0,0,1,7.3,6.9c1.9,4,3.5,8.1.7,12.4-2.2,3.5-4.2,7.2-6.7,10.6a14.17,14.17,0,0,1-7.1,5.4,21,21,0,0,0-2.6,1.3c-2,.9-4,1.9-6.1,2.8-6.9,3-13.8,6.2-20.9,8.9-5.6,2.1-10.5,5.4-15.5,8.4-1.9,1.1-3.6,2.5-5.6,3.9l-12.3-8.4c-1.6,2.1-1.5,2.5.1,3.8,6,4.5,11.9,9,17.9,13.7,4.7,3.7,9.2,7.6,13.7,11.5s9.4,8,13.8,12.2a53.8,53.8,0,0,1,6.5,7.8c3.8,5.5,5.5,11.4,2.3,17.9a55.94,55.94,0,0,0-2.2,5.7c-.1.2-.3.6-.2.7.9,2.1-.7,3.2-1.7,4.6-1.9,2.5-3.5,5.2-5.5,7.6-3,3.8-6.3,7.5-9.4,11.3a66.71,66.71,0,0,1-8.6,8.2,6.86,6.86,0,0,1-6.7,1.6c-2.2-.6-4.5-1.1-6.8-1.7-4.9-1.2-7.6-5-10-9-1.5-2.6-.1-4.8,2.9-5a11.88,11.88,0,0,1,6.4,1.5c1.3.6,2.6,1.1,3.9,1.8a1.17,1.17,0,0,0,1.8-.6,1.19,1.19,0,0,0-.4-1.7c-.1,0-.1-.1-.2-.1Z"/><path class="cls-1" d="M147.85,227.61a84.42,84.42,0,0,0,.4-8.7,73.71,73.71,0,0,0-1.3-8.2c1.8.1,2.1,2,3.1,3.1,2.1-.2,2.1-.2,1.9-1.9-.1-1.1-.2-2.3-.2-3.4a15,15,0,0,0-2.9-9.4c1.9.1,3.3,2.2,4.9.5.2-6.2-2.7-11.3-5.9-16.3a14.21,14.21,0,0,0-2.4-2.5,3.54,3.54,0,0,1-1.2-3.7c.7-4.2,2.7-7.7,4.5-11.4a20.33,20.33,0,0,1,4.7-5.8,76.19,76.19,0,0,1,8.4-6.6,25.57,25.57,0,0,1,6.4-3.2,105,105,0,0,1,17.5-3.8,2.9,2.9,0,0,1,2.7.5c.3.3,1.5,0,2.2-.2,1-.2,1.9-.5,2.9-.8l.3.5-2.5,3.6c1.5,1.4,2,1.5,3.1.4l3-3c.8-.7,1.6-1.5,2.9-.8,2.2,1.1,4.4,1.9,6.5,3a4.72,4.72,0,0,1,2.7,3.3,13.84,13.84,0,0,1-9.5-1.9c-1.4-.8-2.9-1.6-4.5-.5-.7,5.5,1.8,8.6,7.2,9.5,1.9.3,3.8.8,5.7,1.3a5.44,5.44,0,0,1,4.1,5c.5,3.9,1.2,7.8,1.8,11.8.3,1.7.4,3.4.7,5,.6,4,1.2,7.9,1.8,11.9a5.07,5.07,0,0,1-.2.9c-1.1.2-2.2.4-3.5.7a23.36,23.36,0,0,1-.4-2.6,45.55,45.55,0,0,0-5.2-18.7c-.5-1.1-1.4-2.1-1.9-3.2a3.72,3.72,0,0,0-4-2.5,4.56,4.56,0,0,0-3.7,3.1c-.6,2.1-1.5,4.2-1,6.5a13.41,13.41,0,0,1,0,4,71.72,71.72,0,0,0,1.5,16c.1.9.2,1.7.3,2.3-.9,1.9-3.7,1.6-3.8,4.3a12.09,12.09,0,0,0,1.8-.5c1.3-.7,2.6-1.6,4.2-.8a1.68,1.68,0,0,0,1.2-.3c2.7-2.3,6.1-2.3,9.2-3.3.3-.1.8,0,1-.1,3.5-2.6,7.8-2.4,11.8-2.8a34.51,34.51,0,0,1,10.1,1.2,30.07,30.07,0,0,1,6.8,2.2c4.5,2.1,6.3,6.1,6.9,10.8a16.93,16.93,0,0,1-1.9,10.8c-3.2,5.6-7.8,9.7-12.4,13.9a19.42,19.42,0,0,1-4.8,2.8,97,97,0,0,1-9.3,4.1,43.36,43.36,0,0,1-9.3,2.2c-4.6.5-9.2.4-13.9.7a24.55,24.55,0,0,1-11.9-2.5,13.51,13.51,0,0,1-7.9-11.6c-.4-3.8-.3-6.9,3.2-9.4a7.66,7.66,0,0,0,2.7-6.5,7.21,7.21,0,0,0-3.3-6.1c-.5-.3-1.1-.6-1.6-.9.9-.8,1.7-1.4,2.5-2.1a15.77,15.77,0,0,0,3.5-7.5,47,47,0,0,0,1.1-16.7,14.18,14.18,0,0,0-4.7-9,4.47,4.47,0,0,0-3.5-.9,8.41,8.41,0,0,0-7.3,6.5,34.22,34.22,0,0,0-1.3,11.5c.3,3.2.7,6.4,1.3,9.5a21.15,21.15,0,0,0,2.2,5.4,10.09,10.09,0,0,0,.7,1.5c-1.4.6-2.6,1.2-3.9,1.8a2.19,2.19,0,0,0,2.2,2,.9.9,0,0,0,.5-.1,9.38,9.38,0,0,1,6.1,1.6,3.83,3.83,0,0,1,1.9,4.1c-.6,3.6-5.2,7.5-9,7.7a15.26,15.26,0,0,1-8.4-1.1c-.3-.2-.6-.4-1-.7.6-.4,1.2-.6,1.4-1a2.38,2.38,0,0,0,.5-1.8c-.1-.4-1-.8-1.5-.8a6.39,6.39,0,0,0-5.8,3.3,10.8,10.8,0,0,0-1,3.5,1.55,1.55,0,0,0,1.3,1.9h.4c1.1.1,1.6-.6,1.6-1.6,0-.2.1-.3.4-.8l6.2,2.5c-4.7,5.6-10,10.7-12.7,17.7a80.32,80.32,0,0,0-5.5,21,13.4,13.4,0,0,1-15.5-10.4,22,22,0,0,1-.1-11.1,2.2,2.2,0,0,0,.1-.8c-.1-.6-.1-1.5-.6-1.9-.8-.6-1.6.1-1.9.9a14.49,14.49,0,0,1-3.9,4.6c-3.3,3.3-7.3,3.9-11.8,3.6a15.64,15.64,0,0,1-7.8-2.5,7.8,7.8,0,0,1-3.7-5.6l-.9-6.9a15.88,15.88,0,0,1,1.5-9.1,3.38,3.38,0,0,1,.6-1.2c2.3-2.5,4.3-5.4,7-7.3a17.71,17.71,0,0,1,13.9-3.4,9.76,9.76,0,0,1,6.5,4.3,1.85,1.85,0,0,0,2.5.8,12.44,12.44,0,0,1,9.9,1.9,41.58,41.58,0,0,1,3.9,3.2A6.35,6.35,0,0,0,147.85,227.61Zm4.9-48.3c.7-.7,1.3-1.2,1.8-1.8a6.11,6.11,0,0,0,.7-1.4c2.3-4.5,6.3-6.8,10.9-8.5,2.8-1.1,5.6-2.2,8.4-3.4a8.62,8.62,0,0,0,5.3-6.9,6.36,6.36,0,0,0-.5-3.6,1.9,1.9,0,0,0-2.4-1.2,2.36,2.36,0,0,0-.9.6c-1.9,2.6-4.8,3.5-7.7,4.5-3.3,1.2-6.5,2.4-9.7,3.8a9.75,9.75,0,0,0-4.7,4.9,27.69,27.69,0,0,0-2.2,6.3,7,7,0,0,0,1,6.7Zm-48.2,64.1c2.3-3.1,3.9-6.7,7.3-9.2l.8,3.2a4.53,4.53,0,0,0,4.9,3.7,6.12,6.12,0,0,0,5.5-4.2c-1,.2-1.8.5-2.6.6a13.58,13.58,0,0,1-2.9.3,2.45,2.45,0,0,1-1.7-1.1c-1.2-2.2.8-7,3.2-7.9a15.8,15.8,0,0,1,6.4-1.5c1.8.1,1.8-.1,1.7-2.4a14,14,0,0,0-7.6.5c-4.3,1.2-7.7,4.1-10.8,7.1a18.54,18.54,0,0,0-5,8.4c-.4.9-.7,1.8.8,2.5Z"/><path class="cls-1" d="M304,380.61c2.2-.3,2.7,1,3,2.7a29.74,29.74,0,0,1-.9,14.5,42.32,42.32,0,0,1-4.2,9.5,3.82,3.82,0,0,1-2.7,1.9,11.49,11.49,0,0,0-6,2.8c-1.9,1.8-3.4,3.8-3.1,6.7a11,11,0,0,1-.2,1.8c-1.2.1-1.4-.6-1.3-1.3.1-2.8-1.4-4.8-3-6.8a.76.76,0,0,0-.5-.2,2.35,2.35,0,0,0-.8.2c.2,1.2.3,2.4.6,3.6a23.27,23.27,0,0,0,.8,3.1c1,3.5.6,4.2-3.5,5.3-.7-1.4-1.5-2.9-2.2-4.4-1-2.2-1.9-4.5-2.7-6.7a18.57,18.57,0,0,1-.6-3.4c-1.5-6.4-1-12.7-.7-19.2a61.15,61.15,0,0,1,2-12.1,29.35,29.35,0,0,1,5.4-10.9c3-3.6,6.1-7.1,9.4-10.5,3-3.1,6.2-5.8,9.5-8.7a14.29,14.29,0,0,0,2.3-3.7,2.08,2.08,0,0,0-2.9-.6,1.21,1.21,0,0,0-.5.5c-3.2,3-6.3,6-9.6,9.2-3-3.2-7.2-4.2-11-5.8-10.6-4.3-21.2-8.5-31.9-12.5-4.7-1.8-9.6-3.3-14.7-5.1-2.6-8.7-6.1-17.6-6.5-27.5a25.58,25.58,0,0,1,2.7.5l12.9,4.5c7.1,2.4,14.3,4.6,21.3,7,5.4,1.9,10.7,4.1,16,6.1,2.3.9,4.7,1.6,7.1,2.4,6.2,2.2,12.5,4.2,18.7,6.6,7.3,2.8,14.5,6,21.8,9,1.6.7,3.1,1.7,4.7,2.5a15.33,15.33,0,0,0,2.7,1.1,46.38,46.38,0,0,1,10,4.9,4.13,4.13,0,0,1,2.2,3.7,15,15,0,0,1-7.1,13.6c-5.2,3.5-11.1,4.9-16.8,6.8-3.8,1.3-7.8,2.1-11.6,3.3a48.69,48.69,0,0,0-7.1,3c-.6.3-1,1.2-1.5,1.8Z"/><path class="cls-2" d="M140.85,144.31l3.5,5.2-6.1,9a2.51,2.51,0,0,1-2.2,1.2,25.75,25.75,0,0,0-4,.8l2.3-3.1c-3.5-.5-5.7,2.3-6.6,8.2-4.3,1.1-8-.5-11.6-2.7a26.32,26.32,0,0,1-11.6-15.5,12,12,0,0,1,.5-6.5c2.5-1.3,3,2.7,5.3,1.7-1-2.3-3-3.7-4.5-5.5l-2.1-2.4c-3.4-5.2-6.9-10.5-9-16.4a13.58,13.58,0,0,1-.3-8.9,2.45,2.45,0,0,1,2-1.9c1.1-.3,1.5.6,2,1.3,1.4,2,2.9,3.8,4.3,5.7.5.6,1.1.9,1.9,0-1.6-2.7-3.3-5.4-4.8-8.2-2.7-5-5.1-10-5.4-15.8a7.06,7.06,0,0,1,3.6-6.8c.8,2.5,1.6,4.9,2.4,7.3s1.7,4.3,2.6,6.4c.4.9,1,1.2,2,.3-.5-1.4-1.2-2.8-1.6-4.3-1.5-5.1-3.3-10.2-4.3-15.4-.9-4.9-1.8-9.9-.7-14.8a33.83,33.83,0,0,1,2.8-8.3,4.85,4.85,0,0,1,5.5-2.8q.45,3.6.6,7.2a47.15,47.15,0,0,0,1.1,13.5c.6,2.5.9,5.1,1.4,7.6a3.55,3.55,0,0,0,2.4,3.3,10.29,10.29,0,0,0-.2-5.5,74.2,74.2,0,0,1-2.3-19.9c.2-3.7.1-7.3,0-11-.1-5.2,1.1-10.2,1.8-15.3a22.3,22.3,0,0,1,2.7-8c.9-1.6,2.3-1.9,3.2-.4a12.77,12.77,0,0,1,1.8,4.7,125.22,125.22,0,0,1-.6,21.2,57.5,57.5,0,0,0,.1,8.3,86.28,86.28,0,0,0,1.1,11.4,36,36,0,0,0,3.4,9.5c3,6,6.8,11.5,9.8,17.4a81.72,81.72,0,0,1,5,12.7,52.93,52.93,0,0,1,2.1,14.8,83,83,0,0,1-1.5,18.6c-.7,3.5-1.6,6.9-2.3,10.5a25.92,25.92,0,0,0-.2,6.2A46.26,46.26,0,0,0,140.85,144.31Zm-22.7-24.7a8,8,0,0,1-6.3-6.1,62.56,62.56,0,0,1-1.4-7.3c-.6-3.7-.6-7.3,3.1-9.7.1-.1.1-.3.2-.7a3.49,3.49,0,0,0-1.3-.5,4.67,4.67,0,0,0-3.9,3.9c-1.1,5.5-1.2,11,1.4,16.2a3,3,0,0,1-.2,3.5,4.39,4.39,0,0,0-.7,2.2,23.54,23.54,0,0,0,2.5,12.2,2.49,2.49,0,0,1,.3,1.7c-1,5.1,1.2,9.3,4.2,13.1a15.35,15.35,0,0,0,2.9,2.1l.5-.5c-.4-2.4-2.5-3.9-3.5-6a13.2,13.2,0,0,1-1.5-7.3c.7-.1,1.5-.3,2.8-.5a12.56,12.56,0,0,1-5.1-7.6c-.8-3.5-.8-7,.4-8.8,1.6.5,3.3,1.8,5.6.1Z"/><path class="cls-4" d="M58.55,690.31a14.31,14.31,0,0,1,1.5-1.1,4.81,4.81,0,0,0,1.6-1.2,5.66,5.66,0,0,0-1.8-.3,39.47,39.47,0,0,0-5.8,1.1,24.71,24.71,0,0,1-14.5.1,49.48,49.48,0,0,1-16.9-9.1,4.43,4.43,0,0,1-.5-.9l2-.9-.4-.6a15.67,15.67,0,0,0-3-.5c-3.6,0-6.8-1.5-10-2.8-4.5-1.8-5.4-7.9-2.1-11.8a86.27,86.27,0,0,1,11.6-11,211.26,211.26,0,0,1,17.4-12.4,2.34,2.34,0,0,0,.7-.7c1.7-2.4,4.1-2.4,6.7-2.3,3.9.1,7.9-.2,11.8.1,3.6.3,7.2,1,11.4,1.6a11.51,11.51,0,0,1-1.7,1.4c-4.3,2.3-8.6,4.3-12.2,7.6a1.39,1.39,0,0,0-.5,1c.5-.1.9-.3,1.3-.4,4.3-2.1,8.6-4.2,13-6.3a14.84,14.84,0,0,1,4.1-1.2,4.92,4.92,0,0,1,2.9.6,40.44,40.44,0,0,0-14.8,10,12.25,12.25,0,0,0,1.9-.2c3.3-1.9,6.6-3.9,9.9-5.7a21.72,21.72,0,0,1,3.6-1.2c1-.4,2-1,3.4-1.6,4.4,2.1,9.4,4,13.3,7.9a3.83,3.83,0,0,1,1.3,4,150.46,150.46,0,0,1-6,18.3,38.28,38.28,0,0,1-9.4,13.5,24.67,24.67,0,0,1-9.9,6.6c-3.2,1-6.5,1.3-9.4-1.1C58.75,690.71,58.75,690.61,58.55,690.31Z"/><path class="cls-4" d="M218.55,676.21c-3.9-5.3-9.7-6.6-15.8-6.9-3.8-.2-7.7-.1-11.5,0a24.18,24.18,0,0,1-8-1.1c-1.2-.4-1.2-.3-2.8.7.5.6.8,1.5,1.4,1.8a18.48,18.48,0,0,0,5,1.7,82.25,82.25,0,0,0,8.6.1,37.55,37.55,0,0,1,14.5,1.7,15.24,15.24,0,0,1,4.1,2.4c1.7,1.3,1.5,4.2-.1,6a13.9,13.9,0,0,1-7.2,4.4,107.15,107.15,0,0,1-24.5,4c-4.1.1-8.2.7-12.3.8a50.82,50.82,0,0,1-20.1-3.2,87,87,0,0,1-14.4-7,65.72,65.72,0,0,1-16.2-13c-1.3-1.5-2.8-2.7-4.5-4.3a10.88,10.88,0,0,1,3-.7c3.9.4,7.2-1.3,10.5-2.8s6.9-3.3,10.3-5.1a2.4,2.4,0,0,1,2.9.2,46.61,46.61,0,0,0,12.4,6.7c1.7.7,3,.3,5.2-1.5-6.3-.7-10.9-4.3-16.1-7.2,2.8-2.3,5.9-3.5,11.4-4.6,2,2.6,5,3.2,8,3.7,5.7,1,11.5,1.6,17.2,2.3,6.7.8,13.4,1.5,20.2,2.4,2.4.3,4.8.7,7.1,1.2a81,81,0,0,1,9.9,3,12.15,12.15,0,0,1,6.6,5.6,3.85,3.85,0,0,1-.8,5.4l-.1.1c-1,1-2.2,1.9-3.3,2.8C219,675.91,218.75,676.11,218.55,676.21Z"/><path class="cls-2" d="M182.65,117.21l2.6,2.7.6-.3a26,26,0,0,1-1.6-4.7,31.53,31.53,0,0,1-.4-5.3,48.64,48.64,0,0,1,0-5.4,54.41,54.41,0,0,1,.9-5.7l3.4,5c.8-1.3,0-2.1-.2-2.8a29.44,29.44,0,0,1-1.9-18.3,19.5,19.5,0,0,1,2.9-7.7c.5-.6.7-1.3,0-1.9a1.31,1.31,0,0,0-1.9.3c-.1.1-.1.2-.2.3a21.11,21.11,0,0,1-1.8,2.7c-.8-3.2-2.8-6-2.7-9.4a1.1,1.1,0,0,0,0-.8c-1.7-3.8-1.4-7.8-1.5-11.8a84,84,0,0,1,.5-11.2,18.35,18.35,0,0,1,4.1-9.2,3.09,3.09,0,0,1,3.8-1.5c-.8,9.9-1.5,19.9,4.8,28.8-.2-1.2-.4-2.5-.7-3.7a59.25,59.25,0,0,1-1.8-17.8,91,91,0,0,1,4.3-24.9,25.72,25.72,0,0,1,3.6-6.2,9.58,9.58,0,0,1,2.5-2,14,14,0,0,0,2.7,2.1,3.87,3.87,0,0,1,2.6,3.4,24.94,24.94,0,0,1,.3,6.7c-.6,4.9-1.6,9.7-2.4,14.5l-.5,3.2c-.6,4.3-1.5,8.6-1.8,13a54.64,54.64,0,0,0,.3,9.9c.7,5.4,1.6,10.8,2.7,16.1s1.6,10.4,2.3,15.6c.8,5.9-.3,11.5-1,17.3a57.19,57.19,0,0,1-6.2,18.4c-1.1,2.1-1.1,2.7,0,4.1l-1.7,1.6a22.72,22.72,0,0,0-11.9-3.3c-2.9,0-3.4-.4-3.8-3.2s-.4-5.7-.6-8.5Z"/><path d="M153.45,459c.5-1.9,1-3.5,1.4-5.2.3-1.2.4-2.3,2.1-2.5,1.5-.2,1.9-2,1-3.8a4.72,4.72,0,0,1,.3-4.6,1.51,1.51,0,0,1,2-.8c2.5.7,5,1.4,7.5,2,1.8.4,3.7.6,5.5.9a12.09,12.09,0,0,1,1.8.5,8.18,8.18,0,0,0,1.9.9c2,.4,4.5.2,5.9,1.3,1.7,1.4,3.5,1.4,5.4,1.8a19.2,19.2,0,0,1,7.8,3.3,25.45,25.45,0,0,0,3.9,2.4,14.19,14.19,0,0,0,11.9.7,7.39,7.39,0,0,1,3.6-.3c1.6.2,3.4-.3,5,.1s2.7,1.8,4.2,2.2a16.29,16.29,0,0,0,7.6.9.9.9,0,0,1,.5-.1,60.44,60.44,0,0,0,18.5,1.4c.2.3.4.5.3.6a4.51,4.51,0,0,0,.4,5.4c.1,3.5.4,7-1.3,10.3-.9,1.8-1.8,3.7-2.7,5.5l-3,6c-7.5-1.4-15.2-2.8-22.9-4.2a8.33,8.33,0,0,1-1.5-.4c-4.2-1.3-8.5-2.6-12.7-4-1.8-.6-3.5-1.4-5.2-2-9.8-3.2-19.3-7-28.8-10.7-4-1.5-8.1-2.7-12.1-4.2C158.85,461.41,156.25,460.21,153.45,459Z"/><path class="cls-5" d="M274,418.21a3.4,3.4,0,0,0,1,.1c.3-.1.5-.1.7-.3l4.5,8.4-3.2,2.3c-2.2-3.1-5.3-5.4-5.6-9.5a2.57,2.57,0,0,0-.5-1.2c-.8-1.9-1.1-2-3-1.2-2.9,1.3-5.9,2.6-8.8,3.8l-1.2.3a12.41,12.41,0,0,1-.3-2.7c.1-6-1.3-11.7-2-17.5-.6-5-2.3-9.9-3.2-14.8-1.5-7.9-4.3-15.2-6.7-22.8-1.4-4.3-3.2-8.5-4.8-12.8-1.9-5.2-3.6-10.4-5.6-16.2,19,6.4,36.8,14,55.1,21.4-1.7,1.7-3.4,3.2-4.8,4.8-3.8,4.3-7.5,8.6-9.5,14.1a61.82,61.82,0,0,0-3.5,18.5c-.1,1.6-.3,3.2-.3,4.8a32.31,32.31,0,0,0,.9,9.8C274,411,274.75,414.51,274,418.21Z"/><path class="cls-6" d="M201.75,250.31h.8a3,3,0,0,1,.3.4c-.3.4-.6.7-.9,1.1a86.34,86.34,0,0,0-13.4,12.2c-2.6,2.7-4.5,6.1-7,9a54.74,54.74,0,0,0-4.9,7.6,15.57,15.57,0,0,0-2.6,9.1c.2,3-.2,3.3-3.3,2.3-1.2,2.3-3.7,1.9-5.5,1.9s-3.6-1.4-5.2-2.5a40.87,40.87,0,0,1-4.4-3.9,7,7,0,0,1-1.4-1.6c-1-2.3-2.1-4.5-3-6.9a54.5,54.5,0,0,1-2-6.9,26.78,26.78,0,0,1,.8-11.6,85.68,85.68,0,0,1,3-10.2,35.18,35.18,0,0,1,7.5-12.8,58.91,58.91,0,0,1,6.5-6.7,8.29,8.29,0,0,1,6-2.2c.1.9.3,1.8.4,2.7.2,1.4.3,2.9.4,4.3.8,6.4,5.1,9.9,10.5,12.4C189.85,250.21,195.85,250.41,201.75,250.31Z"/><path class="cls-6" d="M232,291.81a4.47,4.47,0,0,1-1-4.9c.3-1,.7-2.4-.8-3-.9-.4-1.9.6-2.4,2.4l-.4,1.5a13.12,13.12,0,0,1-.3,1.5,3.45,3.45,0,0,1-.6-3.4,30.67,30.67,0,0,0,.7-4.2,39.86,39.86,0,0,0-.3-6.9c-1.8-10-7-18.2-13.9-25.4,2.3-.7,4.6-1.3,6.9-2.2a97.11,97.11,0,0,0,9.4-3.8,37.87,37.87,0,0,0,6-3.8c2.4-1.8,4.6-3.9,6.9-5.9a11.22,11.22,0,0,1,5.1,5,35.39,35.39,0,0,1,4.3,15.6,41.79,41.79,0,0,1-.1,10.6,62.85,62.85,0,0,1-1.7,6.2c-2.3,7.8-7,14-13,19.3a2,2,0,0,1-2.4.6C233.85,290.81,232.85,291.51,232,291.81Z"/><path class="cls-5" d="M112,363a28.76,28.76,0,0,1,3.4-2.7c2.9-1.8,5.7-3.6,8.7-5.2,3.4-1.8,6.8-3.4,10.3-5s7.2-3.2,10.8-4.7c3-1.2,6.1-2.3,9.4-3.5a18.3,18.3,0,0,1,.4,5.7c-.4,3.6-.4,7.1-.7,10.7a153.75,153.75,0,0,1-3.9,24.3c-.9,3.3-2.1,6.6-3.2,10.1-5.9-5.1-11.6-10-17.4-14.9S118.05,368,112,363Z"/><path class="cls-6" d="M130.75,210a4.48,4.48,0,0,0,1.1.1c1.5,0,2-.3,1.9-1.8-.3-3-.9-5.8-1.2-8.7-.5-3.9-.9-7.8-1.3-11.7-.2-1.4-.4-2.8-.6-4.3a30.55,30.55,0,0,1,8.3-3,3.52,3.52,0,0,1,2.7,1,26.05,26.05,0,0,1,8.5,14.3,17.5,17.5,0,0,1-3.2-.4c-1.2-.3-2.2-.3-2.7.9a2.59,2.59,0,0,0,.7,3.1,13.44,13.44,0,0,1,4.1,8.6c-1.5-.3-2.9-.7-4.2-.9-2.2-.4-2.4,0-2.6,2.2a3.32,3.32,0,0,0,1.2,3.2,6.78,6.78,0,0,1,1.7,3.5,50.67,50.67,0,0,1,.9,5.4c-3-1.2-5.5-2.3-8.2-3.2a11.44,11.44,0,0,0-4.5-.3,2.6,2.6,0,0,1-2.4-.7,15.15,15.15,0,0,0-14.9-3.5c-2,.5-3.9,1.1-5.9,1.8a10.57,10.57,0,0,0-4.9,3.1c-1.3,1.6-2.8,3-4,4.6a17.26,17.26,0,0,0-4.3,12.8c.2,3.1.5,6.2,1,9.3a10.74,10.74,0,0,0,4.1,6.6c4,3.4,8.8,3.8,13.6,3.6,2.5-.1,5.2,0,7.3-2l3.6-3.3c.3,2.3.6,4.6.9,7a2,2,0,0,1-.6,1.4,11.91,11.91,0,0,1-14,2.6,6.64,6.64,0,0,0-2-.6c-2.9-.3-3.5.3-3.4,3.3a7.08,7.08,0,0,0,.1,1.4c-4.6-2.2-8.5-8.4-11.5-19-2.2-1-3,.9-4.3,2.5a21.67,21.67,0,0,1-.8-4.3,44.64,44.64,0,0,1,.4-8.2,31.62,31.62,0,0,1,7.7-16.4,9.71,9.71,0,0,1,5.4-3.2,3.08,3.08,0,0,0,1.3-.3c1.2-.6,1.5-1.5.5-2.5s-2.5-2.2-4-3.4a22.19,22.19,0,0,1,17.7-6C123.85,204.91,128.05,205.71,130.75,210Z"/><path class="cls-5" d="M130.45,571.51c-1.3,19.6-6.5,37.8-10.9,56.6-4.9-2.5-9.3-.3-14,.2a39.58,39.58,0,0,0-2.1-4.7,31.36,31.36,0,0,0-3.9-5.1c-1.4-1.5-1.5-1.5-.4-3.4s2.1-3.5,3.2-5.2c2.2-3.3,4.4-6.5,6.5-9.8.9-1.4,1.7-3,2.7-4.3,3.5-4.8,7.2-9.5,10.7-14.3,1.8-2.4,3.7-4.9,5.5-7.2C128.55,573.41,129.35,572.71,130.45,571.51Z"/><path class="cls-3" d="M42.85,632.21c3.6-6.9,17.9-17.9,24.4-17.5l-.7,6.7a21.75,21.75,0,0,0-2.5-.1c-1.2.1-1.8,1.1-1,2.1a3.87,3.87,0,0,0,1.9,1.2c2.1.6,4.3,1.1,6.5,1.7s4,1.5,6.1,1.9a75.79,75.79,0,0,0,8.1,1.3,20.91,20.91,0,0,0,5,0c3.3-.6,3.6-1.3,3.9-4.6a28.51,28.51,0,0,1,1.4-5,16.32,16.32,0,0,1,2,1.7,16.63,16.63,0,0,1,3.5,9.3c.9,6.3-1,11.8-4.2,17.1a3.19,3.19,0,0,1-.6.7c-1.3-1.2-2.4-2.4-3.6-3.5a41.65,41.65,0,0,0-12.4-6.8,99.73,99.73,0,0,0-16.1-4.9,118.12,118.12,0,0,0-14.6-1.2C47.75,632.11,45.45,632.21,42.85,632.21Z"/><path class="cls-6" d="M295.65,453.71a12.75,12.75,0,0,1-2.5,1.5,80.77,80.77,0,0,0-14.8,7.9,6.39,6.39,0,0,1-6.9-.6,28.89,28.89,0,0,0-4.5-3.3,46,46,0,0,1-9.7-9.5,6.09,6.09,0,0,1-1-3.7c.4-5.6,1-11.2,1.5-16.8.1-1.6,0-3.2,0-5.2q4.65-2.1,10.2-4.5a12.46,12.46,0,0,0,7.7,10.2c-1.7,1.6-3.1,3.1-4.6,4.6l-7.1,7.3a2.7,2.7,0,0,1-.8.7c-2.2,1.6-2.2,1.6-1.6,4.3a7.19,7.19,0,0,0,4.4,5.3,5,5,0,0,0,3.8-.3c.8-.3,1.8-1.3,2.7.2.5.7,1.4-.2,2-.7l8.5-7.3a2,2,0,0,1,.8-.4c2,2.2,4,4.5,6,6.7,1.7,1.8,3.4,3.4,5.9,3.6Z"/><path class="cls-3" d="M100,650.31c3.2-5.8,6.9-11.3,5.8-18.2,3.4-1.8,9.5-2.3,12.5-1a5.1,5.1,0,0,1-2.9,5.5,11,11,0,0,0-4.7,5.3,4.08,4.08,0,0,0,1.6,5.4c.1,0,.1.1.2.1a12.33,12.33,0,0,0,7.3,1.4c3-.3,6-1.2,9-1.2a69.33,69.33,0,0,0,7.8-1c2.6-.3,4.5-1.9,6.9-2.7l-2-.9a16,16,0,0,1,1-2.3,1.71,1.71,0,0,1,1.3-.7,16,16,0,0,1,10.9,5.8v.3c-6.8,1.1-12.7,4.5-18.7,7.5a99,99,0,0,1-12.3,5.9,19.51,19.51,0,0,1-12.4.5,19.9,19.9,0,0,1-5-3.1A28.13,28.13,0,0,1,100,650.31Z"/><path class="cls-7" d="M197.25,134.51l-5.6,5.5c-.3.3-.9.7-.9.9.5,2.2-1.2,2-2.4,2.2-3.6.6-7.3.8-10.8,1.6-6.2,1.3-12.3,2.8-17.6,6.6a56.72,56.72,0,0,0-10.5,9c-1.7,2-3.1,4.3-4.6,6.3l-4.2-6.8c1.4-2.1,3-4.6,4.9-7a52.44,52.44,0,0,1,4.4-5,28.77,28.77,0,0,1,2.7-2.2c4.7-4.2,10.5-6.8,16-9.5a45.36,45.36,0,0,1,12.6-3.5,31.33,31.33,0,0,1,12.2.6A24.55,24.55,0,0,1,197.25,134.51Z"/><path class="cls-6" d="M213.15,427.41c2.4-.4,4.3,1.2,5.8,3.3a11.39,11.39,0,0,1,2.1,9.3c-.7,5-4.1,8.1-7.3,11.5-8.3,4.7-16.3,1.3-19.1-6.8-.5-1.5,0-3.4,0-5,0-.7.4-1.4.4-2.1a3.59,3.59,0,0,1,2.5-3.8,3.81,3.81,0,0,0,1.3-.9C202.55,428.81,207.35,427.51,213.15,427.41Z"/><path class="cls-2" d="M182.75,117.11a3.9,3.9,0,0,0-2.5,4.8c.4,2.3,1.3,4.6,2,7.1-1.2.3-2.6.6-4.1.9-2.4-3.7-3-7.8-3.4-11.9.6.1,1,.1,1.9.3-.2-.8-.4-1.5-.6-2.2-1.1-2.9-2.3-5.8-3.4-8.7a19.61,19.61,0,0,1,0-14.3c.6-1.7,1.5-2.5,3.3-2.3,2.1,3.3,2.1,7.5,4.7,11.1a25.16,25.16,0,0,0-1.9-9.8c-1.3-4.3-2.7-8.5-3.7-12.9a29.71,29.71,0,0,1-.5-8.4c.2-3.2.9-3.6,4.4-4,.3.4.9.9.9,1.4.6,3.3,2.4,6.1,3.8,9.1a4.72,4.72,0,0,1,.4,3.3,27.33,27.33,0,0,0,.3,16.5,1,1,0,0,1-.1.4c-1.7,0-2.1,1.2-2.2,2.8-.3,5.4-1.3,10.8.7,16.1.1.2,0,.5,0,.7Z"/><path class="cls-8" d="M119.25,463.31l1.5,12.9c-4.1,1.4-8.2,2.8-12.8,2.1a10.1,10.1,0,0,1-8.8-9,12.67,12.67,0,0,1,.9-4.7c.1-.3.6-.6.9-.8,1.5-1,3.2-1.9,4.7-3a3.33,3.33,0,0,1,2.7-.6C111.85,461.41,115.55,462.31,119.25,463.31Z"/><path class="cls-8" d="M130.75,471.21c-.4-1.3-.7-2.2-1-3.1-.7-1.9-1.5-3.8-2.2-5.7-.9-2.2-.7-2.6,1-4.3,2.9-2.8,5.6-5.8,8.3-8.7s5-5.7,7.9-8.9l2.6,5.3c-1,1.6-3.6,2.3-3.1,4.9a5.24,5.24,0,0,0,5.4.3c-.7,2.6-2.6,4-3.8,5.8a32,32,0,0,1-4.2,5.5,56.79,56.79,0,0,1-5.1,4.7C134.75,468.31,132.85,469.61,130.75,471.21Z"/><path class="cls-6" d="M174.55,437.81a14.08,14.08,0,0,1,10.5-14.2c3.7-.9,6.3,1.3,7.8,4.5a20.16,20.16,0,0,1,.7,2.3c.6,1.7,0,2.8-.9,4.3a26.09,26.09,0,0,1-5.3,6.6,9.91,9.91,0,0,1-4.1,2.4,8.48,8.48,0,0,1-7.2-1.5A4.68,4.68,0,0,1,174.55,437.81Z"/><path class="cls-9" d="M253.45,437.21c-.5,7.1-.9,14.1-3.6,20.7a104.31,104.31,0,0,1-16.7-2,21.46,21.46,0,0,0,6.9-8.6c1.4-3.5,1-6.9-.1-10.8A86,86,0,0,1,253.45,437.21Z"/><path class="cls-9" d="M172.65,443.11c-3.3-.9-6-1.7-8.8-2.5-.4-.1-.7-.7-.9-1.1s-.4-.9-.6-1.3l1.5-4.5c1.1-.7,2.8-1.8,4.5-2.8,2.3-1.3,2.6-2.6,1.4-4.9a4.2,4.2,0,0,0-5.6-2,4.13,4.13,0,0,0-1.1.7c-.7.6-1.5,1.2-2.4,1.9-1.3-1.4-2.4-2.1-4.1-.6-1.2,1-2.9,1.5-2.6,3.6a2,2,0,0,1-.4,1.5,25.89,25.89,0,0,1-5,3.7,32,32,0,0,0,1.7-4.3,65.7,65.7,0,0,1,4.7-11.3c.9-1.6,1.7-2,3.8-1.5,4.5,1.3,9.1,2.7,13.6,4,1.9.6,3.9,1,6.3,1.6a17.47,17.47,0,0,0-6.1,8.9A13.35,13.35,0,0,0,172.65,443.11Z"/><path class="cls-6" d="M222.45,448.51a8.59,8.59,0,0,1,2.1-6.1,25.28,25.28,0,0,1,5.9-6.3c2.7-1.8,5.2-1.4,6.5,1.6a10.82,10.82,0,0,1,0,9.3,13.38,13.38,0,0,1-8.4,7.7c-3.6,1.1-6-.8-6-4.5Z"/><path class="cls-6" d="M253.65,456.81l1.5-4.8c3.9,5.4,8.3,9.8,14.6,11.7.3,4-1.1,7.3-2.3,10.8a3.9,3.9,0,0,1-3.8-1.3,43,43,0,0,1-7.8-8.7,4.42,4.42,0,0,1-.5-1.5C254.75,461.11,254.25,459.11,253.65,456.81Z"/><path class="cls-8" d="M116.25,427.21c.8,1.6.3,2.4-.7,3.1-1.9,1.2-3.8,2.4-5.6,3.7a4.7,4.7,0,0,0-.9,1.2l.4.5c2.5-1,5-2,7.7-3.1l.7,4.3c-1.9,1.5-3.8,2.7-5.4,4.1a2.75,2.75,0,0,1-3.6.4,10.34,10.34,0,0,0-6.5-.7c-3.8.6-5.5,2.8-5.5,6.6v2.1l-3,1.9c.4-9,5.2-14.9,12.5-19.3C109.45,430.31,112.75,428.91,116.25,427.21Z"/><path class="cls-6" d="M273.05,467.21c7-1.5,12.6-5.6,19.2-8.6a19.06,19.06,0,0,0-.5,2.1l-2.2,6.8a2,2,0,0,1-1.5,1.7c-4.9,1.8-9.8,3.7-14.7,5.6-.8.3-1.6.6-3,1.2Z"/><path class="cls-2" d="M171.05,189.11c.3-4.2.6-8.1,3.1-11.3a2.64,2.64,0,0,1,3.7-.9,3.18,3.18,0,0,1,1,1,15.47,15.47,0,0,1,2.7,7.5,54.76,54.76,0,0,1-1.2,15.1c-.1.2-.2.5-.3.7-.5-2.6-.9-4.9-1.5-7.2a11.09,11.09,0,0,0-1.7-3C175.45,189.21,173.55,189,171.05,189.11Z"/><path class="cls-1" d="M211,305.51c-.8,5.3-3.5,8.3-7.9,9.2a15.75,15.75,0,0,1-15.6-5.4,4.05,4.05,0,0,1-.5-.9c0-.1.1-.3.2-.8A29.19,29.19,0,0,0,211,305.51Z"/><path class="cls-6" d="M299.85,412.41v8.1c.1,3.3,1.1,6.3,4.5,7.9-2.6,2.2-4.9,2.2-7.2.4-3.7-2.9-4.7-10.6-2.8-13.4A6.07,6.07,0,0,1,299.85,412.41Z"/><path class="cls-10" d="M146.15,147.21c-1.8-1.2-2.2-3.1-2.6-5a1.59,1.59,0,0,1,.3-1.3c2.5-2.9,5-5.8,8.5-7.5,2.2-1,3-.6,3.5,1.8.8,3.8.8,3.9-2.3,6.2C151.15,143.31,148.75,145.21,146.15,147.21Z"/><path class="cls-8" d="M152,453.71c-1.2,6-4.3,10.3-7.4,14.5s-7.9,6.8-12.4,9.6c-1.4-2.4-1.3-3.2.8-4.8,2.8-2.2,5.7-4.2,8.3-6.6a52.18,52.18,0,0,0,5.5-6C148.35,458.41,150,456.21,152,453.71Z"/><path class="cls-1" d="M104.55,458.91a24.93,24.93,0,0,1-9.2,3.4,2.2,2.2,0,0,1-.8.1c-1.2,0-2.5.1-3.2-1.2a3.06,3.06,0,0,1,.7-3.6l5.6-6.2Z"/><path class="cls-1" d="M115.25,411.51l-2.7.3a5.55,5.55,0,0,0-.6.8c-.4,1.1-.4,2.5-1.8,2.7-1.9.4-3.7,1.2-5.7,0a3.66,3.66,0,0,1-1.7-4.8,2.18,2.18,0,0,1,.5-.8q1.2-1.5,2.7-3.3c.6.2,1.3.3,2.1.6a22,22,0,0,0,4.5,1.7,3.08,3.08,0,0,1,2.7,2.8Z"/><path class="cls-2" d="M131.25,162.21a7.08,7.08,0,0,1,5.7-.3,6.48,6.48,0,0,1,4.4,8,7,7,0,0,1-1.3,2.4,3.85,3.85,0,0,1-5.5.6l-.6-.6C131.35,169.31,129.55,166.21,131.25,162.21Zm6,2.2a4.08,4.08,0,0,0-3.9,3.6c0,2.3,1.1,3.5,3.1,3.5a4.14,4.14,0,0,0,3.5-4.3c0-1.9-.9-2.8-2.7-2.8Z"/><path class="cls-1" d="M114.75,423.61h1l.2-.4c-.6-.3-1.3-1-1.9-1-2.1-.1-2.8-1.5-3.2-3.2a21.17,21.17,0,0,0,4.5-7.5h0c1.7.9,3.4,1.9,5.2,2.9a7.84,7.84,0,0,1-.5,1.4,22.77,22.77,0,0,0-2.3,6.8c-.3,1.7-1.5,2-3,1Z"/><path class="cls-2" d="M202.25,172.81a32.15,32.15,0,0,1,6.3,15.5c-2.5-2.4-4.2-5.4-8.1-4.5C200.45,180.21,199.15,176.41,202.25,172.81Z"/><path class="cls-11" d="M268,440.71c1.7,2.8,3.7,5,6.8,6-1,3-3.1,3.1-5.4,2.9s-3.6-1.1-4.2-3C264.35,443.71,266.45,442.51,268,440.71Z"/><path class="cls-6" d="M304.75,424.81c-2.3-3.8-1.5-8.1-1.7-12.1l.7-.3c.6.6,1.4,1.1,1.7,1.8a17.72,17.72,0,0,1,1.6,8.8,2,2,0,0,1-1.8,2C305.05,424.91,304.85,424.91,304.75,424.81Z"/><path class="cls-11" d="M277.05,445c-3.3-1-5.1-3.3-6.8-6l2.7-3c1.3,3.5,3.4,5.7,7.6,6Z"/><path class="cls-11" d="M283.65,427.61c2.5,4,3.8,5,7.3,6-2.7,2.3-6.2,2.6-7.8.6a5.79,5.79,0,0,1-1-4.6C282.25,428.91,283,428.41,283.65,427.61Z"/><path class="cls-11" d="M278.85,431.11c.5,3.8,2.2,6.2,6.3,6.9l-2.4,2c-3.1-.2-5.6-1.2-6.5-4.5C275.75,433.91,276.15,433.21,278.85,431.11Z"/><path class="cls-8" d="M149,444l-1.2-5.3,5.9-4.2,1.6,1.9Z"/><path class="cls-12" d="M203.25,138.91a64.24,64.24,0,0,1-5.3,3.8,11.07,11.07,0,0,1-3.6.4c.9-3,3.1-4.5,5-6.3.3-.3,1.2-.1,1.7.2A20,20,0,0,1,203.25,138.91Z"/><path class="cls-11" d="M289.85,424.21l4.3,7.2c-.7.6-1.2.9-2.4.1s-2.8-1.1-3.7-2.4a10.47,10.47,0,0,1-.8-1.1c-.9-1.7-.6-2.6,1.1-3.4A5.41,5.41,0,0,0,289.85,424.21Z"/><path class="cls-8" d="M106.75,481.11c4.7,1.1,8.7-.4,12.7-1.5.8-.2,1.9-1.3,2.5.1s-.9,1.8-1.8,2.1c-4.1,1.3-8.2,2.2-12.4.3C107.45,482,107.35,481.71,106.75,481.11Z"/><path class="cls-13" d="M131.45,180.71c-.6-2.1.6-3.4,1.1-4.9a14.87,14.87,0,0,0,4.7.7,18.59,18.59,0,0,0,4.6-1.9c0,1,.2,1.8-1.1,2.3-2.5.9-4.9,2-7.3,3.1A11.76,11.76,0,0,1,131.45,180.71Z"/><path class="cls-2" d="M171.35,192.81c1.5-.8,2.6-.4,3.2.5a8.78,8.78,0,0,1,1,3.5c0,.2-.9.8-1.4.8a2.44,2.44,0,0,1-2.6-2.2A21.12,21.12,0,0,1,171.35,192.81Z"/><path class="cls-2" d="M201,193.51l-.7-5.7c1.5-1.3,2.7-1.2,3.9.3C203.55,190,203.55,192.21,201,193.51Z"/><path class="cls-8" d="M156.85,428.11a8.64,8.64,0,0,1,1,1.6c.7,1.7,1.3,3.4,1.9,5.2a6.6,6.6,0,0,1-.1,1.4c-.4,0-1,0-1.2-.2a8.53,8.53,0,0,1-1.9-3A20.71,20.71,0,0,1,156.85,428.11Z"/><path class="cls-8" d="M151.25,444.21c.8-.8,1.6-1.5,2.4-2.3l3.1-2.7a14.2,14.2,0,0,1-2,5.3c-1,0-2.2.1-3.3.2Z"/><path class="cls-9" d="M191.65,447l-4.4-.9,4-3.9Z"/><path class="cls-14" d="M165.05,425.91c2,.1,2.8.8,2.6,2-.1.7-1.5,1.8-2.2,1.5C163.65,428.51,165.25,427.21,165.05,425.91Z"/><path class="cls-15" d="M202.45,143.51l2.9-1.8,1.6,3.2-.4.4A31.49,31.49,0,0,0,202.45,143.51Z"/><path class="cls-9" d="M224.05,434.51c1.2-.1,2.1-.2,3.6-.3l-3,2.9Z"/><path class="cls-14" d="M161.15,429.61c2.1.5,2.2,1,.8,3.1C160.75,431.31,160.75,431.31,161.15,429.61Z"/><path class="cls-9" d="M199.25,428.51l-2.5,2.4-.7-3Z"/><path class="cls-9" d="M219.75,453.11H217l2-3.1Z"/><path class="cls-1" d="M120,411.21l2.7.3C121.85,412.81,121.85,412.81,120,411.21Z"/><path class="cls-2" d="M170.55,295.51h-2.7C168.65,295.11,169.55,294.41,170.55,295.51Z"/><path class="cls-2" d="M225.45,515.51l1.6-1.1c-.2,1.2-.8,1.3-1.6,1.1Z"/><path d="M162.35,512.81l-.6,1.9c-2.7.3-5.2.5-7.6,1a19.33,19.33,0,0,1-7.6.7c.3-.6.4-1.2.7-1.4C150.65,512.91,158.25,511.61,162.35,512.81Z"/><path d="M152.75,179.31a7.31,7.31,0,0,1-1-6.7,27.69,27.69,0,0,1,2.2-6.3,9.37,9.37,0,0,1,4.7-4.9c3.2-1.4,6.5-2.6,9.7-3.8,2.8-1.1,5.7-1.9,7.7-4.5a2,2,0,0,1,2.7-.3,1.46,1.46,0,0,1,.6.9,7.36,7.36,0,0,1,.5,3.6,8.62,8.62,0,0,1-5.3,6.9c-2.8,1.2-5.6,2.3-8.4,3.4-4.6,1.7-8.6,4-10.9,8.5a6.11,6.11,0,0,1-.7,1.4A15.27,15.27,0,0,1,152.75,179.31Z"/><path d="M104.55,243.51c-1.5-.8-1.1-1.7-.9-2.5a19.46,19.46,0,0,1,5-8.4c3.1-3,6.5-5.9,10.8-7.1a14,14,0,0,1,7.6-.5c0,2.3,0,2.5-1.7,2.4a14.32,14.32,0,0,0-6.4,1.5c-2.4.9-4.5,5.8-3.2,7.9a2.45,2.45,0,0,0,1.7,1.1,9.55,9.55,0,0,0,2.9-.3c.8-.1,1.6-.4,2.6-.6a6.12,6.12,0,0,1-5.5,4.2,4.66,4.66,0,0,1-4.9-3.7l-.8-3.2C108.35,236.81,106.85,240.41,104.55,243.51Z"/><path d="M118.15,119.61c-2.3,1.7-3.9.3-5.5-.3-1.2,1.8-1.2,5.3-.4,8.8a12.15,12.15,0,0,0,5.1,7.6,24.29,24.29,0,0,1-2.8.5,12.39,12.39,0,0,0,1.5,7.3c1,2.1,3.1,3.6,3.5,6l-.5.5a13.67,13.67,0,0,1-2.9-2c-3-3.8-5.2-7.9-4.2-13.1a2.49,2.49,0,0,0-.3-1.7,23.54,23.54,0,0,1-2.5-12.2,3.41,3.41,0,0,1,.7-2.2,3,3,0,0,0,.2-3.5c-2.6-5.2-2.5-10.7-1.4-16.2a4.67,4.67,0,0,1,3.9-3.9,3.49,3.49,0,0,1,1.3.5c-.1.4-.1.6-.2.7-3.7,2.4-3.7,6-3.1,9.7a44.81,44.81,0,0,0,1.4,7.3A7.66,7.66,0,0,0,118.15,119.61Z"/><path d="M137.25,164.41c1.8,0,2.7.9,2.7,2.8a4.14,4.14,0,0,1-3.5,4.3c-2,0-3-1.2-3.1-3.5A3.92,3.92,0,0,1,137.25,164.41Z"/><path class="cls-16" d="M319.09,388.86H360c1.49,0,1.53.09,1.45,1.57a78.75,78.75,0,0,0,.62,13.47,290.56,290.56,0,0,0,11.57,52.29c1.71,5.47,3.72,10.86,5.61,16.28.38,1.1.25,1.35-.81,1.35-2.93,0-5.87-.08-8.79.05a2.55,2.55,0,0,1-2.84-1.86c-1.86-4.42-3.86-8.78-5.8-13.16-.67-1.5-.72-1.52-2.27-1.06-1,.3-2.06.6-3.11.86-.89.22-1.13.7-.89,1.58,1,3.65,2,7.31,2.93,11,.13.5.25,1,.4,1.51.22.76-.06,1.12-.85,1.12-2.94,0-5.87,0-8.81,0a1.43,1.43,0,0,1-1.42-1.09c-1.13-2.75-2.32-5.47-3.45-8.21-.35-.83-.8-1-1.67-.74a92.59,92.59,0,0,0-21.55,10.35c-.3.2-.56.45-.84.68-.6.12-.38-.34-.38-.59,0-3.39,0-6.79,0-10.18v-7.44a17.53,17.53,0,0,1,3-1.8c4.88-1.74,9.79-3.38,14.71-5,1.42-.48,1.45-.43,1.06-1.9-3.76-14.19-7.41-28.39-8.74-43.08-.11-1.24-.36-1.32-1.61-1.05-2.8.61-5.61,1.17-8.42,1.74Zm27.66,18.54-.19,0a3.73,3.73,0,0,0,0,.46c.06,4.46-.07,8.94.23,13.38.57,8.23,2.55,16.23,4.34,24.25a1,1,0,0,0,1.19.9c1.07-.11,2.14-.22,3.21-.36s1.18-.28.88-1.32c-.77-2.6-1.5-5.21-2.37-7.77a153.08,153.08,0,0,1-6.66-26.34C347.18,409.54,346.94,408.48,346.75,407.4Z"/><path class="cls-16" d="M435.21,474.82c-3.6-1.33-5.61-4.25-7.32-7.42a60.57,60.57,0,0,1-5.53-15.64,82.92,82.92,0,0,1-2.21-21.06c.21-6.64,1.23-13.12,4.28-19.13a20.48,20.48,0,0,1,4.65-6.12c3.55-3.19,7.62-3.15,11.15.05a24.69,24.69,0,0,1,6.27,9.79,56.25,56.25,0,0,1,3.4,16.82,54.1,54.1,0,0,1-.21,12.2c-.66,4.15-.23,3.23-3.69,4.25s-7,2-10.45,2.95c-1.29.37-1.43.47-1.14,1.78.43,1.93,1,3.85,1.54,5.74a1.44,1.44,0,0,0,1.55,1.23c.87-.1,1.08-.84,1.31-1.53a1,1,0,0,0,.09-.38c-.06-1.86,1.09-2.37,2.69-2.6,1.87-.27,3.7-.75,5.56-1.11,1-.19,1.16,0,1,.93a47.25,47.25,0,0,1-4.73,13.63c-1.43,2.56-3.21,4.78-6.22,5.62Zm-2.93-39.91c.25,2.3.47,4.3.71,6.31.06.54.24,1.08.93,1a6.77,6.77,0,0,0,4.41-1.88,1.64,1.64,0,0,0,.38-1.06,35.7,35.7,0,0,0-2.08-12.58,5,5,0,0,0-.83-1.43.9.9,0,0,0-1.61.06,6.24,6.24,0,0,0-.88,2.16C432.89,430.05,432.59,432.61,432.28,434.91Z"/><path class="cls-16" d="M407,387.29c.2,4.56.37,9.12.6,13.68.08,1.45.26,1.58,1.75,1.6,2.24,0,4.49,0,6.74,0,2,0,4.11,0,6.16,0a5.51,5.51,0,0,1,1.11.24,5.85,5.85,0,0,1-.42,1c-2.08,3.08-4.2,6.15-5.33,9.75a20.93,20.93,0,0,0-.79,4c-.11.94-.5,1.24-1.37,1.22-1.18,0-2.36-.05-3.52,0-1.48.1-1.9.5-1.78,2,.42,5.23.73,10.48,1.45,15.67.88,6.23,2.07,12.42,3.26,18.6a37.34,37.34,0,0,0,1.75,5.69c.56,1.53,1.23,1.68,2.62.84s1.46-.88,2,.76,1,3.17,1.52,4.75a3.31,3.31,0,0,1-.77,3.52,9.84,9.84,0,0,1-7.09,3.69,5.89,5.89,0,0,1-2.55-.49,9.24,9.24,0,0,1-5.33-5.69c-1.58-4.9-3.16-9.81-4.49-14.79a405.81,405.81,0,0,1-10.06-54c-.5-4-.9-8-1.34-12.06Z"/><path class="cls-16" d="M504.38,451.85c-.37.41-.59.64-.79.88-5.1,6.49-10.17,13-14.31,20.19a1.71,1.71,0,0,1-1.68.92c-2.61,0-5.22,0-7.83,0-1.22,0-1.36-.23-.82-1.31a273.33,273.33,0,0,1,14.19-25.14c2.74-4.29,5.66-8.46,8.46-12.71a3.26,3.26,0,0,0,.54-1.72c-.13-5.28-.4-10.56-.47-15.84-.06-4.4.09-8.81.14-13.21,0-.92.46-1.33,1.41-1.32,4.38,0,8.75,0,13.12,0,1.2,0,1.34.22,1.19,1.43-.27,2.2-.55,4.4-.78,6.61a6.25,6.25,0,0,0,.19,2.23c.58-.62,1.18-1.23,1.74-1.87,2.23-2.52,4.42-5.07,6.69-7.54a2.71,2.71,0,0,1,1.75-.82c5.45-.07,10.9,0,16.35,0a11.3,11.3,0,0,1,1.18.17c-1,1.15-1.76,2.12-2.58,3.07Q533.34,416,524.6,426.17c-2.57,3-5.17,6-7.7,9a3.33,3.33,0,0,0-.8,1.89c-.14,11.3.06,22.58,1.75,33.78.1.68.23,1.35.36,2s-.08.95-.74.95h-7.64c-.75,0-1-.49-1.14-1.11q-2.06-9.92-4.13-19.82C504.51,452.63,504.47,452.37,504.38,451.85Z"/><path class="cls-16" d="M392.35,431.68c-.26-.35-.51-.72-.79-1.07-1.63-2-3.23-4-4.92-5.94a5.08,5.08,0,0,0-1.56-.79,5.66,5.66,0,0,0-.52,1.79,5.33,5.33,0,0,0,.64,2.12q6.1,11.32,12.28,22.62c1,1.91,2.15,3.81,3.33,5.64a17.19,17.19,0,0,1,2.45,8.85c.24,6.12-4.48,10.4-10.57,9.64a16.14,16.14,0,0,1-4.31-1.19,8.72,8.72,0,0,1-4.82-4.6c-1.69-3.79-3.56-7.49-4.22-11.64-.12-.73-.12-1.47-.17-2.21l.24-.12c.21.2.44.39.64.61a22.6,22.6,0,0,0,7.37,5.4,4.5,4.5,0,0,0,1.87.44c1.06,0,1.36-.69.74-1.56-1.85-2.6-3.73-5.19-5.61-7.78-4-5.43-8-10.81-11.1-16.8a86.19,86.19,0,0,1-4.58-10.37,18,18,0,0,1,.82-14.63,11.1,11.1,0,0,1,12.36-6.17,10,10,0,0,1,6.13,3.75,4.68,4.68,0,0,1,.71,2.27c.38,3.18.65,6.36,1,9.54A43.34,43.34,0,0,0,392.33,430a11.51,11.51,0,0,1,.37,1.54Z"/><path class="cls-16" d="M471.94,408c1.26-.88,2.41-1.77,3.65-2.52s2.55-1.35,3.83-2l.24.27a8.21,8.21,0,0,1-.14,1.11c-1.18,4.44-2.39,8.88-3.58,13.32a26.21,26.21,0,0,0-.65,2.86,1.53,1.53,0,0,1-1.63,1.46,15.22,15.22,0,0,0-2.21.37,5.16,5.16,0,0,0-4.31,4.46c-2.13,12.28-4.32,24.55-6.46,36.83-.48,2.73-.85,5.48-1.28,8.22-.21,1.31-.33,1.42-1.62,1.43h-6.07c-1.3,0-1.49-.17-1.44-1.49.22-5.15.42-10.3.74-15.44s.74-10.48,1.22-15.7q.94-10.29,2.06-20.55c.61-5.57,1.36-11.13,2-16.71.11-1.05.56-1.39,1.56-1.39,4.27,0,8.55,0,12.82,0,1.28,0,1.33.17,1.15,1.48a30,30,0,0,0-.18,3.29A2.2,2.2,0,0,0,471.94,408Z"/><path class="cls-16" d="M470.82,473.83h-3.33c-1.18,0-1.33-.17-1.08-1.34,1-4.69,1.89-9.41,3.07-14.06,2.8-11.07,5.73-22.11,8.61-33.16.29-1.07.67-2.11,1-3.18a1.42,1.42,0,0,1,1.45-1.2c1.76-.05,3.52-.12,5.28-.14s3.53,0,5.29,0c1.37,0,1.51.22,1.1,1.5q-5,15.63-10,31.25c-2,6.3-4.16,12.57-6.2,18.88a1.7,1.7,0,0,1-2,1.43C473,473.77,471.9,473.83,470.82,473.83Z"/><path class="cls-16" d="M492.72,416.67H482.16c-1.44,0-1.51-.09-1.17-1.44q1.26-5,2.53-10.06a9.35,9.35,0,0,1,.36-1c.57-1.51.57-1.45,2.17-1.45,3.82,0,7.63-.12,11.45-.16,2.21,0,2.21,0,1.49,2.05-1.18,3.39-2.34,6.79-3.55,10.17C494.75,416.7,494.72,416.69,492.72,416.67Z"/><path class="cls-16" d="M434.46,398.56a42.17,42.17,0,0,1,5-6,5.26,5.26,0,0,1,4.18-1.35c3.41.13,6.83,0,10.25-.05.44,0,.89.06,1.45.09a3.51,3.51,0,0,1-.32.71c-1.44,1.85-2.9,3.68-4.34,5.54a2.77,2.77,0,0,1-2.43,1.14c-4.07-.05-8.14,0-12.22,0C435.61,398.65,435.2,398.61,434.46,398.56Z"/><text class="cls-17" transform="translate(603.35 417.13) rotate(3)">CHEZ LES<tspan class="cls-18"><tspan x="-43.46" y="58.8"> </tspan><tspan class="cls-19" x="-27.94" y="58.8">I</tspan><tspan x="-1.21" y="58.8">NSALIENS</tspan></tspan></text></svg>