<svg id="Calque_1" data-name="Calque 1" xmlns="http://www.w3.org/2000/svg" xmlns:xlink="http://www.w3.org/1999/xlink" viewBox="0 0 760.4 290.7"><defs><style>.cls-1{fill:#fff435;}.cls-2{fill:#fff;}.cls-3{fill:#91aeeb;}.cls-4{fill:#ffe37c;}.cls-5{fill:#ffe0c3;}.cls-6{fill:#e1f8ea;}.cls-7{fill:none;}.cls-8{fill:red;}.cls-9{fill:#4271d6;}.cls-10{fill:url(#Dégradé_sans_nom);}.cls-11{fill:url(#Dégradé_sans_nom_2);}.cls-12{fill:url(#Dégradé_sans_nom_3);}.cls-13{fill:#a67c52;}.cls-14{font-size:37px;fill:#27a2d6;font-family:BaskOldFace, Baskerville Old Face;}</style><linearGradient id="Dégradé_sans_nom" x1="-332.44" y1="932.97" x2="-303.63" y2="932.97" gradientTransform="translate(-387.92 -253.47) rotate(-90)" gradientUnits="userSpaceOnUse"><stop offset="0" stop-color="#fff"/><stop offset="1"/></linearGradient><linearGradient id="Dégradé_sans_nom_2" x1="-298.37" y1="951.87" x2="-287.35" y2="951.87" xlink:href="#Dégradé_sans_nom"/><linearGradient id="Dégradé_sans_nom_3" x1="-305.14" y1="-80.77" x2="-298.15" y2="-80.77" gradientTransform="matrix(0, -1, -1, 0, 463.91, -253.47)" xlink:href="#Dégradé_sans_nom"/></defs><title>découvre ton village bleu</title><polygon class="cls-1" points="529.6 66.1 540.2 63.5 548.3 93.3 544.5 99.4 540.8 101.4 532 97.1 528.2 92.6 526.7 91.9 525.3 96 524.5 94.7 521.6 89.4 519.8 81.4 518.1 81.4 518.1 78.9 522.4 71.4 529.6 66.1"/><path d="M543.4,249c-2.6,1.8-4.9,3.5-7.2,5.2l-8.1,6c-3.7,2.9-7.5,5.5-11.4,8a37.12,37.12,0,0,0-3.2,2.3,59.32,59.32,0,0,1-10.1,6.4c-2,1-3.6,2.5-5.8,3.2a12.89,12.89,0,0,0-3.2,1.9c-2.2,1.6-4.7,2-7.2,2.5-3.9.7-7.8,1.2-11.7,1.6-2.6.2-5.2.7-7.8.3a4.3,4.3,0,0,0-1.6,0c-2.6.6-5.4.3-8,.6-3.7.4-7.4-.1-11.1.9a15.89,15.89,0,0,1-3.8.2c-1.4.1-2.8.3-4.3.4a38.46,38.46,0,0,1-4.8.1c-4.6-.2-9.3-.3-13.9-.7-3.8-.4-7.7-.8-11.2-2.9a3.4,3.4,0,0,1-1.8-4.3c.4-1.3.7-2.5,1.2-3.8a20.56,20.56,0,0,1,4.6-6.7c1.9-1.9,3.5-4,5.4-6s3.9-3.9,5.9-5.8c4.5-4.5,9-9,13.4-13.5,2.7-2.7,5.2-5.6,7.8-8.4.6-.7,1.3-1.2,1.9-1.9,1.4-1.5,2.9-3,4.3-4.6,1-1.1,2.1-2.3,3.1-3.5l-.6-.3a65.48,65.48,0,0,1-11.6-2,109.65,109.65,0,0,1-11.3-2.8c-3.7-1.3-7.5-1.6-10.6-4a.35.35,0,0,0-.2-.1c-3-.3-5.2-2.6-8-3.5a6.38,6.38,0,0,1-1.4-.8,57.84,57.84,0,0,1-10-7.7c-.7-.8-1.6-1.4-2.4-2.2a51.82,51.82,0,0,1-9.1-13.2,42,42,0,0,1-3.4-12.6c-.4-2.5-.8-4.9-1.2-7.4-1.4-1.1-2.5-.8-3.8.2-3.1,2.3-6.2,4.5-9.3,6.7-4,3-7.9,6-11.9,8.9l-11.9,8.6c-1.4,1-2.6,2.3-4,3.3-3,2.2-6,4.3-9,6.5a2.09,2.09,0,0,0-.6.4c-2,1.1-4.1,2.1-6.1,3.3-.5.3-1.1.8-1.1,1.3,0,2.1.1,4.3.3,6.4,0,.5.4.9.4,1.4a4.08,4.08,0,0,1-.1,1.9,15.72,15.72,0,0,1-1.9,2.6,1.39,1.39,0,0,1-1.9,0,2.19,2.19,0,0,1-.3-.5,1.88,1.88,0,0,0-2-1.1c-3.1.1-6.2.1-9.3.2-4.7.2-9.4.5-14.1.7-2.3.1-4.7.1-7,.2l-12.1.6c-4.4.1-8.7,0-13,.2-2.8.1-5.6.4-8.4.5-1.4.1-2.8,0-4.1.1-4.2.2-8.3.4-12.5.7-4.4.3-8.7.5-13.1.8-2.7.2-5.3.6-8,.9-2,.2-4,.3-6,.4-3.5.2-7,.5-10.5.6-3.8.2-7.5.4-11.3.5-4.5.2-9,.3-13.6.5s-9.1.4-13.6.7c-3,.2-6.1.6-9.1.9-2.1.2-4.3.3-6.4.4-4,.3-8,.7-11.9,1.1-4.4.4-8.8.9-13.2,1.4-.5.1-1.1,0-1.6.1-3,.3-5.9.7-8.9.9-3.5.3-7,.6-10.5,1-4,.4-8,.9-11.9,1.4s-7.7,1.2-11.5,1.7c-4.5.6-9,1.3-13.5,1.9-6.1.8-12.2,1.6-18.2,2.6a137.54,137.54,0,0,1-17,1.4c-4.8.2-9.5.2-14.3.4-2,.1-4,.6-6,.6-1.5,0-3.2.2-4.4-1.4a5.78,5.78,0,0,1,1.8-2.3c1.5-1.3,3-2.7,4.4-4.1,3.5-3.4,7.1-6.8,10.7-10.1,2.1-1.9,4.3-3.6,6.3-5.5,4.3-4.2,9-8,13.6-11.9,1.8-1.5,3.8-2.8,5.6-4.2,3.6-2.8,7.2-5.7,10.8-8.6,2.2-1.8,4.3-3.7,6.6-5.6a14,14,0,0,1,2.6-1.6l3-1.9-2.5-.7c-2.3-.6-4.6-1.1-7-1.7l-11.4-3c-2.2-.6-4.4-1.2-6.5-1.9-3.9-1.2-7.9-2.5-11.8-3.8-2.8-.9-5.5-1.9-8.3-2.8-2.3-.7-4.7-1.4-7.1-1.9-2.7-.7-5.5-1.2-7.9-2.8a6.7,6.7,0,0,0-1.8-.7c-2.1-.6-4.2-1.3-6.3-1.9L1.1,163H0a1.63,1.63,0,0,1,.3-.6c4.4-1,8.7-2,13-2.7,3.9-.7,7.8-1.2,11.7-1.7l10.1-1.2c3-.4,6-.7,9-1.1s6.3-.9,9.4-1.3c2.2-.3,4.4-.3,6.6-.6,1.7-.2,3.3-.5,5-.8,4.2-.6,8.5-1.1,12.7-1.8s8.7-1.4,13.1-1.7c3.4-.3,6.7-.7,10.1-1.1,4.4-.5,8.9-1.2,13.3-1.7,2.6-.3,5.1-.4,7.7-.6,5.5-.4,11-.9,16.4-1.3,2.8-.2,5.5-.3,8.2-.5,5.8-.3,11.6-.6,17.4-.8s11.4-.2,17-.4c4.8-.1,9.6-.4,14.4-.6,3.8-.2,7.6-.3,11.4-.5,3.2-.2,6.4-.6,9.7-.5,3.9,0,7.7-.4,11.6-.6,3.2-.1,6.4-.4,9.6-.6,1.1-.1,2.3-.1,3.4-.1,3.9-.1,7.8-.3,11.6-.4l9.3-.3c5.2-.1,10.4-.3,15.6-.4,6-.1,12-.2,18-.4,5.2-.2,10.4-.4,15.6-.7l9.1-.6c.9-.1,1.3.2,1.5,1.1.4,3.3.9,6.6,1.4,10.1,1.1.2,2.2.4,3.3.7l8.6,1.8c4.5,1,9.1,1.8,13.7,2.9,3.1.8,6,2,9,2.9,2.8.9,5.6,1.6,8.5,2.3,4.2,1.1,8.3,2.1,12.5,3.1a28.64,28.64,0,0,1,2.8.7,2.2,2.2,0,0,0,2.7-.8c-.3-2.7-.6-5.4-.8-8.2a58.5,58.5,0,0,0-.9-8.3H371a58.46,58.46,0,0,1-7.3-.4,6,6,0,0,1-4.4-3.3,2.8,2.8,0,0,1,0-2.2c.7-2.2,2.6-3.5,3.9-5.2,2.3-3.1,5.4-5.4,8.1-8.1l10.3-10a1.81,1.81,0,0,0,.7-1.7c-.3-2.4-.5-4.9-.6-7.3-.2-4.4-.3-8.9-.4-13.3-.1-4.7-.2-9.5,0-14.2a76.79,76.79,0,0,1,1.1-8.2,6.79,6.79,0,0,1,5.9-5.4,22,22,0,0,1,8.1.5,11.66,11.66,0,0,1,2.6,1c2.3,1.2,4.7,2.4,6.9,3.8,2.5,1.5,4.9,3.1,7.3,4.8,2.2,1.6,4.3,3.3,6.3,5a26.69,26.69,0,0,1,7.7,12.6,1.85,1.85,0,0,0,.2.7c.2.4.5.7.7,1.1,2.2-.1,4.4-.3,6.6-.3a13.44,13.44,0,0,1,4,.7c1.4.5,1.7,1.4,1,2.7a8.34,8.34,0,0,1-1.6,2.1c-2.1,2.2-4.3,4.4-6.5,6.6a8.34,8.34,0,0,1-1.2.8c1.8,8.9.9,18.1,1.6,27.1,1.7-.1,3.3-.2,4.9-.2l13.8-.3c4.4-.1,8.8-.1,13.1-.4,7.9-.6,15.8-.9,23.7-1,5.2-.1,10.3-.2,15.5-.4,3.9-.1,7.8-.4,11.7-.6a8.26,8.26,0,0,1,5.1,1,38.48,38.48,0,0,0,3-2.7,4.59,4.59,0,0,1,2.2-1.1,25.6,25.6,0,0,1,7.8-.4,2.17,2.17,0,0,1,1.7,2.5c-.1,2-1.2,3.6-1.8,5.4-.3.8-.7,1.5-1.1,2.4,4.1.1,7.9-1.1,11.9.1l.7-2.2c1.1-3,2.1-6.1,3.3-9.1a13.26,13.26,0,0,1,6.3-6.9,1.21,1.21,0,0,0,.5-.5h-2.8c-3.2-6.3-4.8-12.9-3.2-19.7l-3.2-1.2c-1.3,1.4-3.1,1.5-5.2,1.2a17.53,17.53,0,0,1-11-6.4c-.5-.7-1-1.5-1.5-2.3a2.56,2.56,0,0,0-.6,2.4c.1.3.2.7.3,1,0,1-.6,1.4-1.5.9a3.92,3.92,0,0,1-1-.8,39.92,39.92,0,0,1-2.7-4.4c-1.3-2.8-2.5-5.6-2.1-8.8a1.7,1.7,0,0,0-.1-.7.77.77,0,0,1-.3-.1l-.3.6c-.1.6-.2,1.3-1,1.2a1.24,1.24,0,0,1-1.1-1.4,19.33,19.33,0,0,1,.1-3.4,16.78,16.78,0,0,1,6.3-11.1,17.85,17.85,0,0,1,9.5-4.7,7.07,7.07,0,0,1,2.5.2.77.77,0,0,1,.7.8.37.37,0,0,1-.1.3,1.34,1.34,0,0,1-.8.7c-2.3-.4-4.3.5-6.1,1.5-4.6,2.5-8.3,5.8-9.8,11a3.4,3.4,0,0,0-.1,1c.5-.4.9-.6,1.2-.9.6-.4,1.2-.9,1.9-.3a1.37,1.37,0,0,1,.1,1.8,8.87,8.87,0,0,0-.7,5.1,15.51,15.51,0,0,0,2.1,6.6c.3.6.7,1.2,1,1.9,1.3-1,1.2-3.5,3.7-3.2,1.2,4.7,5,6.9,9,8.5,2.1.8,4.4,1.5,7,.3a86.7,86.7,0,0,0-3.8-8.2,9.36,9.36,0,0,0-1.6.4,9.91,9.91,0,0,1-10.7-2.4,15.34,15.34,0,0,1-2.8-4.6,13.16,13.16,0,0,1-.2-10.3c1-2.8,4.9-7,9.5-6.8h1.4c.5-6.2.7-12.3,2.2-18.5a12.65,12.65,0,0,0-2.8.3c-3.1,1.1-6.1,2.4-9.2,3.6-2.3.9-4.6,1.7-6.8,2.6-1.5.6-2.8,1.3-4.3,1.8-2.3.8-4.6,1.7-6.9,2.3s-4.7,1.2-7.1,1.7a8.5,8.5,0,0,1-7.6-2.3,1.52,1.52,0,0,0-1.3-.3c-3.8.7-7.5,1.5-11.3,2.1-1.8.3-3.7.5-5.5.8a19.68,19.68,0,0,1-3.5.6,30.13,30.13,0,0,1-6.7-1c-.9-.3-1.6-1.5-2.3-2.3a8.26,8.26,0,0,1-.7-1.3c-1.1.3-2.1.5-3.1.8-3.3.8-6.5,2.2-9.9,2.4a20.9,20.9,0,0,1-2.5.1c-2.7-.2-3.3-1.9-2.4-4.3a4.84,4.84,0,0,1,1.9-2.1A41.42,41.42,0,0,1,458.8,47c4.1-1.5,8.2-3.1,12.3-4.4,2.8-.9,5.8-1.6,8.7-2.4,3.8-1.1,7.6-2.3,11.4-3.2,4-1,8.1-2.2,12.3-2.4a24.47,24.47,0,0,0,3.7-.8c-.1-1-.8-1-1.4-1-2.3.1-4.5.3-6.8.3a41.93,41.93,0,0,1-5-.3c-2.2-.2-4.1-1-4.5-3.5a101.37,101.37,0,0,1-13.5.1,8.16,8.16,0,0,1-3.6-1.5,1.17,1.17,0,0,1-.5-1.6c.1-.1.1-.2.2-.3,1.6-2,3.1-4.2,5.9-4.9s5.3-1.8,8.1-2.3a79.48,79.48,0,0,1,9.8-1.2c4.5-.4,8.9-.6,13.4-.9h22.5c3.8,0,7.7,0,11.5.1,2.5.1,5,.4,7.5.5,1.3.1,2.5,0,3.8.1l3.2.3a14.46,14.46,0,0,1,3,.5c1,.3,2.2.7,3.4,1a7.43,7.43,0,0,1,6,6.4c.3,1.8.7,3.6,1.1,5.5,1.5,0,2.8-.1,4.2,0,4,.3,7,2,8.7,5.8a4.51,4.51,0,0,0,1,1.4,8.89,8.89,0,0,1,3,5.4,20,20,0,0,1,0,9.1,7.48,7.48,0,0,0,.1,2.6c.1,1.4.2,2.8.3,4.5,1.5-.5,2.8-1,4.2-1.5s3.1-.9,4.6-1.4a8.9,8.9,0,0,1,6.4,1c2.4,1.2,3.3,3.5,4,5.9,1,3.5,0,6.9-1.3,10.1a33.52,33.52,0,0,1-10.3,13.3c-.1.1-.1.2-.2.4l4.4,6.3a17.39,17.39,0,0,1,1.8-1.1c2.2-1.4,4.3-2.9,6.5-4.2,4-2.4,8-4.7,12.1-7,2.8-1.6,5.7-3,8.5-4.6l12.9-7.5c3.4-2,6.7-3.9,10.1-5.8l5.3-2.8-.2-3.3a9.4,9.4,0,0,1,4.5-9,59.86,59.86,0,0,0,5.5-4.5,3.51,3.51,0,0,1,3.8-.6c.4.2.9.3,1.5.6.2-1.4.3-2.6.4-3.8.6-4.7,1.2-9.4,1.8-14s1.2-9.4,1.8-14.2c.3-2.6,1.4-3.6,4.1-3.8a19.09,19.09,0,0,0,3.3-.6c3.2-.7,6.3-1.5,9.4-2.2a13.32,13.32,0,0,0,1.9-.5c3.1-.7,6.3-1.5,9.4-2.1s6.4-1.3,9.7-1.9c2.2-.4,4.5-.6,6.8-1,1.3-.2,2.6-.5,3.9-.7.6-.1,1.2-.2,1.5.5a1.08,1.08,0,0,1-.5,1.5h-.1c-.9.5-.8,1.4-.8,2.2-.3,4.2-.5,8.5-.9,12.7-.3,3.2-.7,6.4-1,9.6-.2,2.1-.3,4.3-.3,6.4a4.55,4.55,0,0,0,.5,2c.3.6.4,1.2-.2,1.6s-1.1,1.4-2.1,1.1c-.3-.1-.5-.5-.9-1-7.2.9-14.5,2-21.8,2.8s-14.3,2-21.6,3.2c.5,1,1.1.8,1.7.6a6.89,6.89,0,0,1,4.7.5,8.67,8.67,0,0,1,3.1,2.3c1.3,1.4,1.1,2.6-.3,4.2.4.9.7,1.9,1.2,2.8a2.91,2.91,0,0,1-.3,3.1,2.61,2.61,0,0,0-.3,2.7l.3,1.2a2.93,2.93,0,0,1-1.7,3.7c-.6.3-1,.6-.9,1.3.5,3.1-1,5.2-3.5,6.8-2,1.3-4,2.6-6,4a1.64,1.64,0,0,0-.7,1.1c-.4,3.8-.8,7.6-1.1,11.4-.1,1.8,0,3.6-.1,5.4a1.74,1.74,0,0,1-.6,1.2,1.26,1.26,0,0,1-1.3-.2c-.7-1.1-1.7-1.1-3-1.2a135.53,135.53,0,0,1,1-14.3c-1,.4-1.9.8-2.8,1.2-1.7.7-3.4,1-4.7-.8-.9.4-1.7.7-2.5,1.1-2.8,1.5-5.7,2.8-8.4,4.5-3,1.8-5.8,3.8-8.6,5.8a52.28,52.28,0,0,0-7.6,7.3,4.11,4.11,0,0,1-3.6,1.6,4.3,4.3,0,0,0-2.5.7c-3.3,2.1-6.7,4.3-10.2,6.1s-6.7,3.9-10,5.9c-2.2,1.3-4.3,2.5-6.5,3.8a.35.35,0,0,1-.2.1c-2.3,0-2.9,2-3.9,3.4a58.38,58.38,0,0,1-4.2,5.6c-.8.9-1.7,2.1-3.3,2.2-.6,0-1.2.6-1.9,1-.5-.5-.7-1.6-2-.9l3.5,10.6c4.8.1,9.6-.7,14.4.3,1.1-1.2,2.2-2.4,3.2-3.7a10.89,10.89,0,0,1,6-4.1,22.4,22.4,0,0,1,5.2-.3,62,62,0,0,1,6.2.6c1.4.2,2.7.5,3.1,2.2.1.3.7.6,1.1.7,1.8.4,3.5.7,5.3,1,.4,0,.7.1,1.1.1,3.6,1.4,7.4,1.1,11.1,1.7,4.5.7,9.1,1.2,13.7,1.7,5.8.6,11.5,1,17.3,1.6s11.7,1.1,17.5,1.8c2.4.3,4.9.5,7.3.6,3,.1,6,.3,8.7,1.9a5.64,5.64,0,0,0,1.2.4c.7-2,1.4-4,2.1-5.9a63.07,63.07,0,0,1,10.9-19,59.29,59.29,0,0,1,11.1-10.1c2.5-1.7,4.9-3.7,7.5-5.3,2.9-1.8,6-3.3,8.9-4.9,1.9-1.1,3.8-2.3,5.7-3.3a4.42,4.42,0,0,1,1.5-.5.78.78,0,0,1,.9.6v.3a7.49,7.49,0,0,1-.2,2.1,35.73,35.73,0,0,0-.7,9.8,63.73,63.73,0,0,1-.1,13.1c-.3,1.8-.3,3.7-.5,5.6a25.6,25.6,0,0,1-2.8,9.4,86.22,86.22,0,0,1-9.8,15.5c-3.5,4.6-7.3,8.8-11.1,13.1a1.74,1.74,0,0,0-.3,1.4c.2,1.8.5,3.6.6,5.5a30.37,30.37,0,0,1-.4,5.2,56.75,56.75,0,0,1-3.7,14,74.9,74.9,0,0,1-4.6,8.9,75.64,75.64,0,0,1-4.4,7.1,57.12,57.12,0,0,1-3.8,4.8c-1.6,2-3,4.1-4.7,6.1-1.9,2.3-4.1,4.4-6.1,6.6a4.88,4.88,0,0,1-4.9,1.7c-.6,1.9-1.2,3.6-1.7,5.4a54.92,54.92,0,0,1-5.8,13.4,68.45,68.45,0,0,1-5.7,7.6c-1.5,1.9-3.2,3.6-4.8,5.4a29.55,29.55,0,0,1-5.7,4.9c-1.4.9-2.7,2-4.2,2.8a48.06,48.06,0,0,1-9.6,3.5c-1.5.4-3.1.9-4.6,1.4-.2.1-.5.3-.7.2-1.4-.2-2.8-.5-4.2-.8V244a3.91,3.91,0,0,0-3,.3,44.46,44.46,0,0,1-7.1,3,27.81,27.81,0,0,1-4.9.8c-4.1.5-8.1,1-12.2,1.4-2.6.3-5.1.3-7.7.5-2,.2-4,.5-6,.7-2.9.3-5.8.6-8.8.7-4.5.2-9.1.3-13.6.5-3.5.1-6.9-.3-10.4.2a36.42,36.42,0,0,1-6.6-.2c-2,0-4.1-.1-6.1-.1a128.05,128.05,0,0,1-13.8-1,18.7,18.7,0,0,0-3.4-.3c-2.6.2-5-.5-7.5-.9A7.59,7.59,0,0,1,543.4,249ZM670.6,82.7c-.2,3.2-.8,6.3-.3,9.5a45.34,45.34,0,0,0,.5-5.3c-.1-1.4-.2-2.9-.2-4.2.1-.2.4-.3.5-.4.3-2,.6-4.1.8-6.1.2-1.6.4-3.3.5-4.9a2.26,2.26,0,0,0,.1-1.8h-.4l.3,1.8c-.2.1-.5.2-.5.4-.2,1.1-.3,2.1-.4,3.2ZM9.7,241.6l.2.4a4.87,4.87,0,0,0,1.2.1l5-.6a41.19,41.19,0,0,1,4.8-.5c5.2-.2,10.4-.2,15.6-.4,2.3-.1,4.7-.2,7-.4,2.8-.3,5.6-.7,8.3-1,2.3-.3,4.6-.6,6.9-1,4.5-.7,8.9-1.5,13.4-2.1l17.4-2.4,8.3-1.2c3.2-.4,6.4-.7,9.6-1l8.4-.9,8.9-.9c2.5-.3,5-.6,7.5-.8,4.1-.4,8.3-.7,12.4-1.1,3.1-.3,6.2-.6,9.3-.8,5.8-.4,11.7-.9,17.5-1.2,7.3-.4,14.7-.6,22-.9,1.1,0,2.1.1,3.2,0,4.4-.3,8.7-.7,13.1-1,5.1-.4,10.1-.7,15.2-1.1,5.8-.4,11.6-1.1,17.4-1.4,7.9-.5,15.9-.8,23.8-1.1,5.4-.2,10.9-.3,16.3-.4,1.7,0,3.4,0,5-.1l14-.6c2-.1,4-.1,5.9-.2l9.9-.6c2.3-.1,4.6,0,6.8,0,1.7-.1,1.9-.4,1.9-2.1-.1-3.2-.2-6.5-.3-9.7-.1-2.7-.3-5.4-.5-8.1l-.9-12.3c-.4-5.1-.6-10.2-1-15.2-.2-2.4-.6-4.8-.8-7.1-.3-3.5-.5-7-.7-10.6-.1-1.6-.3-3.2-.5-4.8-.3-2.8-.7-5.7-1.1-8.6-.6,0-1.1-.1-1.6-.1-1.5.1-3,.3-4.5.3-5,.3-10,.6-15,.7-5.3.2-10.7.2-16,.4s-10.8.3-16.3.4c-4.6.1-9.2.2-13.7.4-3.2.1-6.3.2-9.5.4-4.1.2-8.2.5-12.3.7s-8,.3-12,.4l-10.7.6c-3.6.2-7.3.3-10.9.5-3.8.2-7.6.5-11.5.6-2.8.1-5.5,0-8.3,0-4.6.1-9.2.3-13.8.3-2.8.1-5.6,0-8.4.1-4.3.2-8.6.7-12.9,1-3.8.3-7.6.5-11.4.8s-7.6.5-11.4.8a20.9,20.9,0,0,1-2.5.1l-8.4.9c-2,.2-3.9.3-5.9.5l-9.8,1.2c-3,.4-5.9.6-8.9,1-3.3.4-6.6,1-9.9,1.5-2.9.4-5.8.7-8.7,1.1-2.2.3-4.5.6-6.7.8-2.4.3-4.9.4-7.3.8-6.8.9-13.6,1.9-20.4,2.7l-14.9,1.8c-4.1.6-8.2,1.3-12.4,2-.3.1-.7.2-1.4.4a17.55,17.55,0,0,0,3.2,1.2,34.13,34.13,0,0,1,6.3,2.4,12.31,12.31,0,0,0,4.9,1.6,9,9,0,0,1,1.6.3c2.6.8,5.3,1.6,7.9,2.4,2.1.7,4.2,1.5,6.3,2.2,3.8,1.2,7.7,2.2,11.5,3.5a93.24,93.24,0,0,0,9.9,3c2.2.5,4.4,1,6.6,1.6,3.4.9,6.8,1.8,10.2,2.6,1.2.3,2.4.5,3.5.8a1.82,1.82,0,0,1,1,1.1c.1.3-.4.8-.7,1.1a54.83,54.83,0,0,1-5.2,3.1,18.19,18.19,0,0,0-3.8,2.9c-.7.7-1.4,1.3-2.1,1.9-1.3,1.1-2.7,2.1-4.1,3.2-2.5,2-4.9,4-7.4,5.9-3.4,2.7-6.9,5.2-10.3,7.9-2.2,1.8-4.3,3.8-6.4,5.6-1.8,1.6-3.8,3.1-5.6,4.8l-10.2,9.3c-1.7,1.6-3.5,3.3-5.1,5.1-1.2,1.3-2,2.8-3.7,3.6C10.6,240.7,10.1,241.1,9.7,241.6Zm555.8-10.2v.4c.6.1,1.2.1,1.7.2l7.9.6c2.4.2,4.9.3,7.3.3s4.9,0,7.3.1H591l6.1-.6c6-.6,12.1-1.1,18.1-1.9,6.2-.9,12.4-2.1,18.5-3.3a108,108,0,0,0,16.5-5,32.69,32.69,0,0,1,3.3-1.4c4.2-1.3,7.6-4.1,11.5-5.8a5.55,5.55,0,0,0,.8-.6c-1.7-2.9-1.9-6.1-1.8-9.4a58.45,58.45,0,0,1,.4-5.9c.5-3.6,1-7.2,1.7-10.8a60.47,60.47,0,0,1,2.4-8.3c.9-2.5,1.9-4.9,3-7.3a50.58,50.58,0,0,1,5.4-10.3c2.5-3.3,5-6.6,7.7-9.7a43.38,43.38,0,0,1,8.3-7.7l1.2-.9a25.85,25.85,0,0,1-2.8,0c-1.2-.1-2.4-.3-3.6-.4-1.9-.2-3.8-.3-5.7-.4s-4-.5-6-.7c-1-.1-2.1-.1-3.2-.3-3.5-.4-7-.8-10.5-1.1-1.3-.1-2.7.1-4.1-.1-3.3-.4-6.6-1-9.9-1.5l-6.9-.9c-1.6-.2-3.2-.3-4.8-.6-3.2-.7-6.4-1.4-9.6-2.2a3.35,3.35,0,0,0-3.3.7c-1.5,1.6-3.1,3.1-4.7,4.7-.5.5-.9,1.2-.4,1.8,3.4-.1,6.7-.3,9.9-.3a12.49,12.49,0,0,1,4.2.8,3.39,3.39,0,0,1,2.3,4.2c-.1.2-.1.4-.2.6-.3.6-.7,1.2-1,1.9l2.4,1.5a3.27,3.27,0,0,1,1.5,2.3,7.59,7.59,0,0,1-1.8,5.6c-.8,1-1.8,1.9-2.7,2.9.9.7,1.8,1.4,2.7,2.2a2.62,2.62,0,0,1,.8,3.1,13,13,0,0,0-.4,2.1c-.9,2.7-2.2,5.1-5.2,6-2.2.6-4.5,1-6.8,1.5a23.55,23.55,0,0,1-7.5.5c-3.1-.3-3.7-.8-4.5-3.4,0-.1-.2-.1-.3-.3-.2.1-.5.3-.7.4a40.73,40.73,0,0,1-8.2,4.5,56.82,56.82,0,0,1-7,2.2,36,36,0,0,1-12.2,1.3A14.18,14.18,0,0,1,576,180l-4.9-3.9c-.5,0-1,.1-1.6.1-1.1,0-2.1-.1-3.2-.1a74.93,74.93,0,0,1-16.4-.9q-5.25-.9-10.5-2.1a59.75,59.75,0,0,1-6.9-2c-2.3-.8-4.5-1.7-6.7-2.6a21,21,0,0,1-3-1.5c-1.1-.7-2-1.8-3.1-2.4a4.8,4.8,0,0,1-2.5-2.9c-.4-1-.9-2-1.3-2.9-1.6-3.5-1.5-7.1-.9-10.7a39.1,39.1,0,0,1,3.9-11.5,9.83,9.83,0,0,0,.5-1.6,22.59,22.59,0,0,1-3.3.4c-4.3.2-8.6.3-12.9.4l-14,.3c-4.8.1-9.5,0-14.3.2-3.9.1-7.8.7-11.8.9-4.6.2-9.2.3-13.8.4-1.4,0-2.9,0-4.3.1-1.7.1-3.3.2-5,.2a17.13,17.13,0,0,0-3.2-.1c-1.9.3-4.1-.2-5.8,2a10.56,10.56,0,0,1-.6-1.9c-.3-4.1-.7-8.2-.7-12.4a121.38,121.38,0,0,0-1.1-15.9c-.7-4.9-1.3-9.8-3.2-14.5-1.4-3.2-2.6-6.4-4.9-9.1-3.5-4.1-7.9-7.2-12.2-10.2-2.8-1.9-5.9-3.4-8.8-5.1A18.18,18.18,0,0,0,389,68.5a5.73,5.73,0,0,0-5.1,4.8c-.3,2.1-.6,4.3-.7,6.4-.1,3.6-.1,7.3-.1,10.9.1,5.4.2,10.9.4,16.3.1,1.9.2,3.7.3,5.5a16,16,0,0,0,.5,2.1,14.37,14.37,0,0,0,2.5-1.8,6.84,6.84,0,0,1,5.5-1.6c2,.2,3.9.4,5.9.5,2.8.1,5.6,0,8.4,0a82.65,82.65,0,0,1,8.6.5,19,19,0,0,1,4.6,1.5,2.74,2.74,0,0,1,1.7,2.4c.2,2.4-1.2,4.3-2.4,6.2a14.16,14.16,0,0,1-2,2.2c-1.4,1.4-2.7,2.8-4.1,4.2-1.6,1.6-3.3,3.1-5,4.6-2,1.9-3.9,3.9-5.9,5.6-1.5,1.3-3.3,2.4-4.8,3.7a9.86,9.86,0,0,1-4.6,2.2c-1.6.3-3.2.5-4.8.7l-2.8.4v1.5l1.4,14.4a1.39,1.39,0,0,0,1.1,1.4,3.23,3.23,0,0,1,1.7,4.2l-.3.6a3.17,3.17,0,0,1-.8,1.2,1.57,1.57,0,0,0-.5,1.7c.1.6.2,1.3.3,1.8.4.1.7.1.8.3a35.94,35.94,0,0,1,3.8,4,45.72,45.72,0,0,0,4.3,4.5c2.5,2.5,5.6,4.2,8.5,6.2a36.68,36.68,0,0,0,6,3.6c.3.1.5.3.8.4,2.6,1.4,5.1,2.8,7.7,4.1,1.1.6,2.4.9,3.5,1.4a69,69,0,0,0,13.1,4.9,102.14,102.14,0,0,0,13.3,3c5.5.9,11,1.5,16.5,2.2a34.74,34.74,0,0,1,5.5.8,1.83,1.83,0,0,0,2.3-.6,18.34,18.34,0,0,1,3.2-3.6c2.8-2,4.8-4.7,7.2-7s4.7-5.1,7-7.7c.9-1,1.8-2.1,2.7-3.1a2.22,2.22,0,0,1,1.3-.8,21.86,21.86,0,0,1,3.6-.3h10.6c3.1,0,6.2-.1,9.3-.1,4.7,0,9.3.1,14,.1,5,0,10-.1,14.9-.1,9.1.1,18.2.2,27.3.4a78.87,78.87,0,0,1,8.4.5,75.64,75.64,0,0,1,8.3,1.4,6.22,6.22,0,0,1,4.7,7.2,24.69,24.69,0,0,1-4.8,9.9,6.42,6.42,0,0,0-1,1.3c-2,3.6-5,6.4-7.7,9.4-1.8,2-3.8,3.8-5.7,5.7-1.7,1.7-3.3,3.5-5.1,5.1C569.9,227.8,567.6,229.6,565.5,231.4Zm-137,26.2c-2.4,2.3-4.7,4.4-6.8,6.6-2,2-3.8,4.3-5.9,6.3a24.77,24.77,0,0,0-6.6,10.7c-.5,1.3-.3,2,.9,2.7.4.2.8.4,1.3.6a42.9,42.9,0,0,0,10,1.8c3.8.3,7.5.4,11.3.5,2.3,0,4.7-.1,7-.3,4-.3,8.1-.8,12.1-1.1,3.2-.2,6.3-.3,9.5-.5,5-.3,10-.6,15-1,6.5-.5,13-1.2,18.9-4.4a53,53,0,0,0,5.7-3.3c3-2.3,6.3-4.2,9.4-6.3l12.3-8.4c1.4-1,2.6-2.1,4-3,3.7-2.7,7.5-5.2,11.1-8,5.7-4.4,11.2-9,16.9-13.4,2.5-2,5.2-3.9,7.7-5.9,2.8-2.2,5.5-4.4,8.1-6.8s5.1-5,7.7-7.6c2.6-2.4,5-4.9,7.4-7.6a57.47,57.47,0,0,0,7.8-11.6,11.24,11.24,0,0,0,1-3.1,4.46,4.46,0,0,0-3-5.4c-.2,0-.3-.1-.5-.1-.9-.2-1.8-.2-2.6-.4a47.32,47.32,0,0,0-9.2-1.2c-2.3-.2-4.7-.2-7-.3s-4.5-.1-6.8-.2a2.17,2.17,0,0,0-2.1,1.1c-1.3,2.4-3.5,4-5.3,6-2,2.3-4.4,4.2-6.6,6.3-1.7,1.6-3.4,3.2-5,4.8-2.5,2.6-4.9,5.2-7.5,7.7-4,3.9-8,7.7-12,11.5-3,2.9-6,5.8-9.1,8.6-2.5,2.3-5.2,4.5-7.8,6.7-1.8,1.6-3.8,3.1-5.6,4.8-3.2,2.9-6.3,5.9-9.5,8.7-2,1.8-4.2,3.3-6.2,5a14.11,14.11,0,0,1-4.5,2.5,65.3,65.3,0,0,1-7.6,2c-2,.4-4,.6-6,.8-3.6.3-7.1.7-10.7.8s-6.9-.2-10.3-.3c-1.7,0-3.5-.1-5.2-.1a27.82,27.82,0,0,1-8.9-1.9c-1.2-.5-2.5-.6-3.5-1.6-1.2-1-2.2-1.9-3.3-2.7Zm133-70.5a2.92,2.92,0,0,0-.9-.2H530.9c-1.1,0-2.3-.1-3.4-.1-4.5,0-9.1,0-13.7.1-5.5,0-11.1-.4-16.7.1a3,3,0,0,0-2.5,1.2,39.16,39.16,0,0,1-2.7,3.3c-1,1.2-2.1,2.3-3.2,3.4-2.5,2.7-5.1,5.4-7.6,8-1.1,1.1-2.2,2.1-3.3,3.3-2,2.1-3.9,4.3-6,6.3-2.4,2.4-5,4.6-7.4,7.1s-4.7,5.1-7,7.6l-5.4,6c-1.6,1.7-3.3,3.4-4.9,5.1-2.9,3.1-5.7,6.2-8.6,9.2-2.3,2.4-4.7,4.7-7.1,7.1-.3.3-.8.7-.8,1.1s.5.7.8,1a2.19,2.19,0,0,1,.3.5c.2,1.4,1.3,2,2.4,2.4a33.35,33.35,0,0,0,12.4,2.4c2.3,0,4.7.1,7,.1,3,0,6,.2,9,.1,1.6,0,3.2-.2,4.8-.3h1.4c4.1-.9,8.4-.8,12.5-2.2,2-.7,4.2-1,5.8-2.6.7-.7,1.4-1.4,2.2-2.1l6.9-6c2-1.7,3.8-3.6,5.8-5.3,4.3-3.7,8.8-7.4,13.1-11.1,2.9-2.6,5.7-5.2,8.5-7.9,3.3-3.2,6.6-6.4,10-9.6,1.7-1.6,3.5-3.1,5.1-4.7,3.9-4,7.8-8.1,11.7-12.1,2.4-2.4,4.9-4.7,7.3-7.1,1.3-1.4,2.4-2.6,3.9-4.1Zm21.3-29.6a26.79,26.79,0,0,1-4-4.9,66.49,66.49,0,0,0-3.6-5.6c-1.7-2.4-3.4-4.8-5.1-7.1-.6-.8-1.2-1.7-1.8-2.4-1.6-2-3.3-3.9-4.9-5.9a29.7,29.7,0,0,0-5.6-5.6c-1.6-1.1-3.1-.7-3.7,1.2a11.71,11.71,0,0,0-.4,2.6c-.4,5.4,1,10.4,2.7,15.4a50.14,50.14,0,0,0,2.9,6.7,114.5,114.5,0,0,0,5.7,11c2.3,3.7,5,7.2,7.6,10.6a22.77,22.77,0,0,0,3.8,3.8,14.56,14.56,0,0,0,9,3c5.8.2,11.3-1.4,16.6-3.4,3.3-1.3,6.5-2.8,9.7-4.3,0-.3,0-.6-.1-.7-.4-.4-.4-.8,0-1a1.16,1.16,0,0,1,1,.2,7.43,7.43,0,0,1,1.3,2.1,3,3,0,0,0,2.7,2.4c.5,0,1,.1,1.4.1,3.6.2,7.1-.7,10.7-1.3a6.37,6.37,0,0,0,4.8-3.6,13.82,13.82,0,0,0,.8-2.7c.4-1.9.4-1.9-1.3-3.1-.8-.5-1.8-.8-2.1-2a41.45,41.45,0,0,0,2.4-3.4,19.23,19.23,0,0,0,1.8-3.1c.8-1.9.5-2.6-1.3-3.8l-1.8-1.2c-.6-.4-1.4-.6-1.3-1.5s1.2-.5,1.8-1c.1-.3.2-.5.3-.8.5-1.9,0-2.8-2-3.1a12.41,12.41,0,0,0-2.7-.3c-4.5-.1-9,.1-13.2,1.7a6.77,6.77,0,0,0-4.6,7.2H612c1,0,2-.1,3-.1a1.06,1.06,0,0,1,.7.6,1,1,0,0,1-.5.8,8.8,8.8,0,0,1-1.5.5,56.89,56.89,0,0,1-7.1.7c-3.8,0-7.6.5-11.4.5-3.1,0-6.2.2-9.3.4-.9.1-1.9.3-3.1.4ZM758,98.5c-2,1.3-3.5,2.6-5.2,3.3-2.8,1.1-5.2,2.9-7.9,4.2a8.17,8.17,0,0,0-2,1.2c-1.6,1.1-3.3,2.2-4.8,3.4a79.48,79.48,0,0,0-6.4,5.1,53.6,53.6,0,0,0-7.5,8.3,71.89,71.89,0,0,0-6.7,11.8c-.6,1.4-.8,3-1.5,4.4a64.24,64.24,0,0,0-3.9,12.2c-.3,1.1-.6,2.2-.8,3.3-.4,3.4-1.8,6.6-1.7,10.1,0,.2-.1.3-.1.5a41.42,41.42,0,0,0-.1,6.1,26.35,26.35,0,0,0,2.8.2,3.61,3.61,0,0,1,2.5.6c1.3.8,2.6,1.5,3.8,2.3a1.56,1.56,0,0,0,2.1-.2c3.3-2.8,6.7-5.5,10-8.2a15.46,15.46,0,0,0,2.7-2.4c2.8-3,5.5-6,8.2-9.1,1.2-1.3,2.1-2.9,3.2-4.3a62.21,62.21,0,0,0,8.7-13.5c1.8-4,3.5-8,3.5-12.5,0-1.5.4-3.1.4-4.6.1-3.6,0-7.3,0-10.9,0-2.4-.5-4.8.1-7.1A38.47,38.47,0,0,0,758,98.5ZM669.2,218.2c-.4.4-1,1.1-1.6,1.7a32.27,32.27,0,0,0-5.3,7.4,44,44,0,0,0-3.7,15.1c-.3,3.7-.1,7.5-.2,11.3,0,2.2-.1,4.4-.1,6.6v9a18.29,18.29,0,0,0,2.5-.6c1.8-.5,3.7-1.1,5.5-1.6a36.63,36.63,0,0,0,13.6-6.6,48.29,48.29,0,0,0,4-3.8c1.4-1.4,2.5-3,3.9-4.4a45.82,45.82,0,0,0,9.3-15.2,99.84,99.84,0,0,0,4.8-17c.9-5.2,2-10.3,3-15.5v-1c-2.2-.4-4.1-.8-6.1-1.2s-3.3-2.2-4.9-3.6a221.35,221.35,0,0,0-23,17.9c.4.7,1.1,1.4.3,2-.4,0-1.2-.4-2-.5Zm-123.7,29,.1.5,5.8.6a28.1,28.1,0,0,0,2.9.1c2.8.2,5.6.5,8.4.8,1.2.1,2.4.1,3.6.1,4.1.2,8.2.4,12.3.5,3.4,0,6.8-.1,10.2-.2,3.2,0,6.4,0,9.5-.1,2.7-.1,5.4-.4,8-.6s5.3-.2,7.9-.6c3.1-.4,6.1-1.1,9.3-.9a6.15,6.15,0,0,0,1.4-.1l13.2-1.5q3.45-.3,6.9-.9c3.3-.8,6.6-1.9,10-2.9a2,2,0,0,0,1.5-1.8c.4-2.3.8-4.6,1.3-6.9a24.89,24.89,0,0,1,3.3-8.3c2-2.9,4.2-5.5,6.3-8.3.2-.3.3-.7.5-1a5,5,0,0,0-2.3.9c-.7.4-1.4.9-2.2,1.3l-5.7,3.3a6.11,6.11,0,0,1-1.4.7c-3.4,1-6.5,3-10,3.8-2.7.6-5.2,1.6-7.9,2.3s-5.3,1.2-8,1.8a46.9,46.9,0,0,1-9.1,1.6,5.9,5.9,0,0,0-1.4.2c-3.5.5-7.1,1.2-10.6,1.6-5.5.6-10.9,1.1-16.4,1.4-4.8.2-9.6.2-14.4.1-2.9-.1-5.7-.5-8.6-.7-2.1-.1-4.2-.3-6.3-.3a3.61,3.61,0,0,0-2,.6,27.5,27.5,0,0,0-2.8,1.9c-3.1,2.4-6.1,4.8-9.1,7.2-1.4,1.3-2.8,2.5-4.2,3.8ZM327.6,206.9a15.39,15.39,0,0,0,1.9-.8c1.8-1.1,3.5-2.2,5.3-3.4,3.1-2.1,6.1-4.1,9.1-6.3,3.8-2.8,7.4-5.8,11.2-8.6,2.7-2,5.4-3.9,8.1-5.9,3.6-2.7,7.1-5.5,10.7-8.2,2.2-1.7,4.5-3.3,6.8-5,1.1-.8,1.2-1.3.7-2.9-1.8-.4-3.7-.9-5.6-1.4a19.8,19.8,0,0,1-2.6-.6c-2.2-.6-4.3-1.4-6.5-1.9-3.5-.8-7-2-10.4-3-1.8-.6-3.7-1-5.5-1.5-1.1-.4-2.2-1-3.3-1.3-3.7-.8-7.5-1.4-11.1-2.3-2.5-.6-5-1-7.4-1.6-1.6-.4-3.3-.8-5.2-1.2a12.12,12.12,0,0,0,.1,2c.2,2.9.5,5.8.7,8.8.1,1.3,0,2.5.1,3.8.4,4.5.9,9,1.3,13.5.4,4.8.6,9.7.8,14.5.2,4.1.5,8.1.7,12.2a2.16,2.16,0,0,0,.1,1.1Zm379.5-34.5c-.1-8.7,1.9-17,3.9-25.4-.7-.3-1.2-.6-1.8-.9a21.45,21.45,0,0,0-6.1-1.3,14.54,14.54,0,0,0-10.8,2.9,25.76,25.76,0,0,0-3.4,3.2c-2.2,2.4-4.3,4.9-6.5,7.4a50.61,50.61,0,0,0-8,12.4,117.4,117.4,0,0,0-5.9,16.3,22.91,22.91,0,0,0-.7,2.8c-.4,3.1-.6,6.3-1.2,9.4a43,43,0,0,0-.3,8.8,9.93,9.93,0,0,0,1.3,5.3c1.5,0,1.5,0,2.2.8l22.5-17.3c-2.5-5.5-1.2-10.6,1.6-15.5A17.86,17.86,0,0,1,707.1,172.4ZM464.7,56.8c.5,1.4.8,2.5,2,2.7a25.05,25.05,0,0,0,5.5.6,63.21,63.21,0,0,0,7.6-1.1c3.1-.6,6.1-1.2,9.1-1.8,5-1,10-2.1,15.1-3.1,1.8-.4,3.7-.5,5.5-.8l.1.5c-4.3,1.9-9,2.6-13.6,4.2a4.81,4.81,0,0,0,4.3,1.3,34.49,34.49,0,0,0,5.4-1.1,116,116,0,0,0,12.5-4.4c2.2-.9,4.5-1.7,6.7-2.5,2.6-1,5.2-2.1,7.9-2.9s5.2-1.4,7.7-2l2-3c-.7-1.7-1.4-3.5-2.3-5.2a7.29,7.29,0,0,0-5.5-3.8,28,28,0,0,0-7.6-.7c-1.6.2-3.2.1-4.8.3-3,.3-6,.5-8.9,1s-5.8,1.1-8.8,1.6a107.26,107.26,0,0,0-12.3,2.5c-3.7,1.1-7.5,2.1-11.2,3.2-4.3,1.3-8.7,2.5-13,3.9-3.2,1-6.3,2.3-9.4,3.5a37.65,37.65,0,0,0-11.1,6.5,2.38,2.38,0,0,0-.9,2.8,17.82,17.82,0,0,0,6.1-.5c2.6-.8,5.3-1.5,7.9-2.2,3.8-1.1,7.7-2.3,11.5-3.4a117.42,117.42,0,0,1,13.1-2.8c1.1-.2,2.3-.3,3.5-.5l.1.4c-3.9,1.5-7.9,2.3-11.9,3.5S468.9,55.6,464.7,56.8ZM601.1,114l.4.2c.4-.2.7-.4,1.1-.6,5.4-3.1,10.9-6.2,16.3-9.4,2.7-1.6,5.3-3.2,8-4.8,1.4-.8,2.7-1.9,4.5-1.4a1.5,1.5,0,0,0,1.1-.4,30,30,0,0,0,3-3.2,36,36,0,0,1,6.5-5.8,106.79,106.79,0,0,1,17-10c1.1-.5,2.4-.9,2.5-2.5a.68.68,0,0,1,.7-.7.37.37,0,0,1,.3.1,1.16,1.16,0,0,1,.4,1,3.12,3.12,0,0,0,.5,2.5,2.2,2.2,0,0,0,.8-.1c1.4-.5,2.8-1,4.2-1.6a2.19,2.19,0,0,0,.9-1c.4-2.5.7-4.9,1.1-7.4a5.13,5.13,0,0,1-3.5-3.5,20.73,20.73,0,0,1-.8-4.2,3.52,3.52,0,0,1,1.7-3.5c.3-.1.5-.3.8-.4l-2-1.5c-1.3.8-2.3,1.9-4.3,1.7l2.7-2.8a9.14,9.14,0,0,1-.7-1.4.78.78,0,0,1,.2-.8,1.18,1.18,0,0,1,1-.1c.3.1.4.4.6.6l4.2,3.3c1.1-.8,2-1.5,2.9-2.1a1.66,1.66,0,0,0,.6-2.3h0l-3.7,2.6a3.9,3.9,0,0,1-1.8-3.7l3.6-2.3a4.88,4.88,0,0,0-.3-.7c-.9-2.3-2.3-2.5-4.2-.9a66.35,66.35,0,0,1-5.6,4.1c-1.5,1.1-2.8,2.6-2.8,4.5,0,3.3.2,6.7.3,10a3.51,3.51,0,0,0,.6,1.4c2-.7,2-.7,2.5.4a1.79,1.79,0,0,1-.7.5c-2.1,1.4-3.6.8-4.2-1.6-.2-.7-.3-1.4-.5-2.2-.6.3-1.2.5-1.7.8-2.3,1.2-4.7,2.4-6.9,3.7l-8.1,4.8c-3,1.8-6,3.6-9.1,5.4-1.8,1-3.7,1.7-5.4,2.7L607.5,91.9c-2.3,1.4-4.5,3-6.7,4.6a17.63,17.63,0,0,1,2.6,8.6A18.15,18.15,0,0,1,601.1,114ZM543.4,87.3l.3.3a.86.86,0,0,1-.3.6c-.9.9-.7,1.8-.2,2.8,1.3,2.5,2.5,5,3.7,7.6a6.42,6.42,0,0,0,1,1.3,3.89,3.89,0,0,0,2.2-2.5,7.22,7.22,0,0,1,.9-2,32.54,32.54,0,0,1,5.5-7.3c1.2-1.2,2.4-2.4,3.7-3.6-.2-.2-.4-.3-.6-.5-.5-.3-.9-.6-.5-1.1a1.52,1.52,0,0,1,1.3-.3,5.64,5.64,0,0,1,1.2.4,7.17,7.17,0,0,0,8.2-2.4,16.32,16.32,0,0,0,1.8-4.3,4.14,4.14,0,0,0-.9-3.7,7.6,7.6,0,0,0-8.2-1.8,5,5,0,0,1-1.3.5,1.1,1.1,0,0,1-1-.6,1.16,1.16,0,0,1,.4-1,10.78,10.78,0,0,1,2.4-1.2,15.94,15.94,0,0,1,3-.6,3.59,3.59,0,0,0-.2-1.1,25.56,25.56,0,0,1-.9-8.7,6.25,6.25,0,0,1,4.5-6.2c2.1-.6,2.9,0,3.2,1.7.3,1.3.4,2.6.7,3.9.6,2.7,1.3,5.5,1.8,8.2.1.6.2,1.2.3,1.9a3,3,0,0,0,.9-.3c1.8-.8,1.8-.9,1.4-2.9a56.34,56.34,0,0,0-1.4-5.9,12.76,12.76,0,0,1-.1-5.5c.3-2,1.5-2.5,3.5-2.9,1.7-.3,2.7,1,3.3,2.3a24.61,24.61,0,0,1,1.5,5.1c.3,1.5.5,3,.7,4.5,1.1-.1,1.5-.6,1.4-1.5a17.1,17.1,0,0,1,0-3.2c0-2.4-.8-4.7-1.2-7a7.8,7.8,0,0,0-2-4.3,4.78,4.78,0,0,0-3.6-1.9c-.9,1.2.4,3-1.3,3.9-1.1-1.4-.7-3-1-4.4s.1-3.1-.7-4.5c-1.6.2-3.1.3-4.5.5a38.44,38.44,0,0,1,0,4.8c-.2,1.6-.6,1.7-2.1,1.8a12.28,12.28,0,0,0-3.8.8,9,9,0,0,0-4.2,4.2c-.9,1.5-1.6,3.2-2.4,4.8-1.1-.3-1.8,1.4-3.1.3-.1-2.8,1.3-5.3,2-7.9a17.61,17.61,0,0,1,4.5-7.1,8.79,8.79,0,0,0-5.3,1.1c-2.9,1.3-5.6,3.1-8,4.4-.3,1.5-.5,2.6-.7,3.7a2.7,2.7,0,0,0,.3,1.5c.7,1.6,1.8,3.2,2.2,4.9,1,3.9,1.6,7.9,2.4,11.9a1.69,1.69,0,0,1-.2.5c-2.1.3-2.7-1.6-3.8-2.7.3,2.1.6,4.1.8,6.2a2.39,2.39,0,0,1-.5,1.4c-.5.5-1.1.2-1.6-.3a3.59,3.59,0,0,1-.7-1,1.49,1.49,0,0,0-.2.9c.2,2.1.5,4.1.6,6.2.1,1.3-.5,1.7-1.8,1.5l-2.8-.4c-.1-.4-.4-.8-.3-1.1.4-1.9-.3-3.7-.9-5.4-1.3-3.8-5.8-6.1-9.4-4.7a8.9,8.9,0,0,0-5.2,5.2c-2,4.8-.4,8.9,2.5,12.7a3,3,0,0,0,1.4,1.1c3.2,1.5,6.3,1.7,9.5-.1C541.7,88.1,542.5,87.7,543.4,87.3ZM388.8,176.4l-.4.2a19.93,19.93,0,0,0,.5,3.4c.8,3.9,1.7,7.8,3.9,11.3,1.5,2.2,3,4.4,4.5,6.7a23.83,23.83,0,0,0,4.7,5.3,33.29,33.29,0,0,1,2.8,2.5,38,38,0,0,0,8.5,5.9c2.9,1.5,5.6,3.5,8.9,4.2a4.7,4.7,0,0,1,.9.6,36.83,36.83,0,0,0,3.5,1.5c1.6.5,3.2,1,4.8,1.4a22.88,22.88,0,0,0,2.8.8c4.5,1,9.1,2.1,13.6,3,2.3.5,4.6.6,6.9.9l1.4.3a1.79,1.79,0,0,0,1.8-.5c1.1-1.3,2.3-2.6,3.5-3.8,2.1-2.1,4.3-4.2,6.4-6.3,1-1,1.9-2.1,2.8-3.1l-.2-.4h-3c-2.2-.1-4.4-.2-6.6-.5s-4.1-.6-6.2-1c-4.5-.8-9.1-1.4-13.5-2.6a92,92,0,0,1-14.6-4.7c-2.8-1.3-5.6-2.4-8.4-3.7-3.6-1.8-7.1-3.6-10.6-5.6-2.2-1.3-4.3-2.8-6.4-4.2a44.81,44.81,0,0,1-10.5-9.4A9.62,9.62,0,0,0,388.8,176.4Zm3.5-62.7a5.09,5.09,0,0,0-5.1,1c-2.5,2.2-5.1,4.3-7.6,6.5s-4.8,4.8-7.3,7.1c-1.8,1.7-3.7,3.4-5.5,5.1-1.5,1.6-3,3.2-4.5,4.9-1.8,1.9-1.3,4.3,1.2,5,.1,0,.2.1.4.1,2.3.1,4.7.4,7,.3,4.4-.1,8.7-.3,13.1-.5,2.1-.1,4.2-.2,6.3-.5,4.8-.6,8.2-3.8,11.6-6.7,1.9-1.6,3.6-3.6,5.4-5.2a92.68,92.68,0,0,0,9.4-9.4,9.81,9.81,0,0,0,2.2-4.3c.3-1.4,0-1.9-1.3-2.3a12.9,12.9,0,0,0-2.8-.8c-2.9-.2-5.9-.4-8.8-.4-4.7.1-9.5.2-13.7.1ZM509.8,32.9c.3.7.8.6,1.4.5,1.6-.3,3.2-.4,4.8-.6l4.8-.6c1.8-.2,3.7-.3,5.5-.4a20.91,20.91,0,0,1,5,0c2.6.6,5.5.4,7.8,2.4.5.4,1.1.7,1.6,1.1a3.29,3.29,0,0,0,2.5.8l7.2-.3c.8,0,1,.4,1.1,1.2-3,.3-5.9.7-9.1,1,.5,1.1.8,1.9,1.2,2.7a1.19,1.19,0,0,0,1.5.7c.1,0,.1-.1.2-.1.3-.1.7-.3,1-.4a90.85,90.85,0,0,1,8.7-4.7,38.84,38.84,0,0,1,9.3-3c1.6-.3,3.2-.7,5-1-.2-1.1-.3-2-.5-2.8s-.6-2-.8-3a5,5,0,0,0-4.3-4.5c-2.9-.7-5.9-1.3-8.9-1.9a15,15,0,0,0-3,0c-4.1-.3-8.2-.7-12.3-.9-3.2-.1-6.5-.1-9.7-.1H518.6c-2.5,0-5.1,0-7.6.1-2.8.1-5.6.3-8.3.5-4.8.4-9.5.8-14.2,1.5-3.4.6-6.7,1.3-10,2.2-1.8.5-3,1.8-4.3,3.4a8.8,8.8,0,0,0,1.5.5,30,30,0,0,0,4.3.3,80.79,80.79,0,0,0,13-.5,54.77,54.77,0,0,1,9.9-.5,1.85,1.85,0,0,1,.7.2c-4,1.6-8.2,1.3-12.3,2.6a2.09,2.09,0,0,0,2.2,1.4,35.71,35.71,0,0,0,7.3.3c6.7-.5,13.4-.6,20.1-.5a2.28,2.28,0,0,1,1.1.3v.4C518,32.4,513.9,32.1,509.8,32.9Zm58.6,51.5a24.58,24.58,0,0,1-.2,2.8,4.17,4.17,0,0,0,.6,2.7,7.4,7.4,0,0,0,6.5,3.4c5.3.2,10.1-1.6,14.7-4a31.15,31.15,0,0,0,10.2-8.9,26.69,26.69,0,0,0,4.7-11.1,10.34,10.34,0,0,0-1.2-7.3,4.84,4.84,0,0,0-2.1-1.9,13,13,0,0,0-4.4-.5c-3.6.3-6.8,1.9-9.9,3.5-5,2.5-9.8,5.3-14.9,8,2,2.2,1.6,4.7.6,7.3a9.3,9.3,0,0,1-4.6,6ZM722.7,2.7c-.3,0-.7-.1-1-.1-2.9.4-5.8.8-8.7,1.3-2,.4-4.1.8-6.1,1.3-4.9,1.2-10,1.9-14.8,3.5a2.77,2.77,0,0,1-.9.1l-7.5,1.5c-2,.5-2.4,1-2.4,3.1a13.4,13.4,0,0,1-.1,2c-.7,4.1-1.5,8.1-2.2,12.2-.6,3.2-1.2,6.3-1.8,9.5-.1,1.1-.2,2.1-.2,3.2h1.2l9-1.5c2.1-.4,4.2-.8,6.3-1.1,3.5-.5,7-.9,10.5-1.3l10.7-1.2,5.2-.6c.2-.1.3-.1.5-.2V33c-.8.3-1.5.5-2.2.7-1,.3-1.5,0-1.6-1a13.4,13.4,0,0,1-.1-2V27.2c-.9-.4-1.1.1-1.2.7-.3,1.4-.5,2.8-.8,4.2a6.64,6.64,0,0,1-.6,2,1.23,1.23,0,0,1-1,.5,1.27,1.27,0,0,1-.9-.7,4.42,4.42,0,0,1-.3-3c.3-.9.3-1.8.5-2.6-.5,1.3-1,2.6-2.3,3.3-1.5.8-2.9,1.9-4.8,1.8-2.2-.2-2.7-.8-2.3-2.9a3.81,3.81,0,0,1,.3-1c.5-1.2.7-1.3,2-1.1a2.39,2.39,0,0,0,1.7-.2,8.25,8.25,0,0,0,1-2.6,5.84,5.84,0,0,0-.4-1.8,2.2,2.2,0,0,0-.8.1c-2,.7-2.8.2-3.4-1.9a11.13,11.13,0,0,1,.9-8c1.5-2.9,4.9-4.5,7.9-2l-.1,1.8c-.1,2-.9,2.5-2.8,1.6a1.27,1.27,0,0,0-1.7.3v.1a3.16,3.16,0,0,0-.2,3.7c2,0,3.8.2,4.8,2.1.9,1.7.5,3.5.3,5.4a1.23,1.23,0,0,0,.4-.8c.7-3.7,1.3-7.4,2-11.1.2-1.1.3-2.1.5-3.2a2,2,0,0,1,2-1.6c.9.1,1.1.8,1.2,1.5a4.33,4.33,0,0,0,.1.5,80.56,80.56,0,0,1,1.3,11c0,2,.2,4.1.3,6.1a4.25,4.25,0,0,0,.2,1.1h.1ZM703.5,201.2a24.38,24.38,0,0,0,5.4-.9,18.29,18.29,0,0,0,11.2-11.2,11.22,11.22,0,0,0,.8-2.6c.2-3,.2-6-2.3-8.3-.6-.6-1.3-1.1-2-1.7-.4-.3-.9-.4-1.2-.7a4.26,4.26,0,0,0-3.8-1.5c-1.3,0-2.6-.1-3.9,0a13.27,13.27,0,0,0-8,3.5,19.68,19.68,0,0,0-6.1,11.5,9,9,0,0,0,2.3,8.3,9.15,9.15,0,0,0,2.5,2.3C699.8,200.4,701.5,201.4,703.5,201.2ZM532.6,132.4l-.3-.5c-1.9.1-3.9.3-5.8.4a5.59,5.59,0,0,0-4.8,3.5,49.1,49.1,0,0,0-2.8,6.2,35,35,0,0,0-1.7,7.1c-.2,2-.8,4.1,0,6.2.5,1.2,1,2.3,1.4,3.5.5,1.4,1,2.9,2.5,3.7.2.1.3.4.5.5a24.71,24.71,0,0,0,4.2,3,66.38,66.38,0,0,0,9.7,3.6c4.1,1.2,8.4,2.1,12.6,2.9a91.1,91.1,0,0,0,18.8,1.4l2.7-.3c-1.4-2-2.6-3.7-3.8-5.3a2.22,2.22,0,0,0-1.3-.8,27.73,27.73,0,0,0-4.1.1,36.84,36.84,0,0,1-4.7,0c-3.1-.4-6.1-1-9.2-1.4a31.19,31.19,0,0,1-7.5-1.5c-1.9-.7-3.8-1.3-5.7-2.2a18.11,18.11,0,0,1-6.1-4.9,5.5,5.5,0,0,1-1.2-3.5,22.18,22.18,0,0,1,.3-3.7,32.2,32.2,0,0,1,3.5-11.4c.9-2.2,1.8-4.4,2.8-6.6Zm200.1,35.4c-3.9,3.2-7.5,6-11,8.9-.8.7-.5,1.3,0,2a10.48,10.48,0,0,1,1.4,8.3,17.91,17.91,0,0,1-4.5,9c-3.1,3.4-6.6,6.2-11.3,6.9-.4,7.4-2.7,14.4-3.7,21.7,2.3-.4,2.3-.4,3.6-1.9,1.9-2.1,3.8-4.1,5.6-6.3,2.3-2.7,4.6-5.5,6.7-8.4s3.7-5.9,5.5-8.8a47,47,0,0,0,5.2-11.4c1.1-3.8,2-7.8,2.8-11.7A25.83,25.83,0,0,0,732.7,167.8ZM558.9,118a21,21,0,0,0,1.4,1.7c2.5,2.3,4.9,4.5,7.5,6.7a27.14,27.14,0,0,0,3.5,2.4,5.3,5.3,0,0,0,4.9.2,55.41,55.41,0,0,0,5.3-3,9,9,0,0,0,2.7-2.8,8.6,8.6,0,0,1,2-1.8,29,29,0,0,0,1.5-7.1,44.26,44.26,0,0,0-.4-10.9,7.92,7.92,0,0,0-1.5-4.2c-2.5,2.3-5.8,12.9-5.6,17.7a.9.9,0,0,0,.5-.1,1.43,1.43,0,0,1,2,.2l.1.1c.6.7.1,1.3-.3,1.9-.8,1.2-1.6,2.4-2.5,3.5-.4.5-.8,1.4-2.1.9l1.4-2.9a5.09,5.09,0,0,0-1.7-.7c-2.3,0-4.5.2-6.8.1a21.27,21.27,0,0,1-4.4-.7,1,1,0,0,1-.7-1.5,3.61,3.61,0,0,1,2.7-.1,15.21,15.21,0,0,0,6,.3c.8-5.4-3.7-11.5-9.3-12.1C562.3,109.4,559.9,113.3,558.9,118Zm7.8-32.4a7.51,7.51,0,0,0-7.2,2.3c-.9.9-1.7,1.9-2.6,2.7a22.26,22.26,0,0,0-5.1,8.1,26.43,26.43,0,0,0-1.4,4.8,16.36,16.36,0,0,0,.1,7.3c.5,2.6,1,5.2,1.6,7.8.2,1,1,1.2,1.7.5a12.88,12.88,0,0,0,1.6-1.7l1.1.4A55.41,55.41,0,0,1,559,111a49.14,49.14,0,0,1,12.2-15.3,2.7,2.7,0,0,0,.7-.8C568.2,93.4,565.3,90.9,566.7,85.6ZM591.3,125c.6-.8,1-1.3,1.4-1.8,1.7-2.6,3.5-5.3,5.2-8a17.32,17.32,0,0,0,2.5-12.9c-1-4.4-3.4-8.1-6.1-11.6-.7-.9-1-.8-2.2-.2s-2.3,1.2-3.5,1.8-2.2,1-3.4,1.6c.3.5.5.8.7,1.1a14.63,14.63,0,0,1,3.7,8.4l.3,2.1a43.5,43.5,0,0,1,0,10.2,42.49,42.49,0,0,1-2.3,7.7v.5l1.4.7c.6-.6.7-1.8,2-1.5Zm33.4,8.2c-1.1-.1-2.1-.3-3.2-.3a50.55,50.55,0,0,1-5.5-.2c-2.8-.5-4.8.8-6.6,2.5a45.07,45.07,0,0,0-4.7,5.9c-1.9,2.8-3.5,5.8-5.3,8.7a10.79,10.79,0,0,0-1.8,4.9c3.4-.2,6.8-.3,10.3-.5l.1-1.6a8.81,8.81,0,0,1,4.6-7.1,10.1,10.1,0,0,0,3.7-3.7,28.71,28.71,0,0,1,8.4-8.6Zm-81.3,8.3c-4.4.4-8.6.7-12.8,1.1a21.16,21.16,0,0,0-.9,3.1c-.5,2.2-.8,4.4-1.3,6.5a4.94,4.94,0,0,0,1.9,5.4,21.74,21.74,0,0,0,8,4.1c1.5-6.7,3.6-13.2,5.1-20.2Zm-4.8-74h.4l.3-.6c.5-1.8,1-3.6,1.5-5.3a20.94,20.94,0,0,1,1.3-3.5,37.91,37.91,0,0,1,2-3.4,1,1,0,0,1,1.4-.4c.1,0,.1.1.2.1.5.4.3.9,0,1.4a41.06,41.06,0,0,0-2.8,6c-.8,2-1.2,4.1-1.8,6.1a1.71,1.71,0,0,0,.6,1.9,10.8,10.8,0,0,1,2.5,4.1,13,13,0,0,1,1.1,4.3c0,.8.5,1,1.4.6a24.2,24.2,0,0,0-1.8-7.5c-.3-.6-.5-1.1,0-1.6s1.2-.3,1.8.2a21.41,21.41,0,0,0,1.9,1.3,8.65,8.65,0,0,0-.6-3.9,24.88,24.88,0,0,1-1.1-2.9c-.2-.8.2-1.3,1-1.1a3.7,3.7,0,0,1,1.1.5c.8.6,1.6,1.2,2.5,1.8a11.27,11.27,0,0,0-.3-1.8c-.7-3.2-1-6.6-2.9-9.5-.8-1.3-.8-1.4-2.2-.8a2.42,2.42,0,0,1-2.7-.2,20.89,20.89,0,0,1-2.2-2c-.3-.3-.5-.6-.9-1-.7,5.8-1.7,11.5-1.7,17.2Zm135.6,5.9.4.3c2.3-1.7,5-2.9,6.8-5.3a5,5,0,0,0,.8-2.7,13.29,13.29,0,0,0-3.3-8.3c-1.1-1.5-2.1-1.6-3.9-.9a44.7,44.7,0,0,0-4.6,1.9c-2.7,1.4-2.8,1.9-2.2,4.3a7.37,7.37,0,0,0,.4,1.4c.9,2.7,3.1,3.4,5.6,1.5l-.5-4.1c-.1-.5,0-1.1.6-1.1a1,1,0,0,1,.8.7,27.46,27.46,0,0,1,1.1,4.1,4,4,0,0,1-.7,1.9c-.2.4-.7.6-.7,1C674.5,69.9,674.4,71.7,674.2,73.4ZM549.1,44.9c1.3-.8,2.6-1.8,4.1-2.6a23.71,23.71,0,0,1,8.5-3.2,36.35,36.35,0,0,0,7.2-1.3,3.33,3.33,0,0,1,1.4-.1c1.4.1,2.8.2,4.3.4a3.17,3.17,0,0,0,2.5-.6,4.19,4.19,0,0,1,2.2-.5,11,11,0,0,1,1.8.2,2.84,2.84,0,0,0-1.6-1.8,10.34,10.34,0,0,0-6.2-1.4,73.07,73.07,0,0,0-13.2,2.4c-3.6.9-6.7,3-10.1,4.6-1.1.5-2.2,1.2-3.2,1.7Zm41.5,95.8,4.3,14.1c.9-.1.9-.1,1.1-.8a19.06,19.06,0,0,1,1-3.4,49.73,49.73,0,0,1,5.1-9,6.38,6.38,0,0,0,.8-1.4h-6.2c-2,0-4.2-.3-6.1.5ZM430.2,106.3a24.65,24.65,0,0,0,4.1-3.8c1.2-1.4,2.9-2.3,3.6-4.3-3.2-.6-6.1.1-9.1-.3ZM683.6,62.1c1.3-.2,1.3-1,1.2-1.9a16.17,16.17,0,0,0-3.5-6.9,4.26,4.26,0,0,0-1.2-1.1,3,3,0,0,0-3-.5c-.9.5-.8,1.4-.8,2.4,4.6.6,6.2,4.1,7.3,8ZM547.3,48.7c-.1-1.1-.2-1.9-.3-2.7-.2-1.1-.6-1.4-1.7-1.3a3.81,3.81,0,0,0-2.9,2.3,3.24,3.24,0,0,0,.8,3.8c1.3,1.3,2.6,1.1,3.5-.5C546.9,49.8,547.1,49.3,547.3,48.7ZM675.3,35h.4c1-5.9,2-11.8,3-17.6a35.7,35.7,0,0,0,.4-4.6,1.91,1.91,0,0,0-.3-.8h-.4Zm.4,15.2c5-1.5,7.2,1.5,9.1,5,1-.6.5-1.4.3-2a11.31,11.31,0,0,0-4.3-4.9c-1.5-1-4-.1-5.1,1.9Zm-105.1,3c-3.1-.1-4.9,2.9-4.2,5.8,1.6-1.7,1.6-1.7,5-2.1Zm104.2-4.9c3.3-3,6.5-2.5,9.3.6,1-.6,1.2-.9.7-1.3-1-.9-1.8-2-3.3-2.4-1.7-.5-3.3,0-4.9.3a4,4,0,0,0-2.2,1.4c-.5.5-.3,1,.4,1.4ZM572.6,131.4l-.2.4c.6.5,1.1,1.1,1.7,1.6a2.54,2.54,0,0,0,4.2-2.7C576.4,130.9,574.7,132.4,572.6,131.4Zm8.9-77.1a10.09,10.09,0,0,1-.7-1.5,2.25,2.25,0,0,0-2.3-.9c-.8.2-.9.9-.9,1.6v1.7c1.3-.3,2.5-.6,3.9-.9Zm-12.5,50,3.9,3,.3-.4a2.7,2.7,0,0,1-.8-.7,1.61,1.61,0,0,1-.3-.9l-2.1-1.6ZM581.3,97l1.8-2a1.27,1.27,0,0,0-1.8.1,10.7,10.7,0,0,0-1.4,1.6,4.41,4.41,0,0,0,1.4.3ZM570.4,61.9c.8-1.2.7-1.8-.3-3-.5,1.4-.5,1.5.3,3Zm12.4,37a6.2,6.2,0,0,0-2,4.8Zm90.9-48.4c-1.6-.6-2-.4-3.1,1.1a29.58,29.58,0,0,0,3.1-1.1Zm.9-6.7.5-5.2c-.4,1.7-1.1,3.3-.5,5.2ZM581.3,59.6c.9-1.5-.3-2-.4-2.8l-.4.1Zm-6.4,48-1.6.2c.7.7,1.1,1.2,1.6-.1Zm-8.2-4.2-.1.3,1,.2.1-.4Zm17.2-6.3.5-.1-.4-1.2-.3.1Zm-5.3-1.5c-.7.1-1.2.3-1.3,1.4l1.3-1.3Zm-.9,20.6-.8,1.1c1,.2,1.1-.2.8-1Z"/><path d="M6,27.2l.3,1a1.38,1.38,0,0,1-.4-.3A2.44,2.44,0,0,0,6,27.2Z"/><path class="cls-2" d="M325.6,278.2a5.13,5.13,0,0,0,.1,1l-.1-1Z"/><path class="cls-2" d="M9.7,241.6a4.36,4.36,0,0,1,1.4-1.3c1.6-.8,2.5-2.3,3.7-3.6,1.6-1.8,3.3-3.4,5.1-5.1,3.3-3.1,6.7-6.2,10.1-9.3,1.8-1.6,3.7-3.2,5.6-4.8,2.2-1.9,4.2-3.8,6.4-5.6,3.4-2.7,6.9-5.3,10.3-7.9,2.5-1.9,5-3.9,7.4-5.9,1.3-1.1,2.7-2.1,4.1-3.2.7-.6,1.4-1.2,2.1-1.9a13.25,13.25,0,0,1,3.8-2.9,54.83,54.83,0,0,0,5.2-3.1c.3-.2.8-.8.7-1.1a1.82,1.82,0,0,0-1-1.1,35.89,35.89,0,0,0-3.5-.8c-3.4-.9-6.8-1.8-10.2-2.6-2.2-.6-4.4-1.1-6.6-1.6a81,81,0,0,1-9.9-3c-3.8-1.3-7.7-2.3-11.5-3.5-2.1-.7-4.2-1.5-6.3-2.2-2.6-.9-5.2-1.6-7.9-2.4a4.15,4.15,0,0,0-1.6-.3,12.31,12.31,0,0,1-4.9-1.6,24.09,24.09,0,0,0-6.3-2.4c-1.1-.4-2.2-.8-3.2-1.2a8.15,8.15,0,0,1,1.4-.4c4.1-.7,8.2-1.4,12.4-2,5-.7,10-1.2,14.9-1.8,6.8-.9,13.6-1.9,20.4-2.7,2.4-.3,4.9-.5,7.3-.8,2.2-.3,4.5-.6,6.7-.8,2.9-.4,5.8-.7,8.7-1.1l9.9-1.5c3-.4,5.9-.7,8.9-1l9.8-1.2c2-.2,3.9-.3,5.9-.5l8.4-.9a20.9,20.9,0,0,1,2.5-.1c3.8-.3,7.6-.5,11.4-.8s7.6-.5,11.4-.8c4.3-.3,8.6-.7,12.9-1,2.8-.1,5.6-.1,8.4-.1,4.6-.1,9.2-.3,13.8-.3,2.8,0,5.5.1,8.3,0,3.8-.1,7.6-.4,11.5-.6,3.6-.2,7.3-.3,10.9-.5s7.1-.5,10.7-.6c4-.2,8-.3,12-.4s8.2-.5,12.3-.7c3.2-.2,6.3-.3,9.5-.4,4.6-.1,9.1-.2,13.7-.4,5.4-.1,10.8-.3,16.3-.4s10.7-.2,16-.4c5-.2,10-.5,15-.7l4.5-.3c.5,0,.9.1,1.6.1.4,2.9.7,5.7,1.1,8.6.2,1.6.4,3.2.5,4.8.3,3.5.5,7,.7,10.6.2,2.4.6,4.7.8,7.1.4,5.1.7,10.1,1,15.2l.9,12.3c.2,2.7.4,5.4.5,8.1.1,3.2.3,6.4.3,9.7,0,1.7-.2,2-1.9,2.1-2.3.1-4.6,0-6.8,0-3.3.1-6.6.4-9.9.6-2,.1-4,.1-5.9.2l-14,.6c-1.7.1-3.4.1-5,.1-5.5.1-10.9.2-16.3.4-7.9.3-15.9.6-23.8,1.1-5.8.3-11.6,1-17.4,1.4-5.1.4-10.1.7-15.2,1.1-4.4.3-8.7.7-13.1,1-1.1.1-2.2,0-3.2,0-7.4.3-14.7.5-22,.9-5.9.3-11.7.8-17.5,1.2-3.1.2-6.2.6-9.3.9-4.1.4-8.3.7-12.4,1.1-2.5.2-5,.5-7.5.8l-8.9.9-8.4.9c-3.2.3-6.4.6-9.6,1-2.8.3-5.6.8-8.3,1.2l-17.4,2.4c-4.5.7-9,1.4-13.4,2.1-2.3.4-4.6.7-6.9,1-2.8.4-5.6.8-8.3,1-2.3.2-4.7.4-7,.4-5.2.2-10.4.2-15.6.4-1.6,0-3.2.4-4.8.5s-3.3.4-5,.6a4.87,4.87,0,0,1-1.2-.1Z"/><path class="cls-3" d="M565.5,231.4c2.2-1.9,4.4-3.6,6.5-5.6,1.8-1.6,3.4-3.4,5.1-5.1,1.9-1.9,3.9-3.8,5.7-5.7,2.7-3,5.7-5.8,7.7-9.4a11.32,11.32,0,0,1,1-1.3,22.89,22.89,0,0,0,4.8-9.9,6.19,6.19,0,0,0-4.7-7.2,57.53,57.53,0,0,0-8.3-1.4c-2.8-.3-5.6-.4-8.4-.5-9.1-.2-18.2-.3-27.3-.4-5,0-10,.1-14.9.1-4.7,0-9.3-.1-14-.1-3.1,0-6.2.1-9.3.1H498.8a21.86,21.86,0,0,0-3.6.3,2.22,2.22,0,0,0-1.3.8c-.9,1-1.8,2.1-2.7,3.1-2.3,2.6-4.5,5.3-7,7.7s-4.4,5-7.2,7a21.72,21.72,0,0,0-3.2,3.6,1.83,1.83,0,0,1-2.3.6,48.53,48.53,0,0,0-5.5-.8c-5.5-.7-11-1.3-16.5-2.2a102.14,102.14,0,0,1-13.3-3,69,69,0,0,1-13.1-4.9c-1.1-.6-2.4-.9-3.5-1.4-2.6-1.3-5.1-2.8-7.7-4.1-.3-.1-.5-.3-.8-.4a36.68,36.68,0,0,1-6-3.6c-2.9-2-6-3.7-8.5-6.2a36.43,36.43,0,0,1-4.3-4.5,35.94,35.94,0,0,0-3.8-4c-.1-.1-.5-.1-.8-.3a11.27,11.27,0,0,0-.3-1.8,1.57,1.57,0,0,1,.5-1.7,8.34,8.34,0,0,0,.8-1.2,3.3,3.3,0,0,0-.8-4.5l-.6-.3a1.6,1.6,0,0,1-1.1-1.4l-1.4-14.4v-1.5l2.8-.4c1.6-.2,3.2-.4,4.8-.7a9.86,9.86,0,0,0,4.6-2.2c1.5-1.3,3.3-2.3,4.8-3.7,2-1.8,4-3.8,5.9-5.6,1.6-1.6,3.3-3.1,5-4.6,1.4-1.4,2.8-2.8,4.1-4.2a20.89,20.89,0,0,0,2-2.2c1.2-1.9,2.6-3.8,2.4-6.2a2.59,2.59,0,0,0-1.7-2.4,19,19,0,0,0-4.6-1.5,82.65,82.65,0,0,0-8.6-.5c-2.9-.1-5.6,0-8.4,0-2-.1-3.9-.3-5.9-.5a6.84,6.84,0,0,0-5.5,1.6,19.5,19.5,0,0,1-2.5,1.8c-.2-.7-.3-1.4-.5-2.1-.1-1.8-.3-3.7-.3-5.5-.1-5.4-.3-10.9-.4-16.3,0-3.6,0-7.3.1-10.9.1-2.1.5-4.3.7-6.4a5.84,5.84,0,0,1,5.1-4.9,18.85,18.85,0,0,1,10.4,2.2c2.9,1.7,6,3.2,8.8,5.1,4.4,3,8.8,6,12.2,10.2,2.3,2.7,3.5,5.9,4.9,9.1,2,4.6,2.5,9.6,3.2,14.5a106.24,106.24,0,0,1,1.1,15.9c0,4.1.4,8.2.7,12.4a7,7,0,0,0,.6,1.9c1.7-2.2,3.9-1.7,5.8-2,1.1,0,2.1,0,3.2.1,1.7,0,3.3-.2,5-.2,1.4-.1,2.9,0,4.3-.1,4.6-.1,9.2-.1,13.8-.4,3.9-.2,7.8-.7,11.8-.9,4.8-.2,9.5-.1,14.3-.2l14-.3c4.3-.1,8.6-.3,12.9-.4a22.59,22.59,0,0,0,3.3-.4,7.49,7.49,0,0,1-.5,1.6,39.1,39.1,0,0,0-3.9,11.5,17.08,17.08,0,0,0,.9,10.7c.5,1,.9,2,1.3,2.9a6.4,6.4,0,0,0,2.5,2.9,32.41,32.41,0,0,1,3.1,2.4,21,21,0,0,0,3,1.5c2.2.9,4.4,1.8,6.7,2.6a54.5,54.5,0,0,0,6.9,2q5.25,1.2,10.5,2.1a74.93,74.93,0,0,0,16.4.9c1.1-.1,2.1.1,3.2.1.6,0,1.2-.1,1.6-.1l4.9,3.9a13.92,13.92,0,0,0,7.9,2.7,33.45,33.45,0,0,0,12.2-1.3c2.4-.6,4.7-1.4,7-2.2a43.63,43.63,0,0,0,8.2-4.5,2.51,2.51,0,0,1,.7-.4q.3.15.3.3c.8,2.6,1.3,3.1,4.5,3.4a27.09,27.09,0,0,0,7.5-.5c2.3-.5,4.6-.8,6.8-1.5,2.9-.9,4.3-3.3,5.2-6a13,13,0,0,1,.4-2.1,2.62,2.62,0,0,0-.8-3.1,19.86,19.86,0,0,0-2.7-2.2,25,25,0,0,0,2.7-2.9,6.84,6.84,0,0,0,1.8-5.6,3.09,3.09,0,0,0-1.5-2.3l-2.4-1.5c.4-.7.7-1.3,1-1.9a3.47,3.47,0,0,0-1.5-4.6,1.42,1.42,0,0,0-.6-.2,14.88,14.88,0,0,0-4.2-.8c-3.3,0-6.6.2-9.9.3-.5-.6-.1-1.3.4-1.8,1.5-1.6,3.1-3.1,4.7-4.7a2.92,2.92,0,0,1,3.3-.7c3.2.8,6.4,1.5,9.6,2.2,1.6.3,3.2.4,4.8.6l6.9.9c3.3.5,6.6,1.1,9.9,1.5,1.3.2,2.7,0,4.1.1,3.5.3,7,.8,10.5,1.1,1,.1,2.1.1,3.2.3,2,.2,4,.5,6,.7s3.8.3,5.7.4c1.2.1,2.4.3,3.6.4a25.85,25.85,0,0,0,2.8,0l-1.2.9a46.55,46.55,0,0,0-8.3,7.7c-2.7,3.2-5.1,6.4-7.7,9.7a44,44,0,0,0-5.4,10.3c-1,2.4-2.1,4.8-3,7.3a60.47,60.47,0,0,0-2.4,8.3c-.8,3.6-1.2,7.2-1.7,10.8a56.53,56.53,0,0,0-.4,5.9c-.1,3.3.1,6.5,1.8,9.4a2.41,2.41,0,0,1-.8.6c-4,1.7-7.4,4.5-11.5,5.8-1.1.4-2.2,1-3.3,1.4a101.56,101.56,0,0,1-16.5,5c-6.2,1.2-12.3,2.4-18.5,3.3-6,.9-12.1,1.3-18.1,1.9l-6.1.6h-1.3c-2.4,0-4.9,0-7.3-.1l-7.3-.3-7.9-.6a9.85,9.85,0,0,1-1.7-.2Z"/><path class="cls-4" d="M428.5,257.6a26.92,26.92,0,0,1,3.2,2.7,8,8,0,0,0,3.5,1.6,26.72,26.72,0,0,0,8.9,1.9c1.7.1,3.5.1,5.2.1,3.4.1,6.9.4,10.3.3s7.1-.5,10.7-.8a41.13,41.13,0,0,0,6-.8,65.3,65.3,0,0,0,7.6-2,14.32,14.32,0,0,0,4.5-2.5c2.1-1.7,4.2-3.2,6.2-5,3.2-2.8,6.3-5.9,9.5-8.7,1.8-1.6,3.7-3.2,5.6-4.8,2.6-2.2,5.3-4.4,7.8-6.7,3.1-2.8,6.1-5.7,9.1-8.6,4-3.8,8.1-7.6,12-11.5,2.5-2.5,5-5.2,7.5-7.7,1.6-1.6,3.3-3.2,5-4.8,2.2-2.1,4.5-4.1,6.6-6.3,1.8-2,4-3.6,5.3-6a2,2,0,0,1,2.1-1.1c2.3.1,4.5.1,6.8.2s4.7.1,7,.3a47.32,47.32,0,0,1,9.2,1.2,23.36,23.36,0,0,0,2.6.4,4.32,4.32,0,0,1,3.6,5c0,.2-.1.3-.1.5a11.24,11.24,0,0,1-1,3.1,57.47,57.47,0,0,1-7.8,11.6,105.88,105.88,0,0,1-7.4,7.6c-2.5,2.6-5,5.2-7.7,7.6s-5.4,4.6-8.1,6.8c-2.5,2-5.2,3.9-7.7,5.9-5.6,4.5-11.2,9-16.9,13.4-3.6,2.8-7.4,5.3-11.1,8-1.4,1-2.6,2.1-4,3.1L510.2,270c-3.1,2.1-6.4,4-9.4,6.3a39.69,39.69,0,0,1-5.7,3.2c-5.9,3.2-12.4,3.8-18.9,4.4-5,.4-10,.7-15,1-3.2.2-6.3.2-9.5.5-4,.3-8.1.8-12.1,1.1-2.3.2-4.7.3-7,.3-3.8-.1-7.5-.2-11.3-.5a42.9,42.9,0,0,1-10-1.8c-.5-.2-.9-.4-1.3-.6-1.2-.7-1.4-1.3-.9-2.7a25,25,0,0,1,6.6-10.6c2.1-1.9,3.9-4.2,5.9-6.3C423.8,262,426.1,259.9,428.5,257.6Z"/><path class="cls-3" d="M561.4,187.1a47.55,47.55,0,0,1-3.8,3.9c-2.4,2.4-5,4.7-7.3,7.1-3.9,4-7.8,8.1-11.7,12.1-1.6,1.6-3.4,3.1-5.1,4.7-3.3,3.2-6.6,6.4-10,9.6-2.8,2.7-5.6,5.3-8.5,7.9-4.3,3.8-8.8,7.4-13.1,11.1-2,1.7-3.9,3.6-5.8,5.3l-6.9,6c-.8.7-1.5,1.4-2.2,2.1-1.6,1.6-3.8,1.9-5.8,2.6-4.1,1.4-8.3,1.3-12.5,2.2h-1.4c-1.6.1-3.2.3-4.8.3-3,0-6-.1-9-.1-2.3,0-4.7-.1-7-.1a35,35,0,0,1-12.4-2.3c-1.1-.5-2.1-1-2.4-2.4a1.33,1.33,0,0,0-.3-.5c-.3-.4-.8-.7-.8-1s.5-.8.8-1.1c2.4-2.4,4.8-4.7,7.1-7.1,2.9-3,5.7-6.1,8.6-9.2,1.6-1.7,3.3-3.4,4.9-5.1l5.4-6c2.3-2.6,4.6-5.2,7-7.6s5-4.7,7.4-7.1c2.1-2.1,4-4.2,6-6.3,1.1-1.1,2.2-2.1,3.3-3.3,2.6-2.7,5.1-5.3,7.6-8,1.1-1.1,2.2-2.2,3.2-3.4a39.16,39.16,0,0,0,2.7-3.3,3,3,0,0,1,2.5-1.2c5.5-.4,11.1,0,16.7-.1,4.5,0,9.1-.1,13.7-.1,1.1,0,2.3.1,3.4.1h29.7C560.8,187,561.1,187,561.4,187.1Z"/><path class="cls-5" d="M582.7,157.6a22.59,22.59,0,0,1,3.3-.4c3.1-.2,6.2-.4,9.3-.4,3.8,0,7.6-.4,11.4-.5a55.08,55.08,0,0,0,7.1-.7,3.81,3.81,0,0,0,1.5-.5,1,1,0,0,0,.5-.8,1.06,1.06,0,0,0-.7-.6c-1,0-2,.1-3,.1h-1.7a6.66,6.66,0,0,1,4.6-7.2c4.3-1.6,8.7-1.8,13.2-1.7l2.7.3c2,.3,2.5,1.2,2,3.1-.1.3-.2.5-.3.8-.6.4-1.6,0-1.8,1s.7,1.1,1.3,1.5l1.8,1.2c1.7,1.2,2,1.8,1.3,3.8a19.23,19.23,0,0,1-1.8,3.1c-.8,1.2-1.7,2.3-2.4,3.4.3,1.2,1.3,1.5,2.1,2,1.6,1.1,1.7,1.1,1.3,3.1a12,12,0,0,1-.8,2.7,6.37,6.37,0,0,1-4.8,3.6c-3.5.6-7,1.5-10.7,1.3a6.15,6.15,0,0,1-1.4-.1,3,3,0,0,1-2.7-2.4,5.71,5.71,0,0,0-1.3-2.1,1.16,1.16,0,0,0-1-.2c-.4.2-.4.6,0,1,.1.1.1.4.1.7-3.3,1.5-6.4,3-9.7,4.3-5.3,2-10.8,3.6-16.6,3.4a14.56,14.56,0,0,1-9-3,22.77,22.77,0,0,1-3.8-3.8c-2.6-3.5-5.3-6.9-7.6-10.6a114.5,114.5,0,0,1-5.7-11,56.45,56.45,0,0,1-2.9-6.7c-1.7-5-3.1-10.1-2.7-15.4a10.87,10.87,0,0,1,.4-2.6c.6-1.9,2.1-2.4,3.7-1.2a29.7,29.7,0,0,1,5.6,5.6c1.6,2,3.3,3.9,4.9,5.9l1.8,2.4c1.7,2.4,3.4,4.7,5.1,7.1a66.49,66.49,0,0,1,3.6,5.6A24.85,24.85,0,0,0,582.7,157.6Z"/><path class="cls-6" d="M758,98.5c-.1,1.3-.3,2.6-.5,3.9-.6,2.4-.2,4.8-.1,7.1v10.9c0,1.6-.4,3.1-.4,4.6,0,4.5-1.8,8.5-3.5,12.5a66.19,66.19,0,0,1-8.7,13.5c-1.1,1.4-2,3-3.2,4.3-2.7,3.1-5.4,6.1-8.2,9.1-.8.8-1.8,1.6-2.7,2.4-3.3,2.7-6.7,5.4-10,8.2a1.56,1.56,0,0,1-2.1.2c-1.3-.8-2.5-1.5-3.8-2.3a3.61,3.61,0,0,0-2.5-.6,13.2,13.2,0,0,1-2.8-.2,31.1,31.1,0,0,1,.1-6.1c0-.2.2-.3.1-.5-.1-3.5,1.3-6.7,1.7-10.1.2-1.1.5-2.2.8-3.3a64.24,64.24,0,0,1,3.9-12.2c.6-1.4.8-3,1.5-4.4a81.24,81.24,0,0,1,6.7-11.8,59.2,59.2,0,0,1,7.5-8.3,79.48,79.48,0,0,1,6.4-5.1c1.6-1.2,3.2-2.3,4.8-3.4.6-.4,1.3-.8,2-1.2,2.7-1.3,5.1-3.1,7.9-4.2C754.5,101.1,756,99.8,758,98.5Z"/><path class="cls-6" d="M669.2,218.2c.9.1,1.7.5,2,.3.8-.5.1-1.3-.3-2a221.35,221.35,0,0,1,23-17.9c1.5,1.4,2.7,3.2,4.9,3.6,2,.4,4,.8,6.1,1.2v1c-1,5.2-2.1,10.3-3,15.5a99.84,99.84,0,0,1-4.8,17,44.23,44.23,0,0,1-9.3,15.2c-1.4,1.4-2.5,3-3.9,4.4a33.72,33.72,0,0,1-17.6,10.4c-1.8.5-3.7,1.1-5.5,1.6-.8.2-1.6.4-2.5.6v-9c0-2.2.1-4.4.1-6.6a106.06,106.06,0,0,1,.2-11.3,44,44,0,0,1,3.7-15.1,32.27,32.27,0,0,1,5.3-7.4C668.1,219.2,668.8,218.6,669.2,218.2Z"/><path class="cls-4" d="M545.5,247.1c1.4-1.2,2.8-2.4,4.2-3.5,3-2.4,6.1-4.8,9.1-7.2a17.26,17.26,0,0,1,2.8-1.9,4.66,4.66,0,0,1,2-.6q3.15,0,6.3.3c2.9.2,5.7.6,8.6.7,4.8.1,9.6.2,14.4-.1,5.5-.3,10.9-.8,16.4-1.4,3.6-.4,7.1-1,10.6-1.6.5-.1.9-.1,1.4-.2a54.08,54.08,0,0,0,9.1-1.6c2.7-.6,5.4-1.1,8-1.8s5.2-1.7,7.9-2.3c3.5-.8,6.5-2.8,10-3.8a6.11,6.11,0,0,0,1.4-.7l5.7-3.3c.7-.4,1.4-.9,2.2-1.3a4.65,4.65,0,0,1,2.3-.9,4.67,4.67,0,0,1-.5,1c-2.1,2.8-4.3,5.4-6.3,8.3a24.89,24.89,0,0,0-3.3,8.3c-.5,2.3-1,4.6-1.3,6.9a1.82,1.82,0,0,1-1.5,1.8c-3.3,1-6.6,2.1-10,2.9a40.76,40.76,0,0,1-6.9.9l-13.2,1.5a7.08,7.08,0,0,1-1.4.1c-3.1-.2-6.2.5-9.3.9-2.6.3-5.3.4-7.9.6s-5.3.5-8,.6c-3.2.1-6.3.1-9.5.1-3.4,0-6.8.2-10.2.2-4.1-.1-8.2-.3-12.3-.5-1.2,0-2.4,0-3.6-.1-2.8-.2-5.6-.5-8.4-.8a28.1,28.1,0,0,0-2.9-.1l-5.8-.6Z"/><path class="cls-7" d="M327.6,206.9l-.3-1.2c-.3-4.1-.5-8.1-.7-12.2-.3-4.8-.5-9.7-.8-14.5-.3-4.5-.9-9-1.3-13.5-.1-1.3,0-2.5-.1-3.8-.2-2.9-.5-5.8-.7-8.8,0-.6-.1-1.2-.1-2,1.9.4,3.5.8,5.2,1.2,2.5.6,5,1,7.4,1.6,3.7.9,7.4,1.5,11.1,2.3,1.1.3,2.2.9,3.3,1.3,1.8.6,3.7,1,5.5,1.5,3.5,1,6.9,2.3,10.4,3,2.2.5,4.3,1.3,6.5,1.9l2.6.6c1.9.5,3.8,1,5.6,1.4.5,1.6.4,2.1-.7,2.9l-6.8,5c-3.6,2.7-7.1,5.5-10.7,8.2-2.7,2-5.4,3.9-8.1,5.9-3.8,2.9-7.4,5.8-11.2,8.6-3,2.2-6,4.3-9.1,6.3-1.7,1.2-3.5,2.3-5.3,3.4A5.4,5.4,0,0,1,327.6,206.9Z"/><path class="cls-4" d="M707.1,172.4a16.72,16.72,0,0,0-13,9c-2.8,4.9-4.2,10-1.6,15.5L670,214.2c-.7-.8-.7-.8-2.2-.8a9.72,9.72,0,0,1-1.3-5.3,43.45,43.45,0,0,1,.3-8.8c.5-3.1.8-6.3,1.2-9.4a28.64,28.64,0,0,1,.7-2.8,117.4,117.4,0,0,1,5.9-16.3,50.61,50.61,0,0,1,8-12.4c2.1-2.5,4.3-5,6.5-7.4a25.76,25.76,0,0,1,3.4-3.2,14.42,14.42,0,0,1,10.8-2.9,18.51,18.51,0,0,1,6.1,1.3,15.11,15.11,0,0,1,1.8.9C709,155.4,707,163.8,707.1,172.4Z"/><path class="cls-2" d="M464.7,56.8c4.2-1.2,8.3-2.4,12.3-3.5s8-2,11.9-3.5l-.1-.4c-1.2.2-2.3.3-3.5.5-4.4.7-8.8,1.7-13.1,2.8-3.8,1.1-7.7,2.3-11.5,3.4-2.6.8-5.3,1.5-7.9,2.2a18,18,0,0,1-6.1.5,2.38,2.38,0,0,1,.9-2.8,36.43,36.43,0,0,1,11.1-6.5c3.1-1.1,6.3-2.4,9.4-3.5,4.3-1.4,8.7-2.6,13-3.9,3.7-1.1,7.5-2.1,11.2-3.2a99.21,99.21,0,0,1,12.3-2.5c3-.5,5.8-1.2,8.8-1.6s5.9-.7,8.9-1c1.6-.1,3.2-.1,4.8-.3a27.63,27.63,0,0,1,7.6.7,7.13,7.13,0,0,1,5.5,3.8c.8,1.7,1.5,3.5,2.3,5.2l-2,3c-2.5.7-5.2,1.2-7.7,2s-5.3,1.9-7.9,2.9c-2.2.8-4.5,1.6-6.7,2.5-4.1,1.7-8.3,3.1-12.5,4.4a34.49,34.49,0,0,1-5.4,1.1,4.89,4.89,0,0,1-4.3-1.3c4.6-1.6,9.3-2.3,13.6-4.2l-.1-.5a52.06,52.06,0,0,0-5.5.8c-5,1-10,2.1-15.1,3.1-3,.6-6.1,1.3-9.1,1.8a63.21,63.21,0,0,1-7.6,1.1,25.05,25.05,0,0,1-5.5-.6C465.5,59.3,465.1,58.2,464.7,56.8Zm58.4-11.3v-.4c-.2,0-.5-.1-.7-.1a2.77,2.77,0,0,0-.9.1,58.26,58.26,0,0,1-14.4,1.5,7.59,7.59,0,0,1-4.2-.6,24.88,24.88,0,0,0,2.9-1.1c.8-.4,1.9-.2,2.3-1.3-.2,0-.3-.1-.5-.1-1.6.4-3.2.9-4.8,1.2-.7.2-1.7-.1-2.2.2-1.7,1-3.5,1-5.3,1.4a22.08,22.08,0,0,1-6.8.4c-1.5-.2-3-.3-3.5-2.1-.1-.2-.8-.4-1.2-.4-.2,0-.4.7-.3,1a3.08,3.08,0,0,0,2.6,2.8,19,19,0,0,0,6.7.4,47.46,47.46,0,0,0,6.3-1.4,2.38,2.38,0,0,1,2.3.3,8,8,0,0,0,4.8,1.2,68.61,68.61,0,0,0,13.5-1.9,10.42,10.42,0,0,0,3.4-1.1Z"/><path class="cls-5" d="M601.1,114a16.83,16.83,0,0,0,2.2-8.7,17.63,17.63,0,0,0-2.6-8.6,61.14,61.14,0,0,1,6.7-4.6l18.3-10.5c1.8-1,3.7-1.7,5.4-2.7,3.1-1.7,6.1-3.6,9.1-5.4,2.7-1.6,5.4-3.3,8.1-4.8,2.3-1.3,4.6-2.5,6.9-3.7a13.76,13.76,0,0,1,1.7-.8c.2.8.3,1.5.5,2.2.6,2.4,2.1,3,4.2,1.6.3-.2.5-.4.7-.5-.5-1.1-.5-1.1-2.5-.4a3.51,3.51,0,0,1-.6-1.4c-.2-3.3-.4-6.7-.3-10,0-2,1.3-3.4,2.8-4.5,1.9-1.4,3.8-2.7,5.6-4.1s3.3-1.4,4.2.9c.1.2.2.5.3.7L668.2,51a3.72,3.72,0,0,0,1.8,3.7l3.7-2.6a1.63,1.63,0,0,1-.5,2.3h0c-.9.7-1.8,1.4-2.9,2.1l-4.2-3.3c-.2-.2-.4-.5-.6-.6a1.18,1.18,0,0,0-1,.1.78.78,0,0,0-.2.8,6.11,6.11,0,0,0,.7,1.4l-2.7,2.8c2,.2,3.1-.9,4.3-1.7l2,1.5a5.94,5.94,0,0,0-.8.4,3.16,3.16,0,0,0-1.7,3.5,20.73,20.73,0,0,0,.8,4.2,6,6,0,0,0,3.5,3.5c-.4,2.5-.7,5-1.1,7.4a1.76,1.76,0,0,1-.9,1c-1.4.6-2.8,1.1-4.2,1.6-.2,0-.5.1-.8.1a3.36,3.36,0,0,1-.5-2.6,1.16,1.16,0,0,0-.4-1,.78.78,0,0,0-1,.2.37.37,0,0,0-.1.3c-.1,1.6-1.4,2-2.5,2.5a106.79,106.79,0,0,0-17,10,36,36,0,0,0-6.5,5.8,30,30,0,0,1-3,3.2,1.5,1.5,0,0,1-1.1.4c-1.8-.4-3.1.6-4.5,1.4-2.7,1.6-5.3,3.2-8,4.8-5.4,3.2-10.9,6.3-16.3,9.4-.4.2-.7.4-1.1.6Z"/><path class="cls-5" d="M543.4,87.3c-.8.4-1.7.8-2.5,1.3-3.1,1.9-6.3,1.6-9.5.1a4.86,4.86,0,0,1-1.4-1.1c-2.9-3.8-4.5-7.9-2.5-12.7a9.48,9.48,0,0,1,5.2-5.2c3.6-1.4,8.2.9,9.4,4.7.6,1.7,1.3,3.5.9,5.4-.1.4.2.8.3,1.1l2.8.4c1.3.2,1.8-.2,1.8-1.5-.1-2.1-.4-4.1-.6-6.2a1,1,0,0,1,.2-.9,8.65,8.65,0,0,0,.7,1c.4.5,1.1.8,1.6.3a2.39,2.39,0,0,0,.5-1.4c-.2-2-.5-4.1-.8-6.2,1.1,1.1,1.7,3,3.8,2.7a1.69,1.69,0,0,0,.2-.5c-.8-4-1.4-8-2.4-11.9-.4-1.7-1.5-3.2-2.2-4.9a4,4,0,0,1-.3-1.5c.1-1.1.4-2.1.7-3.7,2.4-1.3,5.1-3.1,8-4.4a9,9,0,0,1,5.3-1.1,17.23,17.23,0,0,0-4.5,7.1c-.8,2.6-2.1,5.2-2,7.9,1.3,1.1,2-.6,3.1-.3.8-1.6,1.5-3.3,2.4-4.8a8.58,8.58,0,0,1,4.2-4.2,16.06,16.06,0,0,1,3.8-.8c1.6-.2,1.9-.3,2.1-1.8a38.44,38.44,0,0,0,0-4.8c1.4-.1,2.9-.3,4.5-.5.8,1.4.3,3,.7,4.5s-.1,3,1,4.4c1.8-.9.5-2.7,1.3-3.9a5.15,5.15,0,0,1,3.6,1.9,7.8,7.8,0,0,1,2,4.3c.3,2.4,1.2,4.6,1.2,7a17.1,17.1,0,0,0,0,3.2c.1,1-.2,1.5-1.4,1.5a35,35,0,0,0-.7-4.5,38,38,0,0,0-1.5-5.1c-.6-1.3-1.5-2.6-3.3-2.3-2,.3-3.2.8-3.5,2.9a14.54,14.54,0,0,0,.1,5.5c.5,2,1,3.9,1.4,5.9s.3,2.1-1.4,2.9c-.2.1-.4.1-.9.3a10.79,10.79,0,0,0-.3-1.9c-.6-2.7-1.3-5.5-1.8-8.2-.3-1.3-.4-2.6-.7-3.9-.3-1.6-1.1-2.3-3.2-1.7a6.14,6.14,0,0,0-4.5,6.2,25.56,25.56,0,0,0,.9,8.7c.1.4.1.7.2,1.1l-3,.6a10.78,10.78,0,0,0-2.4,1.2,1.16,1.16,0,0,0-.4,1,1.33,1.33,0,0,0,1,.6,3,3,0,0,0,1.3-.5,7.6,7.6,0,0,1,8.2,1.8,3.87,3.87,0,0,1,.9,3.7,13.55,13.55,0,0,1-1.8,4.3,7,7,0,0,1-8.2,2.4,5.64,5.64,0,0,0-1.2-.4,2.08,2.08,0,0,0-1.3.3c-.4.5.1.8.5,1.1a2.65,2.65,0,0,1,.6.5c-1.3,1.2-2.5,2.4-3.7,3.6a35.84,35.84,0,0,0-5.5,7.3c-.3.6-.6,1.3-.9,2a4.18,4.18,0,0,1-2.2,2.5,6.42,6.42,0,0,1-1-1.3c-1.3-2.5-2.4-5-3.7-7.5-.5-1-.7-1.9.2-2.8l.3-.6ZM535.1,79c.9-2.8,1.4-3,4-2.7.9-1.2.8-1.6-.5-1.7a8.75,8.75,0,0,0-1.6-.2c-.9.1-1.9.2-2.3,1.1-.9,1.9-2.3,3.5-2.7,5.6a4,4,0,0,0,.5,2.8c.3.8.6.8,1.5.2v-3c1,.5,2,1,3,1.4,1.4.5,2,.2,2.6-.8Zm23.5-.1a7.68,7.68,0,0,0-1.8,1,7.8,7.8,0,0,0-2.5,4.5c-.1.8-.1,1.3.7,1.6s.9-.4,1.2-.8c1.2-1.5,2.1-3.2,4-3.9a1,1,0,0,0,0-1.8c-.6-.2-1.1-.4-1.6-.6Zm-1.2-8.1L561,68a1,1,0,0,0-1.5-.3.22.22,0,0,0-.2.2c-.8.6-2,1.2-1.9,2.9Z"/><path class="cls-4" d="M388.8,176.4a18,18,0,0,1,1.9,2,42.7,42.7,0,0,0,10.5,9.4c2.1,1.4,4.2,3,6.4,4.2,3.5,2,7,3.9,10.6,5.6,2.7,1.4,5.6,2.4,8.4,3.7a92.39,92.39,0,0,0,14.6,4.8c4.4,1.2,9,1.8,13.5,2.6,2.1.4,4.1.7,6.2,1s4.4.4,6.6.5c1,.1,2,0,3,0l.2.4c-.9,1-1.8,2.1-2.8,3.1-2.1,2.1-4.3,4.2-6.4,6.3-1.2,1.2-2.4,2.5-3.5,3.8a1.68,1.68,0,0,1-1.8.5l-1.4-.3c-2.3-.3-4.6-.5-6.9-.9-4.6-.9-9.1-2-13.6-3-.9-.2-1.8-.5-2.8-.8-1.6-.5-3.2-.9-4.8-1.4a35.39,35.39,0,0,1-3.4-1.6c-.3-.1-.6-.5-.9-.6-3.3-.7-6-2.6-8.9-4.2a39.08,39.08,0,0,1-8.5-5.9c-.9-.9-1.9-1.7-2.8-2.5a23.83,23.83,0,0,1-4.7-5.3c-1.5-2.2-3-4.4-4.5-6.7-2.3-3.4-3.1-7.3-3.9-11.3-.2-1.1-.3-2.3-.5-3.4Z"/><path class="cls-4" d="M392.3,113.8h13.8c2.9,0,5.9.2,8.8.4a9.85,9.85,0,0,1,2.8.8c1.3.4,1.6,1,1.3,2.3a11.72,11.72,0,0,1-2.2,4.3,83.44,83.44,0,0,1-9.4,9.4c-1.9,1.7-3.5,3.6-5.4,5.2-3.4,3-6.8,6.1-11.6,6.7-2.1.2-4.2.4-6.3.5-4.4.2-8.7.4-13.1.5-2.3,0-4.7-.2-7-.3a.76.76,0,0,1-.4-.1c-2.5-.7-3-3-1.2-5,1.5-1.6,2.9-3.3,4.5-4.9,1.8-1.8,3.7-3.4,5.5-5.1,2.4-2.4,4.8-4.8,7.3-7.1s5.1-4.3,7.6-6.5A4.41,4.41,0,0,1,392.3,113.8Z"/><path class="cls-2" d="M509.8,32.9c4.1-.8,8.3-.5,12.3-1.5V31c-.3-.1-.7-.2-1.1-.3a192.7,192.7,0,0,0-20.1.5,44.6,44.6,0,0,1-7.3-.3,2.09,2.09,0,0,1-2.2-1.4c4-1.3,8.3-.9,12.3-2.6-.2-.1-.5-.1-.7-.2a65.68,65.68,0,0,0-9.9.5,95,95,0,0,1-13.1.6l-4.3-.3a8.8,8.8,0,0,1-1.5-.5,8.34,8.34,0,0,1,4.3-3.4,84.87,84.87,0,0,1,10-2.2c4.7-.7,9.5-1,14.2-1.5,2.8-.2,5.6-.4,8.3-.5,2.5-.1,5.1-.1,7.6-.1h11.2c3.2,0,6.5-.1,9.7.1,4.1.2,8.2.6,12.3.9a15,15,0,0,1,3,0c3,.5,5.9,1.1,8.9,1.9a5.2,5.2,0,0,1,4.3,4.5,16.66,16.66,0,0,0,.8,3,23.25,23.25,0,0,1,.5,2.8c-1.8.4-3.4.7-5,1a37.45,37.45,0,0,0-9.3,3,73,73,0,0,0-8.7,4.7,4.18,4.18,0,0,1-1,.4,1.25,1.25,0,0,1-1.6-.3c0-.1-.1-.1-.1-.2-.4-.8-.7-1.6-1.2-2.7,3.2-.4,6.1-.7,9.1-1-.1-.8-.2-1.3-1.1-1.2-2.4.1-4.8.1-7.2.3a3.29,3.29,0,0,1-2.5-.8c-.5-.4-1.2-.6-1.6-1.1-2.2-2-5.1-1.8-7.8-2.4a20.91,20.91,0,0,0-5,0c-1.8.1-3.7.2-5.5.4-1.6.1-3.2.4-4.8.6l-4.8.6C510.6,33.5,510.1,33.6,509.8,32.9ZM525,26.8l-.2-.3a15.52,15.52,0,0,1-2.1.4c-2.2.1-4.4.1-6.6.3a10.88,10.88,0,0,1-8.4-2.9c-.5-.4-1-.8-1.6-.3s-.4,1.1.3,1.7c2.4,1.9,5,3.5,8.3,3.2,2.4-.3,4.7-.6,7.2-1a3.83,3.83,0,0,0,3.2,3,9.41,9.41,0,0,0,4.1.3,20.24,20.24,0,0,1,4.3-.4c1.5-.1,3-.1,4.4-.2l1.1-.3a2.72,2.72,0,0,0-1.7-.6c-2.3-.1-4.5,0-6.8-.1-2-.1-4,.1-5.8-1a5.24,5.24,0,0,1-1.1-1Z"/><path class="cls-5" d="M568.4,84.4a10.64,10.64,0,0,0,4.7-5.9c.9-2.6,1.3-5.1-.6-7.3,5.1-2.7,10-5.5,14.9-8a29.3,29.3,0,0,1,9.9-3.5,10.87,10.87,0,0,1,4.4.5,4.3,4.3,0,0,1,2.1,1.9,9.85,9.85,0,0,1,1.2,7.3,29.59,29.59,0,0,1-4.7,11.1,31.15,31.15,0,0,1-10.2,8.9c-4.6,2.4-9.4,4.1-14.7,4a7.4,7.4,0,0,1-6.5-3.4,3.75,3.75,0,0,1-.6-2.7A28.1,28.1,0,0,0,568.4,84.4ZM582.6,70c1.3,1.1,2.6.6,4,.3a.63.63,0,0,0,.5-.6c0-.2-.3-.6-.5-.6-1-.1-2.1-.2-3.2-.2a.9.9,0,0,0-.9.9C582.5,69.9,582.5,69.9,582.6,70ZM577,71.4c-.9-.1-1.4.6-1.1,1.3a3.6,3.6,0,0,0,1.1,1.4,1.5,1.5,0,0,0,1.3.1c.6-.3.3-.8,0-1.2s-.3-.8-.5-1.1A9.22,9.22,0,0,0,577,71.4Zm1.4-.1c.6,1.8,1.4,2,3.3.7-1.6-1.5-1.9-1.6-3.3-.7Z"/><path class="cls-8" d="M722.7,2.7l-2.4,27.9h-.1a4.25,4.25,0,0,0-.2-1.1c-.1-2-.2-4.1-.3-6.1a80.56,80.56,0,0,0-1.3-11c0-.2-.1-.3-.1-.5-.1-.8-.3-1.5-1.2-1.5a2.23,2.23,0,0,0-2,1.6c-.2,1-.3,2.1-.5,3.2-.7,3.7-1.3,7.4-2,11.1a2,2,0,0,1-.4.8c.3-1.8.6-3.6-.3-5.4-1-2-2.9-2.1-4.8-2.1a3.16,3.16,0,0,1,.2-3.7,1.08,1.08,0,0,1,1.6-.4h.1c1.8.9,2.6.5,2.8-1.6l.1-1.8c-3-2.5-6.4-1-7.9,2a11.13,11.13,0,0,0-.9,8c.5,2.1,1.3,2.5,3.4,1.9.2,0,.5-.1.8-.1a5.84,5.84,0,0,1,.4,1.8,8.25,8.25,0,0,1-1,2.6c-.2.3-1.1.3-1.7.2-1.3-.1-1.6,0-2,1.1-.1.3-.2.7-.3,1-.4,2.2.1,2.7,2.3,2.9,1.9.2,3.3-1,4.8-1.8,1.3-.7,1.8-2,2.3-3.3-.2.9-.3,1.8-.5,2.6a5.19,5.19,0,0,0,.3,3,1.27,1.27,0,0,0,.9.7,1.23,1.23,0,0,0,1-.5,6.64,6.64,0,0,0,.6-2c.3-1.4.5-2.8.8-4.2.1-.5.3-1.1,1.2-.7v3.5a13.4,13.4,0,0,0,.1,2c.2,1,.7,1.3,1.6,1,.7-.2,1.4-.5,2.2-.7v1.4a.76.76,0,0,1-.5.2c-1.7.2-3.4.5-5.2.6l-10.7,1.2c-3.6.4-7,.8-10.5,1.3-2.1.3-4.2.7-6.3,1.1l-9,1.5h-1.2c0-1.1.1-2.2.2-3.3.5-3.2,1.2-6.3,1.8-9.5.7-4,1.5-8.1,2.2-12.2a13.4,13.4,0,0,0,.1-2c0-2.1.4-2.6,2.4-3.1,2.5-.6,5-1,7.5-1.5.3,0,.6-.1.9-.1,5-1.7,10-2.4,15-3.6a59.94,59.94,0,0,1,6.1-1.3c2.9-.5,5.8-.9,8.7-1.3A2.92,2.92,0,0,1,722.7,2.7ZM693,34.7c1-3.2.2-6.4,1.3-9.6.2.4.5.7.5.9-.2,2.4,1.1,4.4,1.7,6.5.3,1,.9,1.3,2.5,1.1,1.1-.1,1.3-.4,1.4-1.5.1-1.5.2-3.1.3-4.6.4-4.8.9-9.6,1.3-14.4a1.2,1.2,0,0,0-1-1.5c-.2-.1-.5,0-.7,0-.8.2-1.7.5-2.5.7a66.88,66.88,0,0,1-.8,8.9l-.6-1.5c-.8-1.9-1.5-3.8-2.3-5.6a1.28,1.28,0,0,0-1.6-.9,2.19,2.19,0,0,0-.5.3,1.74,1.74,0,0,0-.6,1.1c-.3,2.4-.7,4.9-.9,7.3-.4,3.9-.7,7.7-1,11.6-.1.9.3,1.3,1.3,1.3a14.12,14.12,0,0,1,2.2-.1Zm-7.4.2c2.3.1,2.3.1,2.4-2.2.1-1.2.1-2.4.3-3.5.4-4,1.4-8,1.3-12.1,0-.9.2-1.8.2-2.7,0-1.2-.5-1.5-1.6-1.4a24.6,24.6,0,0,0-2.9.7c-1.1.3-1.4.7-1.5,1.9-.5,4.3-1.1,8.6-1.6,13-.2,1.7-.4,3.3-.5,5,0,.7.1,1.3,1,1.3Z"/><path class="cls-6" d="M703.5,201.2c-2,.2-3.7-.7-5.4-1.4a7.82,7.82,0,0,1-2.5-2.3,9.31,9.31,0,0,1-2.3-8.3,20.58,20.58,0,0,1,6.1-11.5,13.88,13.88,0,0,1,8-3.5c1.3-.1,2.6,0,3.9,0a4.16,4.16,0,0,1,3.8,1.5,2.92,2.92,0,0,0,1.2.7,16.32,16.32,0,0,1,2,1.7c2.5,2.3,2.5,5.3,2.3,8.3a8.65,8.65,0,0,1-.8,2.6,18.05,18.05,0,0,1-11.2,11.2A16.51,16.51,0,0,1,703.5,201.2Z"/><path class="cls-4" d="M532.6,132.4c-1,2.2-1.9,4.5-3,6.6a33.36,33.36,0,0,0-3.5,11.5,23.08,23.08,0,0,0-.3,3.7,5.5,5.5,0,0,0,1.2,3.5,17.19,17.19,0,0,0,6.1,4.9,55.94,55.94,0,0,0,5.7,2.2,32.19,32.19,0,0,0,7.5,1.5c3.1.4,6.1,1,9.2,1.4a36.84,36.84,0,0,0,4.7,0c1.4,0,2.8-.1,4.1-.1a2.22,2.22,0,0,1,1.3.8c1.3,1.6,2.4,3.4,3.8,5.3a12.41,12.41,0,0,1-2.7.3,83.85,83.85,0,0,1-18.7-1.5c-4.2-.8-8.5-1.7-12.6-2.9a87.15,87.15,0,0,1-9.7-3.6,24.71,24.71,0,0,1-4.2-3c-.2-.1-.3-.4-.5-.5-1.6-.8-2-2.3-2.5-3.7-.5-1.2-1-2.3-1.4-3.5-.8-2.1-.3-4.2,0-6.2a35,35,0,0,1,1.7-7.1,49.1,49.1,0,0,1,2.8-6.2,5.54,5.54,0,0,1,4.8-3.5c2-.1,3.9-.3,5.8-.4Z"/><path class="cls-4" d="M732.7,167.8a23.71,23.71,0,0,1,.1,8.4c-.8,3.9-1.7,7.8-2.8,11.7a45.07,45.07,0,0,1-5.2,11.4c-1.8,3-3.5,6-5.5,8.8s-4.4,5.6-6.7,8.4c-1.8,2.1-3.7,4.2-5.6,6.3-1.3,1.5-1.3,1.4-3.6,1.8,1.1-7.3,3.3-14.3,3.7-21.7,4.8-.7,8.3-3.5,11.3-6.9a17.91,17.91,0,0,0,4.5-9,10.62,10.62,0,0,0-1.4-8.3c-.5-.7-.8-1.3,0-2C725.3,173.8,728.8,170.9,732.7,167.8Z"/><path class="cls-5" d="M558.9,118c1-4.6,3.5-8.5,6.1-12.2,5.6.5,10.1,6.7,9.3,12.1a15.21,15.21,0,0,1-6-.3,3.59,3.59,0,0,0-2.7.1c-.4.8-.1,1.4.7,1.5a21.27,21.27,0,0,0,4.4.7c2.3.1,4.5-.1,6.8-.1a5.09,5.09,0,0,1,1.7.7l-1.4,3c1.2.5,1.7-.4,2.1-.9.9-1.1,1.7-2.3,2.5-3.5.4-.6.9-1.2.3-1.9a1.53,1.53,0,0,0-2-.4.1.1,0,0,0-.1.1.9.9,0,0,1-.5.1c-.2-4.8,3.1-15.4,5.6-17.7a7.17,7.17,0,0,1,1.5,4.2,44.26,44.26,0,0,1,.4,10.9,42.68,42.68,0,0,1-1.5,7.1,8.6,8.6,0,0,0-2,1.8,9,9,0,0,1-2.7,2.8,45.41,45.41,0,0,1-5.3,3,5.62,5.62,0,0,1-4.9-.2,18,18,0,0,1-3.5-2.4c-2.5-2.2-5-4.4-7.5-6.7C559.7,119.1,559.3,118.6,558.9,118Zm9.4-5.9a44.16,44.16,0,0,1-2.3-4,1.08,1.08,0,0,0-1.4-.7.35.35,0,0,0-.2.1.88.88,0,0,0-.5,1.2c0,.1.1.2.2.3a26.06,26.06,0,0,0,2.7,3.1C567,112.3,567.6,112.1,568.3,112.1Z"/><path class="cls-1" d="M559.5,87.9a7.67,7.67,0,0,1,7.2-2.3c-1.4,5.3,1.5,7.9,5.5,9.4-.2.3-.5.5-.7.8a47.75,47.75,0,0,0-12.2,15.3,42.76,42.76,0,0,0-2.5,6.8,6.6,6.6,0,0,0-1.1-.4c-.5.6-1.1,1.2-1.6,1.7-.8.6-1.5.4-1.7-.5-.6-2.6-1.1-5.2-1.6-7.8a16.36,16.36,0,0,1-.1-7.3,29,29,0,0,1,1.4-4.8,22.26,22.26,0,0,1,5.1-8.1A15.6,15.6,0,0,1,559.5,87.9Z"/><path class="cls-1" d="M591.3,125l-.3-1.9c-1.3-.2-1.5.9-2,1.5l-1.4-.7v-.5a42.49,42.49,0,0,0,2.3-7.7,43.5,43.5,0,0,0,0-10.2l-.3-2.1a16.41,16.41,0,0,0-3.7-8.4c-.2-.3-.4-.6-.7-1.1,1.2-.5,2.3-1.1,3.4-1.6s2.3-1.2,3.5-1.8,1.5-.7,2.2.2c2.7,3.5,5.1,7.2,6.1,11.6,1.1,4.6-.1,8.9-2.5,12.9-1.6,2.7-3.4,5.3-5.2,8C592.3,123.7,591.9,124.2,591.3,125Z"/><path class="cls-4" d="M624.7,133.2a26.57,26.57,0,0,0-8.3,8.7,8.8,8.8,0,0,1-3.7,3.7,8.81,8.81,0,0,0-4.6,7.1l-.1,1.6c-3.5.2-6.8.3-10.3.5a11.23,11.23,0,0,1,1.8-4.9c1.8-2.9,3.4-5.9,5.3-8.7a38,38,0,0,1,4.7-5.9c1.7-1.7,3.8-3,6.6-2.5a33.73,33.73,0,0,0,5.5.2C622.6,133,623.7,133.1,624.7,133.2Z"/><path class="cls-9" d="M543.4,141.5c-1.5,7-3.6,13.5-5.2,20.2a21.74,21.74,0,0,1-8-4.1,5.11,5.11,0,0,1-1.9-5.4c.5-2.1.8-4.3,1.3-6.5.2-1,.6-1.9.9-3.1C534.8,142.3,539,141.9,543.4,141.5Z"/><path class="cls-10" d="M538.6,67.5c0-5.8,1.1-11.5,1.7-17.4a10,10,0,0,0,.9,1,20.89,20.89,0,0,0,2.2,2,2.64,2.64,0,0,0,2.7.2c1.4-.7,1.3-.6,2.2.8,1.9,2.9,2.2,6.3,2.9,9.5l.3,1.8c-.9-.6-1.7-1.3-2.5-1.8a3.7,3.7,0,0,0-1.1-.5c-.8-.1-1.3.4-1,1.1a17.18,17.18,0,0,0,1.1,2.9,8.65,8.65,0,0,1,.6,3.9,12.74,12.74,0,0,1-1.9-1.3c-.6-.5-1.2-.8-1.8-.2s-.3,1.1,0,1.6a21.68,21.68,0,0,1,1.8,7.5c-.9.4-1.4.1-1.4-.6a10.53,10.53,0,0,0-1.1-4.3,11.62,11.62,0,0,0-2.5-4.1,1.71,1.71,0,0,1-.6-1.9,61.29,61.29,0,0,1,1.8-6.1,55,55,0,0,1,2.8-6c.3-.5.5-1,0-1.4a1,1,0,0,0-1.5.2.35.35,0,0,0-.1.2,37.91,37.91,0,0,0-2,3.4,36.16,36.16,0,0,0-1.3,3.5c-.5,1.8-1,3.5-1.5,5.3l-.3.6h-.4Z"/><path class="cls-5" d="M674.2,73.4c.2-1.8.3-3.5.6-5.3,0-.4.6-.6.7-1a4.38,4.38,0,0,0,.7-1.9,19.09,19.09,0,0,0-1.1-4.1,1.12,1.12,0,0,0-.8-.7c-.6,0-.7.6-.6,1.1l.5,4.1c-2.5,1.8-4.7,1.1-5.6-1.5a7.37,7.37,0,0,1-.4-1.4c-.5-2.4-.5-3,2.2-4.3,1.5-.7,3.1-1.3,4.6-1.9,1.8-.7,2.8-.6,3.9.9,1.8,2.5,3.3,5.1,3.3,8.3a4.49,4.49,0,0,1-.8,2.7c-1.8,2.4-4.5,3.6-6.8,5.3Z"/><path class="cls-11" d="M549.1,44.9l-2.3-2.2c1-.5,2.1-1.2,3.2-1.7,3.3-1.6,6.4-3.7,10.1-4.6A73.07,73.07,0,0,1,573.3,34a10.34,10.34,0,0,1,6.2,1.4,2.87,2.87,0,0,1,1.6,1.8,11,11,0,0,0-1.8-.2,4.19,4.19,0,0,0-2.2.5,2.83,2.83,0,0,1-2.5.6c-1.4-.2-2.8-.3-4.3-.4a3.21,3.21,0,0,0-1.4.1,36.35,36.35,0,0,1-7.2,1.3,23.71,23.71,0,0,0-8.5,3.2C551.8,43.1,550.4,44.1,549.1,44.9Z"/><path class="cls-9" d="M590.6,140.7c2-.8,4-.5,6-.5h6.2a5.67,5.67,0,0,1-.8,1.3,49.73,49.73,0,0,0-5.1,9,21.85,21.85,0,0,0-1,3.4c-.2.7-.2.7-1.1.8Z"/><path class="cls-4" d="M430.2,106.3l-1.4-8.4c3,.4,6-.3,9.1.3-.8,2-2.5,2.9-3.6,4.3A18.7,18.7,0,0,1,430.2,106.3Z"/><path class="cls-5" d="M683.6,62.1c-1.2-3.9-2.7-7.4-7.4-7.9,0-1-.1-2,.8-2.4a3,3,0,0,1,3,.5,6.28,6.28,0,0,1,1.2,1.1,16.75,16.75,0,0,1,3.5,6.9C685,61.1,684.9,61.9,683.6,62.1Z"/><path class="cls-12" d="M547.3,48.7a12.2,12.2,0,0,1-.7,1.7c-.9,1.6-2.2,1.7-3.5.5a3.57,3.57,0,0,1-.8-3.8,3.81,3.81,0,0,1,2.9-2.3c1.1-.1,1.5.3,1.7,1.3A14.31,14.31,0,0,1,547.3,48.7Zm-3-1.4a3,3,0,0,0-.7.8c-.2.6.3,1,1,1s1-.3,1-.9-.1-1-1.3-.9Z"/><path class="cls-13" d="M675.3,35l3.1-23.1h.4a4.12,4.12,0,0,1,.3.8c-.1,1.5-.2,3.1-.4,4.6-1,5.9-2,11.8-3,17.6Z"/><path class="cls-5" d="M675.7,50.2c1.1-2,3.6-2.9,5.1-1.8a11.31,11.31,0,0,1,4.3,4.9c.2.6.7,1.3-.3,2C682.9,51.7,680.7,48.8,675.7,50.2Z"/><path class="cls-2" d="M570.6,53.2l.8,3.6c-3.5.4-3.5.4-5,2.1C565.7,56,567.5,53.1,570.6,53.2Z"/><path class="cls-5" d="M674.8,48.3c-.7-.5-.9-.9-.3-1.4a5.18,5.18,0,0,1,2.2-1.4c1.6-.3,3.2-.8,4.9-.3,1.4.4,2.3,1.5,3.3,2.4.5.4.3.6-.7,1.3C681.3,45.8,678.1,45.3,674.8,48.3Z"/><path class="cls-5" d="M572.6,131.4c2.1,1,3.8-.6,5.8-.8a2.66,2.66,0,0,1-1,3.1,2.74,2.74,0,0,1-3.2-.4c-.6-.5-1.2-1.1-1.7-1.6Z"/><path class="cls-2" d="M581.5,54.3c-1.4.3-2.6.6-4,.9V53.5c.1-.6.1-1.3.9-1.6a2.25,2.25,0,0,1,2.3.9C581,53.3,581.2,53.8,581.5,54.3Z"/><path class="cls-13" d="M672.4,71.2c-.2,1.6-.3,3.3-.5,4.9-.2,2-.5,4.1-.8,6.1,0,.1-.3.3-.5.4h0l1-7.9c.1-1.1.2-2.1.4-3.2-.1-.1.3-.2.4-.3Z"/><path class="cls-2" d="M569,104.4l.9-.5,2.1,1.6.3.9a2.7,2.7,0,0,0,.8.7l-.3.4Z"/><path class="cls-13" d="M670.5,82.6c.1,1.4.2,2.8.2,4.3a47.48,47.48,0,0,1-.5,5.3c-.5-3.2.1-6.4.3-9.6Z"/><path class="cls-2" d="M581.3,97.1a10.26,10.26,0,0,1-1.4-.4,10.7,10.7,0,0,1,1.4-1.6,1.27,1.27,0,0,1,1.8-.1Z"/><path class="cls-2" d="M570.4,62c-.9-1.6-.9-1.7-.3-3C571.2,60.2,571.2,60.8,570.4,62Z"/><path class="cls-2" d="M582.8,99l-2,4.8A6.2,6.2,0,0,1,582.8,99Z"/><path class="cls-5" d="M673.7,50.6c-1.2.4-2.1.7-3.1,1.1C671.7,50.2,672.1,50,673.7,50.6Z"/><path class="cls-13" d="M674.6,43.9c-.6-2,.1-3.6.5-5.2Z"/><path class="cls-2" d="M581.3,59.6l-.9-2.7.4-.1C581,57.6,582.3,58.1,581.3,59.6Z"/><path class="cls-2" d="M574.9,107.7c-.5,1.3-.9.7-1.6.2Z"/><path class="cls-2" d="M566.7,103.6l1,.2-.1.4-1-.2Z"/><path class="cls-2" d="M583.9,97.2l-.2-1.2h.3l.4,1.2Z"/><path class="cls-2" d="M578.6,95.7c-.4.4-.7.8-1.3,1.4C577.4,96,577.9,95.8,578.6,95.7Z"/><path class="cls-2" d="M577.7,116.3c.3.8.2,1.2-.8,1.1Z"/><path class="cls-13" d="M672.4,71.2l-.3-1.8h.4a2.79,2.79,0,0,1-.1,1.8Z"/><path d="M523.1,45.5a20.94,20.94,0,0,1-3.5,1.3,67.58,67.58,0,0,1-13.5,1.9,8.2,8.2,0,0,1-4.8-1.2,2.41,2.41,0,0,0-2.3-.3,47.46,47.46,0,0,1-6.3,1.4,19,19,0,0,1-6.7-.4,3.18,3.18,0,0,1-2.6-2.8c0-.3.2-1,.3-1,.4,0,1.1.1,1.2.4.5,1.8,2,1.9,3.5,2.1a22.08,22.08,0,0,0,6.8-.4c1.8-.3,3.7-.4,5.3-1.4.6-.4,1.5-.1,2.2-.2l4.8-1.2a1.34,1.34,0,0,1,.5.1c-.4,1.1-1.6.9-2.3,1.3-1,.4-1.9.8-2.9,1.1a7.59,7.59,0,0,0,4.2.6,57.77,57.77,0,0,0,14.4-1.5,2.77,2.77,0,0,1,.9-.1,1.7,1.7,0,0,1,.7.1Z"/><path d="M535.1,79l4.5,2.7c-.6,1-1.1,1.2-2.6.8-1-.4-2-.9-3-1.4v3c-.8.5-1.1.6-1.5-.2a4.42,4.42,0,0,1-.5-2.8c.4-2.1,1.8-3.7,2.7-5.6.4-.9,1.4-1,2.3-1.1a8.75,8.75,0,0,1,1.6.2c1.3.2,1.3.5.5,1.7C536.4,76,536,76.3,535.1,79Z"/><path d="M558.6,78.9c.5.2,1.1.4,1.6.6a1,1,0,0,1,0,1.8c-2,.7-2.9,2.4-4,3.9-.3.4-.5,1.1-1.2.8s-.8-.9-.7-1.6a8.12,8.12,0,0,1,2.5-4.5A7.68,7.68,0,0,1,558.6,78.9Z"/><path d="M557.4,70.8c0-1.7,1.1-2.2,2-2.9a1,1,0,0,1,1.5,0l.2.2Z"/><path d="M525,26.8l-1.4.9a5.24,5.24,0,0,0,1.1,1c1.8,1,3.8.8,5.8,1,2.2.2,4.5.1,6.8.1a3.49,3.49,0,0,1,1.7.6,4.51,4.51,0,0,1-1.1.3c-1.5.1-3,.1-4.4.2a21.52,21.52,0,0,0-4.3.4,9.41,9.41,0,0,1-4.1-.3,3.72,3.72,0,0,1-3.2-3c-2.5.3-4.8.7-7.2,1-3.3.4-5.9-1.2-8.3-3.2-.7-.5-.8-1.3-.3-1.7s1.1-.1,1.6.3a10.88,10.88,0,0,0,8.4,2.9c2.2-.2,4.4-.2,6.6-.3a15.52,15.52,0,0,0,2.1-.4Z"/><path d="M582.6,70a.86.86,0,0,1,.6-1.1h.3a17.2,17.2,0,0,1,3.2.2c.2,0,.5.4.5.6s-.2.5-.5.6C585.2,70.6,583.8,71.2,582.6,70Z"/><path d="M577,71.4a1.79,1.79,0,0,1,.7.5c.2.3.3.8.5,1.1s.6.9,0,1.2a1.5,1.5,0,0,1-1.3-.1,4.86,4.86,0,0,1-1.1-1.4A1,1,0,0,1,577,71.4Z"/><path d="M578.4,71.3c1.4-.9,1.7-.8,3.3.7C579.8,73.4,579,73.2,578.4,71.3Z"/><path d="M693,34.7h-2.4c-.9,0-1.3-.4-1.3-1.3.3-3.9.6-7.7,1-11.6.2-2.4.5-4.9.9-7.3a2,2,0,0,1,.6-1.1,1.39,1.39,0,0,1,1.9,0c.2.2.3.3.3.5.8,1.8,1.6,3.7,2.3,5.6l.6,1.5a52.6,52.6,0,0,0,.8-8.9c.9-.2,1.7-.5,2.5-.7a1.31,1.31,0,0,1,1.6.8.85.85,0,0,1,0,.7c-.4,4.8-.9,9.6-1.3,14.4-.1,1.5-.2,3.1-.3,4.6-.1,1.1-.3,1.4-1.4,1.5-1.5.2-2.2-.1-2.5-1.1-.6-2.2-1.9-4.1-1.7-6.5,0-.2-.2-.4-.5-.9C693.2,28.3,694,31.6,693,34.7Z"/><path d="M685.6,34.9h-3c-.9,0-1.1-.6-1-1.3.1-1.7.3-3.3.5-5,.5-4.3,1.1-8.6,1.6-13,.1-1.1.4-1.6,1.5-1.9s1.9-.5,2.9-.7,1.5.2,1.6,1.4c0,.9-.2,1.8-.2,2.7.1,4.1-.8,8.1-1.3,12.1-.1,1.2-.2,2.4-.3,3.5C687.8,35,687.8,35,685.6,34.9Z"/><path d="M568.3,112.1c-.7,0-1.3.2-1.5,0a26.06,26.06,0,0,1-2.7-3.1.85.85,0,0,1,0-1.3c.1-.1.2-.2.3-.2a1.1,1.1,0,0,1,1.5.3c0,.1.1.1.1.2A34.62,34.62,0,0,0,568.3,112.1Z"/><path d="M544.3,47.3c1.1-.1,1.3.4,1.4.9a.8.8,0,0,1-1,.9c-.7-.1-1.3-.5-1-1A1.83,1.83,0,0,1,544.3,47.3Z"/><polygon class="cls-1" points="548.7 63.5 548.1 63.3 547.5 63.1 547 63.3 546.8 63.7 546.8 64.3 547.2 65.5 547.7 66.9 548.2 68.2 548.4 69 548.5 71.1 546.5 69.8 545.8 69.4 545.3 69.3 544.8 69.6 544.6 69.9 544.5 70.2 544.6 70.9 545.4 72.7 545.8 74.1 546.2 75.5 546.5 77.8 546.6 78.8 546.2 78.9 545.7 78.9 545.3 78.6 545.2 78.2 545.1 77.2 545 76.4 544.8 75.6 544.3 74.2 543.5 72.4 542.7 71.1 541.9 70.1 541.3 69.5 541 69 540.9 68.7 540.9 68.2 542 64.1 542.6 62.2 543.6 59.8 544.9 57.2 545.6 55.8 545.9 55.1 545.7 53.5 546.7 53.1 547.4 53 548.3 54.1 549.2 55.8 549.8 57.6 550.2 58.9 550.6 60.9 551 62.7 551.3 64.3 551.4 65.5 550 64.6 548.7 63.5"/><text class="cls-14" transform="translate(84.54 180.46) rotate(-4)">Découvre ton <tspan x="55.46" y="44.4">village</tspan></text></svg>