<?xml version="1.0" encoding="utf-8"?>
<!-- Generator: Adobe Illustrator 22.1.0, SVG Export Plug-In . SVG Version: 6.00 Build 0)  -->
<svg version="1.1" id="Calque_1" xmlns="http://www.w3.org/2000/svg" xmlns:xlink="http://www.w3.org/1999/xlink" x="0px" y="0px"
	 viewBox="0 0 920.6 699.8" style="enable-background:new 0 0 920.6 699.8;" xml:space="preserve">
<style type="text/css">
	.st0{fill:#FFD7C2;}
	.st1{fill:#FFFFFF;}
	.st2{fill:#FF0000;}
	.st3{fill:#E98B38;}
	.st4{fill:#ED1C24;}
	.st5{fill:none;}
	.st6{fill:#FFF435;}
	.st7{fill:url(#SVGID_1_);}
	.st8{fill:#009245;}
	.st9{fill:#39B54A;}
	.st10{fill:url(#SVGID_2_);}
	.st11{fill:url(#SVGID_3_);}
	.st12{fill:url(#SVGID_4_);}
	.st13{fill:#B35B3D;}
	.st14{fill:url(#SVGID_5_);}
</style>
<title>astreix annonce</title>
<polygon class="st0" points="181.7,261.2 214.1,247.2 244.3,276.8 227.7,295.4 222.9,300.6 207.5,308.3 199.2,309.2 192.6,308.6 
	184.1,303.8 176.3,297.9 "/>
<polygon points="214.1,309.2 225.8,300.6 226.7,304.4 228.6,315.5 232.1,328.8 237.9,346.8 243.7,363.4 249.2,378.9 255.1,403 
	256.9,415.9 256.6,440.9 236.4,446.8 152.8,419.7 150.3,396.3 153.9,394.5 161.1,343.7 172.7,302.4 175.1,301.1 180.3,305.1 
	190.3,311.2 "/>
<path d="M117.9,427.3c-3.4,1.5-5.7,0-7.1-4.3c-2.1-0.7-4.2-1.6-6.2-2.6c-2.4-1.4-3.2-4.6-1.8-7c0.3-0.5,0.6-0.9,1-1.3
	c0.5-0.4,0.9-0.8,1.3-1.3c0.9-1.3,0.7-1.9-0.9-2.6c-4.8-2.3-9.8-4.3-14.4-7c-3.9-2.5-7.6-5.3-11.1-8.4c-5-4.1-8.3-9.6-11.4-15.1
	c-2.6-4.5-5.6-9-6.4-14.3c-0.2-1.4-0.4-2.8-0.6-4.5c-3.3-0.4-2.1-3.4-2.7-5.4c-0.5-1.8,1-2.8,2-4.1c2.1-2.2,4.6-3.9,7.5-5
	c5.9-2.9,11.7-5.7,17.6-8.4c3.9-1.8,7.9-3.3,11.8-5.1s8-4,11.9-6c3.5-1.6,7-3.2,10.5-4.7c8.6-3.6,17.3-7.2,26-10.7
	c7.3-2.9,14.7-5.5,22-8.3c0.9-0.3,1.8-0.8,2.6-1.4c-4.2,0.7-7.1-1.5-10.2-3.7c-4.9-3.4-6.4-8.6-8.3-13.7c-0.9-2.3-1.5-4.7-2.2-7.4
	c-7.7-0.3-14.2-2.9-17.5-10.9c-4.7,5.7-10.5,6.6-17.2,4l-0.2,0.4c0.9,1.2,1.8,2.5,2.9,3.7c0.7,0.7,1.1,1.4,0.7,2.3
	c-0.3,0.9-1.3,1.4-2.1,1.1c0,0,0,0-0.1,0c-1.6-0.3-3.1-0.9-4.5-1.7c-4.7-3.4-9-7.1-11-12.8c-0.7-1.8-1.6-3.5-2.6-5.8
	c-0.2,0.8-0.4,1.7-0.8,2.4c-0.4,0.7-1,1.2-1.7,1.4c-1,0.1-1.5-0.6-1.7-1.7c-0.7-3.4-2-6.7-1.9-10.2c0.1-2,0-4.1,0.2-6.1
	c0.7-5.8,2.8-11.3,6.2-16.1c2-2.7,4.1-5.5,7.6-6.9c-1-0.9-2.5-1-3.6-0.2c-1,0.4-2,0.6-2.6-0.4c-0.6-1,0.1-1.8,1-2.5
	c2.6-2,5-4.3,7.6-6.2c4.1-2.8,9-4.1,14-3.8c4.1,0.1,8.1,1.1,11.6,3c-0.1-0.9-0.2-1.5-0.3-2.1c-0.4-4.2-0.8-8.3-1.3-12.5
	c-0.6-3-0.6-6.1,0-9.1c0.5-2.1,1-4.1,1.5-6.2c0.4-1,0.3-2.1-0.3-3c-0.8-1.6-1.5-3.2-2.1-5c-3.8,3.5-7.8,2.1-11.7-0.1
	c-4.2-2.4-7.7-5.8-10.3-9.8c-2.8-4.2-4.1-9.2-3.5-14.2c0.3-1.5,0.7-3,1.3-4.4l-1.4-2.1L97.5,129c-0.1-0.1-0.2-0.3-0.3-0.5
	c-0.9-3-2-6.1-2.8-9.1c-0.6-2.7-0.2-5.4,1-7.9c0.5-1.3,2-2.2,3.2-3.4c-0.9-2.2-2-4.6-2.8-7.2c-1.2-3.9-1.8-7.8,0.2-11.7
	c0.5-1.2,1.4-2.3,2.6-2.9c1.4-0.6,1.7-1.5,1.3-3c-1.6-5.8-1.8-11.9-0.7-17.7c0.8-3.2,1.9-6.3,3.5-9.2c1.3-2.4,3.9-3.5,7-3.7
	c0.2-1.4,0.3-2.8,0.5-4.2c0.3-2.8,0.4-5.7,0.9-8.5c0.7-3.9,0.9-7.8,2.7-11.4c0.7-1.5,1.6-3,2.6-4.3c1.5-1.9,5-1.4,6.4,0.9
	c1.3,2,2.1,4.3,2.4,6.7c0.7,5.7,0,11.2-0.4,16.8c-0.3,4.7-0.4,9.4-0.3,14.2c0.1,6.5,1.7,13,4.7,18.7c3.2,5.7,6.6,11.4,9.8,17.1
	c0.9,1.6,1.6,3.2,2.1,4.9c2,5.9,3.9,11.8,4.5,18.1c0.3,4.5,0.1,9,0.2,13.4c-0.1,2.4-0.4,4.7-0.9,7.1c1.3-1,2.5-2.1,3.6-3.3
	c1.7-1.9,3.7-3.4,6-4.5c3.6-1.9,6.6-0.4,7.5,4.2c0.1,0.8,0.1,1.5,0,2.3c0.9-0.3,1.9-0.6,2.8-1c3-1.5,5.9-3.1,8.9-4.4
	c1.9-0.7,3.8-1.3,5.8-1.7c-2.2-4.9-5.2-9.6-3.3-15.4c-1.5-3-2.8-6-3.9-9.1c-1.6-5.1-0.9-10.7,1.9-15.2c0.7-1.2,2.4-1.8,3.6-2.7
	c-0.6-2.4-1.3-4.9-2-7.3c-0.8-3.2-1.2-6.5-0.9-9.8c-0.1-2.8,1.9-5.3,4.6-5.9c0.6-0.2,1.2-0.4,2-0.8c0.1-1,0.1-2,0-3
	c-1.2-5.9-0.1-11.7,0-17.5c0.1-4.2,2.3-7.9,4.7-11.2c0.9-1.3,3-1.8,4.5-2.6c0.6-0.2,1.2-0.3,1.8-0.4l0.7-3.3
	c0.6-3.7,1.5-7.3,2.5-10.9c0.9-2.9,2.3-5.6,4.1-8.1c1.4-1.8,3.6-3.9,6.4-2.7c2.2,0.8,4.2,2.2,5.7,4c1.3,1.6,2,3.7,1.9,5.8
	c-0.3,6.4-1.1,12.8-2.5,19.1c-0.8,3.9-1.5,7.9-1.9,11.9c-0.3,3.1-0.3,6.2-0.4,9.3c0.1,6.1,0.9,12.1,2.4,17.9
	c1.8,7.5,2.8,15.1,3,22.8c-0.1,8.1-1.4,16.2-4,23.9c-1.1,3.6-2.8,6.9-5.2,9.8c0.2,0.1,0.4,0.3,0.4,0.3c2.8-1.7,5.6-3.5,8.5-5
	c3.6-1.8,7.3-3.4,10.9-5.1c2.2-1,4.2,0.3,6.2,0.9c1.2,0.3,1.3,2.9,0.3,3.6c-0.6,0.5-1.3,0.8-2.1,1c-7.4,1.3-14.5,3.8-21.1,7.5
	c-0.6,0.3-1.1,0.6-1.6,1c-0.3,0.3-0.5,0.6-0.7,0.9l3.6,3.6c1.2-0.6,2.4-1.1,3.6-1.7c4.2-2.1,8.8-3.6,13.4-4.3
	c0.4-0.1,0.9-0.2,1.3-0.2c2,0,3.4,0.9,3.5,2.5c0.1,1.9-1.2,3.5-3,3.9c-0.5,0.1-1.1,0-1.6,0c-1.5,0.1-3,0.1-4.5,0.4
	c-2.7,0.5-5.4,1.1-8.1,1.7c-0.6,0.2-1.2,0.4-1.8,0.7c0.1,0.7,0.2,1.4,0.4,2.1c1.1,3.3,2.1,6.5,3.4,9.7c0.4,0.7,1,1.1,1.8,1.3
	c3,0.8,4.7,3.9,3.9,6.8c-0.1,0.3-0.2,0.6-0.3,0.9c-0.8,2-2.3,3.6-2.1,6c0.1,1.2,0,2.5,0.1,3.7c0.5,4.9,1,9.8,1.7,14.6
	c0.4,3.3,1,6.5,1.5,9.9c0.6,0,1.2-0.1,1.8-0.2c1.1-0.2,2.1-0.3,3.2-0.3c5.3,0.1,10.5,1,15.5,2.6c6.2,1.7,10.6,7.3,10.9,13.8
	c0.5,2.7,0.5,5.5-0.1,8.2c-0.3,1.1-0.7,2.2-1.3,3.1c-1.2,2-1.7,4.5-3.6,6.2c-0.5,0.6-1,1.2-1.4,1.8c0.3,0.5,0.7,0.9,1.2,1.3
	c2,1.5,3.7,3.4,4.7,5.7c3,5.3,4.6,11.3,4.6,17.4c0,1.2,0.4,2.4,0.4,3.7c0.2,4.3-0.6,8.6-2.2,12.7c-1.7,4.5-3.3,9.1-6.5,12.8
	c-3.4,4.4-7.5,8.2-12.1,11.2c-0.6,0.5-1.2,1-1.6,1.7c-0.8,0.9-1.1,2.2-2.3,2.8l-1.9-6l-2.5,1.3l0.4-4.6c-1.5-2-2.5,0.3-4,0.4
	c-0.1-0.5-0.1-1,0-1.5c0.7-2,0.4-4.1,0.9-6.1c0.4-2.1,0.5-4.3,0.2-6.4c-0.3-2.3-0.8-4.6-1.6-6.8c-1.6-4.7-3.8-9.1-6.8-13
	c-1.7-2.9-4.1-5.3-6.9-7c-5.2,3.3-9.9,7.3-14.1,11.8c-2.7,2.7-5.3,5.5-7.7,8.5c-3.6,4.4-6.7,9.2-9.1,14.4c-1,2.2-1.3,4.7-0.9,7
	c0.5,2.5,0.4,2.6-2,2c-0.6,0-1.2,0-1.7,0.1c3.7,2.8,7,5.4,10.5,7.9c4.8,3.5,10.5,4.1,16.1,3.5c5.2-0.8,10.2-2.7,14.6-5.7
	c3.6-2.4,7-5.1,10.1-8.1c0.3-0.3,0.9-0.2,1.7-0.3c-0.7,2.1-1.9,4-3.6,5.5c-2.3,2.1-4.8,4-7.1,6.1c-0.6,0.5-1,1.2-1.2,2
	c-0.5,1.9-0.6,3.9-1.2,5.7c-1.2,3.5-4.2,6.2-7.9,6.9c-6.5,2.1-13.7,0.6-18.7-4.1c-0.5-0.4-0.8-1-1.2-1.4c-2.1-1.9-2.3-5.3-5-6.8
	c0-2.2-1.9-2.8-3.2-3.9c-1.6-1.5-3.5-2.7-5.3-4.1l-2.4,1.4c2.5,1.6,4.7,3.8,6.3,6.3c1.6,2.4,2.6,5.1,3,7.9c0.6,3.1-0.7,5.8-2.1,8.4
	c-1.5,3.2-3.3,6.2-5.4,9c-3.1,3.7-6.4,7.5-11.5,8.8c-0.7,0.2-1.3,0.5-1.9,0.9c-0.1,1.1-0.1,2.2,0,3.3c0.3,3.8,0.2,7.6-0.4,11.4
	c-0.3,2.6-0.3,5.2-0.6,7.7c-0.7,6.4-1.7,12.7-3.2,18.9c-0.6,3.2-1.6,6.4-3,9.4c-0.6,1.2-1,2.5-3,2.4c1.2,1.9,2.4,3.8,3.8,5.6
	c3.2,3.7,5,8.5,4.9,13.4c0,0.5,0.1,1,0.2,1.8c1.5,0.5,3,1,4.5,1.5c6.1,2,12.2,3.9,18.3,6c1,0.3,2.1,0.3,3.1-0.2
	c3.7-1.7,8.1-0.8,10.8,2.2l1.7,1.8c1.7,0.2,3.1,0.2,4.5,0.6c1.5,0.4,3.2,0.4,4.7-0.1c3.1-1.1,6.4-1.5,9.7-1.4c3.2,0.3,6,2,7.7,4.7
	c1.2,1.6,2.3,2.9,4.5,2.7c0.7,0,1.4,0.2,2.1,0.5c0.8,0.3,1.7,0.3,2.5,0c2.1-0.6,4.3-1,6.4,0.5c0.7,0.4,1.5,0.7,2.3,0.7
	c4.7,0.3,9.4,0.6,14.5,0.9c0.2-2.5,0.5-4.8,0.4-7.1c0-5.1,0-10.2-0.6-15.3c-0.7-8.2-2.1-16.3-4.2-24.2c-0.7-2.7-1.1-5.5-1.9-8.1
	c-2.2-6.8-4-13.7-7-20.2c-1.1-2.7-2.1-5.5-3-8.3c-2.5-7.5-5.2-15-7.5-22.6c-1.7-5.6-3.2-11.3-4.6-17c-0.9-3.6-1.3-7.4-1.9-11.1
	c-0.3-0.8,0.1-1.7,0.9-2c0.7-0.4,1.6-0.3,2.2,0.4c0.4,0.4,0.9,0.7,1.5,1c6.3,2.1,12.5,4.2,18.8,6.3c7.9,2.6,15.8,5.1,23.6,7.8
	c3,1,6,2.5,9,3.6c6,2.1,12.1,3.8,18,6c7.9,2.9,15.8,5.5,23.4,9.2c6.3,3.1,12.9,5.6,19.4,8.6c2.8,1.3,5.4,3,8.2,4.5
	c1.3,0.7,2.1,2,2.2,3.5c0.2,1.4,0.2,2.8,0.1,4.2c0,1.7,0.5,2.4,2.3,2.7c1,0.1,2,0.1,3,0.1c4.2,0.2,8.4,0.4,12.6,0.4
	c4.2,0,8.6-0.3,12.9-0.5c3.5-0.1,7-0.4,10.5-0.5c7.5-0.2,15-0.3,22.6-0.3c4.5,0,9,0.4,13.4,0.3c4.5,0,9.1-0.6,13.7-0.6
	c4.5,0,9.1,0.3,13.6,0.5c1.9,0.1,3.7,0.1,5.6,0.1c6.2,0,12.5,0,18.8,0c4.6,0,9.3,0.1,13.9,0.1c6.5,0,12.9,0,19.3,0
	c4.8-0.2,9.7-0.2,14.5,0.1c9.9,1.1,19.8,0.6,29.7,1.3c1.3,0.1,2.7-0.2,4-0.2c8.9,0.1,17.7,0.4,26.6,0.3c7.5-0.1,14.8-0.7,22.2-0.8
	c5.7-0.1,11.4,0.1,17.2,0.3c6.3,0.2,12.7,0.5,19.1,0.7c7,0.2,14.1,0.4,21.2,0.6c4.8,0.1,9.6,0.2,14.5,0.5c8.3,0.6,16.5,1.3,24.8,1.9
	c4.6,0.3,9.3,0.4,13.9,0.8c10.5,0.8,21.1,0.7,31.6,1.1c7.7,0.2,15.3,0.9,23,1.4c3.3,0.2,6.6,0.3,9.9,0.6c6,0.6,12,1.3,18.1,1.9
	c5,0.5,10.1,0.9,15.2,1.5c6,0.6,12.1,1.3,18.1,1.9c4.1,0.4,8.2,0.8,12.3,1.2c8.3,0.9,16.7,1.7,25,2.6c5.1,0.5,10.1,1,15.2,1.7
	c6.3,0.8,12.5,1.7,18.8,2.5c0.3,0,0.7,0,1.1,0c2.2,0.1,2.3,0.4,2.4,2.6c0.3,5.8-1,11.4-1.5,17c-0.5,6.1-2.1,12.1-1.8,18.4
	c0.2,4.2-0.7,8.5-1.3,12.8c-0.7,5.2-1.8,10.4-2,15.7c-0.2,4.7-1,9.4-1.4,14.1c-0.4,4.7-0.5,9.6-0.7,14.5c-0.3,5.1-0.5,10.2-0.9,15.2
	c-0.5,6.3-1.1,12.6-1.6,18.9c-0.2,2.4-0.3,4.8-0.5,7.2c-0.4,4.5-0.9,9-1.2,13.3c0,1.1,0.5,2.2,0.5,3.3c-0.1,0.9-0.4,1.8-0.8,2.7
	c-0.6,0-1.3,0.2-1.8,0c-2.6-1.4-5.3-1.1-8-1.3c-2.5-0.4-4.9-0.9-7.3-1.6c-6.4-1.2-12.7-2.6-19.3-2.4c-1.6-0.1-3.2-0.3-4.8-0.6
	c-3.6-0.5-7.2-1-10.7-1.5c-2.2-0.3-4.4-0.5-6.6-0.7c-4.3-0.4-8.5-0.8-12.8-1.2c-6.8-0.6-13.7-0.6-20.5-1.9c-2-0.3-4.1-0.4-6.2-0.2
	c-5.1-0.1-10.1-0.6-15.2-1.3c-3-0.3-6.1-0.2-9.1-0.3c-7.3-0.3-14.6-0.6-21.9-0.9c-3.2-0.1-6.4,0-9.7-0.2c-5-0.2-10-0.7-14.9-1.5
	c-3.9-0.6-7.8-0.8-11.7-1.1c-5.3-0.4-10.7-0.8-16-1c-2.9-0.1-5.7,0.4-8.6,0.3c-6.9-0.2-13.9-0.6-20.9-1c-1.8-0.1-3.6-0.1-5.4-0.2
	c-6.2-0.2-12.3-0.3-18.5-0.6c-3.9-0.2-7.8-0.6-11.7-0.9c-1.5-0.1-3-0.1-4.6-0.1c-4.7-0.2-9.5-0.4-14.2-0.6
	c-9.5-0.3-19.1-0.3-28.6-0.7c-7.5-0.3-14.9-0.1-22.5,0.1c-9.7,0.4-19.5,0.6-29.2,0.6c-16.5,0.1-33.1,0.1-49.6,0
	c-7.5,0-14.9-0.4-22.5-0.6c-6.7-0.3-13.4-0.7-20.1-0.9c-3.9-0.1-7.8,0.3-11.8,0.3c-4.5,0-9.1-0.3-13.6-0.3
	c-8.3,0.1-16.6,0.5-24.9,0.6c-8.8,0.1-17.6,0-26.4-0.2c-7.8-0.2-15.7-0.8-23.5-0.9c-4.2,0-8.3,0.6-12.5,0.8
	c-7.9,0.3-15.7,0.4-23.6,0.7c-5.4,0.2-10.9,0.8-16.3,1.1c-1.7,0-3.4-0.1-5-0.3c-0.8-7-0.3-13.9-0.4-20.8s0.6-13.8,0.8-21l-11.9,4.9
	c-0.5,0.2-1,0.5-1.5,0.7c-4.3,2.3-8.3,1.5-12.1-1.3c-2.2-1.6-4.5-3.2-6.9-4.9c-1.8,7.6-5.6,14.6-11,20.3c-2.4-0.7-2.5-0.8-3.7,1
	c-1.4,2.2-2.8,4.4-4,6.7c-1.6,3.1-3.1,6.3-4.6,9.4c-3.3,7.3-7.3,14.3-11.9,20.9c-0.2,0.3-0.4,0.6-0.6,0.9
	c-3.9,6.3-7.8,12.6-11.8,18.8c-2.4,3.9-5,7.8-7.8,11.4c-3,3.7-5.5,7.7-8.2,11.6c-3.3,4.8-7,9.5-10.5,14.2
	c-3.8,5.2-7.5,10.5-11.3,15.6c-4.5,6-9.2,11.6-13.6,17.5c-2.9,3.8-5.5,7.9-8.2,11.8c-1.2,1.7-2.3,3.6-3.7,5.8
	c3.7,0.1,7.2,1.6,9.7,4.3c2.4,2.1,5.5,3.9,6.1,8c3.3,0.9,6.7,1.6,10.1,1.9c4.3,0.5,8.7,1,13,1.5c2.7,0.3,5.5,0.4,8.3,0.8
	c6.4,0.9,12.8,1.7,19,3c4.2,0.9,8.2,2.7,11.6,5.3c2.1,1.6,3.7,3.7,4.6,6.2c1.2,3,0.6,5.2-2.2,7.3c-1.8,1.4-3.8,2.5-5.9,3.8
	c-1.4,7-6.3,10.2-12.9,11.6c-4.7,1-9.5,1.8-14.2,2.7c-6.3,1-12.6,1.5-18.9,1.5c-3,0.1-5.9,0.2-8.8,0.2c-5.3-0.2-10.6-1.2-15.6-3
	c-6.1-2.2-11.9-5-17.3-8.5c-3.5-2.2-7.3-4.1-10.2-7.2c-2.2-2.3-4.3-4.7-6.5-7.1c-1.5-1.7-3-3.5-4.5-5.2c-0.4-0.4-0.9-0.8-1.5-1
	c-3.5-1.6-6.4-4.3-8.3-7.7c-0.4-0.9-1.3-1.6-2.3-1.5c-1.2,0.1-1.5,1.1-1.8,2.1c-0.5,2-1,4-1.3,6c-1.2,5.3-3.2,10.5-6,15.1
	c-3.4,6.4-8.4,11.8-14.5,15.8c-3,2.1-6.5,3.4-10.2,3.7c-2.6,0.2-5.2-0.6-7.4-2c-0.7-0.7-1.4-1.5-1.9-2.4c-3.4,1.6-7.2,2.2-11,1.7
	c-2.9-0.2-5.8-0.9-8.6-1.9c-4.6-2.1-9.1-4.5-13.4-7.1c-1.7-1.3-3.3-2.9-4.6-4.6c-4.5-1.1-9.1-2-12.6-6.1c-3.2-3.8-2.2-9.4,0.3-12.3
	c2.2-2.8,4.7-5.3,7.5-7.6c4.3-3.3,8.4-6.8,12.7-10.1c3.1-2.4,6.5-4.5,9.7-6.6c1.4-0.8,2.4-2.1,3-3.6c1.3-3.1,3.2-5.9,5.6-8.1
	c5.2-5.5,10.9-10.3,18.2-12.9c1.8-0.6,3.7-1.1,5.8-1.7c1.1-6.2,2.1-12.7,3.4-19c1.9-9,4-17.9,6.4-26.9c2-7.8,4.6-15.4,6.8-23.1
	c3-10.8,7.1-21.3,10.9-31.9c0.5-1.5,1.3-2.8,1.9-4.2c1.3-3.2,2.6-6.5,3.9-9.7c1-2.6,2.1-5.1,3.2-7.6c0.3-0.7,0.6-1.5,0.9-2.2
	c0.4-1.8,0.3-2-1.5-2.8c-2.4-0.8-4.2-2.8-4.9-5.2c-0.2-0.6-0.5-1.2-0.8-1.7c-2.1-2.9-2.8-6.7-1.7-10.2c0-0.3,0-0.6,0-0.9
	c-1.6-0.1-3.2-0.4-4.7-0.7c-2.6-0.6-4.2-3.1-3.7-5.7c0.2-0.9,0.7-1.8,1.4-2.5c1.6-1.5,2.3-3.6,2-5.8c-0.8-5.1,1.5-9.4,4.2-13.4
	c3.2-4.6,7.8-7.5,12.7-9.9c1.9-0.9,3.7-1.7,5.6-2.5c0.7-0.3,1-0.6,0.7-1.4c1.5,1.1,2.7,0.7,2.9-1c0.4-2.4,1.1-4.6,2.3-6.8
	c0.2-0.4,0.4-0.9,0.5-1.4l-5.2-2.9c-0.1-1.4-1.2-2.6-2.6-2.7c-1.5-0.4-3-1-4.5-1.7c-0.7-0.3-1.5-0.4-2.1-0.6c-1,1.3-1.9,2.3-2.7,3.3
	c-1.3,1.5-1.2,3.7,0.3,5.1c0.2,0.2,0.5,0.4,0.8,0.5c2,1.2,3.8,0.4,5.7,0c1.4-0.3,1.4-1.7,1.8-2.7c0.2-0.3,0.3-0.6,0.6-0.8
	c1-0.1,1.8-0.2,2.7-0.3c-1,2.8-2.5,5.3-4.5,7.5c0.4,1.7,1,3,3.2,3.2c0.7,0,1.3,0.7,1.9,1l-0.2,0.4L117.9,427.3z M185.9,120.8
	c0.2,2.8,0.3,5.7,0.6,8.5c0.4,2.8,1,3.3,3.8,3.2c4.2-0.1,8.4,1.1,11.9,3.3l1.8-1.6c-1-1.5-1-2,0-4.1c3.1-5.7,5.3-11.9,6.3-18.4
	c0.7-5.8,1.8-11.4,1-17.3c-0.7-5.2-1.2-10.5-2.3-15.6s-2-10.7-2.7-16.1c-0.5-3.3-0.6-6.6-0.3-9.9c0.3-4.3,1.2-8.6,1.8-13l0.5-3.2
	c0.8-4.8,1.8-9.7,2.4-14.5c0.2-2.2,0-4.5-0.3-6.7c-0.1-1.6-1.1-2.9-2.6-3.4c-1-0.6-1.9-1.3-2.7-2.1c-0.9,0.5-1.8,1.2-2.5,2
	c-1.5,1.9-2.7,4-3.6,6.2c-2.6,8.1-4,16.5-4.3,24.9c-0.3,6,0.3,12,1.8,17.8c0.3,1.2,0.4,2.5,0.7,3.7c-6.3-8.8-5.6-18.8-4.8-28.8
	c-1.5-0.5-3.1,0.1-3.8,1.5c-2.2,2.6-3.6,5.8-4.1,9.2c-0.4,3.7-0.6,7.4-0.5,11.2c0.1,4-0.2,8,1.5,11.8c0.1,0.3,0.1,0.5,0,0.8
	c0,3.4,1.9,6.2,2.7,9.4c0.7-0.9,1.2-1.9,1.8-2.7c0.3-0.7,1.1-1,1.8-0.7c0.1,0,0.2,0.1,0.3,0.2c0.8,0.6,0.5,1.2,0,1.9
	c-1.5,2.3-2.5,4.9-2.9,7.7c-1.3,6.1-0.6,12.5,2,18.2c0.3,0.7,1,1.5,0.2,2.8l-3.4-5c-0.4,2.3-0.8,4-0.9,5.7c-0.1,1.8-0.1,3.6,0,5.4
	c0,1.8,0.1,3.6,0.4,5.3c0.4,1.6,1,3.2,1.6,4.7l-0.6,0.3L185.9,120.8c0-0.2,0.1-0.5,0-0.7c-2.1-5.3-1.1-10.7-0.7-16.1
	c0.1-1.6,0.5-2.8,2.2-2.8c0.1-0.3,0.1-0.4,0.1-0.4c-1.8-5.3-1.9-11.1-0.3-16.5c0.2-1.1,0.1-2.3-0.4-3.3c-1.3-3-3.2-5.7-3.8-9.1
	c-0.1-0.5-0.6-1-0.9-1.4c-3.5,0.5-4.2,0.8-4.4,4c-0.2,2.8,0,5.7,0.5,8.4c1,4.3,2.3,8.6,3.7,12.9c1.2,3.1,1.9,6.5,1.9,9.8
	c-2.7-3.6-2.6-7.8-4.7-11.1c-1.8-0.2-2.7,0.6-3.3,2.3c-1.8,4.6-1.8,9.7,0,14.3c1.1,2.9,2.3,5.8,3.4,8.7c0.3,0.7,0.4,1.4,0.6,2.2
	c-0.8-0.1-1.2-0.2-1.9-0.3c0.4,4.2,1,8.3,3.4,11.9c1.5-0.3,3-0.6,4.1-0.9c-0.7-2.5-1.5-4.8-2-7.1
	C182.8,123.6,183.9,121.5,185.9,120.8z M228.6,519.2l6-12.6c0.3-0.6,0.5-1.2,1-2.4c-1.4,0.6-2.2,0.8-3,1.2c-2.1,1.1-4.2,2.3-6.4,3.3
	c-1.4,0.6-2.8,1.7-4.8,1.1c0.8-0.6,1.4-1.1,2-1.5c4.1-2.6,8.1-5.1,12.2-7.7c2.6,0,3.2-2.1,4.2-3.9l1.9-3.5c-3.7-0.7-7.1-1.6-10.6-2
	c-3.4-0.3-6.8-1-10.1-2.2c-3.1-1.3-6.4-2-9.6-3c-1.2-0.4-1.6,0.2-2.1,1.1c-1.5,2.8-3,5.7-4.7,8.4c-2,3.2-4.4,6.1-7.2,8.5
	c-0.7,0.5-1.4,0.9-2.1,1.2c4.1-6.8,9-12.9,11.9-20.5c-17.4-6.5-34.7-12.8-51.9-19.2c-2.3,3.1-4.4,6.1-6.7,8.9c-3.3,4-7.9,6.2-12.2,9
	c-0.3,0.2-0.7,0.3-1,0.3c-1.3-0.1-1.9,0.7-2.3,1.8c-0.9,2-2.1,2.6-4,1.6c-1.2-0.7-2.6-0.6-3.7,0.2c-4.2,2.8-8.8,3-13.7,2.5
	c-0.3,0.9-0.6,1.8-1.1,2.7c-1.7,3.1-2.9,6.3-3.7,9.7c-0.2,1.3-0.7,2.6-1.3,3.8c-3.6,6.2-5.6,13.1-8.1,19.8
	c-3.2,8.7-5.8,17.7-8.4,26.5c-2.3,7.6-4.4,15.2-6.4,22.9c-1.8,6.9-3.3,13.8-4.9,20.8c-0.7,3.3-1.1,6.7-1.7,10c-1,5.3-2,10.7-3,16
	c-0.2,1.3-0.1,2.6-1.8,3.3c0.4,0.2,0.8,0.4,1.3,0.6c2,0.5,4,0.9,6,1.4c3.7,0.8,7.5,1.7,11.3,2.4c1.4,0.2,2.9,0.2,4.3,0
	c0.5,0,1.3-1.1,1.2-1.3c-1.1-2.6,0.3-4.5,1.5-6.5c2.3-3.8,4.6-7.6,7-11.4c2.4-3.8,4.7-7.6,7.3-11.3c4-5.5,8.1-10.9,12.2-16.3
	c5.1-6.5,10.4-13,15.7-19.3c2.8-3.3,6-6.2,8.8-9.4c3.3-3.8,6.4-7.9,9.6-11.8c0.7-0.8,1.2-1.8,1.8-2.6c4-4.8,8.1-9.5,11.9-14.5
	c2.1-2.9,4-6,5.7-9.1c-2.2-1.4-4.2-2.9-6.4-4.1c-1.4-0.6-2.8-1.1-4.2-1.5c0.7,1.2,1.1,2.1,1.7,3c0.8,1.4,0.8,3.2,0,4.6
	c-0.2,0.6-0.8,0.9-1.3,0.8c-0.1,0-0.2-0.1-0.4-0.2c-0.4-3.8-0.7-4.6-2.9-6.3c-1-0.8-2.4-1.1-3.2-1.9c-0.7-1-1.2-2.1-1.5-3.2
	c0-0.2,0-0.3,0-0.5c1-1.1,2.1-0.7,3.2-0.3c4.8,1.4,9.4,3.3,13.8,5.7c1.2,0.5,2.2,1.2,3,2.2c0.7,1.3,1.6,1.2,2.6,1
	c4.2-0.8,8.4-1.6,12.6-2.4c1.4-0.3,2.8-0.4,4.2-0.6c1.4-0.2,2.8-0.4,4.2-0.6c-4.9,3.8-10.7,4.3-16.6,5.5c2.2,1,4.3,2.1,6.3,3.4
	c1.8,1.4,4.1,2.6,4.1,5.7c-0.5-0.2-0.9-0.4-1.3-0.6c-2.7-2.2-5.7-4-9-5.2c-1.6-0.7-3.3-1.3-5-1.9c-1.1-0.5-2.5-0.1-3,1
	c0,0.1-0.1,0.1-0.1,0.2c-1.6,2.6-3.2,5.4-5,7.9c-2.5,3.4-5.2,6.6-7.8,9.9c-1.6,2-3.3,4-4.9,6c-3.3,4.1-6.6,8.2-10,12.2
	c-3.4,4-6.9,7.5-10.1,11.4c-2,2.3-3,5.3-3,8.4c-0.1,2.1-0.3,4.3-0.6,6.4c-0.6,4.5-1,9.1-1.9,13.4c-1.6,8.1-3.5,16.2-5.5,24.2
	c-2,8.1-4.4,16-6.7,23.9c-0.3,1.1-0.8,2.4-2.6,2.3l-0.2-3c-0.8,0.7-1.5,1.4-2.2,2.2c-1.2,1.8-0.6,3,1.5,3.3c1,0.2,1.9,0.2,2.9,0.2
	c3.7-0.2,7.3-0.5,11-0.9c2.8-0.3,5.7,0.2,7.7-0.9c2.2-3.5,4-6.4,5.8-9.4c4.5-7.5,9.5-14.7,14.9-21.5c6.5-8.4,12.8-17,19.2-25.4
	c2.5-3.4,4.9-6.8,7.5-10.2c1.9-2.6,3.9-5.1,5.8-7.7c1-1.4,1.8-2.9,2.8-4.3c3.8-5.5,7.8-10.9,11.5-16.4c4.3-6.5,8.4-13.1,12.5-19.7
	C223.2,528.1,225.9,523.6,228.6,519.2c0.8,0.2,1.5,0.1,1.6-1L228.6,519.2z M298.9,457.5c-2.5-0.2-4.2-1.9-5.8-3.6
	c-2-2.2-4-4.5-6-6.7c-0.3,0.1-0.5,0.2-0.8,0.4c-2.9,2.4-5.7,4.8-8.5,7.3c-0.6,0.5-1.5,1.5-2,0.7c-1-1.5-1.9-0.4-2.7-0.2
	c-1.2,0.6-2.6,0.7-3.9,0.2c-2.3-0.9-3.9-2.9-4.4-5.3c-0.5-2.7-0.6-2.7,1.6-4.3c0.3-0.2,0.5-0.5,0.8-0.7l7.1-7.3c1.5-1.5,3-3,4.6-4.6
	c-4.3-1.7-7.3-5.6-7.7-10.2c-3.7,1.6-7.1,3.2-10.2,4.5c0,2,0.1,3.6,0,5.2c-0.5,5.6-1.1,11.2-1.5,16.8c-0.1,1.3,0.2,2.6,1,3.7
	c2.7,3.7,6,6.9,9.7,9.5c1.6,1,3.1,2.1,4.5,3.3c0.9,0.8,2,1.2,3.2,1.3c1.3,0.3,2.6,0.1,3.7-0.7c4.6-3.1,9.6-5.8,14.8-7.9
	C297.3,458.4,298.1,457.9,298.9,457.5l2.4,0.4c0.2,1.4-0.3,2.7-1.2,3.7c-2.9,3.7-3.8,8.2-5.6,12.4c-0.1,0.4-0.1,0.7,0,1.1
	c-0.1,4.4-0.3,8.8-0.4,13.1c-0.1,6.9-0.1,13.8-0.2,20.7c0,1.6-0.2,3.3-0.3,5.1c1.3,0.3,2.6,0.5,4,0.5c3.4-0.5,6.9-0.4,10.3-0.7
	c5.3-0.3,10.5-0.2,15.8-0.4c6.3-0.3,12.7-0.9,19-1c6.6-0.1,13.2,0.3,19.8,0.4c3.5,0.1,6.9,0.1,10.5,0.2c4.7,0.1,9.4,0.3,14.1,0.3
	c7.2,0,14.5-0.2,21.7-0.3c8.5-0.1,17-0.3,25.5-0.4c3.5,0,7,0.2,10.5,0.2c4.2,0,8.4-0.3,12.6-0.1c8.1,0.3,16.1,1,24.2,1.3
	c8.8,0.3,17.7,0.2,26.5,0.2c6.8,0,13.6,0,20.4,0c2.9,0,5.7,0.4,8.6,0.3c5.9-0.2,11.8-0.6,17.6-0.8c9.5-0.3,18.9-0.7,28.4-0.7
	c13,0.1,26.1,0.6,39.1,1c6,0.2,11.9,0.5,17.9,0.7c10.4,0.4,20.7,0.9,31.1,1.4l7.2,0.3c6.2,0.3,12.5,0.7,18.7,0.7c5,0,10-0.6,14.9,0
	c2.2,0.3,4.5,0.4,6.7,0.6c3.7,0.3,7.4,0.2,10.9,0.9c7.3,1.1,14.7,1.7,22.1,1.8c10.1,0.4,20.2,0.2,30.2,1.1
	c7.2,0.6,14.5,0.8,21.7,1.3c7.2,0.5,14.1,1.2,21.1,1.7c4.3,0.3,8.6,0.4,12.8,0.8c3,0.2,5.8,0.8,8.8,1.2c4.1,0.5,8.1,0.9,12.2,1.4
	c1.5,0.2,3,0.4,4.5,0.6c5,0.5,10.1,0.8,15.2,1.5c5,0.7,9.8,1.8,14.7,2.7c1.4,0.2,2.8,0.3,4.3,0.4c0.4-4.1,0.9-7.8,1.2-11.5
	c0.4-4.5,0.8-9.1,1.1-13.6c0.7-8.7,1.4-17.5,1.9-26.2c0.5-7.3,0.8-14.6,1.2-22c0.3-4.4,0.7-8.7,1.1-13.1c0.2-2.6,0.5-5.2,0.8-7.7
	c1-7.6,2.6-15.1,2.6-22.8c0.3-6.3,0.9-12.5,2-18.7c0.6-4.3,2-8.4,0.6-13c-0.9-0.1-1.8-0.4-2.8-0.5c-4.1-0.5-8.1-1-12.2-1.5
	c-6.4-0.7-12.9-1.5-19.3-2.3c-2.8-0.3-5.7-0.7-8.5-1c-3.5-0.3-6.9-0.5-10.5-0.8c-2.3-0.2-4.6-0.4-6.9-0.7c-3.9-0.4-7.8-1-11.7-1.4
	c-3-0.3-6-0.5-9.1-0.8c-4.9-0.4-9.8-1-14.7-1.5c-2.5-0.2-5-0.4-7.5-0.7c-6.4-0.7-12.7-1.7-19.1-2.2c-7.3-0.6-14.6-1-21.9-1.4
	c-6.9-0.4-13.9-0.7-20.8-0.9c-7-0.3-13.5-0.3-20.3-0.6c-5.1-0.2-10.1-0.8-15.2-1.2c-5.5-0.4-11-0.7-16.5-1c-9-0.5-17.8-1-26.7-1.5
	c-6-0.3-12.1-0.3-18.1-0.6c-4.2-0.1-8.4-0.4-12.6-0.6c-4.2-0.1-8.1-0.1-12.1-0.1c-1.7,0-3.4-0.3-5.1-0.3c-1.7,0-3.2,0.3-4.8,0.3
	c-6,0.1-11.9,0.2-17.9,0.3c-2.8,0-5.7,0.3-8.5,0.3c-7.2-0.1-14.5-0.4-21.7-0.5c-5.3-0.1-10.5,0-15.8,0c-3.9,0-7.7,0.2-11.5-0.2
	c-5.8-0.6-11.6-1-17.4-1c-8.8,0-17.5,0.1-26.3,0.1c-7.9,0-15.9-0.3-23.9-0.4c-2,0-3.9,0.3-5.9,0.3c-4.3,0-8.6-0.4-12.8-0.4
	c-5.1-0.2-10.2-0.2-15.3,0.2c-5.7,0.4-11.4,0.5-17.1,0.1c-2.8-0.1-5.5-0.2-8.3-0.2c-3.5,0-6.9,0.4-10.5,0.4
	c-7.3,0-14.6,0.3-21.9,0.9c-3.9,0.3-7.9-0.2-11.8-0.2c-4.7,0-9.3,0-14,0c-1.9,4.4-5.3,8.1-9.6,10.3c-2.5,1.3-5.1,2.5-7.8,3.5
	c-5,1.9-10.1,3.4-15.4,4.5c-2.5,0.4-5,1.2-7.5,1.7c0.4,2.2,1,4.2,1.2,6.2c0.9,7-2.3,13-4.7,19.1c-0.7,1.4-1.6,2.8-2.6,4
	c2.9,1.4,5,4,5.8,7.1c1,3.2,0.9,6.6-0.1,9.7c-0.6,1.2-1.2,2.4-2,3.5c-1.6,3.1-4.9,4.9-8.4,4.5c-0.8-0.1-1.6,0.1-2.2,0.4
	c-2.9,2-5.6,4-8.4,6.1c-0.5,0.3-1.1,0.7-1.7,1c0.8,1.1,1.2,1.7,1.6,2.2c2.4,2.7,4.9,5.5,7.3,8.2
	C299.3,455.6,299.9,456.4,298.9,457.5z M115.6,446.9l2.4,1.3c0.6,0.3,0.9,1,0.7,1.6c0,0.1-0.1,0.1-0.1,0.2c-0.4,0.8-1,0.9-1.8,0.6
	c-1.3-0.6-2.6-1.2-3.9-1.8c-2-1-4.2-1.6-6.4-1.5c-3,0.3-4.5,2.4-2.9,5c2.4,4,5.1,7.8,10,9c2.3,0.6,4.5,1,6.8,1.7
	c2.4,0.7,4.9,0.1,6.7-1.7c3.2-2.5,6-5.3,8.6-8.3c3.1-3.8,6.4-7.5,9.4-11.3c1.9-2.4,3.6-5.1,5.5-7.6c1.1-1.4,2.6-2.5,1.7-4.6
	c0-0.2,0.1-0.5,0.2-0.7c0.7-1.9,1.3-3.9,2.2-5.7c3.2-6.5,1.6-12.4-2.3-17.9c-1.9-2.8-4.1-5.4-6.5-7.8c-4.5-4.2-9.2-8.2-13.8-12.2
	c-4.7-4-9.1-7.8-13.7-11.5c-5.9-4.7-11.9-9.1-17.9-13.7c-1.7-1.3-1.7-1.7-0.1-3.8l12.3,8.4c2-1.4,3.7-2.8,5.6-3.9
	c5.1-3,10-6.3,15.5-8.4c7.1-2.7,13.9-5.9,20.9-8.9c2-0.9,4.1-1.8,6.1-2.8c0.8-0.5,1.7-0.9,2.6-1.3c2.9-1,5.4-2.9,7.1-5.4
	c2.5-3.3,4.5-7,6.7-10.6c2.7-4.3,1.2-8.5-0.7-12.4c-1.7-3-4.3-5.4-7.3-6.9c-0.7-0.3-1.5-0.3-2.2,0c-6.7,2.5-13.3,5.1-20,7.6
	c-6.4,2.4-12.8,4.8-19.2,7.4c-4,1.6-8,3.4-11.9,5.2c-2.1,0.9-4.3,1.7-6.3,2.9c-7,3.9-14.1,7.3-21.3,10.5c-4.7,2.1-9.5,4.2-14.1,6.5
	c-4,2-7.8,4.3-11.6,6.7c-2.7,1.7-2.8,4-0.4,6.1c0.7,0.5,1.1,1.4,1.1,2.2c0.1,3.2,0.9,6.4,2.2,9.3c2.1,4,4.4,7.9,6.7,11.8
	c3.1,5.3,7.3,10,12.3,13.6c2,1.4,3.7,3,5.8,4.3c2,1.1,4.1,2.2,6.2,3.1c2.2,1.1,4.5,2.3,6.8,3.2c5.3,2.1,10.6,4.3,16,6
	c3.9,1.4,7.9,2.4,11.9,3c0.7,0,1.3,0.7,2.3,1.3c-1,0.8-1.5,1.5-2.2,1.6c-3.8,1-5.6,3.9-6.8,7.3c-1.5,4.3-1.8,8.9-1.1,13.4
	c0.5,3.9,0.5,7.8,0.6,11.7c0.2,1.3-0.7,2.4-2,2.6c0,0,0,0,0,0l-1.2-8L115.6,446.9z M151,231.3c-0.8-0.3-1.5-0.7-2.2-1.1
	c-1.3-1-2.5-2.3-3.9-3.2c-2.9-2-6.5-2.7-9.9-1.9c-0.9,0.4-2,0.1-2.5-0.8c-1.5-2.3-3.8-3.8-6.5-4.3c-4.9-0.9-9.9,0.3-13.9,3.4
	c-2.7,1.9-4.7,4.8-7,7.3c-0.3,0.4-0.5,0.8-0.6,1.2c-1.4,2.8-1.9,6-1.5,9.1c0.4,2.3,0.7,4.6,0.9,6.9c0.3,2.3,1.6,4.4,3.7,5.6
	c2.3,1.5,5,2.4,7.8,2.5c4.5,0.4,8.5-0.2,11.8-3.6c1.6-1.3,2.9-2.8,3.9-4.6c0.3-0.7,1.1-1.5,1.9-0.9c0.4,0.3,0.4,1.2,0.6,1.9
	c0,0.3,0,0.5-0.1,0.8c-0.9,3.7-0.9,7.5,0.1,11.1c1.5,7.1,8.4,11.7,15.5,10.4c0.8-7.2,2.7-14.3,5.5-21c2.7-7,8-12.1,12.7-17.7
	l-6.2-2.5c-0.3,0.5-0.4,0.6-0.4,0.8c0,1.1-0.5,1.7-1.6,1.6c-0.9,0-1.7-0.7-1.7-1.6c0-0.1,0-0.3,0-0.4c0.1-1.2,0.4-2.4,1-3.5
	c1.2-2.1,3.4-3.3,5.8-3.3c0.5,0,1.4,0.4,1.5,0.8c0,0.6-0.1,1.3-0.5,1.8c-0.3,0.4-0.8,0.6-1.4,1c0.4,0.3,0.7,0.5,1,0.7
	c2.6,1.2,5.5,1.5,8.4,1.1c3.8-0.3,8.3-4.1,9-7.7c0.3-1.6-0.4-3.3-1.9-4.1c-1.8-1.2-3.9-1.8-6.1-1.6c-1.1,0.3-2.3-0.3-2.6-1.4
	c0-0.2-0.1-0.3-0.1-0.5c1.2-0.6,2.5-1.1,3.9-1.8c-0.2-0.5-0.5-0.9-0.7-1.5c-0.9-1.7-1.7-3.5-2.2-5.4c-0.6-3.1-1.1-6.3-1.3-9.5
	c-0.2-3.9,0.2-7.8,1.3-11.5c0.8-3.5,3.7-6.1,7.3-6.5c1.2-0.3,2.5,0,3.5,0.9c2.6,2.3,4.3,5.5,4.7,9c0.7,5.6,0.3,11.3-1.1,16.7
	c-0.4,2.8-1.6,5.4-3.5,7.5c-0.7,0.7-1.5,1.3-2.5,2.1c0.6,0.3,1.1,0.5,1.6,0.9c2.1,1.3,3.3,3.6,3.3,6.1c0.2,2.5-0.8,4.9-2.8,6.5
	c-3.5,2.5-3.6,5.7-3.2,9.4c0.3,5,3.3,9.5,7.9,11.6c3.7,1.8,7.8,2.7,11.9,2.5c4.6-0.2,9.3-0.2,13.9-0.7c3.2-0.4,6.3-1.1,9.3-2.2
	c3.2-1.2,6.3-2.6,9.3-4.1c1.7-0.7,3.4-1.6,4.8-2.8c4.5-4.2,9.2-8.4,12.4-13.9c1.9-3.3,2.5-7.1,1.9-10.8c-0.5-4.7-2.4-8.7-6.9-10.8
	c-2.2-1-4.5-1.8-6.8-2.2c-3.3-0.9-6.7-1.3-10.1-1.2c-4,0.4-8.2,0.2-11.8,2.8c-0.3,0.2-0.7,0-1,0.1c-3.1,0.9-6.6,1-9.2,3.3
	c-0.3,0.3-0.8,0.4-1.2,0.3c-1.6-0.8-2.9,0.1-4.2,0.8c-0.6,0.2-1.2,0.4-1.8,0.5c0.1-2.7,3-2.4,3.8-4.3c-0.1-0.6-0.2-1.5-0.3-2.3
	c-1.1-5.3-1.6-10.6-1.5-16c0.2-1.3,0.2-2.7,0-4c-0.6-2.4,0.4-4.5,1-6.5c0.5-1.7,2-2.9,3.7-3.1c1.8-0.2,3.4,0.8,4,2.5
	c0.5,1.1,1.4,2.1,1.9,3.2c3.1,5.8,4.9,12.1,5.2,18.7c0.1,0.9,0.2,1.7,0.4,2.6c1.3-0.3,2.4-0.5,3.5-0.7c0.1-0.4,0.2-0.6,0.2-0.9
	c-0.6-4-1.2-7.9-1.8-11.9c-0.2-1.7-0.4-3.4-0.7-5c-0.6-3.9-1.3-7.8-1.8-11.8c-0.1-2.4-1.7-4.4-4.1-5c-1.9-0.5-3.8-1-5.7-1.3
	c-5.5-0.9-7.9-3.9-7.2-9.5c1.6-1.1,3.1-0.3,4.5,0.5c2.8,1.7,6.2,2.4,9.5,1.9c-0.3-1.5-1.3-2.7-2.7-3.3c-2.1-1.1-4.4-2-6.5-3
	c-1.3-0.6-2.1,0.1-2.9,0.8c-1.1,1-2,2-3,3s-1.6,1-3.1-0.4l2.5-3.6l-0.3-0.5c-1,0.3-1.9,0.6-2.9,0.8c-0.7,0.1-1.8,0.5-2.2,0.2
	c-0.8-0.7-1.8-0.9-2.7-0.5c-5.9,0.7-11.8,2-17.5,3.8c-2.3,0.8-4.4,1.8-6.4,3.2c-3,2-5.8,4.2-8.4,6.6c-1.9,1.6-3.5,3.6-4.7,5.8
	c-1.7,3.7-3.7,7.3-4.5,11.4c-0.4,1.4,0.1,2.9,1.2,3.7c0.9,0.7,1.7,1.5,2.4,2.5c3.2,5,6,10.1,5.9,16.3c-1.6,1.6-3-0.4-4.9-0.5
	c2,2.7,3,6.1,2.9,9.4c0,1.1,0.1,2.3,0.2,3.4c0.1,1.6,0.1,1.6-1.9,1.9c-1-1.1-1.3-3-3.1-3.1c0.6,2.7,1,5.5,1.3,8.2
	C151.5,225.5,151.3,228.4,151,231.3z M307.1,384.3l-0.3-0.6c0.5-0.6,0.9-1.5,1.5-1.8c2.3-1.2,4.7-2.2,7.1-3c3.8-1.2,7.8-2,11.6-3.3
	c5.7-1.9,11.7-3.3,16.8-6.8c4.6-2.9,7.4-8.1,7.1-13.6c0-1.6-0.8-3-2.2-3.7c-3.1-2-6.5-3.7-10-4.9c-0.9-0.3-1.8-0.7-2.7-1.1
	c-1.6-0.8-3.1-1.8-4.7-2.5c-7.2-3.1-14.4-6.2-21.8-9c-6.2-2.4-12.4-4.4-18.7-6.6c-2.3-0.8-4.7-1.5-7.1-2.4c-5.3-2-10.6-4.2-16-6.1
	c-7.1-2.5-14.2-4.7-21.3-7c-4.3-1.5-8.6-3-12.9-4.5c-0.9-0.2-1.8-0.4-2.7-0.5c0.4,10,3.9,18.8,6.5,27.5c5.1,1.8,10,3.3,14.7,5.1
	c10.7,4.1,21.3,8.2,31.9,12.5c3.8,1.5,8,2.5,11,5.8c3.3-3.2,6.5-6.2,9.6-9.2c0.7-0.9,2-1.1,2.9-0.4c0.2,0.1,0.4,0.3,0.5,0.5
	c-0.6,1.3-1.4,2.6-2.3,3.7c-3.2,2.8-6.5,5.5-9.5,8.7c-3.3,3.3-6.5,6.8-9.4,10.5c-2.6,3.2-4.4,7-5.4,10.9c-1,4-1.7,8-2,12.1
	c-0.3,6.4-0.7,12.8,0.7,19.2c0.1,1.1,0.3,2.3,0.6,3.4c0.8,2.3,1.7,4.5,2.7,6.7c0.7,1.5,1.5,3,2.2,4.4c4-1.1,4.5-1.7,3.5-5.3
	c-0.3-1-0.6-2.1-0.8-3.1c-0.2-1.1-0.4-2.4-0.6-3.6c0.3-0.1,0.5-0.2,0.8-0.2c0.2,0,0.3,0,0.5,0.2c1.6,2,3.1,4,3,6.8
	c0,0.8,0.2,1.4,1.3,1.3c0.1-0.6,0.2-1.2,0.2-1.8c-0.3-2.9,1.1-4.9,3.1-6.7c1.7-1.5,3.8-2.5,6-2.8c1.1-0.2,2.1-0.9,2.7-1.9
	c1.8-3,3.2-6.2,4.2-9.5c1.5-4.7,1.8-9.7,0.9-14.5C309.8,385.3,309.2,384,307.1,384.3z M144,148c-0.7,5.1-2.4,10.1-4.9,14.7
	c-0.2-2.1-0.1-4.2,0.2-6.2c0.6-3.5,1.5-7,2.3-10.5c1.2-6.1,1.7-12.4,1.5-18.6c0-5-0.7-10-2.1-14.8c-1.3-4.4-3-8.6-5-12.7
	c-3-6-6.7-11.5-9.8-17.4c-1.6-3-2.7-6.2-3.4-9.5c-0.6-3.8-1-7.6-1.1-11.4c-0.3-2.7-0.3-5.5-0.1-8.3c0.8-7,1-14.1,0.6-21.2
	c-0.2-1.7-0.8-3.3-1.8-4.7c-0.9-1.5-2.2-1.2-3.2,0.4c-1.4,2.5-2.3,5.2-2.7,8c-0.7,5.1-1.9,10.1-1.8,15.3c0.1,3.7,0.1,7.3,0,11
	c-0.1,6.7,0.6,13.4,2.3,19.8c0.6,1.8,0.6,3.7,0.2,5.5c-1.4-0.5-2.3-1.8-2.4-3.3c-0.5-2.6-0.7-5.1-1.4-7.6c-1-4.4-1.4-9-1.1-13.5
	c0-2.4-0.2-4.8-0.6-7.2c-2.3-0.5-4.6,0.7-5.5,2.8c-1.2,2.7-2.2,5.5-2.8,8.4c-1.1,5-0.2,10,0.7,14.8c1,5.2,2.8,10.3,4.3,15.4
	c0.4,1.5,1.1,3,1.6,4.3c-0.9,0.9-1.6,0.6-2-0.3c-0.9-2.1-1.8-4.3-2.6-6.4c-0.8-2.2-1.6-4.8-2.4-7.3c-2.5,1.3-3.9,4-3.6,6.8
	c0.3,5.8,2.7,10.9,5.4,15.8c1.5,2.8,3.2,5.5,4.8,8.2c-0.7,0.9-1.3,0.7-1.9,0c-1.5-1.9-3-3.8-4.3-5.7c-0.5-0.8-0.9-1.6-2-1.3
	c-1,0.2-1.8,1-2,2c-0.9,2.9-0.7,6,0.3,8.9c2.1,6,5.6,11.1,9,16.4c0.7,0.8,1.4,1.6,2.1,2.4c1.5,1.8,3.5,3.2,4.5,5.5
	c-2.4,1-2.9-3-5.3-1.7c-0.8,2.1-0.9,4.3-0.5,6.5c1.8,6.4,6,11.9,11.6,15.5c3.5,2.2,7.3,3.7,11.6,2.7c0.9-5.9,3.1-8.7,6.6-8.2
	l-2.3,3.1c1.3-0.4,2.7-0.7,4-0.8c0.9,0,1.7-0.4,2.2-1.2l6.1-9L144,148z M61.7,694c0.2,0.3,0.2,0.5,0.4,0.6c3,2.3,6.2,2.1,9.4,1.1
	c3.8-1.4,7.2-3.6,9.9-6.6c4.1-3.8,7.3-8.4,9.5-13.5c2.4-5.9,4.4-12,6-18.2c0.4-1.5-0.1-3-1.3-4c-3.9-3.9-9-5.8-13.3-7.9
	c-1.4,0.7-2.4,1.2-3.4,1.6c-1.2,0.3-2.4,0.7-3.6,1.2c-3.3,1.8-6.6,3.8-9.9,5.7c-0.6,0.2-1.3,0.3-1.9,0.2c4.1-4.4,9.2-7.8,14.8-10
	c-0.9-0.5-1.9-0.7-2.9-0.6c-1.4,0.2-2.8,0.6-4.1,1.2c-4.4,2-8.6,4.2-13,6.3c-0.4,0.2-0.9,0.3-1.3,0.4c0-0.4,0.2-0.8,0.5-1
	c3.6-3.3,8-5.4,12.2-7.6c0.6-0.4,1.2-0.9,1.7-1.4c-4.2-0.6-7.8-1.3-11.4-1.6c-3.9-0.3-7.9,0-11.8-0.1c-2.6-0.1-5-0.1-6.7,2.3
	c-0.2,0.3-0.5,0.5-0.8,0.7c-6,3.8-11.8,8-17.4,12.4c-4.2,3.3-8.1,7-11.6,11c-3.2,3.9-2.3,10,2.1,11.8c3.2,1.3,6.4,2.8,10,2.8
	c1,0.1,2,0.2,3,0.5l0.4,0.6l-2,0.9c0.4,0.6,0.4,0.8,0.5,0.9c5,4.1,10.7,7.2,16.9,9.1c4.8,1.4,9.8,1.3,14.5-0.1
	c1.9-0.5,3.8-0.9,5.8-1.1c0.6,0,1.2,0.1,1.8,0.3c-0.4,0.5-1,1-1.6,1.2C62.6,693.2,62.1,693.6,61.7,694z M221.7,679.9
	c0.3-0.1,0.5-0.2,0.8-0.3c1.1-0.9,2.2-1.8,3.3-2.8c1.7-1.2,2.2-3.6,1-5.3c0,0-0.1-0.1-0.1-0.1c-1.5-2.6-3.8-4.6-6.6-5.6
	c-3.3-1.2-6.6-2.2-9.9-3c-2.3-0.5-4.7-0.9-7.1-1.2c-6.7-0.8-13.4-1.5-20.2-2.4c-5.8-0.7-11.5-1.3-17.2-2.3c-2.9-0.5-6-1.2-8-3.7
	c-5.5,1-8.6,2.3-11.4,4.6c5.1,2.9,9.8,6.5,16.1,7.2c-2.3,1.8-3.6,2.1-5.2,1.5c-4.5-1.6-8.7-3.9-12.4-6.8c-0.8-0.8-2-0.8-2.9-0.2
	c-3.4,1.8-6.8,3.5-10.3,5.1c-3.5,1.6-6.6,3.2-10.5,2.8c-1,0.1-2,0.3-3,0.7c1.6,1.5,3.2,2.8,4.5,4.3c4.7,5.2,10.2,9.5,16.2,13
	c4.6,2.7,9.4,5.1,14.4,7c6.4,2.4,13.3,3.5,20.1,3.2c4.1,0,8.2-0.6,12.3-0.8c8.3-0.4,16.5-1.8,24.5-4c2.8-0.7,5.3-2.2,7.2-4.4
	c1.7-1.9,1.8-4.7,0.1-6c-1.2-1-2.6-1.8-4.1-2.4c-4.7-1.5-9.6-2-14.5-1.7c-2.9,0.1-5.7,0.1-8.6-0.1c-1.8-0.3-3.4-0.9-5-1.7
	c-0.6-0.3-0.9-1.2-1.4-1.8c1.6-1,1.6-1.1,2.8-0.7c2.6,0.8,5.2,1.2,7.9,1.1c3.8,0,7.7-0.1,11.5,0C212,673.3,217.8,674.5,221.7,679.9z
	 M156.6,462.7c2.7,1.2,5.4,2.4,8.1,3.4c4,1.5,8.2,2.6,12.1,4.2c9.6,3.7,19.1,7.6,28.8,10.7c1.8,0.6,3.5,1.4,5.2,2
	c4.2,1.4,8.5,2.7,12.7,4c0.5,0.2,1,0.3,1.5,0.4c7.7,1.5,15.4,2.8,22.9,4.2l3-6c0.9-1.9,1.8-3.7,2.7-5.5c1.7-3.3,1.4-6.8,1.3-10.3
	c-1.3-1.5-1.5-3.7-0.4-5.4c0-0.1-0.1-0.3-0.3-0.6c-6.2,0.5-12.4,0-18.5-1.4c-0.2,0-0.4,0-0.5,0.1c-2.6,0.4-5.2,0.1-7.6-0.9
	c-1.5-0.4-2.7-1.8-4.2-2.2c-1.5-0.4-3.4,0.1-5-0.1c-1.2-0.2-2.5-0.1-3.6,0.3c-3.9,1.6-8.3,1.3-11.9-0.7c-1.3-0.7-2.6-1.5-3.9-2.4
	c-2.3-1.7-5-2.8-7.8-3.3c-1.9-0.5-3.6-0.4-5.4-1.8c-1.5-1.1-3.9-0.9-5.9-1.3c-0.7-0.3-1.3-0.6-1.9-0.9c-0.6-0.2-1.2-0.4-1.8-0.5
	c-1.8-0.3-3.7-0.5-5.5-0.9c-2.5-0.6-5-1.2-7.5-2c-0.8-0.3-1.7,0.1-2,0.8c-0.9,1.3-1.1,3.1-0.3,4.6c0.9,1.8,0.4,3.6-1,3.8
	c-1.7,0.2-1.9,1.3-2.1,2.5C157.6,459.2,157.1,460.8,156.6,462.7z M277,421.9c0.9-3.7,0-7.2-0.9-10.6c-0.8-3.2-1.1-6.5-0.9-9.8
	c0-1.6,0.3-3.2,0.3-4.8c0.2-6.3,1.4-12.6,3.5-18.5c2-5.6,5.7-9.9,9.5-14.1c1.5-1.6,3.1-3.1,4.8-4.8c-18.3-7.5-36.1-15.1-55.1-21.4
	c2,5.9,3.8,11.1,5.6,16.2c1.5,4.3,3.4,8.4,4.8,12.8c2.4,7.5,5.3,14.9,6.7,22.8c0.9,5,2.6,9.8,3.2,14.8c0.7,5.8,2.1,11.6,2,17.5
	c0,0.9,0.2,1.8,0.3,2.7c0.4,0,0.8-0.1,1.2-0.3c3-1.3,6-2.5,8.8-3.8c1.9-0.8,2.1-0.8,3,1.2c0.2,0.4,0.4,0.8,0.5,1.2
	c0.4,4.1,3.4,6.4,5.6,9.5l3.2-2.3l-4.5-8.4c-0.2,0.1-0.5,0.2-0.7,0.3C277.8,421.9,277.4,421.9,277,421.9L277,421.9z M206,254.4
	c-0.2-0.2-0.3-0.3-0.3-0.4c-0.3,0-0.5,0-0.8,0c-6,0.1-11.8,0-17.3-2.5c-5.5-2.5-9.7-6-10.5-12.4c-0.2-1.4-0.3-2.9-0.4-4.3
	c-0.1-0.9-0.3-1.8-0.4-2.7c-2.2,0-4.3,0.8-6,2.2c-2.4,2-4.5,4.3-6.5,6.7c-3.3,3.7-5.9,8.1-7.5,12.8c-1.2,3.4-2.2,6.8-3,10.2
	c-1.1,3.8-1.4,7.7-0.8,11.6c0.5,2.3,1.2,4.7,2,6.9c0.9,2.3,1.9,4.6,3,6.9c0.3,0.6,0.8,1.2,1.4,1.6c1.4,1.4,2.8,2.7,4.4,3.9
	c1.6,1.1,3.5,2.5,5.2,2.5c1.7,0,4.3,0.4,5.5-1.9c3,0.9,3.5,0.7,3.3-2.3c-0.1-3.2,0.8-6.4,2.6-9.1c1.4-2.7,3-5.2,4.9-7.6
	c2.5-2.9,4.4-6.3,7-9c4-4.5,8.5-8.6,13.4-12.2C205.4,255.2,205.8,254.8,206,254.4L206,254.4z M235.1,295.5c0.9-0.3,1.9-0.9,2.5-0.7
	c0.8,0.4,1.8,0.1,2.4-0.6c6-5.3,10.7-11.5,13-19.3c0.7-2,1.3-4.1,1.7-6.2c0.5-3.5,0.5-7.1,0.1-10.6c-0.3-5.5-1.8-10.8-4.3-15.6
	c-1.2-2.1-2.9-3.9-5.1-5c-2.3,2-4.5,4.1-6.9,5.9c-1.9,1.5-3.9,2.7-6,3.8c-3,1.5-6.2,2.6-9.4,3.8c-2.3,0.8-4.6,1.5-6.9,2.2
	c6.9,7.2,11.9,15.4,13.9,25.4c0.3,2.3,0.5,4.6,0.3,6.9c-0.1,1.4-0.4,2.8-0.7,4.2c-0.4,1.2-0.1,2.4,0.6,3.4c0.1-0.6,0.2-1.1,0.3-1.5
	l0.4-1.5c0.5-1.8,1.4-2.7,2.4-2.4c1.5,0.6,1.1,2,0.8,3C233.5,292.3,233.9,294.2,235.1,295.5z M115.1,366.7
	c6.1,5.1,11.9,9.9,17.7,14.7c5.8,4.9,11.5,9.9,17.4,14.9c1.1-3.5,2.3-6.8,3.2-10.1c2-8,3.3-16.1,3.9-24.3c0.3-3.5,0.3-7.1,0.7-10.7
	c0.2-1.9,0.1-3.9-0.4-5.7c-3.2,1.2-6.3,2.2-9.4,3.5c-3.6,1.5-7.2,3-10.8,4.7c-3.5,1.6-6.9,3.2-10.3,5c-3,1.6-5.8,3.4-8.7,5.2
	C117.4,364.8,116.2,365.7,115.1,366.7L115.1,366.7z M133.9,213.7c-2.7-4.3-6.9-5.1-10.8-5.6c-6.5-0.8-13,1.4-17.7,6
	c1.5,1.2,2.8,2.2,4,3.4c1.2,1.2,0.7,1.9-0.5,2.5c-0.4,0.2-0.9,0.2-1.3,0.3c-2.1,0.5-4,1.6-5.4,3.2c-4.1,4.6-6.7,10.3-7.7,16.4
	c-0.4,2.7-0.5,5.5-0.4,8.2c0.1,1.5,0.4,2.9,0.8,4.3c1.3-1.6,2.1-3.5,4.3-2.5c3,10.6,6.9,16.8,11.5,19c0-0.5-0.1-0.9-0.1-1.4
	c-0.1-3,0.5-3.6,3.4-3.3c0.7,0.1,1.4,0.3,2,0.6c4.7,2.3,10.4,1.2,14-2.6c0.4-0.4,0.6-0.9,0.6-1.4c-0.2-2.3-0.6-4.7-0.9-7
	c-1.3,1.1-2.5,2.2-3.6,3.3c-2.1,1.9-4.8,1.9-7.3,2c-4.9,0.3-9.6-0.2-13.6-3.6c-2.2-1.6-3.6-4-4.1-6.6c-0.5-3.1-0.8-6.2-1-9.3
	c-0.3-4.7,1.2-9.3,4.3-12.8c1.3-1.6,2.8-3,4-4.6c1.3-1.5,3-2.6,4.9-3.1c1.9-0.7,3.9-1.3,5.9-1.8c5.2-1.6,10.9-0.3,14.9,3.5
	c0.6,0.6,1.5,0.9,2.4,0.7c1.5-0.2,3-0.1,4.5,0.3c2.7,0.8,5.3,2,8.2,3.2c-0.2-1.8-0.5-3.6-0.9-5.4c-0.2-1.3-0.8-2.5-1.7-3.5
	c-0.9-0.8-1.4-2-1.2-3.2c0.2-2.3,0.4-2.7,2.6-2.2c1.3,0.3,2.7,0.6,4.2,0.9c-0.2-3.3-1.6-6.3-4-8.6c-0.9-0.7-1.3-2-0.7-3.1
	c0.5-1.2,1.5-1.2,2.7-0.9c1.1,0.2,2.1,0.3,3.2,0.4c-1.1-5.6-4.1-10.6-8.5-14.3c-0.7-0.7-1.7-1-2.7-1c-2.9,0.6-5.7,1.6-8.3,3
	c0.2,1.5,0.4,2.9,0.6,4.3c0.5,3.9,0.9,7.8,1.3,11.7c0.4,3,0.9,5.8,1.2,8.7c0.2,1.5-0.3,1.9-1.9,1.8
	C134.7,213.7,134.3,213.7,133.9,213.7z M133.6,575.2c-1.1,1.2-1.9,1.9-2.6,2.8c-1.9,2.4-3.7,4.8-5.5,7.2c-3.6,4.7-7.2,9.5-10.7,14.3
	c-1,1.4-1.8,2.9-2.7,4.3c-2.2,3.3-4.4,6.5-6.5,9.8c-1.1,1.7-2.2,3.5-3.2,5.2c-1,1.8-0.9,1.9,0.4,3.4c1.4,1.6,2.7,3.3,3.9,5.1
	c0.8,1.5,1.5,3.1,2.1,4.7c4.7-0.4,9.2-2.7,14-0.2C127.2,613.1,132.4,594.8,133.6,575.2L133.6,575.2z M46,635.9c2.7,0,5-0.1,7.3,0
	c4.9,0,9.8,0.4,14.6,1.2c5.5,1.2,10.9,2.8,16.1,4.9c4.5,1.6,8.6,3.9,12.4,6.8c1.2,1.1,2.4,2.3,3.6,3.5c0.3-0.3,0.4-0.5,0.6-0.7
	c3.2-5.3,5-10.8,4.2-17.1c-0.2-3.4-1.5-6.6-3.5-9.3c-0.6-0.6-1.3-1.2-2-1.7c-0.6,1.6-1.1,3.3-1.4,5c-0.3,3.3-0.6,4-3.9,4.6
	c-1.7,0.2-3.3,0.2-5,0c-2.7-0.3-5.4-0.7-8.1-1.3c-2.1-0.4-4-1.3-6.1-1.9s-4.3-1.1-6.5-1.7c-0.7-0.2-1.4-0.7-1.9-1.2
	c-0.7-1-0.2-2,1-2.1c0.8,0,1.5,0,2.5,0.1l0.7-6.7C64,618,49.6,629.1,46,635.9z M103.1,654c1.7,2.5,3.8,4.6,6.2,6.5
	c1.5,1.3,3.2,2.4,5,3.1c4.1,1.2,8.4,1,12.4-0.5c4.2-1.7,8.3-3.6,12.3-5.9c6-3.1,11.9-6.5,18.7-7.5c0-0.1,0-0.3,0-0.3
	c-2.7-3.3-6.6-5.4-10.9-5.8c-0.5,0-1,0.3-1.3,0.7c-0.4,0.7-0.7,1.5-1,2.3l2,0.9c-2.4,0.8-4.4,2.4-6.9,2.7c-2.6,0.5-5.2,0.8-7.8,1
	c-3,0-6,0.9-9,1.2c-2.5,0.3-5-0.2-7.3-1.4c-2-0.9-2.8-3.3-1.9-5.3c0-0.1,0.1-0.1,0.1-0.2c0.9-2.3,2.6-4.1,4.7-5.3
	c2.1-1,3.2-3.2,2.9-5.5c-3-1.3-9.1-0.8-12.5,1C110,642.7,106.3,648.3,103.1,654z M200.4,138.2c-1.6-0.6-2.6-1.1-3.7-1.4
	c-4-1-8.1-1.2-12.2-0.6c-4.3,0.5-8.6,1.7-12.6,3.5c-5.6,2.7-11.3,5.4-16,9.5c-0.9,0.8-1.9,1.4-2.7,2.2c-1.6,1.6-3,3.3-4.4,5
	c-1.8,2.4-3.4,4.9-4.9,7l4.2,6.8c1.4-2,2.8-4.3,4.6-6.3c3.1-3.4,6.6-6.5,10.5-9c5.3-3.8,11.5-5.2,17.6-6.6c3.6-0.8,7.2-1,10.8-1.6
	c1.2-0.2,3,0,2.4-2.2c0-0.2,0.6-0.6,0.9-0.9L200.4,138.2z M216.3,431.1c-5.8,0.1-10.5,1.4-14.2,5.5c-0.4,0.4-0.8,0.7-1.3,0.9
	c-1.6,0.5-2.6,2.1-2.5,3.7c0,0.7-0.4,1.4-0.4,2.1c-0.1,1.7-0.6,3.6,0,5c2.8,8,10.8,11.5,19.1,6.8c3.2-3.4,6.6-6.5,7.3-11.5
	c0.7-3.3-0.1-6.6-2.1-9.3C220.6,432.3,218.7,430.6,216.3,431.1z M122.4,467c-3.7-1-7.4-2-11-3c-0.9-0.3-2-0.1-2.7,0.6
	c-1.5,1.1-3.1,2-4.7,3c-0.4,0.2-0.9,0.5-0.9,0.8c-0.5,1.5-0.8,3.1-0.9,4.7c0.5,4.7,4.2,8.4,8.8,9c4.6,0.7,8.8-0.7,12.8-2.1
	L122.4,467z M134,474.9c2.1-1.5,4-2.8,5.8-4.3c1.8-1.4,3.5-3,5.1-4.7c1.5-1.7,2.9-3.6,4.2-5.5c1.2-1.8,3.1-3.2,3.8-5.8
	c-1.7,0.9-3.8,0.8-5.4-0.3c-0.5-2.6,2.1-3.3,3.1-4.9l-2.6-5.3c-2.8,3.2-5.3,6.1-7.9,8.9s-5.4,5.9-8.3,8.7c-1.7,1.7-1.9,2.1-1,4.3
	c0.8,1.9,1.5,3.8,2.2,5.7C133.2,472.7,133.5,473.6,134,474.9L134,474.9z M177.7,441.5c-0.3,1.6,0.3,3.3,1.6,4.4
	c2,1.6,4.7,2.1,7.2,1.5c1.5-0.5,2.9-1.3,4.1-2.4c2.1-1.9,3.9-4.2,5.3-6.6c0.9-1.5,1.5-2.6,0.9-4.3c-0.2-0.8-0.4-1.5-0.7-2.3
	c-1.5-3.2-4.1-5.3-7.8-4.5C181.8,429,177.4,434.9,177.7,441.5L177.7,441.5z M256.7,440.9c-4.5-0.6-8.9-0.8-13.4-0.7
	c1,3.8,1.5,7.2,0.1,10.8c-1.5,3.4-3.9,6.4-6.9,8.6c5.5,1.1,11.1,1.8,16.7,2C255.7,454.9,256.1,448,256.7,440.9L256.7,440.9z
	 M175.8,446.8c-1.6-3.4-1.7-7.4-0.2-10.9c1-3.5,3.1-6.6,6.1-8.9c-2.4-0.6-4.4-1-6.3-1.6c-4.5-1.3-9.1-2.7-13.6-4
	c-2-0.6-2.9-0.1-3.8,1.5c-1.9,3.6-3.5,7.4-4.7,11.3c-0.4,1.5-1.2,2.9-1.7,4.3c1.8-1,3.5-2.3,5-3.7c0.4-0.4,0.5-1,0.4-1.5
	c-0.3-2.1,1.5-2.6,2.6-3.6c1.7-1.5,2.8-0.7,4.1,0.6c0.9-0.7,1.6-1.3,2.4-1.9c1.7-1.6,4.4-1.5,6,0.2c0.3,0.3,0.5,0.7,0.7,1.1
	c1.3,2.3,0.9,3.5-1.4,4.9c-1.7,1-3.3,2.1-4.5,2.8l-1.5,4.5c0.2,0.5,0.4,0.9,0.6,1.3c0.2,0.4,0.6,1,0.9,1.1
	C169.8,445.1,172.5,445.9,175.8,446.8L175.8,446.8z M225.6,452.2v1.6c0,3.7,2.5,5.6,6,4.5c3.8-1.2,6.9-4,8.4-7.7
	c1.4-2.9,1.4-6.3,0-9.3c-1.4-3-3.8-3.4-6.5-1.6c-2.3,1.8-4.3,3.9-5.9,6.3C226.1,447.8,225.4,450,225.6,452.2L225.6,452.2z
	 M256.8,460.5c0.6,2.3,1.1,4.3,1.6,6.3c0.1,0.5,0.3,1,0.5,1.5c2.1,3.3,4.8,6.2,7.8,8.7c1,1.1,2.4,1.6,3.8,1.3
	c1.2-3.5,2.7-6.8,2.3-10.8c-6.3-1.9-10.7-6.3-14.6-11.7L256.8,460.5z M119.4,430.9c-3.4,1.7-6.8,3-10,4.9
	c-7.4,4.3-12.1,10.3-12.5,19.3l3-1.9v-2.1c0-3.9,1.7-6,5.5-6.6c2.2-0.5,4.5-0.2,6.5,0.7c1.2,0.8,2.7,0.6,3.6-0.4
	c1.6-1.5,3.5-2.7,5.4-4.1l-0.7-4.3c-2.7,1.1-5.2,2.1-7.7,3.1l-0.4-0.5c0.2-0.5,0.6-0.9,0.9-1.2c1.8-1.3,3.7-2.5,5.6-3.7
	C119.7,433.3,120.2,432.5,119.4,430.9L119.4,430.9z M276.2,470.9l-2.6,8.8c1.4-0.5,2.2-0.9,3-1.2c4.9-1.9,9.8-3.8,14.7-5.6
	c0.8-0.3,1.3-0.9,1.5-1.7l2.2-6.8c0.2-0.5,0.3-1.1,0.5-2.1C288.8,465.3,283.2,469.3,276.2,470.9L276.2,470.9z M174.2,192.8
	c2.5-0.1,4.4,0.1,5.7,1.9c0.8,0.9,1.3,1.9,1.7,3c0.6,2.3,1,4.6,1.5,7.2c0.1-0.2,0.3-0.4,0.3-0.7c1.1-5,1.5-10.1,1.2-15.1
	c-0.2-2.7-1.2-5.3-2.7-7.5c-0.7-1.3-2.3-1.8-3.6-1.1c-0.4,0.2-0.8,0.6-1,1C174.8,184.7,174.5,188.6,174.2,192.8L174.2,192.8z
	 M214.1,309.2c-7.3,4.1-15.9,4.8-23.8,2c-0.1,0.5-0.3,0.7-0.2,0.8c0.1,0.3,0.3,0.6,0.5,0.9c3.8,4.6,9.8,6.7,15.6,5.4
	C210.6,317.5,213.3,314.5,214.1,309.2z M303,416.1c-2.3-0.1-4.4,1-5.6,2.9c-1.9,2.9-0.9,10.6,2.8,13.4c2.4,1.8,4.6,1.8,7.2-0.4
	c-3.3-1.6-4.3-4.5-4.5-7.9C302.9,421.6,303,418.9,303,416.1L303,416.1z M149.3,150.9c2.5-2,5-3.9,7.5-5.7c3-2.3,3.1-2.4,2.3-6.2
	c-0.5-2.4-1.3-2.9-3.5-1.8c-3.5,1.7-6,4.6-8.5,7.5c-0.3,0.4-0.4,0.8-0.3,1.3C147.1,147.7,147.6,149.7,149.3,150.9L149.3,150.9z
	 M155.1,457.4c-1.9,2.6-3.5,4.7-5.1,6.7c-1.7,2.1-3.5,4.1-5.5,6c-2.6,2.4-5.5,4.5-8.3,6.6c-2.1,1.6-2.2,2.4-0.8,4.8
	c4.5-2.8,9.2-5.3,12.4-9.6C150.9,467.5,153.8,463.3,155.1,457.4z M107.8,462.6l-6.9-7.6c-1.9,2-3.8,4.1-5.6,6.2
	c-1,0.9-1.3,2.4-0.7,3.6c0.7,1.3,2,1.2,3.2,1.2c0.3,0,0.5,0,0.8-0.1C101.8,465.4,104.9,464.2,107.8,462.6L107.8,462.6z M134.5,165.9
	c-1.8,4.1,0,7.3,2.7,10.1c1.3,1.7,3.8,2,5.5,0.6c0.2-0.2,0.4-0.4,0.6-0.6c2.3-2.7,2.1-6.7-0.6-9.1c-0.7-0.6-1.6-1.1-2.6-1.4
	C138.3,164.9,136.2,165,134.5,165.9L134.5,165.9z M205.5,176.5c-3.1,3.6-1.9,7.5-1.8,11c3.9-1,5.6,2.1,8.1,4.5
	C211.1,186.4,208.9,181,205.5,176.5L205.5,176.5z M271.2,444.4c-1.5,1.8-3.6,3-2.8,5.8c0.6,2,1.8,2.8,4.2,3c2.4,0.2,4.5,0.1,5.4-2.9
	C274.8,449.3,272.8,447.1,271.2,444.4L271.2,444.4z M308,428.5c1,0.2,2-0.5,2.2-1.5c0-0.1,0-0.3,0-0.4c0.2-3-0.3-6-1.6-8.8
	c-0.3-0.7-1.1-1.2-1.7-1.8l-0.7,0.3C306.5,420.5,305.6,424.7,308,428.5L308,428.5z M280.3,448.7l3.5-3c-4.2-0.3-6.3-2.4-7.6-6
	l-2.7,3C275.1,445.3,276.8,447.6,280.3,448.7L280.3,448.7z M286.9,431.3c-0.7,0.8-1.5,1.4-1.5,2c-0.3,1.6,0,3.3,1,4.6
	c1.6,2,5.1,1.7,7.8-0.6C290.6,436.3,289.3,435.2,286.9,431.3L286.9,431.3z M282,434.8c-2.7,2.1-3.1,2.8-2.6,4.5
	c0.9,3.3,3.5,4.3,6.5,4.5l2.4-2C284.2,441,282.4,438.6,282,434.8z M152.1,447.7l6.3-7.6l-1.6-1.9l-5.9,4.2L152.1,447.7z
	 M206.4,142.6c-0.7-0.7-1.5-1.3-2.3-1.9c-0.5-0.3-1.4-0.4-1.7-0.2c-1.9,1.7-4.1,3.3-5,6.3c1.2,0.1,2.5,0,3.6-0.4
	C202.9,145.3,204.7,144,206.4,142.6L206.4,142.6z M293,427.9c-0.5,0.1-0.9,0.3-1.4,0.5c-1.7,0.8-2,1.7-1.1,3.4
	c0.2,0.4,0.5,0.7,0.8,1.1c0.9,1.3,2.5,1.5,3.7,2.4s1.7,0.5,2.4-0.1L293,427.9z M109.9,484.8c0.5,0.6,0.7,0.9,0.9,1
	c4.2,1.9,8.3,1,12.4-0.3c0.9-0.3,2.4-0.6,1.8-2.1c-0.6-1.5-1.7-0.4-2.5-0.1C118.6,484.4,114.7,485.9,109.9,484.8z M134.6,184.4
	c0.8-0.3,1.4-0.4,1.9-0.6c2.4-1,4.9-2.1,7.3-3.1c1.4-0.5,1.1-1.4,1.1-2.3c-1.4,0.8-3,1.5-4.6,1.9c-1.6,0-3.1-0.3-4.7-0.7
	C135.1,181,134,182.3,134.6,184.4z M174.5,196.5c0,0.9,0.1,1.8,0.2,2.7c0.1,1.3,1.2,2.3,2.6,2.2c0.5,0,1.4-0.6,1.4-0.8
	c-0.1-1.2-0.5-2.4-1-3.5C177.1,196.1,176,195.7,174.5,196.5z M204.2,197.2c2.5-1.3,2.6-3.5,3.2-5.4c-1.2-1.5-2.4-1.6-3.9-0.3
	L204.2,197.2z M160,431.8c-0.3,1.7-0.4,3.3-0.3,5c0.4,1.1,1,2.1,1.9,3c0.2,0.2,0.8,0.1,1.2,0.2c0.1-0.4,0.2-0.9,0.1-1.4
	c-0.6-1.8-1.2-3.5-1.9-5.2C160.7,432.8,160.3,432.3,160,431.8z M154.4,447.9l0.2,0.4c1.1,0,2.3-0.1,3.3-0.2c1-1.6,1.7-3.4,2-5.3
	l-3.1,2.7C156.1,446.2,155.3,447,154.4,447.9z M194.8,450.7l-0.4-4.8l-4,3.9L194.8,450.7z M168.2,429.7c0.2,1.3-1.4,2.6,0.4,3.4
	c0.7,0.3,2.1-0.7,2.2-1.5C171,430.4,170.2,429.8,168.2,429.7L168.2,429.7z M205.6,147.2c1.6,0.7,2.9,1.2,4.1,1.7l0.4-0.4l-1.6-3.2
	L205.6,147.2z M227.2,438.3l0.6,2.6l3-2.9C229.3,438.1,228.4,438.1,227.2,438.3L227.2,438.3z M164.2,433.3c-0.3,1.8-0.3,1.8,0.8,3.1
	C166.5,434.3,166.4,433.8,164.2,433.3L164.2,433.3z M202.4,432.3l-3.2-0.6l0.7,3L202.4,432.3z M222.9,456.8l-0.8-3.1l-2,3.1H222.9z
	 M123.1,414.9c1.9,1.6,1.9,1.6,2.7,0.3L123.1,414.9z M173.7,299.2c-1.1-1.1-1.9-0.4-2.8,0H173.7z"/>
<path d="M384.8,299c1.1,1.3,0.3,3.1,0.8,4.6c0,0.1-0.6,0.6-0.7,0.5c-0.4-0.2-1-0.6-1-1c0-1.4,0.1-2.7,0.2-4.1L384.8,299z"/>
<path d="M413.9,331.5c-0.2-0.2-0.5-0.4-0.7-0.7c-0.9-1.6-1.8-3.3-2.6-4.7c1,0,1.8,0.6,2.2,1.5C413.2,328.9,413.6,330.2,413.9,331.5
	L413.9,331.5z"/>
<path d="M384.4,314c-0.9,1.9-1.9,1.7-2.6,1.3c-1.1-0.6-1.5-1.9-1-3C381.5,313.8,382,315.5,384.4,314z"/>
<path d="M390.1,317.9c-2.2,0.3-2.8-1.6-4.2-2.6c1.3-0.6,1.5,0.4,2,0.9C388.6,316.8,389.3,317.4,390.1,317.9z"/>
<path d="M413.9,331.6c1,1.4,0.8,3.4-0.4,4.6L413.9,331.6L413.9,331.6z"/>
<path class="st1" d="M298.9,457.5c1-1,0.4-1.8-0.3-2.6c-2.5-2.7-4.9-5.4-7.3-8.2c-0.4-0.5-0.8-1.1-1.6-2.2c0.6-0.3,1.1-0.6,1.7-1
	c2.8-2,5.6-4.1,8.4-6.1c0.7-0.4,1.5-0.5,2.2-0.4c3.5,0.4,6.8-1.4,8.4-4.5c0.8-1,1.6-2.2,2.2-3.3c1.1-3.1,1.1-6.6,0.1-9.7
	c-0.8-3.1-2.9-5.7-5.8-7.1c1-1.3,1.9-2.6,2.6-4c2.4-6.2,5.6-12.2,4.7-19.1c-0.3-2-0.8-4-1.2-6.2c2.5-0.6,4.9-1.3,7.5-1.7
	c5.2-1.1,10.4-2.6,15.4-4.5c2.7-1,5.3-2.1,7.8-3.5c4.3-2.2,7.7-5.8,9.6-10.3c4.7,0,9.4,0,14,0c3.9,0,7.9,0.5,11.8,0.2
	c7.3-0.6,14.6-1,21.9-0.9c3.5,0,7-0.4,10.5-0.4c2.8,0,5.5,0.1,8.3,0.2c5.7,0.3,11.4,0.3,17.1-0.1c5.1-0.3,10.2-0.4,15.3-0.2
	c4.3,0,8.6,0.3,12.8,0.4c2,0,3.9-0.3,5.9-0.3c7.9,0.1,15.9,0.4,23.9,0.4c8.8,0,17.5-0.1,26.3-0.1c5.8,0,11.6,0.3,17.4,1
	c3.8,0.4,7.7,0.2,11.5,0.2c5.3,0,10.5,0,15.8,0c7.2,0.1,14.5,0.4,21.7,0.5c2.8,0,5.7-0.2,8.5-0.3c6-0.1,11.9-0.2,17.9-0.3
	c1.6,0,3.2-0.3,4.8-0.3c1.6,0,3.4,0.2,5.1,0.3c4,0.1,8.1,0,12.1,0.1c4,0.1,8.4,0.4,12.6,0.6c6,0.2,12.1,0.3,18.1,0.6
	c9,0.4,17.8,0.9,26.7,1.5c5.5,0.3,11,0.7,16.5,1c5.1,0.4,10.1,0.9,15.2,1.2c6.8,0.3,13.5,0.3,20.3,0.6c6.8,0.2,13.9,0.6,20.8,0.9
	c7.3,0.4,14.6,0.7,21.9,1.4c6.4,0.6,12.7,1.5,19.1,2.2c2.5,0.3,5,0.4,7.5,0.7c4.9,0.5,9.8,1,14.7,1.5c3,0.3,6,0.4,9.1,0.8
	c3.9,0.4,7.8,0.9,11.7,1.4c2.3,0.3,4.6,0.5,6.9,0.7c3.5,0.3,6.9,0.5,10.5,0.8c2.9,0.3,5.7,0.6,8.5,1c6.4,0.8,12.9,1.5,19.3,2.3
	c4.1,0.5,8.1,0.9,12.2,1.5c1,0.1,1.9,0.3,2.8,0.5c1.4,4.5,0,8.7-0.6,13c-1.1,6.2-1.8,12.5-2.1,18.9c0,7.8-1.6,15.2-2.6,22.8
	c-0.3,2.6-0.6,5.1-0.8,7.7c-0.4,4.4-0.9,8.7-1.1,13.1c-0.5,7.3-0.7,14.6-1.2,22c-0.6,8.7-1.3,17.5-1.9,26.2
	c-0.3,4.5-0.7,9.1-1.1,13.6c-0.3,3.7-0.8,7.5-1.2,11.5c-1.5-0.1-2.9-0.2-4.3-0.4c-4.9-0.9-9.8-2-14.7-2.7c-4.9-0.7-10.1-1-15.2-1.5
	c-1.5-0.2-3-0.4-4.5-0.6c-4.1-0.5-8.2-0.9-12.2-1.4c-3-0.4-5.8-0.9-8.8-1.2c-4.3-0.4-8.6-0.5-12.8-0.8c-7-0.5-14.1-1.2-21.1-1.7
	c-7-0.5-14.5-0.7-21.7-1.3c-10.1-0.8-20.1-0.7-30.2-1.1c-7.4-0.1-14.8-0.7-22.1-1.8c-3.6-0.6-7.3-0.6-10.9-0.9
	c-2.2-0.2-4.5-0.3-6.7-0.6c-5-0.7-10-0.1-14.9,0c-6.2,0-12.5-0.4-18.7-0.7l-7.2-0.3c-10.4-0.5-20.7-1-31.1-1.4
	c-6-0.3-11.9-0.6-17.9-0.7c-13-0.4-26.1-0.9-39.1-1c-9.5-0.1-18.9,0.4-28.4,0.7c-5.9,0.2-11.8,0.6-17.6,0.8
	c-2.9,0.1-5.7-0.3-8.6-0.3c-6.8,0-13.6,0-20.4,0c-8.8,0-17.7,0-26.5-0.2c-8.1-0.2-16.1-1-24.2-1.3c-4.2-0.2-8.4,0.1-12.6,0.1
	c-3.5,0-7-0.2-10.5-0.2c-8.5,0.1-17,0.3-25.5,0.4c-7.2,0.1-14.4,0.3-21.7,0.3c-4.7,0-9.4-0.2-14.1-0.3c-3.5-0.1-7-0.1-10.5-0.2
	c-6.6-0.1-13.2-0.5-19.8-0.4c-6.3,0.1-12.7,0.8-19,1c-5.3,0.2-10.5,0.1-15.8,0.4c-3.4,0.2-6.9,0.2-10.3,0.7c-1.3,0-2.7-0.2-4-0.5
	c0.1-1.8,0.3-3.5,0.3-5.1c0.1-6.9,0.1-13.8,0.2-20.7c0-4.4,0.2-8.7,0.4-13.1c-0.1-0.4-0.1-0.7,0-1.1c1.7-4.2,2.7-8.7,5.6-12.4
	c1-1,1.4-2.4,1.2-3.7l-2.4-0.4L298.9,457.5z"/>
<path class="st2" d="M228.6,519.2c-2.8,4.5-5.5,9-8.3,13.4c-4.1,6.6-8.2,13.2-12.5,19.7c-3.7,5.6-7.7,11-11.5,16.4
	c-1,1.4-1.8,2.9-2.8,4.3c-1.9,2.6-3.9,5.1-5.8,7.7c-2.5,3.4-4.9,6.9-7.5,10.2c-6.4,8.5-12.7,17.1-19.2,25.4
	c-5.5,6.8-10.5,14-14.9,21.5c-1.7,3-3.6,6-5.8,9.4c-2,1.1-4.9,0.6-7.7,0.9c-3.6,0.4-7.3,0.6-11,0.9c-1,0-1.9,0-2.9-0.2
	c-2.1-0.3-2.7-1.5-1.5-3.3c0.7-0.8,1.4-1.6,2.2-2.2l0.2,3c1.8,0.1,2.3-1.3,2.6-2.3c2.3-8,4.6-15.9,6.7-23.9c2-8,3.8-16.1,5.5-24.2
	c0.9-4.5,1.3-9,1.9-13.4c0.4-2.1,0.6-4.2,0.6-6.4c-0.1-3.1,1-6,3-8.4c3.2-3.9,6.8-7.5,10.1-11.4c3.3-3.9,6.7-8.1,10-12.2
	c1.6-2,3.3-4,4.9-6c2.6-3.3,5.3-6.5,7.8-9.9c1.8-2.5,3.3-5.2,5-7.9c0.5-1.2,1.8-1.7,2.9-1.3c0.1,0,0.1,0,0.2,0.1
	c1.7,0.6,3.3,1.2,5,1.9c3.2,1.3,6.3,3.1,9,5.2c0.4,0.3,0.9,0.5,1.3,0.6c0.1-3.1-2.3-4.4-4.1-5.7c-2-1.3-4.1-2.5-6.3-3.4
	c5.9-1.3,11.7-1.8,16.6-5.5c-1.4,0.2-2.8,0.4-4.2,0.6s-2.8,0.3-4.2,0.6c-4.2,0.8-8.4,1.6-12.6,2.4c-1.1,0.2-1.9,0.3-2.6-1
	c-0.8-1-1.8-1.8-3-2.2c-4.4-2.4-9-4.3-13.8-5.7c-1.1-0.3-2.2-0.8-3.2,0.3c0,0.2,0,0.3,0,0.5c0.3,1.1,0.8,2.2,1.5,3.2
	c0.8,0.9,2.2,1.2,3.2,1.9c2.2,1.7,2.5,2.6,2.9,6.3c0.5,0.3,1.2,0.2,1.5-0.3c0.1-0.1,0.1-0.2,0.2-0.4c0.8-1.4,0.8-3.2,0-4.6
	c-0.6-0.9-1-1.8-1.7-3c1.4,0.4,2.9,0.9,4.2,1.5c2.2,1.2,4.2,2.6,6.4,4.1c-1.8,3.1-3.7,6.2-5.7,9.1c-3.8,4.9-7.9,9.6-11.9,14.5
	c-0.7,0.8-1.2,1.8-1.8,2.6c-3.2,4-6.3,8-9.6,11.8c-2.8,3.2-6,6.1-8.8,9.4c-5.3,6.3-10.6,12.8-15.7,19.3c-4.2,5.3-8.3,10.7-12.2,16.3
	c-2.6,3.6-4.9,7.5-7.3,11.3c-2.4,3.8-4.6,7.5-6.9,11.3c-1.2,2-2.6,3.9-1.5,6.5c0.1,0.2-0.7,1.3-1.2,1.3c-1.4,0.2-2.9,0.2-4.3,0
	c-3.8-0.7-7.5-1.5-11.3-2.4c-2-0.4-4-0.9-6-1.4c-0.4-0.2-0.9-0.3-1.3-0.6c1.6-0.8,1.6-2,1.8-3.3c0.9-5.4,2-10.7,3-16
	c0.6-3.3,1-6.7,1.7-10c1.5-7,3.1-13.9,4.9-20.8c2-7.7,4.1-15.3,6.4-22.9c2.7-8.9,5.3-17.8,8.4-26.5c2.4-6.7,4.5-13.6,8.1-19.8
	c0.6-1.2,1.1-2.5,1.3-3.8c0.8-3.4,2.1-6.7,3.7-9.7c0.4-0.9,0.7-1.8,1.1-2.7c4.8,0.4,9.5,0.3,13.7-2.5c1.1-0.8,2.6-0.9,3.7-0.2
	c1.9,0.9,3.2,0.3,4-1.6c0.5-1.1,1-1.9,2.3-1.8c0.4,0,0.7-0.1,1-0.3c4.3-2.7,9-4.9,12.2-9c2.3-2.8,4.5-5.8,6.7-8.9
	c17.1,6.3,34.4,12.7,51.9,19.2c-3,7.6-7.8,13.7-11.9,20.5c0.7-0.3,1.5-0.7,2.1-1.2c2.8-2.5,5.3-5.3,7.2-8.5c1.7-2.7,3.2-5.6,4.7-8.4
	c0.5-0.9,0.9-1.5,2.1-1.1c3.2,1,6.6,1.7,9.6,3c3.2,1.2,6.6,2,10.1,2.2c3.5,0.4,7,1.3,10.6,2l-1.8,3.5c-0.9,1.8-1.6,3.8-4.2,3.9
	c-4.1,2.6-8.1,5.1-12.2,7.7c-0.6,0.4-1.2,0.9-2,1.5c2,0.6,3.4-0.5,4.8-1.1c2.2-1,4.3-2.2,6.4-3.3c0.8-0.4,1.5-0.7,3-1.2
	c-0.5,1.2-0.8,1.8-1,2.4l-6,12.6L228.6,519.2z M165.5,516.5c-4.1-1.1-11.7,0-14.9,2.2c-0.3,0.2-0.4,0.8-0.7,1.4
	c2.5,0.3,5.1,0.1,7.6-0.7c2.4-0.5,4.9-0.7,7.6-1L165.5,516.5z"/>
<path class="st0" d="M115.6,446.9l5.4-3.4l1.2,8c1.3-0.1,2.2-1.3,2-2.5c0,0,0,0,0,0c-0.1-3.9-0.1-7.9-0.6-11.7
	c-0.7-4.5-0.4-9.1,1.1-13.4c1.2-3.3,3-6.2,6.8-7.3c0.7-0.2,1.2-0.9,2.2-1.6c-1-0.6-1.6-1.2-2.3-1.3c-4.1-0.5-8.1-1.5-11.9-3
	c-5.4-1.7-10.7-3.9-16-6c-2.3-0.9-4.5-2.1-6.8-3.2c-2.1-0.9-4.2-2-6.2-3.1c-2-1.3-3.8-3-5.8-4.3c-5-3.6-9.2-8.2-12.3-13.6
	c-2.3-3.9-4.6-7.8-6.7-11.8c-1.4-2.9-2.1-6.1-2.2-9.3c0-0.9-0.4-1.7-1.1-2.2c-2.4-2.2-2.3-4.5,0.4-6.1c3.8-2.4,7.6-4.6,11.6-6.7
	c4.6-2.4,9.3-4.5,14.1-6.5c7.3-3.2,14.4-6.7,21.3-10.5c2-1.1,4.2-1.9,6.3-2.9c4-1.7,7.9-3.6,11.9-5.2c6.4-2.6,12.8-4.9,19.2-7.4
	c6.7-2.6,13.3-5.1,20-7.6c0.7-0.3,1.5-0.3,2.2,0c3.1,1.5,5.7,3.9,7.3,6.9c1.9,4,3.5,8.1,0.7,12.4c-2.2,3.5-4.2,7.2-6.7,10.6
	c-1.7,2.5-4.2,4.4-7.1,5.4c-0.9,0.4-1.8,0.8-2.6,1.3c-2,0.9-4,1.9-6.1,2.8c-6.9,3-13.8,6.2-20.9,8.9c-5.6,2.1-10.5,5.4-15.5,8.4
	c-1.9,1.1-3.6,2.5-5.6,3.9l-12.3-8.4c-1.6,2.1-1.5,2.5,0.1,3.8c6,4.5,11.9,9,17.9,13.7c4.7,3.7,9.2,7.6,13.7,11.5s9.4,8,13.8,12.2
	c2.4,2.4,4.6,5,6.5,7.8c3.8,5.5,5.5,11.4,2.3,17.9c-0.9,1.8-1.5,3.8-2.2,5.7c-0.1,0.2-0.3,0.6-0.2,0.7c0.9,2.1-0.7,3.2-1.7,4.6
	c-1.9,2.5-3.5,5.2-5.5,7.6c-3,3.8-6.3,7.5-9.4,11.3c-2.6,3-5.5,5.7-8.6,8.2c-1.8,1.7-4.3,2.3-6.7,1.6c-2.2-0.6-4.5-1.1-6.8-1.7
	c-4.9-1.2-7.6-5-10-9c-1.5-2.6-0.1-4.8,2.9-5c2.2-0.1,4.5,0.4,6.4,1.5c1.3,0.6,2.6,1.1,3.9,1.8c0.8,0.4,1.5,0.2,1.8-0.6
	c0.4-0.6,0.2-1.3-0.4-1.7c-0.1,0-0.1-0.1-0.2-0.1L115.6,446.9z"/>
<path class="st0" d="M151,231.3c0.3-2.9,0.4-5.8,0.4-8.7c-0.3-2.8-0.7-5.5-1.3-8.2c1.8,0.1,2.1,2,3.1,3.1c2.1-0.2,2.1-0.2,1.9-1.9
	c-0.1-1.1-0.2-2.3-0.2-3.4c0.1-3.4-0.9-6.7-2.9-9.4c1.9,0.1,3.3,2.2,4.9,0.5c0.2-6.2-2.7-11.3-5.9-16.3c-0.7-0.9-1.5-1.8-2.4-2.5
	c-1.1-0.9-1.6-2.4-1.2-3.7c0.7-4.2,2.7-7.7,4.5-11.4c1.2-2.2,2.8-4.2,4.7-5.8c2.6-2.4,5.5-4.6,8.4-6.6c2-1.4,4.1-2.4,6.4-3.2
	c5.7-1.8,11.6-3,17.5-3.8c0.9-0.3,2-0.1,2.7,0.5c0.3,0.3,1.5,0,2.2-0.2c1-0.2,1.9-0.5,2.9-0.8l0.3,0.5l-2.5,3.6
	c1.5,1.4,2,1.5,3.1,0.4s2-2,3-3c0.8-0.7,1.6-1.5,2.9-0.8c2.2,1.1,4.4,1.9,6.5,3c1.4,0.6,2.4,1.9,2.7,3.3c-3.3,0.5-6.6-0.1-9.5-1.9
	c-1.4-0.8-2.9-1.6-4.5-0.5c-0.7,5.5,1.8,8.6,7.2,9.5c1.9,0.3,3.8,0.8,5.7,1.3c2.3,0.6,4,2.6,4.1,5c0.5,3.9,1.2,7.8,1.8,11.8
	c0.3,1.7,0.4,3.4,0.7,5c0.6,4,1.2,7.9,1.8,11.9c0,0.2-0.1,0.5-0.2,0.9c-1.1,0.2-2.2,0.4-3.5,0.7c-0.2-0.9-0.3-1.7-0.4-2.6
	c-0.4-6.5-2.1-12.9-5.2-18.7c-0.5-1.1-1.4-2.1-1.9-3.2c-0.6-1.7-2.2-2.7-4-2.5c-1.7,0.2-3.2,1.5-3.7,3.1c-0.6,2.1-1.5,4.2-1,6.5
	c0.2,1.3,0.2,2.7,0,4c-0.1,5.4,0.4,10.7,1.5,16c0.1,0.9,0.2,1.7,0.3,2.3c-0.9,1.9-3.7,1.6-3.8,4.3c0.6-0.1,1.2-0.3,1.8-0.5
	c1.3-0.7,2.6-1.6,4.2-0.8c0.4,0.1,0.9-0.1,1.2-0.3c2.7-2.3,6.1-2.3,9.2-3.3c0.3-0.1,0.8,0,1-0.1c3.5-2.6,7.8-2.4,11.8-2.8
	c3.4-0.1,6.8,0.3,10.1,1.2c2.4,0.5,4.7,1.2,6.8,2.2c4.5,2.1,6.3,6.1,6.9,10.8c0.6,3.7-0.1,7.5-1.9,10.8c-3.2,5.6-7.8,9.7-12.4,13.9
	c-1.5,1.2-3.1,2.1-4.8,2.8c-3,1.5-6.1,2.9-9.3,4.1c-3,1.1-6.2,1.8-9.3,2.2c-4.6,0.5-9.2,0.4-13.9,0.7c-4.1,0.2-8.2-0.7-11.9-2.5
	c-4.6-2.1-7.6-6.5-7.9-11.6c-0.4-3.8-0.3-6.9,3.2-9.4c1.9-1.6,2.9-4,2.7-6.5c0-2.5-1.2-4.7-3.3-6.1c-0.5-0.3-1.1-0.6-1.6-0.9
	c0.9-0.8,1.7-1.4,2.5-2.1c1.8-2.1,3-4.7,3.5-7.5c1.4-5.5,1.7-11.1,1.1-16.7c-0.4-3.5-2.1-6.7-4.7-9c-1-0.8-2.3-1.1-3.5-0.9
	c-3.6,0.4-6.5,3-7.3,6.5c-1.1,3.7-1.5,7.6-1.3,11.5c0.3,3.2,0.7,6.4,1.3,9.5c0.5,1.9,1.2,3.7,2.2,5.4c0.2,0.5,0.4,1,0.7,1.5
	c-1.4,0.6-2.6,1.2-3.9,1.8c0.1,1.1,1,2,2.2,2c0.2,0,0.3,0,0.5-0.1c2.2-0.2,4.3,0.4,6.1,1.6c1.5,0.8,2.2,2.5,1.9,4.1
	c-0.6,3.6-5.2,7.5-9,7.7c-2.8,0.4-5.7,0.1-8.4-1.1c-0.3-0.2-0.6-0.4-1-0.7c0.6-0.4,1.2-0.6,1.4-1c0.4-0.5,0.6-1.2,0.5-1.8
	c-0.1-0.4-1-0.8-1.5-0.8c-2.4-0.1-4.6,1.2-5.8,3.3c-0.5,1.1-0.9,2.3-1,3.5c-0.2,0.9,0.4,1.8,1.3,1.9c0.1,0,0.3,0,0.4,0
	c1.1,0.1,1.6-0.6,1.6-1.6c0-0.2,0.1-0.3,0.4-0.8l6.2,2.5c-4.7,5.6-10,10.7-12.7,17.7c-2.8,6.7-4.6,13.8-5.5,21
	c-7.1,1.3-14-3.3-15.5-10.4c-1-3.6-1-7.5-0.1-11.1c0.1-0.3,0.1-0.5,0.1-0.8c-0.1-0.6-0.1-1.5-0.6-1.9c-0.8-0.6-1.6,0.1-1.9,0.9
	c-1,1.8-2.3,3.4-3.9,4.6c-3.3,3.3-7.3,3.9-11.8,3.6c-2.8-0.1-5.4-1-7.8-2.5c-2-1.2-3.4-3.3-3.7-5.6c-0.3-2.3-0.6-4.6-0.9-6.9
	c-0.4-3.1,0.1-6.3,1.5-9.1c0.1-0.4,0.3-0.8,0.6-1.2c2.3-2.5,4.3-5.4,7-7.3c3.9-3,9-4.3,13.9-3.4c2.7,0.5,5,2,6.5,4.3
	c0.5,0.9,1.6,1.3,2.5,0.8c3.4-0.8,7-0.1,9.9,1.9c1.5,0.9,2.6,2.2,3.9,3.2C149.4,230.6,150.2,231,151,231.3z M155.9,183
	c0.7-0.7,1.3-1.2,1.8-1.8c0.3-0.4,0.5-0.9,0.7-1.4c2.3-4.5,6.3-6.8,10.9-8.5c2.8-1.1,5.6-2.2,8.4-3.4c2.9-1.2,4.9-3.8,5.3-6.9
	c0.2-1.2,0-2.5-0.5-3.6c-0.3-1-1.4-1.5-2.4-1.2c-0.3,0.1-0.6,0.3-0.9,0.6c-1.9,2.6-4.8,3.5-7.7,4.5c-3.3,1.2-6.5,2.4-9.7,3.8
	c-2.1,1-3.8,2.8-4.7,4.9c-1,2-1.7,4.1-2.2,6.3C154.1,178.5,154.4,181.1,155.9,183L155.9,183z M107.7,247.1c2.3-3.1,3.9-6.7,7.3-9.2
	l0.8,3.2c0.4,2.3,2.5,3.9,4.9,3.7c2.5-0.1,4.7-1.8,5.5-4.2c-1,0.2-1.8,0.5-2.6,0.6c-0.9,0.2-1.9,0.3-2.9,0.3
	c-0.7-0.1-1.3-0.5-1.7-1.1c-1.2-2.2,0.8-7,3.2-7.9c2-0.9,4.2-1.5,6.4-1.5c1.8,0.1,1.8-0.1,1.7-2.4c-2.5-0.5-5.2-0.4-7.6,0.5
	c-4.3,1.2-7.7,4.1-10.8,7.1c-2.4,2.3-4.1,5.2-5,8.4C106.5,245.5,106.2,246.4,107.7,247.1L107.7,247.1z"/>
<path class="st0" d="M307.1,384.3c2.2-0.3,2.7,1,3,2.7c0.9,4.8,0.6,9.8-0.9,14.5c-1,3.3-2.4,6.5-4.2,9.5c-0.6,1-1.5,1.7-2.7,1.9
	c-2.2,0.3-4.3,1.3-6,2.8c-1.9,1.8-3.4,3.8-3.1,6.7c0,0.6-0.1,1.2-0.2,1.8c-1.2,0.1-1.4-0.6-1.3-1.3c0.1-2.8-1.4-4.8-3-6.8
	c-0.1-0.1-0.3-0.2-0.5-0.2c-0.3,0-0.5,0.1-0.8,0.2c0.2,1.2,0.3,2.4,0.6,3.6c0.2,1.2,0.5,2.1,0.8,3.1c1,3.5,0.6,4.2-3.5,5.3
	c-0.7-1.4-1.5-2.9-2.2-4.4c-1-2.2-1.9-4.5-2.7-6.7c-0.3-1.1-0.5-2.2-0.6-3.4c-1.5-6.4-1-12.7-0.7-19.2c0.3-4.1,0.9-8.2,2-12.1
	c1-4,2.9-7.7,5.4-10.9c3-3.6,6.1-7.1,9.4-10.5c3-3.1,6.2-5.8,9.5-8.7c1-1.1,1.7-2.4,2.3-3.7c-0.6-1-1.9-1.2-2.9-0.6
	c-0.2,0.1-0.4,0.3-0.5,0.5c-3.2,3-6.3,6-9.6,9.2c-3-3.2-7.2-4.2-11-5.8c-10.6-4.3-21.2-8.5-31.9-12.5c-4.7-1.8-9.6-3.3-14.7-5.1
	c-2.6-8.7-6.1-17.6-6.5-27.5c0.9,0.1,1.8,0.3,2.7,0.5c4.3,1.5,8.6,3,12.9,4.5c7.1,2.4,14.3,4.6,21.3,7c5.4,1.9,10.7,4.1,16,6.1
	c2.3,0.9,4.7,1.6,7.1,2.4c6.2,2.2,12.5,4.2,18.7,6.6c7.3,2.8,14.5,6,21.8,9c1.6,0.7,3.1,1.7,4.7,2.5c0.9,0.5,1.8,0.8,2.7,1.1
	c3.5,1.2,6.9,2.9,10,4.9c1.4,0.7,2.2,2.2,2.2,3.7c0.3,5.5-2.4,10.7-7.1,13.6c-5.2,3.5-11.1,4.9-16.8,6.8c-3.8,1.3-7.8,2.1-11.6,3.3
	c-2.4,0.8-4.8,1.8-7.1,3c-0.6,0.3-1,1.2-1.5,1.8L307.1,384.3z"/>
<path class="st1" d="M144,148l3.5,5.2l-6.1,9c-0.5,0.8-1.3,1.2-2.2,1.2c-1.4,0.2-2.7,0.4-4,0.8l2.3-3.1c-3.5-0.5-5.7,2.3-6.6,8.2
	c-4.3,1.1-8-0.5-11.6-2.7c-5.7-3.5-9.8-9-11.6-15.5c-0.4-2.2-0.3-4.4,0.5-6.5c2.5-1.3,3,2.7,5.3,1.7c-1-2.3-3-3.7-4.5-5.5
	c-0.7-0.8-1.4-1.6-2.1-2.4c-3.4-5.2-6.9-10.5-9-16.4c-1.1-2.8-1.2-6-0.3-8.9c0.2-1,1-1.7,2-1.9c1.1-0.3,1.5,0.6,2,1.3
	c1.4,2,2.9,3.8,4.3,5.7c0.5,0.6,1.1,0.9,1.9,0c-1.6-2.7-3.3-5.4-4.8-8.2c-2.7-5-5.1-10-5.4-15.8c-0.3-2.8,1.2-5.4,3.6-6.8
	c0.8,2.5,1.6,4.9,2.4,7.3s1.7,4.3,2.6,6.4c0.4,0.9,1,1.2,2,0.3c-0.5-1.4-1.2-2.8-1.6-4.3c-1.5-5.1-3.3-10.2-4.3-15.4
	c-0.9-4.9-1.8-9.9-0.7-14.8c0.6-2.9,1.5-5.7,2.8-8.3c0.9-2.1,3.2-3.3,5.5-2.8c0.3,2.4,0.5,4.8,0.6,7.2c-0.3,4.5,0.1,9.1,1.1,13.5
	c0.6,2.5,0.9,5.1,1.4,7.6c0,1.5,1,2.8,2.4,3.3c0.4-1.8,0.4-3.7-0.2-5.5c-1.7-6.5-2.4-13.2-2.3-19.9c0.2-3.7,0.1-7.3,0-11
	c-0.1-5.2,1.1-10.2,1.8-15.3c0.4-2.8,1.3-5.6,2.7-8c0.9-1.6,2.3-1.9,3.2-0.4c0.9,1.4,1.5,3,1.8,4.7c0.4,7.1,0.2,14.1-0.6,21.2
	c-0.2,2.8-0.1,5.5,0.1,8.3c0.1,3.8,0.5,7.7,1.1,11.4c0.7,3.3,1.8,6.5,3.4,9.5c3,6,6.8,11.5,9.8,17.4c2,4.1,3.7,8.3,5,12.7
	c1.4,4.8,2.1,9.8,2.1,14.8c0.2,6.2-0.3,12.5-1.5,18.6c-0.7,3.5-1.6,6.9-2.3,10.5c-0.3,2.1-0.4,4.2-0.2,6.2
	C141.6,158.1,143.3,153.1,144,148z M121.3,123.3c-3.1-0.6-5.6-3-6.3-6.1c-0.6-2.4-1.1-4.9-1.4-7.3c-0.6-3.7-0.6-7.3,3.1-9.7
	c0.1-0.1,0.1-0.3,0.2-0.7c-0.4-0.2-0.9-0.5-1.3-0.5c-2,0.3-3.6,1.9-3.9,3.9c-1.1,5.5-1.2,11,1.4,16.2c0.7,1.1,0.6,2.5-0.2,3.5
	c-0.4,0.7-0.7,1.4-0.7,2.2c-0.3,4.2,0.6,8.4,2.5,12.2c0.3,0.5,0.4,1.1,0.3,1.7c-1,5.1,1.2,9.3,4.2,13.1c0.9,0.8,1.8,1.5,2.9,2.1
	l0.5-0.5c-0.4-2.4-2.5-3.9-3.5-6c-1.2-2.2-1.7-4.8-1.5-7.3c0.7-0.1,1.5-0.3,2.8-0.5c-2.6-1.8-4.4-4.5-5.1-7.6
	c-0.8-3.5-0.8-7,0.4-8.8C117.3,123.7,119,125,121.3,123.3L121.3,123.3z"/>
<path class="st3" d="M61.7,694c0.5-0.4,1-0.8,1.5-1.1c0.6-0.3,1.2-0.7,1.6-1.2c-0.6-0.2-1.2-0.3-1.8-0.3c-1.9,0.2-3.9,0.6-5.8,1.1
	c-4.7,1.5-9.8,1.5-14.5,0.1c-6.2-1.9-11.9-5-16.9-9.1c-0.1-0.1-0.2-0.3-0.5-0.9l2-0.9l-0.4-0.6c-1-0.3-2-0.4-3-0.5
	c-3.6,0-6.8-1.5-10-2.8c-4.5-1.8-5.4-7.9-2.1-11.8c3.5-4,7.4-7.7,11.6-11c5.6-4.4,11.4-8.6,17.4-12.4c0.3-0.2,0.5-0.4,0.7-0.7
	c1.7-2.4,4.1-2.4,6.7-2.3c3.9,0.1,7.9-0.2,11.8,0.1c3.6,0.3,7.2,1,11.4,1.6c-0.5,0.5-1.1,1-1.7,1.4c-4.3,2.3-8.6,4.3-12.2,7.6
	c-0.3,0.3-0.5,0.6-0.5,1c0.5-0.1,0.9-0.3,1.3-0.4c4.3-2.1,8.6-4.2,13-6.3c1.3-0.6,2.7-1,4.1-1.2c1-0.1,2,0.1,2.9,0.6
	c-5.6,2.2-10.7,5.6-14.8,10c0.6,0,1.3-0.1,1.9-0.2c3.3-1.9,6.6-3.9,9.9-5.7c1.2-0.5,2.3-0.9,3.6-1.2c1-0.4,2-1,3.4-1.6
	c4.4,2.1,9.4,4,13.3,7.9c1.2,1,1.7,2.5,1.3,4c-1.6,6.2-3.6,12.3-6,18.3c-2.1,5.1-5.3,9.7-9.4,13.5c-2.7,3-6.1,5.2-9.9,6.6
	c-3.2,1-6.5,1.3-9.4-1.1C61.9,694.4,61.9,694.3,61.7,694z"/>
<path class="st3" d="M221.7,679.9c-3.9-5.3-9.7-6.6-15.8-6.9c-3.8-0.2-7.7-0.1-11.5,0c-2.7,0.1-5.4-0.3-8-1.1
	c-1.2-0.4-1.2-0.3-2.8,0.7c0.5,0.6,0.8,1.5,1.4,1.8c1.6,0.8,3.3,1.4,5,1.7c2.9,0.2,5.7,0.2,8.6,0.1c4.9-0.4,9.8,0.2,14.5,1.7
	c1.5,0.6,2.9,1.4,4.1,2.4c1.7,1.3,1.5,4.2-0.1,6c-1.9,2.2-4.4,3.7-7.2,4.4c-8,2.3-16.2,3.6-24.5,4c-4.1,0.1-8.2,0.7-12.3,0.8
	c-6.9,0.3-13.7-0.8-20.1-3.2c-5-1.9-9.8-4.2-14.4-7c-6.1-3.5-11.5-7.8-16.2-13c-1.3-1.5-2.8-2.7-4.5-4.3c1-0.4,2-0.6,3-0.7
	c3.9,0.4,7.2-1.3,10.5-2.8c3.3-1.6,6.9-3.3,10.3-5.1c0.9-0.6,2.1-0.5,2.9,0.2c3.8,2.9,8,5.1,12.4,6.7c1.7,0.7,3,0.3,5.2-1.5
	c-6.3-0.7-10.9-4.3-16.1-7.2c2.8-2.3,5.9-3.5,11.4-4.6c2,2.6,5,3.2,8,3.7c5.7,1,11.5,1.6,17.2,2.3c6.7,0.8,13.4,1.5,20.2,2.4
	c2.4,0.3,4.8,0.7,7.1,1.2c3.4,0.8,6.7,1.8,9.9,3c2.8,1,5.2,3,6.6,5.6c1.3,1.7,0.9,4.1-0.8,5.4c0,0-0.1,0.1-0.1,0.1
	c-1,1-2.2,1.9-3.3,2.8C222.1,679.6,221.9,679.8,221.7,679.9z"/>
<path class="st1" d="M185.8,120.9l2.6,2.7l0.6-0.3c-0.7-1.5-1.2-3.1-1.6-4.7c-0.3-1.8-0.4-3.5-0.4-5.3c-0.1-1.8-0.1-3.6,0-5.4
	c0.1-1.7,0.5-3.4,0.9-5.7l3.4,5c0.8-1.3,0-2.1-0.2-2.8c-2.6-5.7-3.2-12.1-1.9-18.3c0.4-2.7,1.4-5.4,2.9-7.7c0.5-0.6,0.7-1.3,0-1.9
	c-0.6-0.5-1.5-0.3-1.9,0.3c-0.1,0.1-0.1,0.2-0.2,0.3c-0.6,0.9-1,1.8-1.8,2.7c-0.8-3.2-2.8-6-2.7-9.4c0.1-0.3,0.1-0.5,0-0.8
	c-1.7-3.8-1.4-7.8-1.5-11.8c-0.1-3.7,0.1-7.5,0.5-11.2c0.5-3.4,1.9-6.6,4.1-9.2c0.7-1.4,2.3-2,3.8-1.5c-0.8,9.9-1.5,19.9,4.8,28.8
	c-0.2-1.2-0.4-2.5-0.7-3.7c-1.5-5.8-2.1-11.8-1.8-17.8c0.3-8.5,1.7-16.9,4.3-24.9c0.9-2.2,2.1-4.3,3.6-6.2c0.7-0.8,1.6-1.5,2.5-2
	c0.8,0.8,1.7,1.5,2.7,2.1c1.5,0.5,2.5,1.9,2.6,3.4c0.4,2.2,0.5,4.4,0.3,6.7c-0.6,4.9-1.6,9.7-2.4,14.5l-0.5,3.2
	c-0.6,4.3-1.5,8.6-1.8,13c-0.2,3.3-0.1,6.6,0.3,9.9c0.7,5.4,1.6,10.8,2.7,16.1s1.6,10.4,2.3,15.6c0.8,5.9-0.3,11.5-1,17.3
	c-1,6.4-3.1,12.7-6.2,18.4c-1.1,2.1-1.1,2.7,0,4.1l-1.7,1.6c-3.6-2.2-7.7-3.3-11.9-3.3c-2.9,0-3.4-0.4-3.8-3.2s-0.4-5.7-0.6-8.5
	L185.8,120.9z"/>
<path class="st4" d="M156.6,462.7c0.5-1.9,1-3.5,1.4-5.2c0.3-1.2,0.4-2.3,2.1-2.5c1.5-0.2,1.9-2,1-3.8c-0.7-1.5-0.6-3.2,0.3-4.6
	c0.3-0.8,1.2-1.1,2-0.8c2.5,0.7,5,1.4,7.5,2c1.8,0.4,3.7,0.6,5.5,0.9c0.6,0.1,1.2,0.3,1.8,0.5c0.6,0.4,1.3,0.7,1.9,0.9
	c2,0.4,4.5,0.2,5.9,1.3c1.7,1.4,3.5,1.4,5.4,1.8c2.8,0.5,5.4,1.6,7.8,3.3c1.2,0.9,2.5,1.7,3.9,2.4c3.7,2,8.1,2.2,11.9,0.7
	c1.2-0.4,2.4-0.5,3.6-0.3c1.6,0.2,3.4-0.3,5,0.1s2.7,1.8,4.2,2.2c2.4,0.9,5,1.2,7.6,0.9c0.2-0.1,0.3-0.1,0.5-0.1
	c6,1.4,12.3,1.9,18.5,1.4c0.2,0.3,0.4,0.5,0.3,0.6c-1.1,1.7-0.9,3.9,0.4,5.4c0.1,3.5,0.4,7-1.3,10.3c-0.9,1.8-1.8,3.7-2.7,5.5l-3,6
	c-7.5-1.4-15.2-2.8-22.9-4.2c-0.5-0.1-1-0.2-1.5-0.4c-4.2-1.3-8.5-2.6-12.7-4c-1.8-0.6-3.5-1.4-5.2-2c-9.8-3.2-19.3-7-28.8-10.7
	c-4-1.5-8.1-2.7-12.1-4.2C162,465.1,159.4,463.9,156.6,462.7z"/>
<path class="st5" d="M277.1,421.9c0.3,0.1,0.7,0.1,1,0.1c0.3-0.1,0.5-0.1,0.7-0.3l4.5,8.4l-3.2,2.3c-2.2-3.1-5.3-5.4-5.6-9.5
	c-0.1-0.4-0.2-0.9-0.5-1.2c-0.8-1.9-1.1-2-3-1.2c-2.9,1.3-5.9,2.6-8.8,3.8c-0.4,0.1-0.8,0.2-1.2,0.3c-0.2-0.9-0.3-1.8-0.3-2.7
	c0.1-6-1.3-11.7-2-17.5c-0.6-5-2.3-9.9-3.2-14.8c-1.5-7.9-4.3-15.2-6.7-22.8c-1.4-4.3-3.2-8.5-4.8-12.8c-1.9-5.2-3.6-10.4-5.6-16.2
	c19,6.4,36.8,14,55.1,21.4c-1.7,1.7-3.4,3.2-4.8,4.8c-3.8,4.3-7.5,8.6-9.5,14.1c-2.1,6-3.3,12.2-3.5,18.5c-0.1,1.6-0.3,3.2-0.3,4.8
	c-0.2,3.3,0.1,6.6,0.9,9.8C277.1,414.7,277.9,418.2,277.1,421.9z"/>
<path class="st6" d="M204.9,254c0.3,0,0.5,0,0.8,0c0,0,0.1,0.1,0.3,0.4c-0.3,0.4-0.6,0.7-0.9,1.1c-4.9,3.6-9.4,7.7-13.4,12.2
	c-2.6,2.7-4.5,6.1-7,9c-1.8,2.4-3.5,4.9-4.9,7.6c-1.8,2.7-2.7,5.9-2.6,9.1c0.2,3-0.2,3.3-3.3,2.3c-1.2,2.3-3.7,1.9-5.5,1.9
	c-1.8,0-3.6-1.4-5.2-2.5c-1.6-1.2-3-2.5-4.4-3.9c-0.6-0.5-1-1-1.4-1.6c-1-2.3-2.1-4.5-3-6.9c-0.8-2.2-1.5-4.6-2-6.9
	c-0.6-3.9-0.3-7.8,0.8-11.6c0.8-3.5,1.8-6.9,3-10.2c1.6-4.8,4.1-9.1,7.5-12.8c2-2.4,4.2-4.7,6.5-6.7c1.6-1.5,3.8-2.3,6-2.2
	c0.1,0.9,0.3,1.8,0.4,2.7c0.2,1.4,0.3,2.9,0.4,4.3c0.8,6.4,5.1,9.9,10.5,12.4C193,253.9,199,254.1,204.9,254z"/>
<path class="st6" d="M235.1,295.5c-1.3-1.3-1.7-3.2-1-4.9c0.3-1,0.7-2.4-0.8-3c-0.9-0.4-1.9,0.6-2.4,2.4l-0.4,1.5
	c-0.1,0.4-0.1,0.9-0.3,1.5c-0.8-0.9-1-2.2-0.6-3.4c0.3-1.4,0.6-2.8,0.7-4.2c0.1-2.3,0-4.6-0.3-6.9c-1.8-10-7-18.2-13.9-25.4
	c2.3-0.7,4.6-1.3,6.9-2.2c3.2-1.2,6.4-2.3,9.4-3.8c2.1-1.1,4.1-2.3,6-3.8c2.4-1.8,4.6-3.9,6.9-5.9c2.2,1.1,4,2.8,5.1,5
	c2.6,4.8,4.1,10.1,4.3,15.6c0.4,3.5,0.4,7.1-0.1,10.6c-0.5,2.1-1,4.2-1.7,6.2c-2.3,7.8-7,14-13,19.3c-0.6,0.7-1.5,1-2.4,0.6
	C237,294.5,236,295.2,235.1,295.5z"/>
<path class="st5" d="M115.1,366.7c1.1-1,2.2-1.9,3.4-2.7c2.9-1.8,5.7-3.6,8.7-5.2c3.4-1.8,6.8-3.4,10.3-5c3.5-1.6,7.2-3.2,10.8-4.7
	c3-1.2,6.1-2.3,9.4-3.5c0.4,1.9,0.6,3.8,0.4,5.7c-0.4,3.6-0.4,7.1-0.7,10.7c-0.6,8.2-2,16.3-3.9,24.3c-0.9,3.3-2.1,6.6-3.2,10.1
	c-5.9-5.1-11.6-10-17.4-14.9S121.2,371.7,115.1,366.7z"/>
<path class="st6" d="M133.9,213.7c0.4,0.1,0.8,0.1,1.1,0.1c1.5,0,2-0.3,1.9-1.8c-0.3-3-0.9-5.8-1.2-8.7c-0.5-3.9-0.9-7.8-1.3-11.7
	c-0.2-1.4-0.4-2.8-0.6-4.3c2.6-1.4,5.4-2.4,8.3-3c1-0.1,1.9,0.3,2.7,1c4.3,3.7,7.3,8.7,8.5,14.3c-1.1,0-2.1-0.2-3.2-0.4
	c-1.2-0.3-2.2-0.3-2.7,0.9c-0.5,1.1-0.2,2.4,0.7,3.1c2.4,2.3,3.8,5.3,4.1,8.6c-1.5-0.3-2.9-0.7-4.2-0.9c-2.2-0.4-2.4,0-2.6,2.2
	c-0.2,1.2,0.2,2.4,1.2,3.2c0.9,1,1.5,2.2,1.7,3.5c0.4,1.8,0.7,3.6,0.9,5.4c-3-1.2-5.5-2.3-8.2-3.2c-1.5-0.4-3-0.5-4.5-0.3
	c-0.9,0.2-1.8-0.1-2.4-0.7c-4-3.8-9.7-5.1-14.9-3.5c-2,0.5-3.9,1.1-5.9,1.8c-1.9,0.6-3.6,1.6-4.9,3.1c-1.3,1.6-2.8,3-4,4.6
	c-3.1,3.5-4.7,8.2-4.3,12.8c0.2,3.1,0.5,6.2,1,9.3c0.5,2.7,2,5,4.1,6.6c4,3.4,8.8,3.8,13.6,3.6c2.5-0.1,5.2,0,7.3-2
	c1.2-1.1,2.3-2.1,3.6-3.3c0.3,2.3,0.6,4.6,0.9,7c0,0.5-0.2,1-0.6,1.4c-3.6,3.9-9.3,4.9-14,2.6c-0.6-0.3-1.3-0.5-2-0.6
	c-2.9-0.3-3.5,0.3-3.4,3.3c0,0.4,0,0.9,0.1,1.4c-4.6-2.2-8.5-8.4-11.5-19c-2.2-1-3,0.9-4.3,2.5c-0.4-1.4-0.7-2.9-0.8-4.3
	c-0.1-2.8,0-5.5,0.4-8.2c0.9-6.1,3.6-11.8,7.7-16.4c1.4-1.6,3.3-2.8,5.4-3.2c0.4,0,0.9-0.1,1.3-0.3c1.2-0.6,1.5-1.5,0.5-2.5
	c-1-1-2.5-2.2-4-3.4c4.7-4.5,11.2-6.7,17.7-6C127,208.6,131.2,209.4,133.9,213.7z"/>
<path class="st5" d="M133.6,575.2c-1.3,19.6-6.5,37.8-10.9,56.6c-4.9-2.5-9.3-0.3-14,0.2c-0.6-1.6-1.3-3.2-2.1-4.7
	c-1.1-1.8-2.4-3.5-3.9-5.1c-1.4-1.5-1.5-1.5-0.4-3.4c1.1-1.9,2.1-3.5,3.2-5.2c2.2-3.3,4.4-6.5,6.5-9.8c0.9-1.4,1.7-3,2.7-4.3
	c3.5-4.8,7.2-9.5,10.7-14.3c1.8-2.4,3.7-4.9,5.5-7.2C131.7,577.1,132.5,576.4,133.6,575.2z"/>
<path class="st2" d="M46,635.9c3.6-6.9,17.9-17.9,24.4-17.5l-0.7,6.7c-0.9,0-1.7-0.2-2.5-0.1c-1.2,0.1-1.8,1.1-1,2.1
	c0.5,0.6,1.2,1,1.9,1.2c2.1,0.6,4.3,1.1,6.5,1.7c2.1,0.6,4,1.5,6.1,1.9c2.7,0.6,5.4,1,8.1,1.3c1.7,0.2,3.3,0.2,5,0
	c3.3-0.6,3.6-1.3,3.9-4.6c0.3-1.7,0.8-3.4,1.4-5c0.7,0.5,1.4,1.1,2,1.7c2.1,2.7,3.3,5.9,3.5,9.3c0.9,6.3-1,11.8-4.2,17.1
	c-0.1,0.2-0.3,0.4-0.6,0.7c-1.3-1.2-2.4-2.4-3.6-3.5c-3.7-2.9-7.9-5.3-12.4-6.8c-5.2-2.1-10.6-3.7-16.1-4.9
	c-4.8-0.7-9.7-1.1-14.6-1.2C50.9,635.8,48.6,635.9,46,635.9z"/>
<path class="st6" d="M298.8,457.4c-0.8,0.6-1.6,1.1-2.5,1.5c-5.2,2.1-10.2,4.8-14.8,7.9c-1.1,0.7-2.4,1-3.7,0.7
	c-1.2,0-2.3-0.5-3.2-1.3c-1.4-1.2-2.9-2.4-4.5-3.3c-3.7-2.7-7-5.9-9.7-9.5c-0.7-1.1-1.1-2.4-1-3.7c0.4-5.6,1-11.2,1.5-16.8
	c0.1-1.6,0-3.2,0-5.2c3.1-1.4,6.5-2.9,10.2-4.5c0.5,4.6,3.5,8.5,7.7,10.2c-1.7,1.6-3.1,3.1-4.6,4.6l-7.1,7.3
	c-0.2,0.3-0.5,0.5-0.8,0.7c-2.2,1.6-2.2,1.6-1.6,4.3c0.5,2.4,2.1,4.4,4.4,5.3c1.3,0.4,2.6,0.3,3.8-0.3c0.8-0.3,1.8-1.3,2.7,0.2
	c0.5,0.7,1.4-0.2,2-0.7c2.8-2.4,5.7-4.9,8.5-7.3c0.2-0.2,0.5-0.3,0.8-0.4c2,2.2,4,4.5,6,6.7C294.6,455.6,296.3,457.2,298.8,457.4
	L298.8,457.4z"/>
<path class="st2" d="M103.1,654c3.2-5.8,6.9-11.3,5.8-18.2c3.4-1.8,9.5-2.3,12.5-1c0.4,2.3-0.8,4.5-2.9,5.5
	c-2.1,1.2-3.8,3.1-4.7,5.3c-1,1.9-0.3,4.3,1.6,5.4c0.1,0,0.1,0.1,0.2,0.1c2.2,1.2,4.8,1.7,7.3,1.4c3-0.3,6-1.2,9-1.2
	c2.6-0.2,5.2-0.5,7.8-1c2.6-0.3,4.5-1.9,6.9-2.7l-2-0.9c0.3-0.8,0.6-1.6,1-2.3c0.3-0.4,0.8-0.7,1.3-0.7c4.3,0.4,8.2,2.5,10.9,5.8
	c0,0,0,0.2,0,0.3c-6.8,1.1-12.7,4.5-18.7,7.5c-4,2.3-8.1,4.2-12.3,5.9c-4,1.5-8.3,1.7-12.4,0.5c-1.8-0.8-3.5-1.8-5-3.1
	C106.9,658.7,104.8,656.5,103.1,654z"/>
<linearGradient id="SVGID_1_" gradientUnits="userSpaceOnUse" x1="351.5236" y1="606.9532" x2="385.8799" y2="606.9532" gradientTransform="matrix(6.123234e-17 -1 -1 -6.123234e-17 779.0874 521.7635)">
	<stop  offset="0" style="stop-color:#FFFFFF"/>
	<stop  offset="1" style="stop-color:#000000"/>
</linearGradient>
<path class="st7" d="M200.4,138.2l-5.6,5.5c-0.3,0.3-0.9,0.7-0.9,0.9c0.5,2.2-1.2,2-2.4,2.2c-3.6,0.6-7.3,0.8-10.8,1.6
	c-6.2,1.3-12.3,2.8-17.6,6.6c-3.9,2.6-7.4,5.6-10.5,9c-1.7,2-3.1,4.3-4.6,6.3l-4.2-6.8c1.4-2.1,3-4.6,4.9-7c1.4-1.8,2.8-3.4,4.4-5
	c0.8-0.8,1.8-1.5,2.7-2.2c4.7-4.2,10.5-6.8,16-9.5c4-1.8,8.2-2.9,12.6-3.5c4.1-0.6,8.2-0.4,12.2,0.6
	C197.7,137.1,198.8,137.6,200.4,138.2z"/>
<path class="st6" d="M216.3,431.1c2.4-0.4,4.3,1.2,5.8,3.3c2,2.6,2.8,6,2.1,9.3c-0.7,5-4.1,8.1-7.3,11.5c-8.3,4.7-16.3,1.3-19.1-6.8
	c-0.5-1.5,0-3.4,0-5c0-0.7,0.4-1.4,0.4-2.1c-0.2-1.7,0.9-3.3,2.5-3.8c0.5-0.2,0.9-0.5,1.3-0.9C205.7,432.5,210.5,431.2,216.3,431.1z
	"/>
<path class="st1" d="M185.9,120.8c-2,0.7-3.1,2.8-2.5,4.8c0.4,2.3,1.3,4.6,2,7.1c-1.2,0.3-2.6,0.6-4.1,0.9c-2.4-3.7-3-7.8-3.4-11.9
	c0.6,0.1,1,0.1,1.9,0.3c-0.2-0.8-0.4-1.5-0.6-2.2c-1.1-2.9-2.3-5.8-3.4-8.7c-1.8-4.6-1.8-9.7,0-14.3c0.6-1.7,1.5-2.5,3.3-2.3
	c2.1,3.3,2.1,7.5,4.7,11.1c0-3.4-0.6-6.7-1.9-9.8c-1.3-4.3-2.7-8.5-3.7-12.9c-0.6-2.8-0.7-5.6-0.5-8.4c0.2-3.2,0.9-3.6,4.4-4
	c0.3,0.4,0.9,0.9,0.9,1.4c0.6,3.3,2.4,6.1,3.8,9.1c0.5,1,0.7,2.2,0.4,3.3c-1.6,5.4-1.5,11.2,0.3,16.5c0,0,0,0.2-0.1,0.4
	c-1.7,0-2.1,1.2-2.2,2.8c-0.3,5.4-1.3,10.8,0.7,16.1C186,120.3,185.9,120.6,185.9,120.8L185.9,120.8z"/>
<path class="st8" d="M122.4,467l1.5,12.9c-4.1,1.4-8.2,2.8-12.8,2.1c-4.7-0.6-8.3-4.3-8.8-9c0-1.6,0.3-3.2,0.9-4.7
	c0.1-0.3,0.6-0.6,0.9-0.8c1.5-1,3.2-1.9,4.7-3c0.8-0.6,1.8-0.8,2.7-0.6C115,465.1,118.7,466,122.4,467z"/>
<path class="st8" d="M133.9,474.9c-0.4-1.3-0.7-2.2-1-3.1c-0.7-1.9-1.5-3.8-2.2-5.7c-0.9-2.2-0.7-2.6,1-4.3c2.9-2.8,5.6-5.8,8.3-8.7
	s5-5.7,7.9-8.9l2.6,5.3c-1,1.6-3.6,2.3-3.1,4.9c1.6,1.1,3.7,1.2,5.4,0.3c-0.7,2.6-2.6,4-3.8,5.8c-1.2,2-2.6,3.8-4.2,5.5
	c-1.6,1.7-3.3,3.2-5.1,4.7C137.9,472,136,473.3,133.9,474.9z"/>
<path class="st6" d="M177.7,441.5c-0.3-6.6,4.1-12.5,10.5-14.2c3.7-0.9,6.3,1.3,7.8,4.5c0.3,0.8,0.5,1.5,0.7,2.3
	c0.6,1.7,0,2.8-0.9,4.3c-1.4,2.5-3.2,4.7-5.3,6.6c-1.1,1.1-2.5,1.9-4.1,2.4c-2.5,0.6-5.1,0.1-7.2-1.5
	C178,444.9,177.4,443.2,177.7,441.5z"/>
<path class="st9" d="M256.6,440.9c-0.5,7.1-0.9,14.1-3.6,20.7c-5.6-0.2-11.2-0.9-16.7-2c3-2.2,5.4-5.2,6.9-8.6
	c1.4-3.5,1-6.9-0.1-10.8C247.7,440.1,252.2,440.3,256.6,440.9z"/>
<path class="st9" d="M175.8,446.8c-3.3-0.9-6-1.7-8.8-2.5c-0.4-0.1-0.7-0.7-0.9-1.1c-0.2-0.4-0.4-0.9-0.6-1.3l1.5-4.5
	c1.1-0.7,2.8-1.8,4.5-2.8c2.3-1.3,2.6-2.6,1.4-4.9c-1-2.1-3.5-3-5.6-2c-0.4,0.2-0.8,0.4-1.1,0.7c-0.7,0.6-1.5,1.2-2.4,1.9
	c-1.3-1.4-2.4-2.1-4.1-0.6c-1.2,1-2.9,1.5-2.6,3.6c0.1,0.5-0.1,1.1-0.4,1.5c-1.5,1.4-3.2,2.7-5,3.7c0.6-1.4,1.3-2.8,1.7-4.3
	c1.2-3.9,2.8-7.7,4.7-11.3c0.9-1.6,1.7-2,3.8-1.5c4.5,1.3,9.1,2.7,13.6,4c1.9,0.6,3.9,1,6.3,1.6c-2.9,2.2-5,5.3-6.1,8.9
	C174.2,439.4,174.2,443.4,175.8,446.8z"/>
<path class="st6" d="M225.6,452.2c-0.1-2.2,0.6-4.4,2.1-6.1c1.6-2.4,3.6-4.6,5.9-6.3c2.7-1.8,5.2-1.4,6.5,1.6c1.4,2.9,1.4,6.3,0,9.3
	c-1.5,3.7-4.6,6.5-8.4,7.7c-3.6,1.1-6-0.8-6-4.5L225.6,452.2z"/>
<path class="st6" d="M256.8,460.5l1.5-4.8c3.9,5.4,8.3,9.8,14.6,11.7c0.3,4-1.1,7.3-2.3,10.8c-1.4,0.3-2.9-0.2-3.8-1.3
	c-3-2.5-5.6-5.5-7.8-8.7c-0.3-0.5-0.4-1-0.5-1.5C257.9,464.8,257.4,462.8,256.8,460.5z"/>
<path class="st8" d="M119.4,430.9c0.8,1.6,0.3,2.4-0.7,3.1c-1.9,1.2-3.8,2.4-5.6,3.7c-0.4,0.4-0.7,0.8-0.9,1.2l0.4,0.5
	c2.5-1,5-2,7.7-3.1l0.7,4.3c-1.9,1.5-3.8,2.7-5.4,4.1c-0.9,1-2.5,1.2-3.6,0.4c-2-0.9-4.3-1.2-6.5-0.7c-3.8,0.6-5.5,2.8-5.5,6.6v2.1
	l-3,1.9c0.4-9,5.2-14.9,12.5-19.3C112.6,434,115.9,432.6,119.4,430.9z"/>
<path class="st6" d="M276.2,470.9c7-1.5,12.6-5.6,19.2-8.6c-0.3,1-0.4,1.6-0.5,2.1l-2.2,6.8c-0.1,0.8-0.7,1.5-1.5,1.7
	c-4.9,1.8-9.8,3.7-14.7,5.6c-0.8,0.3-1.6,0.6-3,1.2L276.2,470.9z"/>
<path class="st1" d="M174.2,192.8c0.3-4.2,0.6-8.1,3.1-11.3c0.8-1.3,2.4-1.7,3.7-0.9c0.4,0.2,0.7,0.6,1,1c1.5,2.2,2.5,4.8,2.7,7.5
	c0.3,5.1-0.1,10.1-1.2,15.1c-0.1,0.2-0.2,0.5-0.3,0.7c-0.5-2.6-0.9-4.9-1.5-7.2c-0.4-1.1-1-2.1-1.7-3
	C178.6,192.9,176.7,192.7,174.2,192.8z"/>
<path class="st0" d="M214.1,309.2c-0.8,5.3-3.5,8.3-7.9,9.2c-5.8,1.3-11.8-0.8-15.6-5.4c-0.2-0.3-0.4-0.6-0.5-0.9
	c0-0.1,0.1-0.3,0.2-0.8C198.1,314,206.8,313.3,214.1,309.2z"/>
<path class="st6" d="M303,416.1c0,2.8,0,5.5,0,8.1c0.1,3.3,1.1,6.3,4.5,7.9c-2.6,2.2-4.9,2.2-7.2,0.4c-3.7-2.9-4.7-10.6-2.8-13.4
	C298.7,417.1,300.8,416,303,416.1z"/>
<linearGradient id="SVGID_2_" gradientUnits="userSpaceOnUse" x1="370.9094" y1="625.9911" x2="385.2024" y2="625.9911" gradientTransform="matrix(6.123234e-17 -1 -1 -6.123234e-17 779.0874 521.7635)">
	<stop  offset="0" style="stop-color:#FFFFFF"/>
	<stop  offset="1" style="stop-color:#000000"/>
</linearGradient>
<path class="st10" d="M149.3,150.9c-1.8-1.2-2.2-3.1-2.6-5c-0.1-0.4,0-0.9,0.3-1.3c2.5-2.9,5-5.8,8.5-7.5c2.2-1,3-0.6,3.5,1.8
	c0.8,3.8,0.8,3.9-2.3,6.2C154.3,147,151.9,148.9,149.3,150.9z"/>
<path class="st8" d="M155.1,457.4c-1.2,6-4.3,10.3-7.4,14.5c-3.1,4.3-7.9,6.8-12.4,9.6c-1.4-2.4-1.3-3.2,0.8-4.8
	c2.8-2.2,5.7-4.2,8.3-6.6c2-1.9,3.8-3.8,5.5-6C151.5,462.1,153.1,459.9,155.1,457.4z"/>
<path class="st0" d="M107.7,462.6c-2.8,1.7-5.9,2.9-9.2,3.4c-0.3,0.1-0.5,0.1-0.8,0.1c-1.2,0-2.5,0.1-3.2-1.2
	c-0.6-1.2-0.3-2.7,0.7-3.6c1.9-2.1,3.8-4.2,5.6-6.2L107.7,462.6z"/>
<path class="st0" d="M118.4,415.2l-2.7,0.3c-0.2,0.2-0.4,0.5-0.6,0.8c-0.4,1.1-0.4,2.5-1.8,2.7c-1.9,0.4-3.7,1.2-5.7,0
	c-1.8-0.9-2.5-3-1.7-4.8c0.1-0.3,0.3-0.6,0.5-0.8c0.8-1,1.7-2.1,2.7-3.3c0.6,0.2,1.3,0.3,2.1,0.6c1.4,0.7,2.9,1.3,4.5,1.7
	C117.2,412.6,118.3,413.8,118.4,415.2L118.4,415.2z"/>
<path class="st1" d="M134.4,165.9c1.8-0.9,3.8-1,5.7-0.3c3.4,1,5.4,4.6,4.4,8c-0.3,0.9-0.7,1.7-1.3,2.4c-1.3,1.7-3.8,2-5.5,0.6
	c-0.2-0.2-0.4-0.4-0.6-0.6C134.5,173,132.7,169.9,134.4,165.9z M140.4,168.1c-2,0.1-3.7,1.6-3.9,3.6c0,2.3,1.1,3.5,3.1,3.5
	c2.1-0.3,3.6-2.2,3.5-4.3C143.1,169,142.2,168.1,140.4,168.1L140.4,168.1z"/>
<path class="st0" d="M117.9,427.3h1l0.2-0.4c-0.6-0.3-1.3-1-1.9-1c-2.1-0.1-2.8-1.5-3.2-3.2c2-2.1,3.5-4.7,4.5-7.5l0,0
	c1.7,0.9,3.4,1.9,5.2,2.9c-0.1,0.5-0.3,0.9-0.5,1.4c-1.1,2.1-1.9,4.4-2.3,6.8C120.6,428,119.4,428.3,117.9,427.3L117.9,427.3z"/>
<path class="st1" d="M205.4,176.5c3.4,4.5,5.6,9.8,6.3,15.5c-2.5-2.4-4.2-5.4-8.1-4.5C203.6,183.9,202.3,180.1,205.4,176.5z"/>
<path class="st4" d="M271.1,444.4c1.7,2.8,3.7,5,6.8,6c-1,3-3.1,3.1-5.4,2.9c-2.3-0.2-3.6-1.1-4.2-3
	C267.5,447.4,269.6,446.2,271.1,444.4z"/>
<path class="st6" d="M307.9,428.5c-2.3-3.8-1.5-8.1-1.7-12.1l0.7-0.3c0.6,0.6,1.4,1.1,1.7,1.8c1.3,2.7,1.8,5.8,1.6,8.8
	c0,1-0.8,1.9-1.8,2C308.2,428.6,308,428.6,307.9,428.5z"/>
<path class="st4" d="M280.2,448.7c-3.3-1-5.1-3.3-6.8-6l2.7-3c1.3,3.5,3.4,5.7,7.6,6L280.2,448.7z"/>
<path class="st4" d="M286.8,431.3c2.5,4,3.8,5,7.3,6c-2.7,2.3-6.2,2.6-7.8,0.6c-1-1.3-1.3-3-1-4.6
	C285.4,432.6,286.1,432.1,286.8,431.3z"/>
<path class="st4" d="M282,434.8c0.5,3.8,2.2,6.2,6.3,6.9l-2.4,2c-3.1-0.2-5.6-1.2-6.5-4.5C278.9,437.6,279.3,436.9,282,434.8z"/>
<path class="st8" d="M152.1,447.7l-1.2-5.3l5.9-4.2l1.6,1.9L152.1,447.7z"/>
<linearGradient id="SVGID_3_" gradientUnits="userSpaceOnUse" x1="374.9568" y1="577.1277" x2="381.3341" y2="577.1277" gradientTransform="matrix(6.123234e-17 -1 -1 -6.123234e-17 779.0874 521.7635)">
	<stop  offset="0" style="stop-color:#FFFFFF"/>
	<stop  offset="1" style="stop-color:#000000"/>
</linearGradient>
<path class="st11" d="M206.4,142.6c-1.7,1.4-3.5,2.6-5.3,3.8c-1.2,0.3-2.4,0.5-3.6,0.4c0.9-3,3.1-4.5,5-6.3c0.3-0.3,1.2-0.1,1.7,0.2
	C205,141.3,205.7,141.9,206.4,142.6z"/>
<path class="st4" d="M293,427.9l4.3,7.2c-0.7,0.6-1.2,0.9-2.4,0.1c-1.1-0.8-2.8-1.1-3.7-2.4c-0.3-0.3-0.5-0.7-0.8-1.1
	c-0.9-1.7-0.6-2.6,1.1-3.4C292.1,428.2,292.6,428.1,293,427.9z"/>
<path class="st8" d="M109.9,484.8c4.7,1.1,8.7-0.4,12.7-1.5c0.8-0.2,1.9-1.3,2.5,0.1c0.6,1.4-0.9,1.8-1.8,2.1
	c-4.1,1.3-8.2,2.2-12.4,0.3C110.6,485.7,110.5,485.4,109.9,484.8z"/>
<linearGradient id="SVGID_4_" gradientUnits="userSpaceOnUse" x1="337.3502" y1="639.3953" x2="343.384" y2="639.3953" gradientTransform="matrix(6.123234e-17 -1 -1 -6.123234e-17 779.0874 521.7635)">
	<stop  offset="0" style="stop-color:#FFFFFF"/>
	<stop  offset="1" style="stop-color:#000000"/>
</linearGradient>
<path class="st12" d="M134.6,184.4c-0.6-2.1,0.6-3.4,1.1-4.9c1.5,0.5,3.1,0.7,4.7,0.7c1.6-0.4,3.2-1.1,4.6-1.9c0,1,0.2,1.8-1.1,2.3
	c-2.5,0.9-4.9,2-7.3,3.1C135.9,184,135.4,184.2,134.6,184.4z"/>
<path class="st1" d="M174.5,196.5c1.5-0.8,2.6-0.4,3.2,0.5c0.6,1.1,0.9,2.3,1,3.5c0,0.2-0.9,0.8-1.4,0.8c-1.3,0.1-2.5-0.9-2.6-2.2
	C174.6,198.3,174.5,197.4,174.5,196.5z"/>
<path class="st1" d="M204.1,197.2l-0.7-5.7c1.5-1.3,2.7-1.2,3.9,0.3C206.7,193.7,206.7,195.9,204.1,197.2z"/>
<path class="st8" d="M160,431.8c0.4,0.5,0.7,1,1,1.6c0.7,1.7,1.3,3.4,1.9,5.2c0,0.5,0,0.9-0.1,1.4c-0.4,0-1,0-1.2-0.2
	c-0.8-0.8-1.5-1.9-1.9-3C159.6,435.1,159.7,433.4,160,431.8z"/>
<path class="st8" d="M154.4,447.9c0.8-0.8,1.6-1.5,2.4-2.3l3.1-2.7c-0.3,1.9-1,3.7-2,5.3c-1,0-2.2,0.1-3.3,0.2L154.4,447.9z"/>
<path class="st9" d="M194.8,450.7l-4.4-0.9l4-3.9L194.8,450.7z"/>
<path class="st13" d="M168.2,429.6c2,0.1,2.8,0.8,2.6,2c-0.1,0.7-1.5,1.8-2.2,1.5C166.8,432.2,168.4,430.9,168.2,429.6z"/>
<linearGradient id="SVGID_5_" gradientUnits="userSpaceOnUse" x1="372.9107" y1="571.2582" x2="376.4205" y2="571.2582" gradientTransform="matrix(6.123234e-17 -1 -1 -6.123234e-17 779.0874 521.7635)">
	<stop  offset="0" style="stop-color:#FFFFFF"/>
	<stop  offset="1" style="stop-color:#000000"/>
</linearGradient>
<path class="st14" d="M205.6,147.2l2.9-1.8l1.6,3.2l-0.4,0.4C208.4,148.3,207.2,147.8,205.6,147.2z"/>
<path class="st9" d="M227.2,438.2c1.2-0.1,2.1-0.2,3.6-0.3l-3,2.9L227.2,438.2z"/>
<path class="st13" d="M164.3,433.3c2.1,0.5,2.2,1,0.8,3.1C163.9,435,163.9,435,164.3,433.3z"/>
<path class="st9" d="M202.4,432.2l-2.5,2.4l-0.7-3L202.4,432.2z"/>
<path class="st9" d="M222.9,456.8h-2.8l2-3.1L222.9,456.8z"/>
<path class="st0" d="M123.1,414.9l2.7,0.3C125,416.5,125,416.5,123.1,414.9z"/>
<path class="st1" d="M173.7,299.2H171C171.8,298.8,172.7,298.1,173.7,299.2z"/>
<path class="st1" d="M228.6,519.2l1.6-1.1C230,519.3,229.4,519.4,228.6,519.2L228.6,519.2z"/>
<path d="M165.5,516.5l-0.6,1.9c-2.7,0.3-5.2,0.5-7.6,1c-2.4,0.7-5,1-7.6,0.7c0.3-0.6,0.4-1.2,0.7-1.4
	C153.8,516.6,161.4,515.3,165.5,516.5z"/>
<path d="M155.9,183c-1.4-1.9-1.8-4.5-1-6.7c0.5-2.2,1.2-4.3,2.2-6.3c0.9-2.2,2.6-3.9,4.7-4.9c3.2-1.4,6.5-2.6,9.7-3.8
	c2.8-1.1,5.7-1.9,7.7-4.5c0.7-0.8,1.9-0.9,2.7-0.3c0.3,0.2,0.5,0.5,0.6,0.9c0.5,1.1,0.6,2.4,0.5,3.6c-0.4,3.1-2.4,5.7-5.3,6.9
	c-2.8,1.2-5.6,2.3-8.4,3.4c-4.6,1.7-8.6,4-10.9,8.5c-0.2,0.5-0.4,1-0.7,1.4C157.2,181.8,156.6,182.4,155.9,183z"/>
<path d="M107.7,247.2c-1.5-0.8-1.1-1.7-0.9-2.5c0.9-3.2,2.7-6.1,5-8.4c3.1-3,6.5-5.9,10.8-7.1c2.4-0.9,5.1-1,7.6-0.5
	c0,2.3,0,2.5-1.7,2.4c-2.2,0-4.4,0.5-6.4,1.5c-2.4,0.9-4.5,5.8-3.2,7.9c0.4,0.6,1,1,1.7,1.1c1,0,1.9,0,2.9-0.3
	c0.8-0.1,1.6-0.4,2.6-0.6c-0.8,2.4-3,4.1-5.5,4.2c-2.3,0.2-4.4-1.4-4.9-3.7l-0.8-3.2C111.5,240.5,110,244.1,107.7,247.2z"/>
<path d="M121.3,123.3c-2.3,1.7-3.9,0.3-5.5-0.3c-1.2,1.8-1.2,5.3-0.4,8.8c0.6,3.1,2.5,5.8,5.1,7.6c-1.3,0.3-2,0.4-2.8,0.5
	c-0.3,2.5,0.3,5.1,1.5,7.3c1,2.1,3.1,3.6,3.5,6l-0.5,0.5c-1-0.5-2-1.2-2.9-2c-3-3.8-5.2-7.9-4.2-13.1c0.1-0.6,0-1.2-0.3-1.7
	c-1.9-3.8-2.8-8-2.5-12.2c0-0.8,0.2-1.6,0.7-2.2c0.8-1,0.9-2.4,0.2-3.5c-2.6-5.2-2.5-10.7-1.4-16.2c0.3-2,1.9-3.6,3.9-3.9
	c0.4,0,0.9,0.3,1.3,0.5c-0.1,0.4-0.1,0.6-0.2,0.7c-3.7,2.4-3.7,6-3.1,9.7c0.3,2.5,0.7,4.9,1.4,7.3
	C115.7,120.3,118.1,122.7,121.3,123.3z"/>
<path d="M140.4,168.1c1.8,0,2.7,0.9,2.7,2.8c0.1,2.1-1.4,4-3.5,4.3c-2,0-3-1.2-3.1-3.5C136.7,169.7,138.3,168.1,140.4,168.1z"/>
</svg>
