<?xml version="1.0" encoding="utf-8"?>
<!-- Generator: Adobe Illustrator 22.1.0, SVG Export Plug-In . SVG Version: 6.00 Build 0)  -->
<svg version="1.1" id="Calque_1" xmlns="http://www.w3.org/2000/svg" xmlns:xlink="http://www.w3.org/1999/xlink" x="0px" y="0px"
	 viewBox="0 0 760.4 290.7" style="enable-background:new 0 0 760.4 290.7;" xml:space="preserve">
<style type="text/css">
	.st0{fill:#FFF435;}
	.st1{fill:#FFFFFF;}
	.st2{fill:#91AEEB;}
	.st3{fill:#FFE37C;}
	.st4{fill:#FFE0C3;}
	.st5{fill:#E1F8EA;}
	.st6{fill:none;}
	.st7{fill:#FF0000;}
	.st8{fill:#4271D6;}
	.st9{fill:url(#SVGID_1_);}
	.st10{fill:url(#SVGID_2_);}
	.st11{fill:url(#SVGID_3_);}
	.st12{fill:#A67C52;}
</style>
<title>avion</title>
<polygon class="st0" points="529.6,66.1 540.2,63.5 548.3,93.3 544.5,99.4 540.8,101.4 532,97.1 528.2,92.6 526.7,91.9 525.3,96 
	524.5,94.7 521.6,89.4 519.8,81.4 518.1,81.4 518.1,78.9 522.4,71.4 "/>
<path d="M543.4,249c-2.6,1.8-4.9,3.5-7.2,5.2c-2.7,2-5.4,4-8.1,6c-3.7,2.9-7.5,5.5-11.4,8c-1.1,0.7-2.2,1.5-3.2,2.3
	c-3.2,2.5-6.5,4.6-10.1,6.4c-2,1-3.6,2.5-5.8,3.2c-1.2,0.5-2.2,1.1-3.2,1.9c-2.2,1.6-4.7,2-7.2,2.5c-3.9,0.7-7.8,1.2-11.7,1.6
	c-2.6,0.2-5.2,0.7-7.8,0.3c-0.5-0.1-1.1-0.1-1.6,0c-2.6,0.6-5.4,0.3-8,0.6c-3.7,0.4-7.4-0.1-11.1,0.9c-1.2,0.2-2.5,0.3-3.8,0.2
	c-1.4,0.1-2.8,0.3-4.3,0.4c-1.6,0.1-3.2,0.2-4.8,0.1c-4.6-0.2-9.3-0.3-13.9-0.7c-3.8-0.4-7.7-0.8-11.2-2.9c-1.8-1.1-2.3-2.3-1.8-4.3
	c0.4-1.3,0.7-2.5,1.2-3.8c1.1-2.5,2.6-4.8,4.6-6.7c1.9-1.9,3.5-4,5.4-6s3.9-3.9,5.9-5.8c4.5-4.5,9-9,13.4-13.5
	c2.7-2.7,5.2-5.6,7.8-8.4c0.6-0.7,1.3-1.2,1.9-1.9c1.4-1.5,2.9-3,4.3-4.6c1-1.1,2.1-2.3,3.1-3.5c-0.2-0.1-0.4-0.2-0.6-0.3
	c-3.9-0.3-7.8-1-11.6-2c-3.8-0.9-7.6-1.5-11.3-2.8s-7.5-1.6-10.6-4c0,0-0.1-0.1-0.2-0.1c-3-0.3-5.2-2.6-8-3.5
	c-0.5-0.2-1-0.5-1.4-0.8c-3.6-2.2-7-4.8-10-7.7c-0.7-0.8-1.6-1.4-2.4-2.2c-3.7-3.9-6.8-8.4-9.1-13.2c-1.8-4-2.9-8.2-3.4-12.6
	c-0.4-2.5-0.8-4.9-1.2-7.4c-1.4-1.1-2.5-0.8-3.8,0.2c-3.1,2.3-6.2,4.5-9.3,6.7c-4,3-7.9,6-11.9,8.9s-7.9,5.7-11.9,8.6
	c-1.4,1-2.6,2.3-4,3.3c-3,2.2-6,4.3-9,6.5c-0.2,0.1-0.4,0.2-0.6,0.4c-2,1.1-4.1,2.1-6.1,3.3c-0.5,0.3-1.1,0.8-1.1,1.3
	c0,2.1,0.1,4.3,0.3,6.4c0,0.5,0.4,0.9,0.4,1.4c0.1,0.6,0.1,1.3-0.1,1.9c-0.5,0.9-1.2,1.8-1.9,2.6c-0.5,0.5-1.4,0.5-1.9,0
	c-0.1-0.1-0.2-0.3-0.3-0.5c-0.3-0.8-1.2-1.2-2-1.1c-3.1,0.1-6.2,0.1-9.3,0.2c-4.7,0.2-9.4,0.5-14.1,0.7c-2.3,0.1-4.7,0.1-7,0.2
	c-4,0.2-8.1,0.4-12.1,0.6c-4.4,0.1-8.7,0-13,0.2c-2.8,0.1-5.6,0.4-8.4,0.5c-1.4,0.1-2.8,0-4.1,0.1c-4.2,0.2-8.3,0.4-12.5,0.7
	c-4.4,0.3-8.7,0.5-13.1,0.8c-2.7,0.2-5.3,0.6-8,0.9c-2,0.2-4,0.3-6,0.4c-3.5,0.2-7,0.5-10.5,0.6c-3.8,0.2-7.5,0.4-11.3,0.5
	c-4.5,0.2-9,0.3-13.6,0.5c-4.5,0.2-9.1,0.4-13.6,0.7c-3,0.2-6.1,0.6-9.1,0.9c-2.1,0.2-4.3,0.3-6.4,0.4c-4,0.3-8,0.7-11.9,1.1
	c-4.4,0.4-8.8,0.9-13.2,1.4c-0.5,0.1-1.1,0-1.6,0.1c-3,0.3-5.9,0.7-8.9,0.9c-3.5,0.3-7,0.6-10.5,1c-4,0.4-8,0.9-11.9,1.4
	c-3.8,0.5-7.7,1.2-11.5,1.7c-4.5,0.6-9,1.3-13.5,1.9c-6.1,0.8-12.2,1.6-18.2,2.6c-5.6,0.8-11.3,1.3-17,1.4
	c-4.8,0.2-9.5,0.2-14.3,0.4c-2,0.1-4,0.6-6,0.6c-1.5,0-3.2,0.2-4.4-1.4c0.4-0.9,1-1.7,1.8-2.3c1.5-1.3,3-2.7,4.4-4.1
	c3.5-3.4,7.1-6.8,10.7-10.1c2.1-1.9,4.3-3.6,6.3-5.5c4.3-4.2,9-8,13.6-11.9c1.8-1.5,3.8-2.8,5.6-4.2c3.6-2.8,7.2-5.7,10.8-8.6
	c2.2-1.8,4.3-3.7,6.6-5.6c0.8-0.6,1.7-1.2,2.6-1.6l3-1.9c-1.1-0.3-1.8-0.5-2.5-0.7c-2.3-0.6-4.6-1.1-7-1.7c-3.8-1-7.6-2-11.4-3
	c-2.2-0.6-4.4-1.2-6.5-1.9c-3.9-1.2-7.9-2.5-11.8-3.8c-2.8-0.9-5.5-1.9-8.3-2.8c-2.3-0.7-4.7-1.4-7.1-1.9c-2.7-0.7-5.5-1.2-7.9-2.8
	c-0.6-0.3-1.2-0.6-1.8-0.7c-2.1-0.6-4.2-1.3-6.3-1.9l-0.5-1.8L0,163c0.1-0.3,0.2-0.5,0.3-0.6c4.4-1,8.7-2,13-2.7
	c3.9-0.7,7.8-1.2,11.7-1.7c3.4-0.4,6.8-0.8,10.1-1.2c3-0.4,6-0.7,9-1.1s6.3-0.9,9.4-1.3c2.2-0.3,4.4-0.3,6.6-0.6
	c1.7-0.2,3.3-0.5,5-0.8c4.2-0.6,8.5-1.1,12.7-1.8s8.7-1.4,13.1-1.7c3.4-0.3,6.7-0.7,10.1-1.1c4.4-0.5,8.9-1.2,13.3-1.7
	c2.6-0.3,5.1-0.4,7.7-0.6c5.5-0.4,11-0.9,16.4-1.3c2.8-0.2,5.5-0.3,8.2-0.5c5.8-0.3,11.6-0.6,17.4-0.8c5.8-0.2,11.4-0.2,17-0.4
	c4.8-0.1,9.6-0.4,14.4-0.6c3.8-0.2,7.6-0.3,11.4-0.5c3.2-0.2,6.4-0.6,9.7-0.5c3.9,0,7.7-0.4,11.6-0.6c3.2-0.1,6.4-0.4,9.6-0.6
	c1.1-0.1,2.3-0.1,3.4-0.1c3.9-0.1,7.8-0.3,11.6-0.4c3.1-0.1,6.2-0.2,9.3-0.3c5.2-0.1,10.4-0.3,15.6-0.4c6-0.1,12-0.2,18-0.4
	c5.2-0.2,10.4-0.4,15.6-0.7c3-0.2,6.1-0.4,9.1-0.6c0.9-0.1,1.3,0.2,1.5,1.1c0.4,3.3,0.9,6.6,1.4,10.1c1.1,0.2,2.2,0.4,3.3,0.7
	c2.9,0.6,5.7,1.2,8.6,1.8c4.5,1,9.1,1.8,13.7,2.9c3.1,0.8,6,2,9,2.9c2.8,0.9,5.6,1.6,8.5,2.3c4.2,1.1,8.3,2.1,12.5,3.1
	c0.9,0.2,1.9,0.4,2.8,0.7c1,0.4,2.1,0.1,2.7-0.8c-0.3-2.7-0.6-5.4-0.8-8.2c-0.1-2.8-0.4-5.5-0.9-8.3c-4,0-7.8,0-11.6,0
	c-2.5,0-4.9-0.1-7.3-0.4c-1.9-0.3-3.6-1.6-4.4-3.3c-0.3-0.7-0.3-1.5,0-2.2c0.7-2.2,2.6-3.5,3.9-5.2c2.3-3.1,5.4-5.4,8.1-8.1
	c3.4-3.3,6.9-6.7,10.3-10c0.5-0.4,0.8-1,0.7-1.7c-0.3-2.4-0.5-4.9-0.6-7.3c-0.2-4.4-0.3-8.9-0.4-13.3c-0.1-4.7-0.2-9.5,0-14.2
	c0.2-2.7,0.6-5.5,1.1-8.2c0.6-2.9,3-5.1,5.9-5.4c2.7-0.3,5.5-0.2,8.1,0.5c0.9,0.2,1.8,0.6,2.6,1c2.3,1.2,4.7,2.4,6.9,3.8
	c2.5,1.5,4.9,3.1,7.3,4.8c2.2,1.6,4.3,3.3,6.3,5c3.7,3.4,6.4,7.8,7.7,12.6c0,0.2,0.1,0.5,0.2,0.7c0.2,0.4,0.5,0.7,0.7,1.1
	c2.2-0.1,4.4-0.3,6.6-0.3c1.4,0,2.7,0.3,4,0.7c1.4,0.5,1.7,1.4,1,2.7c-0.4,0.8-1,1.5-1.6,2.1c-2.1,2.2-4.3,4.4-6.5,6.6
	c-0.4,0.3-0.8,0.6-1.2,0.8c1.8,8.9,0.9,18.1,1.6,27.1c1.7-0.1,3.3-0.2,4.9-0.2c4.6-0.1,9.2-0.2,13.8-0.3c4.4-0.1,8.8-0.1,13.1-0.4
	c7.9-0.6,15.8-0.9,23.7-1c5.2-0.1,10.3-0.2,15.5-0.4c3.9-0.1,7.8-0.4,11.7-0.6c1.8-0.2,3.5,0.1,5.1,1c1-0.9,2.1-1.7,3-2.7
	c0.6-0.6,1.4-0.9,2.2-1.1c2.6-0.5,5.2-0.7,7.8-0.4c1.1,0.2,1.9,1.3,1.7,2.5c-0.1,2-1.2,3.6-1.8,5.4c-0.3,0.8-0.7,1.5-1.1,2.4
	c4.1,0.1,7.9-1.1,11.9,0.1l0.7-2.2c1.1-3,2.1-6.1,3.3-9.1c1.2-3,3.4-5.4,6.3-6.9c0.2-0.1,0.4-0.3,0.5-0.5h-2.8
	c-3.2-6.3-4.8-12.9-3.2-19.7l-3.2-1.2c-1.3,1.4-3.1,1.5-5.2,1.2c-4.4-0.7-8.3-3-11-6.4c-0.5-0.7-1-1.5-1.5-2.3
	c-0.6,0.6-0.8,1.5-0.6,2.4c0.1,0.3,0.2,0.7,0.3,1c0,1-0.6,1.4-1.5,0.9c-0.4-0.2-0.7-0.5-1-0.8c-1-1.4-1.9-2.9-2.7-4.4
	c-1.3-2.8-2.5-5.6-2.1-8.8c0-0.2,0-0.5-0.1-0.7c0,0-0.1,0-0.3-0.1c-0.1,0.2-0.2,0.4-0.3,0.6c-0.1,0.6-0.2,1.3-1,1.2
	s-1.1-0.7-1.1-1.4c-0.1-1.1,0-2.3,0.1-3.4c0.5-4.6,2.9-8.2,6.3-11.1c2.6-2.5,5.9-4.1,9.5-4.7c0.8-0.1,1.7,0,2.5,0.2
	c0.4,0,0.7,0.4,0.7,0.8c0,0.1,0,0.2-0.1,0.3c-0.1,0.3-0.6,0.7-0.8,0.7c-2.3-0.4-4.3,0.5-6.1,1.5c-4.6,2.5-8.3,5.8-9.8,11
	c-0.1,0.3-0.1,0.7-0.1,1c0.5-0.4,0.9-0.6,1.2-0.9c0.6-0.4,1.2-0.9,1.9-0.3c0.5,0.5,0.5,1.3,0.1,1.8c-0.7,1.6-1,3.3-0.7,5.1
	c0.2,2.3,0.9,4.6,2.1,6.6c0.3,0.6,0.7,1.2,1,1.9c1.3-1,1.2-3.5,3.7-3.2c1.2,4.7,5,6.9,9,8.5c2.1,0.8,4.4,1.5,7,0.3
	c-1.1-2.8-2.4-5.5-3.8-8.2c-0.5,0.1-1.1,0.2-1.6,0.4c-3.7,1.4-8,0.5-10.7-2.4c-1.2-1.3-2.1-2.9-2.8-4.6c-1.5-3.3-1.5-7-0.2-10.3
	c1-2.8,4.9-7,9.5-6.8c0.4,0,0.8,0,1.4,0c0.5-6.2,0.7-12.3,2.2-18.5c-1,0-1.9,0.1-2.8,0.3c-3.1,1.1-6.1,2.4-9.2,3.6
	c-2.3,0.9-4.6,1.7-6.8,2.6c-1.5,0.6-2.8,1.3-4.3,1.8c-2.3,0.8-4.6,1.7-6.9,2.3c-2.3,0.7-4.7,1.2-7.1,1.7c-2.8,0.5-5.6-0.3-7.6-2.3
	c-0.4-0.3-0.8-0.4-1.3-0.3c-3.8,0.7-7.5,1.5-11.3,2.1c-1.8,0.3-3.7,0.5-5.5,0.8c-1.1,0.3-2.3,0.5-3.5,0.6c-2.3-0.1-4.5-0.4-6.7-1
	c-0.9-0.3-1.6-1.5-2.3-2.3c-0.3-0.4-0.5-0.9-0.7-1.3c-1.1,0.3-2.1,0.5-3.1,0.8c-3.3,0.8-6.5,2.2-9.9,2.4c-0.8,0.1-1.7,0.1-2.5,0.1
	c-2.7-0.2-3.3-1.9-2.4-4.3c0.4-0.9,1.1-1.6,1.9-2.1c3.7-3,7.8-5.3,12.3-6.9c4.1-1.5,8.2-3.1,12.3-4.4c2.8-0.9,5.8-1.6,8.7-2.4
	c3.8-1.1,7.6-2.3,11.4-3.2c4-1,8.1-2.2,12.3-2.4c1.2-0.2,2.5-0.4,3.7-0.8c-0.1-1-0.8-1-1.4-1c-2.3,0.1-4.5,0.3-6.8,0.3
	c-1.7,0-3.3-0.1-5-0.3c-2.2-0.2-4.1-1-4.5-3.5c-4.5,0.3-9,0.4-13.5,0.1c-1.3-0.2-2.5-0.7-3.6-1.5c-0.6-0.3-0.8-1-0.5-1.6
	c0.1-0.1,0.1-0.2,0.2-0.3c1.6-2,3.1-4.2,5.9-4.9s5.3-1.8,8.1-2.3c3.2-0.6,6.5-1,9.8-1.2c4.5-0.4,8.9-0.6,13.4-0.9c0.8,0,1.5,0,2.3,0
	h7.5c4.2,0,8.5,0,12.7,0c3.8,0,7.7,0,11.5,0.1c2.5,0.1,5,0.4,7.5,0.5c1.3,0.1,2.5,0,3.8,0.1c1.1,0.1,2.1,0.2,3.2,0.3s2,0.2,3,0.5
	s2.2,0.7,3.4,1c3.2,0.6,5.6,3.2,6,6.4c0.3,1.8,0.7,3.6,1.1,5.5c1.5,0,2.8-0.1,4.2,0c4,0.3,7,2,8.7,5.8c0.2,0.5,0.6,1,1,1.4
	c1.6,1.4,2.7,3.3,3,5.4c0.7,3,0.7,6.1,0,9.1c-0.1,0.9-0.1,1.8,0.1,2.6c0.1,1.4,0.2,2.8,0.3,4.5c1.5-0.5,2.8-1,4.2-1.5
	c1.5-0.5,3.1-0.9,4.6-1.4c2.2-0.5,4.5-0.1,6.4,1c2.4,1.2,3.3,3.5,4,5.9c1,3.5,0,6.9-1.3,10.1c-2.2,5.2-5.8,9.8-10.3,13.3
	c-0.1,0.1-0.1,0.2-0.2,0.4l4.4,6.3c0.6-0.4,1.2-0.8,1.8-1.1c2.2-1.4,4.3-2.9,6.5-4.2c4-2.4,8-4.7,12.1-7c2.8-1.6,5.7-3,8.5-4.6
	c4.3-2.5,8.6-5,12.9-7.5c3.4-2,6.7-3.9,10.1-5.8c1.7-0.9,3.4-1.8,5.3-2.8l-0.2-3.3c-0.4-3.6,1.4-7.1,4.5-9c1.9-1.4,3.8-2.9,5.5-4.5
	c1-0.9,2.5-1.2,3.8-0.6c0.4,0.2,0.9,0.3,1.5,0.6c0.2-1.4,0.3-2.6,0.4-3.8c0.6-4.7,1.2-9.4,1.8-14s1.2-9.4,1.8-14.2
	c0.3-2.6,1.4-3.6,4.1-3.8c1.1-0.1,2.2-0.3,3.3-0.6c3.2-0.7,6.3-1.5,9.4-2.2c0.6-0.1,1.3-0.3,1.9-0.5c3.1-0.7,6.3-1.5,9.4-2.1
	s6.4-1.3,9.7-1.9c2.2-0.4,4.5-0.6,6.8-1c1.3-0.2,2.6-0.5,3.9-0.7c0.6-0.1,1.2-0.2,1.5,0.5c0.3,0.5,0.1,1.2-0.5,1.5c0,0,0,0-0.1,0
	c-0.9,0.5-0.8,1.4-0.8,2.2c-0.3,4.2-0.5,8.5-0.9,12.7c-0.3,3.2-0.7,6.4-1,9.6c-0.2,2.1-0.3,4.3-0.3,6.4c0,0.7,0.2,1.4,0.5,2
	c0.3,0.6,0.4,1.2-0.2,1.6s-1.1,1.4-2.1,1.1c-0.3-0.1-0.5-0.5-0.9-1c-7.2,0.9-14.5,2-21.8,2.8s-14.3,2-21.6,3.2
	c0.5,1,1.1,0.8,1.7,0.6c1.6-0.4,3.3-0.2,4.7,0.5c1.2,0.5,2.2,1.3,3.1,2.3c1.3,1.4,1.1,2.6-0.3,4.2c0.4,0.9,0.7,1.9,1.2,2.8
	c0.5,1,0.4,2.2-0.3,3.1c-0.6,0.7-0.7,1.8-0.3,2.7c0.1,0.4,0.2,0.8,0.3,1.2c0.5,1.5-0.2,3.1-1.7,3.7c-0.6,0.3-1,0.6-0.9,1.3
	c0.5,3.1-1,5.2-3.5,6.8c-2,1.3-4,2.6-6,4c-0.4,0.3-0.6,0.6-0.7,1.1c-0.4,3.8-0.8,7.6-1.1,11.4c-0.1,1.8,0,3.6-0.1,5.4
	c0,0.5-0.3,0.9-0.6,1.2c-0.4,0.2-0.9,0.1-1.3-0.2c-0.7-1.1-1.7-1.1-3-1.2c0.1-4.8,0.4-9.6,1-14.3c-1,0.4-1.9,0.8-2.8,1.2
	c-1.7,0.7-3.4,1-4.7-0.8c-0.9,0.4-1.7,0.7-2.5,1.1c-2.8,1.5-5.7,2.8-8.4,4.5c-3,1.8-5.8,3.8-8.6,5.8s-5.2,4.7-7.6,7.3
	c-0.8,1.1-2.2,1.7-3.6,1.6c-0.9,0-1.8,0.2-2.5,0.7c-3.3,2.1-6.7,4.3-10.2,6.1s-6.7,3.9-10,5.9c-2.2,1.3-4.3,2.5-6.5,3.8
	c0,0-0.1,0.1-0.2,0.1c-2.3,0-2.9,2-3.9,3.4c-1.4,1.9-2.6,3.9-4.2,5.6c-0.8,0.9-1.7,2.1-3.3,2.2c-0.6,0-1.2,0.6-1.9,1
	c-0.5-0.5-0.7-1.6-2-0.9l3.5,10.6c4.8,0.1,9.6-0.7,14.4,0.3c1.1-1.2,2.2-2.4,3.2-3.7c1.5-2,3.6-3.5,6-4.1c1.7-0.3,3.4-0.4,5.2-0.3
	c2.1,0.1,4.2,0.3,6.2,0.6c1.4,0.2,2.7,0.5,3.1,2.2c0.1,0.3,0.7,0.6,1.1,0.7c1.8,0.4,3.5,0.7,5.3,1c0.4,0,0.7,0.1,1.1,0.1
	c3.6,1.4,7.4,1.1,11.1,1.7c4.5,0.7,9.1,1.2,13.7,1.7c5.8,0.6,11.5,1,17.3,1.6s11.7,1.1,17.5,1.8c2.4,0.3,4.9,0.5,7.3,0.6
	c3,0.1,6,0.3,8.7,1.9c0.4,0.2,0.8,0.3,1.2,0.4c0.7-2,1.4-4,2.1-5.9c2.5-6.9,6.2-13.4,10.9-19c3.2-3.8,7-7.2,11.1-10.1
	c2.5-1.7,4.9-3.7,7.5-5.3c2.9-1.8,6-3.3,8.9-4.9c1.9-1.1,3.8-2.3,5.7-3.3c0.5-0.3,1-0.4,1.5-0.5c0.4-0.1,0.8,0.2,0.9,0.6
	c0,0.1,0,0.2,0,0.3c0,0.7,0,1.4-0.2,2.1c-0.7,3.2-0.9,6.5-0.7,9.8c0.4,4.4,0.4,8.7-0.1,13.1c-0.3,1.8-0.3,3.7-0.5,5.6
	c-0.3,3.3-1.3,6.5-2.8,9.4c-2.7,5.5-6,10.7-9.8,15.5c-3.5,4.6-7.3,8.8-11.1,13.1c-0.3,0.4-0.4,0.9-0.3,1.4c0.2,1.8,0.5,3.6,0.6,5.5
	c0,1.7-0.1,3.5-0.4,5.2c-0.6,4.8-1.9,9.5-3.7,14c-1.3,3.1-2.9,6-4.6,8.9c-1.3,2.4-2.8,4.8-4.4,7.1c-1.1,1.7-2.5,3.2-3.8,4.8
	c-1.6,2-3,4.1-4.7,6.1c-1.9,2.3-4.1,4.4-6.1,6.6c-1.2,1.5-3.1,2.1-4.9,1.7c-0.6,1.9-1.2,3.6-1.7,5.4c-1.3,4.7-3.3,9.2-5.8,13.4
	c-1.7,2.6-3.6,5.2-5.7,7.6c-1.5,1.9-3.2,3.6-4.8,5.4c-1.7,1.9-3.6,3.5-5.7,4.9c-1.4,0.9-2.7,2-4.2,2.8c-3.1,1.5-6.3,2.7-9.6,3.5
	c-1.5,0.4-3.1,0.9-4.6,1.4c-0.2,0.1-0.5,0.3-0.7,0.2c-1.4-0.2-2.8-0.5-4.2-0.8V244c-1-0.3-2.1-0.2-3,0.3c-2.3,1.2-4.6,2.2-7.1,3
	c-1.6,0.4-3.3,0.7-4.9,0.8c-4.1,0.5-8.1,1-12.2,1.4c-2.6,0.3-5.1,0.3-7.7,0.5c-2,0.2-4,0.5-6,0.7c-2.9,0.3-5.8,0.6-8.8,0.7
	c-4.5,0.2-9.1,0.3-13.6,0.5c-3.5,0.1-6.9-0.3-10.4,0.2c-2.2,0.1-4.4,0.1-6.6-0.2c-2,0-4.1-0.1-6.1-0.1c-4.6-0.1-9.2-0.4-13.8-1
	c-1.1-0.2-2.2-0.3-3.4-0.3c-2.6,0.2-5-0.5-7.5-0.9C544.5,249.4,543.9,249.3,543.4,249z M670.6,82.7c-0.2,3.2-0.8,6.3-0.3,9.5
	c0.3-1.7,0.4-3.5,0.5-5.3C670.7,85.5,670.6,84,670.6,82.7c0.1-0.2,0.4-0.3,0.5-0.4c0.3-2,0.6-4.1,0.8-6.1c0.2-1.6,0.4-3.3,0.5-4.9
	c0.3-0.6,0.3-1.2,0.1-1.8h-0.4l0.3,1.8c-0.2,0.1-0.5,0.2-0.5,0.4c-0.2,1.1-0.3,2.1-0.4,3.2L670.6,82.7z M9.7,241.6l0.2,0.4
	c0.4,0.1,0.8,0.1,1.2,0.1c1.7-0.2,3.3-0.4,5-0.6c1.7-0.2,3.2-0.5,4.8-0.5c5.2-0.2,10.4-0.2,15.6-0.4c2.3-0.1,4.7-0.2,7-0.4
	c2.8-0.3,5.6-0.7,8.3-1c2.3-0.3,4.6-0.6,6.9-1c4.5-0.7,8.9-1.5,13.4-2.1c5.8-0.8,11.6-1.6,17.4-2.4c2.8-0.4,5.5-0.8,8.3-1.2
	c3.2-0.4,6.4-0.7,9.6-1c2.8-0.3,5.6-0.6,8.4-0.9l8.9-0.9c2.5-0.3,5-0.6,7.5-0.8c4.1-0.4,8.3-0.7,12.4-1.1c3.1-0.3,6.2-0.6,9.3-0.8
	c5.8-0.4,11.7-0.9,17.5-1.2c7.3-0.4,14.7-0.6,22-0.9c1.1,0,2.1,0.1,3.2,0c4.4-0.3,8.7-0.7,13.1-1c5.1-0.4,10.1-0.7,15.2-1.1
	c5.8-0.4,11.6-1.1,17.4-1.4c7.9-0.5,15.9-0.8,23.8-1.1c5.4-0.2,10.9-0.3,16.3-0.4c1.7,0,3.4,0,5-0.1c4.7-0.2,9.3-0.4,14-0.6
	c2-0.1,4-0.1,5.9-0.2c3.3-0.2,6.6-0.4,9.9-0.6c2.3-0.1,4.6,0,6.8,0c1.7-0.1,1.9-0.4,1.9-2.1c-0.1-3.2-0.2-6.5-0.3-9.7
	c-0.1-2.7-0.3-5.4-0.5-8.1c-0.3-4.1-0.6-8.2-0.9-12.3c-0.4-5.1-0.6-10.2-1-15.2c-0.2-2.4-0.6-4.8-0.8-7.1c-0.3-3.5-0.5-7-0.7-10.6
	c-0.1-1.6-0.3-3.2-0.5-4.8c-0.3-2.8-0.7-5.7-1.1-8.6c-0.6,0-1.1-0.1-1.6-0.1c-1.5,0.1-3,0.3-4.5,0.3c-5,0.3-10,0.6-15,0.7
	c-5.3,0.2-10.7,0.2-16,0.4s-10.8,0.3-16.3,0.4c-4.6,0.1-9.2,0.2-13.7,0.4c-3.2,0.1-6.3,0.2-9.5,0.4c-4.1,0.2-8.2,0.5-12.3,0.7
	s-8,0.3-12,0.4c-3.6,0.2-7.1,0.4-10.7,0.6c-3.6,0.2-7.3,0.3-10.9,0.5c-3.8,0.2-7.6,0.5-11.5,0.6c-2.8,0.1-5.5,0-8.3,0
	c-4.6,0.1-9.2,0.3-13.8,0.3c-2.8,0.1-5.6,0-8.4,0.1c-4.3,0.2-8.6,0.7-12.9,1c-3.8,0.3-7.6,0.5-11.4,0.8c-3.8,0.3-7.6,0.5-11.4,0.8
	c-0.8,0.1-1.7,0.1-2.5,0.1c-2.8,0.3-5.6,0.6-8.4,0.9c-2,0.2-3.9,0.3-5.9,0.5c-3.3,0.4-6.5,0.8-9.8,1.2c-3,0.4-5.9,0.6-8.9,1
	c-3.3,0.4-6.6,1-9.9,1.5c-2.9,0.4-5.8,0.7-8.7,1.1c-2.2,0.3-4.5,0.6-6.7,0.8c-2.4,0.3-4.9,0.4-7.3,0.8c-6.8,0.9-13.6,1.9-20.4,2.7
	c-5,0.6-10,1.2-14.9,1.8c-4.1,0.6-8.2,1.3-12.4,2c-0.3,0.1-0.7,0.2-1.4,0.4c1,0.5,2.1,0.9,3.2,1.2c2.2,0.6,4.3,1.4,6.3,2.4
	c1.5,0.9,3.2,1.4,4.9,1.6c0.5,0,1.1,0.2,1.6,0.3c2.6,0.8,5.3,1.6,7.9,2.4c2.1,0.7,4.2,1.5,6.3,2.2c3.8,1.2,7.7,2.2,11.5,3.5
	c3.3,1.2,6.6,2.2,9.9,3c2.2,0.5,4.4,1,6.6,1.6c3.4,0.9,6.8,1.8,10.2,2.6c1.2,0.3,2.4,0.5,3.5,0.8c0.5,0.2,0.8,0.6,1,1.1
	c0.1,0.3-0.4,0.8-0.7,1.1c-1.7,1.1-3.4,2.2-5.2,3.1c-1.4,0.8-2.7,1.8-3.8,2.9c-0.7,0.7-1.4,1.3-2.1,1.9c-1.3,1.1-2.7,2.1-4.1,3.2
	c-2.5,2-4.9,4-7.4,5.9c-3.4,2.7-6.9,5.2-10.3,7.9c-2.2,1.8-4.3,3.8-6.4,5.6c-1.8,1.6-3.8,3.1-5.6,4.8c-3.4,3.1-6.8,6.2-10.2,9.3
	c-1.7,1.6-3.5,3.3-5.1,5.1c-1.2,1.3-2,2.8-3.7,3.6C10.6,240.7,10.1,241.1,9.7,241.6z M565.5,231.4v0.4c0.6,0.1,1.2,0.1,1.7,0.2
	c2.6,0.2,5.2,0.4,7.9,0.6c2.4,0.2,4.9,0.3,7.3,0.3c2.4,0.1,4.9,0,7.3,0.1c0.4,0,0.8,0,1.3,0c2-0.2,4-0.4,6.1-0.6
	c6-0.6,12.1-1.1,18.1-1.9c6.2-0.9,12.4-2.1,18.5-3.3c5.6-1.2,11.1-2.9,16.5-5c1.1-0.4,2.1-1.1,3.3-1.4c4.2-1.3,7.6-4.1,11.5-5.8
	c0.3-0.2,0.6-0.4,0.8-0.6c-1.7-2.9-1.9-6.1-1.8-9.4c0.1-2,0.1-3.9,0.4-5.9c0.5-3.6,1-7.2,1.7-10.8c0.6-2.8,1.4-5.6,2.4-8.3
	c0.9-2.5,1.9-4.9,3-7.3c1.4-3.6,3.2-7.1,5.4-10.3c2.5-3.3,5-6.6,7.7-9.7c2.4-2.9,5.2-5.5,8.3-7.7l1.2-0.9c-1.2,0-2,0.1-2.8,0
	c-1.2-0.1-2.4-0.3-3.6-0.4c-1.9-0.2-3.8-0.3-5.7-0.4s-4-0.5-6-0.7c-1-0.1-2.1-0.1-3.2-0.3c-3.5-0.4-7-0.8-10.5-1.1
	c-1.3-0.1-2.7,0.1-4.1-0.1c-3.3-0.4-6.6-1-9.9-1.5c-2.3-0.3-4.6-0.6-6.9-0.9c-1.6-0.2-3.2-0.3-4.8-0.6c-3.2-0.7-6.4-1.4-9.6-2.2
	c-1.1-0.4-2.4-0.1-3.3,0.7c-1.5,1.6-3.1,3.1-4.7,4.7c-0.5,0.5-0.9,1.2-0.4,1.8c3.4-0.1,6.7-0.3,9.9-0.3c1.4,0,2.8,0.3,4.2,0.8
	c1.8,0.5,2.8,2.4,2.3,4.2c-0.1,0.2-0.1,0.4-0.2,0.6c-0.3,0.6-0.7,1.2-1,1.9c0.8,0.5,1.6,1,2.4,1.5c0.8,0.5,1.4,1.4,1.5,2.3
	c0.2,2-0.5,4.1-1.8,5.6c-0.8,1-1.8,1.9-2.7,2.9c0.9,0.7,1.8,1.4,2.7,2.2c0.9,0.7,1.3,2,0.8,3.1c-0.3,0.6-0.2,1.4-0.4,2.1
	c-0.9,2.7-2.2,5.1-5.2,6c-2.2,0.6-4.5,1-6.8,1.5c-2.4,0.6-5,0.7-7.5,0.5c-3.1-0.3-3.7-0.8-4.5-3.4c0-0.1-0.2-0.1-0.3-0.3
	c-0.2,0.1-0.5,0.3-0.7,0.4c-2.5,1.8-5.3,3.3-8.2,4.5c-2.3,0.9-4.6,1.6-7,2.2c-4,1.1-8.1,1.6-12.2,1.3c-2.8-0.1-5.6-1-7.9-2.7
	l-4.9-3.9c-0.5,0-1,0.1-1.6,0.1c-1.1,0-2.1-0.1-3.2-0.1c-5.5,0.3-11,0-16.4-0.9c-3.5-0.6-7-1.3-10.5-2.1c-2.3-0.5-4.6-1.2-6.9-2
	c-2.3-0.8-4.5-1.7-6.7-2.6c-1-0.4-2-0.9-3-1.5c-1.1-0.7-2-1.8-3.1-2.4c-1.2-0.6-2.1-1.6-2.5-2.9c-0.4-1-0.9-2-1.3-2.9
	c-1.6-3.5-1.5-7.1-0.9-10.7c0.7-4,2-7.9,3.9-11.5c0.2-0.5,0.4-1.1,0.5-1.6c-1.3,0.2-2.3,0.4-3.3,0.4c-4.3,0.2-8.6,0.3-12.9,0.4
	c-4.7,0.1-9.3,0.2-14,0.3c-4.8,0.1-9.5,0-14.3,0.2c-3.9,0.1-7.8,0.7-11.8,0.9c-4.6,0.2-9.2,0.3-13.8,0.4c-1.4,0-2.9,0-4.3,0.1
	c-1.7,0.1-3.3,0.2-5,0.2c-1.1-0.1-2.1-0.2-3.2-0.1c-1.9,0.3-4.1-0.2-5.8,2c-0.3-0.6-0.4-1.2-0.6-1.9c-0.3-4.1-0.7-8.2-0.7-12.4
	c0-5.3-0.4-10.6-1.1-15.9c-0.7-4.9-1.3-9.8-3.2-14.5c-1.4-3.2-2.6-6.4-4.9-9.1c-3.5-4.1-7.9-7.2-12.2-10.2c-2.8-1.9-5.9-3.4-8.8-5.1
	c-3.2-1.8-6.8-2.5-10.5-2.2c-2.6,0.3-4.7,2.2-5.1,4.8c-0.3,2.1-0.6,4.3-0.7,6.4c-0.1,3.6-0.1,7.3-0.1,10.9
	c0.1,5.4,0.2,10.9,0.4,16.3c0.1,1.9,0.2,3.7,0.3,5.5c0.1,0.7,0.3,1.4,0.5,2.1c0.9-0.5,1.7-1.1,2.5-1.8c1.5-1.3,3.5-1.9,5.5-1.6
	c2,0.2,3.9,0.4,5.9,0.5c2.8,0.1,5.6,0,8.4,0s5.8,0.2,8.6,0.5c1.6,0.3,3.1,0.8,4.6,1.5c1,0.4,1.6,1.3,1.7,2.4
	c0.2,2.4-1.2,4.3-2.4,6.2c-0.6,0.8-1.3,1.6-2,2.2c-1.4,1.4-2.7,2.8-4.1,4.2c-1.6,1.6-3.3,3.1-5,4.6c-2,1.9-3.9,3.9-5.9,5.6
	c-1.5,1.3-3.3,2.4-4.8,3.7c-1.3,1.1-2.9,1.9-4.6,2.2c-1.6,0.3-3.2,0.5-4.8,0.7l-2.8,0.4c0,0.7,0,1.1,0,1.5l1.4,14.4
	c0,0.7,0.4,1.2,1.1,1.4c1.6,0.7,2.4,2.6,1.7,4.2c-0.1,0.2-0.2,0.4-0.3,0.6c-0.2,0.4-0.4,0.9-0.8,1.2c-0.5,0.4-0.7,1.1-0.5,1.7
	c0.1,0.6,0.2,1.3,0.3,1.8c0.4,0.1,0.7,0.1,0.8,0.3c1.4,1.2,2.6,2.6,3.8,4c1.3,1.6,2.8,3.1,4.3,4.5c2.5,2.5,5.6,4.2,8.5,6.2
	c1.9,1.4,3.9,2.6,6,3.6c0.3,0.1,0.5,0.3,0.8,0.4c2.6,1.4,5.1,2.8,7.7,4.1c1.1,0.6,2.4,0.9,3.5,1.4c4.2,2.1,8.6,3.7,13.1,4.9
	c4.4,1.3,8.8,2.3,13.3,3c5.5,0.9,11,1.5,16.5,2.2c1.8,0.1,3.7,0.4,5.5,0.8c1.1,0.3,1.6,0.2,2.3-0.6c0.9-1.3,2-2.6,3.2-3.6
	c2.8-2,4.8-4.7,7.2-7s4.7-5.1,7-7.7c0.9-1,1.8-2.1,2.7-3.1c0.3-0.4,0.8-0.7,1.3-0.8c1.2-0.2,2.4-0.3,3.6-0.3c3.5,0,7.1,0,10.6,0
	c3.1,0,6.2-0.1,9.3-0.1c4.7,0,9.3,0.1,14,0.1c5,0,10-0.1,14.9-0.1c9.1,0.1,18.2,0.2,27.3,0.4c2.8,0,5.6,0.2,8.4,0.5
	c2.8,0.3,5.6,0.8,8.3,1.4c3.2,0.7,5.3,3.9,4.7,7.2c-0.8,3.6-2.5,7-4.8,9.9c-0.4,0.4-0.7,0.8-1,1.3c-2,3.6-5,6.4-7.7,9.4
	c-1.8,2-3.8,3.8-5.7,5.7c-1.7,1.7-3.3,3.5-5.1,5.1C569.9,227.8,567.6,229.6,565.5,231.4z M428.5,257.6c-2.4,2.3-4.7,4.4-6.8,6.6
	c-2,2-3.8,4.3-5.9,6.3c-3.1,2.9-5.3,6.6-6.6,10.7c-0.5,1.3-0.3,2,0.9,2.7c0.4,0.2,0.8,0.4,1.3,0.6c3.3,1,6.6,1.6,10,1.8
	c3.8,0.3,7.5,0.4,11.3,0.5c2.3,0,4.7-0.1,7-0.3c4-0.3,8.1-0.8,12.1-1.1c3.2-0.2,6.3-0.3,9.5-0.5c5-0.3,10-0.6,15-1
	c6.5-0.5,13-1.2,18.9-4.4c2-1,3.9-2.1,5.7-3.3c3-2.3,6.3-4.2,9.4-6.3c4.1-2.8,8.2-5.6,12.3-8.4c1.4-1,2.6-2.1,4-3
	c3.7-2.7,7.5-5.2,11.1-8c5.7-4.4,11.2-9,16.9-13.4c2.5-2,5.2-3.9,7.7-5.9c2.8-2.2,5.5-4.4,8.1-6.8s5.1-5,7.7-7.6
	c2.6-2.4,5-4.9,7.4-7.6c2.9-3.6,5.8-7.3,7.8-11.6c0.5-1,0.8-2,1-3.1c0.6-2.3-0.7-4.7-3-5.4c-0.2,0-0.3-0.1-0.5-0.1
	c-0.9-0.2-1.8-0.2-2.6-0.4c-3-0.7-6.1-1.1-9.2-1.2c-2.3-0.2-4.7-0.2-7-0.3s-4.5-0.1-6.8-0.2c-0.9-0.1-1.7,0.4-2.1,1.1
	c-1.3,2.4-3.5,4-5.3,6c-2,2.3-4.4,4.2-6.6,6.3c-1.7,1.6-3.4,3.2-5,4.8c-2.5,2.6-4.9,5.2-7.5,7.7c-4,3.9-8,7.7-12,11.5
	c-3,2.9-6,5.8-9.1,8.6c-2.5,2.3-5.2,4.5-7.8,6.7c-1.8,1.6-3.8,3.1-5.6,4.8c-3.2,2.9-6.3,5.9-9.5,8.7c-2,1.8-4.2,3.3-6.2,5
	c-1.3,1.1-2.8,1.9-4.5,2.5c-2.5,0.8-5,1.5-7.6,2c-2,0.4-4,0.6-6,0.8c-3.6,0.3-7.1,0.7-10.7,0.8s-6.9-0.2-10.3-0.3
	c-1.7,0-3.5-0.1-5.2-0.1c-3-0.1-6-0.8-8.9-1.9c-1.2-0.5-2.5-0.6-3.5-1.6C430.6,259.3,429.6,258.4,428.5,257.6L428.5,257.6z
	 M561.5,187.1c-0.3-0.1-0.6-0.2-0.9-0.2h-13.4c-5.4,0-10.9,0-16.3,0c-1.1,0-2.3-0.1-3.4-0.1c-4.5,0-9.1,0-13.7,0.1
	c-5.5,0-11.1-0.4-16.7,0.1c-1,0-1.9,0.4-2.5,1.2c-0.8,1.1-1.7,2.2-2.7,3.3c-1,1.2-2.1,2.3-3.2,3.4c-2.5,2.7-5.1,5.4-7.6,8
	c-1.1,1.1-2.2,2.1-3.3,3.3c-2,2.1-3.9,4.3-6,6.3c-2.4,2.4-5,4.6-7.4,7.1s-4.7,5.1-7,7.6c-1.8,2-3.6,4-5.4,6
	c-1.6,1.7-3.3,3.4-4.9,5.1c-2.9,3.1-5.7,6.2-8.6,9.2c-2.3,2.4-4.7,4.7-7.1,7.1c-0.3,0.3-0.8,0.7-0.8,1.1s0.5,0.7,0.8,1
	c0.1,0.1,0.2,0.3,0.3,0.5c0.2,1.4,1.3,2,2.4,2.4c4,1.6,8.2,2.4,12.4,2.4c2.3,0,4.7,0.1,7,0.1c3,0,6,0.2,9,0.1c1.6,0,3.2-0.2,4.8-0.3
	c0.5,0,1,0,1.4,0c4.1-0.9,8.4-0.8,12.5-2.2c2-0.7,4.2-1,5.8-2.6c0.7-0.7,1.4-1.4,2.2-2.1c2.3-2,4.6-4,6.9-6c2-1.7,3.8-3.6,5.8-5.3
	c4.3-3.7,8.8-7.4,13.1-11.1c2.9-2.6,5.7-5.2,8.5-7.9c3.3-3.2,6.6-6.4,10-9.6c1.7-1.6,3.5-3.1,5.1-4.7c3.9-4,7.8-8.1,11.7-12.1
	c2.4-2.4,4.9-4.7,7.3-7.1C558.9,189.8,560,188.6,561.5,187.1L561.5,187.1z M582.8,157.5c-1.5-1.5-2.9-3.1-4-4.9
	c-1.1-1.9-2.3-3.8-3.6-5.6c-1.7-2.4-3.4-4.8-5.1-7.1c-0.6-0.8-1.2-1.7-1.8-2.4c-1.6-2-3.3-3.9-4.9-5.9c-1.6-2.1-3.5-4-5.6-5.6
	c-1.6-1.1-3.1-0.7-3.7,1.2c-0.2,0.9-0.4,1.7-0.4,2.6c-0.4,5.4,1,10.4,2.7,15.4c0.8,2.3,1.8,4.6,2.9,6.7c1.8,3.7,3.5,7.5,5.7,11
	c2.3,3.7,5,7.2,7.6,10.6c1.1,1.4,2.4,2.7,3.8,3.8c2.6,2,5.7,3,9,3c5.8,0.2,11.3-1.4,16.6-3.4c3.3-1.3,6.5-2.8,9.7-4.3
	c0-0.3,0-0.6-0.1-0.7c-0.4-0.4-0.4-0.8,0-1c0.4-0.1,0.7,0,1,0.2c0.5,0.6,1,1.3,1.3,2.1c0.2,1.3,1.4,2.3,2.7,2.4c0.5,0,1,0.1,1.4,0.1
	c3.6,0.2,7.1-0.7,10.7-1.3c2.1-0.3,3.9-1.7,4.8-3.6c0.4-0.9,0.6-1.8,0.8-2.7c0.4-1.9,0.4-1.9-1.3-3.1c-0.8-0.5-1.8-0.8-2.1-2
	c0.8-1.1,1.7-2.2,2.4-3.4c0.7-1,1.3-2,1.8-3.1c0.8-1.9,0.5-2.6-1.3-3.8c-0.6-0.4-1.2-0.8-1.8-1.2s-1.4-0.6-1.3-1.5s1.2-0.5,1.8-1
	c0.1-0.3,0.2-0.5,0.3-0.8c0.5-1.9,0-2.8-2-3.1c-0.9-0.2-1.8-0.3-2.7-0.3c-4.5-0.1-9,0.1-13.2,1.7c-3,1-5,4-4.6,7.2
	c0.6,0,1.2,0,1.7,0c1,0,2-0.1,3-0.1c0.3,0.1,0.6,0.3,0.7,0.6c0,0.3-0.2,0.6-0.5,0.8c-0.5,0.2-1,0.4-1.5,0.5
	c-2.4,0.4-4.7,0.6-7.1,0.7c-3.8,0-7.6,0.5-11.4,0.5c-3.1,0-6.2,0.2-9.3,0.4C585,157.2,584,157.4,582.8,157.5L582.8,157.5z M758,98.5
	c-2,1.3-3.5,2.6-5.2,3.3c-2.8,1.1-5.2,2.9-7.9,4.2c-0.7,0.3-1.4,0.7-2,1.2c-1.6,1.1-3.3,2.2-4.8,3.4c-2.2,1.6-4.4,3.3-6.4,5.1
	c-2.8,2.5-5.3,5.3-7.5,8.3c-2.6,3.7-4.8,7.6-6.7,11.8c-0.6,1.4-0.8,3-1.5,4.4c-1.7,3.9-3,8-3.9,12.2c-0.3,1.1-0.6,2.2-0.8,3.3
	c-0.4,3.4-1.8,6.6-1.7,10.1c0,0.2-0.1,0.3-0.1,0.5c-0.2,2-0.2,4.1-0.1,6.1c0.9,0.1,1.9,0.2,2.8,0.2c0.9-0.1,1.8,0.1,2.5,0.6
	c1.3,0.8,2.6,1.5,3.8,2.3c0.6,0.5,1.5,0.4,2.1-0.2c3.3-2.8,6.7-5.5,10-8.2c1-0.7,1.9-1.5,2.7-2.4c2.8-3,5.5-6,8.2-9.1
	c1.2-1.3,2.1-2.9,3.2-4.3c3.5-4.1,6.4-8.7,8.7-13.5c1.8-4,3.5-8,3.5-12.5c0-1.5,0.4-3.1,0.4-4.6c0.1-3.6,0-7.3,0-10.9
	c0-2.4-0.5-4.8,0.1-7.1C757.7,101.1,757.9,99.8,758,98.5z M669.2,218.2c-0.4,0.4-1,1.1-1.6,1.7c-2.1,2.2-3.9,4.7-5.3,7.4
	c-2.1,4.8-3.4,9.9-3.7,15.1c-0.3,3.7-0.1,7.5-0.2,11.3c0,2.2-0.1,4.4-0.1,6.6c0,2.9,0,5.8,0,9c0.9-0.2,1.7-0.3,2.5-0.6
	c1.8-0.5,3.7-1.1,5.5-1.6c4.9-1.2,9.6-3.5,13.6-6.6c1.4-1.2,2.8-2.5,4-3.8c1.4-1.4,2.5-3,3.9-4.4c4.1-4.4,7.2-9.6,9.3-15.2
	c2.1-5.5,3.7-11.2,4.8-17c0.9-5.2,2-10.3,3-15.5c0-0.3,0-0.7,0-1c-2.2-0.4-4.1-0.8-6.1-1.2c-2.1-0.4-3.3-2.2-4.9-3.6
	c-8.1,5.5-15.7,11.4-23,17.9c0.4,0.7,1.1,1.4,0.3,2C670.8,218.7,670,218.3,669.2,218.2L669.2,218.2z M545.5,247.2l0.1,0.5
	c1.9,0.2,3.9,0.4,5.8,0.6c1,0.1,1.9,0.1,2.9,0.1c2.8,0.2,5.6,0.5,8.4,0.8c1.2,0.1,2.4,0.1,3.6,0.1c4.1,0.2,8.2,0.4,12.3,0.5
	c3.4,0,6.8-0.1,10.2-0.2c3.2,0,6.4,0,9.5-0.1c2.7-0.1,5.4-0.4,8-0.6c2.6-0.2,5.3-0.2,7.9-0.6c3.1-0.4,6.1-1.1,9.3-0.9
	c0.5,0,1,0,1.4-0.1c4.4-0.5,8.8-1,13.2-1.5c2.3-0.2,4.6-0.5,6.9-0.9c3.3-0.8,6.6-1.9,10-2.9c0.8-0.2,1.4-0.9,1.5-1.8
	c0.4-2.3,0.8-4.6,1.3-6.9c0.6-2.9,1.7-5.8,3.3-8.3c2-2.9,4.2-5.5,6.3-8.3c0.2-0.3,0.3-0.7,0.5-1c-0.8,0.1-1.6,0.4-2.3,0.9
	c-0.7,0.4-1.4,0.9-2.2,1.3c-1.9,1.1-3.8,2.2-5.7,3.3c-0.4,0.3-0.9,0.5-1.4,0.7c-3.4,1-6.5,3-10,3.8c-2.7,0.6-5.2,1.6-7.9,2.3
	c-2.7,0.7-5.3,1.2-8,1.8c-3,0.8-6,1.4-9.1,1.6c-0.5,0-1,0.1-1.4,0.2c-3.5,0.5-7.1,1.2-10.6,1.6c-5.5,0.6-10.9,1.1-16.4,1.4
	c-4.8,0.2-9.6,0.2-14.4,0.1c-2.9-0.1-5.7-0.5-8.6-0.7c-2.1-0.1-4.2-0.3-6.3-0.3c-0.7,0-1.4,0.2-2,0.6c-1,0.6-1.9,1.2-2.8,1.9
	c-3.1,2.4-6.1,4.8-9.1,7.2C548.3,244.7,546.9,245.9,545.5,247.2L545.5,247.2z M327.6,206.9c0.6-0.2,1.3-0.5,1.9-0.8
	c1.8-1.1,3.5-2.2,5.3-3.4c3.1-2.1,6.1-4.1,9.1-6.3c3.8-2.8,7.4-5.8,11.2-8.6c2.7-2,5.4-3.9,8.1-5.9c3.6-2.7,7.1-5.5,10.7-8.2
	c2.2-1.7,4.5-3.3,6.8-5c1.1-0.8,1.2-1.3,0.7-2.9c-1.8-0.4-3.7-0.9-5.6-1.4c-0.9-0.2-1.8-0.3-2.6-0.6c-2.2-0.6-4.3-1.4-6.5-1.9
	c-3.5-0.8-7-2-10.4-3c-1.8-0.6-3.7-1-5.5-1.5c-1.1-0.4-2.2-1-3.3-1.3c-3.7-0.8-7.5-1.4-11.1-2.3c-2.5-0.6-5-1-7.4-1.6
	c-1.6-0.4-3.3-0.8-5.2-1.2c0,0.8,0,1.4,0.1,2c0.2,2.9,0.5,5.8,0.7,8.8c0.1,1.3,0,2.5,0.1,3.8c0.4,4.5,0.9,9,1.3,13.5
	c0.4,4.8,0.6,9.7,0.8,14.5c0.2,4.1,0.5,8.1,0.7,12.2C327.4,206.1,327.5,206.5,327.6,206.9L327.6,206.9z M707.1,172.4
	c-0.1-8.7,1.9-17,3.9-25.4c-0.7-0.3-1.2-0.6-1.8-0.9c-2-0.7-4-1.2-6.1-1.3c-3.8-0.5-7.7,0.5-10.8,2.9c-1.2,1-2.4,2-3.4,3.2
	c-2.2,2.4-4.3,4.9-6.5,7.4c-3.3,3.7-5.9,7.9-8,12.4c-2.4,5.3-4.3,10.7-5.9,16.3c-0.3,0.9-0.5,1.8-0.7,2.8c-0.4,3.1-0.6,6.3-1.2,9.4
	c-0.4,2.9-0.5,5.8-0.3,8.8c-0.1,1.8,0.4,3.7,1.3,5.3c1.5,0,1.5,0,2.2,0.8l22.5-17.3c-2.5-5.5-1.2-10.6,1.6-15.5
	C696.7,176.4,701.6,173.1,707.1,172.4z M464.7,56.8c0.5,1.4,0.8,2.5,2,2.7c1.8,0.4,3.6,0.6,5.5,0.6c2.6-0.2,5.1-0.6,7.6-1.1
	c3.1-0.6,6.1-1.2,9.1-1.8c5-1,10-2.1,15.1-3.1c1.8-0.4,3.7-0.5,5.5-0.8l0.1,0.5c-4.3,1.9-9,2.6-13.6,4.2c1.1,1.1,2.7,1.6,4.3,1.3
	c1.8-0.2,3.6-0.6,5.4-1.1c4.2-1.2,8.4-2.7,12.5-4.4c2.2-0.9,4.5-1.7,6.7-2.5c2.6-1,5.2-2.1,7.9-2.9s5.2-1.4,7.7-2l2-3
	c-0.7-1.7-1.4-3.5-2.3-5.2c-1.1-2.1-3.2-3.5-5.5-3.8c-2.5-0.6-5.1-0.8-7.6-0.7c-1.6,0.2-3.2,0.1-4.8,0.3c-3,0.3-6,0.5-8.9,1
	s-5.8,1.1-8.8,1.6c-4.1,0.6-8.2,1.4-12.3,2.5c-3.7,1.1-7.5,2.1-11.2,3.2c-4.3,1.3-8.7,2.5-13,3.9c-3.2,1-6.3,2.3-9.4,3.5
	c-4,1.5-7.8,3.7-11.1,6.5c-0.9,0.6-1.3,1.8-0.9,2.8c2.1,0.2,4.1,0,6.1-0.5c2.6-0.8,5.3-1.5,7.9-2.2c3.8-1.1,7.7-2.3,11.5-3.4
	c4.3-1.2,8.7-2.1,13.1-2.8c1.1-0.2,2.3-0.3,3.5-0.5l0.1,0.4c-3.9,1.5-7.9,2.3-11.9,3.5S468.9,55.6,464.7,56.8z M601.1,114l0.4,0.2
	c0.4-0.2,0.7-0.4,1.1-0.6c5.4-3.1,10.9-6.2,16.3-9.4c2.7-1.6,5.3-3.2,8-4.8c1.4-0.8,2.7-1.9,4.5-1.4c0.4,0,0.8-0.1,1.1-0.4
	c1.1-1,2.1-2.1,3-3.2c1.9-2.2,4.1-4.1,6.5-5.8c5.3-3.8,11-7.2,17-10c1.1-0.5,2.4-0.9,2.5-2.5c0-0.4,0.3-0.7,0.7-0.7
	c0.1,0,0.2,0,0.3,0.1c0.3,0.2,0.4,0.6,0.4,1c-0.2,0.9,0,1.8,0.5,2.5c0.3,0,0.5,0,0.8-0.1c1.4-0.5,2.8-1,4.2-1.6
	c0.4-0.2,0.7-0.6,0.9-1c0.4-2.5,0.7-4.9,1.1-7.4c-1.7-0.5-3-1.8-3.5-3.5c-0.4-1.4-0.7-2.8-0.8-4.2c-0.2-1.4,0.5-2.8,1.7-3.5
	c0.3-0.1,0.5-0.3,0.8-0.4l-2-1.5c-1.3,0.8-2.3,1.9-4.3,1.7l2.7-2.8c-0.3-0.5-0.5-0.9-0.7-1.4c-0.1-0.3,0-0.6,0.2-0.8
	c0.3-0.2,0.7-0.2,1-0.1c0.3,0.1,0.4,0.4,0.6,0.6c1.4,1.1,2.8,2.2,4.2,3.3c1.1-0.8,2-1.5,2.9-2.1c0.8-0.5,1.1-1.5,0.6-2.3
	c0,0,0,0,0,0l-3.7,2.6c-1.3-0.8-1.9-2.2-1.8-3.7l3.6-2.3c-0.1-0.3-0.2-0.5-0.3-0.7c-0.9-2.3-2.3-2.5-4.2-0.9s-3.7,2.8-5.6,4.1
	c-1.5,1.1-2.8,2.6-2.8,4.5c0,3.3,0.2,6.7,0.3,10c0.1,0.5,0.3,1,0.6,1.4c2-0.7,2-0.7,2.5,0.4c-0.2,0.2-0.4,0.4-0.7,0.5
	c-2.1,1.4-3.6,0.8-4.2-1.6c-0.2-0.7-0.3-1.4-0.5-2.2c-0.6,0.3-1.2,0.5-1.7,0.8c-2.3,1.2-4.7,2.4-6.9,3.7c-2.7,1.6-5.4,3.2-8.1,4.8
	c-3,1.8-6,3.6-9.1,5.4c-1.8,1-3.7,1.7-5.4,2.7c-6.1,3.5-12.2,7-18.3,10.5c-2.3,1.4-4.5,3-6.7,4.6c1.6,2.6,2.5,5.6,2.6,8.6
	C603.4,108.3,602.6,111.3,601.1,114z M543.4,87.3l0.3,0.3c0,0.2-0.1,0.4-0.3,0.6c-0.9,0.9-0.7,1.8-0.2,2.8c1.3,2.5,2.5,5,3.7,7.6
	c0.3,0.5,0.6,0.9,1,1.3c1.1-0.5,1.9-1.4,2.2-2.5c0.2-0.7,0.5-1.4,0.9-2c1.5-2.7,3.3-5.1,5.5-7.3c1.2-1.2,2.4-2.4,3.7-3.6
	c-0.2-0.2-0.4-0.3-0.6-0.5c-0.5-0.3-0.9-0.6-0.5-1.1c0.4-0.3,0.8-0.4,1.3-0.3c0.4,0.1,0.8,0.2,1.2,0.4c3,1.1,6.3,0.1,8.2-2.4
	c0.8-1.3,1.4-2.8,1.8-4.3c0.3-1.3,0-2.7-0.9-3.7c-2.1-2.2-5.4-2.9-8.2-1.8c-0.4,0.2-0.8,0.4-1.3,0.5c-0.4,0-0.8-0.2-1-0.6
	c0-0.4,0.1-0.8,0.4-1c0.7-0.5,1.6-0.9,2.4-1.2c1-0.3,2-0.5,3-0.6c0-0.4-0.1-0.8-0.2-1.1c-0.8-2.8-1.1-5.8-0.9-8.7
	c-0.1-2.9,1.8-5.4,4.5-6.2c2.1-0.6,2.9,0,3.2,1.7c0.3,1.3,0.4,2.6,0.7,3.9c0.6,2.7,1.3,5.5,1.8,8.2c0.1,0.6,0.2,1.2,0.3,1.9
	c0.5-0.1,0.7-0.2,0.9-0.3c1.8-0.8,1.8-0.9,1.4-2.9s-0.8-4-1.4-5.9c-0.4-1.8-0.5-3.7-0.1-5.5c0.3-2,1.5-2.5,3.5-2.9
	c1.7-0.3,2.7,1,3.3,2.3c0.7,1.7,1.2,3.4,1.5,5.1c0.3,1.5,0.5,3,0.7,4.5c1.1-0.1,1.5-0.6,1.4-1.5c-0.1-1.1-0.1-2.1,0-3.2
	c0-2.4-0.8-4.7-1.2-7c-0.2-1.6-0.9-3.1-2-4.3c-0.8-1.1-2.1-1.8-3.6-1.9c-0.9,1.2,0.4,3-1.3,3.9c-1.1-1.4-0.7-3-1-4.4
	s0.1-3.1-0.7-4.5c-1.6,0.2-3.1,0.3-4.5,0.5c0.1,1.6,0.1,3.2,0,4.8c-0.2,1.6-0.6,1.7-2.1,1.8c-1.3,0.1-2.6,0.3-3.8,0.8
	c-2,0.8-3.2,2.5-4.2,4.2c-0.9,1.5-1.6,3.2-2.4,4.8c-1.1-0.3-1.8,1.4-3.1,0.3c-0.1-2.8,1.3-5.3,2-7.9c0.9-2.7,2.5-5.2,4.5-7.1
	c-1.9-0.2-3.7,0.2-5.3,1.1c-2.9,1.3-5.6,3.1-8,4.4c-0.3,1.5-0.5,2.6-0.7,3.7c0,0.5,0,1,0.3,1.5c0.7,1.6,1.8,3.2,2.2,4.9
	c1,3.9,1.6,7.9,2.4,11.9c0,0.1-0.1,0.3-0.2,0.5c-2.1,0.3-2.7-1.6-3.8-2.7c0.3,2.1,0.6,4.1,0.8,6.2c0,0.5-0.2,1-0.5,1.4
	c-0.5,0.5-1.1,0.2-1.6-0.3c-0.3-0.3-0.5-0.6-0.7-1c-0.2,0.3-0.2,0.6-0.2,0.9c0.2,2.1,0.5,4.1,0.6,6.2c0.1,1.3-0.5,1.7-1.8,1.5
	l-2.8-0.4c-0.1-0.4-0.4-0.8-0.3-1.1c0.4-1.9-0.3-3.7-0.9-5.4c-1.3-3.8-5.8-6.1-9.4-4.7c-2.4,0.9-4.3,2.8-5.2,5.2
	c-2,4.8-0.4,8.9,2.5,12.7c0.4,0.5,0.8,0.9,1.4,1.1c3.2,1.5,6.3,1.7,9.5-0.1C541.7,88.1,542.5,87.7,543.4,87.3z M388.8,176.4
	l-0.4,0.2c0.1,1.1,0.2,2.3,0.5,3.4c0.8,3.9,1.7,7.8,3.9,11.3c1.5,2.2,3,4.4,4.5,6.7c1.3,2,2.9,3.8,4.7,5.3c1,0.8,1.9,1.6,2.8,2.5
	c2.6,2.4,5.4,4.3,8.5,5.9c2.9,1.5,5.6,3.5,8.9,4.2c0.3,0.1,0.6,0.4,0.9,0.6c1.1,0.6,2.3,1,3.5,1.5c1.6,0.5,3.2,1,4.8,1.4
	c0.9,0.3,1.8,0.6,2.8,0.8c4.5,1,9.1,2.1,13.6,3c2.3,0.5,4.6,0.6,6.9,0.9c0.5,0.1,0.9,0.2,1.4,0.3c0.6,0.2,1.3,0,1.8-0.5
	c1.1-1.3,2.3-2.6,3.5-3.8c2.1-2.1,4.3-4.2,6.4-6.3c1-1,1.9-2.1,2.8-3.1l-0.2-0.4c-1,0-2,0-3,0c-2.2-0.1-4.4-0.2-6.6-0.5
	s-4.1-0.6-6.2-1c-4.5-0.8-9.1-1.4-13.5-2.6c-5-1.2-9.9-2.7-14.6-4.7c-2.8-1.3-5.6-2.4-8.4-3.7c-3.6-1.8-7.1-3.6-10.6-5.6
	c-2.2-1.3-4.3-2.8-6.4-4.2c-4-2.6-7.5-5.7-10.5-9.4C390.1,177.7,389.5,177.1,388.8,176.4z M392.3,113.7c-2.4-0.6-3.8-0.1-5.1,1
	c-2.5,2.2-5.1,4.3-7.6,6.5s-4.8,4.8-7.3,7.1c-1.8,1.7-3.7,3.4-5.5,5.1c-1.5,1.6-3,3.2-4.5,4.9c-1.8,1.9-1.3,4.3,1.2,5
	c0.1,0,0.2,0.1,0.4,0.1c2.3,0.1,4.7,0.4,7,0.3c4.4-0.1,8.7-0.3,13.1-0.5c2.1-0.1,4.2-0.2,6.3-0.5c4.8-0.6,8.2-3.8,11.6-6.7
	c1.9-1.6,3.6-3.6,5.4-5.2c3.3-2.9,6.5-6,9.4-9.4c1.1-1.2,1.8-2.7,2.2-4.3c0.3-1.4,0-1.9-1.3-2.3c-0.9-0.4-1.8-0.6-2.8-0.8
	c-2.9-0.2-5.9-0.4-8.8-0.4C401.3,113.7,396.5,113.8,392.3,113.7L392.3,113.7z M509.8,32.9c0.3,0.7,0.8,0.6,1.4,0.5
	c1.6-0.3,3.2-0.4,4.8-0.6s3.2-0.4,4.8-0.6c1.8-0.2,3.7-0.3,5.5-0.4c1.7-0.2,3.3-0.2,5,0c2.6,0.6,5.5,0.4,7.8,2.4
	c0.5,0.4,1.1,0.7,1.6,1.1c0.7,0.6,1.6,0.9,2.5,0.8c2.4-0.1,4.8-0.2,7.2-0.3c0.8,0,1,0.4,1.1,1.2c-3,0.3-5.9,0.7-9.1,1
	c0.5,1.1,0.8,1.9,1.2,2.7c0.2,0.6,0.9,0.9,1.5,0.7c0.1,0,0.1-0.1,0.2-0.1c0.3-0.1,0.7-0.3,1-0.4c2.8-1.7,5.7-3.3,8.7-4.7
	c3-1.4,6.1-2.4,9.3-3c1.6-0.3,3.2-0.7,5-1c-0.2-1.1-0.3-2-0.5-2.8s-0.6-2-0.8-3c-0.2-2.3-2-4.2-4.3-4.5c-2.9-0.7-5.9-1.3-8.9-1.9
	c-1-0.1-2-0.1-3,0c-4.1-0.3-8.2-0.7-12.3-0.9c-3.2-0.1-6.5-0.1-9.7-0.1c-3.7,0-7.5,0-11.2,0c-2.5,0-5.1,0-7.6,0.1
	c-2.8,0.1-5.6,0.3-8.3,0.5c-4.8,0.4-9.5,0.8-14.2,1.5c-3.4,0.6-6.7,1.3-10,2.2c-1.8,0.5-3,1.8-4.3,3.4c0.5,0.2,1,0.4,1.5,0.5
	c1.4,0.2,2.8,0.3,4.3,0.3c4.3,0.2,8.7,0,13-0.5c3.3-0.5,6.6-0.6,9.9-0.5c0.2,0,0.5,0.1,0.7,0.2c-4,1.6-8.2,1.3-12.3,2.6
	c0.3,0.9,1.2,1.5,2.2,1.4c2.4,0.3,4.9,0.5,7.3,0.3c6.7-0.5,13.4-0.6,20.1-0.5c0.4,0,0.7,0.1,1.1,0.3v0.4
	C518,32.4,513.9,32.1,509.8,32.9z M568.4,84.4c-0.1,1,0,1.9-0.2,2.8c-0.1,1,0.1,1.9,0.6,2.7c1.4,2.2,3.9,3.5,6.5,3.4
	c5.3,0.2,10.1-1.6,14.7-4c4-2.2,7.5-5.2,10.2-8.9c2.4-3.3,4-7.1,4.7-11.1c0.5-2.5,0.1-5.1-1.2-7.3c-0.5-0.8-1.2-1.5-2.1-1.9
	c-1.4-0.4-2.9-0.6-4.4-0.5c-3.6,0.3-6.8,1.9-9.9,3.5c-5,2.5-9.8,5.3-14.9,8c2,2.2,1.6,4.7,0.6,7.3C572.4,81,570.7,83.1,568.4,84.4
	L568.4,84.4z M722.7,2.7c-0.3,0-0.7-0.1-1-0.1c-2.9,0.4-5.8,0.8-8.7,1.3c-2,0.4-4.1,0.8-6.1,1.3c-4.9,1.2-10,1.9-14.8,3.5
	c-0.3,0.1-0.6,0.1-0.9,0.1c-2.5,0.5-5,1-7.5,1.5c-2,0.5-2.4,1-2.4,3.1c0,0.7,0,1.3-0.1,2c-0.7,4.1-1.5,8.1-2.2,12.2
	c-0.6,3.2-1.2,6.3-1.8,9.5c-0.1,1.1-0.2,2.1-0.2,3.2c0.4,0,0.8,0,1.2,0c3-0.5,6-1,9-1.5c2.1-0.4,4.2-0.8,6.3-1.1
	c3.5-0.5,7-0.9,10.5-1.3s7.1-0.8,10.7-1.2c1.7-0.2,3.4-0.4,5.2-0.6c0.2-0.1,0.3-0.1,0.5-0.2V33c-0.8,0.3-1.5,0.5-2.2,0.7
	c-1,0.3-1.5,0-1.6-1c-0.1-0.7-0.1-1.3-0.1-2c0-1.2,0-2.4,0-3.5c-0.9-0.4-1.1,0.1-1.2,0.7c-0.3,1.4-0.5,2.8-0.8,4.2
	c-0.1,0.7-0.3,1.4-0.6,2c-0.2,0.3-0.6,0.5-1,0.5c-0.4-0.1-0.7-0.3-0.9-0.7c-0.4-0.9-0.6-2-0.3-3c0.3-0.9,0.3-1.8,0.5-2.6
	c-0.5,1.3-1,2.6-2.3,3.3c-1.5,0.8-2.9,1.9-4.8,1.8c-2.2-0.2-2.7-0.8-2.3-2.9c0.1-0.3,0.1-0.7,0.3-1c0.5-1.2,0.7-1.3,2-1.1
	c0.5,0.1,1.4,0.1,1.7-0.2c0.5-0.8,0.8-1.7,1-2.6c0-0.6-0.2-1.2-0.4-1.8c-0.3,0-0.5,0-0.8,0.1c-2,0.7-2.8,0.2-3.4-1.9
	c-0.7-2.7-0.4-5.5,0.9-8c1.5-2.9,4.9-4.5,7.9-2l-0.1,1.8c-0.1,2-0.9,2.5-2.8,1.6c-0.5-0.4-1.3-0.2-1.7,0.3c0,0,0,0,0,0.1
	c-0.9,1.1-0.9,2.5-0.2,3.7c2,0,3.8,0.2,4.8,2.1c0.9,1.7,0.5,3.5,0.3,5.4c0.2-0.2,0.4-0.5,0.4-0.8c0.7-3.7,1.3-7.4,2-11.1
	c0.2-1.1,0.3-2.1,0.5-3.2c0.2-0.9,1-1.6,2-1.6c0.9,0.1,1.1,0.8,1.2,1.5c0,0.2,0.1,0.4,0.1,0.5c0.7,3.6,1.1,7.3,1.3,11
	c0,2,0.2,4.1,0.3,6.1c0,0.4,0.1,0.7,0.2,1.1h0.1L722.7,2.7z M703.5,201.2c1.8-0.1,3.7-0.4,5.4-0.9c5.2-1.8,9.3-5.9,11.2-11.2
	c0.4-0.8,0.6-1.7,0.8-2.6c0.2-3,0.2-6-2.3-8.3c-0.6-0.6-1.3-1.1-2-1.7c-0.4-0.3-0.9-0.4-1.2-0.7c-0.9-1.1-2.4-1.7-3.8-1.5
	c-1.3,0-2.6-0.1-3.9,0c-3,0.2-5.8,1.5-8,3.5c-3.3,3-5.4,7.1-6.1,11.5c-0.7,3,0.2,6.1,2.3,8.3c0.7,0.9,1.5,1.7,2.5,2.3
	C699.8,200.4,701.5,201.4,703.5,201.2z M532.6,132.4l-0.3-0.5c-1.9,0.1-3.9,0.3-5.8,0.4c-2.2,0.2-4,1.5-4.8,3.5
	c-1.1,2-2,4.1-2.8,6.2c-0.8,2.3-1.4,4.7-1.7,7.1c-0.2,2-0.8,4.1,0,6.2c0.5,1.2,1,2.3,1.4,3.5c0.5,1.4,1,2.9,2.5,3.7
	c0.2,0.1,0.3,0.4,0.5,0.5c1.3,1.1,2.7,2.2,4.2,3c3.1,1.4,6.4,2.7,9.7,3.6c4.1,1.2,8.4,2.1,12.6,2.9c6.2,1.1,12.5,1.6,18.8,1.4
	c0.9-0.1,1.8-0.2,2.7-0.3c-1.4-2-2.6-3.7-3.8-5.3c-0.3-0.4-0.8-0.7-1.3-0.8c-1.4-0.1-2.8,0-4.1,0.1c-1.6,0.1-3.2,0.1-4.7,0
	c-3.1-0.4-6.1-1-9.2-1.4c-2.6-0.2-5.1-0.7-7.5-1.5c-1.9-0.7-3.8-1.3-5.7-2.2c-2.4-1.2-4.4-2.8-6.1-4.9c-0.8-1-1.2-2.2-1.2-3.5
	c0-1.3,0.1-2.5,0.3-3.7c0.5-4,1.6-7.9,3.5-11.4C530.7,136.8,531.6,134.6,532.6,132.4L532.6,132.4z M732.7,167.8
	c-3.9,3.2-7.5,6-11,8.9c-0.8,0.7-0.5,1.3,0,2c1.6,2.4,2.1,5.4,1.4,8.3c-0.6,3.4-2.2,6.5-4.5,9c-3.1,3.4-6.6,6.2-11.3,6.9
	c-0.4,7.4-2.7,14.4-3.7,21.7c2.3-0.4,2.3-0.4,3.6-1.9c1.9-2.1,3.8-4.1,5.6-6.3c2.3-2.7,4.6-5.5,6.7-8.4s3.7-5.9,5.5-8.8
	c2.2-3.5,4-7.4,5.2-11.4c1.1-3.8,2-7.8,2.8-11.7C733.3,173.4,733.3,170.6,732.7,167.8z M558.9,118c0.4,0.6,0.9,1.1,1.4,1.7
	c2.5,2.3,4.9,4.5,7.5,6.7c1.1,0.9,2.3,1.7,3.5,2.4c1.5,0.9,3.3,0.9,4.9,0.2c1.8-0.9,3.6-1.9,5.3-3c1.1-0.7,2-1.7,2.7-2.8
	c0.6-0.7,1.2-1.3,2-1.8c0.8-2.3,1.3-4.7,1.5-7.1c0.3-3.6,0.2-7.3-0.4-10.9c-0.1-1.5-0.6-3-1.5-4.2c-2.5,2.3-5.8,12.9-5.6,17.7
	c0.2,0,0.3,0,0.5-0.1c0.6-0.5,1.5-0.4,2,0.2c0,0,0.1,0.1,0.1,0.1c0.6,0.7,0.1,1.3-0.3,1.9c-0.8,1.2-1.6,2.4-2.5,3.5
	c-0.4,0.5-0.8,1.4-2.1,0.9l1.4-2.9c-0.5-0.3-1.1-0.6-1.7-0.7c-2.3,0-4.5,0.2-6.8,0.1c-1.5-0.1-3-0.3-4.4-0.7
	c-0.7-0.2-1.1-0.7-0.7-1.5c0.9-0.4,1.8-0.4,2.7-0.1c2,0.5,4,0.6,6,0.3c0.8-5.4-3.7-11.5-9.3-12.1C562.3,109.4,559.9,113.3,558.9,118
	z M566.7,85.6c-2.6-0.6-5.4,0.3-7.2,2.3c-0.9,0.9-1.7,1.9-2.6,2.7c-2.3,2.3-4,5.1-5.1,8.1c-0.6,1.6-1.1,3.1-1.4,4.8
	c-0.5,2.4-0.5,4.9,0.1,7.3c0.5,2.6,1,5.2,1.6,7.8c0.2,1,1,1.2,1.7,0.5c0.6-0.5,1.1-1.1,1.6-1.7l1.1,0.4c0.7-2.3,1.5-4.6,2.5-6.8
	c3-5.9,7.2-11.1,12.2-15.3c0.3-0.2,0.5-0.5,0.7-0.8C568.2,93.4,565.3,90.9,566.7,85.6z M591.3,125c0.6-0.8,1-1.3,1.4-1.8
	c1.7-2.6,3.5-5.3,5.2-8c2.4-4,3.5-8.3,2.5-12.9c-1-4.4-3.4-8.1-6.1-11.6c-0.7-0.9-1-0.8-2.2-0.2s-2.3,1.2-3.5,1.8s-2.2,1-3.4,1.6
	c0.3,0.5,0.5,0.8,0.7,1.1c2.1,2.3,3.4,5.3,3.7,8.4c0.1,0.7,0.2,1.4,0.3,2.1c0.4,3.4,0.4,6.8,0,10.2c-0.5,2.6-1.3,5.2-2.3,7.7
	c0,0.2,0,0.3,0,0.5l1.4,0.7c0.6-0.6,0.7-1.8,2-1.5L591.3,125z M624.7,133.2c-1.1-0.1-2.1-0.3-3.2-0.3c-1.8,0-3.7,0-5.5-0.2
	c-2.8-0.5-4.8,0.8-6.6,2.5c-1.7,1.8-3.3,3.8-4.7,5.9c-1.9,2.8-3.5,5.8-5.3,8.7c-1,1.5-1.6,3.1-1.8,4.9c3.4-0.2,6.8-0.3,10.3-0.5
	l0.1-1.6c0.2-3,2-5.7,4.6-7.1c1.5-0.9,2.8-2.1,3.7-3.7C618.5,138.4,621.3,135.4,624.7,133.2L624.7,133.2z M543.4,141.5
	c-4.4,0.4-8.6,0.7-12.8,1.1c-0.4,1.1-0.7,2.1-0.9,3.1c-0.5,2.2-0.8,4.4-1.3,6.5c-0.6,2,0.2,4.2,1.9,5.4c2.3,1.9,5.1,3.3,8,4.1
	C539.8,155,541.9,148.5,543.4,141.5L543.4,141.5z M538.6,67.5h0.4c0.1-0.2,0.2-0.4,0.3-0.6c0.5-1.8,1-3.6,1.5-5.3
	c0.3-1.2,0.8-2.4,1.3-3.5c0.6-1.2,1.3-2.3,2-3.4c0.3-0.5,0.9-0.7,1.4-0.4c0.1,0,0.1,0.1,0.2,0.1c0.5,0.4,0.3,0.9,0,1.4
	c-1.1,1.9-2,3.9-2.8,6c-0.8,2-1.2,4.1-1.8,6.1c-0.2,0.7,0,1.5,0.6,1.9c1.1,1.2,2,2.5,2.5,4.1c0.6,1.4,1,2.8,1.1,4.3
	c0,0.8,0.5,1,1.4,0.6c-0.2-2.6-0.8-5.1-1.8-7.5c-0.3-0.6-0.5-1.1,0-1.6s1.2-0.3,1.8,0.2c0.6,0.5,1.3,0.9,1.9,1.3
	c0.1-1.3-0.1-2.7-0.6-3.9c-0.4-0.9-0.8-1.9-1.1-2.9c-0.2-0.8,0.2-1.3,1-1.1c0.4,0.1,0.8,0.3,1.1,0.5c0.8,0.6,1.6,1.2,2.5,1.8
	c-0.1-0.6-0.1-1.2-0.3-1.8c-0.7-3.2-1-6.6-2.9-9.5c-0.8-1.3-0.8-1.4-2.2-0.8c-0.9,0.5-1.9,0.4-2.7-0.2c-0.8-0.6-1.5-1.3-2.2-2
	c-0.3-0.3-0.5-0.6-0.9-1C539.6,56.1,538.6,61.8,538.6,67.5L538.6,67.5z M674.2,73.4l0.4,0.3c2.3-1.7,5-2.9,6.8-5.3
	c0.5-0.8,0.8-1.7,0.8-2.7c0-3.2-1.4-5.9-3.3-8.3c-1.1-1.5-2.1-1.6-3.9-0.9c-1.5,0.6-3.1,1.1-4.6,1.9c-2.7,1.4-2.8,1.9-2.2,4.3
	c0.1,0.5,0.2,0.9,0.4,1.4c0.9,2.7,3.1,3.4,5.6,1.5l-0.5-4.1c-0.1-0.5,0-1.1,0.6-1.1c0.4,0.1,0.7,0.3,0.8,0.7
	c0.5,1.3,0.8,2.7,1.1,4.1c-0.1,0.7-0.3,1.4-0.7,1.9c-0.2,0.4-0.7,0.6-0.7,1C674.5,69.9,674.4,71.7,674.2,73.4z M549.1,44.9
	c1.3-0.8,2.6-1.8,4.1-2.6c2.6-1.6,5.5-2.7,8.5-3.2c2.4-0.2,4.8-0.6,7.2-1.3c0.5-0.1,0.9-0.2,1.4-0.1c1.4,0.1,2.8,0.2,4.3,0.4
	c0.9,0.2,1.8-0.1,2.5-0.6c0.7-0.4,1.4-0.5,2.2-0.5c0.6,0,1.2,0.1,1.8,0.2c-0.2-0.8-0.8-1.4-1.6-1.8c-1.9-1.1-4-1.6-6.2-1.4
	c-4.5,0.4-8.9,1.2-13.2,2.4c-3.6,0.9-6.7,3-10.1,4.6c-1.1,0.5-2.2,1.2-3.2,1.7L549.1,44.9z M590.6,140.7l4.3,14.1
	c0.9-0.1,0.9-0.1,1.1-0.8c0.2-1.2,0.6-2.3,1-3.4c1.4-3.2,3.1-6.2,5.1-9c0.3-0.4,0.6-0.9,0.8-1.4c-2.2,0-4.2,0-6.2,0
	S592.5,139.9,590.6,140.7L590.6,140.7z M430.2,106.3c1.5-1.1,2.9-2.4,4.1-3.8c1.2-1.4,2.9-2.3,3.6-4.3c-3.2-0.6-6.1,0.1-9.1-0.3
	L430.2,106.3z M683.6,62.1c1.3-0.2,1.3-1,1.2-1.9c-0.6-2.6-1.8-4.9-3.5-6.9c-0.3-0.4-0.7-0.8-1.2-1.1c-0.9-0.7-2-0.9-3-0.5
	c-0.9,0.5-0.8,1.4-0.8,2.4C680.9,54.7,682.5,58.2,683.6,62.1L683.6,62.1z M547.3,48.7c-0.1-1.1-0.2-1.9-0.3-2.7
	c-0.2-1.1-0.6-1.4-1.7-1.3c-1.3,0.2-2.4,1.1-2.9,2.3c-0.6,1.3-0.3,2.8,0.8,3.8c1.3,1.3,2.6,1.1,3.5-0.5
	C546.9,49.8,547.1,49.3,547.3,48.7z M675.3,35h0.4c1-5.9,2-11.8,3-17.6c0.3-1.5,0.3-3.1,0.4-4.6c0-0.3-0.2-0.6-0.3-0.8h-0.4
	L675.3,35z M675.7,50.2c5-1.5,7.2,1.5,9.1,5c1-0.6,0.5-1.4,0.3-2c-0.9-2-2.4-3.7-4.3-4.9C679.3,47.3,676.8,48.2,675.7,50.2
	L675.7,50.2z M570.6,53.2c-3.1-0.1-4.9,2.9-4.2,5.8c1.6-1.7,1.6-1.7,5-2.1L570.6,53.2z M674.8,48.3c3.3-3,6.5-2.5,9.3,0.6
	c1-0.6,1.2-0.9,0.7-1.3c-1-0.9-1.8-2-3.3-2.4c-1.7-0.5-3.3,0-4.9,0.3c-0.9,0.2-1.6,0.7-2.2,1.4C673.9,47.4,674.1,47.9,674.8,48.3
	L674.8,48.3z M572.6,131.4l-0.2,0.4c0.6,0.5,1.1,1.1,1.7,1.6c0.8,0.8,2.1,1,3.2,0.4c1-0.7,1.4-2,1-3.1
	C576.4,130.9,574.7,132.4,572.6,131.4z M581.5,54.3c-0.3-0.5-0.5-1-0.7-1.5c-0.5-0.7-1.4-1.1-2.3-0.9c-0.8,0.2-0.9,0.9-0.9,1.6
	c0,0.6,0,1.1,0,1.7C578.9,54.9,580.1,54.6,581.5,54.3L581.5,54.3z M569,104.3l3.9,3l0.3-0.4c-0.3-0.2-0.6-0.4-0.8-0.7
	c-0.2-0.3-0.3-0.6-0.3-0.9l-2.1-1.6L569,104.3z M581.3,97l1.8-2c-0.5-0.5-1.3-0.4-1.8,0.1c-0.5,0.5-1,1-1.4,1.6
	C580.5,96.9,580.9,97,581.3,97L581.3,97z M570.4,61.9c0.8-1.2,0.7-1.8-0.3-3C569.6,60.3,569.6,60.4,570.4,61.9L570.4,61.9z
	 M582.8,98.9c-1.3,1.2-2.1,3-2,4.8L582.8,98.9z M673.7,50.5c-1.6-0.6-2-0.4-3.1,1.1C671.6,51.3,672.5,51,673.7,50.5L673.7,50.5z
	 M674.6,43.8l0.5-5.2C674.7,40.3,674,41.9,674.6,43.8L674.6,43.8z M581.3,59.6c0.9-1.5-0.3-2-0.4-2.8l-0.4,0.1L581.3,59.6z
	 M574.9,107.6l-1.6,0.2c0.7,0.7,1.1,1.2,1.6-0.1L574.9,107.6z M566.7,103.4l-0.1,0.3l1,0.2l0.1-0.4L566.7,103.4z M583.9,97.1
	l0.5-0.1l-0.4-1.2l-0.3,0.1L583.9,97.1z M578.6,95.6c-0.7,0.1-1.2,0.3-1.3,1.4c0.6-0.6,0.9-0.9,1.3-1.3L578.6,95.6z M577.7,116.2
	l-0.8,1.1c1,0.2,1.1-0.2,0.8-1V116.2z"/>
<path d="M6,27.2l0.3,1C6.1,28.1,6,28,5.9,27.9C5.9,27.8,6,27.7,6,27.2z"/>
<path class="st1" d="M325.6,285.6v-1.2l0,0V285.6z"/>
<path class="st1" d="M325.6,289.9v0.8l0,0V289.9z"/>
<path class="st1" d="M325.6,278.2c0,0.2,0,0.4,0.1,1L325.6,278.2L325.6,278.2z"/>
<path class="st1" d="M9.7,241.6c0.4-0.5,0.8-1,1.4-1.3c1.6-0.8,2.5-2.3,3.7-3.6c1.6-1.8,3.3-3.4,5.1-5.1c3.3-3.1,6.7-6.2,10.1-9.3
	c1.8-1.6,3.7-3.2,5.6-4.8c2.2-1.9,4.2-3.8,6.4-5.6c3.4-2.7,6.9-5.3,10.3-7.9c2.5-1.9,5-3.9,7.4-5.9c1.3-1.1,2.7-2.1,4.1-3.2
	c0.7-0.6,1.4-1.2,2.1-1.9c1.1-1.2,2.4-2.2,3.8-2.9c1.8-0.9,3.5-2,5.2-3.1c0.3-0.2,0.8-0.8,0.7-1.1c-0.2-0.5-0.5-0.9-1-1.1
	c-1.1-0.4-2.3-0.5-3.5-0.8c-3.4-0.9-6.8-1.8-10.2-2.6c-2.2-0.6-4.4-1.1-6.6-1.6c-3.4-0.8-6.7-1.8-9.9-3c-3.8-1.3-7.7-2.3-11.5-3.5
	c-2.1-0.7-4.2-1.5-6.3-2.2c-2.6-0.9-5.2-1.6-7.9-2.4c-0.5-0.2-1-0.3-1.6-0.3c-1.7-0.2-3.4-0.7-4.9-1.6c-2-1.1-4.1-1.9-6.3-2.4
	c-1.1-0.4-2.2-0.8-3.2-1.2c0.7-0.2,1.1-0.4,1.4-0.4c4.1-0.7,8.2-1.4,12.4-2c5-0.7,10-1.2,14.9-1.8c6.8-0.9,13.6-1.9,20.4-2.7
	c2.4-0.3,4.9-0.5,7.3-0.8c2.2-0.3,4.5-0.6,6.7-0.8c2.9-0.4,5.8-0.7,8.7-1.1c3.3-0.5,6.6-1,9.9-1.5c3-0.4,5.9-0.7,8.9-1
	c3.3-0.4,6.5-0.8,9.8-1.2c2-0.2,3.9-0.3,5.9-0.5c2.8-0.3,5.6-0.6,8.4-0.9c0.8-0.1,1.7-0.1,2.5-0.1c3.8-0.3,7.6-0.5,11.4-0.8
	c3.8-0.3,7.6-0.5,11.4-0.8c4.3-0.3,8.6-0.7,12.9-1c2.8-0.1,5.6-0.1,8.4-0.1c4.6-0.1,9.2-0.3,13.8-0.3c2.8,0,5.5,0.1,8.3,0
	c3.8-0.1,7.6-0.4,11.5-0.6c3.6-0.2,7.3-0.3,10.9-0.5c3.6-0.2,7.1-0.5,10.7-0.6c4-0.2,8-0.3,12-0.4s8.2-0.5,12.3-0.7
	c3.2-0.2,6.3-0.3,9.5-0.4c4.6-0.1,9.1-0.2,13.7-0.4c5.4-0.1,10.8-0.3,16.3-0.4c5.4-0.1,10.7-0.2,16-0.4c5-0.2,10-0.5,15-0.7
	c1.5-0.1,3-0.2,4.5-0.3c0.5,0,0.9,0.1,1.6,0.1c0.4,2.9,0.7,5.7,1.1,8.6c0.2,1.6,0.4,3.2,0.5,4.8c0.3,3.5,0.5,7,0.7,10.6
	c0.2,2.4,0.6,4.7,0.8,7.1c0.4,5.1,0.7,10.1,1,15.2c0.3,4.1,0.6,8.2,0.9,12.3c0.2,2.7,0.4,5.4,0.5,8.1c0.1,3.2,0.3,6.4,0.3,9.7
	c0,1.7-0.2,2-1.9,2.1c-2.3,0.1-4.6,0-6.8,0c-3.3,0.1-6.6,0.4-9.9,0.6c-2,0.1-4,0.1-5.9,0.2c-4.7,0.2-9.3,0.4-14,0.6
	c-1.7,0.1-3.4,0.1-5,0.1c-5.5,0.1-10.9,0.2-16.3,0.4c-7.9,0.3-15.9,0.6-23.8,1.1c-5.8,0.3-11.6,1-17.4,1.4
	c-5.1,0.4-10.1,0.7-15.2,1.1c-4.4,0.3-8.7,0.7-13.1,1c-1.1,0.1-2.2,0-3.2,0c-7.4,0.3-14.7,0.5-22,0.9c-5.9,0.3-11.7,0.8-17.5,1.2
	c-3.1,0.2-6.2,0.6-9.3,0.9c-4.1,0.4-8.3,0.7-12.4,1.1c-2.5,0.2-5,0.5-7.5,0.8l-8.9,0.9c-2.8,0.3-5.6,0.6-8.4,0.9
	c-3.2,0.3-6.4,0.6-9.6,1c-2.8,0.3-5.6,0.8-8.3,1.2c-5.8,0.8-11.6,1.6-17.4,2.4c-4.5,0.7-9,1.4-13.4,2.1c-2.3,0.4-4.6,0.7-6.9,1
	c-2.8,0.4-5.6,0.8-8.3,1c-2.3,0.2-4.7,0.4-7,0.4c-5.2,0.2-10.4,0.2-15.6,0.4c-1.6,0-3.2,0.4-4.8,0.5s-3.3,0.4-5,0.6
	c-0.4,0-0.8,0-1.2-0.1L9.7,241.6z"/>
<path class="st2" d="M565.5,231.4c2.2-1.9,4.4-3.6,6.5-5.6c1.8-1.6,3.4-3.4,5.1-5.1c1.9-1.9,3.9-3.8,5.7-5.7c2.7-3,5.7-5.8,7.7-9.4
	c0.3-0.4,0.6-0.9,1-1.3c2.4-2.9,4-6.2,4.8-9.9c0.6-3.3-1.4-6.4-4.7-7.2c-2.7-0.7-5.5-1.1-8.3-1.4c-2.8-0.3-5.6-0.4-8.4-0.5
	c-9.1-0.2-18.2-0.3-27.3-0.4c-5,0-10,0.1-14.9,0.1c-4.7,0-9.3-0.1-14-0.1c-3.1,0-6.2,0.1-9.3,0.1c-3.5,0-7.1,0-10.6,0
	c-1.2,0-2.4,0.1-3.6,0.3c-0.5,0.1-1,0.4-1.3,0.8c-0.9,1-1.8,2.1-2.7,3.1c-2.3,2.6-4.5,5.3-7,7.7s-4.4,5-7.2,7
	c-1.2,1.1-2.3,2.3-3.2,3.6c-0.7,0.8-1.2,0.9-2.3,0.6c-1.8-0.4-3.6-0.6-5.5-0.8c-5.5-0.7-11-1.3-16.5-2.2c-4.5-0.7-8.9-1.7-13.3-3
	c-4.5-1.2-8.9-2.8-13.1-4.9c-1.1-0.6-2.4-0.9-3.5-1.4c-2.6-1.3-5.1-2.8-7.7-4.1c-0.3-0.1-0.5-0.3-0.8-0.4c-2.1-1-4.1-2.2-6-3.6
	c-2.9-2-6-3.7-8.5-6.2c-1.6-1.4-3-2.9-4.3-4.5c-1.2-1.4-2.4-2.8-3.8-4c-0.1-0.1-0.5-0.1-0.8-0.3c-0.1-0.6-0.1-1.2-0.3-1.8
	c-0.2-0.6,0-1.3,0.5-1.7c0.3-0.4,0.6-0.8,0.8-1.2c1-1.5,0.6-3.5-0.8-4.5c-0.2-0.1-0.4-0.2-0.6-0.3c-0.6-0.2-1.1-0.8-1.1-1.4
	l-1.4-14.4c0-0.4,0-0.8,0-1.5l2.8-0.4c1.6-0.2,3.2-0.4,4.8-0.7c1.7-0.3,3.3-1.1,4.6-2.2c1.5-1.3,3.3-2.3,4.8-3.7
	c2-1.8,4-3.8,5.9-5.6c1.6-1.6,3.3-3.1,5-4.6c1.4-1.4,2.8-2.8,4.1-4.2c0.7-0.7,1.4-1.4,2-2.2c1.2-1.9,2.6-3.8,2.4-6.2
	c0-1.1-0.7-2-1.7-2.4c-1.5-0.7-3-1.2-4.6-1.5c-2.9-0.4-5.7-0.4-8.6-0.5s-5.6,0-8.4,0c-2-0.1-3.9-0.3-5.9-0.5c-2-0.3-4,0.3-5.5,1.6
	c-0.8,0.7-1.7,1.3-2.5,1.8c-0.2-0.7-0.3-1.4-0.5-2.1c-0.1-1.8-0.3-3.7-0.3-5.5c-0.1-5.4-0.3-10.9-0.4-16.3c0-3.6,0-7.3,0.1-10.9
	c0.1-2.1,0.5-4.3,0.7-6.4c0.4-2.6,2.5-4.6,5.1-4.9c3.6-0.3,7.2,0.5,10.4,2.2c2.9,1.7,6,3.2,8.8,5.1c4.4,3,8.8,6,12.2,10.2
	c2.3,2.7,3.5,5.9,4.9,9.1c2,4.6,2.5,9.6,3.2,14.5c0.8,5.3,1.1,10.6,1.1,15.9c0,4.1,0.4,8.2,0.7,12.4c0.1,0.6,0.3,1.3,0.6,1.9
	c1.7-2.2,3.9-1.7,5.8-2c1.1,0,2.1,0,3.2,0.1c1.7,0,3.3-0.2,5-0.2c1.4-0.1,2.9,0,4.3-0.1c4.6-0.1,9.2-0.1,13.8-0.4
	c3.9-0.2,7.8-0.7,11.8-0.9c4.8-0.2,9.5-0.1,14.3-0.2s9.3-0.2,14-0.3c4.3-0.1,8.6-0.3,12.9-0.4c1,0,2-0.2,3.3-0.4
	c-0.1,0.6-0.3,1.1-0.5,1.6c-1.9,3.6-3.2,7.5-3.9,11.5c-0.7,3.6-0.7,7.3,0.9,10.7c0.5,1,0.9,2,1.3,2.9c0.5,1.2,1.4,2.2,2.5,2.9
	c1.1,0.6,2,1.6,3.1,2.4c1,0.6,2,1.1,3,1.5c2.2,0.9,4.4,1.8,6.7,2.6c2.3,0.8,4.5,1.5,6.9,2c3.5,0.8,7,1.5,10.5,2.1
	c5.4,0.9,10.9,1.2,16.4,0.9c1.1-0.1,2.1,0.1,3.2,0.1c0.6,0,1.2-0.1,1.6-0.1l4.9,3.9c2.3,1.7,5,2.6,7.9,2.7c4.1,0.3,8.3-0.1,12.2-1.3
	c2.4-0.6,4.7-1.4,7-2.2c2.9-1.2,5.6-2.7,8.2-4.5c0.2-0.2,0.5-0.3,0.7-0.4c0.2,0.1,0.3,0.2,0.3,0.3c0.8,2.6,1.3,3.1,4.5,3.4
	c2.5,0.2,5,0,7.5-0.5c2.3-0.5,4.6-0.8,6.8-1.5c2.9-0.9,4.3-3.3,5.2-6c0.2-0.7,0.1-1.5,0.4-2.1c0.5-1.1,0.1-2.4-0.8-3.1
	c-0.8-0.8-1.7-1.5-2.7-2.2c0.9-0.9,1.9-1.8,2.7-2.9c1.4-1.5,2.1-3.6,1.8-5.6c-0.1-1-0.7-1.8-1.5-2.3c-0.8-0.5-1.6-1-2.4-1.5
	c0.4-0.7,0.7-1.3,1-1.9c0.8-1.7,0.2-3.7-1.5-4.6c-0.2-0.1-0.4-0.2-0.6-0.2c-1.3-0.5-2.8-0.7-4.2-0.8c-3.3,0-6.6,0.2-9.9,0.3
	c-0.5-0.6-0.1-1.3,0.4-1.8c1.5-1.6,3.1-3.1,4.7-4.7c0.9-0.9,2.1-1.2,3.3-0.7c3.2,0.8,6.4,1.5,9.6,2.2c1.6,0.3,3.2,0.4,4.8,0.6
	c2.3,0.3,4.6,0.6,6.9,0.9c3.3,0.5,6.6,1.1,9.9,1.5c1.3,0.2,2.7,0,4.1,0.1c3.5,0.3,7,0.8,10.5,1.1c1,0.1,2.1,0.1,3.2,0.3
	c2,0.2,4,0.5,6,0.7s3.8,0.3,5.7,0.4c1.2,0.1,2.4,0.3,3.6,0.4c0.8,0.1,1.6,0,2.8,0l-1.2,0.9c-3.1,2.2-5.8,4.8-8.3,7.7
	c-2.7,3.2-5.1,6.4-7.7,9.7c-2.2,3.2-4.1,6.6-5.4,10.3c-1,2.4-2.1,4.8-3,7.3c-1,2.7-1.8,5.5-2.4,8.3c-0.8,3.6-1.2,7.2-1.7,10.8
	c-0.3,1.9-0.3,3.9-0.4,5.9c-0.1,3.3,0.1,6.5,1.8,9.4c-0.2,0.2-0.5,0.5-0.8,0.6c-4,1.7-7.4,4.5-11.5,5.8c-1.1,0.4-2.2,1-3.3,1.4
	c-5.3,2.1-10.8,3.8-16.5,5c-6.2,1.2-12.3,2.4-18.5,3.3c-6,0.9-12.1,1.3-18.1,1.9c-2,0.2-4,0.4-6.1,0.6c-0.4,0-0.8,0-1.3,0
	c-2.4,0-4.9,0-7.3-0.1c-2.4-0.1-4.9-0.2-7.3-0.3c-2.6-0.2-5.2-0.4-7.9-0.6c-0.6,0-1.1-0.1-1.7-0.2L565.5,231.4z"/>
<path class="st3" d="M428.5,257.6c1.1,0.8,2.2,1.7,3.2,2.7c1,1,2.3,1.2,3.5,1.6c2.8,1.1,5.8,1.8,8.9,1.9c1.7,0.1,3.5,0.1,5.2,0.1
	c3.4,0.1,6.9,0.4,10.3,0.3c3.4-0.1,7.1-0.5,10.7-0.8c2-0.1,4-0.4,6-0.8c2.6-0.5,5.1-1.2,7.6-2c1.6-0.5,3.1-1.4,4.5-2.5
	c2.1-1.7,4.2-3.2,6.2-5c3.2-2.8,6.3-5.9,9.5-8.7c1.8-1.6,3.7-3.2,5.6-4.8c2.6-2.2,5.3-4.4,7.8-6.7c3.1-2.8,6.1-5.7,9.1-8.6
	c4-3.8,8.1-7.6,12-11.5c2.5-2.5,5-5.2,7.5-7.7c1.6-1.6,3.3-3.2,5-4.8c2.2-2.1,4.5-4.1,6.6-6.3c1.8-2,4-3.6,5.3-6
	c0.4-0.8,1.2-1.2,2.1-1.1c2.3,0.1,4.5,0.1,6.8,0.2s4.7,0.1,7,0.3c3.1,0.1,6.2,0.5,9.2,1.2c0.8,0.2,1.8,0.3,2.6,0.4
	c2.4,0.4,4,2.6,3.6,5c0,0.2-0.1,0.3-0.1,0.5c-0.2,1.1-0.5,2.1-1,3.1c-2,4.3-4.9,8-7.8,11.6c-2.3,2.6-4.8,5.2-7.4,7.6
	c-2.5,2.6-5,5.2-7.7,7.6s-5.4,4.6-8.1,6.8c-2.5,2-5.2,3.9-7.7,5.9c-5.6,4.5-11.2,9-16.9,13.4c-3.6,2.8-7.4,5.3-11.1,8
	c-1.4,1-2.6,2.1-4,3.1c-4.1,2.8-8.2,5.6-12.3,8.4c-3.1,2.1-6.4,4-9.4,6.3c-1.8,1.2-3.7,2.3-5.7,3.2c-5.9,3.2-12.4,3.8-18.9,4.4
	c-5,0.4-10,0.7-15,1c-3.2,0.2-6.3,0.2-9.5,0.5c-4,0.3-8.1,0.8-12.1,1.1c-2.3,0.2-4.7,0.3-7,0.3c-3.8-0.1-7.5-0.2-11.3-0.5
	c-3.4-0.2-6.7-0.8-10-1.8c-0.5-0.2-0.9-0.4-1.3-0.6c-1.2-0.7-1.4-1.3-0.9-2.7c1.3-4,3.5-7.7,6.6-10.6c2.1-1.9,3.9-4.2,5.9-6.3
	C423.8,262,426.1,259.9,428.5,257.6z"/>
<path class="st2" d="M561.4,187.1c-1.4,1.5-2.5,2.8-3.8,3.9c-2.4,2.4-5,4.7-7.3,7.1c-3.9,4-7.8,8.1-11.7,12.1
	c-1.6,1.6-3.4,3.1-5.1,4.7c-3.3,3.2-6.6,6.4-10,9.6c-2.8,2.7-5.6,5.3-8.5,7.9c-4.3,3.8-8.8,7.4-13.1,11.1c-2,1.7-3.9,3.6-5.8,5.3
	c-2.3,2-4.6,4-6.9,6c-0.8,0.7-1.5,1.4-2.2,2.1c-1.6,1.6-3.8,1.9-5.8,2.6c-4.1,1.4-8.3,1.3-12.5,2.2c-0.5,0-1,0-1.4,0
	c-1.6,0.1-3.2,0.3-4.8,0.3c-3,0-6-0.1-9-0.1c-2.3,0-4.7-0.1-7-0.1c-4.2,0-8.5-0.8-12.4-2.3c-1.1-0.5-2.1-1-2.4-2.4
	c-0.1-0.2-0.1-0.3-0.3-0.5c-0.3-0.4-0.8-0.7-0.8-1s0.5-0.8,0.8-1.1c2.4-2.4,4.8-4.7,7.1-7.1c2.9-3,5.7-6.1,8.6-9.2
	c1.6-1.7,3.3-3.4,4.9-5.1c1.8-2,3.6-4,5.4-6c2.3-2.6,4.6-5.2,7-7.6s5-4.7,7.4-7.1c2.1-2.1,4-4.2,6-6.3c1.1-1.1,2.2-2.1,3.3-3.3
	c2.6-2.7,5.1-5.3,7.6-8c1.1-1.1,2.2-2.2,3.2-3.4c1-1.1,1.9-2.2,2.7-3.3c0.6-0.8,1.5-1.2,2.5-1.2c5.5-0.4,11.1,0,16.7-0.1
	c4.5,0,9.1-0.1,13.7-0.1c1.1,0,2.3,0.1,3.4,0.1c5.4,0,10.9,0,16.3,0h13.4C560.8,187,561.1,187,561.4,187.1z"/>
<path class="st4" d="M582.7,157.6c1.3-0.2,2.3-0.4,3.3-0.4c3.1-0.2,6.2-0.4,9.3-0.4c3.8,0,7.6-0.4,11.4-0.5c2.4-0.1,4.8-0.3,7.1-0.7
	c0.5-0.1,1.1-0.2,1.5-0.5c0.3-0.2,0.5-0.5,0.5-0.8c-0.1-0.3-0.4-0.5-0.7-0.6c-1,0-2,0.1-3,0.1c-0.6,0-1.2,0-1.7,0
	c-0.4-3.2,1.5-6.2,4.6-7.2c4.3-1.6,8.7-1.8,13.2-1.7c0.9,0.1,1.8,0.2,2.7,0.3c2,0.3,2.5,1.2,2,3.1c-0.1,0.3-0.2,0.5-0.3,0.8
	c-0.6,0.4-1.6,0-1.8,1s0.7,1.1,1.3,1.5s1.2,0.8,1.8,1.2c1.7,1.2,2,1.8,1.3,3.8c-0.5,1.1-1.1,2.1-1.8,3.1c-0.8,1.2-1.7,2.3-2.4,3.4
	c0.3,1.2,1.3,1.5,2.1,2c1.6,1.1,1.7,1.1,1.3,3.1c-0.2,0.9-0.4,1.9-0.8,2.7c-0.9,1.9-2.7,3.3-4.8,3.6c-3.5,0.6-7,1.5-10.7,1.3
	c-0.5,0-1,0-1.4-0.1c-1.3-0.1-2.5-1.1-2.7-2.4c-0.3-0.8-0.7-1.5-1.3-2.1c-0.3-0.2-0.6-0.3-1-0.2c-0.4,0.2-0.4,0.6,0,1
	c0.1,0.1,0.1,0.4,0.1,0.7c-3.3,1.5-6.4,3-9.7,4.3c-5.3,2-10.8,3.6-16.6,3.4c-3.3,0-6.4-1-9-3c-1.4-1.1-2.7-2.4-3.8-3.8
	c-2.6-3.5-5.3-6.9-7.6-10.6c-2.2-3.5-3.9-7.3-5.7-11c-1.1-2.2-2.1-4.4-2.9-6.7c-1.7-5-3.1-10.1-2.7-15.4c0-0.9,0.2-1.8,0.4-2.6
	c0.6-1.9,2.1-2.4,3.7-1.2c2.1,1.6,4,3.5,5.6,5.6c1.6,2,3.3,3.9,4.9,5.9c0.6,0.8,1.2,1.6,1.8,2.4c1.7,2.4,3.4,4.7,5.1,7.1
	c1.3,1.8,2.5,3.7,3.6,5.6C579.9,154.4,581.2,156.1,582.7,157.6z"/>
<path class="st5" d="M758,98.5c-0.1,1.3-0.3,2.6-0.5,3.9c-0.6,2.4-0.2,4.8-0.1,7.1c0,3.6,0,7.3,0,10.9c0,1.6-0.4,3.1-0.4,4.6
	c0,4.5-1.8,8.5-3.5,12.5c-2.3,4.8-5.3,9.4-8.7,13.5c-1.1,1.4-2,3-3.2,4.3c-2.7,3.1-5.4,6.1-8.2,9.1c-0.8,0.8-1.8,1.6-2.7,2.4
	c-3.3,2.7-6.7,5.4-10,8.2c-0.6,0.6-1.5,0.7-2.1,0.2c-1.3-0.8-2.5-1.5-3.8-2.3c-0.7-0.5-1.6-0.7-2.5-0.6c-0.9,0-1.9,0-2.8-0.2
	c-0.2-2-0.1-4.1,0.1-6.1c0-0.2,0.2-0.3,0.1-0.5c-0.1-3.5,1.3-6.7,1.7-10.1c0.2-1.1,0.5-2.2,0.8-3.3c0.9-4.2,2.2-8.3,3.9-12.2
	c0.6-1.4,0.8-3,1.5-4.4c1.9-4.1,4.1-8,6.7-11.8c2.2-3,4.8-5.8,7.5-8.3c2-1.8,4.2-3.5,6.4-5.1c1.6-1.2,3.2-2.3,4.8-3.4
	c0.6-0.4,1.3-0.8,2-1.2c2.7-1.3,5.1-3.1,7.9-4.2C754.5,101.1,756,99.8,758,98.5z"/>
<path class="st5" d="M669.2,218.2c0.9,0.1,1.7,0.5,2,0.3c0.8-0.5,0.1-1.3-0.3-2c7.3-6.5,14.9-12.4,23-17.9c1.5,1.4,2.7,3.2,4.9,3.6
	c2,0.4,4,0.8,6.1,1.2c0,0.3,0,0.7,0,1c-1,5.2-2.1,10.3-3,15.5c-1.1,5.8-2.7,11.5-4.8,17c-2,5.6-5.2,10.8-9.3,15.2
	c-1.4,1.4-2.5,3-3.9,4.4c-1.2,1.4-2.6,2.6-4,3.8c-4,3.1-8.6,5.4-13.6,6.6c-1.8,0.5-3.7,1.1-5.5,1.6c-0.8,0.2-1.6,0.4-2.5,0.6
	c0-3.1,0-6,0-9c0-2.2,0.1-4.4,0.1-6.6c0-3.8-0.2-7.6,0.2-11.3c0.3-5.2,1.6-10.3,3.7-15.1c1.4-2.7,3.2-5.2,5.3-7.4
	C668.1,219.2,668.8,218.6,669.2,218.2z"/>
<path class="st3" d="M545.5,247.1c1.4-1.2,2.8-2.4,4.2-3.5c3-2.4,6.1-4.8,9.1-7.2c0.9-0.7,1.8-1.4,2.8-1.9c0.6-0.4,1.3-0.5,2-0.6
	c2.1,0,4.2,0.1,6.3,0.3c2.9,0.2,5.7,0.6,8.6,0.7c4.8,0.1,9.6,0.2,14.4-0.1c5.5-0.3,10.9-0.8,16.4-1.4c3.6-0.4,7.1-1,10.6-1.6
	c0.5-0.1,0.9-0.1,1.4-0.2c3.1-0.3,6.2-0.8,9.1-1.6c2.7-0.6,5.4-1.1,8-1.8c2.6-0.7,5.2-1.7,7.9-2.3c3.5-0.8,6.5-2.8,10-3.8
	c0.5-0.2,1-0.4,1.4-0.7c1.9-1.1,3.8-2.2,5.7-3.3c0.7-0.4,1.4-0.9,2.2-1.3c0.7-0.5,1.4-0.8,2.3-0.9c-0.1,0.3-0.3,0.7-0.5,1
	c-2.1,2.8-4.3,5.4-6.3,8.3c-1.6,2.5-2.7,5.4-3.3,8.3c-0.5,2.3-1,4.6-1.3,6.9c0,0.9-0.6,1.6-1.5,1.8c-3.3,1-6.6,2.1-10,2.9
	c-2.3,0.5-4.6,0.8-6.9,0.9c-4.4,0.5-8.8,1-13.2,1.5c-0.5,0.1-1,0.1-1.4,0.1c-3.1-0.2-6.2,0.5-9.3,0.9c-2.6,0.3-5.3,0.4-7.9,0.6
	s-5.3,0.5-8,0.6c-3.2,0.1-6.3,0.1-9.5,0.1c-3.4,0-6.8,0.2-10.2,0.2c-4.1-0.1-8.2-0.3-12.3-0.5c-1.2,0-2.4,0-3.6-0.1
	c-2.8-0.2-5.6-0.5-8.4-0.8c-1-0.1-1.9-0.1-2.9-0.1c-1.9-0.2-3.9-0.4-5.8-0.6L545.5,247.1z"/>
<path class="st6" d="M327.6,206.9c-0.1-0.4-0.2-0.8-0.3-1.2c-0.3-4.1-0.5-8.1-0.7-12.2c-0.3-4.8-0.5-9.7-0.8-14.5
	c-0.3-4.5-0.9-9-1.3-13.5c-0.1-1.3,0-2.5-0.1-3.8c-0.2-2.9-0.5-5.8-0.7-8.8c0-0.6-0.1-1.2-0.1-2c1.9,0.4,3.5,0.8,5.2,1.2
	c2.5,0.6,5,1,7.4,1.6c3.7,0.9,7.4,1.5,11.1,2.3c1.1,0.3,2.2,0.9,3.3,1.3c1.8,0.6,3.7,1,5.5,1.5c3.5,1,6.9,2.3,10.4,3
	c2.2,0.5,4.3,1.3,6.5,1.9c0.9,0.2,1.7,0.4,2.6,0.6c1.9,0.5,3.8,1,5.6,1.4c0.5,1.6,0.4,2.1-0.7,2.9c-2.3,1.7-4.5,3.3-6.8,5
	c-3.6,2.7-7.1,5.5-10.7,8.2c-2.7,2-5.4,3.9-8.1,5.9c-3.8,2.9-7.4,5.8-11.2,8.6c-3,2.2-6,4.3-9.1,6.3c-1.7,1.2-3.5,2.3-5.3,3.4
	C328.9,206.4,328.3,206.6,327.6,206.9z"/>
<path class="st3" d="M707.1,172.4c-5.6,0.7-10.5,4-13,9c-2.8,4.9-4.2,10-1.6,15.5L670,214.2c-0.7-0.8-0.7-0.8-2.2-0.8
	c-0.9-1.6-1.4-3.4-1.3-5.3c-0.2-2.9-0.1-5.8,0.3-8.8c0.5-3.1,0.8-6.3,1.2-9.4c0.2-0.9,0.4-1.9,0.7-2.8c1.6-5.6,3.5-11,5.9-16.3
	c2.1-4.5,4.7-8.7,8-12.4c2.1-2.5,4.3-5,6.5-7.4c1-1.2,2.2-2.2,3.4-3.2c3.1-2.4,6.9-3.4,10.8-2.9c2.1,0.1,4.1,0.5,6.1,1.3
	c0.6,0.3,1.2,0.5,1.8,0.9C709,155.4,707,163.8,707.1,172.4z"/>
<path class="st1" d="M464.7,56.8c4.2-1.2,8.3-2.4,12.3-3.5s8-2,11.9-3.5l-0.1-0.4c-1.2,0.2-2.3,0.3-3.5,0.5
	c-4.4,0.7-8.8,1.7-13.1,2.8c-3.8,1.1-7.7,2.3-11.5,3.4c-2.6,0.8-5.3,1.5-7.9,2.2c-2,0.5-4.1,0.7-6.1,0.5c-0.4-1,0-2.2,0.9-2.8
	c3.3-2.8,7-5,11.1-6.5c3.1-1.1,6.3-2.4,9.4-3.5c4.3-1.4,8.7-2.6,13-3.9c3.7-1.1,7.5-2.1,11.2-3.2c4-1.1,8.1-1.9,12.3-2.5
	c3-0.5,5.8-1.2,8.8-1.6s5.9-0.7,8.9-1c1.6-0.1,3.2-0.1,4.8-0.3c2.6-0.1,5.1,0.1,7.6,0.7c2.4,0.3,4.4,1.7,5.5,3.8
	c0.8,1.7,1.5,3.5,2.3,5.2l-2,3c-2.5,0.7-5.2,1.2-7.7,2s-5.3,1.9-7.9,2.9c-2.2,0.8-4.5,1.6-6.7,2.5c-4.1,1.7-8.3,3.1-12.5,4.4
	c-1.8,0.5-3.6,0.9-5.4,1.1c-1.6,0.3-3.1-0.2-4.3-1.3c4.6-1.6,9.3-2.3,13.6-4.2l-0.1-0.5c-1.8,0.2-3.7,0.4-5.5,0.8
	c-5,1-10,2.1-15.1,3.1c-3,0.6-6.1,1.3-9.1,1.8c-2.5,0.5-5,0.9-7.6,1.1c-1.9,0-3.7-0.2-5.5-0.6C465.5,59.3,465.1,58.2,464.7,56.8z
	 M523.1,45.5v-0.4c-0.2,0-0.5-0.1-0.7-0.1c-0.3,0-0.6,0-0.9,0.1c-4.7,1.1-9.6,1.6-14.4,1.5c-1.4,0.2-2.9,0-4.2-0.6
	c1-0.3,2-0.7,2.9-1.1c0.8-0.4,1.9-0.2,2.3-1.3c-0.2,0-0.3-0.1-0.5-0.1c-1.6,0.4-3.2,0.9-4.8,1.2c-0.7,0.2-1.7-0.1-2.2,0.2
	c-1.7,1-3.5,1-5.3,1.4c-2.2,0.5-4.5,0.6-6.8,0.4c-1.5-0.2-3-0.3-3.5-2.1c-0.1-0.2-0.8-0.4-1.2-0.4c-0.2,0-0.4,0.7-0.3,1
	c0.1,1.4,1.2,2.6,2.6,2.8c2.2,0.5,4.5,0.7,6.7,0.4c2.1-0.3,4.2-0.8,6.3-1.4c0.8-0.3,1.6-0.2,2.3,0.3c1.4,0.9,3.1,1.3,4.8,1.2
	c4.5-0.2,9.1-0.8,13.5-1.9C520.9,46.5,522,46,523.1,45.5L523.1,45.5z"/>
<path class="st4" d="M601.1,114c1.5-2.7,2.3-5.7,2.2-8.7c-0.1-3-1-6-2.6-8.6c2.1-1.7,4.4-3.2,6.7-4.6c6.1-3.5,12.2-7,18.3-10.5
	c1.8-1,3.7-1.7,5.4-2.7c3.1-1.7,6.1-3.6,9.1-5.4c2.7-1.6,5.4-3.3,8.1-4.8c2.3-1.3,4.6-2.5,6.9-3.7c0.5-0.3,1-0.5,1.7-0.8
	c0.2,0.8,0.3,1.5,0.5,2.2c0.6,2.4,2.1,3,4.2,1.6c0.3-0.2,0.5-0.4,0.7-0.5c-0.5-1.1-0.5-1.1-2.5-0.4c-0.3-0.4-0.5-0.9-0.6-1.4
	c-0.2-3.3-0.4-6.7-0.3-10c0-2,1.3-3.4,2.8-4.5c1.9-1.4,3.8-2.7,5.6-4.1s3.3-1.4,4.2,0.9c0.1,0.2,0.2,0.5,0.3,0.7l-3.6,2.3
	c-0.2,1.5,0.5,2.9,1.8,3.7l3.7-2.6c0.5,0.8,0.3,1.8-0.5,2.3c0,0,0,0,0,0c-0.9,0.7-1.8,1.4-2.9,2.1c-1.4-1.1-2.8-2.2-4.2-3.3
	c-0.2-0.2-0.4-0.5-0.6-0.6c-0.3-0.1-0.7-0.1-1,0.1c-0.2,0.2-0.3,0.5-0.2,0.8c0.2,0.5,0.4,1,0.7,1.4l-2.7,2.8c2,0.2,3.1-0.9,4.3-1.7
	l2,1.5c-0.3,0.1-0.6,0.3-0.8,0.4c-1.3,0.7-2,2-1.7,3.5c0.1,1.4,0.4,2.8,0.8,4.2c0.6,1.6,1.9,2.9,3.5,3.5c-0.4,2.5-0.7,5-1.1,7.4
	c-0.1,0.4-0.5,0.8-0.9,1c-1.4,0.6-2.8,1.1-4.2,1.6c-0.2,0-0.5,0.1-0.8,0.1c-0.5-0.7-0.7-1.7-0.5-2.6c0-0.4-0.1-0.8-0.4-1
	c-0.3-0.2-0.8-0.1-1,0.2c-0.1,0.1-0.1,0.2-0.1,0.3c-0.1,1.6-1.4,2-2.5,2.5c-6,2.8-11.7,6.2-17,10c-2.4,1.7-4.6,3.6-6.5,5.8
	c-0.9,1.1-1.9,2.2-3,3.2c-0.3,0.3-0.7,0.4-1.1,0.4c-1.8-0.4-3.1,0.6-4.5,1.4c-2.7,1.6-5.3,3.2-8,4.8c-5.4,3.2-10.9,6.3-16.3,9.4
	c-0.4,0.2-0.7,0.4-1.1,0.6L601.1,114z"/>
<path class="st4" d="M543.4,87.3c-0.8,0.4-1.7,0.8-2.5,1.3c-3.1,1.9-6.3,1.6-9.5,0.1c-0.5-0.3-1-0.6-1.4-1.1
	c-2.9-3.8-4.5-7.9-2.5-12.7c1-2.4,2.8-4.2,5.2-5.2c3.6-1.4,8.2,0.9,9.4,4.7c0.6,1.7,1.3,3.5,0.9,5.4c-0.1,0.4,0.2,0.8,0.3,1.1
	l2.8,0.4c1.3,0.2,1.8-0.2,1.8-1.5c-0.1-2.1-0.4-4.1-0.6-6.2c-0.1-0.3,0-0.6,0.2-0.9c0.2,0.4,0.5,0.7,0.7,1c0.4,0.5,1.1,0.8,1.6,0.3
	c0.3-0.4,0.5-0.9,0.5-1.4c-0.2-2-0.5-4.1-0.8-6.2c1.1,1.1,1.7,3,3.8,2.7c0.1-0.2,0.2-0.4,0.2-0.5c-0.8-4-1.4-8-2.4-11.9
	c-0.4-1.7-1.5-3.2-2.2-4.9c-0.2-0.5-0.3-1-0.3-1.5c0.1-1.1,0.4-2.1,0.7-3.7c2.4-1.3,5.1-3.1,8-4.4c1.6-0.9,3.5-1.3,5.3-1.1
	c-2.1,2-3.6,4.4-4.5,7.1c-0.8,2.6-2.1,5.2-2,7.9c1.3,1.1,2-0.6,3.1-0.3c0.8-1.6,1.5-3.3,2.4-4.8c1-1.8,2.3-3.5,4.2-4.2
	c1.2-0.4,2.5-0.7,3.8-0.8c1.6-0.2,1.9-0.3,2.1-1.8c0.1-1.6,0.1-3.2,0-4.8c1.4-0.1,2.9-0.3,4.5-0.5c0.8,1.4,0.3,3,0.7,4.5
	s-0.1,3,1,4.4c1.8-0.9,0.5-2.7,1.3-3.9c1.4,0.1,2.7,0.8,3.6,1.9c1.1,1.2,1.8,2.7,2,4.3c0.3,2.4,1.2,4.6,1.2,7
	c-0.1,1.1-0.1,2.1,0,3.2c0.1,1-0.2,1.5-1.4,1.5c-0.2-1.5-0.3-3-0.7-4.5c-0.4-1.8-0.9-3.5-1.5-5.1c-0.6-1.3-1.5-2.6-3.3-2.3
	c-2,0.3-3.2,0.8-3.5,2.9c-0.3,1.8-0.3,3.7,0.1,5.5c0.5,2,1,3.9,1.4,5.9s0.3,2.1-1.4,2.9c-0.2,0.1-0.4,0.1-0.9,0.3
	c-0.1-0.7-0.1-1.3-0.3-1.9c-0.6-2.7-1.3-5.5-1.8-8.2c-0.3-1.3-0.4-2.6-0.7-3.9c-0.3-1.6-1.1-2.3-3.2-1.7c-2.8,0.8-4.6,3.3-4.5,6.2
	c-0.2,2.9,0.1,5.9,0.9,8.7c0.1,0.4,0.1,0.7,0.2,1.1c-1,0.2-2,0.4-3,0.6c-0.8,0.3-1.7,0.7-2.4,1.2c-0.3,0.2-0.4,0.6-0.4,1
	c0.2,0.3,0.6,0.6,1,0.6c0.5-0.1,0.9-0.2,1.3-0.5c2.8-1.1,6.1-0.4,8.2,1.8c0.9,1,1.3,2.4,0.9,3.7c-0.4,1.5-0.9,3-1.8,4.3
	c-1.9,2.6-5.2,3.5-8.2,2.4c-0.4-0.2-0.8-0.3-1.2-0.4c-0.4-0.1-0.9,0.1-1.3,0.3c-0.4,0.5,0.1,0.8,0.5,1.1c0.2,0.1,0.4,0.3,0.6,0.5
	c-1.3,1.2-2.5,2.4-3.7,3.6c-2.1,2.2-4,4.6-5.5,7.3c-0.3,0.6-0.6,1.3-0.9,2c-0.3,1.1-1.2,2-2.2,2.5c-0.4-0.4-0.7-0.8-1-1.3
	c-1.3-2.5-2.4-5-3.7-7.5c-0.5-1-0.7-1.9,0.2-2.8c0.1-0.2,0.2-0.4,0.3-0.6L543.4,87.3z M535.1,79c0.9-2.8,1.4-3,4-2.7
	c0.9-1.2,0.8-1.6-0.5-1.7c-0.5-0.1-1.1-0.2-1.6-0.2c-0.9,0.1-1.9,0.2-2.3,1.1c-0.9,1.9-2.3,3.5-2.7,5.6c-0.2,0.9,0,1.9,0.5,2.8
	c0.3,0.8,0.6,0.8,1.5,0.2v-3c1,0.5,2,1,3,1.4c1.4,0.5,2,0.2,2.6-0.8L535.1,79z M558.6,78.9c-0.7,0.3-1.3,0.6-1.8,1
	c-1.3,1.2-2.2,2.7-2.5,4.5c-0.1,0.8-0.1,1.3,0.7,1.6s0.9-0.4,1.2-0.8c1.2-1.5,2.1-3.2,4-3.9c0.7-0.3,0.7-1.4,0-1.8
	C559.6,79.3,559.1,79.1,558.6,78.9L558.6,78.9z M557.4,70.8L561,68c-0.3-0.5-1-0.7-1.5-0.3c-0.1,0-0.2,0.1-0.2,0.2
	C558.5,68.5,557.3,69.1,557.4,70.8L557.4,70.8z"/>
<path class="st3" d="M388.8,176.4c0.7,0.6,1.3,1.3,1.9,2c3,3.7,6.5,6.9,10.5,9.4c2.1,1.4,4.2,3,6.4,4.2c3.5,2,7,3.9,10.6,5.6
	c2.7,1.4,5.6,2.4,8.4,3.7c4.7,2,9.6,3.6,14.6,4.8c4.4,1.2,9,1.8,13.5,2.6c2.1,0.4,4.1,0.7,6.2,1s4.4,0.4,6.6,0.5c1,0.1,2,0,3,0
	l0.2,0.4c-0.9,1-1.8,2.1-2.8,3.1c-2.1,2.1-4.3,4.2-6.4,6.3c-1.2,1.2-2.4,2.5-3.5,3.8c-0.4,0.5-1.1,0.7-1.8,0.5
	c-0.5-0.1-0.9-0.2-1.4-0.3c-2.3-0.3-4.6-0.5-6.9-0.9c-4.6-0.9-9.1-2-13.6-3c-0.9-0.2-1.8-0.5-2.8-0.8c-1.6-0.5-3.2-0.9-4.8-1.4
	c-1.2-0.5-2.3-1-3.4-1.6c-0.3-0.1-0.6-0.5-0.9-0.6c-3.3-0.7-6-2.6-8.9-4.2c-3.1-1.6-6-3.6-8.5-5.9c-0.9-0.9-1.9-1.7-2.8-2.5
	c-1.8-1.5-3.4-3.3-4.7-5.3c-1.5-2.2-3-4.4-4.5-6.7c-2.3-3.4-3.1-7.3-3.9-11.3c-0.2-1.1-0.3-2.3-0.5-3.4L388.8,176.4z"/>
<path class="st3" d="M392.3,113.8c4.2,0,9,0,13.8,0c2.9,0,5.9,0.2,8.8,0.4c0.9,0.1,1.9,0.4,2.8,0.8c1.3,0.4,1.6,1,1.3,2.3
	c-0.4,1.6-1.2,3-2.2,4.3c-2.9,3.4-6,6.5-9.4,9.4c-1.9,1.7-3.5,3.6-5.4,5.2c-3.4,3-6.8,6.1-11.6,6.7c-2.1,0.2-4.2,0.4-6.3,0.5
	c-4.4,0.2-8.7,0.4-13.1,0.5c-2.3,0-4.7-0.2-7-0.3c-0.1,0-0.2,0-0.4-0.1c-2.5-0.7-3-3-1.2-5c1.5-1.6,2.9-3.3,4.5-4.9
	c1.8-1.8,3.7-3.4,5.5-5.1c2.4-2.4,4.8-4.8,7.3-7.1s5.1-4.3,7.6-6.5C388.6,113.6,390,113.1,392.3,113.8z"/>
<path class="st1" d="M509.8,32.9c4.1-0.8,8.3-0.5,12.3-1.5v-0.4c-0.3-0.1-0.7-0.2-1.1-0.3c-6.7-0.2-13.4,0-20.1,0.5
	c-2.4,0.1-4.9,0-7.3-0.3c-1,0.1-1.9-0.5-2.2-1.4c4-1.3,8.3-0.9,12.3-2.6c-0.2-0.1-0.5-0.1-0.7-0.2c-3.3-0.1-6.6,0.1-9.9,0.5
	c-4.3,0.5-8.7,0.7-13.1,0.6c-1.4-0.1-2.8-0.2-4.3-0.3c-0.5-0.1-1-0.3-1.5-0.5c1.2-1.6,2.5-2.9,4.3-3.4c3.3-0.9,6.6-1.7,10-2.2
	c4.7-0.7,9.5-1,14.2-1.5c2.8-0.2,5.6-0.4,8.3-0.5c2.5-0.1,5.1-0.1,7.6-0.1c3.8,0,7.5,0,11.2,0c3.2,0,6.5-0.1,9.7,0.1
	c4.1,0.2,8.2,0.6,12.3,0.9c1-0.1,2-0.1,3,0c3,0.5,5.9,1.1,8.9,1.9c2.3,0.4,4,2.2,4.3,4.5c0.1,1,0.5,2,0.8,3s0.3,1.7,0.5,2.8
	c-1.8,0.4-3.4,0.7-5,1c-3.2,0.6-6.4,1.6-9.3,3c-3,1.4-5.9,2.9-8.7,4.7c-0.3,0.2-0.7,0.3-1,0.4c-0.5,0.3-1.2,0.2-1.6-0.3
	c0-0.1-0.1-0.1-0.1-0.2c-0.4-0.8-0.7-1.6-1.2-2.7c3.2-0.4,6.1-0.7,9.1-1c-0.1-0.8-0.2-1.3-1.1-1.2c-2.4,0.1-4.8,0.1-7.2,0.3
	c-0.9,0.1-1.8-0.2-2.5-0.8c-0.5-0.4-1.2-0.6-1.6-1.1c-2.2-2-5.1-1.8-7.8-2.4c-1.7-0.2-3.3-0.2-5,0c-1.8,0.1-3.7,0.2-5.5,0.4
	c-1.6,0.1-3.2,0.4-4.8,0.6s-3.2,0.4-4.8,0.6C510.6,33.5,510.1,33.6,509.8,32.9z M525,26.8l-0.2-0.3c-0.7,0.2-1.4,0.3-2.1,0.4
	c-2.2,0.1-4.4,0.1-6.6,0.3c-3.1,0.3-6.1-0.8-8.4-2.9c-0.5-0.4-1-0.8-1.6-0.3s-0.4,1.1,0.3,1.7c2.4,1.9,5,3.5,8.3,3.2
	c2.4-0.3,4.7-0.6,7.2-1c0.3,1.6,1.6,2.7,3.2,3c1.3,0.4,2.7,0.5,4.1,0.3c1.4-0.3,2.8-0.4,4.3-0.4c1.5-0.1,3-0.1,4.4-0.2
	c0.4-0.1,0.7-0.2,1.1-0.3c-0.5-0.4-1.1-0.6-1.7-0.6c-2.3-0.1-4.5,0-6.8-0.1c-2-0.1-4,0.1-5.8-1c-0.4-0.3-0.8-0.6-1.1-1L525,26.8z"/>
<path class="st4" d="M568.4,84.4c2.2-1.3,3.9-3.4,4.7-5.9c0.9-2.6,1.3-5.1-0.6-7.3c5.1-2.7,10-5.5,14.9-8c3.1-1.6,6.4-3.1,9.9-3.5
	c1.5-0.1,3,0,4.4,0.5c0.9,0.4,1.6,1,2.1,1.9c1.3,2.2,1.8,4.8,1.2,7.3c-0.8,4-2.4,7.8-4.7,11.1c-2.7,3.7-6.2,6.7-10.2,8.9
	c-4.6,2.4-9.4,4.1-14.7,4c-2.6,0.1-5.1-1.2-6.5-3.4c-0.5-0.8-0.8-1.8-0.6-2.7C568.4,86.3,568.4,85.4,568.4,84.4z M582.6,70
	c1.3,1.1,2.6,0.6,4,0.3c0.3-0.1,0.5-0.3,0.5-0.6c0-0.2-0.3-0.6-0.5-0.6c-1-0.1-2.1-0.2-3.2-0.2c-0.5,0-0.9,0.4-0.9,0.9
	C582.5,69.9,582.5,69.9,582.6,70z M577,71.4c-0.9-0.1-1.4,0.6-1.1,1.3c0.2,0.5,0.6,1,1.1,1.4c0.4,0.2,0.9,0.3,1.3,0.1
	c0.6-0.3,0.3-0.8,0-1.2s-0.3-0.8-0.5-1.1C577.5,71.7,577.2,71.5,577,71.4z M578.4,71.3c0.6,1.8,1.4,2,3.3,0.7
	C580.1,70.5,579.8,70.4,578.4,71.3L578.4,71.3z"/>
<path class="st7" d="M722.7,2.7l-2.4,27.9h-0.1c0-0.4-0.1-0.7-0.2-1.1c-0.1-2-0.2-4.1-0.3-6.1c-0.2-3.7-0.6-7.4-1.3-11
	c0-0.2-0.1-0.3-0.1-0.5c-0.1-0.8-0.3-1.5-1.2-1.5c-0.9,0-1.7,0.7-2,1.6c-0.2,1-0.3,2.1-0.5,3.2c-0.7,3.7-1.3,7.4-2,11.1
	c-0.1,0.3-0.2,0.6-0.4,0.8c0.3-1.8,0.6-3.6-0.3-5.4c-1-2-2.9-2.1-4.8-2.1c-0.7-1.1-0.7-2.6,0.2-3.7c0.3-0.6,1.1-0.8,1.6-0.4
	c0,0,0,0,0.1,0c1.8,0.9,2.6,0.5,2.8-1.6l0.1-1.8c-3-2.5-6.4-1-7.9,2c-1.3,2.5-1.6,5.3-0.9,8c0.5,2.1,1.3,2.5,3.4,1.9
	c0.2,0,0.5-0.1,0.8-0.1c0.2,0.6,0.4,1.2,0.4,1.8c-0.2,0.9-0.5,1.8-1,2.6c-0.2,0.3-1.1,0.3-1.7,0.2c-1.3-0.1-1.6,0-2,1.1
	c-0.1,0.3-0.2,0.7-0.3,1c-0.4,2.2,0.1,2.7,2.3,2.9c1.9,0.2,3.3-1,4.8-1.8c1.3-0.7,1.8-2,2.3-3.3c-0.2,0.9-0.3,1.8-0.5,2.6
	c-0.2,1-0.1,2,0.3,3c0.2,0.4,0.5,0.6,0.9,0.7c0.4,0,0.8-0.2,1-0.5c0.3-0.6,0.5-1.3,0.6-2c0.3-1.4,0.5-2.8,0.8-4.2
	c0.1-0.5,0.3-1.1,1.2-0.7c0,1.1,0,2.3,0,3.5c0,0.7,0,1.3,0.1,2c0.2,1,0.7,1.3,1.6,1c0.7-0.2,1.4-0.5,2.2-0.7v1.4
	c-0.1,0.1-0.3,0.2-0.5,0.2c-1.7,0.2-3.4,0.5-5.2,0.6c-3.6,0.4-7.1,0.8-10.7,1.2s-7,0.8-10.5,1.3c-2.1,0.3-4.2,0.7-6.3,1.1
	c-3,0.5-6,1-9,1.5c-0.4,0-0.8,0-1.2,0c0-1.1,0.1-2.2,0.2-3.3c0.5-3.2,1.2-6.3,1.8-9.5c0.7-4,1.5-8.1,2.2-12.2c0.1-0.7,0.1-1.3,0.1-2
	c0-2.1,0.4-2.6,2.4-3.1c2.5-0.6,5-1,7.5-1.5c0.3,0,0.6-0.1,0.9-0.1C697,7,702,6.3,707,5.1c2-0.5,4-1,6.1-1.3
	c2.9-0.5,5.8-0.9,8.7-1.3C722.1,2.5,722.4,2.6,722.7,2.7z M693,34.7c1-3.2,0.2-6.4,1.3-9.6c0.2,0.4,0.5,0.7,0.5,0.9
	c-0.2,2.4,1.1,4.4,1.7,6.5c0.3,1,0.9,1.3,2.5,1.1c1.1-0.1,1.3-0.4,1.4-1.5c0.1-1.5,0.2-3.1,0.3-4.6c0.4-4.8,0.9-9.6,1.3-14.4
	c0.2-0.7-0.3-1.4-1-1.5c-0.2-0.1-0.5,0-0.7,0c-0.8,0.2-1.7,0.5-2.5,0.7c-0.1,3-0.3,5.9-0.8,8.9c-0.2-0.5-0.4-1-0.6-1.5
	c-0.8-1.9-1.5-3.8-2.3-5.6c-0.2-0.7-0.9-1.1-1.6-0.9c-0.2,0.1-0.4,0.2-0.5,0.3c-0.3,0.3-0.6,0.7-0.6,1.1c-0.3,2.4-0.7,4.9-0.9,7.3
	c-0.4,3.9-0.7,7.7-1,11.6c-0.1,0.9,0.3,1.3,1.3,1.3C691.4,34.7,692.1,34.7,693,34.7L693,34.7z M685.6,34.9c2.3,0.1,2.3,0.1,2.4-2.2
	c0.1-1.2,0.1-2.4,0.3-3.5c0.4-4,1.4-8,1.3-12.1c0-0.9,0.2-1.8,0.2-2.7c0-1.2-0.5-1.5-1.6-1.4c-1,0.2-2,0.4-2.9,0.7
	c-1.1,0.3-1.4,0.7-1.5,1.9c-0.5,4.3-1.1,8.6-1.6,13c-0.2,1.7-0.4,3.3-0.5,5c0,0.7,0.1,1.3,1,1.3L685.6,34.9z"/>
<path class="st5" d="M703.5,201.2c-2,0.2-3.7-0.7-5.4-1.4c-1-0.6-1.8-1.3-2.5-2.3c-2.1-2.2-2.9-5.3-2.3-8.3
	c0.7-4.4,2.9-8.4,6.1-11.5c2.2-2,5-3.2,8-3.5c1.3-0.1,2.6,0,3.9,0c1.5-0.2,2.9,0.4,3.8,1.5c0.3,0.4,0.8,0.5,1.2,0.7
	c0.7,0.5,1.4,1.1,2,1.7c2.5,2.3,2.5,5.3,2.3,8.3c-0.1,0.9-0.4,1.7-0.8,2.6c-1.8,5.2-5.9,9.4-11.2,11.2
	C707.1,200.8,705.3,201.1,703.5,201.2z"/>
<path class="st3" d="M532.6,132.4c-1,2.2-1.9,4.5-3,6.6c-1.9,3.6-3,7.5-3.5,11.5c-0.2,1.2-0.3,2.5-0.3,3.7c0,1.3,0.4,2.5,1.2,3.5
	c1.6,2.1,3.7,3.7,6.1,4.9c1.8,0.9,3.8,1.5,5.7,2.2c2.4,0.8,5,1.3,7.5,1.5c3.1,0.4,6.1,1,9.2,1.4c1.6,0.1,3.2,0.1,4.7,0
	c1.4,0,2.8-0.1,4.1-0.1c0.5,0.1,1,0.4,1.3,0.8c1.3,1.6,2.4,3.4,3.8,5.3c-0.9,0.2-1.8,0.3-2.7,0.3c-6.3,0.2-12.5-0.3-18.7-1.5
	c-4.2-0.8-8.5-1.7-12.6-2.9c-3.3-1-6.5-2.2-9.7-3.6c-1.5-0.8-2.9-1.9-4.2-3c-0.2-0.1-0.3-0.4-0.5-0.5c-1.6-0.8-2-2.3-2.5-3.7
	c-0.5-1.2-1-2.3-1.4-3.5c-0.8-2.1-0.3-4.2,0-6.2c0.3-2.4,0.9-4.8,1.7-7.1c0.8-2.1,1.7-4.2,2.8-6.2c0.8-2,2.7-3.4,4.8-3.5
	c2-0.1,3.9-0.3,5.8-0.4L532.6,132.4z"/>
<path class="st3" d="M732.7,167.8c0.5,2.8,0.6,5.6,0.1,8.4c-0.8,3.9-1.7,7.8-2.8,11.7c-1.2,4-2.9,7.8-5.2,11.4c-1.8,3-3.5,6-5.5,8.8
	s-4.4,5.6-6.7,8.4c-1.8,2.1-3.7,4.2-5.6,6.3c-1.3,1.5-1.3,1.4-3.6,1.8c1.1-7.3,3.3-14.3,3.7-21.7c4.8-0.7,8.3-3.5,11.3-6.9
	c2.3-2.5,3.9-5.6,4.5-9c0.7-2.8,0.2-5.8-1.4-8.3c-0.5-0.7-0.8-1.3,0-2C725.3,173.8,728.8,170.9,732.7,167.8z"/>
<path class="st4" d="M558.9,118c1-4.6,3.5-8.5,6.1-12.2c5.6,0.5,10.1,6.7,9.3,12.1c-2,0.3-4,0.2-6-0.3c-0.9-0.3-1.9-0.3-2.7,0.1
	c-0.4,0.8-0.1,1.4,0.7,1.5c1.4,0.4,2.9,0.6,4.4,0.7c2.3,0.1,4.5-0.1,6.8-0.1c0.6,0.1,1.2,0.4,1.7,0.7l-1.4,3
	c1.2,0.5,1.7-0.4,2.1-0.9c0.9-1.1,1.7-2.3,2.5-3.5c0.4-0.6,0.9-1.2,0.3-1.9c-0.4-0.6-1.3-0.8-2-0.4c0,0-0.1,0-0.1,0.1
	c-0.2,0.1-0.3,0.1-0.5,0.1c-0.2-4.8,3.1-15.4,5.6-17.7c0.9,1.2,1.5,2.7,1.5,4.2c0.6,3.6,0.7,7.3,0.4,10.9c-0.3,2.4-0.8,4.8-1.5,7.1
	c-0.8,0.5-1.4,1.1-2,1.8c-0.7,1.1-1.6,2.1-2.7,2.8c-1.7,1.1-3.4,2.1-5.3,3c-1.6,0.7-3.4,0.6-4.9-0.2c-1.3-0.7-2.5-1.5-3.5-2.4
	c-2.5-2.2-5-4.4-7.5-6.7C559.7,119.1,559.3,118.6,558.9,118z M568.3,112.1c-0.9-1.5-1.7-2.7-2.3-4c-0.2-0.6-0.8-0.9-1.4-0.7
	c-0.1,0-0.2,0.1-0.2,0.1c-0.5,0.2-0.7,0.7-0.5,1.2c0,0.1,0.1,0.2,0.2,0.3c0.8,1.1,1.7,2.1,2.7,3.1
	C567,112.3,567.6,112.1,568.3,112.1z"/>
<path class="st0" d="M559.5,87.9c1.8-2,4.5-2.8,7.2-2.3c-1.4,5.3,1.5,7.9,5.5,9.4c-0.2,0.3-0.5,0.5-0.7,0.8
	c-5.1,4.2-9.2,9.4-12.2,15.3c-1,2.2-1.9,4.5-2.5,6.8c-0.2-0.1-0.7-0.3-1.1-0.4c-0.5,0.6-1.1,1.2-1.6,1.7c-0.8,0.6-1.5,0.4-1.7-0.5
	c-0.6-2.6-1.1-5.2-1.6-7.8c-0.6-2.4-0.6-4.9-0.1-7.3c0.3-1.6,0.8-3.2,1.4-4.8c1.1-3,2.8-5.8,5.1-8.1
	C557.9,89.7,558.6,88.7,559.5,87.9z"/>
<path class="st0" d="M591.3,125l-0.3-1.9c-1.3-0.2-1.5,0.9-2,1.5l-1.4-0.7c0-0.2,0-0.3,0-0.5c1-2.5,1.8-5.1,2.3-7.7
	c0.4-3.4,0.4-6.8,0-10.2c-0.1-0.7-0.2-1.4-0.3-2.1c-0.4-3.1-1.7-6-3.7-8.4c-0.2-0.3-0.4-0.6-0.7-1.1c1.2-0.5,2.3-1.1,3.4-1.6
	s2.3-1.2,3.5-1.8s1.5-0.7,2.2,0.2c2.7,3.5,5.1,7.2,6.1,11.6c1.1,4.6-0.1,8.9-2.5,12.9c-1.6,2.7-3.4,5.3-5.2,8
	C592.3,123.7,591.9,124.2,591.3,125z"/>
<path class="st3" d="M624.7,133.2c-3.4,2.2-6.2,5.2-8.3,8.7c-0.8,1.6-2.1,2.8-3.7,3.7c-2.6,1.4-4.4,4.1-4.6,7.1l-0.1,1.6
	c-3.5,0.2-6.8,0.3-10.3,0.5c0.2-1.7,0.8-3.4,1.8-4.9c1.8-2.9,3.4-5.9,5.3-8.7c1.4-2.1,2.9-4.1,4.7-5.9c1.7-1.7,3.8-3,6.6-2.5
	c1.8,0.2,3.7,0.3,5.5,0.2C622.6,133,623.7,133.1,624.7,133.2z"/>
<path class="st8" d="M543.4,141.5c-1.5,7-3.6,13.5-5.2,20.2c-2.9-0.8-5.7-2.2-8-4.1c-1.7-1.2-2.4-3.4-1.9-5.4
	c0.5-2.1,0.8-4.3,1.3-6.5c0.2-1,0.6-1.9,0.9-3.1C534.8,142.3,539,141.9,543.4,141.5z"/>
<linearGradient id="SVGID_1_" gradientUnits="userSpaceOnUse" x1="140.5584" y1="-167.9197" x2="169.3684" y2="-167.9197" gradientTransform="matrix(6.123234e-17 -1 -1 -6.123234e-17 377.0753 219.5276)">
	<stop  offset="0" style="stop-color:#FFFFFF"/>
	<stop  offset="1" style="stop-color:#000000"/>
</linearGradient>
<path class="st9" d="M538.6,67.5c0-5.8,1.1-11.5,1.7-17.4c0.4,0.4,0.6,0.8,0.9,1c0.7,0.7,1.4,1.4,2.2,2c0.8,0.6,1.9,0.6,2.7,0.2
	c1.4-0.7,1.3-0.6,2.2,0.8c1.9,2.9,2.2,6.3,2.9,9.5c0.1,0.6,0.2,1.2,0.3,1.8c-0.9-0.6-1.7-1.3-2.5-1.8c-0.3-0.2-0.7-0.4-1.1-0.5
	c-0.8-0.1-1.3,0.4-1,1.1c0.3,1,0.6,1.9,1.1,2.9c0.5,1.2,0.7,2.6,0.6,3.9c-0.7-0.4-1.3-0.8-1.9-1.3c-0.6-0.5-1.2-0.8-1.8-0.2
	s-0.3,1.1,0,1.6c1,2.4,1.7,4.9,1.8,7.5c-0.9,0.4-1.4,0.1-1.4-0.6c-0.1-1.5-0.4-3-1.1-4.3c-0.5-1.5-1.4-2.9-2.5-4.1
	c-0.6-0.4-0.8-1.2-0.6-1.9c0.6-2,1-4.2,1.8-6.1c0.8-2.1,1.8-4.1,2.8-6c0.3-0.5,0.5-1,0-1.4c-0.5-0.4-1.1-0.3-1.5,0.2
	c0,0-0.1,0.1-0.1,0.2c-0.7,1.1-1.4,2.2-2,3.4c-0.5,1.1-0.9,2.3-1.3,3.5c-0.5,1.8-1,3.5-1.5,5.3c-0.1,0.2-0.2,0.4-0.3,0.6H538.6z"/>
<path class="st4" d="M674.2,73.4c0.2-1.8,0.3-3.5,0.6-5.3c0-0.4,0.6-0.6,0.7-1c0.4-0.6,0.6-1.2,0.7-1.9c-0.2-1.4-0.6-2.8-1.1-4.1
	c-0.1-0.4-0.5-0.6-0.8-0.7c-0.6,0-0.7,0.6-0.6,1.1l0.5,4.1c-2.5,1.8-4.7,1.1-5.6-1.5c-0.2-0.5-0.3-0.9-0.4-1.4
	c-0.5-2.4-0.5-3,2.2-4.3c1.5-0.7,3.1-1.3,4.6-1.9c1.8-0.7,2.8-0.6,3.9,0.9c1.8,2.5,3.3,5.1,3.3,8.3c0,0.9-0.2,1.9-0.8,2.7
	c-1.8,2.4-4.5,3.6-6.8,5.3L674.2,73.4z"/>
<linearGradient id="SVGID_2_" gradientUnits="userSpaceOnUse" x1="174.6284" y1="-186.8598" x2="185.6465" y2="-186.8598" gradientTransform="matrix(6.123234e-17 -1 -1 -6.123234e-17 377.0753 219.5276)">
	<stop  offset="0" style="stop-color:#FFFFFF"/>
	<stop  offset="1" style="stop-color:#000000"/>
</linearGradient>
<path class="st10" d="M549.1,44.9l-2.3-2.2c1-0.5,2.1-1.2,3.2-1.7c3.3-1.6,6.4-3.7,10.1-4.6c4.3-1.2,8.7-2,13.2-2.4
	c2.2-0.2,4.3,0.3,6.2,1.4c0.8,0.3,1.3,1,1.6,1.8c-0.6-0.1-1.2-0.2-1.8-0.2c-0.8,0-1.5,0.1-2.2,0.5c-0.7,0.6-1.6,0.8-2.5,0.6
	c-1.4-0.2-2.8-0.3-4.3-0.4c-0.5-0.1-1,0-1.4,0.1c-2.4,0.7-4.8,1.1-7.2,1.3c-3,0.5-5.9,1.6-8.5,3.2C551.8,43.1,550.4,44.1,549.1,44.9
	z"/>
<path class="st8" d="M590.6,140.7c2-0.8,4-0.5,6-0.5s4,0,6.2,0c-0.2,0.5-0.5,0.9-0.8,1.3c-2,2.8-3.7,5.8-5.1,9
	c-0.4,1.1-0.8,2.3-1,3.4c-0.2,0.7-0.2,0.7-1.1,0.8L590.6,140.7z"/>
<path class="st3" d="M430.2,106.3l-1.4-8.4c3,0.4,6-0.3,9.1,0.3c-0.8,2-2.5,2.9-3.6,4.3C433.2,103.9,431.8,105.2,430.2,106.3z"/>
<path class="st4" d="M683.6,62.1c-1.2-3.9-2.7-7.4-7.4-7.9c0-1-0.1-2,0.8-2.4c1-0.4,2.2-0.2,3,0.5c0.5,0.3,0.8,0.7,1.2,1.1
	c1.7,2,2.9,4.4,3.5,6.9C685,61.1,684.9,61.9,683.6,62.1z"/>
<linearGradient id="SVGID_3_" gradientUnits="userSpaceOnUse" x1="167.8583" y1="607.7681" x2="174.8498" y2="607.7681" gradientTransform="matrix(6.123234e-17 -1 1 6.123234e-17 -63.0855 219.5276)">
	<stop  offset="0" style="stop-color:#FFFFFF"/>
	<stop  offset="1" style="stop-color:#000000"/>
</linearGradient>
<path class="st11" d="M547.3,48.7c-0.2,0.6-0.4,1.1-0.7,1.7c-0.9,1.6-2.2,1.7-3.5,0.5c-1-1-1.3-2.5-0.8-3.8c0.5-1.2,1.6-2.1,2.9-2.3
	c1.1-0.1,1.5,0.3,1.7,1.3C547.1,46.8,547.2,47.6,547.3,48.7z M544.3,47.3c-0.1,0.1-0.5,0.4-0.7,0.8c-0.2,0.6,0.3,1,1,1s1-0.3,1-0.9
	S545.5,47.2,544.3,47.3L544.3,47.3z"/>
<path class="st12" d="M675.3,35l3.1-23.1h0.4c0.1,0.3,0.3,0.6,0.3,0.8c-0.1,1.5-0.2,3.1-0.4,4.6c-1,5.9-2,11.8-3,17.6L675.3,35z"/>
<path class="st4" d="M675.7,50.2c1.1-2,3.6-2.9,5.1-1.8c1.9,1.2,3.4,2.9,4.3,4.9c0.2,0.6,0.7,1.3-0.3,2
	C682.9,51.7,680.7,48.8,675.7,50.2z"/>
<path class="st1" d="M570.6,53.2l0.8,3.6c-3.5,0.4-3.5,0.4-5,2.1C565.7,56,567.5,53.1,570.6,53.2z"/>
<path class="st4" d="M674.8,48.3c-0.7-0.5-0.9-0.9-0.3-1.4c0.6-0.7,1.4-1.1,2.2-1.4c1.6-0.3,3.2-0.8,4.9-0.3
	c1.4,0.4,2.3,1.5,3.3,2.4c0.5,0.4,0.3,0.6-0.7,1.3C681.3,45.8,678.1,45.3,674.8,48.3z"/>
<path class="st4" d="M572.6,131.4c2.1,1,3.8-0.6,5.8-0.8c0.4,1.2,0,2.4-1,3.1c-1,0.6-2.3,0.4-3.2-0.4c-0.6-0.5-1.2-1.1-1.7-1.6
	L572.6,131.4z"/>
<path class="st1" d="M581.5,54.3c-1.4,0.3-2.6,0.6-4,0.9c0-0.6,0-1.1,0-1.7c0.1-0.6,0.1-1.3,0.9-1.6c0.9-0.2,1.8,0.2,2.3,0.9
	C581,53.3,581.2,53.8,581.5,54.3z"/>
<path class="st12" d="M672.4,71.2c-0.2,1.6-0.3,3.3-0.5,4.9c-0.2,2-0.5,4.1-0.8,6.1c0,0.1-0.3,0.3-0.5,0.4l0,0l1-7.9
	c0.1-1.1,0.2-2.1,0.4-3.2C671.9,71.4,672.3,71.3,672.4,71.2L672.4,71.2z"/>
<path class="st1" d="M569,104.4l0.9-0.5l2.1,1.6c0.1,0.3,0.2,0.6,0.3,0.9c0.2,0.3,0.5,0.5,0.8,0.7l-0.3,0.4L569,104.4z"/>
<path class="st12" d="M670.5,82.6c0.1,1.4,0.2,2.8,0.2,4.3c-0.1,1.8-0.2,3.5-0.5,5.3C669.7,89,670.3,85.8,670.5,82.6L670.5,82.6z"/>
<path class="st1" d="M581.3,97.1c-0.5-0.1-0.8-0.2-1.4-0.4c0.4-0.6,0.9-1.1,1.4-1.6c0.5-0.5,1.3-0.6,1.8-0.1L581.3,97.1z"/>
<path class="st1" d="M570.4,62c-0.9-1.6-0.9-1.7-0.3-3C571.2,60.2,571.2,60.8,570.4,62z"/>
<path class="st1" d="M582.8,99l-2,4.8C580.7,102,581.5,100.2,582.8,99z"/>
<path class="st4" d="M673.7,50.6c-1.2,0.4-2.1,0.7-3.1,1.1C671.7,50.2,672.1,50,673.7,50.6z"/>
<path class="st12" d="M674.6,43.9c-0.6-2,0.1-3.6,0.5-5.2L674.6,43.9z"/>
<path class="st1" d="M581.3,59.6l-0.9-2.7l0.4-0.1C581,57.6,582.3,58.1,581.3,59.6z"/>
<path class="st1" d="M574.9,107.7c-0.5,1.3-0.9,0.7-1.6,0.2L574.9,107.7z"/>
<path class="st1" d="M566.7,103.6l1,0.2l-0.1,0.4l-1-0.2L566.7,103.6z"/>
<path class="st1" d="M583.9,97.2l-0.2-1.2L584,96l0.4,1.2L583.9,97.2z"/>
<path class="st1" d="M578.6,95.7c-0.4,0.4-0.7,0.8-1.3,1.4C577.4,96,577.9,95.8,578.6,95.7z"/>
<path class="st1" d="M577.7,116.3c0.3,0.8,0.2,1.2-0.8,1.1L577.7,116.3z"/>
<path class="st12" d="M672.4,71.2l-0.3-1.8h0.4C672.7,70,672.6,70.6,672.4,71.2L672.4,71.2z"/>
<path d="M523.1,45.5c-1.1,0.5-2.3,1-3.5,1.3c-4.4,1.1-8.9,1.7-13.5,1.9c-1.7,0.1-3.3-0.3-4.8-1.2c-0.7-0.5-1.6-0.6-2.3-0.3
	c-2.1,0.6-4.2,1.1-6.3,1.4c-2.2,0.3-4.5,0.1-6.7-0.4c-1.4-0.3-2.5-1.4-2.6-2.8c0-0.3,0.2-1,0.3-1c0.4,0,1.1,0.1,1.2,0.4
	c0.5,1.8,2,1.9,3.5,2.1c2.3,0.2,4.6,0.1,6.8-0.4c1.8-0.3,3.7-0.4,5.3-1.4c0.6-0.4,1.5-0.1,2.2-0.2c1.6-0.4,3.2-0.8,4.8-1.2
	c0.1,0,0.2,0,0.5,0.1c-0.4,1.1-1.6,0.9-2.3,1.3c-1,0.4-1.9,0.8-2.9,1.1c1.3,0.6,2.8,0.8,4.2,0.6c4.9,0.1,9.7-0.4,14.4-1.5
	c0.3-0.1,0.6-0.1,0.9-0.1c0.2,0,0.5,0,0.7,0.1L523.1,45.5z"/>
<path d="M535.1,79l4.5,2.7c-0.6,1-1.1,1.2-2.6,0.8c-1-0.4-2-0.9-3-1.4v3c-0.8,0.5-1.1,0.6-1.5-0.2c-0.5-0.8-0.6-1.8-0.5-2.8
	c0.4-2.1,1.8-3.7,2.7-5.6c0.4-0.9,1.4-1,2.3-1.1c0.5,0,1.1,0.1,1.6,0.2c1.3,0.2,1.3,0.5,0.5,1.7C536.4,76,536,76.3,535.1,79z"/>
<path d="M558.6,78.9c0.5,0.2,1.1,0.4,1.6,0.6c0.7,0.4,0.7,1.5,0,1.8c-2,0.7-2.9,2.4-4,3.9c-0.3,0.4-0.5,1.1-1.2,0.8
	s-0.8-0.9-0.7-1.6c0.3-1.7,1.2-3.3,2.5-4.5C557.3,79.5,557.9,79.2,558.6,78.9z"/>
<path d="M557.4,70.8c0-1.7,1.1-2.2,2-2.9c0.4-0.4,1.1-0.5,1.5,0c0.1,0.1,0.1,0.1,0.2,0.2L557.4,70.8z"/>
<path d="M525,26.8l-1.4,0.9c0.3,0.4,0.7,0.7,1.1,1c1.8,1,3.8,0.8,5.8,1c2.2,0.2,4.5,0.1,6.8,0.1c0.6,0,1.2,0.3,1.7,0.6
	c-0.4,0.1-0.7,0.3-1.1,0.3c-1.5,0.1-3,0.1-4.4,0.2c-1.4,0-2.8,0.1-4.3,0.4c-1.4,0.2-2.8,0.1-4.1-0.3c-1.6-0.2-2.9-1.4-3.2-3
	c-2.5,0.3-4.8,0.7-7.2,1c-3.3,0.4-5.9-1.2-8.3-3.2c-0.7-0.5-0.8-1.3-0.3-1.7s1.1-0.1,1.6,0.3c2.3,2.1,5.3,3.2,8.4,2.9
	c2.2-0.2,4.4-0.2,6.6-0.3c0.7-0.1,1.4-0.2,2.1-0.4L525,26.8z"/>
<path d="M582.6,70c-0.1-0.5,0.1-1,0.6-1.1c0.1,0,0.2,0,0.3,0c1.1,0,2.1,0,3.2,0.2c0.2,0,0.5,0.4,0.5,0.6c-0.1,0.3-0.2,0.5-0.5,0.6
	C585.2,70.6,583.8,71.2,582.6,70z"/>
<path d="M577,71.4c0.3,0.1,0.5,0.3,0.7,0.5c0.2,0.3,0.3,0.8,0.5,1.1s0.6,0.9,0,1.2c-0.4,0.2-0.9,0.1-1.3-0.1
	c-0.5-0.4-0.8-0.9-1.1-1.4C575.6,72,576.1,71.3,577,71.4z"/>
<path d="M578.4,71.3c1.4-0.9,1.7-0.8,3.3,0.7C579.8,73.4,579,73.2,578.4,71.3z"/>
<path d="M693,34.7c-1,0-1.7,0-2.4,0c-0.9,0-1.3-0.4-1.3-1.3c0.3-3.9,0.6-7.7,1-11.6c0.2-2.4,0.5-4.9,0.9-7.3
	c0.1-0.4,0.3-0.9,0.6-1.1c0.5-0.5,1.3-0.5,1.9,0c0.2,0.2,0.3,0.3,0.3,0.5c0.8,1.8,1.6,3.7,2.3,5.6c0.2,0.5,0.4,1,0.6,1.5
	c0.5-2.9,0.8-5.9,0.8-8.9c0.9-0.2,1.7-0.5,2.5-0.7c0.7-0.2,1.4,0.2,1.6,0.8c0.1,0.2,0.1,0.4,0,0.7c-0.4,4.8-0.9,9.6-1.3,14.4
	c-0.1,1.5-0.2,3.1-0.3,4.6c-0.1,1.1-0.3,1.4-1.4,1.5c-1.5,0.2-2.2-0.1-2.5-1.1c-0.6-2.2-1.9-4.1-1.7-6.5c0-0.2-0.2-0.4-0.5-0.9
	C693.2,28.3,694,31.6,693,34.7z"/>
<path d="M685.6,34.9h-3c-0.9,0-1.1-0.6-1-1.3c0.1-1.7,0.3-3.3,0.5-5c0.5-4.3,1.1-8.6,1.6-13c0.1-1.1,0.4-1.6,1.5-1.9
	c1-0.3,1.9-0.5,2.9-0.7c1.1-0.2,1.5,0.2,1.6,1.4c0,0.9-0.2,1.8-0.2,2.7c0.1,4.1-0.8,8.1-1.3,12.1c-0.1,1.2-0.2,2.4-0.3,3.5
	C687.8,35,687.8,35,685.6,34.9z"/>
<path d="M568.3,112.1c-0.7,0-1.3,0.2-1.5,0c-1-1-1.9-2-2.7-3.1c-0.4-0.3-0.4-0.9,0-1.3c0.1-0.1,0.2-0.2,0.3-0.2
	c0.5-0.3,1.2-0.2,1.5,0.3c0,0.1,0.1,0.1,0.1,0.2C566.6,109.4,567.4,110.6,568.3,112.1z"/>
<path d="M544.3,47.3c1.1-0.1,1.3,0.4,1.4,0.9s-0.3,1-1,0.9s-1.3-0.5-1-1C543.8,47.7,544.2,47.4,544.3,47.3z"/>
<polygon class="st0" points="548.7,63.5 548.1,63.3 547.5,63.1 547,63.3 546.8,63.7 546.8,64.3 547.2,65.5 547.7,66.9 548.2,68.2 
	548.4,69 548.5,71.1 546.5,69.8 545.8,69.4 545.3,69.3 544.8,69.6 544.6,69.9 544.5,70.2 544.6,70.9 545.4,72.7 545.8,74.1 
	546.2,75.5 546.5,77.8 546.6,78.8 546.2,78.9 545.7,78.9 545.3,78.6 545.2,78.2 545.1,77.2 545,76.4 544.8,75.6 544.3,74.2 
	543.5,72.4 542.7,71.1 541.9,70.1 541.3,69.5 541,69 540.9,68.7 540.9,68.2 542,64.1 542.6,62.2 543.6,59.8 544.9,57.2 545.6,55.8 
	545.9,55.1 545.7,53.5 546.7,53.1 547.4,53 548.3,54.1 549.2,55.8 549.8,57.6 550.2,58.9 550.6,60.9 551,62.7 551.3,64.3 
	551.4,65.5 550,64.6 "/>
</svg>
