<svg id="Calque_1" data-name="Calque 1" xmlns="http://www.w3.org/2000/svg" viewBox="0 0 441.1 1000"><defs><style>.cls-1{fill:#8c6239;}.cls-2{fill:#fff568;}.cls-3{fill:#fff;}.cls-4{fill:#ffd74e;}.cls-5{fill:#f9c956;}.cls-6{fill:#39b54a;}.cls-7{fill:#e7d4cf;}</style></defs><title>restauranst panneau</title><path d="M243.88,449.85h0c0-5.28-.33-10.59-.17-15.87a23.68,23.68,0,0,1,1.84-5.81,17,17,0,0,1-1.15-13.12c1.87-6.39,3.54-12.82,1.64-19.67a14.64,14.64,0,0,1,0-3c-.49-10.56-.85-21.15-1.57-31.71-.3-4.66-1.74-9.25-1.84-13.91-.26-11.54-.26-23-4-34.24a21.27,21.27,0,0,1,.23-12.66c1.74,5.18.26,11.09,4.26,15.65-2.29-8.79.33-18.27-4.13-27.06a144,144,0,0,1-17.78,4,10.79,10.79,0,0,0-8.33,4.85c-6.56,8.23-11.21,16.89-7.87,28a30.85,30.85,0,0,1,0,8.69h-.43l-1.8-12.49a4,4,0,0,1-.69,0V333l-.56,1a22.58,22.58,0,0,0-1.87,3.28c-1.44,3.84-2.59,7.77-4,11.61-2.3,6-2.39,7.74,0,15.38l2-12.1a14.6,14.6,0,0,1,0,12.2,20.4,20.4,0,0,0-1.5,7.9c1,10.73,2.39,21.39,3.54,32.11.92,8.73,1.6,17.48,2.59,26.24.92,8,2,15.94,3.08,23.88l4.79,33.78c1.25,8.89,2.69,17.77,3.57,26.73.76,8.13,1.25,16.4,1.81,24.43l.62,9c.26,3.28.85,6.56,1.28,9.57,1.18-.19,2-.36,2.95-.52a44.35,44.35,0,0,0-2.13,8.49,57.16,57.16,0,0,0,.82,10.53c1.21,10.46,2.66,20.93,3.77,31.42,1.61,15,3,30.14,4.63,45.16l.55,5.12c1.32,11.67,3.28,23.28,4.63,34.93.72,6,.72,12.1,1.31,18.13,1.31,13.12,2.66,26.51,4.3,39.72s3.47,25.58,5.47,38.31c2.37,14.89,5.55,29.52,7.32,44.6,1.9,15.94,2.82,32,3.7,48.09s1.18,31.64,1.81,47.45a68.44,68.44,0,0,0,1,8.46c3.28-1,3-6.26,7.74-5.54-2.88,4.53-7.14,7.74-8,13.12,3.93-.29,3.57-6.07,8.26-5.74-2.2,5.58-8.95,8.3-8.13,15.19,3.54-1.32,4.19-6,8.79-6.07-1.81,2.56-3.28,4.79.42,6a25.32,25.32,0,0,0-.23,15.52c12.14-1.22,23.75-2.33,36.08-3.55a32,32,0,0,0,0-6.19c-1.8-9.42-3.28-19-5.9-28.14C292.48,918.17,288,904,286.81,889c-.36-4.85-1.41-9.64-2.2-14.46-1.48-9.09-3.28-18.11-4.46-27.19-2.56-18.4-4.89-36.8-7.25-55.23a7.67,7.67,0,0,1,.43-2.23,127.26,127.26,0,0,1,4.33,21.35c1.87,14,3.57,28,5.44,42,1.15,8.33,2.59,16.63,3.77,24.92A293.73,293.73,0,0,0,297,927.64a151.81,151.81,0,0,1,8.53,40.61h7.35l-.69-3.28c-2-9.38-4.13-18.76-6-28.17-2.07-10.76-3.87-21.55-5.87-32.34S295.89,882.19,294,871c-3.47-21.05-6.56-42.18-10.1-63.23-3.08-18.57-6.1-37.13-7.38-55.92-.49-7.41-.75-14.89-1.51-22.3-1.83-18.11-4.26-36.08-5.74-54.32-1.57-18.92-5.87-37.55-6-56.64,0-10.16-.76-20.36-1-30.53-.19-9,.17-18.11-.29-27.13-.82-16.23-2.1-32.46-3.08-48.7-.63-9.84-1-20-1.68-30a309.07,309.07,0,0,0-4.29-36.79,186.07,186.07,0,0,1-1.51-21.09c-.33-4.69-.85-9.35-1.28-14a50,50,0,0,0-2.2,13.84c0,5.05.23,10.13.33,15.22.2,12.39.2,24.79.69,37.16.36,9.84,1.31,19.68,2,29.32h0a10.27,10.27,0,0,1-1.44-2.59c-.66-2.89-1.05-5.84-1.57-8.76a593.56,593.56,0,0,0,0,65.89,22.11,22.11,0,0,1-1-6.56c0-2.72,0-5.48-.2-8.17A200.28,200.28,0,0,1,245,508.86c1.31-15.85-1-31.56-.76-47.33,0-3,0-6-.23-9V450l.5.89a28.93,28.93,0,0,1,1.18,11.25l.26,13.64c1.9-11,1.05-37.26-1.08-41.75a72.93,72.93,0,0,0,.55,12,3.61,3.61,0,0,1-1.37,3.94h0ZM151.55,4c0-3.77,1.87-4.69,5.31-3.54a8.74,8.74,0,0,1,6,4.63A12,12,0,0,0,173.53,12a13.18,13.18,0,0,1,5.08,1.28c6.26,3.28,12.49,6.56,18.59,9.84A13.6,13.6,0,0,1,204,34.74c.42,6.79.75,13.61,1.18,20.4.16,2.49.39,5,.65,8.2,4.76-1.22,9-2,13.12-3.28,11.84-4.14,23.65-8.37,35.36-12.83,13.12-4.95,25.84-10.33,38.9-15.22,15-5.64,30.2-10.88,45.32-16.39,9.84-3.58,20-7.09,29.91-10.76a27.47,27.47,0,0,1,14.37-1.22c9.25,1.55,18.53,3,27.84,4.27,5.61.75,11.32.88,17,1.54a17,17,0,0,1,6.56,1.9,10.13,10.13,0,0,1,4.43,5.08,20.31,20.31,0,0,1,1,10.86c-.56,2.1-2.13,5,1.35,6.76.36.16,0,2.65-.53,3.7-4.3,7-8.43,14-13.12,20.63-6.56,9.15-13.87,17.91-20.89,26.77a32.1,32.1,0,0,1-14.07,9.34c-7.45,2.86-15.12,5.09-22.7,7.58-7,2.33-14.13,4.59-21.15,7-9.84,3.28-20.07,6.56-30,10.3-13.94,5.12-27.81,10.5-41.65,15.84-11.51,4.43-23,9.15-34.47,13.45-8.07,3-16.4,5.48-24.24,8.1l3.28,36.08a26,26,0,0,0,5.44-.33c16.14-4.33,32.8-5.87,49.2-9.15,10.53-2.13,21-4.86,31.65-6.17a33.84,33.84,0,0,1,6.95-.82,35.53,35.53,0,0,1,7.12,2.33,102.12,102.12,0,0,1,.43,18.17c-1.51,10.1.42,19.94.65,29.91.2,8.63.76,17.22,1,25.85a81.42,81.42,0,0,1-.33,10.59,34.18,34.18,0,0,1-1.9,6.56c-.89,2.66-3.28,2.69-5.51,3.64-6.95,3-14.4,2.79-21.58,4.16-16.4,3.28-33,6.3-49.69,9.45l2.23,26.24c.89.36,1.38.72,1.57.59,4.56-3.08,10-2.76,15.06-4,4.06-1,6.07.2,6.56,4.4,1.08,7.54,1.8,15.15,2.75,22.73.49,3.87,1.18,7.74,1.77,11.74,3.28,0,5.28-.56,5.22-4,0-1.84.85-3.28,2.72-2.92a4,4,0,0,1,2.59,2.62,17.61,17.61,0,0,1-2.88,13.78c-1.32-2-2.17-3.28-3.09-4.56-.88.23-1.8.46-2.62.69-.23.49-.56.85-.53,1.15a89.45,89.45,0,0,0,1.28,11.05,98.45,98.45,0,0,1,.76,28.11c0,2.55-.33,5.08-.23,7.6,0,3.65-.53,5.15-3.84,4.92-5.61-.39-11.12,2.79-16.79.23-.92-.42-2.26,0-3.81,0a30.47,30.47,0,0,0-.36,4q.83,13.77,1.84,27.52a88.38,88.38,0,0,0,1.18,9.31,405.89,405.89,0,0,1,3.87,42.64c1.18,15,2.72,29.94,4,44.93.26,3.28,0,6.26.23,9.41.33,18.24.3,36.51,1.12,54.74.52,12.46,2.19,24.89,3.28,37.36.85,9.34,1.6,18.72,2.59,28.07.78,7.18,1.9,14.33,2.82,21.52.69,5.41,1.37,10.85,1.93,16.4.63,6.23,1.12,12.49,1.68,18.72l1.83,21c.4,4.49.72,9,1.28,13.44,1.61,13.78,3.28,27.59,5.08,41.33,1.09,7.9,2.83,15.74,4.2,23.61,1.71,9.84,3.28,19.68,5.05,29.52s2.89,19.35,4.63,29q3.6,20.24,7.61,40.34c2.29,11.51,4.82,23,7.31,34.93,4.66.52,9.32.82,13.87,1.64a157.18,157.18,0,0,1,16.6,3.84c6.26,1.87,7.15,5.93,2.75,10.92-.39.42-.75.88-1.24,1.51,2.39,2.82,7.71.72,9.08,5.67-7.34,4.92-15.54,2.07-23.51,3.28l-.49-4.69a124.27,124.27,0,0,1-24.21-5.08A30.62,30.62,0,0,0,296,971a254.58,254.58,0,0,0-25.71,2.56c6.56,4.66,14.85,3.28,22,5.58v1.24a10.9,10.9,0,0,1-3.77,1,79.4,79.4,0,0,1-24-4.79,8,8,0,0,0-9.21,1.9,48.53,48.53,0,0,1-4.14,4.1,9.51,9.51,0,0,1-3.6.79,9.79,9.79,0,0,1,0-3.58,43.8,43.8,0,0,1,2.82-5.44l-1.12-.69-8.79,12.92-1.05-.69,7-12.36c-5.45,2.62-6.92,8.92-12,11.67,3.28-5.6,7.91-10.23,9-17.05-2.69,3.67-5.12,7.54-8.1,11s-4.86,8.14-9.65,9.84l-.32-.29c4.06-5.48,8.16-10.89,12.16-16.4a15.05,15.05,0,0,0,2.33-5.18,15.63,15.63,0,0,0-8.16,8c-1,2.23-3.51,3.77-5.28,5.67-4.3,4.56-8.5,9.19-12.86,13.65a15.77,15.77,0,0,1-3.84,2L226.26,977c-11.8,3.65-19.68,13.39-30.79,18l-.79-1.25c2.89-1.87,5.94-3.54,8.63-5.68a65.28,65.28,0,0,0,6.55-6.55,11.67,11.67,0,0,1,2.73-2c3.28-1.67,6.56-3.28,10.62-5.11a48.67,48.67,0,0,0-1.87-9c-3.51-8.69-7.38-17.25-11.08-25.88-1.58-3.67-4.3-7.05-3.74-11.58,2.16-1,3.28,0,4.46,1.64q7,9.84,14,19.45c.2.3.63.43,1.38.89l-2-15,.92-.2,4.59,20.83a7.93,7.93,0,0,0,1.18-.23,127.85,127.85,0,0,0-1-13.12,103.78,103.78,0,0,0-7.15-26.53c-.85-1.81-1.9-3.58,1.74-5,5.6,16.66,9.84,33.23,8.79,50.94a9.62,9.62,0,0,0,2.36-6.56A112.46,112.46,0,0,0,226,901.73c-2.95-6.85-6.39-13.47-9.64-20.2a13.11,13.11,0,0,1,3.28,3.28c6,11.22,11.84,22.53,14.27,35.26.85,4.39,2.55,8.62,3.57,13.12a86.2,86.2,0,0,1,.16,29c3.74-2.82,7.29-5.41,10.73-8.1,4.39-3.28,4.89-8.36,4.89-13.31q0-15.9-.56-31.82c-.26-8.62-.85-17.25-1.44-25.84-.53-7-1.32-14.07-1.87-21.09-.92-11.51-1.35-23-2.69-34.57-1.22-10.3-3.45-20.46-5.15-30.7-1.41-8.49-2.79-17-4-25.51-1.54-11.06-3-22.14-4.23-33.23s-2.1-23-3.28-34.53c-1-9.51-2.33-19-3.48-28.57s-2.39-19.42-3.54-29.16c-1.41-12.23-2.82-24.5-4.1-36.79-1.74-16.4-3.48-32.8-5-49.2-1.37-15.22-2.23-30.5-3.8-45.72-1-10.3-3.08-20.5-4.46-30.8-1.41-10.85-2.56-21.77-3.81-32.79q-2.16-18.37-4.26-36.74c-.33-2.88-.39-5.84-.59-9.28-5.48-1.31-10.72-2.72-16-3.77a15.59,15.59,0,0,1-11.21-6.56,50.72,50.72,0,0,0-6.37-6.89,47,47,0,0,1-9.67-18.59,8,8,0,0,1,1.7-8.63c7.45-8,14.73-16.4,22.21-24.24a11.73,11.73,0,0,1,4-2.23c2-.88,4-1.64,6.56-2.65l-4.46-29.52c-5,.88-9.84,1.7-14.56,2.52-6.33,1.09-12.69,2.1-19,3.28-4.63.79-9.22,1.74-13.84,2.53-3.48.59-7,.82-10.47,1.61-8.13,1.9-16.4,4-24.37,6.06s-15.8,4.23-23.67,6.56a21.35,21.35,0,0,1-13.12-.85c-6.56-2.36-13.12-5.38-19.42-8.26-5.87-2.66-11.64-5.58-17.51-8.34-3.84-1.8-8.4-2.23-11.12-6.1-.23-.32-1-.42-1.48-.42-3.28,0-5-2.82-6.39-5.05-2.46-3.74-4.33-7.84-6.56-11.81-3.48-6.56-3-10.46,1.93-16Q19.48,250,34.83,233c3-3.28,6-6.75,9.11-10a13.64,13.64,0,0,1,9.48-4c8-.43,16.1-.69,24-1.87,16.07-2.43,32-5.48,48.08-8.17,12.33-2.1,24.7-4.07,37-6.13,2.1-.36,4.13-1,6.27-1.58V178.91c-8.4-.36-14.7,4.73-22,6.56a221.88,221.88,0,0,0-21.64,7.87,11.41,11.41,0,0,1-8.56-9.64c-.53-3.8-2.92-7.31-3.74-11.08a45.82,45.82,0,0,1,0-9.22,12.59,12.59,0,0,0,0-4c-1.74-5.18-3.74-10.3-5.58-15.48-2.52-7.18-5.05-14.36-7.41-21.61a4.22,4.22,0,0,1,.75-3.28,60.11,60.11,0,0,1,5.68-7.41,33.89,33.89,0,0,0,8.89-15.32c13.44-7.08,28.86-9.25,43.19-15.19a134.46,134.46,0,0,0-2.82-33.42c-1.77-.49-3.57-1-5.44-1.47l-3.58,4.82c-3.51-.26-4.1-2.66-3.44-5a101.33,101.33,0,0,1,4-10.26c3.28.55,3.51,2.82,3.9,4.88.56,2.89,2.36,2.46,4.72,2C154.5,32.87,153.16,23.49,152,14A58.73,58.73,0,0,1,151.55,4Zm3.77-1V13.45c2.76-2.56,1.84-5.48,2.17-8C157.55,5,156.67,4.46,155.32,3ZM379.23,7.68a22.77,22.77,0,0,0-8.66.49,88.07,88.07,0,0,0-10.66,3.28c-14.07,4.82-28.2,9.51-42.21,14.63-12.2,4.46-24.37,9.08-36.53,13.71l-19,7.21C247,52.77,232,59,216.62,64.19c-9.25,3.28-18.69,5.61-27.75,9.48s-19,7.18-28.46,10.46c-8.7,3-17.55,5.51-26.24,8.46-5.28,1.77-11.12,2.3-16.24,6.56,13.12,21.81,15.65,46.83,22,71.43a21.22,21.22,0,0,0,3.05-.65q15.18-5.42,30.4-10.89c6.56-2.33,7.64-5.12,5.48-11.74-1.38-4.23-2.43-8.56-3.51-12.89a7.91,7.91,0,0,1,.52-1.87l1.18-.2c1.28,2.72,2.63,5.38,3.78,8.13,1.93,4.56,3,9.84,8.39,12a14.43,14.43,0,0,0,1.58-.36l23.68-8.82q16-5.91,32-11.87c15.25-5.68,30.6-11.19,45.92-16.93S322.62,102.76,337.81,97c8.39-3.28,16.79-6.36,25.19-9.54,11.21-4.26,22.46-8.5,33.65-12.76a13.17,13.17,0,0,0,4.82-3.28,178.61,178.61,0,0,0,21.71-29.84,8.74,8.74,0,0,0,.52-2.37l-5.51-3.28a39.16,39.16,0,0,1,8-2.55,5.06,5.06,0,0,0,4.62-3,57.42,57.42,0,0,0,3.68-8.62,4.81,4.81,0,0,0-2.84-6.2l-.18-.07a31.53,31.53,0,0,0-9-2.43c-6.92-.52-13.84-1.31-20.69-2.23C394.09,10.11,386.71,8.89,379.23,7.68ZM169.06,19.75a41.29,41.29,0,0,1-7.28-7.25c.89,5.9.56,11.15,2.4,16.4A5.27,5.27,0,0,0,169,32.83a14.87,14.87,0,0,0-.59,10.7l4.36-7.22c.46.26.92.52,1.38.75-1.41,2.66-3.05,5.25-4.2,8a9.29,9.29,0,0,0-1.38,5.54,3.18,3.18,0,0,0,.62,1.28h0a5.25,5.25,0,0,0,1.28,1.21h0L169,64.42a8,8,0,0,1,1.54.33c.72-2.3,1.61-4.56,2.1-6.92a3.72,3.72,0,0,0-2.2-4.73v-.19h0l3-8.43c1.64,10.2.55,20.3,2.29,31.22l25.95-10-1.22-32.6a16.35,16.35,0,0,1-6,0C185.89,28.8,177.36,24.47,169.06,19.75Zm17.72,6.56c-5.51-3.64-9.84-9.58-17.29-9.84a46.07,46.07,0,0,0,17.15,9.94Zm246,17.87c2.91-4.49,1.47-9,1.93-13.12l-3.84,5.41Zm-273.7,1.28c5-4.16,5.68-6.56,3.94-12.46ZM428.43,41l-.73,5.61h1.38a5.28,5.28,0,0,0-.52-5.51Zm-4,16.57c2.76-4.4,3.28-5.68-.82-10.93C418.13,58.61,409,67.5,401,77.64c.49,3.77.49,3.77-2.3,4.85V78c-2.1.89-3.67,1.64-5.31,2.27-23,8.46-45.92,16.82-68.88,25.35-21.45,8-42.83,16.4-64.28,24.3-18.7,7-37.32,14.24-56.22,20.66-8.2,2.79-11.48,9.84-17.18,14.73l.65,1c3-1.21,6.17-2.26,9.12-3.64,21.62-10.3,44.41-17.68,66.78-26,14-5.18,28-10.2,42-15.25q21.84-7.83,43.69-15.51c1.47-.53,3-.92,4.46-1.41,11.15-3.77,22.2-7.91,33.45-11.22A33.82,33.82,0,0,0,405.14,81c6.17-8,13.94-14.63,19.38-23.29ZM164.93,51.76c-4.75,1.57-4.79,4.2-4.23,7.11l1.38.53Zm.66,11.41c.2-2.52.79-5.05,1.21-7.57C160.67,63,160.7,71,163.26,79.8l4.59-2.07c-1.41-.69-2.26-1.08-3.61-1.7a18.09,18.09,0,0,0,1.81-3.28,9.45,9.45,0,0,0,.42-3.81c-4-1.41-.88-3.83-.75-5.67Zm6.56,1.94c-3.28,5-3.45,7-1.35,11.34,3.55-1.67,3.61-2.16,1.48-11.25Zm-53.46,52.08a20,20,0,0,0-.72-4.86,27.69,27.69,0,0,0-2.07,7.12l-3.77,23.16c-.53,3.11,1,5.47,2.52,9.15,1.61-12.3,3.12-23.39,4.17-34.47Zm-.3,38.17,4.27-33.81c-2.5,3.67-5.84,28.7-4.14,33.91Zm1.09,18.86c2.52-7.08,6.75-40.63,5.54-44.83-1.9,14.76-6.66,29.09-5.41,44.93Zm2.59,10.43c3.9-8.79,7.64-38,5.51-44-.82,4.72-1.35,9-2.33,13.12-2.13,8.85-1.08,18.2-4.4,26.89-.23,1,.82,2.46,1.35,4.1Zm70-28.24-1.34-.88-1.77,3,.92.59a33.82,33.82,0,0,0,2.32-2.63Zm-66.67,31.72c2.29-3.77,6.88-28.24,5.9-31.72-2.53,10.34-5.71,20.37-5.77,31.82ZM215,162.88c0-1.84-.23-4.14-3.6-2.83.42,3.28.88,6.27,1.21,9.35.62,6,.59,6.14-.69,8.4l-3.71-16.11c-4.39,1.55-8.49,2.76-12.43,4.4-4.46,1.9-8.75,4.2-12.69,6.1a15.35,15.35,0,0,1-.72,5.71c-2.33,3.77-2.46,8.49-5.54,12.07a7,7,0,0,0-1.25,7l8.33-15,.92.52-7.25,16.4,1.18.62,4.79-6.82.69.26L183,198.46c6.56-.72,13.12-1.41,20.14-2.2l-1.47-29.19h1.8c.92,4.6.26,9.38.95,14s1.51,9.48,2.3,14.43l9.84-.85v-8.92q-.57-11.36-1.41-22.9Zm-28.17-1.64-3-2.1c-3.74,4.85-10.11,6.56-12.4,13.12,6.76-1.78,13.12-2.76,15.32-10.14a5.35,5.35,0,0,0,.19-.79Zm-25.55,13.67c5.94-.56,11-5.38,13.12-12.46a41.53,41.53,0,0,0-13,12.56Zm3.28-8.75C158,167.8,156,174,151.22,178.32a18.19,18.19,0,0,0,13.42-12.2Zm-32.47,10.2c3.71-3,3.77-4.66.76-11.29Zm41.16,5.83,1.71-5.64c-3.28,1-3.28,3.09-3,5.22a8.74,8.74,0,0,0,1.38.52Zm-35.39.33c4.83-1.15,5.06-1.38,7-6.56Zm179-2.33a122.52,122.52,0,0,0-13.12.79c-14.1,2.23-28.24,4.36-42.21,7.28-26.24,5.44-52.64,9.84-79.14,14-1.84.26-3.67.56-5.48.82q-18.39,2.85-36.76,6c-20,3.48-40,7.35-60,10.66a213.28,213.28,0,0,1-23.26,2.2,21.42,21.42,0,0,0-16.76,9.34c-3.77,5-7.57,10-11.74,14.73C21.77,253.36,14.72,260.41,8,267.76a8.47,8.47,0,0,0-2,4.49c-.56,6.24,1.18,8.7,7.57,11.52,2.69,1.14,5.41,2.29,8,3.67C34,294,46.34,300.72,58.73,307.31a9.47,9.47,0,0,0,3.91,1.19,114.22,114.22,0,0,0,12.82,0,463.42,463.42,0,0,0,61.46-9.38c2.3-.5,4.56-1,6.83-1.55,11.24-2.59,22.43-5.44,33.68-7.93,14-3.05,28-5.84,42-8.5q25.32-4.81,50.77-9.25a5.53,5.53,0,0,0,4.75-3.64,42.61,42.61,0,0,1,3.28-5.67,7.37,7.37,0,0,1,7,6.07c11.25-2.59,22.11-5.12,33.39-7.71V230.77c0-10-.82-19.19-.89-28.8.13-6.95,2.43-14.2-.85-21.61Zm-139.72,3.28c-.26,0-.52-.23-.75-.33l-1.61,3.28c.36,0,.69.36,1,.53ZM313.5,270.22c2.27-.49,5.32-.75,5.15-5-11.08,2.26-21.68,4.43-32.3,6.56a3.27,3.27,0,0,0-3.32,3.24,2.59,2.59,0,0,0,0,.56,54.64,54.64,0,0,0,6.39-.49q12.15-2,24-4.75Zm-40.07,8.17c2-.43,3.9-1.31,1.87-3.87-57.17,8.07-151.53,29.52-158.74,35.06a44.26,44.26,0,0,0,4.59-.33c11.58-2,23-4.33,34.63-6.1,17.61-2.69,34.87-6.82,52.18-10.95s34-7.32,51.07-10.93c4.79-.82,9.61-1.64,14.4-2.72Zm-257,11.54c-.46.17-.92.3-1.37.43.55,1.28,1.11,2.59,1.77,3.84A6.34,6.34,0,0,0,18.1,294Zm195.31,5.22c-2.92,0-4.89.23-7.8.39,4.69,4.76-3.28,6.56-.82,11.78ZM28.56,296.79l-1.77.72,3.28,6.1,1.28-.59Zm167.92,1.31c-2.65.49-5.21,1-8.16,1.51l1.11,3.67c2.1-.36,1.41-4.1,4.36-2.33l-4.39,11.68C194.75,305.84,196,302.92,196.48,298.1ZM24.63,301.87a14.26,14.26,0,0,0-4.5-11.12,16.71,16.71,0,0,0,4.59,11.12Zm12.46-1.67c-1.71,4.36,1.87,5.21,2.92,7.93l1.37-4.29a.88.88,0,0,0,.23,0c1.94,2.52,3.28,6.07,6,7a45.43,45.43,0,0,1,6.76,3.9,31.47,31.47,0,0,0,15.12,4.36,62.06,62.06,0,0,0-7.28-5.74c-4.76-2.59-9.84-4.82-14.6-7.11-1.93-.92-4-1.64-6-2.43l-.19-.23h0Zm75.69,7.57c-3.73-.65-5.41,1.38-7.28,4.3,3.71,0,6.37-.39,7.38-4.3ZM97.3,310.33c-3.67,0-5.21,2.27-6.56,5.48,4.66.59,4.43-4,6.66-5.38ZM265,313.71c-3.28,1.8-6.56,3.48-10,5.22a32.8,32.8,0,0,1,2.23,7.11,56.9,56.9,0,0,1-.65,8.14,24.43,24.43,0,0,0,.19,4.1c.53,5.24,1.22,10.49,1.64,15.74.66,7.8.56,15.71,1.87,23.38a112.08,112.08,0,0,1,2,17.42c0,2.75.49,5.51.75,8.2,2.69,0,3-1.48,2.92-3.28a78.23,78.23,0,0,0-.78-9.35c-.37-3.08-.86-6.17-1.28-9.25,4.39,6.56,3.93,14.07,4.69,21.25,4.62,0,5-.19,5.31-3.28.56-4.88,1.18-9.83,1.34-14.66a88.07,88.07,0,0,0-.72-12.88Q272,351.2,269.2,330.83A49.71,49.71,0,0,0,265,313.71Zm-67.3-.92-7.42,7.78,1.45,6.06c2.69-4.52,5.44-8.13,6-13.67ZM201,328.34l-1.58-1.41a7.56,7.56,0,0,0-1.11,1.74c0,.19.78,1,1.05.95a7,7,0,0,0,1.77-1.12Zm-6.56,18.79a30.87,30.87,0,0,0,3.28-15.91c-2.43,5-5.74,9.65-3.28,16.08Zm.52-16.14c-3.11,1.48-3.9,2.63-2.39,5.68Zm-.72,57.4.89,8.82,1.11-.29c-.52-2.69.56-5.74-2-8.37Zm16.83,546.4L227,968.41c-.29-14.27-7.08-24.33-15.9-33.45Zm51.68,19.35c-2.91,2.07-6.19,3.91-6.19,8.83,3.21-2.46,6-4.59,6.19-8.66Zm-12.29,8.56c2.68-1.67,2.32-3.93,1.6-7.05-3.47,2.56-6.56,4.73-9.57,7,3.21,3.77,5.54,1.77,8,.26Zm94,2.6a67.08,67.08,0,0,0-28.47-5.81l1,6c8,.52,15.57,1.08,23.12,1.41a13.2,13.2,0,0,0,4.36-1.41ZM263,971.59a7.53,7.53,0,0,0-.59-7.25l-4.1,5.81c1.81.72,3.15,1.15,4.69,1.61Zm75.63-1.93H326.66c3.64,1.64,7.28,3.87,11.93,0Zm6.4,7.67c-2.89-1.6-5.31,0-7.71,1.74l7.64-.39Z"/><path class="cls-1" d="M155.32,13.45V3c1.35,1.47,2.23,2,2.17,2.46C157.13,8,158.08,10.89,155.32,13.45Z"/><path class="cls-2" d="M370.57,8.17a22.77,22.77,0,0,1,8.66-.49c7.41,1.21,14.86,2.43,22.34,3.28l-.63,4.69a23,23,0,0,0-4.46,1.21c-7.8,4-15.58,8.1-23.35,12.17a33.62,33.62,0,0,1-7.94,3.71c-3.28.65-4,1.83-2.92,4.72a12,12,0,0,1,.27,2.92,10.33,10.33,0,0,0,.78,3.6l-3.64.89a15.11,15.11,0,0,0-2.06-5.08,20.16,20.16,0,0,0-8.33-7.68c-3.28-1.28-4.76,3.09-6.86,5.22-.39.42-.69,1-1.11,1.37-3.68,3.28-6.1,7.09-3.55,11.81l-4.16,2.82a8.34,8.34,0,0,0-4.72-7.28,4.68,4.68,0,0,0-3.74,0,15.52,15.52,0,0,0-8.6,16.14l-5.11.42-1.12-12.13a11,11,0,0,0-.55-1.94c-.76,0-1.41-.23-1.45,0-2.92,7.06-5.8,14.17-8.95,21.88-.59-2.49-1.21-4.46-1.58-6.56-1-5.74-1.08-5.9-7.64-6.56L285,66.45c1.44,4.26,3.28,8.92,4.69,13.74l-6.86,2.1c-1.77-3.7-5.31-2.65-8.85-3.28,1.24-1.18,1.73-1.74,2.32-2.19,4-3.28,4.24-4.6,1.25-8.63-1.28-1.8-2.69-3.48-4.26-5.51A57.3,57.3,0,0,0,279,57.53a80.64,80.64,0,0,0,7.31-9.84,5.72,5.72,0,0,0,0-4.85c-.95-1.68-2.56-1.09-4-.46l-1.08-2.86c12.17-4.62,24.33-9.24,36.54-13.7,14-5.12,28.14-9.84,42.21-14.63A86.84,86.84,0,0,1,370.57,8.17Z"/><path class="cls-2" d="M400.94,15.81l.63-4.69c6.85.92,13.77,1.71,20.69,2.23a31.53,31.53,0,0,1,9,2.43,4.82,4.82,0,0,1,3.08,6.08,1.34,1.34,0,0,1-.07.18,56.47,56.47,0,0,1-3.67,8.63,5,5,0,0,1-4.62,3,39,39,0,0,0-8,2.56l5.51,3.28a8.67,8.67,0,0,1-.52,2.36A178.33,178.33,0,0,1,401.2,71.7,13.09,13.09,0,0,1,396.38,75C385.2,79.24,374,83.47,362.73,87.74l-2.52-6.56c3.28-1.64,5.87-3.09,9.84-5.22-3.28-4.66-3.51-10.85-7.51-15.35a8.63,8.63,0,0,1-2.46-6.88,32.74,32.74,0,0,0-.43-8.56l3.64-.89c.92,1.77,2.66,1.48,5.81-.59a20.57,20.57,0,0,1,9.15-4.33c3,3,1.11,6.17,1,9.15-.19,6.56-.75,12.86-.92,19.29a21.86,21.86,0,0,0,1.55,5.54c2.42-2.13,3.57-3.94,5-4.23,3.81-.82,3.67-3.28,3.71-6.23,0-6.3-.76-12.43,1.74-18.9,2.13-5.54,3.9-10.52,9.05-14a9,9,0,0,0,2.82-6A33.43,33.43,0,0,0,400.94,15.81Z"/><path d="M396.55,17A22.14,22.14,0,0,1,401,15.81a34.5,34.5,0,0,1,1.28,8,9.1,9.1,0,0,1-2.82,6c-5.15,3.51-6.92,8.49-9.06,14-2.49,6.56-1.67,12.6-1.73,18.9,0,2.91,0,5.41-3.71,6.23-1.41.29-2.56,2.1-5,4.23a22.21,22.21,0,0,1-1.54-5.55c0-6.55.72-12.85.92-19.28,0-3,2-6.17-1-9.15a20.67,20.67,0,0,0-9.15,4.33c-3.28,2.07-4.88,2.36-5.8.59a10.44,10.44,0,0,1-.79-3.61,12.45,12.45,0,0,0-.26-2.92c-1-2.88-.3-4.06,2.92-4.72a33.41,33.41,0,0,0,7.94-3.71C380.9,25.09,388.68,21,396.55,17ZM388,35.42c10.1-6.85,11.22-8.75,8.56-14.39A73.37,73.37,0,0,0,375,31.19c-2.46,1.58-5.05,3-7.45,4.66a3.76,3.76,0,0,0-1.31,5.84l14.73-7.15a12.55,12.55,0,0,1,2.49,11.18c-1.18,6.17-.2,12.27-.59,18.4h2Z"/><path class="cls-1" d="M161.78,12.5a41.29,41.29,0,0,0,7.28,7.25c8.3,4.72,16.83,9.05,25.39,13.12a16.35,16.35,0,0,0,6,0l1.22,32.6-25.95,10c-1.74-10.92-.65-21-2.29-31.22l-3,8.43a7.15,7.15,0,0,1-1.28-1.18h0a4.1,4.1,0,0,1-.62-1.28,9.29,9.29,0,0,1,1.38-5.54c1.15-2.76,2.79-5.35,4.2-8-.46-.23-.92-.49-1.38-.75l-4.36,7.22a14.87,14.87,0,0,1,.59-10.7,5.28,5.28,0,0,1-4.79-3.93C162.34,23.65,162.67,18.53,161.78,12.5Z"/><path class="cls-1" d="M169.49,16.4c7.48.43,11.78,6.36,17.29,9.84A45.79,45.79,0,0,1,169.49,16.4Z"/><path class="cls-3" d="M396.55,21c2.65,5.64,1.54,7.54-8.56,14.39l-3.28,28.83h-2c.39-6.13-.59-12.23.59-18.4a12.55,12.55,0,0,0-2.49-11.18l-14.73,7.15a3.77,3.77,0,0,1,.48-5.31,4,4,0,0,1,.83-.53c2.4-1.67,5-3.08,7.45-4.65A73,73,0,0,1,396.55,21Z"/><path class="cls-4" d="M434.82,31.06c-.46,4.27,1,8.73-1.93,13.12L431,36.38Z"/><path d="M342.43,37.49c2.1-2.13,3.71-6.56,6.86-5.21A20.14,20.14,0,0,1,357.62,40,15.19,15.19,0,0,1,359.68,45a32.34,32.34,0,0,1,.43,8.56,8.71,8.71,0,0,0,2.46,6.89c4,4.5,4.2,10.69,7.51,15.35l-9.84,5.22c-1.8-5.12-2.3-10.37-6.95-14.53.75,3.6.33,6.56,2.56,9.11a5.23,5.23,0,0,1-2.16,7.06,7.12,7.12,0,0,1-.86.36,72,72,0,0,1-8.53,1.08c-.65-3.28-1.31-6.07-1.77-8.92q-1.72-10.42-3.28-20.86a6.53,6.53,0,0,0-.52-2.3c-.33-.46-.63-.95-.89-1.37-2.56-4.73,0-8.37,3.54-11.81C341.74,38.48,342,37.92,342.43,37.49Zm5.74-2.29c-2.07,2.42-4.1,4.72-6,7.11A8,8,0,0,0,340.92,51a56.23,56.23,0,0,1,2.66,10.76c.92,5,1.64,10,2.26,15.06.4,3.28,2.07,3.28,4.73,2.39a31.35,31.35,0,0,0-1-15c-.72-2-2.06-4.36.85-6.3,6.79,3.58,7.55,11.55,12,16.76,5-5-.4-13.12-13-19.22,4.59-2.09,8.14-4.46,7.22-9.83A12.52,12.52,0,0,0,348.17,35.2Z"/><path class="cls-1" d="M163.13,33.1c1.74,5.74,1.08,8.29-3.94,12.46Z"/><path class="cls-3" d="M342.14,42.31c1.93-2.39,4-4.69,6-7.11a12.52,12.52,0,0,1,8.53,10.29c.92,5.51-2.63,7.88-7.22,9.84,12.56,6,18,14.24,13,19.22-4.46-5.21-5.22-13.12-12-16.76-2.91,1.94-1.57,4.27-.85,6.3a31.35,31.35,0,0,1,1,15c-2.66.88-4.33.75-4.73-2.4-.62-5-1.34-10.06-2.26-15.05a56.23,56.23,0,0,0-2.66-10.76A8,8,0,0,1,342.14,42.31Zm8.49-.52c-2.75-.4-5.48-.53-5.94,2.79A9,9,0,0,0,346.27,50c.62,1,2.29,1.44,4.36,2.62Z"/><path class="cls-2" d="M281.17,39.82l1.08,2.85a5.76,5.76,0,0,1-.72.33A29.9,29.9,0,0,0,268.6,55.33a9.6,9.6,0,0,0-1.83,4.82c0,1.48,1.38,2.92,2.29,4.63A8.72,8.72,0,0,0,262,74.88a3.91,3.91,0,0,1-.88,2.66c-1.71,1.54-1,3.08-.59,4.82C262,89.24,263.46,96.1,264.6,103a16.33,16.33,0,0,0,.73,2.85l-1.42.5a37.74,37.74,0,0,0-3.64-7.84,60.51,60.51,0,0,0-6.56-8.24,8.64,8.64,0,0,1-1.9-8.69c.59-2.26,1.48-4.46,1.9-6.75,1-5.32-3.27-11.09-8-10.86-5.65.3-9.25,3.9-12.53,7.94-2.76,3.28-5.32,6.85-2.82,11.54,0,.2-.3.63-.2.43a56.55,56.55,0,0,0-4.89-3.84,21.49,21.49,0,0,0-7.44-4c-1.94-.29-4.33,1.45-6.3,2.66-3.71,2.3-7.25,4.82-11.64,7.81,8.49,15.21,8.46,32.53,10.33,49.42l1.51.72,2.56,6.89-23.68,8.82a10.93,10.93,0,0,1-1.58.36c-5.38-2.36-6.56-7.47-8.39-12-1.15-2.76-2.5-5.42-3.78-8.14l-1.18.2c-.19.62-.65,1.34-.52,1.87,1.08,4.33,2.13,8.66,3.51,12.89,2.16,6.56.95,9.41-5.48,11.74q-15.22,5.47-30.4,10.89a21.22,21.22,0,0,1-3.05.65c-6.33-24.59-8.89-49.62-22-71.43,5.12-4.43,11-5,16.24-6.56,8.72-2.95,17.58-5.44,26.24-8.46,9.6-3.28,19.28-6.56,28.59-10.53s18.5-6.36,27.75-9.48C232,59.2,247,53,262.18,47.2Zm-91.25,66.12c-.26-3.9-3.51-5.94-9.21-5.81a6.94,6.94,0,0,0-5.32,7.19,6.8,6.8,0,0,0,6,6.56C185.4,113.94,190.22,109.35,189.92,105.94Z"/><path class="cls-4" d="M427.84,46.74l.72-5.61a5.28,5.28,0,0,1,.65,5.74C428.75,46.84,428.3,46.77,427.84,46.74Z"/><path d="M344.69,44.58c.46-3.28,3.28-3.28,5.94-2.79V52.61c-2.07-1.18-3.74-1.61-4.36-2.62A9,9,0,0,1,344.69,44.58Z"/><path d="M282.25,42.67c1.44-.62,3.05-1.21,4,.46a5.74,5.74,0,0,1,0,4.86,81.69,81.69,0,0,1-7.31,9.84A56.09,56.09,0,0,1,273.29,63c1.58,2,3,3.71,4.27,5.51,3,4,2.79,5.32-1.25,8.63-.59.46-1.08,1-2.33,2.2,3.55.46,7.09-.59,8.86,3.28.52,5.87-5.54,5.87-9.15,9.84,6-1.25,9.51.32,11.61,4.62a19.87,19.87,0,0,1-11.48,11.18c-4.23,2.07-7.18,1.87-8.66-2.16a16.53,16.53,0,0,1-.72-2.85c-1.15-6.92-2.62-13.78-4.07-20.67-.39-1.73-1.11-3.28.59-4.82a3.87,3.87,0,0,0,.89-2.65,8.71,8.71,0,0,1,7-10.1c-.92-1.71-2.23-3.28-2.3-4.63a9.62,9.62,0,0,1,1.84-4.82A29.87,29.87,0,0,1,281.36,43.2,7.2,7.2,0,0,0,282.25,42.67Zm0,2.92c-5.58,3.64-9.55,7.09-10.07,13.12,4.33-3.08,9.58-5.57,10.1-13.12ZM273.89,69.7a3.06,3.06,0,0,0-4-1.66,3.67,3.67,0,0,0-.48.25A6.93,6.93,0,0,0,266,71.9a38.52,38.52,0,0,0-1.08,11.57c.65,6.56,2.1,12.7,3.28,19,.62,3.11,2.36,4,5.05,2.52a19.45,19.45,0,0,0,4.75-3.28,4.59,4.59,0,0,0,1.16-6.39,6.25,6.25,0,0,0-.4-.5l-7.54,5.45c-1.84-6.56-1.28-11.58,4.39-15.88h-3.28c-4.3-.55-5.18-2.13-3-5.67a19.53,19.53,0,0,1,3.78-4.23A3.28,3.28,0,0,0,274.13,70a2.11,2.11,0,0,0-.21-.31Z"/><path d="M325.15,46.31a4.68,4.68,0,0,1,3.74,0,8.34,8.34,0,0,1,4.72,7.28,9.53,9.53,0,0,1-1.94,5.55,28.1,28.1,0,0,0-3.8,4.82,40.73,40.73,0,0,1,4-.85,2.88,2.88,0,0,1,3.57,2,2.76,2.76,0,0,1,.07,1.31,8.77,8.77,0,0,1-5.84,7.87c2.43,1.41,4.43,2.52,6.56,3.67.3,6.56-4.79,12.4-13.61,15.32a15.77,15.77,0,0,1-2.79-7.94A210.11,210.11,0,0,0,317,64.48c0-.65-.23-1.34-.29-2A15.51,15.51,0,0,1,325.15,46.31Zm.62,2.27-7.51,9.31L321,66.45v.43h0c1.22,6.85.2,14.1,3,20.89,7.54-3.87,8-4.4,8.17-8.53-2.3.4-4.5.76-7,1.15-4.29-7.61,4.53-8.63,7-13.51H321.11v-.3a8.48,8.48,0,0,1,5.09-7.51C331.87,55.46,332,53,325.77,48.58Z"/><path d="M308.32,48.71h1.45a10.65,10.65,0,0,1,.55,1.93l1.12,12.14.82,9.48a6.56,6.56,0,0,1-.36,3.28c-3.84,8.29-7.81,16.39-11.71,24.79-.26.49-.62,1-1.25,2-5.08-5.61-6.07-12.17-7.9-18.4l-1.18-3.84c-1.54-4.82-3.28-9.48-4.69-13.74l5-9c6.56.79,6.56.95,7.64,6.56.37,2,1,4,1.58,6.56C302.52,62.88,305.4,55.76,308.32,48.71ZM293.69,62.58l-5.21,3c4.95,9.55,4,20.17,10.07,29.52,3.08-6.07,5.8-11.25,8.36-16.4s1.28-10.69-.36-16a53.45,53.45,0,0,0-3.05,9.48,25.38,25.38,0,0,1-1.28,5.08,4.3,4.3,0,0,1-3,2.3c-.85,0-2.26-1.54-2.49-2.59-.79-3.28-1-7-1.71-10.43A17.47,17.47,0,0,0,293.69,62.58Z"/><path class="cls-3" d="M272.21,58.84c.53-6.16,4.5-9.61,10.07-13.12C281.76,53.14,276.51,55.63,272.21,58.84Z"/><path class="cls-2" d="M333.61,53.5l4.16-2.82c.27.42.56.91.89,1.37a6.12,6.12,0,0,1,.52,2.3q1.63,10.42,3.28,20.86c.46,2.85,1.12,5.67,1.78,8.92a71.88,71.88,0,0,0,8.52-1.08,5.22,5.22,0,0,0,3.38-6.56,4.9,4.9,0,0,0-.36-.86c-2.23-2.59-1.8-5.51-2.56-9.11,4.66,4.16,5.15,9.41,7,14.53l2.52,6.56c-8.4,3.27-16.79,6.32-25.19,9.54-15.18,5.8-30.27,11.84-45.46,17.58S261.49,126,246.14,131.65q-16,6-32,11.87l-2.56-6.88,2.59-4.1c1.77.19,3.28.33,5.19.52v-11c0-3.51-.69-6.86-1.15-10.89,5.7,1.87,8.85-.62,12-4.3a18.06,18.06,0,0,0,3.65-12.07,64.75,64.75,0,0,1,6.29,23.26h12.63l-2.92-14.2a6.75,6.75,0,0,1,3,3c.69,1.18,1.21,2.49,2,3.61a6.3,6.3,0,0,0,7.21,2.56,4.88,4.88,0,0,0,1.9-6.2l-.19-.56,1.41-.49c1.47,4,4.42,4.23,8.66,2.16a19.86,19.86,0,0,0,11.47-11.18c-2.09-4.3-5.6-5.87-11.61-4.63,3.61-4.06,9.68-4.06,9.15-9.84l6.86-2.09,1.18,3.83c1.84,6.23,2.82,12.79,7.9,18.4.63-1,1-1.47,1.25-2C304,92.23,308,84.1,311.8,75.7a6.55,6.55,0,0,0,.36-3.28l-.82-9.48,5.12-.43a4.84,4.84,0,0,0,.29,2,209.51,209.51,0,0,1,2.85,20.82,15.84,15.84,0,0,0,2.79,7.94C331.22,90.36,336.3,84.55,336,78c-2-1.15-4-2.26-6.56-3.67a8.76,8.76,0,0,0,5.84-7.87,2.88,2.88,0,0,0-3.64-3.28c-1.34.16-2.66.56-4,.85a28.1,28.1,0,0,1,3.8-4.82A9.6,9.6,0,0,0,333.61,53.5Z"/><path class="cls-4" d="M423.7,46.77c4,5.25,3.58,6.56.82,10.92C419.08,66.35,411.4,73,405.21,81.08A33.82,33.82,0,0,1,387,93.28c-11.25,3.28-22.31,7.44-33.46,11.22-1.47.49-3,.88-4.46,1.41q-21.84,7.74-43.68,15.51c-14,5-28.05,10.07-42,15.25-22.37,8.36-45.16,15.74-66.77,26-3,1.38-6.07,2.43-9.12,3.64l-.66-1c5.71-4.89,9-11.94,17.19-14.73C223,144.08,241.58,137,260.27,130c21.45-8,42.84-16.4,64.29-24.3,23-8.53,45.91-16.89,68.87-25.36,1.64-.62,3.28-1.37,5.31-2.26v4.53c2.79-1.08,2.79-1.08,2.3-4.86C409.11,67.73,418.26,58.71,423.7,46.77Z"/><path class="cls-1" d="M169,64.45l1.44-11.31a3.71,3.71,0,0,1,2.2,4.72c-.49,2.36-1.38,4.62-2.1,6.92A11.08,11.08,0,0,0,169,64.45Z"/><path class="cls-3" d="M318.26,57.89l7.51-9.35c6.2,4.43,6.1,6.89.3,10.4A8.47,8.47,0,0,0,321,66.45Z"/><path class="cls-1" d="M160.83,59c-.55-2.92-.52-5.54,4.23-7.11l-2.85,7.64Z"/><path class="cls-1" d="M167,55.69c-.43,2.53-1,5.05-1.22,7.58,0,1.84-3.28,4.26.89,5.61a9.59,9.59,0,0,1-.43,3.8,17.4,17.4,0,0,1-1.8,3.28c1.34.63,2.19,1,3.61,1.71l-4.6,2.06C160.83,71,160.8,63.07,167,55.69Z"/><path d="M245.68,64c4.62-.23,8.92,5.54,8,10.86-.43,2.29-1.31,4.49-1.9,6.75a8.6,8.6,0,0,0,1.9,8.69,61.29,61.29,0,0,1,6.56,8.24,39,39,0,0,1,3.64,7.84l.2.55a4.9,4.9,0,0,1-1.91,6.2,6.28,6.28,0,0,1-7.21-2.56c-.76-1.11-1.28-2.42-2-3.6a6.77,6.77,0,0,0-3-3l2.92,14.2H240.23a64.55,64.55,0,0,0-6.29-23.25A18.07,18.07,0,0,1,230.3,107c-3.28,3.67-6.33,6.16-12,4.3.46,4,1,7.47,1.15,10.88s0,7,0,11l-5.18-.53-2.59,4.1-1.51-.72c-1.87-16.89-1.84-34.21-10.33-49.42,4.39-3,7.93-5.51,11.64-7.81,2-1.21,4.36-3,6.3-2.66a21.67,21.67,0,0,1,7.44,4,56.55,56.55,0,0,1,4.89,3.84c0,.2.29-.23.19-.43-2.49-4.69,0-8.13,2.83-11.54C236.46,67.73,240.07,64.29,245.68,64Zm1.21,3.48c-2.19.69-4.26,1.24-6.26,2a12,12,0,0,0-6.82,11.22,181.57,181.57,0,0,0,10,31.78,2.35,2.35,0,0,0,.53,1c.72.53,1.64,1.41,2.26,1.25a2.69,2.69,0,0,0,1.48-2,19.57,19.57,0,0,0-1-5.15c-1.38-4.43-2.88-8.83-4.36-13.12l1.38-1.18c6.56,3.28,10,9.84,15,15.94a8.51,8.51,0,0,0-1.55-9.22,78.65,78.65,0,0,0-8.88-9.28,5.73,5.73,0,0,1-1.51-6.86,53.77,53.77,0,0,1,2.1-6,8.88,8.88,0,0,0-2.36-10.33ZM221.77,81.64a11.12,11.12,0,0,0-12.46,1.93c-4.76,4.59-4.69,5.94-2.2,13A70.82,70.82,0,0,1,210,109.65c1,6.55,1.64,12.92,2.42,19.38a4.8,4.8,0,0,0,4-5.47l-.06-.3-1.67-15.16a24.08,24.08,0,0,1,4.06.4c3,1,5.09-.63,7.55-2.07,7.38-4.3,4-22-4.5-24.79Z"/><path class="cls-3" d="M288.48,65.63l5.21-3a17.33,17.33,0,0,1,1.38,3.74c.66,3.48.92,7,1.71,10.43.23,1,1.64,2.59,2.49,2.59a4.3,4.3,0,0,0,3-2.3A25.38,25.38,0,0,0,303.5,72a53.45,53.45,0,0,1,3.05-9.48c1.64,5.35,3,10.66.36,16s-5.28,10.43-8.36,16.4C292.48,85.8,293.43,75.18,288.48,65.63Z"/><path class="cls-3" d="M327.67,66.91h4.59c-2.46,4.89-11.28,5.9-7,13.51,2.46-.39,4.66-.75,7-1.15,0,4.14-.62,4.66-8.16,8.53-2.83-6.79-1.81-14-3-20.89Z"/><path class="cls-3" d="M269.46,68.29a3,3,0,0,1,4.21.93,2.73,2.73,0,0,1,.25.48,3.28,3.28,0,0,1-.6,4.6l-.12.09a19.3,19.3,0,0,0-3.78,4.23c-2.16,3.54-1.27,5.12,3,5.67h3.28c-5.67,4.3-6.23,9.35-4.39,15.88l7.54-5.45a4.59,4.59,0,0,1-.26,6.49,3.72,3.72,0,0,1-.49.4,19.7,19.7,0,0,1-4.76,3.28c-2.69,1.44-4.43.59-5.05-2.53-1.21-6.33-2.66-12.62-3.28-19a38.62,38.62,0,0,1,1.08-11.58A6.9,6.9,0,0,1,269.46,68.29Z"/><path class="cls-3" d="M240.66,69.47c2-.76,4.07-1.31,6.27-2a8.86,8.86,0,0,1,2.39,10.2,53.77,53.77,0,0,0-2.1,6,5.76,5.76,0,0,0,1.51,6.86,79.55,79.55,0,0,1,8.89,9.28,8.5,8.5,0,0,1,1.54,9.22c-5-6-8.4-12.63-15-15.94l-1.38,1.18c1.48,4.42,3,8.82,4.37,13.12a20,20,0,0,1,1,5.14,2.71,2.71,0,0,1-1.48,2,5.38,5.38,0,0,1-2.26-1.25,2.21,2.21,0,0,1-.52-1,180.5,180.5,0,0,1-10-31.78A12,12,0,0,1,240.66,69.47Zm3.74,7.38c-4.79-.53-5-.59-6.07,1.83s-3.28,5.84,0,8.76C242.86,85.08,243.81,83.44,244.4,76.85Z"/><path class="cls-1" d="M170.93,76.55c-2.09-4.33-1.9-6.29,1.35-11.35C174.41,74.29,174.35,74.78,170.93,76.55Z"/><path d="M238.33,78.68c1.12-2.42,1.28-2.36,6.07-1.83-.59,6.56-1.54,8.23-6.13,10.59C235,84.52,237,81.51,238.33,78.68Z"/><path class="cls-3" d="M209.34,83.57a11.13,11.13,0,0,1,12.46-1.93c8.46,2.78,11.88,20.49,4.53,24.76-2.46,1.44-4.53,3-7.54,2.06a23.28,23.28,0,0,0-4.07-.39l1.67,15.15a4.79,4.79,0,0,1-3.63,5.72l-.3.06c-.79-6.56-1.45-13-2.43-19.39a70.19,70.19,0,0,0-2.89-13.12C204.65,89.51,204.58,88.16,209.34,83.57Zm9.35,1.18A14.71,14.71,0,0,0,211.54,93c-1.64,5.38,4.39,6.56,4.33,11.44l8.49-6.36C224.62,92.82,225.05,87.64,218.69,84.75Z"/><path d="M211.54,93a14.71,14.71,0,0,1,7.15-8.27c6.36,2.89,5.93,8.07,5.67,13.35l-8.49,6.36C215.93,99.71,209.9,98.4,211.54,93Zm8.23-4.69c-3.58,2-5.31,3.64-4.89,6.56a3.3,3.3,0,0,0,3.54,3l.14,0a2.55,2.55,0,0,0,2.76-2.33,2.37,2.37,0,0,0,0-.75c-.3-1.9-.89-3.84-1.51-6.46Z"/><path class="cls-3" d="M214.88,95c-.42-3,1.31-4.62,4.89-6.56C220.39,91,221,93,221.28,95a2.57,2.57,0,0,1-2,3,2.37,2.37,0,0,1-.75,0,3.28,3.28,0,0,1-3.66-2.85C214.89,95.1,214.89,95,214.88,95Z"/><path d="M180.77,100.13c5.71,0,9,1.91,9.22,5.81s-4.59,8-8.53,8.1a6.78,6.78,0,0,1-6-6.56A6.93,6.93,0,0,1,180.77,100.13Z"/><path class="cls-4" d="M118.1,112.43a20,20,0,0,1,.72,4.86c-1.21,11.08-2.56,22.17-4,34.57-1.55-3.68-3.06-6-2.53-9.16L116,119.55A27.69,27.69,0,0,1,118.1,112.43Z"/><path class="cls-4" d="M122.79,121.65l-4.27,33.81C116.82,150.25,120.16,125.22,122.79,121.65Z"/><path class="cls-4" d="M125.15,129.49c1.21,4.2-3,37.75-5.54,44.83C118.36,158.48,123.12,144.15,125.15,129.49Z"/><path class="cls-4" d="M127.61,140.74c2.13,6-1.61,35.22-5.51,44-.53-1.64-1.58-3.11-1.21-4.07,3.28-8.69,2.26-18,4.39-26.89A125,125,0,0,0,127.61,140.74Z"/><path class="cls-3" d="M190.81,155.63l1.34.88c-.75.89-1.47,1.81-2.19,2.72l-.92-.59Z"/><path class="cls-4" d="M131.38,156.51c1,3.48-3.61,28-5.9,31.72C125.54,176.78,128.72,166.75,131.38,156.51Z"/><path class="cls-1" d="M211.54,160.15c3.28-1.31,3.47,1,3.61,2.82q.84,11.42,1.47,23c.16,2.86,0,5.68,0,8.92-3.28.3-6.23.56-9.84.86-.79-5-1.61-9.84-2.29-14.44s0-9.41-1-14h-1.8l1.48,29.19c-7.09.79-13.45,1.48-20.14,2.2l1.25-5.48-.69-.26-4.79,6.82-1.18-.62,7.25-16.4-.92-.53-8.33,15a7.05,7.05,0,0,1,1.24-7c3.09-3.57,3.28-8.3,5.55-12.07a15.3,15.3,0,0,0,.72-5.7c3.93-1.91,8.23-4.2,12.69-6.1,3.94-1.64,8-2.86,12.43-4.4L212,178c1.28-2.26,1.31-2.39.69-8.39C212.42,166.42,212,163.37,211.54,160.15Z"/><path class="cls-4" d="M184,159.23l3,2.1a5.46,5.46,0,0,1,0,1c-2.2,7.38-8.56,8.36-15.31,10.13C173.89,165.86,180.25,164.09,184,159.23Z"/><path class="cls-4" d="M174.61,162.55c-2.23,7.08-7.25,11.9-13.12,12.46A41.43,41.43,0,0,1,174.61,162.55Z"/><path class="cls-4" d="M151.29,178.42c4.82-4.3,6.89-10.53,13.35-12.17A18.2,18.2,0,0,1,151.29,178.42Z"/><path class="cls-4" d="M132.92,165.17c3,6.56,3,8.27-.75,11.28Z"/><path class="cls-3" d="M175,176.65l-1.7,5.64a4.66,4.66,0,0,1-1.31-.42C171.72,179.73,171.69,177.67,175,176.65Z"/><path class="cls-3" d="M144.86,176.16c-1.93,5.15-2.16,5.38-7,6.56Z"/><path class="cls-2" d="M303.83,181.14a119.67,119.67,0,0,1,13.12-.78c3.28,7.41,1,14.66,1.05,21.84,0,9.61.72,19.19.88,28.8s0,20,0,30.17c-11.28,2.59-22.14,5.12-33.38,7.71a7.39,7.39,0,0,0-7-6.07,41.54,41.54,0,0,0-3.28,5.67,5.54,5.54,0,0,1-4.76,3.64q-25.41,4.47-50.77,9.25c-14,2.66-28,5.45-42,8.5-11.25,2.49-22.43,5.34-33.68,7.93l-1.38-6.06c7.19-3.74,13.91-7.25,20.6-10.79a38.15,38.15,0,0,0,7.51-4.46,11.38,11.38,0,0,1,8.95-3.28c1.09,0,3.12-.95,3.28-1.55.27-4.39,2.59-8.62,1-13.67a29,29,0,0,0-11.91,2.69c-3.67,1.6-7.18,3.57-11.47,5.74a30.3,30.3,0,0,1-.59-5.45c.55-7,1.5-14,1.86-21a9,9,0,0,1,4.3-7.74c4.07-2.56,8.23-5,12.14-7.34V210.17l-1-6.79c1.8-.26,3.64-.56,5.48-.82,26.5-4,52.9-8.53,79.14-14C275.59,185.51,289.73,183.37,303.83,181.14Zm-99,48.25c-1.91-2.56-4.37-2.1-6.14.56-3.28,4.92-.91,11.8,5.74,15.54a41.78,41.78,0,0,0,2.86-9.35,11.28,11.28,0,0,0-2.46-6.75Z"/><path class="cls-3" d="M176.38,183.31c.23,0,.49.23.75.33l-1.31,3.28c-.36-.17-.69-.36-1-.53Z"/><path class="cls-2" d="M177,203.22l1,6.79a59,59,0,0,1-6.17,3.67c-7.11,3.28-14.2,6.56-21.48,9.25s-13.12,8.07-21.45,6.56l2.79,12.07c5.28,3.28,9.64-1.28,14.72-2a48.78,48.78,0,0,1,1.41,6.56c.43,5.87.4,11.74.92,17.58.69,8.36-2.23,15-12.23,17.48-6.56-8.56-9.68-19.84-20.7-25.22,3.28-5.51,8-9.84,9.12-16.73-3.28-3.57-6.89-7.35-10.2-11.41s-7.15-3.64-11.18-2.82a40.44,40.44,0,0,0-7,2.42,124.93,124.93,0,0,1-6.56,11,8.42,8.42,0,0,0-1.51,7.51c1.61,9,4.49,17.87,3.61,27.29a59.19,59.19,0,0,0,.33,9.41c.26,4.23.65,8.43,1,12.82,4.56-.55,8.82-.85,13.12-1.7,1-.2,2.13-2.36,2.09-3.58,0-5.05-.75-10.1-1.08-15.15a22.85,22.85,0,0,1,.4-4.13,31.14,31.14,0,0,1,13.11,12.46,55.87,55.87,0,0,0,3.65,6,5.56,5.56,0,0,0,8.69,1.45c1.44-.89,2.82-1.94,4-2.72l5.25,3.6,1.37,6.07c-2.26.53-4.52,1.05-6.82,1.54a462,462,0,0,1-61.46,9.38,109.66,109.66,0,0,1-12.82,0,9.27,9.27,0,0,1-3.91-1.18C46.66,301,34.3,294.23,21.87,287.64c-2.56-1.38-5.28-2.53-8-3.68-6.56-2.82-8.13-5.28-7.58-11.51a8.55,8.55,0,0,1,2-4.49c6.56-7.35,13.71-14.4,20.34-21.81,4.16-4.69,8-9.84,11.74-14.73a21.43,21.43,0,0,1,16.76-9.35,210.4,210.4,0,0,0,23.25-2.19c20-3.28,40-7.19,60.06-10.66Q158.61,206,177,203.22Z"/><path d="M178,210v14.72c-3.9,2.36-8.07,4.79-12.14,7.35a9,9,0,0,0-4.29,7.74c-.36,7-1.31,14-1.87,21a30.09,30.09,0,0,0,.59,5.44c4.29-2.16,7.8-4.13,11.48-5.74a29.29,29.29,0,0,1,11.9-2.69c1.58,5.05-.75,9.29-1,13.68,0,.59-2.07,1.61-3.28,1.54a11.45,11.45,0,0,0-9,3.28,37.67,37.67,0,0,1-7.51,4.46c-6.56,3.54-13.41,7.05-20.6,10.79L137.09,288c-1.18.79-2.56,1.84-4,2.73a5.56,5.56,0,0,1-7.84-.25,5.71,5.71,0,0,1-.86-1.2,55.79,55.79,0,0,1-3.64-6,31.14,31.14,0,0,0-13.11-12.46,22.85,22.85,0,0,0-.4,4.13c.33,5.05.92,10.1,1.08,15.15,0,1.21-1.14,3.28-2.09,3.58-4.17.85-8.43,1.14-13.12,1.7-.4-4.39-.79-8.59-1-12.82a59.28,59.28,0,0,1-.33-9.42c.88-9.41-2-18.26-3.61-27.28a8.41,8.41,0,0,1,1.51-7.51,126.42,126.42,0,0,0,6.56-11,40.44,40.44,0,0,1,7-2.42c4-.82,8.07-1.05,11.18,2.82s7,7.83,10.2,11.41c-1.11,7-5.84,11.22-9.12,16.73,11,5.37,14.24,16.66,20.7,25.22,10-2.5,12.92-9.12,12.23-17.48-.52-5.84-.49-11.71-.92-17.58a48.78,48.78,0,0,0-1.41-6.56c-5.08.69-9.44,5.15-14.72,2l-2.79-12.06c8.4,1.47,14.43-4,21.45-6.56s14.36-6.07,21.48-9.25A58,58,0,0,0,178,210ZM171,224.73a5.55,5.55,0,0,0,2.49-7.25c-14.07,3.94-26.5,11-39.36,16.66,1,5,1.54,5.61,5.28,4.07,4.27-1.77,8.27-4.2,12.43-6.23a37.35,37.35,0,0,1,4.92-1.64l.59,1.11a35,35,0,0,1-3.28,3.71,8.67,8.67,0,0,0-2.88,8.23c.69,7.78.75,15.61,1.08,23.42a64.23,64.23,0,0,0,.49,7.05c.4,3.81.46,3.77-4,4a3.32,3.32,0,0,0-1.48.63c-2.06,1.67-4.13,3.28-6.3,5.18a4.26,4.26,0,0,0,7.25,1.11c3.12-3.28,7.15-3.67,10.86-5.21a105.86,105.86,0,0,0,11.81-6.27,46.26,46.26,0,0,1,6-3.7c3.55-1.31,3.78-3.71,3.55-6.76-9.09-1.28-14.17,6.56-22.11,8.66a37,37,0,0,1-1.77-12.23c.75-6.56,1.64-13.12,2.23-19.68a11.13,11.13,0,0,1,6.23-10.4A61.06,61.06,0,0,0,171,224.73Zm-64.81,4.43c-8.82-.92-15.74,12.3-13.78,19.41a111.5,111.5,0,0,1,3.28,30.28,89.33,89.33,0,0,0,1.51,11.74c7.58,0,8.27-.66,8.07-7.22a54.41,54.41,0,0,0-1-6.95A13.8,13.8,0,0,1,106.45,265c8.24,5.05,15.94,10.16,20,19.28a26.53,26.53,0,0,0,3.28,4.53,5,5,0,0,0,1.9-7.19,47.23,47.23,0,0,0-3.48-6.1c-4.26-5.9-6.95-13.38-15.12-15.54-2.69-.69-2.42-3.05-2.88-5.05,1.79-1.31,3.52-2.72,5.18-4.2a10.58,10.58,0,0,0,2.53-13.32A15.11,15.11,0,0,0,106.16,229.16Z"/><path class="cls-3" d="M173.53,217.48a5.55,5.55,0,0,1-2.5,7.25,59.93,59.93,0,0,1-6.23,4.36,11.13,11.13,0,0,0-6.23,10.4c-.59,6.56-1.48,13.12-2.23,19.68a37,37,0,0,0,1.77,12.23c7.94-2.1,13.12-9.84,22.11-8.66.23,3.05,0,5.45-3.55,6.76a46,46,0,0,0-6,3.71,104.78,104.78,0,0,1-11.8,6.26c-3.71,1.54-7.74,2-10.86,5.21a4.26,4.26,0,0,1-6,.59,4.31,4.31,0,0,1-1.25-1.7c2.17-1.8,4.23-3.51,6.3-5.18a3.32,3.32,0,0,1,1.48-.63c4.49-.23,4.42-.19,4-4-.26-2.36-.36-4.69-.49-7.05-.33-7.8-.4-15.64-1.08-23.42a8.66,8.66,0,0,1,2.82-8.29,37.33,37.33,0,0,0,3.28-3.71l-.59-1.11a33.8,33.8,0,0,0-4.92,1.64c-4.17,2-8.17,4.46-12.43,6.23-3.74,1.54-4.33.88-5.28-4.07C147,228.44,159.39,221.42,173.53,217.48Z"/><path d="M198.71,230c1.77-2.66,4.23-3.28,6.14-.56a11.28,11.28,0,0,1,2.46,6.75,41.78,41.78,0,0,1-2.86,9.35C197.8,241.75,195.43,235,198.71,230Z"/><path class="cls-3" d="M92.38,248.58c-2-7.12,5-20.34,13.78-19.42A15.1,15.1,0,0,1,118,237.42a10.56,10.56,0,0,1-2.53,13.32c-1.66,1.48-3.38,2.89-5.18,4.2.46,2,.2,4.36,2.89,5.05,8.16,2.16,10.85,9.64,15.11,15.54a46.09,46.09,0,0,1,3.48,6.1,5,5,0,0,1-1.36,6.87c-.18.12-.36.22-.54.32a26.53,26.53,0,0,1-3.28-4.53c-4-9.12-11.74-14.23-20-19.28a13.73,13.73,0,0,0-2.23,11.41,56.22,56.22,0,0,1,1,6.95c.2,6.56-.49,7.12-8.07,7.22a87.65,87.65,0,0,1-1.5-11.74A111.85,111.85,0,0,0,92.38,248.58ZM109,238.47a5.67,5.67,0,0,0-7.8,1.48c-3.28,4.53-1.45,8.76.42,13.12a25.52,25.52,0,0,0,3.64-2.23,23.9,23.9,0,0,0,5.45-5.68,4.66,4.66,0,0,0-1.31-6.45C109.28,238.62,109.15,238.55,109,238.47Z"/><path d="M101.37,240a5.68,5.68,0,0,1,7.81-1.48A4.67,4.67,0,0,1,111,244.8a1.76,1.76,0,0,1-.14.23,24.06,24.06,0,0,1-5.44,5.68,27.07,27.07,0,0,1-3.64,2.23C99.76,248.71,97.76,244.48,101.37,240Zm5.67,2.79c-4.36,0-4.36,0-3.27,5a4.13,4.13,0,0,0,3.12-4.94v0Z"/><path class="cls-3" d="M103.5,247.72c-1-5.11-1-5.11,3.28-5a4.13,4.13,0,0,1-3.1,4.95Z"/><path class="cls-4" d="M318.65,265.43c.17,4.2-2.88,4.46-5.15,5-7.93,1.83-15.94,3.28-23.94,4.91a56.91,56.91,0,0,1-6.39.5,3.28,3.28,0,0,1,2.71-3.77,3.64,3.64,0,0,1,.57,0C297,269.86,307.57,267.79,318.65,265.43Z"/><path class="cls-4" d="M275.2,274.68c2,2.56,0,3.28-1.87,3.87-4.76,1.08-9.61,1.9-14.4,2.89-17,3.61-34.14,6.89-51.07,10.92s-34.33,8.23-52.08,10.95c-11.58,1.77-23,4.1-34.63,6.1a39.35,39.35,0,0,1-4.59.33C123.77,304.17,218.13,282.75,275.2,274.68Z"/><path class="cls-4" d="M15,290.52a4.59,4.59,0,0,0,1.37-.42l1.71,4.1c-.72,0-1.28.26-1.31.16C16.1,293.11,15.57,291.8,15,290.52Z"/><path class="cls-1" d="M202.45,332.93h0V321.48a4,4,0,0,0,.69,0L205,334h.42a30.85,30.85,0,0,0,0-8.69c-3.28-11.15,1.28-19.68,7.87-28a10.79,10.79,0,0,1,8.07-4.66,144.41,144.41,0,0,0,17.78-4c4.46,8.79,1.83,18.27,4.13,27.06-4-4.56-2.53-10.46-4.26-15.65a21.27,21.27,0,0,0-.23,12.66c3.74,11.19,3.74,22.7,4,34.24,0,4.66,1.54,9.25,1.83,13.91.73,10.56,1.09,21.15,1.58,31.72a14.54,14.54,0,0,0,0,2.95c1.9,6.56.23,13.12-1.64,19.68a17,17,0,0,0,1.15,13.11,23.68,23.68,0,0,0-1.84,5.81c0,5.28,0,10.59.16,15.87h0v2.53c0,3.05.3,6,.23,9.05-.26,15.78,2.07,31.49.76,47.33a200.43,200.43,0,0,0,1.77,36.8c.26,2.69,0,5.44.2,8.16a22.11,22.11,0,0,0,1,6.56l.16,3.28a2.51,2.51,0,0,0-.49,2.1,101.69,101.69,0,0,1,2.75,27.81c-.72,11.15-1,22.31-1.28,33.46a14.16,14.16,0,0,1-4.42,9.84,31.74,31.74,0,0,0-3.28,3.28,15.63,15.63,0,0,0-4.43,11.7l-9.28,1c-1.61-15-3-30.11-4.63-45.16-1.11-10.5-2.56-21-3.77-31.42a57.16,57.16,0,0,1-.82-10.53,44.45,44.45,0,0,1,2.13-8.5V544h-.92l.92,12.82v.46a19.77,19.77,0,0,0-3,.53c-.43-3.28-1-6.37-1.28-9.58l-.62-9,3.9-.26c1.44-.42,2.13-1.05,2.13-1.67a206.87,206.87,0,0,0-.39-21.71c-1.31-12.27-3.54-24.4-5.15-36.6-.75-5.81-.85-11.71-1.38-17.55-1-10.1-2.33-20.2-3-30.34-.79-11.12-.76-22.3-1.51-33.42-1-14.82-2.5-29.52-3.68-44.47-.29-3.64,1-8.1-.72-10.76s-1-6.92-3.28-9.54v-.23Zm27.75-38.14c-2.07,3.67,1.05,6.56,1.08,9.84,2.26-4.33,1.84-7.32-1.08-9.84Zm-2.33,13.12a7.42,7.42,0,0,0-1.8.45c.59,2.17,0,4.66,3.28,6ZM230.26,321c-1.34,5.35,1.45,8.76,2.43,12.47-.33-3.64,1.22-7.68-2.43-12.33Z"/><path class="cls-1" d="M203.9,295.7c2.91,0,4.88-.26,7.8-.39L203,307.48C200.65,302.43,208.59,300.59,203.9,295.7Z"/><path d="M231.28,304.76c0-3.28-3.28-6.3-1.08-9.84C233.12,297.31,233.54,300.3,231.28,304.76Z"/><path class="cls-4" d="M26.79,297.67l1.77-.72,2.66,6.23-1.28.59Z"/><path class="cls-1" d="M188.42,299.61c3-.53,5.51-1,8.16-1.51-.56,4.82-1.83,7.74-7.08,14.53L193.89,301c-2.95-1.77-2.26,2-4.36,2.33Z"/><path class="cls-4" d="M20.23,290.75a14.22,14.22,0,0,1,4.49,11.12A16.7,16.7,0,0,1,20.23,290.75Z"/><path class="cls-4" d="M40.11,308.13c-1-2.72-4.63-3.57-2.92-7.93l4.23,3.61h0Z"/><path class="cls-3" d="M41.52,303.67l.19.23a.45.45,0,0,1-.23,0Z"/><path class="cls-4" d="M41.71,303.87c2,.79,4,1.51,6,2.43,4.89,2.29,9.84,4.52,14.6,7.12a61.76,61.76,0,0,1,7.28,5.73,31.47,31.47,0,0,1-15.12-4.36,45.43,45.43,0,0,0-6.76-3.9C45.16,310,43.65,306.43,41.71,303.87Z"/><path class="cls-4" d="M105.6,312.07c1.87-2.92,3.54-4.95,7.28-4.3C111.87,311.68,109.21,312.1,105.6,312.07Z"/><path d="M226,308.36a7.42,7.42,0,0,0,1.8-.45l1.51,6.55C226.2,313,226.66,310.43,226,308.36Z"/><path class="cls-4" d="M90.84,315.81c1.35-3.28,2.89-5.54,6.56-5.48C95.17,311.84,95.4,316.4,90.84,315.81Z"/><path class="cls-5" d="M255,319.09c3.28-1.74,6.56-3.28,10-5.22a50,50,0,0,1,4.2,17.42Q272,351.66,274.44,372a88.28,88.28,0,0,1,.72,12.89c-.16,4.89-.78,9.84-1.34,14.66-.33,2.92-.69,3.05-5.31,3.28-.76-7.18-.3-14.69-4.69-21.25.42,3.08.91,6.17,1.28,9.25s.62,6.23.78,9.35c0,1.67-.23,3.28-2.92,3.28-.26-2.69-.69-5.45-.75-8.2a112.08,112.08,0,0,0-2-17.42c-1.31-7.67-1.21-15.58-1.87-23.38-.42-5.25-1.11-10.5-1.64-15.75a24.32,24.32,0,0,1-.19-4.09,57,57,0,0,0,.65-8.14A33.14,33.14,0,0,0,255,319.09Zm10.86,7.08a14.23,14.23,0,0,0-1.71-3.28c-3.28,20.76,3.58,40.11,3.81,60a4.7,4.7,0,0,0,1.77-.23c-.4-6.2-.43-12.46-1.31-18.59-1.61-11-4-21.94-2.6-33.16A17.65,17.65,0,0,0,265.82,326.17Z"/><path class="cls-1" d="M190.28,320.73,197.7,313c-.53,5.54-3.28,9.15-6,13.84Z"/><path d="M232.56,333.62c-1-3.71-3.77-7.12-2.43-12.46C233.91,325.81,232.36,329.85,232.56,333.62Z"/><path d="M264.11,322.86a14,14,0,0,1,1.71,3.28,17.76,17.76,0,0,1,0,4.72c-1.41,11.22,1,22.14,2.59,33.16.88,6.13.92,12.4,1.31,18.6a15.31,15.31,0,0,0-1.77.23C267.69,362.91,260.77,343.62,264.11,322.86Z"/><path class="cls-1" d="M199.53,327.09l1.58,1.41c-.66.56-1.08,1.12-1.64,1.28s-1.12-.75-1.05-.95A7.91,7.91,0,0,1,199.53,327.09Z"/><path class="cls-1" d="M197.57,331.39a30.89,30.89,0,0,1-3.28,15.91C192,340.87,195.27,336.24,197.57,331.39Z"/><polygon points="202.35 333.06 202.39 333.06 202.39 333.09 202.35 333.06"/><path class="cls-3" d="M202.35,333.06h0l-.59.92Z"/><path class="cls-1" d="M201.8,334l.59-.92h0a31.29,31.29,0,0,0,0,4.33c.92,6.56,2.1,13.12,2.85,19.68,1.15,10.5,2.2,21,3,31.55S209.54,410,210,420.76a170.67,170.67,0,0,0,.59,20.6c2.62,15.81,2.72,31.84,5.44,47.62,1.21,6.92,2.1,13.91,2.95,20.89.66,5.41,1.25,10.86,1.38,16.4,0,4.3-.56,8.63-.89,13.12l-3.9.26c-.56-8.16-1-16.4-1.8-24.43-.89-9-2.33-17.84-3.58-26.73l-4.79-33.78c-1.08-7.94-2.16-15.91-3.08-23.88-1-8.69-1.67-17.45-2.59-26.24-1.15-10.72-2.59-21.38-3.54-32.11a20.37,20.37,0,0,1,1.51-7.9,14.68,14.68,0,0,0,0-12.2l-2,12.1c-2.42-7.64-2.33-9.38,0-15.38,1.45-3.84,2.59-7.77,4-11.61A21.6,21.6,0,0,1,201.8,334Z"/><path class="cls-1" d="M192.55,336.67c-1.51-3.05-.72-4.2,2.39-5.68Z"/><path d="M202.49,337.49a31.29,31.29,0,0,1,0-4.33c2.46,2.62,1.44,6.56,3.28,9.54s.42,7.12.72,10.76c1.18,14.83,2.65,29.52,3.67,44.47.75,11.12.72,22.31,1.51,33.42.69,10.14,2,20.24,3,30.34.52,5.84.62,11.74,1.37,17.55,1.61,12.2,3.84,24.33,5.15,36.6a209.67,209.67,0,0,1,.4,21.71c0,.63-.69,1.25-2.14,1.68.33-4.33,1-8.66.89-13.12a138.46,138.46,0,0,0-1.38-16.4c-.85-7-1.74-14-2.95-20.89-2.72-15.78-2.82-31.82-5.44-47.63A170.45,170.45,0,0,1,210,420.6c-.46-10.73-1-21.42-1.78-32.11s-1.83-21.06-3-31.55C204.58,350.61,203.4,344.08,202.49,337.49Z"/><path class="cls-5" d="M195.11,397.38l-.89-8.83c2.56,2.63,1.48,5.68,2,8.53Z"/><path class="cls-1" d="M250.14,410.43c.43,4.69,1,9.35,1.28,14a186.07,186.07,0,0,0,1.51,21.09,309.31,309.31,0,0,1,4.29,36.79c.69,10,1,20,1.68,30,1,16.4,2.26,32.47,3.08,48.71.46,9,0,18.07.29,27.12.23,10.17.89,20.37,1,30.53,0,19.09,4.46,37.72,6,56.64,1.48,18.14,3.91,36.08,5.74,54.32.76,7.41,1,14.89,1.51,22.3,1.28,18.79,4.3,37.36,7.38,55.92,3.51,21,6.56,42.18,10.1,63.23,1.87,11.22,4.23,22.34,6.3,33.49s3.8,21.58,5.87,32.34c1.84,9.41,4,18.79,6,28.17l.69,3.28H305.5a151.65,151.65,0,0,0-8.53-40.6,294,294,0,0,1-10.1-49.5c-1.18-8.29-2.62-16.59-3.77-24.92-1.87-14-3.57-28-5.44-42A127.26,127.26,0,0,0,273.33,790a7.73,7.73,0,0,0-.43,2.23c2.36,18.43,4.69,36.83,7.25,55.23,1.25,9.08,3,18.1,4.46,27.19.79,4.82,1.84,9.61,2.2,14.46,1.05,15,5.57,29.16,9.84,43.46,2.65,9.18,4.1,18.72,5.9,28.14a32.11,32.11,0,0,1,0,6.2c-12.17,1.21-23.78,2.32-36.08,3.54A25.32,25.32,0,0,1,266.7,955c-3.74-1.24-2.23-3.47-.42-6-4.6,0-5.25,4.76-8.79,6.07-.82-6.89,5.93-9.61,8.13-15.19-4.69-.33-4.33,5.45-8.26,5.74.82-5.34,5.08-8.56,8-13.12-4.73-.72-4.33,4.59-7.75,5.55-.36-2.86-.91-5.65-1-8.47-.63-15.8-.92-31.65-1.81-47.45s-1.8-32.15-3.7-48.08c-1.77-15-4.95-29.72-7.32-44.61-2-12.72-3.87-25.52-5.47-38.31s-3-26.46-4.3-39.71c-.59-6-.59-12.14-1.31-18.14-1.41-11.64-3.28-23.25-4.63-34.93l-.55-5.12,9.28-1a23.49,23.49,0,0,0,.72,3.9,12.21,12.21,0,0,0,.85-2.56,22.08,22.08,0,0,1,7.91-15.31,15.53,15.53,0,0,0,5.08-13.12c0-6.27,0-12.56.26-18.83a198.68,198.68,0,0,0-1.7-40.27,9.48,9.48,0,0,0-1.38-2.66,4.17,4.17,0,0,0-.49.62l-.17-3.28a598.46,598.46,0,0,1,0-65.89c.53,2.92.92,5.87,1.58,8.76a10.27,10.27,0,0,0,1.44,2.59v12.14h.72l-.69-12.14c-.72-9.84-1.67-19.68-2-29.32-.49-12.36-.49-24.76-.69-37.16,0-5.08-.46-10.17-.33-15.22A49.67,49.67,0,0,1,250.14,410.43Zm2.36,113.68H252v9.34h.46Zm1.21,18.13h-1.18c1.32,21.26,1.22,42.64,4.46,63.76h1.35Zm4.2,107.87a4.68,4.68,0,0,0-7.47.95A21.69,21.69,0,0,0,246,665.2c0,.85,1.37,1.64,2.52,2.89C249.91,660.64,247.35,652.38,257.91,650.11Zm-1.6,12.79a10.4,10.4,0,0,0-3.71,9c-.62,12.43,2,24.54,4.3,36.64a9.7,9.7,0,0,1-1.18,7.25c-4.2-5.25-1.71-11.81-4.92-18A34.41,34.41,0,0,0,252,714.59c1.54,4.63,6.3,5.48,10.2,7.32l6,48.86c.82-.45,1-.85.95-1.21-1.8-12.2-1.74-24.56-2.72-36.83-.43-5.35-1.38-11.32-6.33-15.15,4.88-5,5.47-7.61,2.59-11.45l-2.1,5.58h-1.28c-.75-4.73-1.74-9.45-2.26-14.2s.69-10.83-1.35-15.09c-2.26-4.79-.59-8.82-.65-13.12a31,31,0,0,1,1.28-6.4Zm6.56,12.24a3.68,3.68,0,0,0-3.28-1.45c-1.45.27-1.91,6.56-.76,7.48h.56l.95-2.39a5.31,5.31,0,0,1-.46,6.2c-1.93,2.49-1.51,9.67,0,9.57,4.63-.36,2.33,2.33,2.49,4.07,0,.53.53,1,1.54,2.79V680.78a15.27,15.27,0,0,0-1-5.64Zm5.18,121.05-4.79-51.62a167.77,167.77,0,0,0,4.85,51.62Zm2.72-17.41-1,.29.92,2.89h.82Zm.23,38.86h-.43l1.61,7.58h.52Zm5.28,25.42-1.48.2,10,68.87,2-.29ZM259.49,930.6l4.62-8.89a7.52,7.52,0,0,0-4.56,8.89Zm14,22.66c-.26,3.51-1.24,7.08,1.41,10.72C275.72,957.46,275.72,957.46,273.49,953.26Zm-3.67,13.81c2.49-5.18,1.9-13.12-1.38-24.11Z"/><path class="cls-1" d="M245.32,446a72.93,72.93,0,0,1-.56-12c2.13,4.49,3,30.79,1.08,41.75l-.26-13.65a29,29,0,0,0-1.18-11.25,6.47,6.47,0,0,0-.46-.91A3.62,3.62,0,0,0,245.32,446Z"/><path class="cls-3" d="M243.91,449.89h0a6.47,6.47,0,0,1,.46.91l-.49-.88Z"/><path d="M251,506h0l.69,12.13h-.72Z"/><path d="M252,524.14h.46v9.31H252Z"/><path d="M252.53,542.34h1.18l4.63,63.73H257C253.75,584.94,253.85,563.59,252.53,542.34Z"/><path d="M219.61,544.21h.91v12.86Z"/><path d="M248.14,563.92a4.17,4.17,0,0,1,.49-.62A9.1,9.1,0,0,1,250,566a198.68,198.68,0,0,1,1.7,40.27c-.36,6.26-.26,12.56-.26,18.83a15.5,15.5,0,0,1-5.08,13.11,22.12,22.12,0,0,0-7.91,15.32,12.21,12.21,0,0,1-.85,2.56,23.49,23.49,0,0,1-.72-3.9,15.69,15.69,0,0,1,4.43-11.71c1-1.18,2.29-2.13,3.28-3.28a14.1,14.1,0,0,0,4.42-9.84c.27-11.15.56-22.3,1.28-33.45a101.72,101.72,0,0,0-2.75-27.82A2.54,2.54,0,0,1,248.14,563.92Z"/><path class="cls-3" d="M204.73,316.45a12.16,12.16,0,0,1,6.62-1.6A27,27,0,0,1,204.73,316.45Z"/><path d="M250.44,651.06a4.7,4.7,0,0,1,7.47-.95c-10.56,2.27-8,10.53-9.38,18-1.15-1.25-2.52-2-2.52-2.89A21.69,21.69,0,0,1,250.44,651.06Z"/><path d="M207,322.15l.15.4a9.91,9.91,0,0,1-3.79,1.17Z"/><path d="M252.6,671.92a10.4,10.4,0,0,1,3.71-9,30.87,30.87,0,0,0-1.28,6.24c0,4.32-1.61,8.36.65,13.11,2,4.27.82,9.84,1.35,15.09s1.51,9.48,2.26,14.2h1.28l2.1-5.57c2.88,3.83,2.29,6.56-2.59,11.44,4.95,3.84,5.9,9.84,6.33,15.16,1,12.26.92,24.63,2.72,36.83,0,.36,0,.75-.95,1.21l-6-48.87c-3.9-1.83-8.66-2.69-10.2-7.31a34.44,34.44,0,0,1-1.21-16.83c3.28,6.24.72,12.79,4.92,18a9.7,9.7,0,0,0,1.18-7.25C254.57,696.46,252,684.32,252.6,671.92Z"/><path d="M259.78,673.69a3.68,3.68,0,0,1,3.28,1.45,15.34,15.34,0,0,1,1.22,5.67v20.63c-1-1.8-1.51-2.26-1.55-2.79,0-1.74,2.14-4.42-2.49-4.06-1.57,0-2-7.09,0-9.58a5.31,5.31,0,0,0,.46-6.2l-.95,2.4h-.56C257.88,680.09,258.34,674,259.78,673.69Z"/><path d="M202.52,323.83h.56c-1,.43-1.87.89-2.84,1.29q-2.22.92-4.45,1.76a3.35,3.35,0,0,1-1,0c2.19-.95,4.37-1.92,6.59-2.82A4,4,0,0,1,202.52,323.83Z"/><path class="cls-3" d="M194.5,326.75l.25.12h0Z"/><path d="M263.32,744.57l4.79,51.62A168,168,0,0,1,263.32,744.57Z"/><path d="M269.79,779.07l1-.29.68,3.28h-.82Z"/><path d="M270.64,817.74h.42l1.71,7.58h-.52Z"/><path d="M197.66,841.45a15.12,15.12,0,0,1,3.55.36c.52,2.76,2.95,5.51,0,9.48Z"/><path d="M274.87,843.26l1.47-.2,10.6,68.87-2,.3Z"/><path d="M210.39,851c1.28-2.75,2.72-5,6.2-5.28C214.92,851.59,214.92,851.59,210.39,851Z"/><path d="M184.32,853.39c3.57-3.28,5.18.43,7.31,1.61C188.55,857.2,186.64,854.87,184.32,853.39Z"/><path d="M217.87,861.26c.26-5.51,1.44-6.56,6.56-6.39C222.43,857.29,221.15,860.11,217.87,861.26Z"/><path d="M177.53,863.85c2.42-3.28,2.69-3.28,7.41,1.09A7.41,7.41,0,0,1,177.53,863.85Z"/><path d="M216.92,869.27a7.86,7.86,0,0,1,8.13-2.89C222.72,870,221.25,870.48,216.92,869.27Z"/><path d="M181.43,871.69a16.08,16.08,0,0,1,2.85.43c-1.74,3.54-1.74,3.54-5.64.75A11.25,11.25,0,0,1,181.43,871.69Z"/><path d="M216.16,881.11l-3.54-3.78a3.29,3.29,0,0,1,3.57,3A3.66,3.66,0,0,1,216.16,881.11Z"/><path d="M205.08,880.35c2.78-.72,3,.72,2.82,2.53s0,3.87-3.68,2.59Z"/><path d="M186.64,881.7l7-5C192,883.3,190.94,884.06,186.64,881.7Z"/><path d="M216.16,881.11v.36A2.16,2.16,0,0,0,216.16,881.11Z"/><path d="M191.73,890.32c3.28-7.64,3.84-8.13,7.9-10.1a37.08,37.08,0,0,1-5.21,10.17C194.19,890.75,192.74,890.35,191.73,890.32Z"/><path d="M264.18,921.71l-4.63,8.89A7.51,7.51,0,0,1,264.18,921.71Z"/><path class="cls-6" d="M227,968.58,211.05,935C219.87,944.08,226.66,954.14,227,968.58Z"/><path class="cls-6" d="M256.54,963.1c0-4.92,3.28-6.76,6.19-8.82C262.5,958.38,259.75,960.51,256.54,963.1Z"/><path d="M274.9,964.05c-2.65-3.64-1.67-7.22-1.41-10.72C275.72,957.46,275.72,957.46,274.9,964.05Z"/><path d="M268.44,943c3.28,11.15,3.87,18.92,1.38,24.1Z"/><path class="cls-6" d="M252,955.82c.72,3.28,1.08,5.38-1.6,7s-4.76,3.51-8-.1C245.68,960.54,248.57,958.38,252,955.82Z"/><path class="cls-7" d="M315.93,959.65a67.23,67.23,0,0,1,28.47,5.81A13.11,13.11,0,0,1,340,967c-7.55-.32-15.09-.88-23.12-1.41Z"/><path class="cls-6" d="M262.37,964.51a7.53,7.53,0,0,1,.59,7.25c-1.54-.46-2.88-.89-4.69-1.45Z"/><path class="cls-7" d="M326.66,969.66h11.93C333.94,973.53,330.3,971.3,326.66,969.66Z"/><path class="cls-7" d="M337.28,979.23c2.4-1.86,4.82-3.27,7.71-1.73v1.34Z"/><path d="M365.49,977.73c4.82.91,9.25,1.77,14,2.65-.33,3.48-2.06,4.27-3.74,3.28C372.44,982,366.6,984.74,365.49,977.73Z"/><path d="M201.37,984.61,202,986l-15.05,7.38-.4-2.26a82.46,82.46,0,0,1,7.38-4A75.59,75.59,0,0,1,201.37,984.61Z"/><path d="M221.87,991.21l3.64-2.69.33.29C226,991.17,224.56,992,221.87,991.21Z"/><path d="M183.86,990.81a5.13,5.13,0,0,1,2.32.43c-4.39,1.77-8.72,3.7-13.11,5.28a57.85,57.85,0,0,1-7.91,1.64l-1.08-1.31,2-.59C171.92,994.45,177.85,992.62,183.86,990.81Z"/></svg>