<?xml version="1.0" encoding="utf-8"?>
<!-- Generator: Adobe Illustrator 22.1.0, SVG Export Plug-In . SVG Version: 6.00 Build 0)  -->
<svg version="1.1" id="Calque_1" xmlns="http://www.w3.org/2000/svg" xmlns:xlink="http://www.w3.org/1999/xlink" x="0px" y="0px"
	 viewBox="0 0 459.7 200.6" style="enable-background:new 0 0 459.7 200.6;" xml:space="preserve">
<style type="text/css">
	.st0{fill:#FFFFFF;}
	.st1{fill:url(#SVGID_1_);}
	.st2{fill:#D63665;}
	.st3{fill:#754C24;}
	.st4{fill:url(#SVGID_2_);}
	.st5{fill:url(#SVGID_3_);}
	.st6{fill:url(#SVGID_4_);}
	.st7{fill:#FFC4DA;}
	.st8{fill:url(#SVGID_5_);}
	.st9{fill:url(#SVGID_6_);}
	.st10{fill:url(#SVGID_7_);}
</style>
<title>SANGLIER</title>
<path d="M486.9,425.9c0.2-0.7,0.4-1.5,0.4-2.3c0.1-18.4,0.1-36.7,0.1-55.1c-0.1-0.7,0.1-1.3,0.4-1.9c0,0.8,0,1.5,0,2.3
	c0,11.7-0.1,23.5-0.1,35.2c0,7.3,0,14.5,0.1,21.8L486.9,425.9z"/>
<path d="M417.8-416h5.2v0.3h-5C417.9-415.8,417.9-415.9,417.8-416z"/>
<path d="M487.7-412.9c-0.4-1.2-0.7-2.1-1-3C488.2-415.8,488.2-415.8,487.7-412.9z"/>
<path d="M430.6-415.8L430.6-415.8z"/>
<path d="M427.8-415.8h-1.5v-0.2h1.5V-415.8z"/>
<path class="st0" d="M166.5,119.9L166.5,119.9c0.1,0,0.1,0,0.2,0L166.5,119.9L166.5,119.9L166.5,119.9z"/>
<path class="st0" d="M155.3,94.5c-1.1,0.6-2.3,0.7-3.5,0.3c-1.9-0.6-3.7-1.5-5.5-2.3c-0.9-0.3-1.3-1.2-1-2.1c0-0.1,0.1-0.2,0.1-0.2
	c0.7-2.2,1.3-4.4,2-6.6c0.7-2,1.2-2.3,3.4-1.8c3.7,0.8,6.2,3.2,8.7,6C156.9,89.6,154.1,90.8,155.3,94.5z"/>
<path class="st0" d="M166.7,120h7l-1,3.2c-1.1-1-2.4-1.9-3.8-2.5C168.2,120.4,167.5,120.1,166.7,120z"/>
<path d="M200.9,63.6c-2.3,4.4-6.1,7.7-10.6,9.5c-0.3-2.6,0-3.1,2-4.2c3.1-1.5,5.6-4,7.3-7c1-2,1.7-4.1,2.5-6.2
	c0.4-0.8,0.9-1.5,1.5-2.2C204.2,55.5,203.7,57.5,200.9,63.6z"/>
<path d="M382.2,48.1c0.1,1,0.7,1.8,1.6,2.2c1.4,0.7,6.2-0.3,7-1.6s2-2.8,1.3-4.8c-0.4-1.1,0.2-1.8,1.2-2.2c0.3-0.1,0.7-0.3,1-0.4
	c-1.3-3.4-8.7-13-13.3-17.3c-0.6-0.5-1.3-0.9-1.9-1.3c0,0.7,0,1,0.1,1.3c0.4,2.7,0.9,5.5,1.2,8.2c0.5,4.1,0.7,8.2,1.1,12.3
	C381.7,45.7,382,46.9,382.2,48.1z M406.4,63.6c-0.4,2.2-0.3,2.4,1.9,3.1C408.5,65.3,407.7,64.1,406.4,63.6z M406.9,69.5
	c-0.4-0.2-0.8-0.4-1.2-0.7c-2.2-1.3-3.2-3.9-2.4-6.3c0.5-1.4,1.3-2.7,2-4.2c-2.2-0.6-2.9,1.2-3.8,2.5c-1.3,1.8-1.4,4.2-0.3,6.1
	C402.1,69.1,404.6,70.2,406.9,69.5L406.9,69.5z M419.2,66.8c2.8,1.5,5.6,3,8.5,4.3c1.2,0.4,2.5,0.7,3.7,0.8c2.5,0.8,5,1.5,7.4,2.4
	c1.6,0.8,3.1,1.6,4.5,2.6c1.1,0,2.1-0.1,3.2-0.4l0.5,2c-0.4,0.1-0.7,0.2-1.1,0.3l-1.8,0.5l0,0c0.7,5.2,0.7,5.2-0.6,6.3
	c-1.1-0.8-0.6-1.9-0.7-2.9c-0.1-3-1.1-5.3-4.2-6.2c-0.5-0.2-1.1-0.2-1.6-0.4c-1.1-0.3-2.2-0.5-3.2-0.8c-2-0.6-4.1-1.3-6.1-2
	c-0.7-0.2-1.4-0.3-2.1-0.6c-4.1-1.8-8.5-3.1-11.2-6.6c-1.6,1.2-3,2.3-4.5,3.4l0.5,2.3c-1.3,0.4-2.6,0.7-4,0.8
	c-4.9-0.3-6.1-1.3-8.3-5.8c-1.9-3.9-0.1-7.4,2.2-9.7c2.7-2.7,9.1-1,9.9,2.5c0.2,1,0.8,1.1,1.7,1c-0.8-1.8-1.4-3.6-2.2-5.2
	c-1.9-3.9-3.4-8-6.1-11.6c-1.7-2.3-3.7-3.7-6.8-3.3c0.3,1.7-0.8,2.5-2.3,3c0.6,1.5-0.1,2.8-0.8,4.1c-1.1,2.1-2.3,3.8-4.9,3.9
	c-0.3,0-0.6,0.3-0.9,0.4c-1.6,0.3-3.1,0.5-4.7,0.5c-1.3,0-2.5-0.7-3.1-1.9c-0.7-0.9-1.5-1.6-2.3-2.3c2.1-4,0.3-8.2-0.1-12.4
	c-2.5,0.2-4.8,0.1-6.9,0.7c-6.2,1.6-12.4,3.1-18.1,6.2c-3.4,1.7-6.6,3.6-9.7,5.7c-2.3,1.9-4.9,3.5-7.6,4.8c-0.8,0.3-1.6,0.6-2.4,1
	l-0.9-1.9c3.2-1.4,6.1-3.1,8.9-5.2c4.1-3.2,8.7-5.8,13.5-7.8c5.3-2.4,11-3.8,16.5-5.4c1.6-0.3,3.1-0.5,4.7-0.5
	c0.5-0.1,1.1-0.2,1.7-0.2c0.2-3.3-0.2-6.6-1.4-9.7c-0.3-1-0.9-2,0.2-2.8c1-0.7,2.3-0.8,3.4-0.2c0.3,0.2,0.5,0.3,0.8,0.5
	c3,2.1,5.6,4.7,7.6,7.8c0.8,1.2,1.6,2.3,2.6,3.4c0.7,0.7,1.3,1.4,1.8,2.2c1.4,3.1,4.3,3.6,7.1,3.9c1.6,0.1,3.1,0.7,4.3,1.8
	c1.5,1.5,2.8,3.2,3.8,5.1c2.2,4.1,4,8.3,6.1,12.4c0.1,0.1,0.2,0.2,0.4,0.2c4,0.6,4.1,2.7,3.6,5.8C417.8,65.5,417.9,66.1,419.2,66.8
	L419.2,66.8z"/>
<linearGradient id="SVGID_1_" gradientUnits="userSpaceOnUse" x1="211.6525" y1="-129.3972" x2="231.4537" y2="-129.3972" gradientTransform="matrix(6.123234e-17 -1 1 6.123234e-17 147.5255 315.2126)">
	<stop  offset="0" style="stop-color:#FFFFFF"/>
	<stop  offset="2.000000e-02" style="stop-color:#F2F2F2"/>
	<stop  offset="0.14" style="stop-color:#BABABA"/>
	<stop  offset="0.25" style="stop-color:#898989"/>
	<stop  offset="0.37" style="stop-color:#5F5F5F"/>
	<stop  offset="0.49" style="stop-color:#3C3C3C"/>
	<stop  offset="0.61" style="stop-color:#222222"/>
	<stop  offset="0.74" style="stop-color:#0F0F0F"/>
	<stop  offset="0.86" style="stop-color:#040404"/>
	<stop  offset="1" style="stop-color:#000000"/>
</linearGradient>
<path class="st1" d="M13.6,87.5c-0.2,2.4,1.6,4.5,4,4.8L13.6,87.5z M19.7,95.7c2.3,1.8,4.3,4.1,6.5,6.3l-1.5,1.6
	c-1.7-1.6-3.4-3.2-5.1-4.8c-0.8-0.9-1.9-1.5-3-1.8c-0.8-0.3-1.6-0.7-2.3-1.2l1-1.3c-0.1-0.2-0.1-0.3-0.2-0.4c-1-0.9-2-1.8-3.1-2.6
	c-1.8-1.7-2.5-4.3-1.8-6.6c0.2-0.7,1-1.1,1.8-0.9c0,0,0,0,0,0c2.1,0.6,4,1.5,5.1,3.6c0.9,2.2,2.9,3.9,5.2,4.5
	c0.6,0.1,1.2,0.4,1.6,0.8c0.7,0.7,1.4,1.4,2.2,2L25.6,97c-0.7-0.7-1.6-1.1-2.5-1.2C22,95.6,20.8,95.6,19.7,95.7z"/>
<path d="M173.7,62.8v1.9h-2.3c0-2.4-0.4-4.8,0-7.2v-0.1l2.1-0.1C173.5,59.1,173.7,60.9,173.7,62.8z"/>
<path class="st2" d="M160.4,136.3l-1.5-0.9c1.4-1.7,0.9-3.1-0.2-4.4l-0.5-0.6c-1.3-1.5-2.6-2.9-3-4.9c0.9-0.4,1.8-0.8,2.7-1.1
	c1.2-0.4,2.4-0.7,3.7-0.9c2-0.2,3.9-0.4,5.9-0.4c0.4,0,0.9,0.1,1.3,0.2c1.2,0.5,2.1,1.6,2.4,2.9c1.4,3.7-0.1,6.7-2,9.6
	c-0.7,0.9-1.4,1.8-2.1,2.6c-0.5,0.8-1.6,1-2.4,0.4C163.3,138,161.9,137.2,160.4,136.3z"/>
<path d="M400.2,26.1c0.6-2,1.3-3.9,2.2-5.8c2.6-5.6,5.3-11.2,8-16.8c0.5-1.1,1-2.2,1.6-3.4c0.7,0.2,1.1,0.4,1.6,0.6
	c-0.6,2.9-1.7,5.7-3.2,8.3c-2.6,5.3-4.8,10.8-6.7,16.3c-0.2,1-0.9,1.9-1.9,2.3C400.7,27.9,399.9,27.3,400.2,26.1z"/>
<path d="M458.9-25c0.3,0.2,0.5,0.4,0.8,0.6l-0.3,0.4c-0.3-0.2-0.6-0.3-0.9-0.5L458.9-25z"/>
<path d="M160.8,157.9c2.6,4.1,6.8,5.7,11.2,7c0.4,0,0.8,0,1.3-0.1c0.5-1.7,1.1-3.4,1.4-5.1c1-4.5,0.3-9-0.2-13.5l-0.1-1l2.3-0.3
	l0,0.4c0.2,0.8,0.3,1.6,0.4,2.4c0,1.3,0.7,2.5,1.7,3.2c2.3,2,4.5,4.1,6.6,6.2c1.5,1.6,2.9,3.4,4.2,5.1c1.9,2.4,4.4,3.9,7.3,5.3
	l5.1-3.9c-0.9-1-1.5-1.6-2.1-2.2c-2.6-2.7-5.3-5.4-6.9-8.8l-0.1-0.2l2.1-1c1.2,2.1,2.7,4,4.4,5.6c2.2,2,4.2,4.3,5.9,6.9
	c0.2,0.3,0.5,0.5,0.9,0.7c2.2,1.6,4.4,3.1,6.6,4.7c0.9,0.7,1.4,1.8,1.2,2.9c0,0.7-0.5,1.4-1.2,1.6c-3.6,1-7.4,1.2-11.1,0.7
	c-1.4-0.2-2.6-1.2-3.1-2.6c-2.6,0.1-4.3-1.7-6.1-2.9c-3-2-5.1-5-7.3-7.8c-2.2-2.8-4.6-5.3-7.4-7.5c-0.1,0.8-0.1,1.7-0.1,2.5
	c0.2,2.2-0.1,4.5-0.7,6.6c-0.3,1.1-0.5,2.2-0.7,3.2c-0.4,1.8-1.2,2.6-2.9,2.4c-5.8-0.7-10.5-3.3-13.6-8.4l-0.5-0.9L160.8,157.9z"/>
<path d="M116.5,36.8c-0.1,1.3-1.3,2.4-2.5,3.5c-0.1-0.5-0.2-0.9-0.3-1.4c0-1.2,0.1-2.4,0.1-3.6c0.3-4.9-1.2-9.4-2.1-14.1
	c-0.5-2.3-0.6-4.6-0.9-6.8c-0.2-0.8,0.3-1.6,1.1-1.8c0.1,0,0.2,0,0.4,0c1.2,4.9,2.4,9.6,3.7,14.3C116.8,30.1,117,33.5,116.5,36.8z"
	/>
<path d="M436.4,88.8c-0.4,0.6-0.6,1.3-0.6,2l-2.9,0.1c-0.1-1,0.1-1.9,0.4-2.8c0.1-0.2,0-0.5,0-0.9c-0.5,0-0.8-0.1-1.1,0l-0.7-2.3
	c1.1-0.4,2.3-0.5,3.4-0.3c0.5,0.8,1,1.6,1.4,2.5C436.6,87.6,436.6,88.2,436.4,88.8z"/>
<path class="st0" d="M151.8,120.8c-0.1,4.6,2.1,8.1,5.2,11.1c-1,1-2.4,1.4-3.8,1c-0.6-0.2-1.1-0.6-1.6-1.1c-2.2-2.6-2.6-6.3-1-9.3
	C151,121.9,151.4,121.4,151.8,120.8z"/>
<path class="st3" d="M26.2,101.9c-2.2-2.1-4.2-4.4-6.5-6.3c1.1-0.1,2.3-0.1,3.4,0c0.9,0.1,1.8,0.6,2.5,1.2c1.8,1.8,4,3.2,6.5,4
	l-2.6,3.7C28.3,103.8,27.2,102.9,26.2,101.9z"/>
<path class="st0" d="M405.7,68.8c0.4,0.2,0.8,0.4,1.2,0.7c-2.3,0.8-4.9-0.4-5.8-2.6c-1.1-1.9-1-4.3,0.3-6.1c0.9-1.2,1.6-3.1,3.8-2.5
	c-0.7,1.4-1.5,2.8-2,4.2C402.4,64.9,403.5,67.6,405.7,68.8z"/>
<linearGradient id="SVGID_2_" gradientUnits="userSpaceOnUse" x1="134.8472" y1="-45.5531" x2="290.4726" y2="-45.5531" gradientTransform="matrix(6.123234e-17 -1 1 6.123234e-17 147.5255 315.2126)">
	<stop  offset="0" style="stop-color:#FFFFFF"/>
	<stop  offset="1" style="stop-color:#000000"/>
</linearGradient>
<path class="st4" d="M158.9,96.9c2.7-0.8,4.5-3.3,4.4-6.1c-0.1-2-0.8-3.9-2.1-5.5c-3.1-3.4-6.5-6.3-11.3-7c-2.3-0.3-2.7-0.4-3.5,1.7
	c-1.3,3.2-2.3,6.4-3.2,9.7c-0.8,2.7,0.7,5.5,3.3,6.4c0.7,0.3,1.3,0.6,1.9,1c3,1.7,6,2.1,9.1,0.4C157.9,97.3,158.4,97,158.9,96.9z
	 M111.5,69.9c5.6-1.7,10.8-4.4,15.4-8c2.6-2,5-4.3,7.4-6.5c0.7,1.5,0.6,3.7,2.2,5.1c0.9-0.2,1.5-1.2,1.3-2.1c0-0.1-0.1-0.3-0.2-0.4
	c-1.3-3.9-2.4-7.9-4.3-11.6c-1.2-2.1-2-4.5-2.3-6.9c-0.1-1.3,0-2.6,0.3-3.9c0-0.1,0-0.2,0-0.2c0-3.6-0.1-7.2,1.6-10.7
	c0.4,0.4,0.7,0.8,1,1.3c1.6,2.5,3.1,5,4.3,7.7c1.3,3.2,2.3,6.6,2.8,10.1c0.4,4.1,0.6,8.2,0.6,12.4c-0.1,1.2,0.4,2.3,1.3,3.1
	c1.5-1.2,1.1-3,1.6-4.5c0.1-0.1,0.2-0.3,0.3-0.3c3.5-0.1,7-1.4,10.6-1c1,0.1,1.9,0.1,2.9-0.1c2.7-0.4,5.4-0.5,8.1-0.1
	c2,0.1,3.8,1.4,4.6,3.3c0.1,0.3,0.3,0.6,0.3,0.8v0.1c-0.4,2.4,0,4.8,0,7.2c0,0.8,0,1.5-0.2,2.3c-0.3,2-1,3.8-3,4.9
	c-1.1,0.7-2.2,1.6-3.2,2.5c-1.3,1.1-1.3,1.3,0,2.8l6.5-4.4l1.6,6.2c-2.3,0.6-3.9,2.8-3.7,5.1c0,1.5,0.2,3,0.6,4.5
	c1,2.9,2.8,3.5,5.6,3.3c0.7-0.1,1.5-0.9,2-1.5c0.5-0.8,0.9-1.6,1.3-2.5c3.1,4.7,5.8,9.8,10.4,13.5c-0.5,1.9-1.1,3.8-1.5,5.7
	c-1,3.8,0.6,7,2.1,10.3c0.3,0.8,0.7,1.5,1.1,2.2c-1.6-0.2-3.2-0.4-4.7-0.6c-1.4-0.1-2.8-0.4-4.2-0.9c-2.6-1-5.1-2.2-7.6-3.5
	c-0.8-0.5-1.6-1.1-2.3-1.7c-0.4-0.4-1-0.8-1.6-1c-0.5-0.1-1.1,0.3-1.6,0.5c0.2,0.5,0.2,1.1,0.6,1.4c0.6,0.5,1.2,1,1.9,1.4
	c0.7,0.5,1.4,1,2,1.5l-0.1,0.5c-2.3-0.2-4.7-0.2-7-0.6s-4.4-1.1-6.6-1.7c-0.2,2.4,0.8,3.6,3.1,4.1c1.2,0.3,2.4,0.7,3.5,1.1H166
	c-0.9,0-1.8,0-2.8,0.1c-0.5,0-0.9,0.1-1.4,0.2s-0.9,0.1-1.4,0.2c-1.8,0.3-3.6,0.7-5.5,1.2c0.1-0.9,0.3-1.8,0.4-2.6
	c0.2-1.9-0.9-3.4-2.3-3c-1,0.2-2,0.7-2.7,1.4c-2.1,2.4-3.7,5.2-3.9,8.5c-0.1,3.9,2.7,7.9,6.4,9.6c0.8,0.4,1.7,0.6,2.5,0.8
	c0.6,0,1.1,0.2,1.6,0.4c0.8,0.5,1.6,0.9,2.4,1.4c1.6,0.9,3.1,1.9,4.7,2.8c0.4,0.2,0.8,0.6,1.2,0.8c1.8,1,2.9,0.9,4.1-0.8
	c1.9-2.7,3.7-5.5,5.6-8.3c0.8-0.2,1.7-0.4,2.5-0.7c0.3-0.1,0.6-0.3,0.8-0.5l1.5,2.3c-0.2,0.2-0.4,0.5-0.6,0.7
	c-1.5,1.7-2.8,3.5-4,5.4c-1.1,1.7-1,3.6-0.8,5.5l0.1,1c0.5,4.5,1.2,9,0.2,13.5c-0.4,1.7-1,3.4-1.4,5.1c-0.4,0.1-0.8,0.1-1.3,0.1
	c-4.5-1.2-8.6-2.8-11.2-7c-0.2-0.3-0.3-0.6-0.5-0.9c-1.9-4-4.6-7.5-8-10.3c-2.8-2.3-5.5-4.8-8.3-7.2c-0.4-0.3-0.8-0.5-1.3-0.7
	c-4.4-1.9-8.7-3.8-13.2-5.5c-4-1.4-7.3-4.4-9-8.4c-0.7-1.6-1.4-3.2-2.1-4.8c-1.7-3.5-1.2-7.3-1.4-11c-0.2-3-0.6-6-1-9
	c-0.3-0.9-0.6-1.8-1.1-2.7c-0.9,0.5-1.3,1.5-1.2,2.4c0.6,4.7,0.9,9.4,0.9,14.1c0.1,3.2,1,6.3,2.6,9.1c0.3,0.6,0.5,1.1,0.8,1.7
	c2.2,5.7,5.5,10.1,11.7,12c3.1,0.8,6.1,2.2,8.9,3.9c1.1,0.8,2.6,0.8,3.7,1.5c1.7,0.9,3.2,2.1,5,3.4l-5.8,2.5c1,0.5,1.4,1.7,0.9,2.7
	c0,0.1-0.1,0.1-0.1,0.2c-1.5,3.3-1.9,6.9-2.2,10.5c-0.1,1.7-0.4,3.5-0.8,5.2c-0.5,2-0.4,4.2,0.4,6.1c0.7,1.8,0.8,3.8,0.4,5.6
	c-0.1,0.6-0.5,1.1-1,1.5c-2.8,1.5-6.2,0.5-7.8-2.3c-2.8-5.6-5.3-11.4-7.5-17.3l-0.2-0.7c-0.4-1.6-0.9-3.2-1.5-4.8
	c-0.6-1.2-1.4-2.3-2.3-3.3c-0.2-0.3-0.6-0.6-0.7-0.9c-0.7-1.9-1.2-2.4-3.1-2.4c-3.5,0-7-0.1-10.5,0c-9.3,0.2-18.5,0.1-27.6-1.6
	c-5.3-1-10.6-2-16-2.9c-2.4-0.4-4.8-0.5-7.1-0.8c-1-0.1-1.9-0.2-2.9-0.3c-2.3-0.2-4.6,0.1-6.8,0.9c-0.8,0.3-1.5-0.8-2.4,0.1
	c-1.9,1.8-4.2,3.1-5.6,5.5c-1.9,3.4-4.2,6.6-6.8,9.5c-1.1,1.1-1.9,2.4-2.9,3.5c-1.8,1.9-3.5,3.9-5.5,5.6c-0.8,0.4-1.8,0.6-2.7,0.4
	c-0.8-0.2-1.5-0.5-2.1-1c-1.3-0.9-2.5-1.8-4.1-2.9c0.1,0.2-0.1,0,0-0.1c1.6-6.1,2.9-12.2,5.5-18c1.7-3.8,2.9-7.7,3.6-11.8
	c0.2-1.2,0.5-2.3,0.8-3.5c0.5-1.9,1.1-3.8,1.6-5.8c1.5-5.6,3.8-11,6.6-16c1.3-2.7,3.1-5.2,5.2-7.3c4-3.7,8-7.3,13.3-9.1
	c3.1-1,5.9-2.8,8.9-4.1c3.6-1.6,7.2-3.3,10.9-4.8c4.8-1.9,9.6-3.7,14.5-5.4c3.6-1.3,7.3-2.3,10.9-3.3
	C100.5,73.1,106,71.5,111.5,69.9z"/>
<path d="M391.2,59.3c-1,0.7-1.7,0.7-3.3,0.3c1.5-2.3,8.5-5.5,11.1-5.2c0.1,0.9-0.5,1.8-1.4,2C395.4,57,393.2,58,391.2,59.3z"/>
<path d="M152.8,135.5c-3.6-1.7-6.5-5.7-6.4-9.6c0.1-3.4,1.7-6.1,3.9-8.5c0.8-0.7,1.7-1.2,2.7-1.4c1.4-0.4,2.5,1.1,2.3,3
	c-0.1,0.9-0.2,1.7-0.4,2.6c1.9-0.4,3.7-0.9,5.5-1.2c0.5-0.1,0.9-0.1,1.4-0.2s0.9-0.1,1.4-0.2c0.9-0.1,1.8-0.1,2.8-0.1
	c0.1,0,0.2,0,0.3,0h0.1h0.3l0,0c0.8,0.2,1.5,0.4,2.2,0.7l-0.1,2.7c-0.4-0.1-0.9-0.2-1.3-0.2c-2,0-3.9,0.1-5.9,0.4
	c-1.2,0.2-2.5,0.5-3.7,0.9c-0.9,0.3-1.8,0.7-2.7,1.1c0.5,2,1.8,3.4,3,4.9l-1.2,1.5c-3.1-3-5.3-6.5-5.2-11.1
	c-0.4,0.6-0.8,1.2-1.1,1.8c-1.6,3-1.2,6.7,1,9.3c0.4,0.5,1,0.8,1.6,1.1L152.8,135.5z"/>
<path d="M172.9,82.3c-1.6,2.6-1.4,4.2,1,5.9c-1.1-2.1-0.7-3.5,1.5-4.3L172.9,82.3z M168.3,71.8c2-1.1,2.6-3,3-4.9
	c0.1-0.7,0.2-1.5,0.2-2.3h2.3c0,1.4-0.1,2.8-0.1,4.3c-0.1,0.5,0,1,0.3,1.5c0.9,1,1.3,2.4,1.2,3.8c0.1,3.3,1.3,6.5,3.6,8.9
	c2.4,2.9,3.9,6.2,6,9.1c1.8,2.4,3.6,4.8,5.9,7.8l-1.4,1.3c-4.5-3.7-7.3-8.8-10.4-13.5c-0.3,0.9-0.8,1.7-1.3,2.5
	c-0.5,0.7-1.3,1.5-2,1.5c-2.8,0.2-4.6-0.3-5.6-3.3c-0.4-1.5-0.6-3-0.6-4.5c-0.2-2.4,1.4-4.6,3.7-5.1l-1.6-6.2l-6.5,4.4
	c-1.3-1.6-1.3-1.8,0-2.8C166,73.3,167.1,72.5,168.3,71.8z"/>
<path class="st0" d="M446.8,95.7c-0.6,1.4-3.6,3.2-6.9,4.3l-0.7-4.4C444.1,94.8,445.1,94.8,446.8,95.7z"/>
<linearGradient id="SVGID_3_" gradientUnits="userSpaceOnUse" x1="164.6326" y1="-205.1475" x2="183.8126" y2="-205.1475" gradientTransform="matrix(6.123234e-17 -1 -1 -6.123234e-17 176.7648 315.2126)">
	<stop  offset="0" style="stop-color:#FFFFFF"/>
	<stop  offset="2.000000e-02" style="stop-color:#F2F2F2"/>
	<stop  offset="0.14" style="stop-color:#BABABA"/>
	<stop  offset="0.25" style="stop-color:#898989"/>
	<stop  offset="0.37" style="stop-color:#5F5F5F"/>
	<stop  offset="0.49" style="stop-color:#3C3C3C"/>
	<stop  offset="0.61" style="stop-color:#222222"/>
	<stop  offset="0.74" style="stop-color:#0F0F0F"/>
	<stop  offset="0.86" style="stop-color:#040404"/>
	<stop  offset="1" style="stop-color:#000000"/>
</linearGradient>
<path class="st5" d="M389.7,145.6c1,1.9,0.9,2.4-1,3.4c-1.2,0.6-2.4,1.1-3.5,1.6l-5.5-8.3l-6.2-9.4c3.1-0.5,6.1-1,9.2-1.5
	c1.6,3.5,3.2,7.1,4.9,10.7C388.3,143.3,389,144.4,389.7,145.6z"/>
<linearGradient id="SVGID_4_" gradientUnits="userSpaceOnUse" x1="235.8926" y1="-268.3804" x2="236.3826" y2="-268.3804" gradientTransform="matrix(6.123234e-17 -1 -1 -6.123234e-17 176.7648 315.2126)">
	<stop  offset="0" style="stop-color:#FFFFFF"/>
	<stop  offset="2.000000e-02" style="stop-color:#F2F2F2"/>
	<stop  offset="0.14" style="stop-color:#BABABA"/>
	<stop  offset="0.25" style="stop-color:#898989"/>
	<stop  offset="0.37" style="stop-color:#5F5F5F"/>
	<stop  offset="0.49" style="stop-color:#3C3C3C"/>
	<stop  offset="0.61" style="stop-color:#222222"/>
	<stop  offset="0.74" style="stop-color:#0F0F0F"/>
	<stop  offset="0.86" style="stop-color:#040404"/>
	<stop  offset="1" style="stop-color:#000000"/>
</linearGradient>
<path class="st6" d="M444.2,79.3l1.8-0.5C445.4,79,444.8,79.1,444.2,79.3L444.2,79.3z"/>
<path class="st7" d="M164.2,40.6c0.3-1.4,0.3-2.8,0-4.2c-0.7-3.8-0.6-7.6,0.2-11.4c0.1-1.1,0.2-2.2,0.2-3.3c0-1.2,0-2.3,0-3.5
	c0.2,0,0.4-0.1,0.6-0.1c2.3,2.8,3.2,6.3,4.4,9.6c0.3,1,0.6,2,1.1,2.9c2,3.5,2.9,7.4,2.6,11.4c-0.1,3.5-0.8,6.9-1.3,10.8
	c-2.6-2.8-5.6-3.1-9.1-2.8C163.3,46.7,163.6,43.6,164.2,40.6z"/>
<path d="M192.9,152.4c-2-4-4.5-7.7-7.4-11.1c-1.3-1.5-2.6-3.2-4-4.9c-1.2,1.8-2.3,3.5-3.5,4.9c-0.9,0.9-1.4,2.2-1.3,3.5l-2.3,0.3
	c-0.2-1.9-0.3-3.8,0.8-5.5c1.2-1.9,2.5-3.7,4-5.4c0.2-0.2,0.4-0.5,0.6-0.7c2-2.5,3.3-5.6,3.7-8.8l2.3,0.3c-0.4,2.9-0.4,6-2.3,8.7
	c1.1,0.7,1.8,1.8,2,3c0.4,1.3,1.2,2.5,2.2,3.4c2.1,2.1,3.9,4.6,5.2,7.4c0.6,1.3,1.3,2.6,2,3.8L192.9,152.4z"/>
<path class="st7" d="M198.6,113.2c0,0.6-0.1,1.3-0.4,1.9c-0.8,1.8-1.7,3.5-2.6,5.3c-5.6-4.8-6.7-14.4-1-20.1
	C196.9,104.2,198.3,108.7,198.6,113.2z"/>
<path d="M404.7,50.1c-0.5,0.5-0.8,1.3-1.2,1.3c-1.5,0-3,1.2-4.6,0C400.3,49.5,401.5,49.2,404.7,50.1z"/>
<path d="M137.6,58c0.5,0.8,0.1,1.9-0.7,2.3c-0.1,0.1-0.3,0.1-0.4,0.2c-1.5-1.5-1.4-3.6-2.2-5.1c-2.4,2.1-4.8,4.5-7.4,6.5
	c-4.6,3.6-9.8,6.3-15.4,8c-5.5,1.6-11,3.2-16.5,4.8c-3.6,1.1-7.3,2.1-10.9,3.3c-4.9,1.7-9.7,3.5-14.5,5.4c-3.7,1.5-7.3,3.1-10.9,4.8
	c-3,1.3-5.8,3.1-8.9,4.1c-5.3,1.8-9.3,5.4-13.3,9.1c-2.1,2.1-3.9,4.6-5.2,7.3c-2.9,5-5.1,10.4-6.6,16c-0.5,1.9-1.1,3.8-1.6,5.8
	l-2.7-0.7c1.2-4.4,2.3-8.8,3.7-13.1c1-3.2,2.7-6.1,4.2-9.3c-0.3-0.6-0.7-1.1-1.1-1.6c-0.8-0.8-1.6-1.5-2.4-2.3l1.5-1.6
	c1,1,2.1,1.9,3.2,2.7l2.6-3.7c-2.4-0.8-4.7-2.2-6.5-4l0.5-2.2c2.4,1.6,5,3.1,7.5,4.4c1.1-0.9,2.2-1.7,3.1-2.7
	c4-3.8,8.9-6.2,13.9-8.3c2.2-0.9,4.4-2,6.5-2.9c6.7-2.9,13.2-5.9,20-8.5c8.1-3,16.3-5.5,24.7-7.5c6.6-1.6,13-4,19-7.2
	c3.7-2.3,7.2-5,10.2-8.1c0.6-0.5,1.3-1,2-1.4l-2.6-6.4c-0.8-2.1-1.3-4.2-1.5-6.5l1.9-0.1c0.3,2.4,1.1,4.8,2.3,6.9
	C135.1,50.2,136.2,54.1,137.6,58z"/>
<path class="st0" d="M13.6,87.5l4,4.8C15.2,92.1,13.5,90,13.6,87.5z"/>
<path class="st0" d="M436.9,97.6c0.1,1.5-0.9,2.3-2,2.9c-0.9,0.7-2.2,0.6-3-0.3c-1.8-2-3.2-4.4-4.1-6.9c-0.2-0.4-0.2-0.9,0-1.4
	c1-2,2.5-3.7,4.5-4.8c0.3-0.1,0.6,0,1.1,0c0,0.5,0.1,0.7,0,0.9c-0.3,0.9-0.5,1.9-0.4,2.8c0.2,2.2,1.5,3.9,3.3,5.5
	C436.6,96.8,436.8,97.1,436.9,97.6z"/>
<path d="M176,128c-0.1-1.5,1.2-2.9,0-4.5c-0.6,1.9-1.8,3.5-0.9,5.9C175.5,128.8,176,128.4,176,128z M172.1,112.8
	c0.7,0.6,1.5,1.2,2.3,1.7c2.5,1.2,5,2.5,7.6,3.5c1.4,0.4,2.8,0.7,4.2,0.9c1.5,0.2,3.1,0.4,4.7,0.6l0,2c-1.3,0.7-2.9-0.5-4.3,0.1
	c-0.4,1.2-0.7,2.4-0.8,3.6l-2.3-0.3c0.2-1.2,0.3-2.5,0.3-3.7c-2.2,0-3.8-2.4-6.3-1.2c1.6,3.3,2.5,6.5,1.5,9.9
	c-0.1,0.5-0.4,1-0.7,1.5c-0.2,0.2-0.5,0.4-0.8,0.5c-0.8,0.3-1.6,0.5-2.5,0.7c-1.9,2.8-3.7,5.6-5.6,8.3c-1.2,1.7-2.4,1.8-4.1,0.8
	c-0.4-0.2-0.8-0.6-1.2-0.8c-1.6-0.9-3.1-1.9-4.7-2.8l1-1.7c1.5,0.9,2.8,1.7,4.2,2.5c0.8,0.5,1.8,0.3,2.4-0.4
	c0.8-0.8,1.5-1.7,2.1-2.6c1.9-2.9,3.4-5.9,2-9.6c-0.3-1.3-1.2-2.3-2.4-2.9l0.1-2.7c1.4,0.6,2.7,1.4,3.8,2.5l1-3.2h-7l0,0
	c-0.1,0-0.1,0-0.2,0h-0.2c-1.2-0.4-2.3-0.8-3.5-1.1c-2.3-0.5-3.3-1.8-3.1-4.1c2.2,0.6,4.4,1.3,6.6,1.7s4.7,0.4,7,0.6l0.1-0.5
	c-0.7-0.5-1.4-1-2-1.5c-0.7-0.4-1.3-0.9-1.9-1.4c-0.3-0.3-0.4-0.9-0.6-1.4c0.5-0.2,1.1-0.6,1.6-0.5
	C171.1,112,171.6,112.3,172.1,112.8z"/>
<path class="st0" d="M175.4,83.9c-2.2,0.9-2.6,2.3-1.5,4.3c-2.4-1.7-2.6-3.2-1-5.9L175.4,83.9z"/>
<path d="M363.5,1.8c0.6,1,1.1,2.1,1.6,3.2c1.7,4.2,3.3,8.4,4.9,12.6c0.5,1.2,0.2,1.9-0.7,2.3s-1.7,0.1-2.3-1
	c-0.2-0.4-0.3-0.7-0.4-1.1l-6.2-17.2C362.5,0.1,362.5,0.1,363.5,1.8z"/>
<path class="st0" d="M16.9,170.6c0.1-1,0.1-1,1.4-0.6L16.9,170.6z"/>
<path d="M385,130.3c3,6.1,5.9,12.1,9,18c1.5,2.8,4.2,4.5,6.4,6.7c0.5,0.5,1.1,0.9,1.6,1.5c0.8,1,1.7,1.9,1,3.4c-1.2,0-2.4,0-3.5,0
	c-2.3,0-4.5-0.1-6.8-0.2c-0.3,0-0.6,0-0.9-0.1c-2.4-1.3-4.7-2.6-7-4c-1.6-1-1.8-2.8-2.5-4.3c-1.3-2.7-2.8-5.3-4.4-7.7l2-1.3l5.4,8.2
	c1.1-0.5,2.4-1,3.5-1.6c1.9-1,2-1.5,1-3.4c-0.6-1.2-1.4-2.3-2-3.5c-1.7-3.6-3.3-7.2-4.9-10.7L385,130.3L385,130.3z"/>
<path d="M439.3,95.6l0.7,4.4c3.3-1.1,6.3-2.9,6.9-4.3C445.1,94.8,444.1,94.8,439.3,95.6z M322.9,153c1.1-1.9,2.6-3.6,3.9-5.4
	c2.5-3.6,4.9-7.3,7.4-10.9c0.3-0.5,0.7-0.9,1.1-1.3c3.3-3.1,7.1-5.6,11.3-7.5c2.7-1.1,5.4-2.4,8-3.9c2.4-1.4,4.6-3.1,7-4.6
	c2.1-1.4,4.2-2.6,5.6-4.7c0.1-0.2,0.4-0.2,0.8-0.3c1.1,1,1.2,2.7,0.2,3.9c-0.7,0.9-1.6,1.8-2.5,2.5c-2.3,1.6-4.7,3-7,4.6
	c-2.7,2-5.4,4-8.8,5.1c0.3,0.1,0.6,0.2,1,0.2c3.7,0.2,7.4-0.5,11.2-0.3c3.3,0.2,6.7-0.4,10-0.7c3.7-0.4,7.5-0.8,10.9-2.5
	c1.2-0.6,2.5-1.1,3.8-1.6c2.1-0.8,4.2-1.5,6.3-2.3s4-1.6,6-2.3s3.7-2.1,6-2.2c1.2,0,2.3-1,3.4-1.7c6.9-4.2,13.8-8.6,21.2-12
	c0.8-0.4,1.6-0.9,2.3-1.5c-2.9-2.7-5-6.1-6.2-9.8c-0.6-1.4-0.4-2.9,0.5-4.1c0.3-0.5,0.6-0.9,0.9-1.4c1.1-1.5,2.7-2.7,4.5-3.3
	l0.7,2.3c-2,1.1-3.5,2.7-4.5,4.8c-0.2,0.4-0.2,0.9,0,1.4c0.9,2.6,2.3,4.9,4.1,6.9c0.8,0.9,2.1,1,3,0.3c1.1-0.6,2.2-1.5,2-2.9
	c-0.1-0.5-0.3-0.9-0.7-1.2c-1.8-1.6-3.2-3.3-3.3-5.5l2.9-0.1c0.1,1.2,0.7,2.3,1.7,3c3-0.5,6.1-1,8.8-1.4l5.2-15
	c-1.5,0.4-3,0.8-4.4,1.2l-0.5-2c2.7-0.7,5.5-2.2,8.7-2.9c-0.1,0.9-0.3,1.9-0.6,2.8c-1.2,2.8-2.6,5.5-3.6,8.3
	c-0.7,2.4-1.2,4.8-1.5,7.2c-0.2,1.2,0.1,2.5-0.1,3.7c-0.2,1.8-1.3,3.3-2.9,4.1c-1.9,0.8-3.7,1.9-5.3,3.1c-0.5,0.3-1.1,0.6-1.7,0.8
	c-2.6,1.2-5.2,2.3-7.8,3.5c-3.4,1.6-6.8,3.3-10.2,5s-6.3,3.6-9.4,5.6c-2.8,1.7-5.6,3.6-8.4,5.4c-0.4,0.2-0.9,0.4-1.3,0.5
	c-1.3,0.2-2.6,0.6-3.9,0.9c-4.2,1.5-8.3,3.2-12.5,4.8c-0.4,0.1-0.7,0.4-1.3,0.7l0.1,0.2l-2.2,1.1c-3.1,0.5-6.1,1-9.2,1.5l6.2,9.4
	l-2,1.3c-0.5-0.8-1.1-1.6-1.7-2.4c-1.6-2.2-3.3-4.3-4.8-6.6c-0.5-0.9-1.5-1.4-2.5-1.3c-2.9,0.1-5.9,0-8.8,0.1
	c-3.8,0.1-7.7,0.1-11.5,0.5c-1.4,0.3-2.9-0.1-3.9-1.2c-3.5,2.1-6.8,4.2-8.7,8c-1,1.7-2.1,3.4-3.4,4.9c-2.2,3.1-4.5,6.1-6.6,9.4
	c-0.8,1.4-1.3,2.9-1.6,4.5c0,0.5,0.1,1.1,0.3,1.5c0.2,0.7,0.5,1.4,0.9,2.3c-1,0.2-1.7,0.3-2.5,0.4l0.5,9.5c-3-0.1-4.6-2.4-7-3.8
	l-3.8,4.2c-0.7-0.4-1.4-0.9-2.1-1.4c-2.5-2.7-3.9-6.3-3.8-10c0.2-2,0.6-3.9,1.2-5.8c0.7-3,1.4-6,2.2-9c1.3-4.6,3.2-9,5.6-13.1
	c0.5-1,1-2,1.7-3.3c-0.9,0.1-1.4,0.2-1.9,0.3c-4.5,0.4-9,0.7-13.5,1.1c-3.2,0.2-6.4,0.4-9.5,0.7c-3.5,0.5-7.1,0.7-10.7,0.5
	c-0.6-0.1-1.1-0.1-1.7,0c-6.8,0.4-13.5-0.4-20.3,0c-1.4,0.1-2.8,0.5-4.2,0l0.2-2.9c0.9,0,1.3,0,1.7,0c3.7-0.1,7.3-0.4,11-0.4
	c2,0,4.1,0.3,6.2,0.3c1.7,0,3.3-0.1,5-0.2c2.9-0.1,5.7,0,8.6-0.2c3.8-0.2,7.6-0.7,11.4-1c1.5-0.1,3,0.1,4.5,0c4-0.4,8-1,12.1-1.4
	c2.4-0.2,4.6-1.5,5.8-3.6c4.9-7.1,10-14,14.9-21c1.9,0,1.9,1.6,2.8,2.6c-0.9,1.2-1.8,2.3-2.7,3.5c-1.8,2.5-3.9,4.7-5.6,7.3
	c-1.5,2.2-3,4.3-4.4,6.5c-2.6,3.9-5.2,7.8-7.7,11.8c-3.8,5.9-6.2,12.6-7.2,19.6c-0.2,1.1-0.5,2.1-0.8,3.2l9,1.5
	C321.2,156.8,322,154.9,322.9,153z"/>
<path class="st0" d="M406.4,63.6c1.2,0.5,2,1.7,1.9,3.1C406.1,66,406,65.8,406.4,63.6z"/>
<path d="M162.9,50.1c3.5-0.3,6.5,0,9.1,2.8c0.5-3.9,1.1-7.4,1.3-10.8c0.3-4-0.6-8-2.6-11.4c-0.5-0.9-0.8-1.9-1.1-2.9
	c-1.2-3.3-2.1-6.8-4.4-9.6c-0.2,0-0.4,0.1-0.6,0.1c0,1.2,0,2.3,0,3.5c0,1.1-0.1,2.2-0.2,3.3c-0.8,3.7-0.9,7.6-0.2,11.4
	c0.3,1.4,0.3,2.8,0,4.2C163.6,43.6,163.3,46.7,162.9,50.1z M171.4,57.4c0-0.2-0.2-0.5-0.3-0.8c-0.7-1.9-2.5-3.2-4.6-3.3
	c-2.7-0.4-5.4-0.3-8.1,0.1c-0.9,0.2-1.9,0.2-2.9,0.1c-3.6-0.4-7,1-10.6,1c-0.1,0-0.2,0.2-0.3,0.3c-0.5,1.5-0.1,3.3-1.6,4.5
	c-0.9-0.7-1.4-1.9-1.3-3.1c0-4.1-0.2-8.3-0.6-12.4c-0.5-3.4-1.5-6.8-2.8-10.1c-1.2-2.7-2.7-5.3-4.3-7.7c-0.3-0.5-0.7-0.9-1-1.3
	c-1.7,3.5-1.6,7.1-1.6,10.7c0,0.1,0,0.2,0,0.2c-0.3,1.3-0.4,2.6-0.3,3.9l-1.9,0.1c-0.1-1.6-0.1-3.2,0.1-4.8c0.1-1.6,0.2-3.2,0.3-4.8
	c0.1-1,0.1-1.9,0.3-2.9c0.4-1.9,0.5-3.8,0.5-5.7c0.4-0.3,0.7-0.5,1.1-0.8c2-1.2,2-1,3,1.1c1.2,2.4,2.6,4.8,4,7.1
	c3.1,5,4.9,10.6,5.2,16.5c0.1,1.9,0.5,3.8,0.7,5.8c2.8-0.7,5.5,0.2,8.2-0.7c1-0.3,2.1-0.4,3.1-0.2c2.1,0.5,3.9-0.2,6-0.8
	c-1.2-0.8-1.8-2.3-1.3-3.7c0.3-1.7,0.4-3.5,0.8-5.2c0.5-1.9,0.6-3.9,0.2-5.9c-0.7-3.5-0.7-7,0.1-10.5c0.2-0.9,0.3-1.7,0.3-2.6
	c0.2-2.7,0.3-5.4,0.4-8.1c1.9,0,3.6,1,4.5,2.5c2,2.9,3.6,6,4.7,9.3c0.5,1.2,0.7,2.4,1.1,3.7c0.1,0.6,0.3,1.1,0.5,1.6
	c3.8,5.9,3.8,12.3,2.4,18.8c-0.1,0.4-0.1,0.8-0.1,1.2c0.2,1.6-0.5,2.9-1.3,4.2c-0.3,0.3-0.5,0.7-0.6,1.2c0,0.4,0,0.8,0,1.1
	L171.4,57.4z"/>
<path d="M154.4,7.1c-1.4,6.1-2.8,12.2-4.3,18.3c-0.1,1.4-1.1,2.6-2.5,3c0.2-1.6,0.4-3.2,0.8-4.8c1.6-5.8,3.2-11.6,4.9-17.4
	c0.1-0.2,0.5-0.3,1-0.5C154.4,6.1,154.5,6.6,154.4,7.1z"/>
<path d="M381.7,71.1c0-0.9,0.3-1.7,0.9-2.3c0.7-0.8,1.3-1.6,1.8-2.5c1.1-1.5,2.3-2.8,4.5-2.7c0.7,0,1.4-0.7,2.1-0.9
	c0.4-0.2,0.9-0.2,1.3,0c0.2,0.4,0.2,0.8,0.1,1.2c-0.5,1-1.1,1.8-2.6,1.5c-0.8,0-1.6,0-2.3,0.2c-0.7,0-1.4,0.5-1.6,1.2
	c-0.6,1.1-1.5,2-2.1,3.1c-0.5,0.8-0.9,1.6-1,2.6c0.1,3.2-1,6.4-3,8.9c-0.8,0.8-1.7,1.4-2.7,1.9c-0.3,0.2-1-0.2-1.8-0.4
	c1.4-1.3,2.7-2.1,3.4-3.2C380.1,76.9,381.7,74.3,381.7,71.1z"/>
<path class="st0" d="M176,128c0,0.3-0.5,0.7-1,1.4c-0.9-2.4,0.3-4,0.9-5.9C177.2,125.1,175.8,126.6,176,128z"/>
<path class="st7" d="M392.3,43.9c0.7,2-0.4,3.4-1.3,4.8s-5.7,2.3-7,1.6c-0.9-0.4-1.5-1.3-1.6-2.2c-0.3-1.2-0.4-2.3-0.5-3.5
	c-0.4-4.1-0.7-8.2-1.1-12.3c-0.3-2.8-0.8-5.5-1.2-8.2c0-0.3,0-0.6-0.1-1.3c0.7,0.4,1.3,0.8,1.9,1.3c4.7,4.4,12.1,13.9,13.3,17.3
	c-0.3,0.1-0.7,0.3-1,0.4C392.5,42,391.9,42.8,392.3,43.9z"/>
<path class="st0" d="M166,119.9h0.3l0,0C166.3,119.9,166.1,119.9,166,119.9z"/>
<path class="st0" d="M166.3,119.9h0.2l0,0l0,0H166.3z"/>
<linearGradient id="SVGID_5_" gradientUnits="userSpaceOnUse" x1="156.3726" y1="191.6396" x2="279.4026" y2="191.6396" gradientTransform="matrix(6.123234e-17 -1 1 6.123234e-17 147.5255 315.2126)">
	<stop  offset="0" style="stop-color:#FFFFFF"/>
	<stop  offset="2.000000e-02" style="stop-color:#F2F2F2"/>
	<stop  offset="0.14" style="stop-color:#BABABA"/>
	<stop  offset="0.25" style="stop-color:#898989"/>
	<stop  offset="0.37" style="stop-color:#5F5F5F"/>
	<stop  offset="0.49" style="stop-color:#3C3C3C"/>
	<stop  offset="0.61" style="stop-color:#222222"/>
	<stop  offset="0.74" style="stop-color:#0F0F0F"/>
	<stop  offset="0.86" style="stop-color:#040404"/>
	<stop  offset="1" style="stop-color:#000000"/>
</linearGradient>
<path class="st8" d="M403.5,51.4c0.3,0,0.7-0.8,1.2-1.3c-3.1-0.9-4.4-0.6-5.8,1.3C400.5,52.6,402,51.4,403.5,51.4z M387.9,59.5
	c1.6,0.4,2.3,0.4,3.3-0.3c2-1.3,4.2-2.3,6.4-2.9c0.9-0.2,1.5-1.1,1.4-2C396.5,54,389.4,57.3,387.9,59.5L387.9,59.5z M383.6,69.8
	c0.6-1.1,1.5-2,2.1-3.1c0.3-0.7,0.9-1.1,1.6-1.2c0.8-0.2,1.6-0.3,2.3-0.2c1.5,0.4,2.1-0.5,2.6-1.5c0.2-0.4,0.2-0.8-0.1-1.2
	c-0.4-0.2-0.9-0.2-1.3,0c-0.7,0.3-1.4,1-2.1,0.9c-2.2,0-3.4,1.2-4.5,2.7c-0.6,0.9-1.2,1.7-1.8,2.5c-0.6,0.6-1,1.5-0.9,2.3
	c0.1,3.2-1.5,5.8-3.1,8.4c-0.7,1.1-2,1.9-3.4,3.2c0.8,0.2,1.4,0.6,1.8,0.4c1-0.4,1.9-1.1,2.7-1.9c2-2.5,3.1-5.6,3-8.9
	C382.8,71.5,383.1,70.6,383.6,69.8L383.6,69.8z M414.6,66.2c2.7,3.5,7.1,4.8,11.2,6.6c0.7,0.3,1.4,0.4,2.1,0.6c2,0.7,4,1.4,6.1,2
	c1.1,0.3,2.2,0.5,3.2,0.8c0.5,0.1,1.1,0.2,1.6,0.4c3.1,0.9,4.1,3.2,4.2,6.2c0,1-0.4,2.1,0.7,2.9c1.3-1.1,1.3-1.1,0.6-6.3
	c0.6-0.2,1.2-0.3,1.8-0.5c0.4-0.1,0.7-0.2,1.1-0.3c1.5-0.4,2.9-0.8,4.4-1.2l-5.2,15c-2.7,0.4-5.8,0.9-8.8,1.4c-1-0.7-1.6-1.8-1.7-3
	c0-0.7,0.2-1.4,0.6-2c0.2-0.6,0.2-1.2-0.1-1.8c-0.4-0.9-0.9-1.7-1.4-2.5c-1.1-0.2-2.3-0.1-3.4,0.3c-1.8,0.6-3.4,1.7-4.5,3.3
	c-0.3,0.5-0.6,0.9-0.9,1.4c-0.9,1.2-1,2.7-0.5,4.1c1.2,3.7,3.4,7.1,6.2,9.8c-0.7,0.5-1.5,1-2.3,1.5c-7.4,3.4-14.3,7.8-21.2,12
	c-1.1,0.7-2.2,1.6-3.4,1.7c-2.3,0.1-4,1.6-6,2.2s-4,1.5-6,2.3s-4.2,1.5-6.3,2.3c-1.3,0.5-2.5,1-3.8,1.6c-3.4,1.8-7.1,2.2-10.9,2.5
	c-3.3,0.3-6.7,0.9-10,0.7c-3.8-0.2-7.5,0.5-11.2,0.3c-0.3,0-0.6-0.1-1-0.2c3.3-1,6-3,8.8-5.1c2.2-1.7,4.7-3,7-4.6
	c1-0.7,1.8-1.5,2.5-2.5c0.9-1.2,0.8-2.8-0.2-3.9c-0.3,0.1-0.7,0.1-0.8,0.3c-1.4,2.2-3.5,3.4-5.6,4.7c-2.3,1.5-4.5,3.3-7,4.6
	c-2.6,1.4-5.2,2.7-8,3.9c-4.2,1.9-8,4.4-11.3,7.5c-0.4,0.4-0.8,0.8-1.1,1.3c-2.5,3.6-4.9,7.3-7.4,10.9c-1.3,1.8-2.8,3.5-3.9,5.4
	c-0.9,1.9-1.7,3.9-2.3,5.9l-9-1.5c0.3-1,0.6-2.1,0.8-3.2c1-7,3.4-13.6,7.2-19.6c2.5-4,5.1-7.9,7.7-11.8c1.4-2.2,3-4.3,4.4-6.5
	c1.7-2.5,3.8-4.8,5.6-7.3c0.9-1.1,1.8-2.3,2.7-3.5c-0.9-1-0.8-2.6-2.8-2.6c-5,7-10,13.9-14.9,21c-1.2,2.1-3.4,3.4-5.8,3.6
	c-4,0.3-8.1,1-12.1,1.4c-1.5,0.2-3-0.1-4.5,0c-3.8,0.3-7.6,0.7-11.4,1c-2.9,0.2-5.7,0.1-8.6,0.2c-1.7,0-3.3,0.2-5,0.2
	c-2.1,0-4.1-0.3-6.2-0.3c-3.7,0.1-7.3,0.3-11,0.4c-0.4,0-0.8,0-1.7,0c1.8-1.8,3.2-3.1,4.6-4.6c1.6-1.7,3.1-3.4,4.6-5.2
	c0.3-0.4,0.5-0.8,0.7-1.2c0.9-1.9,0.8-2.1-1.2-3.4c-2.1,2.3-4.1,4.6-6.3,6.8c-4.5,4.3-8.6,8.9-12.4,13.8c-2.7,3.6-5.1,7.5-7.1,11.6
	c-0.9,1.7-1.9,3.3-2.7,5.1c-0.6,1.4-1,2.8-1.7,4.5c-2.6-0.6-5.1-1.3-7.8-1.9c0.5-1.6,1-3.5,1.5-5.4c1.7-6.4,3.8-12.6,5.2-19.1
	c0.9-4.2,2.2-8.3,2.9-12.5c0.6-3.6,0.9-7.3,1.7-10.8c1.4-6.5,2.1-13.2,5.1-19.3c1.2-2.3,2.5-4.6,4-6.7c2.1-3,4.6-5.7,7.5-8
	c3.5-2.7,7.6-4.7,11.9-5.7c3.7-0.9,7.4-2,11.1-2.8c4.9-1,9.8-2,14.7-2.8c2.6-0.4,5.2-0.3,7.8-0.5c3.8-0.3,7.6-0.7,11.3-1.2
	c3.2-0.4,6.5-0.9,9.7-1.3c3.8-0.5,7.2-1.7,10.1-4.4c0.6-0.5,1.3-1,2.1-1.3c0.8-0.3,1.6-0.6,2.4-1c2.7-1.3,5.3-2.9,7.6-4.8
	c3.1-2.1,6.3-4,9.7-5.7c5.7-3,11.9-4.5,18.1-6.2c2.1-0.5,4.4-0.4,6.9-0.7c0.4,4.2,2.2,8.4,0.1,12.4c0.9,0.7,1.6,1.4,2.3,2.3
	c0.6,1.2,1.8,1.9,3.1,1.9c1.6,0,3.2-0.2,4.7-0.5c0.3,0,0.6-0.4,0.9-0.4c2.6-0.1,3.8-1.9,4.9-3.9c0.7-1.3,1.4-2.5,0.8-4.1
	c1.5-0.6,2.6-1.3,2.3-3c3.1-0.3,5,1,6.8,3.3c2.7,3.6,4.2,7.7,6.1,11.6c0.8,1.7,1.4,3.4,2.2,5.2c-0.9,0-1.5,0-1.7-1
	c-0.8-3.5-7.2-5.3-9.9-2.5c-2.3,2.3-4.1,5.8-2.2,9.7c2.2,4.5,3.4,5.5,8.3,5.8c1.4-0.1,2.7-0.4,4-0.8l-0.5-2.3
	C411.6,68.5,413,67.4,414.6,66.2L414.6,66.2z"/>
<path d="M120.3,155.7c-0.2-0.6-0.5-1.4-0.9-1.6c-2.8-1.2-5.2-3.5-8.7-3c-4.7,0.7-9.4,0.4-14,0.2c-2.8-0.1-5.6-0.1-8.3-0.3
	c-2.1-0.2-4.2-0.7-6.4-1c-2.9-0.4-5.8-0.7-8.8-1.1c-0.8,0-1.6-0.2-2.3-0.4c-4-1.6-8.2-1.8-12.4-2.3c-2.1-0.3-4.2-1-6.3-1.2
	c-0.1,0-0.3,0-0.5,0l0.2-2.5c1,0.1,1.9,0.2,2.9,0.3c2.4,0.3,4.8,0.4,7.1,0.8c5.3,0.9,10.6,1.9,16,2.9c9.1,1.8,18.4,1.8,27.6,1.6
	c3.5-0.1,7-0.1,10.5,0c1.9,0,2.5,0.5,3.1,2.4c0.1,0.3,0.5,0.6,0.7,0.9c0.9,1,1.7,2.1,2.3,3.3c0.6,1.6,1.1,3.2,1.5,4.8l-2.1,0.6
	C121.2,158.6,120.8,157.2,120.3,155.7z"/>
<path d="M195.4,38.1c-2.2,4.6-4.4,9.2-6.6,13.7c-0.5,0.9-1,1.8-1.7,2.6c-0.3,0.3-0.9,0.4-1.7,0.8c0.5-2.9,8.1-17.1,9.9-18.6
	C195.3,37.2,195.6,37.8,195.4,38.1z"/>
<path d="M419,36.9c-1,0.9-2,1.8-3.1,2.6c-0.7,0.7-1.9,0.7-2.6,0c0,0,0,0,0,0c0.4-0.8,1-1.5,1.5-2.1c3.7-3.3,7.5-6.6,11.3-9.9
	c0.9-0.8,1.9-1.4,3-2c0.8-0.2,1.6-0.4,2.4-0.4c-0.3,0.5-0.6,1-1,1.4C426.7,30,422.8,33.5,419,36.9z"/>
<path d="M197.7,100.8c2.2,4,3.5,8.5,3.9,13.1c0.1,0.7,0,1.4-0.3,2.1c-0.9,2.1-1.9,4.2-3,6.2c-0.9,1.7-2.2,1.9-3.8,0.8
	c-1-0.8-1.9-1.6-2.8-2.5c-0.2,0.3-0.5,0.6-0.8,0.8l0-2c-0.3-0.7-0.7-1.4-1.1-2.2c-1.5-3.3-3.1-6.5-2.1-10.3c0.5-1.9,1-3.8,1.5-5.7
	l1.4-1.3l1.3-2.5C195.1,97.3,196.5,98.6,197.7,100.8z M198.2,115.1c0.3-0.6,0.4-1.2,0.4-1.8c-0.3-4.6-1.7-9-4-12.9
	c-5.7,5.7-4.7,15.3,1,20.1C196.5,118.6,197.4,116.8,198.2,115.1L198.2,115.1z"/>
<path d="M98.3,57.4c-0.7-1-1.3-2-1.7-3.1c-1.7-5.8-3.4-11.6-5-17.5c1.5-0.4,1.8,0.6,2.1,1.5c1.3,3.5,2.6,7,3.8,10.5
	c0.7,2,1.2,4.1,1.8,6.2C99.7,56,99.3,57,98.3,57.4C98.4,57.4,98.4,57.4,98.3,57.4z"/>
<path d="M331.4,55.4c-2.9,2.7-6.3,3.8-10.1,4.4c-3.2,0.5-6.5,0.9-9.7,1.3c-3.8,0.5-7.6,0.8-11.3,1.2c-2.6,0.2-5.2,0.1-7.8,0.5
	c-4.9,0.8-9.8,1.7-14.7,2.8c-3.7,0.8-7.4,1.9-11.1,2.8c-4.3,1-8.4,2.9-11.9,5.7c-2.9,2.3-5.4,5-7.5,8c-1.5,2.1-2.8,4.4-4,6.7
	c-3,6.1-3.7,12.8-5.1,19.3c-0.8,3.6-1.1,7.2-1.7,10.8c-0.7,4.3-2,8.4-2.9,12.5c-1.4,6.5-3.5,12.7-5.2,19.1c-0.5,1.9-1.1,3.7-1.5,5.4
	c2.7,0.7,5.2,1.3,7.8,1.9c0.6-1.7,1-3.2,1.7-4.5c0.8-1.7,1.8-3.4,2.7-5.1c2-4.1,4.4-7.9,7.1-11.6c3.8-4.9,8-9.5,12.4-13.8
	c2.2-2.2,4.2-4.5,6.3-6.8c2,1.2,2.1,1.5,1.2,3.4c-0.2,0.4-0.4,0.9-0.7,1.2c-1.5,1.7-3,3.5-4.6,5.2c-1.4,1.5-2.8,2.9-4.6,4.6
	l-0.2,2.9c-0.3-0.1-0.6-0.3-0.9-0.5c-0.7-0.5-1.4,0.1-1.8,0.6c-4.2,5.1-8.5,10.1-10.9,16.4c-0.6,1.5-1.3,2.9-2.1,4.3
	c-1,1.7-1.6,3.7-1.7,5.7c-0.1,0.9,0.2,1.9,0.8,2.6c1.1,1.3,2.3,2.6,3.5,4c0.3,0.4,0.7,1.2,0.5,1.6c-0.4,0.5-0.9,0.7-1.5,0.7
	c-1.3-0.1-2.6-0.3-4.1-0.5c0.1,0.8,0.1,1.7,0,2.5c-0.2,1.2-1,1.9-2,1.4c-4.1-2-8.5-3.7-11.2-7.7c-1.9-2.5-2.3-5.8-1.3-8.8
	c2.3-7,4.3-14,6.2-21.1c2.5-8.8,4.3-17.8,5.6-26.9c0.3-3.9,1-7.7,2.1-11.5c1.8-5.5,3.5-11.1,7.2-15.8c0.7-0.9,1.3-2,2-2.9
	c3-3.6,6.5-6.7,10.4-9.2c1.5-1,3.2-1.7,5-2.2c6.1-1.6,12.3-2.9,18.3-4.5c7.1-1.9,14.3-2.3,21.5-2.7c3.9-0.2,7.7-0.9,11.6-1.4
	c3.5-0.5,7-0.8,10.4-1.5c1.5-0.4,3-1,4.4-1.8c1.5-0.6,3.1-1.2,4.6-1.9l0.2-0.1l0.9,1.9C332.7,54.4,332,54.9,331.4,55.4z"/>
<path d="M82.1,61.4c0.3,0.5,0.7,1.1,1,1.6c1.2,2,1.2,2-0.9,4c-0.5-0.7-1-1.4-1.4-2.1c-1.2-2.3-2.4-4.7-3.4-7
	c-0.6-1.6-0.6-3.3-0.1-4.9c0.2-0.6,0.6-1.1,1-1.6l0.5,0.1c0.3,1.1,0.5,2.2,0.7,3.3C79.8,57.2,80.7,59.5,82.1,61.4z"/>
<path d="M142,171.1c1.2,3.1,1.1,6.4,1,9.7c-0.1,2.8,0.9,4.9,3.5,6.2c0.8,0.4,1.5,0.9,2.1,1.5c0.9,0.7,1,2,0.4,2.9
	c-0.6-0.1-1.2-0.3-1.8-0.4c-0.3,0.6-0.6,1.1-0.7,1.3c-2.4,0.2-4.5,0.4-6.7,0.4c-0.8,0.1-1.6-0.1-2.3-0.6c-1.5-1.5-3.3-2.9-3.4-5.2
	c-0.1-1.1-0.5-2.2-1.2-3c-4.9-6.3-7.8-13.6-10.5-21.1c-0.3-0.9-0.6-1.8-0.9-2.7l2.1-0.6l0.2,0.7c2.2,5.9,4.7,11.7,7.5,17.3
	c1.5,2.8,5,3.8,7.8,2.3c0.5-0.3,0.9-0.9,1-1.5c0.4-1.9,0.3-3.8-0.4-5.6c-0.8-1.9-0.9-4.1-0.4-6.1c0.4-1.7,0.7-3.4,0.8-5.2
	c0.3-3.6,0.7-7.1,2.2-10.5c0.6-0.9,0.3-2.2-0.6-2.8c-0.1,0-0.1-0.1-0.2-0.1l5.8-2.5c-1.8-1.2-3.3-2.4-5-3.4
	c-1.2-0.7-2.7-0.7-3.7-1.5c-2.7-1.8-5.7-3.1-8.9-3.9c-6.1-1.9-9.5-6.3-11.7-12c-0.2-0.6-0.5-1.2-0.8-1.7c-1.6-2.8-2.5-5.9-2.6-9.1
	c0-4.7-0.3-9.4-0.9-14.1c-0.2-1,0.3-2,1.2-2.4c0.5,0.8,0.8,1.7,1.1,2.7c0.4,3,0.8,6,1,9c0.2,3.7-0.3,7.5,1.4,11
	c0.8,1.6,1.4,3.2,2.1,4.8c1.7,3.9,5,7,9,8.4c4.5,1.7,8.8,3.6,13.2,5.5c0.4,0.2,0.9,0.4,1.3,0.7c2.8,2.4,5.5,4.9,8.3,7.2
	c3.4,2.9,6.1,6.4,8,10.3c0.2,0.3,0.3,0.6,0.5,0.9L159,159c-1.1-1.9-2.2-3.8-3.4-5.7c-0.3-0.5-0.7-1-1.2-1.5c-1.7-1.5-3.5-3-5.5-4.6
	c0.2,1-0.5,2-1.5,2.2c0,0-0.1,0-0.1,0c-0.9,0.2-1.7,1.4-2.2,2.3c-1.2,2.6-1.9,5.4-2,8.3c-0.4,3.1-0.8,6.2-1.1,9.2
	C141.8,169.9,141.9,170.5,142,171.1z"/>
<path d="M18.3,170c-1.3-0.4-1.3-0.4-1.4,0.6L18.3,170z M19.3,167.8c0.9,0.2,1.9,0,2.7-0.4c1.9-1.8,3.7-3.7,5.5-5.6
	c1-1.1,1.8-2.4,2.9-3.5c2.7-2.9,5-6.1,6.8-9.5c1.4-2.3,3.8-3.6,5.6-5.5c0.9-0.9,1.7,0.2,2.4-0.1c2.2-0.8,4.5-1,6.8-0.8l-0.2,2.5
	c-1.2,0-2.3,0.1-3.5,0.4c-1.8,0.4-3.5,1-5.2,1.7c-1.2,0.6-2.2,1.5-3,2.6c-1.6,2-2.8,4.3-4.4,6.2c-3.3,4.1-6.7,8.1-10.1,12
	c-1.4,1.5-2.5,3.3-3.4,5.1c-1,2-2.2,3.9-3.5,5.7c-0.6,0.9-1.2,1.7-1.8,2.5c-1,1.5-1.1,1.5-2.6,0.7c-0.7-0.4-1.3-0.9-1.9-1.3
	c-1.8,0.5-3.5,1.1-5.2,1.5c-1.3,0.4-2.7,0.2-3.4-1.1s-1.4-2.8-0.4-4.5s1.6-3.7,2.7-5.4c2.4-4.2,4.2-8.8,5.3-13.5
	c1.6-5.8,3.6-11.4,5.9-16.9c0.7-1.9,1.2-3.8,1.7-5.7l1.5-5.4l2.7,0.7c-0.3,1.2-0.6,2.3-0.8,3.5c-0.7,4.1-1.9,8-3.6,11.8
	c-2.6,5.8-3.9,11.9-5.5,18c0,0.1,0.1,0.3,0,0.1c1.5,1.1,2.8,2,4.1,2.9C17.8,167.2,18.5,167.6,19.3,167.8L19.3,167.8z"/>
<path d="M448.4,52c-7.3,2.7-14.7,5.5-22.1,8.3c-0.9,0.3-1.8,0.8-2.7,0.2c-0.5-1.3,0.5-1.6,1.3-1.9c5-2,10.1-3.9,15.1-5.8
	c2.4-0.9,4.9-2,7.3-2.9c1-0.3,2-0.4,3-0.5C450,51,449.4,51.6,448.4,52z"/>
<linearGradient id="SVGID_6_" gradientUnits="userSpaceOnUse" x1="181.6426" y1="-3.9154" x2="195.6485" y2="-3.9154" gradientTransform="matrix(6.123234e-17 -1 -1 -6.123234e-17 176.7648 315.2126)">
	<stop  offset="0" style="stop-color:#FFFFFF"/>
	<stop  offset="1" style="stop-color:#000000"/>
</linearGradient>
<path class="st9" d="M183.5,124.8c-0.4,3.2-1.7,6.3-3.7,8.8l-1.5-2.3c0.3-0.4,0.6-0.9,0.7-1.5c1-3.5,0.2-6.6-1.5-9.9
	c2.5-1.2,4.1,1.1,6.3,1.2C183.8,122.3,183.7,123.6,183.5,124.8z"/>
<path class="st0" d="M166.5,119.9L166.5,119.9L166.5,119.9z"/>
<path d="M166.3,119.9h0.2l0,0H166.3C166.3,119.9,166.3,119.9,166.3,119.9z"/>
<path d="M184.7,21.3c0.3,4.3-0.9,8.6-3.5,12.1c-0.9-0.8-0.7-1.8-0.4-2.8c0.8-2.6,1.6-5.1,2.5-7.7c0.3-0.7,0.6-1.3,1-1.9L184.7,21.3z
	"/>
<path d="M163.3,90.8c0.1,2.8-1.7,5.3-4.4,6.1c-0.5,0.2-1,0.4-1.5,0.6c-3.1,1.8-6.1,1.3-9.1-0.4c-0.6-0.4-1.2-0.7-1.9-1
	c-2.6-0.9-4.1-3.7-3.3-6.4c0.8-3.3,1.9-6.6,3.2-9.7c0.8-2.1,1.2-2,3.5-1.7c4.8,0.7,8.2,3.7,11.3,7C162.5,86.8,163.3,88.8,163.3,90.8
	z M155.3,94.5c-1.1-3.8,1.7-4.9,4.2-6.7c-2.5-2.8-5-5.2-8.7-6c-2.1-0.5-2.7-0.2-3.4,1.8c-0.7,2.2-1.3,4.4-2,6.6
	c-0.4,0.8-0.1,1.8,0.7,2.2c0.1,0,0.2,0.1,0.2,0.1c1.8,0.8,3.6,1.7,5.5,2.3C153,95.3,154.2,95.1,155.3,94.5z"/>
<linearGradient id="SVGID_7_" gradientUnits="userSpaceOnUse" x1="147.7326" y1="-12.5328" x2="178.8526" y2="-12.5328" gradientTransform="matrix(6.123234e-17 -1 -1 -6.123234e-17 176.7648 315.2126)">
	<stop  offset="0" style="stop-color:#FFFFFF"/>
	<stop  offset="1" style="stop-color:#000000"/>
</linearGradient>
<path class="st10" d="M199.8,161.3c0.6,0.6,1.2,1.3,2.1,2.2l-5.1,3.9c-2.9-1.5-5.4-3-7.3-5.3c-1.4-1.7-2.7-3.5-4.2-5.1
	c-2.1-2.2-4.3-4.3-6.6-6.2c-1-0.7-1.7-1.9-1.7-3.2c-0.1-0.8-0.2-1.6-0.4-2.4l0-0.4c-0.1-1.3,0.3-2.6,1.3-3.5
	c1.3-1.5,2.3-3.2,3.5-4.9c1.4,1.7,2.6,3.4,4,4.9c2.9,3.4,5.4,7.1,7.4,11.1l0.1,0.2C194.5,156,197.2,158.7,199.8,161.3z"/>
<path d="M350.4,21.8c1,1.8,2.3,3.5,3.4,5.2h3.2c-1.6,1.7-3.6,1.3-4.7,2.4c-1.3-0.6-2.3-1.6-2.8-2.9l-9.4-18.2
	c-0.3-0.6-0.5-1.3-0.7-1.9c1.3-0.2,2.5,0.5,3.1,1.6C345.1,12.6,347.7,17.3,350.4,21.8z"/>
<path d="M-154.6-429.6h14.4c-0.4,0.2-0.9,0.3-1.3,0.4c-3.9,0-7.8,0-11.8,0C-153.7-429.3-154.2-429.4-154.6-429.6z"/>
</svg>
