<?xml version="1.0" encoding="utf-8"?>
<!-- Generator: Adobe Illustrator 22.1.0, SVG Export Plug-In . SVG Version: 6.00 Build 0)  -->
<svg version="1.1" id="Calque_1" xmlns="http://www.w3.org/2000/svg" xmlns:xlink="http://www.w3.org/1999/xlink" x="0px" y="0px"
	 viewBox="0 0 798.6 749.9" style="enable-background:new 0 0 798.6 749.9;" xml:space="preserve">
<style type="text/css">
	.st0{fill:#FDF1BA;}
	.st1{fill:#FF0000;}
	.st2{fill:#FFFFFF;}
	.st3{fill:#998675;}
	.st4{fill:#754C24;}
	.st5{fill:url(#SVGID_1_);}
	.st6{fill:url(#SVGID_2_);}
	.st7{fill:#39B54A;}
	.st8{fill:#603813;}
	.st9{fill:#006837;}
	.st10{fill:url(#SVGID_3_);}
	.st11{fill:url(#SVGID_4_);}
	.st12{fill:#736357;}
	.st13{fill:#A67C52;}
	.st14{fill:#ED1E79;}
	.st15{fill:#FFFF00;}
</style>
<title>astérix et idéfix</title>
<path d="M297.8,471.4c5.2-5,10.1-10.4,15.8-14.9c6-4.7,12.7-8.5,19.1-12.5c1.6-1.1,3.4-1.9,5.3-2.1c2.8-0.1,6.5-0.4,8.3,1.2
	c2.8,2.3,2,6.2-0.1,8.9c-3.6,4.7-7.6,9.2-11.8,13.4c-3.9,3.8-8.4,6.9-12.5,10.2c0.1,0.7,0.1,1.5,0.4,1.6c7.4,3.5,10.1,9.2,9,17.2
	c-0.4,2.9,0.3,6,0.7,8.9c0.8,5.2,1,10.1-2.1,14.9c-1.5,2.3-1.8,5.6-1.8,8.5c-0.1,12.2-8.7,21.7-21.2,22.7
	c-7.7,0.7-15.4,0.2-22.6-2.9c-9.8-4.1-19.5-8.3-29-13c-12.1-6-25.1-8.5-38.3-10.8c-1.6,14.6,15.3,98.7,21.5,108.8
	c6.7-1.7,13.3-4.6,19.8-4.5c7.9,0,15.3,0.2,22.6-3.6c4.3-2.1,9.5-1.5,13.2,1.7c3.6,3.1,7.4,2.8,11.5,2.9c3,0,5.9,0.7,8.5,1.9
	c4.5,2.4,4.7,5.2,1.5,9.3c-5.7,7.5-14.4,10.6-22.2,15c-3.8,2.1-7.6,4.1-13.1,7c3.7,0.8,5.6,1.2,7.5,1.6c5.1,1,10.2,1.7,15.2,3
	c3.4,0.9,6.8,2.6,7,7c0.2,4.1-1.4,7.9-5,9.7c-3.3,1.7-7.1,2.5-10.8,3.1c-1.8,0.3-3.8-0.5-5.6-1c-8.7-2.5-17.4-4-26.5-2.4
	c-3.7,0.6-7.6,0.1-11.5,0.2c-2.2,0-4.6-0.5-6.5,0.3c-10.1,4.6-19.8,1.5-29.5-1.4c-1.8-0.5-3.5-1.2-6.7-2.3
	c3.8,8.1,5.4,15.4,13.8,19.1c7.8,3.5,13.8,9.7,18,17.4c6.4,11.8,2.2,23.9-10,29.2c-8.6,3.6-17.8,5.3-27.1,5.2
	c-19.7,0.2-38.5-3.7-56.8-10.4c-14.1-5.3-26.8-13.1-37.2-24.5c-5.4-5.9-7.3-13.3-11.3-19.7c-0.7-1.1,0-3.1,0.2-4.7
	c0.2-2.6,0.4-5.3,0.7-8.8c-4.7,1.6-8.3,2.7-11.8,4.1c-15.1,6-30.5,7.9-46.5,4.9c-11.8-2.2-21.7-7.1-26.9-18.9
	c-1.5-3.5-3.7-6.7-5.1-10.2c-3.4-8.4-1.7-15.1,6.3-19.4c6.4-3.4,13.6-5.6,20.6-7.7c8.6-2.5,17.5-3.9,25.4-8.5
	c4.7-2.7,7.7-5.9,8-11.3c0.2-1.4,0.5-2.8,0.9-4.2c-2.4-0.6-4.7-1.3-7.1-1.8c-9.7-2.1-18.6-5.6-26.3-12.5
	c-5.2-4.7-11.8-7.9-17.8-11.5c-1.5-0.7-3-1.1-4.6-1.3c-1.9-0.3-3.7-0.7-5.6-1.2c-8.9-3.1-10.3-8.6-3.9-16.2c-0.8-2.9-1.8-6-2.6-9.1
	c-1.9-8-0.8-16,2-23.4c4.3-11.5,9.2-22.8,18.2-31.7c2.1-2.1,3.5-4.7,4-7.6c2.7-18.8,8.5-36.6,15.2-54.2c2.2-5.9,4.3-11.8,6.1-17.8
	C51.5,407,58,392.5,66.2,379c5.3-8.9,9.4-18.5,14.6-27.4c10.3-17.4,22.5-33.7,36.2-48.6c0.3-0.3,0.6-0.7,0.8-1.2L99.8,266
	c-5.6,9.5-3.6,20.1-0.5,31c-6.1-3-7-5.6-10.9-23.4c-1.9-8.7-1.3-17.1,0.9-26.7l-14.2,9.2c0.7-7.5,5.3-11.3,8.4-15.6
	s6.9-8.3,11.4-13.6L74,229.1c6.8-13.1,20.8-10.4,32.8-16.1l-19.7-6.9c12.4-3.8,23.4,1.1,34.8,4.4c1.3-12.9,3.8-24.9,10.4-35.6
	l2.1,0.3c0.3,1.6,0.5,3.2,0.4,4.9c-0.5,5.4-1.4,10.8-1.8,16.2c-0.1,2,0.9,4,1.8,6c2.1-20.1,10.6-37.7,21-54.9
	c-9,0-17.9,0.3-26.6-0.1c-7.3-0.2-14.6-0.9-21.8-2.1c-5.9-1.1-7.4-4.3-7-11.3c-6-1.1-12.2-1.6-18-3.4c-9.1-2.7-18-6.2-26.9-9.5
	c-1.7-0.8-3.2-2-4.2-3.6c-2.4-3.5-1.4-6.5,2.7-7.5c3.6-0.9,7.4-0.8,12.6-1.3c-5.1-2.7-9.3-4.4-13-7c-5.6-3.8-10.8-8.2-16.1-12.4
	c-2.2-1.7-4.4-3.8-2.6-6.9c1.6-2.8,4.3-2.9,7.2-1.9c0.9,0.3,2.1,0.1,3.8,0.1c-5-4.6-9.9-8.8-14.4-13.4c-2.8-2.9-5.2-6.3-7-9.9
	c-1.7-3.6,0.1-6.2,4-5.9c5.4,0.4,10.8,1.4,16,2.8c6.1,1.6,12,3.6,17.8,6.1c19.9,8.6,41,10.9,62.3,12.7c5.1,0.5,10.3,0.7,15.4,0.7
	c4.9-0.1,9.7-0.8,16.2-1.3c-4.3-2-7.4-3.3-10.4-4.8c-3-1.4-5.8-3-8.5-4.9c-5.1-3.8-4.7-6,1.3-9c0.6-0.3,1.2-0.7,1.7-1.1
	c-5.6-4.3-11.5-8.7-17.2-13.2c-1.5-1.1-2.8-2.6-3.8-4.2c-2.3-4.1-1.5-6.2,3.5-10.4L111.2,8.4c3-3.9,6.2-5,10.3-3.4
	c4.3,1.7,8.8,3,12.9,5c10.8,5.2,21.5,10.6,32.1,16.2c10.1,5.3,21.2,6.8,32,9.5c11.9,2.9,23.7,6.4,35.3,10.5
	c17.1,6.3,26.2,20.3,29.8,37.3c3.5,16.6-3.6,29.9-18.5,38.1c-0.8,0.5-1.5,1-2.2,1.6c16.6,8,29.7,19.5,38.9,36.7
	c7-18.2,13.5-35.5,28.7-47.3c-7,10.1-15.5,19.4-19,33.5c11-10.3,19.2-21.6,32.9-25.9c-4.7,3.9-9.4,7.7-14,11.7
	c-8.4,7-15.6,15.3-21.3,24.6c-1.4,2.3-1.9,4.1-1,6.8c1,3.4,1.6,6.9,1.7,10.4c0.3,2.2,0,4.3-0.9,6.4c-9.3,18.8-4.3,37.1,1.4,55.4
	c1.7,5.3,6.2,8.2,11.1,10.3c4.3,1.9,8.7,3.4,13.1,4.5c22.3,5.2,31.3,37.5,18.5,54.1c-4.1,5.4-9.2,10.1-15,13.7
	c-11,6.6-23,11.9-36.3,9.6c-5.8-1-11.2-3.9-16.2-5.6l-23.9,30.9l9.4,5.6c-3.5,5.2-6.3,9.9-9.5,14.1c-4.5,5.9-7.8,6.7-15,3.9
	c-3-1.2-6-2.6-9.1-4c-2.1,1.8-4.3,3.5-6.4,5.2c-4.7,4-6.4,8.3-5.4,15c1.8,12.4,1.4,25,2.5,37.5c1.5,16.6,3.5,33.1,5.3,49.6
	c0.4,3.3,1.8,5.2,5.6,5.7c8.4,1,16.6,2.7,25,4.1c4.1,0.7,7.2-0.5,9.9-4c4.3-5.6,9.1-10.9,14.3-15.6c7.3-6.3,16.2-5.9,24.9-3.5
	C295,467.1,296.3,469.8,297.8,471.4c-13.3-6.9-21.5-5.7-32.2,5c-2.7,2.7-5.6,5.4-7.4,8.6c-4.1,7.3-10.4,9.2-18,7.8
	c-15.8-2.9-31.6-5.9-47.3-9.1c-13.1-2.7-26-6.2-39.6-3.5c-0.4,0.1-0.9-0.5-1.6-1c3.9-4.7,10.4-1.8,13.9-4.2
	c-0.6-10.8-1.6-20.9-1.6-30.9c0.2-19.9,1-39.8,1.5-59.7c0.3-10.7-0.3-21.3-3.3-31.6c-2.4-8.2-5.9-15.9-14.3-20
	c-7-3.4-12.4-1.6-15.1,5.6c-2.3,6.1-4.6,12.5-5.3,18.9c-2.4,22.2-4.6,44.5-6,66.8c-0.7,11.7,0,23.5,1,35.2c1.1,13,3.1,26,8.5,38.2
	c5.3,12.2,13.7,19,27.7,19c13.3,0,26.7,1.4,40,1.4c18,0.1,35.9,3.5,52.7,10.1c8.6,3.3,16.8,7.9,25.2,11.7c9.3,4.2,18.9,7.1,29.3,6.2
	c8.7-0.7,16.5-4.8,17.7-13.2s4.1-16.5,4.8-24.9c0.5-5.6-0.4-11.4-0.7-17.1c-0.3-4.5-2.3-7.7-6.7-9.3c-1.9-0.7-3.7-1.7-6.2-2.9
	l23-20.9l-9.6-7.1c-10.5,7-21.4,14.2-30.3,24c-2.9,3.2-5.9,6.4-9,9.5c-0.9,0.8-2.4,1-3.6,1.4l-1.1-1.6L297.8,471.4z M136.3,622.3
	c0.5-3.1,1-6.3,1.7-10.8c-5.1,4.5-1.3,7.8-1.6,11.1c-2.5-1-5.1-1.5-5.7-4.9c-1.3-7.2,5.3-8.6,9-12.3c-1.7-4.9-3.3-9.4-8.3-11.4
	c-15,10.3-16.3,40.2-2.1,53.4C133.2,639.3,134.7,630.8,136.3,622.3z M309.3,635.1c-1.2,0.2-3,1-3.6,0.4c-5.2-4.2-10.7-3.2-16.2-1.4
	c-3.9,1.2-7.6,2.8-11.5,3.9c-1.2,0.3-2.6-0.1-5.4-0.3c6.2-5.7,13.3-5.8,19.7-9.2c-4.3-3.4-8.3-2.7-12-1c-6.3,3-12.5,6.4-18.6,10
	c-3,1.7-5.8,2.5-9,1.5h0.1l9.4-7.2c-10.2-1.7-15.2-0.2-21.2,5.8l9.2,16.9c-2.9-0.8-5-0.8-5.5-1.6c-3.8-7.2-8.5-14.3-10.7-22
	c-5.5-20.2-10.1-40.7-14.4-61.2c-2.9-13.9-4.6-28-6.9-42c-1-6.3-1.6-6.7-7.7-4.4c3.2,9.3,4.1,19.3,2.6,29
	c-1.2,8.3-2.9,16.5-5.2,24.6c-1.3,4.5-0.3,7.5,1.8,11.4c6.9,12.7,13.5,25.6,19.5,38.7c4.4,9.5,6.4,19.8,5.9,30.2
	c-0.3,5.2-1.6,9.6-5.8,12.8c-2.9,2.2-5.7,4.4-8.8,6.8c10.9,4.4,15.1,4.9,24,3c-7.2-6.1-7.2-6.1-6.6-10.3c8.4,8.3,18.8,10.5,29.6,8.9
	c10.6-1.5,20.5,0.2,30.6,3c0.6,0.1,1.2,0.1,1.8,0c-1.2-3.1-4.6-6.3,0.5-8.9c0.1,6.6,0.1,6.6,6.2,7c0.8-6.7,0.6-6.9-6.5-6.8l7.4-3.9
	c-14-3.1-27.6-3-40-8.7c2.7-1,5.2-0.7,7.7-0.6c2.1,0.1,4.5,0.5,6.2-0.3c9.8-5.3,19.6-10.9,29.2-16.6c2.7-1.6,4.8-4.3,8.2-7.5
	c-2.7,0-3.5,0-4.3,0l2.2-3.6l-7.4,0.5L309.3,635.1z M179.7,260.9l-1.9-0.2c-0.7-5-1.3-10-2.1-15c-1.5-9.6-1.7-10-5.1-14.2
	c-2.6,20.4-3.3,22.4-8.3,24.5c0-4.3,0.2-8.4-0.1-12.4s-1-8.1-1.6-12.1c-1.9-12.2-14.5-18.3-25.3-12.4c-6.6,3.6-9.2,9.9-11.1,16.5
	c-2.6,8.9,3,19.1,11.9,21.1c7.2,1.6,14.6,2.1,22.1,3.2c-0.1-0.3,0.1,0,0.1,0.2c0,0.5-0.2,1.1-0.3,1.6c-1.6,14.1-0.5,27.7,11.4,37.3
	c8.9,7.2,14.5,16.1,17.9,26.8c1.9,6,4.5,11.7,7.1,18.2c3.9-8.6,6.5-16.8,11-23.7c4.6-7.1,11-13.1,16.7-19.6l-17-4.6l-2.7,7.2
	c-2.8-7.1,0-13.1,7.4-17.8c0.2-0.1,0.9,0.4,1.7,0.9l-2.6,5.7c4.6,3.6,10.6,5.2,16.4,4.4c11.4-1.6,16.5-7.7,13.6-18.4
	c-3.3-11.9-11.4-18.9-23.6-21c-1.8-0.3-3.5-0.9-5.3-1.4c0.1-0.8,0.3-1.5,0.4-2.3l13.1,0.9c-1-2.9-1.9-5.7-2.9-8.6
	c2.1-0.2,3.2,0.2,3.7,0.9c3.6,5.4,6.4,11.6,10.8,16.2c7.2,7.5,9.4,16.2,7.1,25.6c-1.4,6,0.6,9.7,4.1,13.7
	c8.1,9.4,19.1,14.3,29.9,19.6c7.1,3.4,14.3,3.6,21.6,1.7c5.5-1.5,11.2-3.3,16-6.2c12.5-7.6,23.2-16.9,21.1-33.9
	c-1.8-14.2-8.3-24.6-22.4-29.3c-3.6-1.2-7.2-2.6-10.8-3.8c-8.4-2.6-14.4-7.9-16.5-16.5c-1.9-7.1-3.4-14.3-4.2-21.6
	c-0.7-7.4-0.2-15-0.2-23.3c-12.5,5.2-25.2,3.6-36.3,10.3c-10.6,6.4-20.5,13.1-26.5,24.4c-3-3.4-2.9-3.4,1.8-18.7
	c2-6.6,4-13.2,6.1-20.3c-11.9,0.9-21.2,6.6-30.5,11.6c0.4,9.2,1,17.9,1,26.5s0.4,17.6-4,26c-3.6-8.7-1.8-18.8-8.7-27.9
	c0,8,0.4,14.7-0.1,21.4C182.9,248.5,182.8,255.1,179.7,260.9z M112.7,513.9c-0.5,8.7-0.5,16.5-1.5,24.3
	c-2.6,20.3-9.2,38.7-25.6,52.3c-1.6,1.3-2.7,3.3-3.9,5.1c-3,4.3-8.4,7-12.6,4.5c-7.3-4.3-14.5-0.7-21.7-1c10.6,6.3,22,8.9,34.1,6.7
	c11.4-2.1,21.7-7.2,31.4-13.5c10.3-6.6,20.6-13.4,32.8-16.2c2.4-0.5,4.5-1.4,7.1,1.8c-7.6,3.6-16.2,3-22.3,9.3l8.8,7
	c0.6-3.7,1.1-6.3,1.9-10.7c1.6,2.5,2.9,3.7,2.9,4.8c-0.1,6.8-0.1,13.7-1.1,20.4c-2.8,19.5-8.7,38.2-14.7,56.9
	c-0.5,1.9-0.8,3.8-1,5.7c12.1,6.4,24.4,7.8,37.3,5.6c2.5-8,4.7-15.5,7.1-23c3.5-10.9,6.4-22.1,10.9-32.6c9-20.9,16.2-42.3,20-64.6
	c1.5-9.2,0.4-19.1-0.5-28.5c-0.6-6-1.9-6.2-8.2-6.6c-13.6-0.7-27.2-1.5-40.9-2.3c-5.8-0.3-11.4-1.9-15.6-6
	c-3.6-3.5-7.8-3.9-12.1-3.1C120.9,511.1,116.5,512.7,112.7,513.9L112.7,513.9z M191.8,136.3c-1.9,1.7-2.2,2.3-2.6,2.4
	c-11,0.2-21.7-0.9-32.1-4.6c-3-0.9-6.2-1.4-9.4-1.3c-3-0.1-6,0.7-8.9,0.8c-9,0.2-18.1,0.3-27.1,0.4c-3.3,0-6.8-0.4-8.4,4.8
	c2.2,1.4,4.4,3.7,7.1,4.2c5.6,1.1,11.3,1.7,17.1,1.7c10.1-0.1,20.1-1.3,30.2-1.2c7,0.1,14,1.7,21,2.5c2.3,0.3,4.6,0.6,6.9,0.6
	c4,0.1,8.2-0.7,11.9,0.2s6.5,0.5,8.7-2.3c2.1-2.5,3.8-5.2,5.2-8.1c3.2-7.2,2.7-14.8,2.1-22.4c-0.6-10.2-5.8-19.7-14-25.7
	c-11.1-8.5-24-11.4-37.6-11.6c-9.3-0.2-18.6,1.5-27.8,0.8c-24.2-1.9-48.4-4.3-71.4-13.3c-8.1-3.2-16.5-5.8-24.9-8.3
	c-2.9-0.9-6-2.1-9.3-0.5C34.4,67.4,44,75.1,55,81.5c8.4,5,18.2,5.2,27.3,7.7c21.3,5.8,43.4,3.6,65.1,4.7c7.8,0.4,15.7-0.2,23.4,0.7
	c7,0.8,13.8,3,20.6,4.8c2.1,0.6,4,1.8,3.3,4.8c-10.5-5.2-22.1-7.6-33.8-7c-4,0.2-8.1,0.6-10.6,4.8c1.9,3.8,5.2,5.1,8.8,5.5
	c11.4,1.1,22.8,2,34.2,3.1c1.6,0.2,3.1,0.5,4.7,0.9c-9.3,3-18.4,2.7-27.5,1.4c-11.1-1.7-22-1.9-33.9,4.9c3.6,1.3,5.6,2.5,7.7,2.8
	c15.6,2.6,31.3,4.6,47,0.9c2-0.5,4.2-1.9,5.4,2c-2.1,0.6-4.2,1.1-6.3,1.4c-7.9,0.7-15.8,1.2-23.6,1.7c-2.9,0.2-6.1-0.4-8,4.7
	C169.1,134.7,179.8,135.7,191.8,136.3L191.8,136.3z M157.3,217.7c1.6-1,3.2-2,4.7-3.2c11.1-9.5,23.7-16.4,36.3-23.6
	c13.5-7.8,29.8-9.1,42.6-18.4c0.5-0.3,1-0.5,1.5-0.6c6.9-1.4,13.9-2.7,20.8-4.1c5.2-1,10.4-2.1,15.7-3.2
	c-7.6-21.4-43-46.5-60.4-43.3c-0.8,12.1-4.8,22.7-15.4,29.6c2.1,8.9,1.3,14.1-3,17c-4.7,3.3-10,4.6-15.5,1.8
	c-8.4-4.4-6.9-11.9-5.5-19.3c-2.9-1.2-5.3-2.6-7.9-3.2c-5.1-1.2-9.7-1.4-13.4,4.1c-7.1,10.6-12.4,22.3-15.8,34.7
	c-2.5,9.1-3.3,18.4-4.5,28.7C145.5,211.2,151.1,215.6,157.3,217.7L157.3,217.7z M108.1,707.1c2.4,3,3.7,5.1,5.3,6.8
	c13.4,14.5,30.6,22.4,49.3,27.1c7.9,2,15.9,3.9,23.9,4.5c13.5,0.9,26.9,2.2,40.3-3.1c11.4-4.5,15.8-14.6,9.2-26.3
	c-4.2-7.4-11.1-11.8-18-16.1c-1.4-0.8-4-1.2-5.2-0.4c-4,2.6-7.9,1.4-11.8,0.2c-7.6-2.3-15-5-23.1-4.1c-5.1,0.6-10.3,0.9-15.4,1.8
	c-6.4,1.2-13.6,1.4-18.8,4.6C132.9,708.9,122,712.5,108.1,707.1L108.1,707.1z M11.2,661c2.4,4.2,4.6,7.6,6.4,11.2
	c2.6,5.1,6.9,9.3,12.1,11.7c11.5,5.7,23.8,6.3,35.9,3.9c11.4-2.2,22.4-6.2,33.3-9.3c1-3.9,2-6.7,2.3-9.7c1-8.8,6.8-13.3,14.1-16.4
	c2.6-1.1,5.5-1.9,7.2-2.5c-2.5-6.9-4.3-13.4-7.2-19.5s-8.5-11-9.8-18.7c6.1,0,4.3,6.8,8.6,8.3c1.6-11,4.1-21.7,12.7-30
	c-9.3,2.7-16.6,9.1-25,12.7c-8.9,3.8-18.4,6.2-28.4,9.5c-2.7,6.9-3,14.5-1,21.5c2.2,7.3,6.6,14,10.5,22
	c-11.1,3.8-22.2,8.4-33.7,11.1C36.4,670,24.1,664.8,11.2,661L11.2,661z M119.1,7.8l-1,1.9c6.7,11.6,16.7,20.2,28.1,26.5
	c14.8,8.2,30.6,14.5,47,18.8c12.4,3.1,25.8,2.8,37,10.6c4.5,3.1,9.8,4.8,14.4,7.7c2.4,1.5,5.8,3.3,4.1,7.6
	c-11.5-9.5-19.4-13.3-25-12.2c6.1,11.3,16.8,17.7,27.1,24.8c-15.5-4.6-26.9-18.5-44.3-17.9C218,86,232,92.5,244.9,100.8
	c-1.7,0.6-3.3,0.9-4.5,0.3c-5-2.1-9.9-4.6-14.9-6.7c-2.8-1.1-5.7-1.9-8.6-2.4c-1.1-0.2-3.1,0.5-3.4,1.2c-0.4,1.3-0.3,3.4,0.6,4.4
	c1.4,1.6,3.5,2.5,5.4,3.6c4.1,2.4,8.2,4.7,13.4,7.6c-4.2,1.6-6.2-0.7-8.5-1.6c-2.4-1-4.8-2.1-8-3.5c0.8,4.9,1.4,8.8,1.9,11.7
	c5.6,1.5,10.3,2.8,15,4c1.8,0.6,3.7,0.8,5.5,0.6c11.2-2.3,21.2-14.2,21.8-25.7c0.9-17.2-12-38.4-28.1-44.5
	c-10.9-4.1-22.4-6.9-33.6-10.1c-9.7-2.7-19.9-4-29.1-7.9c-13.8-5.8-26.9-13.2-40.3-19.8C126,10.4,122.5,9.2,119.1,7.8z M180.3,476.5
	c10,2.9,19.1,6.2,29.1,6.5c0.1-2.6,0.1-5.3,0-7.9c-1.4-13-3.2-25.9-4.4-38.9c-1-11.4-1.3-22.9-2.1-34.3c-0.3-3.6-1-7.1-1.6-11
	c-7.3,5.1-6.7,13.3-11,20.8c0-8-0.2-14.1,0-20.1c0.3-9.8-0.3-19.8,1.7-29.3c2.2-10.7-3-18.8-6.1-29.3c-1,3.4-1.9,5.4-2.3,7.5
	c-3.6,17.9-7.1,35.7-10.6,53.6c-0.7,3.2-1,6.4-0.8,9.7c0.9,12.8,1.9,25.5,3.3,38.3C176.7,453.4,178.6,465,180.3,476.5L180.3,476.5z
	 M234.3,296.8c-2.6,1.8-6,4-9.1,6.5c-10.2,8.1-18.9,17.5-22.7,30.2c-2.7,9.1-5.6,18.3-6.9,27.7c-1.5,10-1.2,20.1-1.7,30.1
	c8.8-8.7,17-17.3,25.7-25.4c9.1-8.5,19-16.3,28-25.1c5.7-5.7,10.1-12.7,12.8-20.3L234.3,296.8z M199.7,587
	c-9,24.6-18.9,47.2-24.7,70.9l33.2,18.2c4.4-2.8,9.7-5.9,14.7-9.6c1.8-1.6,2.9-3.8,3-6.2c0.1-5.7,0.2-11.5-1-17
	C220.7,623.4,210.5,606,199.7,587z M128.3,652.2c-3.8,0.9-5.9,1.3-8,1.8c-7.8,2-13.1,6.3-14.6,14.6c-1.3,7.2-3.2,14.4-4,21.7
	c-0.2,3.2,0.9,6.3,2.9,8.8c7,7.8,19.8,10.5,28.3,4.8c9.5-6.3,20.1-8.3,30.8-9.9c12.7-1.9,25.4-3.4,37.8,2.2c2.4,1.1,5.5,0.7,8.4,1
	c-0.3-17-17.7-30.2-37.2-33.9c-1,4.1-1.9,8.2-2.8,12l5.9,2.1c-16.6,9.6-54.8,1.3-60.2-13.1l8.1,3.4L128.3,652.2z M122.5,298.6
	c-1-10.9-3.7-20.3-2.8-31.4c10.8,6.6,11.9,17.2,15.2,27.5c5.2-11.2,7.6-21.8,5.5-33.3c-3-0.8-5.7-1.3-8.2-2.2
	c-8.7-3.1-15-13.9-12.4-22.3c2-6.4,4.2-13,9.8-17.7c1.4-1.2,2.8-3.7,2.6-5.4c-0.7-5.9-2-11.7-3.1-17.5H128l-3,18.1
	c-2.7,0.3-6.6,0.2-6.7,1c-1.1,5-4.6,4-7.7,3.4c-7.1-1.4-13.5,0.6-20.7,3c5.7,2.5,12.3-1.8,17,4.6L96,232.5c-3.7,2.1-6.5,4.9-7.6,9.5
	c6-0.6,7.4-8,14.6-7.8C91.5,245.7,89,258.7,92,273.8c4.6-5.3,2.8-14,10.4-17C105.8,272.4,111,286.3,122.5,298.6z M64.8,547.6
	l15.3,41.3c21.2-9.3,31.4-51.6,26.7-71C93.3,528.2,77.8,535.4,64.8,547.6L64.8,547.6z M41.6,85.2c6,9.5,14.3,13.2,22.4,16.5
	c27.5,11,55.4,20,85.7,7.9c-4.3-3.3-4.3-7.4-1.3-11.9c-18.4-0.9-36.1-0.9-53.6-2.9S60.3,88.7,41.6,85.2z M66.1,629.3
	c-8.3,2.7-16.8,5.6-25.3,8.3c-4.1,1.3-8.6,1.9-12.6,3.5c-4.6,1.6-9,3.8-13.1,6.5c-6.1,4.3-5.7,8.6,1.2,11.3
	c11.2,4.4,22.8,7.9,35,3.8c8.4-2.8,16.8-6,24.9-8.9C72.5,645,69.2,636.8,66.1,629.3L66.1,629.3z M8.8,563.1
	c8.1-5.8,16-11.4,23.9-17.2c9.3-6.8,9-6.8,6.5-18.2c-2.1-9.7-3.5-19.6-5.3-29.9c-1.5,0.5-3,1.3-4.4,2.1
	c-14.8,11.9-21.8,28.1-24.9,46.2C3.5,552.2,5,558.4,8.8,563.1L8.8,563.1z M78.4,595.1c-3.8-10.4-7.5-20.3-11-30.3
	c-6.8-19-13.7-37.9-16.2-58.1c-0.7-5.3-0.7-10.7-1.1-16.6H39.7c-0.4,0.7-0.6,1.5-0.9,2.3c-0.1,1.4-0.1,2.7-0.1,4.1
	c-0.4,15,2.9,29.2,7.9,43.1c6.2,17.1,10,35.1,18.5,51.4C68.5,597.6,69.6,598.2,78.4,595.1L78.4,595.1z M284.8,166.9
	c-6.7,1.1-12.9,2.1-19,3.3c-7.5,1.5-14.9,3.1-22.4,4.8c-5.7,1.3-10.6,5-13.4,10.1c-4.2,7.2-5,15.6-8.1,24.7
	c7.9-5.2,14-9.6,20.6-13.4c8.4-4.9,17.9-6.1,27.3-7.9C286.1,185.4,287.2,180.8,284.8,166.9z M155.8,127.9v-1.6c-2-0.4-4-0.8-6-1.2
	c-4.5-1-9.8-0.9-13.3-3.3c-4.8-3.3-9.5-3-14.6-3.4c-8.1-0.5-16.2-1.4-24.3-2.2c-12.1-1.3-24.2-2.7-36.4-3.9c-2-0.2-4.1,0.4-6.2,0.7
	c-0.5,4.4,2.3,6.1,5,7c8.7,3,17.4,6.5,26.3,8.3c18.6,3.6,37.4,2.1,56.2,1.7C147.1,129.9,151.4,128.6,155.8,127.9L155.8,127.9z
	 M55.2,492c-2.4,10.3,0,26.4,4.7,33.1l36.9-21.5C84.4,492.9,70.5,490,55.2,492z M216.6,64.4c-2.4-0.6-5-1.4-7.6-1.8
	c-12.7-2-25.1-4.7-37-9.6c-13.8-5.8-27.9-10.9-39.6-20.6c-2.6-2.1-6.7-2.5-11.7-4.1c1.4,3.3,1.6,5.1,2.7,6c4.4,4,8.5,8.8,13.6,11.3
	c13.4,6.7,27.1,12.6,41.2,17.7c10.1,3.5,20.4,7.8,31.5,7.9c1.8,0,3.5,1.3,5.4,1.9c1.6,0.6,3.3,1,5.4,1.6
	C218.9,70.8,217.8,67.8,216.6,64.4z M61.3,593.3L49,559.6c-9.3,4.1-23.4,14.5-28.9,21.3C32.3,589.8,45,596.1,61.3,593.3z
	 M102.3,505.8c-14.9,6.9-29.7,14-42.4,25c1.4,4.2,2.6,8,4.1,12.4c4.3-3.2,7.9-6,11.7-8.5c8.8-5.9,17.8-11.5,26.5-17.6
	C107.9,513.1,107.8,511.4,102.3,505.8L102.3,505.8z M43.6,543c-1.9,1.1-3.4,1.7-4.7,2.7C29,552.7,19.1,559.8,9.2,567
	c-1.3,0.9-2.6,2-3.6,3.3c-2,2.1-1.8,5.4,0.3,7.4c0.4,0.3,0.8,0.6,1.2,0.9c3.5,2,6.7,1.2,9.8-1.1c4.6-3.4,9.3-6.6,13.9-10
	c5.6-4.2,11.1-8.5,16.9-12.9C46.2,550.4,45,546.8,43.6,543z M145.6,263.4c-0.1,2.4-0.2,4.9-0.6,7.3c-1.2,5.6-2.6,11.1-3.9,16.6
	c-1.5,6.6-0.1,12.4,4.9,17.1c3.6,3.3,7.5,2.9,11.7,0.9c-1.5-2.2-2.7-4-4-5.8s-2.6-3.6-3.9-5.4c7.9,0.7,9.8,8,15.2,11.6
	c5.1,3.4,9.2,8.3,15,13.8c-2.8-8.9-8.5-13.1-13.6-17.4c-9-7.5-12-17.1-12.5-28c-0.1-3.5,0-7,0-10.7L145.6,263.4z M213.5,88
	c-4.6-3.7-9.9-5.9-11.1-12c-0.3-1.4-3.3-2.7-5.3-3.2c-13.1-3.5-26.2-6.9-38.5-12.9c-6.3-3-12.5-3.1-21.1-2.3c3.8,2.5,6,4.4,8.5,5.6
	c4.6,2.3,9.3,4.4,14.2,6.2c4.5,1.7,9.1,3.5,13.9,4.2c9.8,1.3,19,5.1,26.9,11c2.8,2.1,5.4,4.4,8.3,6.9L213.5,88z M165.2,232
	c1.4-4.2,2.3-7,3.4-10.4c7.6,3.6,6.6,11.7,11.2,16.8c0.1-2.8,0.4-4.9,0.4-7c0-3.3-0.2-6.5-0.2-9.8c0-2.9-0.9-6.5,3.2-7.3
	c3.7-0.8,4,2.9,5.3,5.1l2.5,4.1c0.5-8.1,2.3-15.9-1-24c-5.7,3.6-10.9,6.6-15.8,10s-9.3,7.2-13.8,10.6
	C162,224.1,163.3,227.4,165.2,232z M175.3,475c0.7-10-1.9-19.7-3.1-29.5c-1.3-10-1.2-20.3-4.1-30.1c-0.6,11.8-0.9,23.5-0.5,35.2
	c0.2,6.5,1.3,13,2.2,19.5C170.1,472.7,170.5,475.7,175.3,475z M190,148.5c-5.9,0.1-9.6,3.7-9.5,8.9c0.1,6,5,10.8,11,10.7
	c0,0,0,0,0,0c5.4,0,9.8-4.3,9.8-9.6c0,0,0-0.1,0-0.1C201.3,151.8,197.3,148.3,190,148.5z M221.5,369c11.4,7.6,16.3,6.3,21.3-5.6
	C235.3,362.9,227.1,359.7,221.5,369z M73.5,471.6l16.1,4.9c1.2-1.5,2.3-3,3.4-4.5c0.2-0.3-0.1-0.9-0.3-2.1l-18.1-4.8
	c-0.4,1.1-0.7,2.2-1,3.4C73.5,469.6,73.5,470.6,73.5,471.6L73.5,471.6z M92.7,484.4c-9.9-8.8-20.1-11-27.2-6.1
	C74.2,481.9,83.4,484,92.7,484.4L92.7,484.4z M64.2,486.5L86,491c-0.6-3.5-0.6-3.6-13.1-6.9C70,483.3,66.1,481.1,64.2,486.5
	L64.2,486.5z M124.9,278.8c-1.2,6.7,0.1,11.7,3.2,18.1C130.2,289.6,129,284.5,124.9,278.8L124.9,278.8z M333.8,450.6
	c5,4.2,5,4.2,7.7-3.3L333.8,450.6z M242.8,359c-3.5-2.4-5.6-4.5-8.6,0H242.8z"/>
<path d="M664.7,672.9l-16-16.8c-0.2,9.9-1.4,17.9,2.1,26.5c3.6,8.8,1.6,18.1-5.4,25.1c-2.2,2.2-6.2,3.3-9.5,3.7
	c-3.9,0.4-8-0.3-12-0.9c-2.6-0.5-5.2-1.3-7.7-2.3c-1.7-0.6-3.2-2.2-4.9-2.4c-6.5-0.7-8.6-4.9-9.6-10.4c-8.8-3.1-10.9-7.7-6.2-15.7
	c2.1-3.6,5.8-6.3,9-9.2c1.8-1.5,3.8-2.9,5.8-4.3c-0.7-0.9-1.1-1.6-1.3-1.5c-10.5,1.8-16.6-3.9-21.6-12.3
	c-11.3-19-20.2-38.7-21.5-61.1c-0.5-8.4-1.1-16.7-1.6-25c-7.4-1.6-7.8-1.5-17.6,3.4c-0.9,9.7,0.2,18.7,9.4,24.7
	c-4.2,6.5-9.4-2.8-13.5,1.5l-15.5-5.1c-0.1,8.8-0.1,17.2-0.4,25.5c-0.3,9.8-0.2,19.7-1.6,29.4c-1.7,12.4-15.2,18.4-26.4,12.4
	c-1.7-1.2-2.7-3.1-2.7-5.2c0.8-9.5,1.9-18.9,3.3-28.4c1.9-13,4.2-25.8,6.1-38.8c0.4-2.7,0-5.4,0-8.4c-9.8-1.9-13.4-10.3-17.5-18
	c-9.2,2.2-17.5,7.2-23.7,14.2c-4.3-4,0.7-9.3-2.7-13c-0.2-0.2,0.2-1.1,0.5-1.4c5.5-5.5,6.1-13.2,9.2-19.8
	c3.5-7.5,7.1-14.8,16.8-16.3c1.7-0.3,3.7-3.1,4.3-5.1c3.4-11.5,6.5-23.1,9.6-34.7c1.5-5.5,2.6-11.2,4.2-16.7
	c2.5-8.6,9.2-14,15.8-19.4c2.3-1.9,4.8-3.5,7.3-5.3c-7.8-6.9-16.9-10-28.5-10.8c8.5-3.6,17-0.8,28.9,6.3c-1.6-8.8-6.9-15-11.6-23
	c13,2.1,19.7,11.2,28.1,20.2c0.2-10.1-4.1-17.4-6.5-25.6c6.6,2.1,9.2,5.6,23.1,31c0-5.9,0.2-10.3,0-14.6s-0.9-8.8-0.6-13.4
	c8.4,8.4,9.7,20.3,16,30.9c3-7.4,2.5-15.3,7.8-21.1c2.6,11.1-0.7,22.7,4.1,34.2c3.2-7,1.9-15.4,9.5-21c-0.3,13.3-0.9,25.5-0.8,37.6
	s0,24.5,3.6,37.1c1.1-0.8,2.1-1.2,2.6-1.9c6-8.5,15.5-9.1,24.5-10.7c1.4-0.2,2.7,0,4,0.6c5.4,2.1,11.1,3.8,16.1,6.7
	c2.8,1.6,4.7,5.1,6.6,8.1c3.8,5.9,7.1,12.2,11.1,18c6.4,9.2,13,18.2,19.9,26.9c11.2,14.1,24.2,26.7,38.6,37.4
	c5.2,3.8,10.7,7.2,17,11.4l-8.7,1.6c8.5,12.4,15.7,25,18.2,39.8c5.9,1.1,11.1,2.6,15.5,7c11.2,11.2,12.3,11.3,27.2,10.4
	c0,0.5,0.3,1.1,0.1,1.5c-0.5,0.7-1.1,1.4-1.7,1.9l5.4,2.7c-4.4,1.2-7.2,2.6-10,2.5c-5.5-0.2-9.1,2.8-13,5.9c-4.2,3.4-8.6,6.9-13.5,9
	c-9.3,4-18.1,1.3-26.3-4.4l-5.5,4.5c1.7,5,4,9.6,4.9,14.5c1,5.8-1,8.1-7,8.4c-7.9,0.5-15.8,1.3-23.4-2c-1-0.4-2.1-0.6-3.2-0.6
	c-7.3-0.1-14.6,0-21.8-0.1c-4.4,0.2-8.7-1.6-11.7-4.8c-1.9-1.8-4.3-2.9-6.9-3.3c-7-1-10.1-5.3-6.9-11.6
	C657,683.6,660.9,678.7,664.7,672.9z M747.7,664.5l8.9,4.1l0.6-2.2L747.7,664.5c-0.8,7.1-0.6,7.4,4.6,6.2
	C750.8,668.6,749.2,666.5,747.7,664.5L747.7,664.5z M502,497.1l0.2-0.2c-2.3,8-4.7,15.9-7.3,24.7c2.5,0.6,5.1,1.1,7.6,1.4
	c7.2,0.5,13.9,3.5,19.1,8.5c6.9,6.3,13.3,13.2,20.6,20.5c2.5-1.3,5.9-2.2,7.9-4.4c1.6-1.7,1.3-5,2.2-8.8c3.5,4.6,6.2,8,8.7,11.4
	c0.1,0.2-0.5,0.9-1,1.8l-5.5-2.7l-12,6.4c1,3.3,2,6.8,2.9,9.9l19.9-4.8c0.2-0.9,0.5-1.9,0.6-3c2.3-15.9,4.6-31.8,6.9-47.8
	c0.3-2.1,0.1-4.5,3.6-4.1c0.3,0.7,0.5,1.5,0.6,2.3c-2.3,15.9-5.1,31.8-7,47.8c-2.9,25.3-1.5,50.2,9.2,73.8c0.1,0.3,0.8,0.4,1.4,0.6
	c0.2-1.4,0.3-2.7,0.5-4.8c1.9,1.9,3.1,5.2,6.4,2.1c0.8-0.8,4.1,1.6,6.3,1.6s4.2-0.9,6.2-1.7c2.3-0.8,4.5-1.8,6.4-2.6
	c-3.7-12.6-7.7-24.3-10.5-36.2c-3.4-14-5.7-28.4-8.8-42.5c-3.5-15.7-3-31.4-1-47.2c0.3-2.4,1.5-4.7,2.3-7.1l2.3,0.6
	c-0.5,4.6-0.9,9.3-1.5,14c-2.6,21.6,2.2,42.4,6.6,63.2c0.5,2.5,2.3,4.8,3.5,7.3c1-5.8,0.2-10.9,0.1-16c0-4.7-1.8-9.8,2.1-15.4
	c1.1,11.3,1,21.3,3.2,30.7c3.7,15.9,8.4,31.6,13.6,47.1c4.6,13.9,7.8,27.9,7.2,42.5c-0.1,3.6,0,6.7,4.3,8.4c-1.3,0.6-2.8,1-4.2,1.1
	c-8.6,1.5-15.1,6.1-18.8,14.1c-3.1,6.6-1.9,9.1,5.3,12.1c5.9-15.4,5.9-15.4,10-16.4c-1.6,4-4,8.4-4.9,13c-1.3,7.2,1.7,9.3,9.3,7.7
	c1.2-12.7,1.9-14.4,7.2-16.3c-1.1,3.4-2.6,6.9-3.3,10.5c-0.6,3,0,6.2,3.5,7.5c3.3,1.2,6.5,1.2,9-1.9c5.3-6.6,7.5-13.7,4-22
	c-1.1-2.7-1.7-5.7-1.7-8.6c0.2-15.5,0.8-31.1,1-46.7c0.6-24.3-1.9-48.6-7.5-72.3c-0.3-1.9-0.4-3.9-0.3-5.8c1.8,0.6,2.6,1.4,2.8,2.3
	c6.9,25.2,8.4,51.1,8.1,77.1c0,5.2-1.3,10.3-1.3,15.5c0.1,2.7,1,5.2,2.7,7.3c3.9,4.6,8.1,8.9,12.7,12.8c5.5,4.7,11.5,8.7,18.3,13.8
	c-4.3-26.9,3.5-50.3,17.6-55c0.1,0.2,0.3,0.6,0.3,0.7c-1,1.2-2,2.4-3.1,3.6c-9.6,10-14,22-13.8,35.7c0.1,7.5,1.9,14.2,10.3,16.7
	c0.6,0.2,0.9,1.1,2.1,2.6c-3.3,0.3-6,0.3-8.5,0.8c-5.7,1.2-11.2,3.1-14.2,8.6c-3.8,6.8-0.7,11.8,8,12.3c0.2-7.9,2.9-14,11.8-15.2
	c-1.5,1.7-4,2.7-5.1,4.5c-1.5,2.4-2.8,5.7-2.3,8.2c0.4,1.7,4,3.3,6.4,3.7c2.8,0.5,5.8-0.3,8.6-0.5c1.8-13.4,2.8-15,8.9-15.3
	c-1.4,2.3-3.2,4.4-4.1,6.8c-1.8,5.2,0.7,9.9,5.9,10.4c7,0.7,14,1.8,20.9-0.3c2.9-9.3-3.6-14-9.4-19.1c3-1.4,5.3-2.1,7.3-3.4
	c14.1-9.5,24.1-30.3,16.9-48.2c-2.2-5.6-4.5-11.2-7.7-16.3c-4.9-7.7-9.5-16.2-19.4-19c-0.4-0.1-0.5-1.2-0.9-2.5l10.8,2.4
	c-8-6.8-14.8-12-20.9-17.7c-17.7-16.4-34-33.9-45-55.7c-3.8-7.3-8.2-14.2-16-18.1c-0.9-0.5-2.5-1.5-2.4-1.9c1.3-4.6-2.7-4.1-4.7-4.5
	c-3.3-0.6-6.7-0.2-10.1-0.2c-0.1-1.3-0.2-2.4-0.5-4.6l-14,6.5c-0.2-0.1-1.5-1.4-2.2-1.2c-6.8,2.4-7.9,9.5-11.7,16.3
	c-6.5-24-7.5-46.9-6.2-70.6c-3.7,5.4-1.5,12.3-7.5,17.5c-1.7-10.3-3.3-19.3-4.8-28.4h-0.9c-1.4,7.3-2.8,14.6-4.2,22.3
	c-4.4-2.3-3.6-5.8-3.5-8.8c0.4-9.7-3.7-17.9-9-25.9v24.8c-5.9-4.3-5.4-10.3-8-14.6c-2.9-4.7-5.7-9.5-8.5-14.3
	c-0.3,4.7,0.8,9,1.3,13.2c0.5,3.9,3.3,7.9,0.6,12.4c-9-15.2-15.3-22-23.6-25.8c2.6,6.7,5.3,13.5,7.9,20.2
	c-10.7,4.3-19.5,12.2-22.3,19.4c19.4-8.1,19.4-8.1,25-5.3c-3.8,1.5-6.7,2.6-9.5,3.8c-5.5,2.3-11.1,4.5-16.4,7.1
	c-1.7,0.8-2.9,2.3-3.6,4C506.2,480.2,504.2,488.6,502,497.1z M542.9,591.7l-5.5-9l1.4-1.1l5.5,5.4c-0.4-19.3-4.4-39.6-17.2-43.9
	c-3.2,4.1-5.9,8.5-9.5,12c-2,1.7-3,4.4-2.7,7C515.7,576.8,527.5,589.4,542.9,591.7z M510.6,577c-2.2,14.3-4.2,27.7-6.3,40.8l7.2,2.9
	l3.1-4.7c0.6,3.3,1,5.1,1.4,6.9c5.5-4.2,8.1-9.4,7.4-16.5c-0.5-4.9-0.5-9.9,0-14.8c0.7-7.2-5-10.4-8.6-14.8
	C514.3,576.2,512.3,576.9,510.6,577z M468.3,563.3l33.2-12.6c-2.7-4.6-5.2-8.2-7.1-12s-3.3-8-5.2-12.8c-2.4,0.9-5.2,1.1-6.6,2.6
	c-5.7,6.2-10.7,12.8-9.7,22.1c0.1,1.8-0.3,3.7-1,5.3C470.7,558.7,469.3,561.2,468.3,563.3L468.3,563.3z M603.2,690.8
	c3.1-8.8,9.9-14.3,19-17.8c1.5-10.4,0.6-21.1-2.6-31.1c-0.5,4-0.7,8.1-0.6,12.2c0.1,6.3-1,11.8-7.7,14.5c-2.2,1-4.2,2.4-6.1,4
	c-4.3,3.5-8.1,7.2-8.1,13.5C597.1,689.9,598.7,691.4,603.2,690.8z M492.7,558.2c4.8,13.7,9.9,17.1,20,13.6c-0.3-3.2-0.7-6.3-1.3-9.5
	c-1.5-6.2-6.9-8.9-12.8-6.6C496.7,556.5,494.7,557.3,492.7,558.2z M613.6,635.6c2.3-13.4-5.8-40.5-14.9-49.2
	C603.5,602.3,608.3,618.1,613.6,635.6z M671.4,677.4c-1.4-0.5-2.5-1.4-3.3-1.2c-6.2,1.7-12.7,13-11.2,19.1c0.7,2.8,2.4,3.4,5,2.5
	c0.9-3.4,1.4-6.9,2.9-10C666.4,684.4,668.8,681.4,671.4,677.4L671.4,677.4z M680.2,681.7c-2.7-0.4-5.5-1.7-6.8-0.8
	c-2.4,1.8-4.3,4.2-5.5,6.9c-1.2,2.3-1.3,5.2-2,8.5C670.9,691.2,675,687,680.2,681.7L680.2,681.7z M499.5,648.6h0.5v-5.9h-0.5V648.6z
	"/>
<path class="st0" d="M179.7,260.9c3.1-5.8,3.3-12.4,3.8-18.8c0.5-6.6,0.1-13.4,0.1-21.4c6.9,9.1,5.1,19.2,8.7,27.9
	c4.3-8.4,4-17.2,4-26s-0.6-17.4-1-26.5c9.3-4.9,18.6-10.8,30.5-11.6c-2.1,7.1-4,13.7-6.1,20.3c-4.7,15.4-4.8,15.3-1.8,18.7
	c6-11.3,15.9-18.1,26.5-24.4c11.1-6.6,23.8-5.1,36.3-10.3c0,8.3-0.6,15.9,0.2,23.3c0.9,7.3,2.3,14.5,4.2,21.6
	c2.2,8.7,8.1,13.9,16.5,16.5c3.6,1.1,7.2,2.6,10.8,3.8c14.1,4.7,20.7,15.2,22.4,29.3c2.1,17-8.6,26.2-21.1,33.9
	c-4.8,2.9-10.5,4.7-16,6.2c-7.2,1.9-14.4,1.8-21.6-1.7c-10.9-5.3-21.8-10.2-29.9-19.6c-3.5-4-5.5-7.7-4.1-13.7
	c2.2-9.4,0-18.1-7.1-25.6c-4.4-4.6-7.2-10.8-10.8-16.2c-0.5-0.7-1.5-1.1-3.7-0.9c1,2.9,1.9,5.7,2.9,8.6l-13.1-0.9
	c-0.1,0.8-0.3,1.5-0.4,2.3c1.8,0.5,3.5,1.1,5.3,1.4c12.3,2.1,20.3,9.1,23.6,21c3,10.7-2.2,16.8-13.6,18.4
	c-5.8,0.8-11.8-0.8-16.4-4.4l2.5-5.7c-0.9-0.4-1.5-1-1.7-0.9c-7.4,4.7-10.1,10.7-7.4,17.8l2.7-7.2l17,4.6
	c-5.7,6.5-12.1,12.5-16.7,19.6c-4.5,7-7.1,15.1-11,23.7c-2.5-6.4-5.1-12.2-7.1-18.2c-3.4-10.7-9-19.6-17.9-26.8
	c-11.9-9.6-13-23.2-11.4-37.3c0.1-0.5,0.3-1.1,0.3-1.6c0-0.2-0.2-0.5-0.1-0.2c-7.6-1-14.9-1.6-22.1-3.2
	c-8.9-1.9-14.5-12.1-11.9-21.1c1.9-6.6,4.6-12.9,11.1-16.5c10.8-6,23.4,0.1,25.3,12.4c0.6,4,1.3,8.1,1.6,12.1s0.1,8.1,0.1,12.4
	c5-2.1,5.6-4.2,8.3-24.5c3.5,4.2,3.7,4.6,5.1,14.2c0.8,5,1.4,10,2.1,15L179.7,260.9z M263.9,210.5c-9.9-6-15.8-0.7-19.6,7.9
	c-0.8,1.7-1.4,3.6-1.7,5.4c-1.3,8.6-2.6,17.2-3.5,25.9c-0.4,4.1-0.1,8.2,0.7,12.2c0.9,4.6,7.2,7.9,10.9,5.3
	c7.4-5.1,14.5-10.8,18.8-19c1.2-2.2,1.3-5.4,1-8c-0.8-7.3-1.7-14.6-3.2-21.8c-0.9-4.1-0.1-6.8,3.7-8.8c1.6-0.9,3.9-2,2.4-5.3
	L263.9,210.5z M152.4,234.4c2.2-3.3,1.8-5.2-0.7-6.4c-6.1-2.8-12.2-2.8-17.9,1.1c-4.9,3.4-7.7,7.9-6.8,14.1c0.9,0.1,1.3,0.2,1.4,0.1
	c1.6-2.6,3.2-5.1,4.9-7.9c4.1,16.7,4.1,16.7,10,15.5c-3.3-6.6-8.3-13-3.5-21.2C144.8,228.3,148.8,229.7,152.4,234.4z"/>
<path class="st0" d="M297.8,471.4l-13.5,12.2l1.1,1.6c1.2-0.5,2.7-0.6,3.6-1.4c3.1-3,6-6.3,9-9.5c8.9-9.8,19.8-17,30.3-24l9.6,7.1
	l-23,20.9c2.5,1.2,4.3,2.2,6.2,2.9c4.4,1.6,6.4,4.9,6.7,9.3c0.4,5.7,1.2,11.5,0.7,17.1c-0.7,8.4-3.6,16.4-4.8,24.9
	s-9,12.4-17.7,13.2c-10.4,0.9-20-1.9-29.3-6.2c-8.4-3.8-16.6-8.4-25.2-11.7c-16.8-6.6-34.6-10-52.7-10.1c-13.3-0.1-26.7-1.5-40-1.4
	c-14,0-22.4-7-27.7-19c-5.3-12-7.4-25.1-8.5-38.2c-1-11.7-1.7-23.5-1-35.2c1.4-22.3,3.6-44.6,6-66.8c0.7-6.4,3-12.8,5.3-18.9
	c2.7-7.3,8.1-9.1,15.1-5.6c8.3,4.1,11.9,11.8,14.3,20c3,10.3,3.6,20.9,3.3,31.6c-0.5,19.9-1.3,39.8-1.5,59.7
	c-0.1,10,1,20.1,1.6,30.9c-3.6,2.4-10-0.5-13.9,4.2c0.8,0.5,1.3,1.1,1.6,1c13.5-2.8,26.5,0.8,39.6,3.5c15.7,3.3,31.5,6.2,47.3,9.1
	c7.6,1.4,13.8-0.5,18-7.8c1.8-3.2,4.7-5.9,7.4-8.6c10.6-10.6,18.9-11.9,32.3-4.9C297.9,471.5,297.8,471.4,297.8,471.4z M311.4,515.8
	c0-0.8,0-1.7,0-2.5c-3.2,0.7-6.8-1.5-10.5,2.5H311.4z M305.2,495.7l0.2,1.8c3.1,0.5,6.3,1.9,9.7-1.8H305.2z M298.2,528.4
	c1.8,2.7,3.8,5.1,9.1,4.1L298.2,528.4z M282.2,474.2l-0.4,1.6l5.6,1.3l0.3-1.5L282.2,474.2z"/>
<path class="st1" d="M112.7,513.8c3.8-1.1,8.2-2.8,12.6-3.6c4.3-0.8,8.5-0.4,12.1,3.1c4.3,4.1,9.8,5.7,15.6,6
	c13.6,0.8,27.2,1.6,40.9,2.3c6.3,0.3,7.6,0.5,8.2,6.6c0.9,9.5,2.1,19.3,0.5,28.5c-3.8,22.3-11,43.7-20,64.6
	c-4.5,10.5-7.4,21.7-10.9,32.6c-2.4,7.5-4.7,15.1-7.1,23c-12.9,2.2-25.2,0.8-37.3-5.6c0.2-1.9,0.5-3.8,1-5.7
	c6-18.7,11.9-37.4,14.7-56.9c1-6.7,0.9-13.6,1.1-20.4c0-1.1-1.3-2.3-2.9-4.8c-0.8,4.3-1.3,7-1.9,10.7l-8.8-7
	c6.1-6.3,14.7-5.8,22.3-9.3c-2.6-3.2-4.8-2.3-7.1-1.8c-12.2,2.8-22.5,9.5-32.8,16.2c-9.7,6.3-19.9,11.4-31.4,13.5
	c-12.2,2.2-23.5-0.4-34.1-6.7c7.3,0.3,14.4-3.3,21.7,1c4.3,2.5,9.7-0.1,12.6-4.5c1.2-1.8,2.3-3.7,3.9-5.1c16.4-13.6,23-32,25.6-52.3
	C112.2,530.4,112.2,522.5,112.7,513.8z"/>
<path class="st2" d="M191.8,136.2c-12-0.5-22.8-1.5-33.4-4.8c2-5.1,5.1-4.5,8-4.7c7.9-0.5,15.8-1.1,23.6-1.7
	c2.1-0.3,4.2-0.8,6.3-1.4c-1.2-3.9-3.4-2.4-5.4-2c-15.7,3.7-31.4,1.6-47-0.9c-2.1-0.3-4.2-1.5-7.7-2.8c11.9-6.9,22.8-6.6,33.9-4.9
	c9.1,1.3,18.2,1.6,27.5-1.4c-1.5-0.4-3.1-0.7-4.7-0.9c-11.4-1-22.8-1.9-34.2-3.1c-3.6-0.3-6.8-1.7-8.8-5.5c2.5-4.3,6.5-4.7,10.5-4.8
	c11.7-0.6,23.3,1.8,33.8,7c0.7-3-1.2-4.3-3.3-4.8c-6.8-1.8-13.6-4-20.6-4.8c-7.7-0.9-15.6-0.3-23.4-0.7c-21.7-1.1-43.8,1.2-65-4.7
	c-9.1-2.5-18.8-2.7-27.3-7.7c-11-6.4-20.5-14.1-26.5-26.2c3.2-1.6,6.4-0.4,9.3,0.5c8.4,2.5,16.7,5.1,24.9,8.3
	c22.9,9,47.1,11.4,71.4,13.3c9.2,0.7,18.5-1,27.8-0.8c13.6,0.2,26.5,3.1,37.6,11.6c8.3,6.1,13.4,15.5,14,25.7
	c0.6,7.7,1.1,15.3-2.1,22.4c-1.4,2.9-3.1,5.6-5.2,8.1c-2.2,2.8-4.9,3.3-8.7,2.3s-7.9-0.1-11.9-0.2c-2.3-0.1-4.6-0.4-6.9-0.6
	c-7-0.9-14-2.4-21-2.5c-10.1-0.1-20.1,1.1-30.2,1.2c-5.7,0-11.4-0.6-17.1-1.7c-2.6-0.5-4.9-2.8-7.1-4.2c1.6-5.2,5.1-4.8,8.4-4.8
	c9-0.1,18.1-0.2,27.1-0.4c3-0.1,6-0.9,8.9-0.8c3.2-0.1,6.3,0.4,9.4,1.3c10.4,3.7,21.2,4.8,32.1,4.6
	C189.6,138.6,190,137.9,191.8,136.2z"/>
<path class="st3" d="M157.4,217.6c-6.3-2-11.9-6.5-19.9-2.9c1.3-10.3,2-19.6,4.5-28.7c3.4-12.3,8.8-24,15.9-34.7
	c3.7-5.6,8.3-5.3,13.4-4.1c2.6,0.6,5,2,7.9,3.2c-1.4,7.4-2.8,14.9,5.5,19.3c5.5,2.9,10.7,1.5,15.5-1.8c4.3-2.9,5.1-8.1,3-17
	c10.5-6.8,14.6-17.4,15.4-29.6c17.4-3.2,52.7,21.9,60.4,43.3c-5.3,1.1-10.5,2.2-15.7,3.2c-6.9,1.4-13.9,2.7-20.8,4.1
	c-0.5,0.1-1.1,0.3-1.5,0.6c-12.8,9.3-29.1,10.6-42.6,18.4c-12.6,7.1-25.2,14.1-36.3,23.6C160.5,215.6,159,216.7,157.4,217.6z"/>
<path class="st4" d="M108.2,707.1c13.8,5.4,24.7,1.8,35.8-5c5.3-3.2,12.4-3.4,18.8-4.6c5.1-0.9,10.3-1.2,15.4-1.8
	c8.1-0.9,15.6,1.8,23.1,4.1c3.9,1.2,7.7,2.4,11.8-0.2c1.2-0.8,3.8-0.4,5.2,0.4c6.9,4.3,13.8,8.7,18,16.1c6.6,11.7,2.2,21.8-9.2,26.3
	c-13.4,5.3-26.8,4-40.3,3.1c-8-0.5-16.1-2.5-23.9-4.5c-18.8-4.7-35.9-12.7-49.3-27.1C111.8,712.1,110.5,710.1,108.2,707.1z"/>
<path class="st0" d="M295,672.7c-5,2.6-1.7,5.8-0.5,8.9c-0.6,0.1-1.2,0.1-1.8,0c-10-2.8-20-4.5-30.6-3c-10.9,1.6-21.2-0.6-29.6-8.9
	c-0.6,4.2-0.6,4.2,6.6,10.3c-8.8,1.9-13,1.4-24-3c3.1-2.4,5.9-4.7,8.8-6.8c4.3-3.2,5.6-7.6,5.8-12.8c0.5-10.4-1.5-20.8-5.9-30.2
	c-6-13.1-12.6-26-19.5-38.7c-2.1-3.9-3.1-6.9-1.8-11.4c2.3-8.1,4.1-16.3,5.2-24.6c1.5-9.7,0.6-19.7-2.6-29c6.1-2.3,6.7-1.9,7.7,4.4
	c2.3,14,4,28.1,6.9,42c4.3,20.5,8.9,41,14.4,61.2c2.1,7.7,6.9,14.8,10.7,22c0.4,0.8,2.5,0.8,5.5,1.6l-9.2-16.9
	c6-6.1,11-7.5,21.2-5.8c-3.4,2.6-6.4,4.9-9.4,7.2c-0.6,1.1-1.2,2.2-2,3.8c6.4,1.5,11,6,18.7,7.2c-5.1-6.7-11.5-7.9-16.8-11
	c3.3,1.1,6.1,0.3,9-1.5c6.1-3.6,12.3-7,18.6-10c3.6-1.7,7.6-2.5,12,1c-6.4,3.3-13.5,3.5-19.7,9.2c2.8,0.2,4.2,0.7,5.4,0.3
	c3.9-1.2,7.6-2.7,11.5-3.9c5.5-1.7,11-2.8,16.2,1.4c0.6,0.5,2.4-0.2,3.6-0.4l-0.3,0.2h4.3c-3.4,3.2-5.5,5.9-8.2,7.5
	c-9.6,5.8-19.3,11.3-29.2,16.6c-1.6,0.9-4.1,0.4-6.2,0.3c-2.5-0.1-5-0.4-7.7,0.6c12.4,5.7,26,5.6,40,8.7l-7.4,3.9L295,672.7z"/>
<path class="st4" d="M11.2,660.9c12.9,3.8,25.2,9.1,38,6c11.5-2.8,22.6-7.4,33.7-11.1c-3.9-7.9-8.3-14.6-10.5-22
	c-2-7.1-1.7-14.7,1-21.5c10-3.3,19.5-5.7,28.4-9.5c8.5-3.6,15.7-10,25-12.7c-8.6,8.4-11.1,19-12.7,30c-4.3-1.5-2.5-8.3-8.6-8.3
	c1.3,7.6,6.9,12.5,9.8,18.7s4.8,12.6,7.2,19.5c-1.8,0.6-4.6,1.3-7.2,2.5c-7.4,3.1-13.1,7.7-14.1,16.4c-0.4,3-1.4,5.8-2.3,9.7
	c-10.8,3.1-21.9,7.1-33.3,9.3c-12.1,2.3-24.4,1.8-35.9-3.9c-5.2-2.4-9.5-6.6-12.1-11.7C15.9,668.6,13.7,665.1,11.2,660.9z"/>
<path class="st2" d="M119.1,7.8c3.4,1.4,6.9,2.6,10.2,4.2c13.4,6.6,26.5,14.1,40.3,19.8c9.2,3.8,19.4,5.2,29.1,7.9
	c11.3,3.2,22.7,6,33.6,10.1c16.1,6.1,29.1,27.4,28.1,44.5c-0.6,11.5-10.7,23.4-21.8,25.7c-1.9,0.2-3.7,0-5.5-0.6
	c-4.7-1.2-9.4-2.5-15-4c-0.5-2.9-1.1-6.8-1.9-11.7c3.3,1.4,5.6,2.5,8,3.5c2.3,0.9,4.3,3.2,8.5,1.6c-5.1-2.9-9.3-5.2-13.4-7.6
	c-1.9-1.1-4-2.1-5.4-3.6c-0.8-0.9-1-3-0.6-4.4c0.2-0.7,2.3-1.4,3.4-1.2c2.9,0.5,5.8,1.3,8.6,2.4c5,2.1,9.9,4.6,14.9,6.7
	c1.3,0.5,2.8,0.3,4.5-0.3c-13-8.3-26.9-14.8-38.5-25.1c17.4-0.6,28.8,13.3,44.3,17.9c-10.3-7.1-21-13.5-27.1-24.8
	c5.6-1.1,13.5,2.7,25,12.2c1.8-4.4-1.7-6.2-4.1-7.6c-4.6-2.9-10-4.6-14.4-7.7c-11.2-7.8-24.5-7.5-37-10.6
	c-16.4-4.2-32.2-10.5-47-18.8C134.7,30,124.7,21.4,118,9.8L119.1,7.8z"/>
<path class="st0" d="M180.3,476.5c-1.7-11.5-3.6-23-4.9-34.6c-1.4-12.7-2.4-25.5-3.3-38.3c-0.1-3.2,0.1-6.5,0.8-9.7
	c3.5-17.9,7-35.8,10.6-53.6c0.4-2.1,1.3-4.1,2.3-7.5c3.1,10.4,8.3,18.6,6.1,29.3c-2,9.5-1.4,19.5-1.7,29.3c-0.2,6.1,0,12.2,0,20.1
	c4.3-7.5,3.7-15.7,11-20.8c0.6,4,1.4,7.5,1.6,11c0.8,11.4,1.1,22.9,2.1,34.3c1.2,13,3,25.9,4.4,38.9c0.1,2.6,0.1,5.3,0,7.9
	C199.3,482.7,190.3,479.4,180.3,476.5z"/>
<linearGradient id="SVGID_1_" gradientUnits="userSpaceOnUse" x1="193.8386" y1="655.975" x2="260.3286" y2="655.975" gradientTransform="matrix(1 0 0 -1 0 1000)">
	<stop  offset="0" style="stop-color:#F7931E"/>
	<stop  offset="1" style="stop-color:#FCEE21"/>
</linearGradient>
<path class="st5" d="M234.3,296.8l26,23.7c-2.7,7.6-7.1,14.5-12.8,20.3c-8.9,8.8-18.8,16.5-28,25.1c-8.7,8.1-17,16.7-25.7,25.4
	c0.5-9.9,0.3-20.1,1.7-30.1c1.4-9.4,4.2-18.6,6.9-27.7c3.8-12.8,12.5-22.1,22.7-30.2C228.3,300.8,231.7,298.6,234.3,296.8z"/>
<path class="st1" d="M199.7,587c10.8,18.9,21,36.4,25.2,56.4c1.2,5.5,1.1,11.3,1,17c-0.2,2.4-1.3,4.6-3,6.2
	c-4.9,3.7-10.3,6.8-14.7,9.6L175,658C180.8,634.2,190.7,611.7,199.7,587z"/>
<path class="st1" d="M128.3,652.3l-4.6,15.5l-8.1-3.4c5.5,14.4,43.6,22.7,60.2,13.1l-5.9-2.1c0.9-3.8,1.9-7.9,2.8-12
	c19.5,3.7,36.9,17,37.2,33.9c-2.9-0.3-6,0-8.4-1c-12.4-5.6-25.1-4.1-37.8-2.2c-10.8,1.6-21.3,3.6-30.8,9.9c-8.5,5.6-21.4,3-28.3-4.8
	c-2-2.5-3.1-5.6-2.9-8.8c0.8-7.3,2.7-14.4,4-21.7c1.5-8.3,6.8-12.6,14.6-14.6C122.4,653.6,124.5,653.1,128.3,652.3z M112.4,674.3
	c-4.9,2.2-5.9,4.3-3,7.1c2.3,2.2,5.2,4.4,8.2,5.2c9,2.3,18,4.5,27.2,5.5c9.5,1,19.3,0.5,28.1-3.7c3.8-2,7-4.9,9.5-8.4
	c1.9-2.7,0.9-5.6-3.3-5.8c-1.3,8.3-4.2,11.3-12.5,13.1c-15.9,3.5-31.5,1.3-46.7-3.7C113.1,681.5,113.1,681,112.4,674.3L112.4,674.3z
	"/>
<linearGradient id="SVGID_2_" gradientUnits="userSpaceOnUse" x1="88.3886" y1="752.62" x2="141.1625" y2="752.62" gradientTransform="matrix(1 0 0 -1 0 1000)">
	<stop  offset="0" style="stop-color:#F7931E"/>
	<stop  offset="1" style="stop-color:#FCEE21"/>
</linearGradient>
<path class="st6" d="M122.5,298.6c-11.5-12.3-16.7-26.2-20.1-41.9c-7.6,3.1-5.9,11.7-10.4,17c-3-15.1-0.4-28.1,11.1-39.6
	c-7.3-0.2-8.6,7.2-14.6,7.8c1.1-4.7,3.9-7.4,7.6-9.5l10.8-6.2c-4.7-6.4-11.3-2.1-17-4.6c7.1-2.4,13.6-4.3,20.7-3
	c3.1,0.6,6.6,1.7,7.7-3.4c0.2-0.7,4.1-0.6,6.7-1l3-18.1h1.1c1.1,5.8,2.5,11.6,3.1,17.5c0.2,1.7-1.2,4.1-2.6,5.4
	c-5.5,4.7-7.8,11.3-9.8,17.7c-2.6,8.4,3.7,19.1,12.4,22.3c2.5,0.9,5.2,1.4,8.2,2.2c2.1,11.5-0.3,22-5.5,33.3
	c-3.2-10.3-4.4-20.8-15.2-27.5C118.8,278.3,121.5,287.7,122.5,298.6z"/>
<path class="st7" d="M64.8,547.6c13-12.1,28.4-19.3,42-29.7c4.7,19.5-5.5,61.7-26.7,71L64.8,547.6z"/>
<path class="st2" d="M41.6,85.2c18.7,3.5,35.8,7.6,53.2,9.6s35.2,2,53.6,2.9c-3.1,4.5-3,8.6,1.3,11.9c-30.2,12.1-58.1,3-85.7-7.9
	C55.9,98.4,47.6,94.7,41.6,85.2z"/>
<path class="st8" d="M66.1,629.3c3.1,7.5,6.5,15.6,10.1,24.4c-8.1,2.9-16.4,6.1-24.9,8.9c-12.2,4.1-23.8,0.6-35-3.8
	c-6.9-2.7-7.3-7.1-1.2-11.3c4.1-2.7,8.5-4.8,13.1-6.5c4-1.6,8.4-2.2,12.6-3.5C49.3,634.9,57.8,632,66.1,629.3z"/>
<path class="st7" d="M8.8,563.1c-3.8-4.7-5.4-10.9-4.2-16.9c3.1-18.1,10-34.4,24.9-46.2c1.4-0.9,2.8-1.6,4.4-2.1
	c1.8,10.3,3.2,20.2,5.3,29.9c2.5,11.4,2.8,11.4-6.5,18.2C24.8,551.7,16.9,557.3,8.8,563.1z"/>
<path class="st9" d="M78.4,595.1c-8.8,3.1-9.8,2.5-13.3-4.1c-8.5-16.3-12.3-34.3-18.5-51.4c-5.1-14-8.4-28.2-7.9-43.1
	c0-1.4,0-2.7,0.1-4.1c0.2-0.8,0.5-1.6,0.9-2.3h10.4c0.4,5.9,0.4,11.3,1.1,16.6c2.5,20.1,9.4,39.1,16.2,58.1
	C70.9,574.7,74.6,584.6,78.4,595.1z"/>
<linearGradient id="SVGID_3_" gradientUnits="userSpaceOnUse" x1="221.9886" y1="811.615" x2="285.7798" y2="811.615" gradientTransform="matrix(1 0 0 -1 0 1000)">
	<stop  offset="0" style="stop-color:#F7931E"/>
	<stop  offset="1" style="stop-color:#FCEE21"/>
</linearGradient>
<path class="st10" d="M284.8,166.9c2.5,13.9,1.3,18.4-14.9,21.6c-9.4,1.9-18.9,3-27.3,7.9c-6.5,3.8-12.7,8.2-20.6,13.4
	c3.1-9.1,3.8-17.5,8.1-24.7c2.8-5.1,7.7-8.8,13.4-10.1c7.4-1.7,14.9-3.3,22.4-4.8C271.9,169,278.1,168.1,284.8,166.9z"/>
<path class="st2" d="M155.8,127.9c-4.4,0.7-8.7,1.9-13.1,2c-18.8,0.4-37.7,1.9-56.2-1.7c-9-1.7-17.6-5.2-26.3-8.3
	c-2.7-0.9-5.5-2.6-5-7c2.1-0.3,4.2-0.9,6.2-0.7c12.1,1.2,24.2,2.6,36.4,3.9c8.1,0.8,16.2,1.7,24.3,2.2c5.1,0.3,9.8,0.1,14.6,3.4
	c3.5,2.4,8.8,2.3,13.3,3.3c2,0.4,4,0.8,6,1.2L155.8,127.9z"/>
<path class="st7" d="M55.2,492c15.3-2.1,29.2,0.8,41.6,11.6l-36.9,21.5C55.2,518.4,52.8,502.4,55.2,492z"/>
<path class="st2" d="M216.6,64.4c1.3,3.4,2.4,6.4,3.7,10.2c-2-0.6-3.7-1-5.4-1.6c-1.8-0.6-3.6-1.8-5.4-1.9
	c-11.1-0.2-21.4-4.4-31.5-7.9c-14.1-5.1-27.8-11-41.2-17.7c-5.2-2.5-9.2-7.3-13.6-11.3c-1-0.9-1.3-2.7-2.7-6c5,1.7,9.1,2,11.7,4.1
	c11.8,9.8,25.8,14.9,39.6,20.6c11.9,5,24.4,7.7,37,9.6C211.6,63,214.2,63.8,216.6,64.4z"/>
<path class="st7" d="M61.3,593.3c-16.3,2.8-29.1-3.5-41.2-12.4c5.5-6.8,19.6-17.2,28.9-21.3L61.3,593.3z"/>
<path class="st1" d="M136.3,622.3c-1.7,8.5-3.1,17-7.1,25c-14.2-13.2-12.9-43.1,2.1-53.4c5,2,6.6,6.5,8.3,11.4
	c-3.7,3.7-10.3,5.1-9,12.3c0.6,3.5,3.3,3.9,5.7,4.9L136.3,622.3z"/>
<path class="st9" d="M102.3,505.8c5.5,5.6,5.6,7.3-0.1,11.3c-8.7,6-17.7,11.7-26.5,17.6c-3.8,2.5-7.4,5.3-11.7,8.5
	c-1.5-4.4-2.7-8.2-4.1-12.4C72.5,519.8,87.3,512.7,102.3,505.8z"/>
<path class="st9" d="M43.6,543c1.4,3.8,2.6,7.3,4.1,11.4c-5.8,4.4-11.3,8.7-16.9,12.9c-4.6,3.4-9.3,6.7-13.9,10
	c-3.1,2.3-6.3,3.1-9.8,1.1c-2.6-1.3-3.6-4.4-2.3-7c0.2-0.4,0.5-0.9,0.9-1.2c1.1-1.2,2.3-2.3,3.6-3.2c9.9-7.1,19.8-14.2,29.7-21.3
	C40.2,544.8,41.7,544.1,43.6,543z"/>
<path class="st0" d="M145.7,263.5h8.4c0,3.7-0.1,7.2,0,10.7c0.4,11,3.5,20.6,12.5,28c5.1,4.2,10.8,8.4,13.6,17.4
	c-5.9-5.5-10-10.4-15-13.8c-5.3-3.5-7.2-10.9-15.2-11.6c1.3,1.8,2.6,3.6,3.9,5.4s2.5,3.6,4,5.8c-4.2,2.1-8.1,2.4-11.7-0.9
	c-5-4.7-6.5-10.5-4.9-17.1c1.3-5.5,2.7-11,3.9-16.6C145.4,268.3,145.6,265.9,145.7,263.5z"/>
<path class="st2" d="M213.5,88l-4.2,3.3c-2.9-2.4-5.5-4.8-8.3-6.9c-7.9-5.9-17.1-9.7-26.9-11c-4.7-0.7-9.3-2.5-13.9-4.2
	c-4.8-1.8-9.6-3.9-14.2-6.2c-2.5-1.3-4.8-3.1-8.5-5.6c8.5-0.8,14.8-0.7,21.1,2.3c12.2,5.9,25.4,9.4,38.5,12.9c2,0.5,5,1.8,5.3,3.2
	C203.6,82.1,208.9,84.3,213.5,88z"/>
<linearGradient id="SVGID_4_" gradientUnits="userSpaceOnUse" x1="160.4086" y1="781.13" x2="191.9308" y2="781.13" gradientTransform="matrix(1 0 0 -1 0 1000)">
	<stop  offset="0" style="stop-color:#F7931E"/>
	<stop  offset="1" style="stop-color:#FCEE21"/>
</linearGradient>
<path class="st11" d="M165.2,232c-1.9-4.6-3.2-7.9-4.8-11.9c4.5-3.5,9-7.3,13.8-10.6s10-6.4,15.8-10c3.3,8.1,1.5,15.9,1,24l-2.5-4.1
	c-1.3-2.2-1.6-5.8-5.3-5.1c-4.1,0.8-3.2,4.5-3.2,7.3c-0.1,3.3,0.2,6.5,0.2,9.8c0,2.1-0.2,4.3-0.4,7c-4.5-5.1-3.5-13.1-11.2-16.8
	C167.5,225,166.6,227.8,165.2,232z"/>
<path class="st2" d="M175.3,475c-4.8,0.7-5.2-2.3-5.6-4.9c-0.9-6.5-2-13-2.2-19.5c-0.4-11.7-0.1-23.4,0.5-35.2
	c2.9,9.8,2.8,20,4.1,30.1C173.4,455.3,176,465,175.3,475z"/>
<path class="st12" d="M190,148.5c7.3-0.2,11.3,3.3,11.3,9.8c0,5.4-4.3,9.7-9.7,9.8c0,0-0.1,0-0.1,0c-6,0.1-10.9-4.7-11-10.7
	c0,0,0,0,0,0C180.4,152.2,184.2,148.6,190,148.5z M185.7,152.6c-1.2,4-1.9,8,2.4,10.9c2.8,1.9,7.2,1.5,8.8-1.4
	c1.1-2.3,1.3-5,0.5-7.4C196,151,192.9,150.7,185.7,152.6z"/>
<path class="st0" d="M221.5,369c5.6-9.4,13.8-6.2,21.3-5.6C237.8,375.3,232.9,376.6,221.5,369z"/>
<path class="st13" d="M73.5,471.7c-0.1-1-0.1-2.1,0-3.1c0.3-1.1,0.6-2.3,1-3.4l18.2,4.8c0.2,1.2,0.5,1.8,0.3,2.1
	c-1,1.5-2.2,2.9-3.4,4.5L73.5,471.7z"/>
<path class="st7" d="M92.8,484.4c-9.4-0.4-18.6-2.4-27.2-6.1C72.6,473.4,82.9,475.6,92.8,484.4z"/>
<path class="st7" d="M64.2,486.5c1.9-5.4,5.7-3.2,8.7-2.4c12.5,3.3,12.5,3.4,13.1,6.9L64.2,486.5z"/>
<path class="st2" d="M124.9,278.9c4.1,5.7,5.3,10.7,3.2,18.1C125,290.6,123.7,285.6,124.9,278.9z"/>
<path class="st2" d="M294.7,672.9c7.1-0.2,7.3,0,6.5,6.8c-6-0.5-6-0.5-6.2-7L294.7,672.9z"/>
<path class="st2" d="M333.8,450.6l7.7-3.3C338.9,454.8,338.9,454.8,333.8,450.6z"/>
<path class="st14" d="M242.9,359h-8.6C237.2,354.4,239.4,356.5,242.9,359z"/>
<path class="st1" d="M136.4,622.5c0.4-3.3-3.4-6.6,1.6-11.1c-0.7,4.6-1.2,7.7-1.7,10.9C136.3,622.4,136.4,622.4,136.4,622.5z"/>
<path class="st2" d="M309.3,635.1l-5.4-3l7.4-0.5c-1,1.6-1.6,2.6-2.2,3.6L309.3,635.1z"/>
<path class="st2" d="M502,497.1c2.2-8.4,4.2-16.9,6.6-25.3c0.6-1.7,1.9-3.2,3.6-4c5.4-2.6,10.9-4.8,16.4-7.1
	c2.8-1.2,5.7-2.3,9.5-3.8c-5.6-2.8-5.6-2.8-25,5.3c2.8-7.2,11.6-15.1,22.3-19.4c-2.6-6.7-5.3-13.5-7.9-20.2
	c8.3,3.8,14.6,10.6,23.6,25.8c2.7-4.5-0.1-8.5-0.6-12.4c-0.5-4.3-1.6-8.5-1.3-13.2c2.8,4.8,5.6,9.6,8.5,14.3
	c2.6,4.3,2.2,10.3,8,14.6v-24.8c5.3,8.1,9.4,16.2,9,25.9c-0.1,3-0.9,6.5,3.5,8.8c1.5-7.7,2.8-15,4.2-22.3h0.9c1.5,9,3,18,4.8,28.4
	c6-5.1,3.8-12,7.5-17.5c-1.2,23.8-0.3,46.6,6.2,70.6c3.8-6.9,4.9-13.9,11.7-16.4c0.7-0.3,2,1,2.2,1.2l14-6.5
	c0.2,2.2,0.3,3.3,0.5,4.6c3.3,0,6.8-0.4,10.1,0.2c2,0.4,6.1-0.1,4.7,4.5c-0.1,0.4,1.5,1.4,2.4,1.9c7.8,3.9,12.2,10.8,15.9,18.1
	c11,21.8,27.4,39.3,45,55.7c6.2,5.8,12.9,11,20.9,17.7l-10.8-2.4c0.5,1.3,0.5,2.3,0.9,2.5c9.9,2.8,14.5,11.2,19.4,19
	c3.2,5,5.5,10.7,7.7,16.3c7.2,17.8-2.8,38.6-16.9,48.2c-2,1.3-4.3,2-7.3,3.4c5.8,5.1,12.3,9.8,9.4,19.1c-6.8,2-13.9,0.9-20.9,0.3
	c-5.2-0.5-7.7-5.2-5.9-10.4c0.8-2.5,2.7-4.6,4.1-6.8c-6.1,0.4-7,1.9-8.9,15.3c-2.8,0.2-5.8,1-8.6,0.5c-2.4-0.4-6-2-6.4-3.7
	c-0.6-2.5,0.8-5.8,2.3-8.2c1.1-1.8,3.6-2.8,5.1-4.5c-8.9,1.2-11.6,7.4-11.8,15.2c-8.7-0.6-11.8-5.5-8-12.3c3.1-5.5,8.5-7.4,14.2-8.6
	c2.5-0.5,5.1-0.5,8.5-0.8c-1.2-1.5-1.5-2.5-2.1-2.6c-8.4-2.5-10.2-9.2-10.3-16.7c-0.3-13.7,4.2-25.7,13.8-35.7
	c1.1-1.1,2.1-2.3,3.1-3.6c0.1-0.1-0.2-0.5-0.3-0.7c-14.1,4.7-21.9,28.1-17.6,55c-6.8-5-12.8-9.1-18.3-13.8
	c-4.6-3.9-8.8-8.2-12.6-12.9c-1.7-2.1-2.6-4.7-2.7-7.3c0-5.2,1.2-10.3,1.3-15.5c0.2-26-1.2-51.8-8.1-77.1c-0.3-0.9-1-1.7-2.8-2.3
	c-0.1,1.9,0,3.9,0.3,5.8c5.6,23.7,8.1,48,7.5,72.3c-0.3,15.5-0.8,31.1-1,46.7c0,3,0.6,5.9,1.7,8.6c3.5,8.3,1.3,15.4-4,22
	c-2.4,3-5.7,3-9,1.9c-3.5-1.2-4.1-4.5-3.5-7.5c0.7-3.6,2.2-7.1,3.3-10.5c-5.3,1.9-6.1,3.6-7.2,16.3c-7.7,1.6-10.7-0.5-9.3-7.7
	c0.8-4.6,3.3-9,4.9-13c-4.1,1-4.1,1-10,16.4c-7.2-3.1-8.4-5.5-5.3-12.1c3.8-8,10.2-12.5,18.8-14.1c1.4-0.2,2.9-0.6,4.2-1.1
	c-4.3-1.7-4.4-4.8-4.3-8.4c0.5-14.7-2.6-28.6-7.2-42.5c-5.2-15.5-9.9-31.2-13.6-47.1c-2.2-9.4-2.1-19.4-3.2-30.7
	c-3.9,5.7-2.2,10.7-2.1,15.4c0.1,5.1,0.9,10.3-0.1,16c-1.2-2.4-3-4.7-3.5-7.3c-4.3-20.8-9.2-41.6-6.6-63.2c0.6-4.6,1-9.3,1.5-14
	l-2.3-0.6c-0.8,2.4-2,4.7-2.3,7.1c-2,15.8-2.5,31.5,1,47.2c3.1,14.1,5.4,28.4,8.8,42.5c2.9,11.9,6.8,23.6,10.5,36.2
	c-2,0.8-4.2,1.8-6.4,2.6c-2,0.7-4.1,1.7-6.2,1.7s-5.5-2.4-6.3-1.6c-3.3,3.1-4.5-0.3-6.4-2.1c-0.2,2.1-0.4,3.4-0.5,4.8
	c-0.5-0.2-1.2-0.3-1.4-0.6c-10.8-23.7-12.1-48.6-9.2-73.8c1.8-16,4.7-31.9,7-47.8c-0.1-0.8-0.3-1.6-0.6-2.3
	c-3.5-0.5-3.3,1.9-3.6,4.1c-2.3,15.9-4.5,31.9-6.9,47.8c-0.2,1.1-0.4,2.1-0.6,3l-19.9,4.8c-0.9-3.1-1.9-6.6-2.9-9.9l12-6.4l5.5,2.7
	c0.5-1,1.1-1.7,1-1.8c-2.5-3.4-5.2-6.8-8.7-11.4c-0.8,3.8-0.6,7.1-2.2,8.8c-2,2.2-5.5,3.1-7.9,4.4c-7.3-7.3-13.7-14.2-20.6-20.5
	c-5.2-4.9-12-7.9-19.1-8.4c-2.6-0.3-5.1-0.8-7.6-1.4c2.6-8.7,4.9-16.7,7.3-24.7c-0.8,11.3,4,14.7,17.4,12.5
	c8.4-18.9,8.5-34.8-0.1-43.8c-0.9,3.3,1.1,6.4-1.8,9.7C511.8,482,507.2,489.8,502,497.1z M549.5,470.5c-0.7,2.5-1.3,3.4-1,3.9
	c2.1,3.6,0.7,6-1.5,9.5c-4.8,7.2-8.8,15-11.9,23.1c-3.7,9.9,4.1,18.8,15.3,18.8C557.5,507.7,559.4,489.9,549.5,470.5L549.5,470.5z
	 M569.4,489.7c1.9-10.3-4.5-17.3-9.8-24.3c-3.2-4.3-7.7-8.3-14.6-7.5c5.3,5,10.9,9,14.9,14.3S566.3,483.8,569.4,489.7L569.4,489.7z"
	/>
<path class="st2" d="M542.9,591.7c-15.4-2.3-27.2-14.9-27.9-29.5c-0.3-2.6,0.7-5.3,2.7-7c3.7-3.5,6.4-7.9,9.5-12
	c12.8,4.3,16.7,24.7,17.2,43.9l-5.5-5.4l-1.4,1.1L542.9,591.7z"/>
<path class="st2" d="M510.6,577c1.7-0.1,3.7-0.8,4.2-0.3c3.6,4.4,9.3,7.7,8.6,14.8c-0.5,4.9-0.5,9.9,0,14.8
	c0.8,7.1-1.9,12.3-7.4,16.5c-0.4-1.8-0.7-3.6-1.4-6.9l-3.1,4.8l-7.2-2.9C506.3,604.7,508.4,591.3,510.6,577z"/>
<path class="st2" d="M468.3,563.3c1-2.1,2.5-4.6,3.5-7.3c0.7-1.7,1.1-3.5,1-5.3c-1-9.3,4-15.9,9.7-22.1c1.4-1.5,4.3-1.7,6.6-2.6
	c1.9,4.8,3.3,8.9,5.2,12.8s4.4,7.5,7.1,12L468.3,563.3z"/>
<path class="st2" d="M603.2,690.8c-4.4,0.6-6-0.9-6-4.8c0-6.2,3.8-10,8.1-13.5c1.8-1.6,3.9-3,6.1-4c6.7-2.8,7.8-8.3,7.7-14.5
	c-0.1-4.1,0.1-8.1,0.6-12.2c3.2,10.1,4,20.7,2.5,31.2C613.1,676.6,606.3,682.1,603.2,690.8z"/>
<path class="st2" d="M492.7,558.2c2-0.8,3.9-1.7,5.9-2.5c5.9-2.3,11.4,0.4,12.8,6.6c0.6,3.1,1,6.3,1.3,9.5
	C502.6,575.3,497.6,571.8,492.7,558.2z"/>
<path class="st2" d="M613.6,635.6c-5.3-17.5-10.1-33.4-14.9-49.2C607.8,595.1,615.9,622.2,613.6,635.6z"/>
<path class="st2" d="M671.4,677.4c-2.6,4-5.1,7-6.7,10.4c-1.5,3.1-2,6.7-2.9,10c-2.6,0.9-4.3,0.2-5-2.5c-1.5-6.1,5-17.4,11.2-19.1
	C668.9,676,670,676.9,671.4,677.4z"/>
<path class="st2" d="M680.2,681.7c-5.2,5.3-9.3,9.5-14.3,14.6c0.8-3.4,0.9-6.2,2-8.5c1.2-2.7,3.1-5.1,5.5-6.9
	C674.7,680,677.5,681.3,680.2,681.7z"/>
<path class="st2" d="M747.7,664.5l4.6,6.3c-5.2,1.2-5.4,0.9-4.6-6.1L747.7,664.5z"/>
<path class="st2" d="M747.7,664.6l9.5,1.8l-0.6,2.2c-3-1.4-5.9-2.7-8.9-4.1C747.7,664.5,747.7,664.6,747.7,664.6z"/>
<path class="st2" d="M499.5,648.6v-5.9h0.5v5.9H499.5z"/>
<path d="M263.9,210.5l9.5-6.1c1.5,3.2-0.8,4.4-2.4,5.3c-3.8,2-4.5,4.7-3.7,8.8c1.5,7.2,2.4,14.5,3.2,21.8c0.3,2.6,0.1,5.7-1,8
	c-4.3,8.2-11.4,13.9-18.8,19c-3.7,2.5-10-0.8-10.9-5.3c-0.8-4-1-8.1-0.7-12.2c0.8-8.7,2.2-17.3,3.5-25.9c0.3-1.9,0.9-3.7,1.7-5.4
	C248.1,209.8,254.1,204.5,263.9,210.5z M265.6,232.5c0.5-5.6,0.1-11-2.7-16.1c-13,6.8-18.6,16-18.7,30.4
	C253.5,236.1,255.4,236.6,265.6,232.5L265.6,232.5z M245.8,224.1l16.5-13c-4.4,0-7.3-0.9-9.2,0.2
	C248.8,213.8,246.1,217.9,245.8,224.1L245.8,224.1z M254.8,250.9c10.2,1.7,13.2-1.5,11-10.6L254.8,250.9z"/>
<path d="M152.4,234.4c-3.5-4.8-7.6-6.2-12.6-4.7c-4.8,8.1,0.2,14.6,3.5,21.2c-5.9,1.1-5.9,1.1-10-15.5c-1.7,2.8-3.3,5.4-4.9,7.9
	c-0.1,0.1-0.5,0-1.4-0.1c-0.8-6.2,1.9-10.7,6.8-14.1c5.7-3.9,11.8-3.9,17.9-1.1C154.2,229.2,154.6,231.1,152.4,234.4z"/>
<path d="M311.4,515.8h-10.5c3.7-4,7.3-1.8,10.5-2.5C311.3,514.2,311.3,515,311.4,515.8z"/>
<path d="M305.2,495.7h9.9c-3.4,3.7-6.6,2.3-9.7,1.8L305.2,495.7z"/>
<path d="M298.3,528.4l9.1,4.1C302.1,533.5,300.1,531.1,298.3,528.4z"/>
<path d="M282.2,474.2l5.6,1.4l-0.3,1.5l-5.6-1.3L282.2,474.2z"/>
<path d="M252.7,639c5.3,3,11.8,4.3,16.8,11c-7.7-1.1-12.3-5.7-18.7-7.2c0.9-1.6,1.5-2.7,2-3.8L252.7,639z"/>
<path d="M112.4,674.3c0.7,6.8,0.7,7.2,7.4,9.4c15.2,5,30.8,7.1,46.7,3.7c8.3-1.8,11.1-4.8,12.5-13.1c4.3,0.2,5.3,3.2,3.3,5.8
	c-2.4,3.5-5.7,6.4-9.5,8.4c-8.8,4.2-18.6,4.7-28.1,3.7c-9.2-1-18.2-3.3-27.2-5.5c-3-0.8-5.9-3-8.2-5.2
	C106.5,678.5,107.5,676.4,112.4,674.3z"/>
<path d="M185.7,152.6c7.2-1.9,10.3-1.6,11.7,2c0.8,2.5,0.6,5.1-0.5,7.4c-1.5,2.9-6,3.3-8.8,1.4C183.9,160.6,184.5,156.6,185.7,152.6
	z M188.4,155.4c-0.7,4.5,1.1,6.4,4.8,5.9c0.9-0.1,2.5-2.2,2.4-3.2C194.9,153.9,191.9,154.5,188.4,155.4L188.4,155.4z"/>
<path d="M549.5,470.5c9.9,19.4,8,37.2,0.8,55.1c-11.2,0.1-18.9-8.8-15.3-18.8c3.1-8.1,7.1-15.8,11.9-23.1c2.2-3.4,3.6-5.8,1.5-9.5
	C548.2,473.9,548.8,473,549.5,470.5z M547,489.7c-9.6,12-10,14.1-4.5,18.4C548.1,502.8,548.8,500.2,547,489.7z M548,523.6
	c1.4-4.3,2.4-7.2,3.2-9.8l-13.8,2.7L548,523.6z"/>
<path d="M502,497.1c5.2-7.3,9.8-15.1,15.7-21.8c2.9-3.3,0.9-6.4,1.8-9.7c8.6,9,8.5,25,0.1,43.8c-13.4,2.2-18.2-1.3-17.4-12.5
	L502,497.1z M517.4,481c-9.1,7.9-10,9.9-6.6,15.6C517.2,493.7,518.3,490.9,517.4,481z M505.7,500.6c1.7,5.5,4.1,7.5,8.5,7.3
	c3.7-0.1,4.3-2.4,4.3-4.8L505.7,500.6z"/>
<path d="M569.4,489.7c-3.1-5.9-5.5-12.3-9.5-17.5s-9.6-9.3-14.9-14.3c6.9-0.8,11.4,3.2,14.6,7.5
	C564.9,472.4,571.3,479.3,569.4,489.7z"/>
<path class="st2" d="M265.6,232.5c-10.2,4.1-12.1,3.6-21.4,14.3c0.1-14.4,5.6-23.6,18.7-30.4C265.7,221.5,266.1,227,265.6,232.5z"/>
<path class="st0" d="M245.8,224.2c0.3-6.3,3-10.3,7.3-12.8c1.8-1.1,4.8-0.2,9.2-0.2L245.8,224.2z"/>
<path class="st2" d="M254.8,250.9l11-10.6C268,249.4,265,252.6,254.8,250.9z"/>
<path class="st15" d="M188.4,155.4c3.5-0.9,6.5-1.5,7.1,2.7c0.1,1-1.4,3.1-2.4,3.2C189.5,161.8,187.7,159.9,188.4,155.4z"/>
<path class="st2" d="M547,489.7c1.8,10.5,1.1,13.1-4.5,18.4C536.9,503.8,537.4,501.7,547,489.7z"/>
<path class="st2" d="M548,523.6l-10.6-7.1l13.8-2.7C550.4,516.4,549.4,519.3,548,523.6z"/>
<path class="st2" d="M517.4,481c0.9,10-0.3,12.7-6.6,15.6C507.5,490.8,508.3,488.8,517.4,481z"/>
<path class="st2" d="M505.7,500.6l12.9,2.5c0,2.4-0.7,4.6-4.3,4.8C509.9,508,507.5,506,505.7,500.6z"/>
</svg>
