<?xml version="1.0" encoding="utf-8"?>
<!-- Generator: Adobe Illustrator 22.1.0, SVG Export Plug-In . SVG Version: 6.00 Build 0)  -->
<svg version="1.1" id="Calque_1" xmlns="http://www.w3.org/2000/svg" xmlns:xlink="http://www.w3.org/1999/xlink" x="0px" y="0px"
	 viewBox="0 0 913.1 820.3" style="enable-background:new 0 0 913.1 820.3;" xml:space="preserve">
<style type="text/css">
	.st0{fill:#FFFFFF;}
	.st1{fill:#FDF1BA;}
	.st2{fill:#998675;}
	.st3{fill:url(#SVGID_1_);}
	.st4{fill:url(#SVGID_2_);}
	.st5{fill:url(#SVGID_3_);}
	.st6{fill:#736357;}
	.st7{fill:#29ABE2;}
	.st8{fill:#FFFF00;}
	.st9{fill:#00BA00;}
	.st10{fill:#39B54A;}
	.st11{fill:#006837;}
	.st12{fill:#754C24;}
	.st13{fill:#8C6239;}
	.st14{fill:#C69C6D;}
</style>
<title>passe</title>
<path d="M380.7,215.6c0.3-1.4,1.2-2.9,1-4.2c-1.4-8.7,1.1-16.3,6.3-23.2c1.7-2.3,2.9-5.2,5.1-6.7c11.2-7.8,28.6-4.9,34.4,9.8
	c0,0.1,0.2,0.2,0.2,0.3c-0.1,6.8,4.8,7.9,10,9.3c5.7,1.5,11.2,3.7,16.6,5.5c-1.3-6.9-3.1-13.3-3.6-19.8c-0.8-10.3,2.8-19,9.8-27.1
	c6.8-7.9,16.1-9.8,24.8-10.1c12.1-0.6,24.1,2.9,33.9,10.1c7.1,5.3,14.4,10.4,21.3,15.9c9,7.3,17.7,14.9,26.6,22.4
	c9.2,7.8,18.8,15.3,27.7,23.4c10.4,9.4,22.2,16.5,34,23.7c8.6,5.3,16.9,10.9,25.2,16.6c3.4,2.3,7,4.9,9.5,8.1
	c1.7,2.4,2.3,5.5,1.8,8.4c-0.3,1.3-4.8,2.7-7.1,2.2c-7.2-1.6-14.2-4-21.3-6.2c-2.1-0.7-3-1-4.7,1.3c-1.4,2-4.7,3.4-7.3,3.5
	c-9.2,0.3-17.3-3.6-25.1-7.8c-7.1-3.8-13.8-8.4-20.8-12.6c-1.3-0.8-2.7-1.5-4-2.3c-2.3,4.3-4.5,4.8-10.7,3.5
	c-9.7-2.1-17.6-7.7-25.5-13.1c-3.6-2.4-6.6-5.6-10-8.2c-0.9-0.7-2.9-1.1-3.6-0.5c-6.3,5.2-12.5,10.5-15.4,19
	c13.4-2.5,24.7,1.1,34.8,9.3c-9.4-3.5-19-1.6-28.5-1.3c11.1,0.8,21.7,4.7,30.8,11.2c-1.6,0-3.7,0.7-4.8-0.1c-6.5-4.8-13.8-3.4-21-3
	c-1.9,0.2-3.8,0.7-5.6,1.5c17.6,3.8,29.6,15.1,40.5,27.9l-0.7,1.1c-0.7,0-1.4-0.1-2.1-0.4c-4.1-2.9-7.8-6.5-12.3-8.7
	s-9-5.6-14.9-3.5c-4.1,1.5-8.4,2.3-11.5,3.1c8,3.8,17.2,7.1,25.2,12.3c7.1,4.7,12.6,11.4,15.8,19.3c1.8,4.4,3.2,8.9,5,13.3
	c0.5,0.9,1.4,1.6,2.4,1.9c9.2,2,18.5,3.3,27.5,5.8c8.3,2.3,16.4,5.2,24.2,8.6c6,2.5,11.5,6.1,17.3,9.3c2.2,1.2,2.5,2.6,2.3,5.3
	c-1.4,15-10.7,26-18.8,37.5c-5.2,7.3-11.7,13.2-18.3,19.1c-5,4.4-9.2,9.8-13.8,14.8c-3.2,3.4-6.3,6.8-9.6,10.1
	c-1.5,1.5-3.1,2.9-4.7,4.3c-3.7,3.5-7.6,6.8-11,10.6c-8.6,9.7-17.8,18.9-24,30.6c-4,7.3-9.2,14-14,20.9
	c-9.8,13.9-21.3,26.8-26.6,43.3c-1.2,3.8-1.4,7.9-2,11.8c-1.3,10.2-2.4,20.3-3.9,30.5c-0.8,5.7-2.4,11.4-3.1,17.1
	c-0.2,1.5,1.7,3.2,2.6,4.7l1.8-0.4c-1.1,6.1-1.8,12.4-3.6,18.3c-0.7,2.2-3.7,3.7-6.3,6.1c0.7,5.3,0.7,11.7,2.3,17.7
	c3.8,13.5,8.5,26.7,12.9,40.2c14-0.8,28.2-2.1,42.3-2.5c20.2-0.5,40.5-0.6,60.7-0.4c10.4,0.1,20.8,0.9,31.3,1.5
	c12.5,0.7,25,1.5,37.4,2.4c6.2,0.4,12.5,1.5,18.7,1.4c11.9-0.3,23.6,1.7,35.4,1.8c6.2,0.1,12.5,1,18.7,1.5c7.3,0.6,14.7,0.9,22,1.6
	c8.8,0.8,17.6,2,26.4,3c11.3,1.2,22.5,2.1,33.8,3.4c15.9,1.7,31.8,3.7,47.7,5.5c9.8,1.1,19.5,2.1,29.3,3.2c4.2,0.5,8.5,0.9,12.6,1.7
	c1,0.2,1.8,1.8,2.7,2.8l-0.7,1.3c-2.5-0.3-5-0.6-7.5-0.9c-8.1-1.1-16.2-2.1-24.3-3.2c-7.2-1-14.4-2.2-21.6-3
	c-6.3-0.8-12.6-1.4-19-1.7c-10.8-0.5-21.5-1.8-32.2-3.2c-9.7-1.3-19.4-2.3-29.2-3.2c-13.8-1.2-27.6-2.1-41.4-3.2
	c-14.7-1.2-29.3-2.7-44-3.8c-5.7-0.4-11.5,0.2-17.2-0.2c-8.9-0.5-17.8-1.4-26.8-2.2c-3.1-0.3-6.2-0.6-9.3-0.8
	c-7.4-0.4-14.8-0.6-22.1-1c-8.8-0.5-17.6-1.3-26.3-1.4c-11.7-0.1-23.3,0.5-35,0.7c-8,0.1-16-0.3-24,0.1c-12.2,0.6-24.3,1.6-36.8,2.4
	c2.8,8,5.4,15.4,8,22.8c2.3,6.4,4.4,12.9,6.9,19.2c3.7,9.5,7.8,19,11.3,28.6c0.5,1.4,2.5,4.2-0.9,5.5c-0.6,0.2-0.9,1.5-1,2.3
	c-1.1,8-2.2,15.9-3.2,23.9c-0.2,1.3,0.3,2.7,0,3.9c-0.4,1.3-1.2,2.5-2.3,3.4c-0.3,0.3-2-0.5-2.7-1.2c-4.4-4.7-8.8-9.5-13-14.4
	c-3.4-3.9-6.5-7.9-10.6-12.7c-0.5-2.2-1.3-6.3-2.5-10.4c-3.1-10.9-6.2-21.8-9.4-32.6c-1.6-5.5-3.6-11-5.2-16.5c-1.4-5-2.4-10-3.6-15
	c-0.6-2.6-2.4-3.7-5-3.8c-12.1-0.7-24.2-1.5-36.4-2.1c-11.2-0.6-22.5-1.1-33.7-1.5c-6.3-0.2-12.6,0.4-18.8-0.5
	c-15-2.3-30.1-1-45.2-1.5c-10.6-0.3-21.2-0.9-31.8-1.6s-21.1-1.6-31.6-2.3c-6.3-0.4-12.5-0.6-18.8-0.8c-9.3-0.4-18.7-0.7-28-1
	c-3.9-0.1-7.8-0.3-11.6-0.2c-13.2,0.3-26.3,0.6-39.5,1.2c-16.7,0.8-33.4,2-50.1,2.8c-7.3,0.3-14.5-0.7-21.8-0.4
	c-8.3,0.3-16.5,1.6-24.8,2.1c-10.2,0.7-20.5,0.9-30.7,1.8c-10.9,1-21.8,2.5-32.6,3.7c-2.2,0.2-4.4,0-7.3,0c2.6-3.4,6-3.3,8.9-3.7
	c9.4-1.3,18.9-2.4,28.3-3.2c8.2-0.7,16.4-1,24.5-1.7c10.1-0.9,20.1-2.5,30.2-2.9c8.8-0.3,17.6,0.6,26.4,0.8
	c5.6,0.1,11.2-0.1,16.7-0.4c6-0.3,12.1-1.1,18.1-1.5c11.9-0.6,23.7-1.3,35.6-1.6c15.8-0.4,31.6-0.8,47.4-0.6
	c9.4,0.1,18.8,1.5,28.2,2.2c4,0.3,8.1,0,12.3,0c-0.2-2.2-0.5-4.7-0.5-7.3c0-6.8,4.6-11.2,8.6-15.7c1.8-2,4.6-3.1,6.6-5
	c1.1-1.4,1.9-3.1,2.2-4.8c0.6-2.3-1.3-2.8-3-3.7c-1.3-0.6-3.3-2-3.2-2.6c0.3-1.6,0.3-4.1,3.4-3.9c1.3,0.1,2.7-0.7,4.4-1.2l-1.9-7.8
	l16.1-2.2c2.1-16.5,4.2-32.8,6.3-49.2l-0.8-0.8c-2.7,2.4-5.2,5.1-8.1,7.1c-6.6,4.6-13.5,8.9-20.3,13.3c-4.4,2.9-8.7,0.8-12.1-1.2
	c-8-4.6-15.8-9.6-23.2-15.1c-8.1-5.9-15.9-12.2-23.2-19c-6.7-6.5-13-13.4-18.8-20.7c-3.7-4.5-6.5-9.7-10.1-14.3
	c-1.3-1.5-3.1-2.5-5.1-2.7c-6.2-0.5-9.5-4-10.7-10.3c-0.8-4.5-2.9-8.7-4.6-13c-2.5-6.6-5.5-13-7.7-19.7c-1.2-3.6,3.8-9.6,8.1-11.1
	c1.1-0.6,2.1-1.4,2.8-2.4c4.5-4.6,6.3-11.8,13.7-13.4c0.3-0.1,0.6-0.3,0.7-0.5c2-5.1,2.8-5.8,7.1-8c1.5-0.6,2.8-1.7,3.6-3.2
	c2-4.5,5-8.5,9.5-9.5c6-1.3,11.1,2.7,14,7.4c3.3,5.4,4.9,11.8,7.4,18.2c2.3-0.9,5.6-2,8.9-3.4c8.8-3.7,17.8-6,27.3-5.6
	c4.5,0.2,7,6,3.9,9.8c-3.5,4.4-7.7,8.3-12.3,11.5c-11.5,7.7-18.7,18.5-24.6,30.6c-1.3,2.7-4.5,4.5-7.5,7.4l36.2,34.4
	c7.4-6.7,15.2-13.3,22.4-20.5c4.9-4.9,9.3-10.4,12.9-16.3c5.8-9.5,10.5-19.7,15.9-29.5c2.1-3.9,4.9-7.5,7.2-11.4
	c0.3-0.9,0.1-1.8-0.4-2.6c-7.2-8.7-12.4-18.7-14.2-29.5c-1.5-9.3-1.5-19.2,1.7-28.6c1.7-5,3.9-9.9,5.7-14.9c0.5-1.2,0.5-2.6,0-3.9
	c-3.8-6.9-6.1-14.5-6.7-22.4c-0.4-6.1,0.5-12.2,2.5-18c3.6-10.5,10.7-18.4,21.4-22.3c4.1-1.5,8.3-2.6,11.9-3.7
	c-7.5-34.2-4.4-67.2,13.6-98.9c-5.1-1.2-10-2.7-15.1-3.4c-7-1-12.6-4.6-18.3-8.5c-13.2-9-17.7-23.1-21.7-37.3
	c-2.2-7.8-2.5-16.1-3.5-24.2c-1.2-11.2-1.7-22.5-3.4-33.6c-1.8-11.5-4.7-22.8-7.3-34.1c-2.3-9.9-4.1-19.9-7.4-29.5
	c-4.2-12.1-9.9-23.7-14.8-35.6c-3.4-8.2-6.6-16.5-9.6-24.8c-1.1-3.1-1-6.7,2.3-8.8c2.2-1.5,4.6-2,7.1,0.2c8.5,7.4,15.3,16.7,19.8,27
	c3.5,7.7,7.1,15.4,10.6,22.9c-0.1-0.9,0-1.8,0.2-2.6c1-2.1,1.1-5.4,4.4-5.1c2.3,0.2,5.4,0.8,6.7,2.4c4.5,5.2,8.6,10.9,12.1,16.8
	c7.6,13,12.6,27.4,14.8,42.4c0.3,0.9,0.6,1.8,1.1,2.6c3.5-3.8,6.5-1.8,9.2,0.6c4.7,4.2,7.1,9.9,8.5,15.8c2.5,10.5,4.7,21.2,6.2,31.9
	c1.1,7.5,1,15.2,1.4,22.9c7.5,1.8,8.3,8.1,9.1,14.2c1,7.4,1.8,14.9,2.6,22.3L380.7,215.6z M450.8,460.3c2.4-1.2,5.3-2.4,7.8-4.2
	c4.4-3.2,8.6-6.8,12.9-10.1c3.2-2.5,6.8-4.6,9.5-7.6c2.1-2.3,3.1-5.5,4.5-8.4c2.2-4.6,4.8-9,6.4-13.8c1.3-4.6,2.2-9.3,2.6-14.1
	c0.4-3.7,0.2-7.4,0.2-11.1c0-1.4-0.4-3.2,0.2-4.2c2.8-4.1,2.2-8.8,1.7-13.1c-0.3-2.7,0.7-3.1,2.5-3.8c3.1-1.2,6.4-2.1,9.1-3.9
	c5.7-3.9,9.3-9.7,12.3-15.8s4.2-12.2-0.6-18.2c-3.8-4.8-12.1-7-16.4-3.7c-1.9,1.6-3.5,3.5-4.9,5.5c-2.2,2.9-5,5.6-6.3,8.9
	c-4,9.4-5.3,19.4-5.7,29.5c0,1.1-1,2.1-1.5,3.1c-0.5-1-1.4-2-1.5-3c-0.4-6.7-0.7-13.5-0.9-20.2c-0.1-7.3-0.1-14.5,0.1-21.8
	c0.2-4.1,0.8-8.1,1.5-12.1c0.9-5,2.3-10,3-15c0.8-6.3-1.5-11.9-4.7-17.1c-5.2,3.5-10.4,6.8-15.5,10.3c-4.6,3.1-4.8,4.8-3.9,10.4
	s1.1,11.3,1.6,17l-1.7,0.6c-4.3-5.6-6.5-12.6-10.9-18.5c-1.5,1-3.1,2-4.8,2.8c-3.6,1.5-4,3.9-3.2,7.5c0.9,3.7,1.2,7.5,1.1,11.2
	c-0.2,6.1-0.7,12.3-1.6,18.4c-0.6,4.8-1.7,9.6-3.4,14.1c-2.2,5.5-8.6,6.5-12.4,2c-2.3-2.9-3.9-6.3-4.5-10
	c-1.5-9.4-2.1-18.8-3.1-28.1l-42.5,18.7c0.4,0.2,1.3,0.6,2.1,1.1c4,2.3,8,4.6,11.9,7c0.5,0.3,0.9,1.8,0.6,2.1c-0.6,0.7-1.5,1-2.5,1
	c-1.1-0.3-2.1-0.8-3-1.4c-5.3-2.6-10.4-5.9-15.9-7.9c-9.7-3.4-19.3-1.1-29,1.1c-12.2,2.7-22.7,16.8-24,28.7
	c-0.8,7,0.6,13.6,2.7,20.4c4.2,13.1,11.8,24.7,22.1,33.8c9.3,8.4,20.9,13.7,33.3,15.2c14.7,1.7,29.1,0.5,42.1-8.3
	c7.6-5.1,11-12.7,14.4-20.4c0.6-1.3-0.7-3.5,0-4.7c3.4-6,1.9-11.7-0.1-17.8c2.4-1.3,4.6-1.2,5,2c0.5,4,0.5,8,0.9,12.1
	c0.2,2.1,0.1,4.4,1,6.1c2.3,4.1,4.9,8.1,7.7,12c2.9,4.3,4.4,9.3,4.4,14.5C451.7,446.2,451.1,453.1,450.8,460.3L450.8,460.3z
	 M569.3,377.3l1,1.5c-1.1,1.2-2.3,2.3-3.6,3.3c-12.6,8.3-24.3,17.9-34.8,28.8c-6.5,6.6-11.9,14.3-16,22.6c-0.5,0.8-1.2,1.5-2,2
	c-0.2,0.1-1.5-0.7-1.5-0.9c0.3-1,0.6-2,1.2-3c0.7-1.2,1.5-2.4,2.6-4.2c-1.7,0.3-2.6,0.4-3.4,0.7c-10.1,2.9-19.4,7.6-28.3,13
	c-9.5,5.7-19.2,11.2-26.6,19.7c-1.2,1.3-1.8,2.9-1.9,4.6c0.3,4.1,1,8.2,1.9,12.2c4.2,17.2,11.5,33.2,19,49.2
	c3.5,7.5,6.7,15,10.1,22.6c1,2.3,2.2,4.5,3.5,7.2c1.3-2.6,2.3-4.5,3.3-6.4c3.1-5.5,5.8-11.2,9.4-16.3c4.8-7,10.4-13.5,15.3-20.4
	c5.3-7.3,10.1-14.9,15.2-22.4c3.9-5.7,7.7-11.4,11.7-16.9c1.8-2.6,3.9-5,6.2-7.2c4.9-4.7,10.1-9,14.9-13.7
	c5.3-5.1,10.2-10.6,15.3-15.9c6.8-6.9,14.1-13.2,20.4-20.5c6.8-7.9,13.9-15.7,18.6-25.3c2.1-4.3,5.5-8,7.5-12.3
	c3.4-7.1,1.6-12.5-5.5-15.9c-4.8-2.3-9.6-4.5-14.5-6.5c-7.7-3-15.5-6.1-23.4-8.5c-6.3-1.9-12.9-2.7-19.3-3.8
	c-1.6-0.3-3.4,0.6-4.8,0.1c-3.4-1.2-6.4-3.2-9.8-4.2c-4.7-1.2-9.5-2.2-14.4-2.9c-3.3-0.6-6.7-0.8-10.4-1.3
	c1.1,12.3-5.3,20.7-12.3,28.9c11.1,7.4,23.1,13.2,35.7,17.3c5.6,1.9,10.1,2.1,14.4-2.6C565.3,378.8,567.5,378.3,569.3,377.3z
	 M383.4,217.4c-2.2,2.6-4.6,4.9-6.2,7.6c-4.6,7.8-9.1,15.6-13.3,23.6c-2.9,5.5-5.9,11.2-7.6,17.2c-3.3,11.3-5.3,23-6,34.8
	c-0.6,10.3-0.1,20.6,1.4,30.9c0.3,2.2,2,4.1,2.7,6.3c1.3,3.9,4,1.3,5.9,1.2c7-0.2,14.1,0.9,20.9-2.2c7.2-3.3,14.9-5.5,22.1-8.8
	c8.7-4.1,17.1-8.8,25.5-13.4c8-4.3,16.2-8.3,23.9-13.1c9.1-5.7,17.9-12,26.5-18.5c7.3-5.5,14.3-11.6,21.3-17.7
	c5.5-4.8,5.7-7.6,1.3-13.6c-2.8-3.9-5.9-7.5-9.2-10.9c-2.7-2.7-6-4.8-9-7.1l-1,0.9c0.4,1.6,0.9,3.1,1.5,4.7
	c4.3,9.4-3.1,15.9-11.1,17.3c-3.8,0.7-9.5-3.5-10.7-6.8c-2.7-7.4-2.1-11.5,2.9-15.2c3.2-2.4,5.9-4.5,2-8.4c-0.2-0.1,0-0.5-0.1-0.8
	c-3.3-5.3-5.4-11.5-12.3-13.8c-8.4-2.8-16.6-6.1-25.4-9.4c-0.6,12.3-7.4,18.8-17.8,21.7C401.1,226.7,391.5,225,383.4,217.4z
	 M201.1,544.2c0.8,1,1.8,2.2,2.7,3.3c6.9,8.7,13.4,17.9,20.9,26.1c6.7,7.1,14.1,13.6,22,19.4c9.9,7.4,20.3,14,30.8,20.5
	c2,1.2,5.8,1.1,8.1,0.1c11.1-5,20.5-12.5,28.7-21.4c1.3-1.3,1.8-3.6,2.1-5.6c1-6.5,0.9-13.3,2.7-19.6c3-10.9,4.1-22.3,9.1-32.7
	c4-8.4,7.5-17,10.6-25.8c1.1-3.1,3.6-6.5,0.4-10c-2.1-2.3-3.9-5-5.9-7.5c-2.6-3.3-3.7-3.2-5.7,0.4c-5.1,9.3-10.9,18.2-15,27.9
	c-6.6,15.7-19.3,25.8-31,37c-4.8,4.5-9.8,9-12.4,15.4c-1.9,3.9-5.4,6.8-9.6,7.8l7.7-12.6c-4.9-4.7-10-9.8-15.2-14.9
	c-6.1-6-12.2-12.1-18.5-17.8c-1.8-1.6-4.7-3.6-6.6-3.3c-4.5,0.8-9.3,1.2-13.3,4.5S205.4,541.3,201.1,544.2z M556.3,196.4
	c-2.5-3.5-4.1-6.9-6.8-9.2c-7.8-6.8-15.8-13.5-24.3-19.6c-9.1-6.6-18.9-12.1-30.3-13.7c-12.4-1.7-24.1-1.3-33.4,9.4
	c-7.4,8.4-8.4,18-7,28.3c1.2,8.6,5.2,16,10.1,23.1c2.7,4,5.2,8.3,7.2,12.7c1.3,2.8,1.5,6.6-1.8,7.8c-4.2,1.4-6,4-6.2,7.8
	c-0.3,4.2,1.7,7.4,5.7,9.2c3.4,1.5,8.1,0.9,10.3-2.7c1.3-2.2,2-6.4,0.7-8.2c-2.9-4.2-2.5-8.4-2-12.7c0.7-6.1,7.6-12.7,12.3-10.8
	c4.9,2,9,6,13.2,9.3c3.5,2.7,6.6,5.8,9.9,8.8l1-1c-2.1-10.4-8.9-17.5-16.7-24c-8.2-6.8-18.4-7.8-28.1-11.1c-0.6-3.1,1.5-3.5,4-3
	c2,0.5,3.9,1.2,5.8,2.1c5.4,2.2,10.7,4.8,17.5,3.9c-0.4-1.9-0.3-4.2-1.3-5.3c-2.7-2.8-5.8-5.1-9.2-7c-3.9-1.9-8.3-2.8-12.4-4.3
	c-1.1-0.4-1.9-1.7-2.8-2.6l0.9-1.6c2.5,0.7,5.1,1,7.3,2.1c10.4,4.7,20.8,9.6,31.1,14.5c4.1,1.9,7.6,5,12.6,4.5
	c2.5-0.2,4.5-1.4,3.3-3.9c-2-4.1-3.9-9.1-7.3-11.5c-10.6-7.5-22.1-13.9-35.1-16.5c0.2-3.3,1-3.9,3.5-3.1c2.3,0.8,4.5,1.8,6.9,2.4
	c10.8,3,19.9,9,28.7,15.4c8.6,6.4,18.8,10.4,29.5,11.5C553.7,197.3,554.5,196.9,556.3,196.4z M364.8,204.7c0-5.7,0.2-11.4,0-17.2
	c-0.3-5.9-0.9-11.8-1.5-17.6c-0.7-7.4-1.6-14.9-2.4-22.3c-1.3-10.5-4.1-20.8-8.3-30.5c-1.1-2.8-2.9-6.5-8.2-6.9
	c-0.1,4-0.7,7.8-0.3,11.5c0.8,7.3,2.4,14.5,3.3,21.8c1.5,12.5,2.1,25.2,7.2,37.1c0.6,1.4,1.1,2.9,1.6,4.3c2.2,6.7,4.3,13.5,6.6,20.2
	c2.3,6.4,4.9,12.6,7.3,18.7c-3.3,2-5.4,1.7-5.6-2.5c-0.2-1-0.6-2-1.1-2.9c-4-11.4-7.9-22.8-12-34.1c-1.4-3.8-3-7.6-4.9-11.2
	c-0.7-1.3-2.4-2.1-3.6-3.2c-0.9,1.5-2.3,3-2.6,4.6c-1.4,8,0,15.8,1.8,23.5c0.9,3.7,2,7.3,3,10.9l-1.1,0.8c-1.2-0.8-3.2-1.3-3.5-2.3
	c-1.4-4.7-2.4-9.6-3.6-14.4c-1-4.1-1.9-8.3-3.2-12.3c-2.1-6.1-5.3-12-6.9-18.3c-2.4-10-8.1-17.8-14.8-25.1c-0.7-0.8-2.1-1-3.2-1.5
	c-0.5,1.8-3.5,1.2-3,4.4c2,12.7,3.4,25.4,5,38.2c1.4,11.7,4.3,23,9.6,33.6c5.7,11.3,15.9,17,26.7,21.4c5.2,2.2,11.4,2.2,17.1,3.1
	c0.9,0,1.7-0.4,2.2-1.1c2.7-4.1,5.3-8.2,7.8-12.4c0.5-0.8,0.7-1.7,0.7-2.6c-0.5-7.8-0.8-15.5-1.7-23.2c-0.5-4.3-2.1-8.4-3.1-12.6
	l-1.3,0.2c-0.4,1.3-0.8,2.6-0.9,4c-0.2,3.6-0.1,7.3,0.4,10.9C369,203.2,368.1,205,364.8,204.7L364.8,204.7z M531.9,261.1
	c-6.3-1.9-12.6-2.8-19.1-1.5c-1.6,0.3-3.9,0.6-4.5,1.7c-4.9,8.8-13.5,13.5-20.5,20c-2.2,2-2.3,3.3-1.1,6c1.9,4.2,4.2,8.9,4,13.3
	c-0.5,8.5-2.9,16.8-3.8,25.2c-1.1,9.9-1.5,19.8-2.2,29.6c3.7-8.2,7-16.3,11-24.2c2.6-5,7.6-8.2,13.2-8.5c5.9-0.4,11,2.9,14.8,7.8
	c0.7,0.9,1.2,2.5,1.9,2.6c6.4,1.2,12.9,2.1,19.5,3.2c-2.8-11.4-9.7-18.3-21.1-18.5c-2.9-0.1-2.9-0.1-1.8-2.8
	c13.8,0.8,24.2,7.9,33.4,17.6c0-0.6,0.3-1.2,0.1-1.6c-3.3-5.4-6-11.3-10.1-15.8c-4.5-4.8-9.8-8.9-15.5-12.1
	c-6.2-3.5-12.6-8.3-20.6-4.5c-0.2,0.1-1.4-1.2-1.3-1.7c0.5-3.5,3-5,6.2-6c3-0.9,5.9-2,8.8-3.1c-5.3-3-11.4-1.2-16.3-4
	c11.8-1.7,22.5,1.8,33,6.6c-9.5-8.3-20.9-12.1-33.4-14.6c1.2-1.5,2.5-2.7,4-3c6.4-1.2,12.8-2,19.2-3l0.1-0.4l-19.8-2.3l-0.9-2.8
	C516.3,259.9,524.2,261.8,531.9,261.1z M534,196.9l-0.7,0.6c6.6,5.5,13.2,10.9,19.7,16.5c7.3,6.2,14.4,12.6,21.7,18.9
	c4.3,3.7,8.3,8,13.2,10.8c12.7,7.1,24,16.5,37.7,22.1c9.5,3.9,18.9,8.1,28.9,10.5c2.5,0.6,5.8,1.8,8.8-2c-4.1-3.6-7.7-7.5-12-10.4
	c-13.1-8.7-26.4-17.1-39.7-25.5c-11.8-7.5-22.1-16.6-32.4-25.9c-6.1-5.5-12.3-10.9-18.9-16.7c-0.1,4.5-3.2,6.2-7.4,5.3
	C546.5,199.6,540.3,198.3,534,196.9z M346.4,166.1c-0.6-4.1-1.2-8.3-1.7-12.4c-0.4-3.8-0.6-7.7-1.2-11.4c-1-6.1-2.1-12.1-3.3-18.2
	c-2.3-11.9-4.2-24-7.3-35.7c-3.4-12.9-10.2-24.4-17.9-35.3c-1.8-2.5-4.5-4.3-6.8-6.4l-1.6,0.7c0,3.2-0.2,6.4,0,9.6
	c0.3,5.3,0.3,10.7,1.5,15.9c3,12.8,6.7,25.3,9.8,38.1c3.8,15.3,4.6,31.3,11.4,46c2.8,5.9,4.7,12.4,7.3,19.6
	C337.4,168.2,339.8,165.9,346.4,166.1z M488.4,434.9c7.9-3.2,17.1-7.2,26.6-10.3c1.9-0.6,3.5-1.8,4.7-3.4
	c5.8-6.6,11.4-13.6,17.7-19.8c5-5,11-9,16.8-13.7c-4.5-1.8-8.9-3.3-13.1-5.2c-7.8-3.5-15.7-6.9-23.1-11.2c-4.5-2.6-8-4.6-12.3-0.3
	c-0.5,0.5-1.5,0.6-2,1.1c-1,1.2-2.4,2.4-2.6,3.8c-0.8,5.9-1.1,11.8-1.7,17.7c-0.5,5-0.7,10.2-2.1,15
	C494.6,418,491.1,427.1,488.4,434.9L488.4,434.9z M436,416.2c-4.5,17.4-17.6,24.9-32.1,30.5c12.5,18.8,15.4,39.5,13.8,61.5
	c4.2-5.6,7.8-11.7,11.9-17.3c7.8-10.6,13.7-22,16.7-34.8c2.1-8.6,2.6-17.1-0.8-25.5C443.4,425.5,441,420.4,436,416.2L436,416.2z
	 M318.6,139.5l1-0.3c-0.1-1.5-0.2-3-0.4-4.5c-0.6-2.8-1.3-5.5-2-8.3c-2.5-11.4-4.8-23-7.5-34.3c-2-8.1-4.3-16.1-6.8-24.1
	c-3.1-10-5.9-20.2-10-29.8c-3.5-8.1-8.3-15.7-13-23.2c-3.2-4.8-7.5-8.8-12.6-11.6c0,2-0.3,3.3,0,4.4c3.3,9.6,6.2,19.4,10.1,28.7
	c6.8,15.9,14.4,31.2,17.7,48.2c1.3,6.6,2.8,13.1,4.2,19.6c1.8,8,3.8,16,5.1,24.1c0.5,2.8,1.1,4.3,4,3.7c4-0.8,6.4,1.5,8.6,4.3
	C317.7,137.5,318.2,138.5,318.6,139.5z M384.1,481.6c9.4-0.1,15.9-3,22.5-5.8c3-1.3,5.3-2.4,3.7-6c-2.6-6-5.7-11.8-8.1-17.9
	c-1.7-4.5-5.2-4.9-8.7-4.3c-10.2,1.9-20.1,0.5-29.6-2.8c-4-1.4-6-0.4-8.4,2c-1.6,1.6-3,3.3-4.1,5.2c-4.1,7-3.7,10.3,3.1,14.9
	c6.2,4.2,12.6,8,19.3,11.4C377.6,480.2,381.9,480.9,384.1,481.6z M340.3,493.4c1-9.6,1.8-18.9,3.1-28.1c1.3-9.3,4.5-18,12.7-24.4
	c-15.2-4.9-23.2-16.6-31.4-28.6c-7.4,11-8.4,23.4-7.7,35.5C317.9,466,329.2,479.7,340.3,493.4z M193.1,514.2
	c-0.1,0.9-0.1,1.5-0.1,2.1c-0.5,5.6,0,11.6-5.8,15.3c-0.5,0.4-0.3,3.1,0.4,4.1c4.4,6.1,9.1,6.8,15.4,2.6c4.6-3.1,9.2-6.5,13.8-9.7
	c2.6-1.8,5.8-0.7,8.3-1.4c10.8-3,12.8-2.5,15.5-14.3c0.8-3.6,1.3-7.6,3.4-10.3c2.6-3.4,6.5-5.8,10.1-8.3c4.9-3.5,10.1-6.6,15-10.1
	c3.5-2.3,5.1-6.7,3.7-10.7c-1.8-0.2-3.4-0.8-4.9-0.5c-9.5,2-19,4.2-27.7,9c-2.2,1.2-3,2.3-2.8,4.7c0.7,6-0.1,12.1-2.3,17.8
	c-1.5,3.9-4.4,6.5-7.5,5.5c-1.5-0.5-2.6-2-4.1-3.3c-0.6,4.6,1.1,9.8-3.9,12c-4.7,2.1-8.5-0.4-12-4c-0.7,1.4-1.2,2.6-1.9,3.7
	c-1.6,2.4-3.9,3.1-6.2,1.4C197.1,518.1,195.1,516.2,193.1,514.2z M403.3,222.1c6.6-0.8,12.7-3.7,17.5-8.3c4.3-4,4.3-8.9,4.2-14.2
	c-0.1-8.6-4.8-13.9-12.1-17.3c-5.6-2.6-14.8-0.3-19.2,4.8c-2.8,3.3-5.3,6.8-7.3,10.6c-3,5.6-1.3,16.3,3.8,19.5
	C394,219.7,398.9,220.5,403.3,222.1L403.3,222.1z M525.6,207.1c5.5,6,11.2,12.9,17.7,19c5.7,5.4,12.3,9.9,18.5,14.8
	c13,10.6,27.1,19.9,42,27.6c6.1,3.1,12.9,4.9,19.6,6.7c1.6,0.5,3.9-1.3,5.8-2c-1-1.3-2-2.4-3.1-3.5c-1-0.9-2.1-1.6-3.3-2
	c-9.4-3.2-17.2-9.2-25.5-14.3c-15.8-9.6-29.6-21.7-43.4-33.8c-7.5-6.6-15.1-13-22-19L525.6,207.1z M493.3,789.9
	c6.8-2.3,13.3-4.4,19.7-6.9c1.7-0.7,3-2.1,3.6-3.9c0.4-1.7-0.7-3.7-1.4-5.5c-3.9-10.2-8.4-20.2-11.6-30.6
	c-2.9-9.6-10.9-12.8-17.9-17.9C480.5,747.6,483,768.7,493.3,789.9z M499.4,206.7c6.8,6.2,14.2,13,21.6,19.8
	c10.8,10,22,19.5,35.2,26.1c3.6,1.8,7.7,2.5,11.6,3.4c1,0.2,2.3-0.9,3.5-1.4c-0.5-1-1.2-2-2-2.8c-7.9-6.4-16.1-12.5-23.8-19.1
	c-5.5-4.6-10.5-9.7-15.5-14.8c-2.6-2.7-5.1-5.6-7.3-8.6c-0.5-0.9-0.9-1.9-1.2-3c-7.7-0.3-13.1-6.5-19.9-8.8
	C500.9,200.2,500.3,202.9,499.4,206.7L499.4,206.7z M379.3,683.4l0,1.1c-7.1-1.7-13.3,0.8-19.3,4.1c-6.8,3.7-7.1,8.6-0.6,12.6
	c1.5,0.8,3,1.5,4.6,2c7.2,2.9,15.1,3.7,22.8,2.3c4.1-0.8,8.1-2.2,11.9-3.9c3-1.2,4.8-4.3,4.3-7.5c-0.5-3.8-2.5-6.5-6.2-7.4
	C391,685.3,385.1,684.5,379.3,683.4z M397.6,707.3l67.5,2.4c-2.3-7.1-4.4-13.8-6.7-20.9l-57.6-4.6l5.6,7.3c1.8-1.3,3.6-3.4,5.7-3.9
	c3.2-0.5,6.4-0.6,9.6-0.1c6.5,0.6,10.7,5.4,10.4,11.9c-0.2,2.2-1.3,4.2-3,5.6c-7,5-17.4,2.5-22.7-4.7L397.6,707.3z M229.6,506.8
	c1.2-3,2.7-5.1,2.9-7.4c0.6-7.2,1.4-14.5,0.6-21.5c-0.6-5.1-1.5-10.7-4.7-15.1c-5.4-7.4-11.7-7.9-16.5-1.2c-1.1,1.5-1.4,3.5-2.1,5.2
	l1.2-0.9c1.1,1.5,2.2,3.2,3.1,4.8c1.7,3.2,3.2,6.6,4.5,10c1.7,5.1,2.9,10.3,4.5,15.5c0.5,1.7,1.2,3.3,2,4.9c0.6,0.9,1.2,1.8,2,2.6
	L229.6,506.8z M477.2,705c1.7-5.8,3.2-11.2,4.8-16.6c0.8-2.5,1.6-4.7,0.4-7.6c-2.3-5.3-4.1-10.8-6.2-16.3l-17.8,11.5
	c1.2,3.5,3,7.5,3.6,11.6C463.4,696.6,468.9,701.5,477.2,705z M219.4,507.5c-0.8-8.3,0.7-16.2-3.4-23.3c-2.2-3.8-3.5-8.2-5.7-12
	c-1.8-3.3-5.2-4-7.8-2.3c-2.8,1.8-3.7,5.4-2.2,8.3c2.8,4.9,5,9.8,5.5,15.8c0.5,6.5,0.5,13.7,5.7,18.9c1.4,1.3,3.1,2.1,4.9,2.3
	c0.7,0.1,2.1-1.8,2.5-3C219.3,510.8,219.5,509.1,219.4,507.5z M201.8,516.6c3.6-6.5,1.4-34.4-7.4-39.4l-10,13.5
	c2.3,3.6,4.7,5.8,5.2,8.5C191.3,506.8,196.6,511.3,201.8,516.6L201.8,516.6z M446.9,665.6l10.4-7c6-4.1,11.8-8.5,17.9-12.2
	c7.2-4.3,9.3-8.1,7.8-16.3c-9.1,6-18,11.8-26.9,17.7c-2.4,1.6-5.9,2.8-6.9,5.1C447.6,656.5,447.7,660.9,446.9,665.6L446.9,665.6z
	 M469.1,631.2c-5.2,2.8-10.6,5.8-16.1,8.6c-2.9,1.5-5.5,1.6-5.2-3c0-0.6-0.8-1.2-1.3-2.1l-13.7,11c3.8,0.8,7,1.5,10.1,2
	c2.8,0.4,5.6,1.2,8.5-0.8c9.8-6.9,19.8-13.5,30.3-20.7c-2.7-1.9-4.9-4.1-7.5-5.3c-1.4-0.6-3.7,0-5.2,0.8c-0.8,0.4-1.3,2.4-1.3,3.6
	C467.9,627,468.5,628.7,469.1,631.2L469.1,631.2z M516.5,786.6l-24.3,7.2l21.2,18.9C514.3,804.6,515.4,795.8,516.5,786.6z
	 M512.9,240.1c-4.9-4.5-10-9.5-15.5-14.1c-2.3-1.8-4.9-3.2-7.7-4.1c-3.1-1.2-4.9,1.3-6.2,3.5s0.7,3.4,2.3,4.4s3.8,2,5.1,3.4
	c3.9,4.3,7.5,8.8,11,13L512.9,240.1z M189.9,515.8c-0.4-7.5-2.8-17.3-8.7-20.6c-0.9-0.5-2.6-1-2.8-0.7c-1.4,2.1-3.9,5-3.3,6.7
	c2.8,8.4,6.3,16.5,9.7,24.6c0.5,0.6,1.3,1,2.1,0.9c0.5,0,1.2-0.9,1.4-1.5C188.9,521.9,189.4,518.4,189.9,515.8z M435.5,355.8
	c-4.5-1.8-4.9-6.1-5.3-9.7c-0.5-4.4,0-9,0.3-13.5c0.2-3.1,0.8-6.2,1.1-9.3c0.1-1,0.3-2.7-0.2-3c-1.1-0.5-2.3-0.7-3.5-0.4
	c-4.1,1.1-4.6,4.8-4.4,7.9c0.7,8.9,1.9,17.8,3.1,26.7c0.3,3.6,3.1,6.6,6.7,7.1c1.6,0.2,4-2.4,5.1-4.2s1.2-4.3,1.8-6.5l-0.6-0.3
	L435.5,355.8z M334.6,685.5c-7,1-14,1.9-21,3c-1.2,0.5-2,1.5-2.2,2.7c0.1,4,0.7,7.9,1.1,11.7l18.1,1.3
	C323.5,695.2,324.7,690.4,334.6,685.5z M450.1,569.3c-13.6,8-12.1,7.1-22.4,3.8c-3.8-1.2-5.3-0.6-5.9,3.2
	c5.8,5.6,11.6,10.8,20.4,7.4c1.3-0.5,2.4-1.3,3.2-2.4c1.3-1.6,2.3-3.4,3.1-5.4C449.2,573.7,449.8,571.5,450.1,569.3z M307.7,703.5
	c-9-5.1-17.8-10-23.8-18.2c-4.4,3.5-4,8.3-3.8,13c0.1,2.1,0.1,4.2,3.8,3.6c3.3-0.6,6.8,0.3,10.3,0.6L307.7,703.5z M431.5,649.5
	c-0.3,5.4-0.4,10.4-0.9,15.2c-0.3,2.8,0.3,3.9,3.3,3.7c1.6,0,3.1,0.2,4.6,0.6c2.6,0.6,4.1,0.3,4.2-3c0.1-3.5,1.1-7,1.3-10.6
	c0.1-1.3-1-3.6-2-3.9C438.6,650.6,435.1,649.9,431.5,649.5L431.5,649.5z M435.4,571.4l0.1-0.4c1,0.1,2.1,0.1,3.1,0
	c5.3-0.7,7.5-4.9,5.4-9.6c-1.9-4-5.7-4-9.1-4.6c-1.6-0.1-3.2,0.5-4.3,1.7c-1.9,2.5-3.6,5.1-5.2,7.8c-1.1,1.8-1.4,3,1.4,3.3
	S432.5,570.7,435.4,571.4L435.4,571.4z M454.9,673.3c2.6-0.9,5.2-2,7.6-3.3c2.5-1.5,4.5-3.8,7-5.3c5.2-3.2,8-7.2,5.6-13.9
	c-1.7,0.9-3.3,1.8-4.8,2.8c-4.4,3.2-8.6,6.7-13.1,9.7C451.9,666.9,451.7,667.1,454.9,673.3L454.9,673.3z M418.5,690.6
	c-1.1,0-2.4-0.4-3.1,0.1c-2,1.4-4.8,3-5.1,4.9c-0.4,2.2,0.9,6.6,2.3,7c4.7,1.4,10,3.1,14.4-1c0.9-0.8,1.8-2.7,1.5-3.8
	C427.2,692.6,424.1,690.5,418.5,690.6L418.5,690.6z M498.6,731.4c-0.3-4.8-1.4-8.3-5.1-10.7c-3.4-2.1-6.8-4.1-10.1-6.4
	c-5.3-3.8-10.5-7.9-15.8-11.8l-0.9,0.9c2,2.9,1.4,6.9,6,9c5.2,2.5,9.5,6.8,14.2,10.4C490.6,725.4,494.3,728.2,498.6,731.4
	L498.6,731.4z M339.1,689.8c-4.9,0-9.1,2.8-9.1,6c0,4.2,3.7,7.4,8.7,7.4c4.7,0,8.8-3.8,8.7-8.1C347.3,691.5,344.7,689.8,339.1,689.8
	z M285.4,681.9c3.4,3.7,6,7.2,9.2,9.9c3.5,2.8,7.3,5.3,11.2,7.4c0.6,0.3,1.8-0.4,2.7-0.6c-1.4-2.9,0.2-6.6-4-8.9
	c-5-2.8-9.2-7.1-13.7-10.8l0.5-1.3L285.4,681.9z M306.9,690c0.3-7.7,0.6-14,1-21.4c-4.5,2.1-8.4,3.7-12,5.9
	c-0.9,0.5-1.5,3.5-0.9,4.1C298.6,682.5,302.6,686,306.9,690z M344.7,490l1,0.1c3.6-5,7.4-10,10.9-15.1c0.3-0.5-0.4-2.2-1.1-2.8
	c-2.7-2.2-5.6-4.2-9-6.6C345.8,473.9,345.3,482,344.7,490L344.7,490z M444.7,618.4l15-6l-1.9-6.9l-16.5,3.7
	C442.6,612.7,443.6,615.4,444.7,618.4L444.7,618.4z M456.3,601.5c-0.9-2.5-1.5-5-2.8-6.8c-0.4-0.6-3.1,0.5-4.8,0.8
	c-0.4,0-0.8,0-1.2,0.1c-3.6,1-7.2,2-11.1,3.2c0.8,1.6,1.6,2.5,1.7,3.5c0.4,3.3,2.4,3.5,4.9,2.8C447.3,603.9,451.5,602.8,456.3,601.5
	z M477.8,719.6c-2.4,9.1-2,15.2,1.8,26.2c0.8-7.3,1.7-14,2.4-20.7C482.3,722.2,480.4,720.6,477.8,719.6L477.8,719.6z M452.2,589.9
	c-1.2-2.7-2-4.7-3-7.1c-3.1,8.1-10.4,3.9-15.3,6c-0.2,5.8,1.2,6.8,6.3,5.2C444.1,592.6,448,591.3,452.2,589.9z M462.2,621.6
	l-1.6-5.5l-9.9,3.8c-5.2,2-5.5,2.9-2.4,8L462.2,621.6z M484.1,710.1c1.5-7.3,4.4-14.5-0.2-22.3c-1.4,5.4-2.5,10.2-4,14.9
	C478.8,706.6,480.4,708.6,484.1,710.1L484.1,710.1z M436.7,327.2c-2.4,3.1-2.2,15.9,0.5,19.9C441.3,340.3,442.6,333.8,436.7,327.2z
	 M451.5,636.7c3.6-1.9,7-3.5,10.3-5.5c1-0.6,1.6-2.1,2.3-3.2c-1.4-0.4-3-1.5-4.1-1.2c-3.6,1.2-7,2.8-10.4,4.3L451.5,636.7z
	 M440.6,312.5l-7.2,4l9.3,12.7C441.9,323.2,441.3,318.3,440.6,312.5z M308.5,655.7l-17.5,4.9C298,664.3,307.5,661.3,308.5,655.7z
	 M295.7,650.5l2.3,5.7c8.4-1.6,10.9-3.1,11-6.9L295.7,650.5z M339,685.3c8.5,2.3,9.5,2.9,11,6.6l7.3-6.6H339z M546.3,325.3l-1.4,1.3
	c1.5,3.5,3,7,4.6,10.5c0.3,0.4,0.8,0.7,1.3,0.8c2.2,0.5,4.4,0.9,6.6,1.3l0.8-1.1L546.3,325.3z M494,716.9l-5.7-15
	C486.9,713.8,486.9,713.8,494,716.9z M507,253.9l9.4-12.8l-12.1,7.4C505.3,250.5,506.2,252.3,507,253.9L507,253.9z M347.5,704.5h9.7
	l-6-6.9C350.1,699.6,348.8,702,347.5,704.5z M473.8,729.1c0.6-4.5,1.1-7.9,1.5-11.2l-4.6-3.7C471.8,719.2,472.7,723.6,473.8,729.1
	L473.8,729.1z M517.6,228.5c0.5,3.2,0.8,5.8,1.2,8.4l6-2.7L517.6,228.5z M297.6,668.9l11.1-4.5C301.6,662.9,297.9,664.2,297.6,668.9
	L297.6,668.9z"/>
<path d="M813.9,176.1l1,0.5l-0.6,0.5l0,0c-0.1-0.2-0.3-0.5-0.4-0.7c0-0.1,0-0.3,0-0.4L813.9,176.1z"/>
<path d="M813.5,177.5h-0.7v0.1l-0.1-0.4h0.8L813.5,177.5z"/>
<path class="st0" d="M812.2,178.2v-0.8h0.4c0,0.3,0,0.5,0,0.8v-0.1L812.2,178.2z"/>
<path d="M812.5,178.2c0-0.3,0-0.5,0-0.8l-0.1,0.1h0.4v-0.1L812.5,178.2z"/>
<path d="M812.9,175.7l0.4-0.4l0.3,0.4h0H812.9L812.9,175.7z"/>
<path d="M812.2,176.7l0.4-0.6V176c0,0.3,0,0.5,0,0.8L812.2,176.7z"/>
<path class="st0" d="M813.5,177.5l0.1-0.4h0h0.4h0l0.1,0.4H813.5z"/>
<path d="M812.5,177.5h-0.4c0-0.1,0-0.2,0-0.3l0.4-0.1V177.5L812.5,177.5z"/>
<path d="M814,177.5l-0.1-0.4h0.4l0,0L814,177.5z"/>
<path class="st0" d="M812.5,177.1l-0.4,0.1v-0.4l0.4,0.1v-0.1L812.5,177.1L812.5,177.1z"/>
<path d="M812.2,178.2l0.4-0.1L812.2,178.2z"/>
<path d="M813.5,175.7l0.4,0.4V176l-0.4,0.1L813.5,175.7L813.5,175.7z"/>
<path d="M812.5,176.1l0.4-0.4h-0.1l0.1,0.4L812.5,176.1L812.5,176.1z"/>
<path class="st1" d="M450.8,460.3c0.3-7.2,0.9-14,0.8-20.9c0-5.2-1.5-10.2-4.4-14.5c-2.8-3.9-5.4-7.9-7.7-12c-0.9-1.7-0.9-4-1-6.1
	c-0.3-4-0.3-8.1-0.9-12.1c-0.4-3.2-2.6-3.4-5-2c2,6,3.6,11.8,0.1,17.8c-0.7,1.2,0.6,3.4,0,4.7c-3.5,7.7-6.9,15.3-14.5,20.4
	c-13,8.8-27.4,10-42.1,8.3c-12.4-1.5-24-6.9-33.3-15.2c-10.3-9.1-17.9-20.7-22.1-33.8c-2.1-6.8-3.5-13.3-2.7-20.4
	c1.4-11.9,11.8-26,24-28.7c9.8-2.2,19.4-4.5,29-1.1c5.5,1.9,10.6,5.2,15.9,7.9c0.9,0.6,1.9,1.1,3,1.4c0.9,0,1.8-0.3,2.5-1
	c0.3-0.3-0.1-1.8-0.6-2.1c-3.9-2.4-7.9-4.7-11.9-7c-0.8-0.5-1.7-0.9-2.1-1.1l42.5-18.7c1,9.3,1.7,18.8,3.1,28.1
	c0.6,3.7,2.2,7.1,4.5,10c3.8,4.5,10.3,3.4,12.4-2c1.7-4.6,2.8-9.3,3.4-14.1c0.9-6.1,1.4-12.2,1.6-18.4c0.1-3.8-0.3-7.6-1.1-11.3
	c-0.8-3.6-0.4-6,3.2-7.5c1.7-0.8,3.3-1.8,4.8-2.8c4.4,5.9,6.6,12.8,10.9,18.5l1.7-0.6c-0.5-5.7-0.7-11.4-1.6-17s-0.7-7.2,3.9-10.4
	c5.1-3.5,10.3-6.9,15.5-10.3c3.2,5.3,5.6,10.8,4.7,17.1c-0.7,5-2.1,10-3,15c-0.8,4-1.3,8-1.5,12.1c-0.3,7.3-0.3,14.5-0.1,21.8
	c0.1,6.8,0.5,13.5,0.9,20.2c0.1,1,1,2,1.5,3c0.5-1,1.5-2.1,1.5-3.1c0.4-10.1,1.8-20.2,5.7-29.5c1.4-3.3,4.1-6,6.3-8.9
	c1.4-2,3-3.9,4.9-5.5c4.4-3.3,12.6-1.1,16.4,3.7c4.8,6,3.6,12.1,0.6,18.2s-6.6,11.9-12.3,15.8c-2.7,1.8-6,2.7-9.1,3.9
	c-1.8,0.7-2.8,1.1-2.5,3.8c0.5,4.4,1.1,9-1.7,13.1c-0.7,1-0.2,2.8-0.2,4.2c-0.1,3.7,0.2,7.5-0.2,11.1c-0.4,4.8-1.3,9.5-2.6,14.1
	c-1.6,4.8-4.2,9.3-6.4,13.8c-1.4,2.9-2.4,6.1-4.5,8.4c-2.7,3-6.3,5-9.5,7.6c-4.3,3.4-8.4,6.9-12.9,10.1
	C456.1,457.9,453.2,459,450.8,460.3z M520.9,343.4c2.1-3,0.5-7-4.6-10.8c-3.6-2.8-12.1-1.8-14.6,1.6c-3.1,4.4-3.4,6.1-1.3,7.8
	c4.1-7.1,5.3-8.7,12.2-7L508,349c-2.9-0.4-5.6-1.6-4.8,2.9c10.9-0.2,9.5-9.4,12-16.6L520.9,343.4z"/>
<path class="st1" d="M569.3,377.3c-1.8,0.9-4,1.5-5.2,2.9c-4.2,4.7-8.8,4.4-14.4,2.6c-12.6-4.1-24.7-9.9-35.7-17.3
	c7-8.1,13.3-16.6,12.3-28.9c3.7,0.4,7,0.7,10.4,1.3c4.8,0.7,9.6,1.7,14.4,2.9c3.4,1,6.5,3,9.8,4.2c1.4,0.5,3.3-0.4,4.8-0.1
	c6.5,1.1,13,2,19.3,3.8c7.9,2.4,15.7,5.5,23.4,8.5c4.9,1.9,9.7,4.2,14.5,6.5c7.2,3.4,8.9,8.7,5.5,15.9c-2,4.3-5.4,8-7.5,12.3
	c-4.7,9.6-11.7,17.4-18.6,25.3c-6.3,7.3-13.6,13.6-20.4,20.5c-5.2,5.2-10.1,10.7-15.3,15.8c-4.8,4.7-10,9-14.9,13.7
	c-2.3,2.2-4.3,4.6-6.2,7.2c-4,5.6-7.8,11.3-11.7,16.9c-5.1,7.5-10,15-15.2,22.4c-4.9,6.9-10.5,13.4-15.3,20.4
	c-3.5,5.2-6.3,10.9-9.4,16.3c-1,1.9-2,3.8-3.3,6.4c-1.3-2.7-2.5-5-3.5-7.2c-3.4-7.5-6.6-15.1-10.1-22.6c-7.5-16-14.8-32-19-49.2
	c-1-4-1.6-8.1-1.9-12.2c0.1-1.7,0.7-3.4,1.9-4.6c7.4-8.5,17.1-14,26.6-19.7c9-5.4,18.3-10,28.3-13c0.8-0.2,1.7-0.4,3.4-0.7
	c-1.2,1.8-2,3-2.6,4.2c-0.5,0.9-0.9,1.9-1.2,3c0,0.2,1.2,1,1.5,0.9c0.8-0.5,1.5-1.2,2-2c4.1-8.4,9.5-16,16-22.6
	c10.5-10.9,22.1-20.5,34.8-28.8c1.3-1,2.5-2.1,3.6-3.3L569.3,377.3z M481.5,504.5l0.9,1c1.1-0.5,2.8-0.7,3.3-1.6
	c1.8-2.8,3.4-5.7,4.8-8.7c5.1-10.2,13.3-17.8,21.1-25.7c0.8-0.8,1-2.1,1.5-3.2c-1.4,0.1-3.3-0.3-4,0.5c-5.7,6.4-11.5,12.8-16.6,19.6
	C488.4,492.2,485.2,498.5,481.5,504.5z M620.7,383.7l1.1,0.1c4-5.6,4-10.9-0.5-13c-1.6-0.7-3.7-5-5.9-1.2c2.4,2.2,5.4,3.8,6.3,6.2
	C622.7,378,621.2,381,620.7,383.7z"/>
<path class="st2" d="M383.4,217.4c8.1,7.6,17.6,9.3,27.9,6.5c10.4-2.9,17.2-9.5,17.8-21.7c8.8,3.3,17,6.6,25.4,9.4
	c6.9,2.3,9,8.5,12.3,13.8c0.1,0.2,0,0.6,0.1,0.8c3.9,3.9,1.2,6-2,8.4c-5,3.8-5.6,7.8-2.9,15.2c1.2,3.3,6.9,7.5,10.7,6.8
	c8-1.4,15.4-7.9,11.1-17.3c-0.6-1.5-1.1-3.1-1.5-4.7l1-0.9c3,2.3,6.3,4.4,9,7.1c3.3,3.4,6.4,7,9.2,10.9c4.4,6,4.1,8.8-1.3,13.6
	c-6.9,6.1-13.9,12.1-21.3,17.7c-8.6,6.5-17.4,12.7-26.5,18.5c-7.7,4.8-15.9,8.9-23.9,13.1c-8.5,4.5-16.8,9.3-25.5,13.4
	c-7.2,3.4-14.9,5.5-22.1,8.8c-6.8,3.1-13.9,2-20.9,2.2c-1.9,0.1-4.6,2.7-5.9-1.2c-0.7-2.2-2.3-4.1-2.7-6.3
	c-1.5-10.2-2-20.6-1.4-30.9c0.7-11.8,2.7-23.4,6-34.8c1.7-6,4.7-11.6,7.6-17.2c4.2-8,8.7-15.9,13.3-23.6
	C378.8,222.3,381.3,220,383.4,217.4z"/>
<path class="st1" d="M201.1,544.2c4.3-2.9,8.8-5.5,12.8-8.7s8.8-3.7,13.3-4.5c2-0.4,4.9,1.6,6.6,3.3c6.3,5.8,12.4,11.9,18.5,17.8
	c5.2,5,10.4,10.1,15.2,14.9l-7.7,12.7c4.2-1,7.7-3.9,9.6-7.8c2.6-6.4,7.6-10.8,12.4-15.4c11.7-11.2,24.4-21.3,31-37
	c4.1-9.7,9.9-18.7,15-27.9c2-3.6,3-3.6,5.7-0.4c2,2.5,3.7,5.1,5.9,7.5c3.2,3.5,0.7,6.9-0.4,10c-3.1,8.8-6.6,17.4-10.6,25.8
	c-5.1,10.4-6.1,21.8-9.1,32.7c-1.8,6.3-1.7,13.1-2.7,19.6c-0.3,1.9-0.8,4.2-2.1,5.6c-8.3,8.8-17.6,16.4-28.7,21.4
	c-2.3,1-6.1,1.1-8.1-0.1c-10.5-6.5-20.9-13.1-30.8-20.5c-7.9-5.8-15.3-12.3-22-19.4c-7.6-8.2-14-17.3-20.9-26.1
	C202.9,546.3,201.9,545.2,201.1,544.2z"/>
<g id="_Groupe_">
	<path class="st0" d="M549.6,187.2c2.6,2.3,4.2,5.7,6.8,9.2c-1.9,0.5-2.6,0.9-3.3,0.8c-10.7-1.1-20.9-5.1-29.5-11.5
		c-8.8-6.4-17.9-12.5-28.7-15.4c-2.3-0.6-4.6-1.6-6.9-2.4c-2.5-0.9-3.3-0.2-3.5,3.1c13,2.6,24.4,9,35.1,16.5
		c3.5,2.5,5.4,7.4,7.3,11.5c1.2,2.4-0.8,3.6-3.3,3.9c-4.9,0.5-8.5-2.6-12.6-4.5c-10.3-4.9-20.7-9.8-31.1-14.5
		c-2.3-1-4.9-1.4-7.3-2.1l-0.9,1.6c0.9,0.9,1.7,2.2,2.8,2.6c4.1,1.5,8.5,2.4,12.4,4.3c3.4,1.9,6.5,4.2,9.2,7c1.1,1,0.9,3.4,1.3,5.3
		c-6.8,0.9-12.1-1.6-17.5-3.9c-1.9-0.9-3.8-1.6-5.8-2.1c-2.5-0.5-4.7-0.1-4,3c9.7,3.3,20,4.3,28.1,11.1c7.8,6.5,14.6,13.7,16.7,24
		l-1,1c-3.3-2.9-6.4-6-9.9-8.8c-4.2-3.4-8.4-7.3-13.2-9.3c-4.7-2-11.7,4.6-12.3,10.8c-0.5,4.3-0.9,8.5,2,12.7c1.3,1.8,0.6,6-0.7,8.2
		c-2.2,3.6-6.9,4.2-10.3,2.7c-4-1.8-6-5-5.7-9.2c0.2-3.8,2-6.4,6.2-7.8c3.4-1.1,3.2-5,1.8-7.8c-2-4.4-4.5-8.7-7.2-12.7
		c-4.9-7.1-8.9-14.5-10.1-23.1c-1.4-10.3-0.3-19.8,7-28.3c9.3-10.7,21-11.1,33.4-9.4c11.4,1.6,21.2,7.1,30.3,13.7
		C533.7,173.7,541.7,180.4,549.6,187.2z"/>
</g>
<path class="st0" d="M364.8,204.7c3.3,0.3,4.2-1.5,3.6-5.2c-0.4-3.6-0.6-7.2-0.4-10.9c0.2-1.4,0.5-2.7,0.9-4l1.3-0.1
	c1.1,4.2,2.6,8.4,3.1,12.6c0.9,7.7,1.2,15.5,1.7,23.2c0,0.9-0.2,1.8-0.7,2.6c-2.5,4.2-5.1,8.4-7.8,12.4c-0.5,0.7-1.4,1.1-2.3,1.1
	c-5.7-0.9-11.9-0.9-17.1-3.1c-10.9-4.5-21.1-10.1-26.7-21.4c-5.3-10.6-8.2-21.9-9.6-33.6c-1.5-12.7-3-25.5-5-38.2
	c-0.5-3.3,2.5-2.7,3-4.4c1.1,0.5,2.5,0.7,3.2,1.5c6.7,7.3,12.4,15,14.8,25.1c1.5,6.3,4.7,12.1,6.9,18.3c1.4,4,2.2,8.2,3.2,12.3
	c1.2,4.8,2.1,9.7,3.6,14.4c0.3,1,2.3,1.6,3.5,2.3l1.1-0.8c-1-3.6-2.2-7.3-3-10.9c-1.8-7.7-3.3-15.6-1.8-23.6
	c0.3-1.6,1.7-3.1,2.6-4.6c1.2,1.1,2.9,1.9,3.6,3.2c1.9,3.6,3.5,7.4,4.9,11.2c4.1,11.4,8,22.8,12,34.1c0.5,0.9,0.8,1.9,1.1,2.9
	c0.2,4.2,2.3,4.5,5.6,2.5c-2.4-6.1-5-12.3-7.3-18.7c-2.4-6.7-4.4-13.4-6.6-20.2c-0.5-1.5-1-2.9-1.6-4.3c-5.1-11.9-5.6-24.6-7.2-37.1
	c-0.9-7.3-2.5-14.5-3.3-21.8c-0.4-3.7,0.1-7.5,0.3-11.5c5.4,0.4,7.1,4.1,8.2,6.9c4.1,9.7,6.9,20,8.3,30.5c0.9,7.4,1.7,14.9,2.4,22.3
	c0.6,5.9,1.2,11.8,1.5,17.6C365,193.2,364.8,199,364.8,204.7z"/>
<linearGradient id="SVGID_1_" gradientUnits="userSpaceOnUse" x1="484.5701" y1="567.867" x2="555.6544" y2="567.867" gradientTransform="matrix(1 0 0 -1 0 875.0009)">
	<stop  offset="0" style="stop-color:#F7931E"/>
	<stop  offset="1" style="stop-color:#FCEE21"/>
</linearGradient>
<path class="st3" d="M531.9,261.1c-7.7,0.7-15.7-1.1-23,3l0.9,2.8l19.8,2.3l-0.1,0.4c-6.4,1-12.8,1.9-19.2,3c-1.5,0.3-2.8,1.5-4,3
	c12.4,2.5,23.8,6.3,33.4,14.6c-10.5-4.8-21.2-8.2-33-6.6c5,2.9,11.1,1.1,16.3,4c-3,1.1-5.9,2.2-8.8,3.1c-3.1,1-5.7,2.5-6.2,6
	c-0.1,0.5,1.2,1.8,1.3,1.7c8-3.8,14.4,1,20.6,4.5c5.8,3.2,11,7.3,15.5,12.1c4.2,4.6,6.9,10.6,10.2,15.9c0.2,0.4,0,1-0.1,1.6
	c-9.2-9.7-19.7-16.8-33.4-17.6c-1.1,2.7-1.1,2.8,1.8,2.8c11.4,0.2,18.3,7.2,21.1,18.5c-6.6-1-13.1-2-19.5-3.2
	c-0.8-0.1-1.2-1.7-1.9-2.6c-3.8-4.9-8.9-8.1-14.8-7.8c-5.6,0.3-10.6,3.5-13.2,8.5c-4,7.8-7.3,16-11,24.2c0.7-9.7,1.1-19.7,2.2-29.6
	c0.9-8.5,3.4-16.8,3.8-25.2c0.2-4.4-2.1-9-4-13.3c-1.2-2.7-1.1-4,1.1-6c7-6.4,15.7-11.2,20.5-20c0.6-1.1,2.9-1.4,4.5-1.7
	C519.3,258.3,525.6,259.2,531.9,261.1z"/>
<path class="st0" d="M534,196.9c6.3,1.4,12.5,2.7,18.7,4.1c4.3,1,7.3-0.8,7.4-5.3c6.6,5.8,12.8,11.2,18.9,16.7
	c10.3,9.3,20.6,18.5,32.4,25.9c13.3,8.4,26.6,16.8,39.7,25.5c4.3,2.9,8,6.8,12,10.4c-3,3.7-6.3,2.6-8.8,2
	c-10-2.4-19.3-6.6-28.9-10.5c-13.7-5.6-25-15-37.7-22.1c-4.9-2.7-8.9-7.1-13.2-10.8c-7.3-6.3-14.4-12.6-21.7-18.9
	c-6.5-5.6-13.1-11-19.7-16.5L534,196.9z"/>
<path class="st0" d="M346.4,166.1c-6.6-0.2-8.9,2.1-9.6,10.3c-2.7-7.2-4.5-13.6-7.3-19.6c-6.9-14.6-7.6-30.6-11.4-46
	c-3.1-12.7-6.9-25.3-9.8-38.1c-1.2-5.1-1.1-10.6-1.5-15.9c-0.2-3.2,0-6.4,0-9.6l1.6-0.7c2.3,2.1,5,4,6.8,6.4
	c7.7,10.9,14.5,22.3,17.9,35.3c3.1,11.7,4.9,23.8,7.3,35.7c1.2,6,2.3,12.1,3.3,18.2c0.6,3.8,0.7,7.6,1.2,11.4
	C345.2,157.9,345.8,162,346.4,166.1z"/>
<linearGradient id="SVGID_2_" gradientUnits="userSpaceOnUse" x1="425.9655" y1="366.8604" x2="425.9655" y2="458.7804" gradientTransform="matrix(1 0 0 -1 0 875.0009)">
	<stop  offset="0" style="stop-color:#F7931E"/>
	<stop  offset="1" style="stop-color:#FCEE21"/>
</linearGradient>
<path class="st4" d="M436.1,416.2c4.9,4.2,7.3,9.2,9.4,14.4c3.4,8.3,2.9,16.9,0.8,25.5c-3.1,12.8-9,24.2-16.7,34.8
	c-4.1,5.6-7.7,11.7-11.9,17.3c1.6-22-1.3-42.6-13.8-61.5C418.5,441.1,431.6,433.6,436.1,416.2z"/>
<path class="st0" d="M318.6,139.5c-0.4-1-1-2-1.6-2.9c-2.2-2.7-4.5-5-8.6-4.3c-2.9,0.6-3.5-0.9-4-3.7c-1.4-8.1-3.4-16.1-5.1-24.1
	c-1.4-6.6-3-13.1-4.2-19.6c-3.2-17-10.9-32.4-17.6-48.2c-4-9.3-6.9-19.1-10.1-28.7c-0.4-1.1,0-2.4,0-4.4c5.1,2.8,9.4,6.7,12.6,11.5
	c4.8,7.5,9.6,15.1,13,23.2c4.1,9.6,6.9,19.8,10,29.7c2.5,8,4.8,16,6.8,24.1c2.7,11.4,5,22.9,7.5,34.3c0.6,2.8,1.4,5.5,2,8.3
	c0.2,1.5,0.4,3,0.4,4.5L318.6,139.5z"/>
<path class="st1" d="M384.1,481.6c-2.3-0.7-6.6-1.4-10.3-3.3c-6.6-3.4-13.1-7.2-19.3-11.4c-6.8-4.6-7.3-7.8-3.1-14.9
	c1.2-1.9,2.6-3.6,4.1-5.2c2.3-2.4,4.4-3.4,8.4-2c9.5,3.3,19.4,4.7,29.6,2.8c3.5-0.6,7-0.3,8.7,4.3c2.3,6.1,5.5,11.9,8.1,17.9
	c1.6,3.6-0.7,4.8-3.7,6C400,478.6,393.5,481.5,384.1,481.6z"/>
<linearGradient id="SVGID_3_" gradientUnits="userSpaceOnUse" x1="336.4226" y1="381.5905" x2="336.4226" y2="462.6305" gradientTransform="matrix(1 0 0 -1 0 875.0009)">
	<stop  offset="0" style="stop-color:#F7931E"/>
	<stop  offset="1" style="stop-color:#FCEE21"/>
</linearGradient>
<path class="st5" d="M340.3,493.4c-11-13.8-22.3-27.4-23.3-45.6c-0.7-12.1,0.4-24.4,7.7-35.5c8.3,12,16.2,23.6,31.4,28.6
	c-8.2,6.4-11.4,15.1-12.7,24.4C342,474.5,341.3,483.8,340.3,493.4z"/>
<path class="st1" d="M193.1,514.2c1.9,2,4,3.8,6.1,5.5c2.4,1.7,4.6,1,6.2-1.4c0.7-1.1,1.2-2.3,1.9-3.7c3.4,3.5,7.3,6,12,4
	c5.1-2.3,3.3-7.4,3.9-12c1.6,1.3,2.7,2.8,4.1,3.3c3.1,1,6-1.6,7.5-5.5c2.2-5.6,3-11.7,2.3-17.7c-0.2-2.4,0.6-3.5,2.8-4.7
	c8.7-4.8,18.2-7,27.7-9c1.5-0.3,3.1,0.3,4.9,0.5c1.4,4-0.1,8.4-3.7,10.7c-4.9,3.5-10.1,6.6-15,10.1c-3.6,2.5-7.5,5-10.1,8.3
	c-2.1,2.7-2.6,6.8-3.4,10.3c-2.6,11.8-4.6,11.3-15.5,14.3c-2.6,0.7-5.7-0.4-8.3,1.4c-4.6,3.3-9.1,6.6-13.8,9.7
	c-6.3,4.2-11,3.5-15.4-2.6c-0.7-1-1-3.7-0.4-4.1c5.8-3.7,5.2-9.7,5.8-15.3C193,515.8,193.1,515.2,193.1,514.2z"/>
<path class="st6" d="M403.3,222.1c-4.4-1.5-9.3-2.3-13.1-4.8c-5-3.3-6.8-13.9-3.8-19.5c2-3.8,4.5-7.4,7.3-10.6
	c4.4-5.1,13.6-7.3,19.2-4.8c7.3,3.3,12,8.6,12.1,17.3c0.1,5.3,0,10.2-4.2,14.2C416,218.3,409.9,221.2,403.3,222.1z"/>
<path class="st0" d="M525.6,207.1l6.3-6.5c7,6,14.5,12.5,22,19c13.9,12.1,27.6,24.2,43.4,33.8c8.3,5.1,16.1,11.1,25.5,14.3
	c1.2,0.4,2.3,1.1,3.3,2c1.1,1.1,2.2,2.3,3.1,3.5c-2,0.7-4.2,2.5-5.8,2c-6.7-1.8-13.5-3.6-19.6-6.7c-14.9-7.7-29-17-42-27.6
	c-6.2-5-12.8-9.4-18.5-14.8C536.7,220,531,213.1,525.6,207.1z"/>
<path class="st7" d="M493.3,789.9c-10.3-21.3-12.7-42.4-7.5-64.8c6.9,5.1,15,8.3,17.9,17.9c3.2,10.4,7.7,20.4,11.6,30.6
	c0.7,1.8,1.7,3.8,1.4,5.5c-0.6,1.8-1.9,3.2-3.6,3.9C506.6,785.5,500,787.6,493.3,789.9z M494.9,753.1c-4.6-0.6-3.9,3.6-4.6,5.8
	c-0.8,2.4,3.2,6,6,6c3.3,0,6.4-2.5,6.3-5C502.3,755.7,499.4,753.1,494.9,753.1L494.9,753.1z"/>
<path class="st0" d="M499.4,206.7c0.9-3.8,1.5-6.4,2.1-9.3c6.9,2.3,12.2,8.5,19.9,8.8c0.2,1.1,0.6,2.1,1.2,3c2.3,3,4.7,5.9,7.3,8.6
	c5,5.1,10.1,10.2,15.5,14.8c7.8,6.6,15.9,12.7,23.8,19.1c0.8,0.8,1.5,1.8,2,2.8c-1.2,0.5-2.5,1.6-3.5,1.4c-4-0.9-8.1-1.7-11.6-3.4
	c-13.2-6.6-24.4-16.1-35.2-26.1C513.6,219.6,506.2,212.8,499.4,206.7z"/>
<path class="st8" d="M379.3,683.4c5.8,1.1,11.7,1.9,17.5,3.3c3.7,0.8,5.7,3.5,6.2,7.4c0.5,3.2-1.2,6.4-4.3,7.5
	c-3.8,1.8-7.8,3.1-11.9,3.9c-7.7,1.4-15.6,0.6-22.8-2.3c-1.6-0.5-3.1-1.2-4.6-2c-6.5-4-6.2-8.9,0.6-12.6c6-3.3,12.2-5.8,19.3-4.1
	L379.3,683.4z"/>
<path class="st9" d="M397.6,707.3l8.7-7c5.4,7.2,15.7,9.7,22.7,4.7c1.7-1.4,2.8-3.4,3-5.6c0.4-6.5-3.9-11.3-10.4-11.9
	c-3.2-0.4-6.4-0.4-9.6,0.1c-2.1,0.5-3.9,2.6-5.7,3.9l-5.6-7.3l57.6,4.6c2.3,7.1,4.4,13.8,6.7,20.9L397.6,707.3z"/>
<path class="st1" d="M229.5,506.8l-2.5-3.2c-0.8-0.8-1.4-1.6-2-2.6c-0.8-1.6-1.5-3.2-2-4.9c-1.5-5.2-2.8-10.4-4.5-15.5
	c-1.3-3.4-2.8-6.8-4.5-10c-0.9-1.7-2-3.3-3.1-4.8l-1.2,0.9c0.7-1.8,1-3.7,2.1-5.2c4.8-6.6,11.1-6.2,16.5,1.2
	c3.2,4.5,4.2,10,4.7,15.1c0.8,7.1,0,14.4-0.6,21.5C232.3,501.7,230.8,503.9,229.5,506.8z"/>
<path class="st7" d="M477.2,705c-8.3-3.5-13.8-8.4-15.1-17.3c-0.6-4.1-2.5-8.1-3.6-11.6l17.9-11.5c2,5.5,3.8,11.1,6.2,16.3
	c1.3,2.8,0.4,5-0.4,7.6C480.3,693.8,478.9,699.2,477.2,705z"/>
<path class="st1" d="M219.4,507.5c0,1.6-0.1,3.3-0.5,4.8c-0.3,1.2-1.8,3.1-2.5,3c-1.8-0.3-3.6-1.1-4.9-2.3
	c-5.2-5.2-5.2-12.4-5.7-18.9c-0.5-6-2.6-10.9-5.5-15.8c-1.6-2.9-0.6-6.5,2.2-8.3c2.5-1.8,5.9-1,7.8,2.3c2.1,3.9,3.4,8.2,5.7,12
	C220.1,491.3,218.6,499.2,219.4,507.5z"/>
<path class="st1" d="M201.8,516.7c-5.2-5.3-10.5-9.9-12.2-17.5c-0.6-2.7-3-4.9-5.2-8.5l10-13.5C203.1,482.3,205.3,510.2,201.8,516.7
	z"/>
<path class="st8" d="M446.9,665.7c0.8-4.8,0.7-9.2,2.3-12.8c1-2.3,4.5-3.5,6.9-5.1c8.9-5.9,17.8-11.7,26.9-17.7
	c1.6,8.3-0.6,12-7.8,16.3c-6.2,3.7-12,8.1-17.9,12.2L446.9,665.7z"/>
<path class="st8" d="M469.1,631.2c-0.6-2.5-1.3-4.2-1.3-6c0-1.2,0.4-3.2,1.3-3.6c1.5-0.8,3.8-1.4,5.2-0.8c2.6,1.2,4.8,3.3,7.5,5.3
	c-10.5,7.2-20.5,13.9-30.3,20.8c-2.8,2-5.6,1.2-8.5,0.8c-3.2-0.5-6.3-1.2-10.1-2l13.6-10.9c0.6,0.9,1.4,1.5,1.3,2.1
	c-0.2,4.6,2.4,4.4,5.2,3C458.6,637.1,463.9,634,469.1,631.2z"/>
<path class="st8" d="M516.5,786.6c-1.1,9.2-2.2,18-3.2,26l-21.2-18.9L516.5,786.6z"/>
<path class="st0" d="M512.9,240.1l-10.9,6.1c-3.5-4.2-7.1-8.7-11-13c-1.3-1.5-3.4-2.3-5.1-3.4s-3.7-2.1-2.3-4.4s3.1-4.6,6.2-3.5
	c2.8,0.9,5.4,2.3,7.7,4.1C502.9,230.6,508.1,235.6,512.9,240.1z"/>
<path class="st1" d="M189.9,515.8c-0.5,2.6-1,6-1.7,9.5c-0.1,0.6-0.9,1.4-1.4,1.5c-0.8,0-1.6-0.3-2.1-0.9c-3.4-8.2-7-16.3-9.7-24.6
	c-0.6-1.7,2-4.5,3.3-6.7c0.2-0.3,2,0.2,2.8,0.7C187.1,498.5,189.4,508.3,189.9,515.8z"/>
<path class="st0" d="M435.5,355.8l4.1-5.2l0.6,0.3c-0.5,2.2-0.6,4.7-1.8,6.5s-3.6,4.4-5.1,4.2c-3.6-0.5-6.4-3.5-6.7-7.1
	c-1.2-8.9-2.4-17.7-3.1-26.7c-0.3-3.1,0.2-6.9,4.4-7.9c1.2-0.3,2.4-0.2,3.5,0.4c0.5,0.3,0.3,2,0.2,3c-0.3,3.1-0.9,6.2-1.1,9.3
	c-0.3,4.5-0.9,9.1-0.3,13.5C430.7,349.7,431,354,435.5,355.8z"/>
<path class="st9" d="M334.6,685.5c-9.9,5-11.1,9.7-4,18.7l-18.1-1.3c-0.4-3.8-1-7.8-1.1-11.7c0.2-1.2,1.1-2.2,2.2-2.7
	C320.6,687.3,327.6,686.4,334.6,685.5z"/>
<path class="st8" d="M450.1,569.3c-0.4,2.2-0.9,4.5-1.5,6.6c-0.8,1.9-1.8,3.7-3.1,5.4c-0.9,1.1-2,1.9-3.2,2.4
	c-8.8,3.4-14.6-1.8-20.4-7.4c0.5-3.8,2-4.4,5.9-3.2C438,576.3,436.5,577.2,450.1,569.3z"/>
<path class="st10" d="M307.7,703.5l-13.5-1c-3.4-0.3-7-1.2-10.3-0.6c-3.7,0.6-3.7-1.5-3.8-3.6c-0.2-4.6-0.6-9.4,3.8-13
	C290,693.5,298.8,698.4,307.7,703.5z"/>
<path class="st8" d="M431.5,649.4c3.5,0.4,7,1.1,10.5,1.9c1,0.3,2.1,2.6,2,3.9c-0.1,3.5-1.2,7.1-1.3,10.6c-0.1,3.3-1.6,3.6-4.2,3
	c-1.5-0.4-3.1-0.6-4.6-0.6c-3,0.3-3.6-0.9-3.3-3.7C431.2,659.8,431.3,654.9,431.5,649.4z"/>
<path class="st8" d="M435.4,571.4c-2.9-0.6-5.7-1.4-8.6-1.8s-2.5-1.6-1.4-3.3c1.6-2.7,3.3-5.3,5.2-7.8c1.1-1.2,2.7-1.8,4.3-1.7
	c3.4,0.6,7.2,0.6,9.1,4.6c2.2,4.8,0,8.9-5.4,9.6c-1,0.1-2.1,0.1-3.1,0L435.4,571.4z"/>
<path class="st8" d="M454.9,673.2c-3.3-6.1-3-6.3,2.2-9.9c4.5-3,8.7-6.5,13.1-9.7c1.6-1,3.2-2,4.8-2.8c2.4,6.6-0.3,10.7-5.6,13.9
	c-2.5,1.5-4.5,3.8-7,5.3C460,671.2,457.5,672.3,454.9,673.2z"/>
<path class="st8" d="M418.5,690.6c5.6,0,8.7,2.1,10,7.3c0.3,1.1-0.6,2.9-1.5,3.8c-4.4,4.1-9.7,2.4-14.4,1c-1.5-0.4-2.7-4.8-2.3-7
	c0.4-1.9,3.2-3.5,5.1-4.9C416,690.1,417.4,690.6,418.5,690.6z"/>
<path class="st8" d="M498.6,731.3c-4.3-3.1-8-5.8-11.7-8.6c-4.7-3.5-9-7.9-14.2-10.4c-4.6-2.2-3.9-6.1-6-9l0.9-0.9
	c5.3,4,10.5,8,15.8,11.8c3.2,2.3,6.7,4.3,10.1,6.4C497.2,723,498.3,726.5,498.6,731.3z"/>
<path class="st8" d="M339.1,689.8c5.5,0,8.2,1.7,8.3,5.4c0.1,4.3-4,8.1-8.7,8.1c-4.9,0-8.6-3.2-8.7-7.4
	C330,692.5,334.3,689.8,339.1,689.8z"/>
<path class="st11" d="M285.4,681.9l5.8-4.3l-0.5,1.3c4.5,3.7,8.7,8.1,13.7,10.8c4.3,2.3,2.6,6,4,8.9c-0.9,0.2-2.1,1-2.7,0.6
	c-3.9-2.2-7.7-4.7-11.2-7.4C291.4,689.1,288.8,685.6,285.4,681.9z"/>
<path class="st10" d="M306.9,690c-4.3-4-8.3-7.5-11.9-11.4c-0.6-0.6,0-3.6,0.9-4.1c3.6-2.1,7.4-3.7,12-5.9
	C307.6,676,307.3,682.4,306.9,690z"/>
<path class="st0" d="M344.7,490c0.6-8,1.1-16.1,1.7-24.5c3.4,2.5,6.3,4.4,9,6.6c0.7,0.6,1.4,2.3,1.1,2.8
	c-3.5,5.1-7.2,10.1-10.9,15.1L344.7,490z"/>
<path class="st12" d="M444.7,618.3c-1.1-2.9-2.1-5.6-3.5-9.2l16.5-3.8l1.9,6.9L444.7,618.3z"/>
<path class="st13" d="M456.3,601.5c-4.8,1.3-9,2.4-13.2,3.5c-2.5,0.7-4.6,0.5-4.9-2.8c-0.1-1-0.9-1.8-1.7-3.5
	c3.9-1.1,7.5-2.1,11.1-3.2c0.4,0,0.8-0.1,1.2-0.1c1.7-0.3,4.3-1.3,4.8-0.8C454.8,596.6,455.4,599,456.3,601.5z"/>
<path class="st8" d="M477.8,719.7c2.6,1,4.4,2.5,4.1,5.5c-0.7,6.7-1.5,13.4-2.4,20.7C475.8,734.8,475.4,728.8,477.8,719.7z"/>
<path class="st12" d="M452.2,589.9c-4.2,1.4-8.1,2.7-12,4c-5.1,1.7-6.5,0.6-6.3-5.2c4.9-2,12.2,2.1,15.3-6
	C450.2,585.2,451,587.2,452.2,589.9z"/>
<path class="st12" d="M462.3,621.6l-13.9,6.3c-3.1-5.1-2.8-5.9,2.4-8l9.9-3.8L462.3,621.6z"/>
<path class="st8" d="M484.2,710.1c-3.7-1.5-5.3-3.5-4.2-7.4c1.4-4.7,2.5-9.5,4-14.9C488.6,695.6,485.7,702.8,484.2,710.1z"/>
<path class="st0" d="M436.7,327.2c5.9,6.6,4.6,13.1,0.5,19.9C434.6,343.1,434.3,330.3,436.7,327.2z"/>
<path class="st12" d="M451.5,636.7l-1.9-5.5c3.4-1.5,6.8-3.1,10.4-4.3c1.1-0.4,2.7,0.7,4.1,1.2c-0.8,1.1-1.3,2.5-2.3,3.2
	C458.5,633.1,455.1,634.8,451.5,636.7z"/>
<path class="st1" d="M440.6,312.5c0.7,5.8,1.3,10.7,2,16.8l-9.3-12.7L440.6,312.5z"/>
<path class="st10" d="M308.5,655.7c-1.1,5.6-10.5,8.5-17.5,4.9L308.5,655.7z"/>
<path class="st14" d="M295.7,650.5l13.3-1.2c-0.1,3.8-2.6,5.3-11,6.9L295.7,650.5z"/>
<path class="st9" d="M339,685.3h18.4l-7.3,6.6C348.5,688.2,347.5,687.6,339,685.3z"/>
<path class="st0" d="M546.3,325.3l11.9,12.8l-0.8,1.1c-2.2-0.4-4.4-0.8-6.6-1.3c-0.5-0.1-1-0.4-1.3-0.8c-1.6-3.5-3.1-7-4.6-10.5
	L546.3,325.3z"/>
<path class="st7" d="M494,716.9c-7.1-3.2-7.1-3.2-5.7-15L494,716.9z"/>
<path class="st0" d="M507,253.9c-0.8-1.6-1.7-3.4-2.7-5.4l12.1-7.5L507,253.9z"/>
<path class="st9" d="M347.5,704.5c1.3-2.5,2.6-4.8,3.7-6.9l6,6.9H347.5z"/>
<path class="st7" d="M473.8,729.1c-1.1-5.5-2.1-9.8-3.1-14.8l4.6,3.7C474.9,721.1,474.4,724.6,473.8,729.1z"/>
<path class="st0" d="M517.6,228.5l7.2,5.8l-6,2.7C518.4,234.3,518.1,231.7,517.6,228.5z"/>
<path class="st10" d="M297.6,668.9c0.3-4.7,4-6.1,11.1-4.5L297.6,668.9z"/>
<path class="st0" d="M814.3,177.1h-0.4h0v-0.8l0,0.1L814.3,177.1z"/>
<path class="st0" d="M813.5,176.1l0.4-0.1c0,0.1,0,0.3,0,0.4l0-0.1h-0.4h0L813.5,176.1L813.5,176.1z"/>
<path class="st0" d="M813.6,177.1h-0.8h0v-0.4l0,0.1l0.8-0.4h0L813.6,177.1L813.6,177.1z"/>
<path class="st0" d="M812.5,177.5l0.1-0.4h-0.1h0.4h0l0.1,0.4H812.5z"/>
<path class="st0" d="M812.9,176.1l-0.1-0.4h0.8l0,0.4h0H812.9L812.9,176.1z"/>
<path class="st0" d="M812.5,176l0.4,0.1h-0.1v0.8l0-0.1h-0.4v0.1C812.5,176.5,812.5,176.3,812.5,176z"/>
<path d="M813.5,177.1v-0.8h0.4v0.8H813.5z"/>
<path d="M812.5,176.7h0.4v0.4h-0.4V176.7z"/>
<path d="M520.9,343.4l-5.8-8.2c-2.5,7.2-1,16.5-12,16.6c-0.8-4.5,1.9-3.3,4.8-2.9l4.6-13.9c-6.8-1.8-8.1-0.1-12.2,7
	c-2.1-1.7-1.8-3.4,1.3-7.8c2.5-3.4,10.9-4.4,14.6-1.6C521.4,336.5,523,340.4,520.9,343.4z"/>
<path d="M481.5,504.5c3.6-6,6.9-12.3,11-17.9c5.1-6.9,10.9-13.2,16.6-19.6c0.7-0.8,2.6-0.3,4-0.5c-0.5,1.1-0.7,2.4-1.5,3.2
	c-7.9,7.9-16,15.5-21.1,25.7c-1.4,3-3,5.9-4.8,8.7c-0.6,0.9-2.2,1.1-3.3,1.6L481.5,504.5z"/>
<path d="M620.7,383.7c0.5-2.7,1.9-5.7,1.1-7.9c-0.9-2.4-4-4-6.3-6.2c2.2-3.8,4.3,0.5,5.9,1.2c4.5,2.1,4.5,7.4,0.5,13L620.7,383.7z"
	/>
<path d="M494.9,753.1c4.5,0,7.4,2.6,7.6,6.9c0.1,2.5-2.9,5-6.3,5c-2.7,0-6.7-3.6-6-6C491.1,756.7,490.3,752.5,494.9,753.1z
	 M500.6,759.5l-5.7-3.8c-0.4,1.2-1.3,2.6-1,3.5C495,761.9,497,762.3,500.6,759.5L500.6,759.5z"/>
<path d="M812.8,176h0.8"/>
<path class="st8" d="M500.6,759.5c-3.6,2.8-5.6,2.4-6.7-0.3c-0.4-0.9,0.6-2.3,1-3.5L500.6,759.5z"/>
</svg>
