<?xml version="1.0" encoding="utf-8"?>
<!-- Generator: Adobe Illustrator 22.1.0, SVG Export Plug-In . SVG Version: 6.00 Build 0)  -->
<svg version="1.1" id="Calque_1" xmlns="http://www.w3.org/2000/svg" xmlns:xlink="http://www.w3.org/1999/xlink" x="0px" y="0px"
	 viewBox="0 0 482.7 376.5" style="enable-background:new 0 0 482.7 376.5;" xml:space="preserve">
<style type="text/css">
	.st0{fill:#FFDEAD;stroke:#F84248;stroke-miterlimit:10;}
	.st1{fill:#FFDEAD;}
	.st2{fill:#39B54A;}
	.st3{fill:#FCEE21;}
	.st4{fill:#FFFF62;}
	.st5{fill:#F84248;stroke:#F84248;stroke-miterlimit:10;}
	.st6{fill:#9D3E0C;}
	.st7{fill:#FFFFFF;}
	.st8{fill:#A96239;}
	.st9{fill:#FF0000;}
	.st10{fill:#A67C52;}
	.st11{fill:#B3B3B3;}
	.st12{fill:url(#SVGID_1_);}
	.st13{fill:url(#SVGID_2_);}
	.st14{fill:#D9E021;}
	.st15{fill:#808080;}
	.st16{fill:#999999;}
	.st17{fill:#4D4D4D;}
</style>
<title>Astérix panneau inté</title>
<polygon class="st0" points="167.1,97.1 169.8,91.4 170.4,85.1 170.4,77.2 175.9,73.9 181.4,69.4 198.9,73.6 205.8,79.9 209.8,82.2 
	204.8,86.4 202.4,93.7 203.8,99.4 205.1,101.7 205.1,110.2 207.2,112.6 211.1,105.9 211.9,112.2 215.4,108 218.9,115.1 219.7,116.8 
	221,115.7 220,110.2 221,106.3 223.3,104.7 225.7,95.2 230,91.1 234.1,89.8 240.4,91.4 244.2,96.3 245.5,101.7 244.2,109.1 
	242.5,115.9 239.7,120.9 236.4,124.6 232.1,126.6 226.9,126.6 220,123.9 221.9,130.1 220.7,139 212,151.3 202.4,139 195.7,133.6 
	190.9,131.5 184.8,125.8 183,120.9 179.7,121.8 164.3,130.1 150.4,130.1 137.7,122.9 131.1,114.3 128.6,105.7 129.4,98.9 
	136.7,92.2 145,91.1 "/>
<polygon class="st1" points="160.9,130.9 164.3,130.1 168.3,138.2 174.1,145 180.4,148.3 186.6,151.1 193.4,154.9 200.6,160.9 
	203.8,163.5 200.1,168.6 196.7,170.6 187,171.8 177.1,170.6 171.7,169.5 167.7,160.5 164.3,155.6 161.6,149.9 160.9,147.3 
	162.3,141.5 "/>
<path class="st2" d="M119.1,326.1l-1.7,0.5c0.4-0.4,0.5-0.9,0.4-1.5c-1-2.9-3.3-5.6-6.4-5.8l0.8,2.8c1.5-0.8,1.7-1.7,1.8-3.3
	c0.1-1.3-0.6-3.5-0.6-4.8c0.2-1.1,0.1-2.3-0.2-3.4c-0.2-0.8-1.1-1.2-1.9-1c-0.5,0.1-0.9,0.5-1,1c-1.5,3.9-4.3,9.7-0.8,13.3
	c0.6,0.6,1.6,0.6,2.1,0c0.1-0.1,0.2-0.2,0.2-0.3c0.8-1.5,1-3.2,0.3-4.8c-0.2-0.8-1.1-1.3-1.9-1c-0.6,0.2-1.1,0.8-1.1,1.4
	c0,2.8,1.1,4.4,2.8,6.6c2.3,3-0.8,2.5-3.8,2.5c-1.8,0-3.7-0.8-5.5-0.6c-2.5,0.3-5.4-0.3-6.1,2.8c-0.2,0.8,0.3,1.6,1.1,1.9
	c0.1,0,0.2,0,0.4,0c5.1,0.1,10.1-0.1,14-3.8c0.6-0.6,0.6-1.6,0-2.1c-0.3-0.3-0.6-0.4-1-0.4l-1.1,0c-1.4,0.1-2.2,2.1-0.8,2.8
	c1.3,0.8,3.1,0.6,4.2-0.5c1-0.8,0.3-2.2-0.7-2.5c-1.2-0.5-2.5-0.8-3.7-1l1,1.8l2.9-3.3l-2-2.1c-0.6,1.2-0.9,1.7-0.2,2.9
	c0.3,0.5,0.8,0.7,1.3,0.7h0.5l-0.4-3c-1.7,0.5-3.3,1-5,1.3l1.7,0.7c-0.8-1.2,1.7-3.8,0.4-5.7c-0.5-0.7-1.4-0.9-2.1-0.5
	c-0.4,0.3-0.7,0.7-0.7,1.2c-0.2,2.9-0.3,5.7-0.3,8.6l2.8-0.8l-0.6-0.9c-0.4-0.6-1-0.9-1.7-0.7l-2.3,0.8l1.9,1.8l0.7-1.6
	c0.2-0.8-0.3-1.6-1-1.8c1,0.2,0.9-2,0.6-2.7c-0.7-1.5-4.1-2.1-5.5-2.7c-1-0.4-1.8,0.6-1.9,1.4c-0.2,1.4,0.3,2.8,1.3,3.8v-2.1
	c-0.6,0.6-1.1,1.4-1.4,2.2c-0.5,1.1,0.9,2.2,1.9,1.8l2.1-0.4l-1.5-1.5l-0.2,1.9l1.1-1.5l-2.4,1l1.9,1.5c-0.1-1.9-1.4-3.6-3.6-3
	c-2.9,0.8-2.7,4.7-3.5,6.8c-0.6,1.6,2,2.7,2.7,1.2c0.6-0.7,0.9-1.7,0.9-2.6l-0.9-2.2c-1.4,2.3-5.5,0.6-4.2,4.7l1.5-1.9
	c-2.1-0.1-4.2-3.8-6.2-4.6c-1-0.3-2.1-0.6-3.2-0.7l-0.4,0c-2.2-1-2.9-0.9-2.2,0.4c0.8-0.2,1.3-1.1,1-1.9c-0.1-0.3-0.3-0.6-0.6-0.8
	l-1-0.7v2.6c-0.1,0,3.6,1.8,4.7,1.5c0.8-0.2,1.3-1.1,1-1.9c-0.1-0.2-0.2-0.4-0.4-0.6c-1.4-1.3,0.8-1.4,1.3-2.1
	c1.2-1.4,2.1-3,2.8-4.7c0.8-2,0.8-3.5-1.1-4.8c-0.7-0.4-1.6-0.2-2.1,0.6c-0.2,0.3-0.2,0.7-0.1,1.1c1.1,3.4,2.4,6.7,3.9,10
	c0.4,0.7,0.7,1.5,1,2.2c0.5,0.6,0.4,0.9-0.4,0.9c0-0.1-1.1,1.1-1.1,1.2h2.6c-1.3-2.5-2.1-5.2-2.5-8c-0.1-0.9-0.9-1.8-1.9-1.5
	c-4.6,1.7-3.1,6.2-0.7,9.2c1.1,1.4,3.1-0.4,2.4-1.8c-1.1-2-2.6-3.7-4.5-5l-1.2,2.8c2.5,0.8,3,1.3,5.4,0.2c-0.7,0.4-0.9,1.4-0.5,2.1
	c0.2,0.3,0.5,0.6,0.9,0.7l2,0.5c1.9,0.4,2.7-2.5,0.8-2.9l-2-0.5l0.4,2.7l0.4-0.2c0.5-0.3,0.7-0.8,0.8-1.3v-0.5c0-0.5-0.3-1-0.7-1.3
	c-2-1.2-4.4-1.7-6.6-2.4c-1.7-0.5-2.5,1.8-1.1,2.7c1.5,0.9,2.7,2.3,3.4,3.9l2.4-1.8l-0.7-4.2l-1.9-1.4c0.4,3.3,1.4,6.5,2.9,9.5
	c0.4,0.7,1.4,0.9,2.1,0.5c0.2-0.1,0.4-0.3,0.5-0.5c0.6-1.4,2.6-0.7,2.5-3.1c-0.1-1.5-1.4-3-2-4.3c-1.4-3-2.6-6.2-3.6-9.3l-2.2,1.7
	c0.4,0.3-1,2.5-1.1,2.7c-1.5,2.4-0.7,0.9-2.2,2c-0.6,0.4-1.3,0.4-1.8,1.1c-1.5,1.9,0,4,1.4,5.5l0.7-2.5c-0.7,0.2-2.3-1.5-3.1-1.6
	c-0.8-0.3-1.7-0.1-2.4,0.5c-0.7,0.4-0.9,1.4-0.5,2.1c0.1,0.2,0.3,0.4,0.5,0.5l1,0.7l0.4-2.7c-1.1,0.1-2,0.8-2.5,1.7
	c-0.3,0.5-0.3,1.1,0,1.5c1.5,2.4,4.1,1.8,6.6,2.3c4,0.9,4.5,5,8.7,5.2c0.8,0,1.5-0.7,1.5-1.5c0-0.1,0-0.3-0.1-0.4
	c0.3,0.9,3.6-2,3.9-2.4c0.4-0.7,0.1-1.7-0.6-2.1c-0.1-0.1-0.2-0.1-0.3-0.1l-0.5-0.2c-0.5-0.1-1.1,0-1.5,0.4c-1,1.1-1.8,2.4-2.3,3.8
	l2.7,1.2c0.6-1.5,1-3.1,1.2-4.7c0.1,0.8,0.9,1.8,1.9,1.4l2.4-1c0.6-0.2,1.1-0.8,1.1-1.5l0.2-1.9c0-0.8-0.7-1.5-1.5-1.5
	c-1,0-2,0.2-2.9,0.5l1.8,1.8l0.6-0.9c0.6-0.6,0.6-1.5,0-2.1l-0.4-1.7l-1.9,1.5l2.7,1.1c0.7-0.2,0.8,0,0.1,0.7
	c0.1,0.3-0.2,1.1-0.2,1.5c0.2,1.1,1.1,2,2.3,2.1l-1-1.8l-0.7,1.6c-0.2,0.8,0.3,1.6,1.1,1.8c0.3,0.1,0.5,0.1,0.8,0l2.3-0.8l-1.7-0.7
	l0.6,0.9c0.4,0.7,1.4,0.9,2.1,0.5c0.4-0.3,0.7-0.7,0.7-1.2c0-2.9,0-5.7,0.3-8.6l-2.8,0.8c0.8,1.4-1.8,3.7-0.4,5.8
	c0.4,0.6,1,0.8,1.7,0.7c1.7-0.4,3.3-0.8,5-1.3s1.4-3-0.4-2.9l1,0.9c0.4-0.8,0-1.7-0.7-2c-0.4-0.2-0.9-0.2-1.3,0
	c-2,1-3.6,2.9-4.3,5.1c-0.2,0.8,0.2,1.6,1,1.8c1.3,0.2,2.5,0.5,3.7,1l-0.7-2.5h-0.5l-0.8,2.8l1.1,0l-1.1-2.6
	c-3.3,3.1-7.7,3.1-11.9,3l1.4,1.9c0-0.1,6.2-0.1,5.8-0.2c3.2,0.4,7.8,0.5,10.6-1.3c0.5-0.3,0.7-0.8,0.7-1.3
	c-0.1-3.7-4.4-5.5-4.4-9.3l-3,0.4v2.5l2.4-0.3c-2.1-2.2,0.7-8,1.6-10.3h-2.9c-0.1-0.2-0.1,8.3,0.4,8.1c-1.4,0.7-0.6,2.7,0.8,2.8
	c-1,0,4.1,4,3.5,2.6c0.2,0.4-0.5,1.8,0,2.7c1.4,2.6,4.5,2.3,6.4,0.5c1.4-1.3-0.7-3.5-2.1-2.1L119.1,326.1z"/>
<polygon class="st3" points="18.2,123.5 42.3,101 125.5,104.7 128.6,115.7 126.6,146.1 41.5,147 16.5,126.9 "/>
<polygon class="st4" points="164.3,130.1 183,119.9 186.1,126.9 195.7,133.6 202.4,139 209,147.3 212.5,153.7 215.4,164.5 
	215.4,168 208.4,162.4 211.1,168 212.2,173.8 204.2,162.4 193.4,154.9 183.8,149.3 175.4,145 169.9,140.6 "/>
<polygon class="st5" points="189.3,156.5 190.9,153.7 180.4,148.3 178.7,156.5 179.7,162.4 182.4,163 186.1,160.9 "/>
<path class="st6" d="M127,102.5c0.3,2.5,0.5,4.7,0.7,7c0.3,2.4,1.1,4.7,2.4,6.7c0.4,0.6,0.8,1.1,0.3,1.8c-0.1,0.3,0,0.7,0.1,1
	c0.4,1.1,0.6,2.3,0.4,3.5c0,4.3-0.9,8.5-0.8,12.9c0.1,2.4-0.4,4.9-0.5,7.3c-0.1,1.8,0,3.6,0,5.5c-1.3,0.1-2.5,0.2-3.8,0.2
	c-3.6,0-7.3,0-10.9,0c-2.9,0-5.8-0.1-8.7-0.1c-3.3,0-6.6,0.2-9.9,0.3c-1.3,0-2.5,0-3.8,0c-6.2,0.1-12.3,0.3-18.5,0.4
	c-2.4,0-4.8-0.3-7.1-0.3c-3.5,0-6.9,0.2-10.4,0.2c-2.7,0-5.5,0-8.2,0c-2.2,0-4.4,0.2-6.6,0.3c-0.9,0-1.8-0.3-2.4-0.9
	c-2.7-2.3-5.5-4.5-8.3-6.9c-2-1.7-3.9-3.6-5.8-5.3c-1.7-1.5-3.5-2.8-5.2-4.3c-2.6-2.3-5.1-4.6-7.8-7.1c0.4-0.6,0.9-1.1,1.4-1.6
	c3.2-2.6,6.5-5.1,9.7-7.7c1.1-0.9,2.2-1.9,3.3-2.8c1.7-1.7,3.5-3.2,5.4-4.7c3-2.1,5.1-5,7.9-7.3c0.6-0.5,1.4-0.8,2.2-0.9
	c5.4-0.3,10.8-0.1,16.1,0.1c2.9,0.1,5.8,0.5,8.7,0.6c3.3,0.1,6.6,0.2,9.9,0.2c9.4,0.2,18.8,0.4,28.2,0.7c3.5,0.1,6.9,0.6,10.4,0.8
	c1.8,0.1,3.7,0.1,5.5,0.1C123,102.5,125.1,102.5,127,102.5z M49.6,110.3c1.5,10.4,0.6,20.6-0.1,31c-0.4,0.1-0.8,0.2-1.1,0.3
	c-0.7,0.3-0.6,1-0.4,1.6c0.2,0.3,0.5,0.6,0.9,0.6c1.8,0,3.6-0.2,5.4-0.3c0.7,0,1.4-0.5,1.6-1.2l-3.9-1.1c0-0.3-0.1-0.6,0-1
	c0.2-3.4,0.4-6.8,0.6-10.2c0.2-3.8,0.2-7.5-0.2-11.3c-0.1-1.6-0.1-3.2-0.2-4.9l0.4-0.1c1.7,3,3.5,6.1,5.2,9.1s3.5,6,5,9.1
	s4.2,5.6,5.4,9l-2,0.6c-0.2,1.5-0.1,1.8,0.9,1.8c1.4-0.1,2.9-0.2,4.3-0.4c0.3-0.1,0.6-0.4,0.6-0.7c0-0.3-0.1-0.7-0.4-0.9
	c-0.4-0.2-0.7-0.4-1.1-0.5c0-1.6,0-3.2,0-4.7c0.1-4.8,0.3-9.7,0.4-14.5c0.1-3.9,0-7.8,0-11.6c-0.1-0.7,0.3-1.4,1-1.7
	c0.6-0.3,1.3-0.5,1.1-1.6c-0.4-0.2-0.8-0.3-1.3-0.3c-1.5,0-3.1,0-4.7,0c-0.5,0-1.1,0.1-1,0.7c0.1,0.4,0.4,0.8,0.7,1.1
	c0.5,0.2,1.1,0.4,1.7,0.5c0.1,0.8,0.2,1.7,0.3,2.5c0,2.3-0.2,4.6-0.3,6.9c-0.1,1.8-0.1,3.6-0.1,5.4c-0.1,2.6-0.2,5.1-0.3,7.7
	c-0.1,2.1-0.1,4.1-0.2,6.6c-1.9-2.9-3.7-5.3-4.5-8.3c-0.2-0.7-0.5-1.4-0.8-2c-2.2-3.6-4.4-7.2-6.6-10.8c-1.3-2.2-2.6-4.4-3.9-6.6
	c0.8-0.4,1.9,0.2,2.4-0.9c0-0.6-0.5-1.1-1.1-1.1c0,0,0,0-0.1,0c-1.7,0-3.4,0-5,0c-0.2,0-0.4,0.2-0.7,0.3c0.1,0.4,0.2,0.8,0.3,1.2
	L49.6,110.3z M121.7,110.6c0.2,0.8,0.4,1.5,0.6,2.3c0.2,0.4,0.5,0.6,0.9,0.7c0.3,0,0.7-0.5,0.8-0.8c0.2-0.8,0.2-1.7,0.4-2.5
	c0.3-1.7,0-2.1-1.7-2c-4.2,0.1-8.4,0.3-12.6,0.4c-1.1-0.1-2.2,0.3-3.1,1c-0.4-0.4-0.6-0.9-1-1c-0.9-0.3-1.8,0.3-1.6,1.7
	c0.4,3.3,0.5,6.7,0.4,10c-0.2,5.8-0.3,11.6-0.5,17.4c0,1.3-0.2,2.5-0.2,3.8c0,0.3,0.3,0.9,0.5,1c1.9,0.3,3.6,1,5.6,0.9
	c2.3-0.1,4.5-0.1,6.8-0.1c1.9,0,3.8,0,5.8,0c0.6,0,1.3,0,1.4-0.8c0.1-1.4,0.2-2.7,0.3-4.1c0.1-0.6-0.3-1.1-0.9-1.2c0,0-0.1,0-0.1,0
	c-0.8,0-1,0.4-1.1,1.1c-0.1,0.9-0.3,1.9-0.4,2.8c-2.7,0-5.3,0.1-7.8,0s-5,0.9-7.7,0.3c0.4-4.6,0.2-9,0.6-13.3
	c0.2-0.1,0.3-0.2,0.5-0.2c3.6,0,7.2,0,10.8,0c0.4,0,0.7,0.1,1,0.3c1.1,0.6,1.5,0.6,1.7-0.5c0.1-0.9,0.1-1.8-0.1-2.6
	c-0.2-0.4-0.5-0.6-0.9-0.7c-0.3,0-0.6,0.4-0.9,0.6s-0.1,0.4-0.3,0.8H107c-0.4-1.8-0.5-3.6-0.3-5.4c0.1-1.5,0.2-3.1,0.1-4.6
	c0-1.4-0.2-2.9-0.2-4.3c0-0.4,0.1-0.7,0.2-1.1c0.8,0.2,1.6,0.3,2.4,0.3C113.4,110.6,117.4,110.6,121.7,110.6L121.7,110.6z M86,109.9
	c0.1,0.5,0.2,0.9,0.3,1.4c0.1,1.5,0.1,3.1,0.2,4.6c0,0.4,0,0.7-0.1,1.1c-0.1,1.1-0.1,2.3-0.2,3.4c0,0.5,0,1.1,0,1.6
	c-0.1,3.5-0.2,7-0.4,10.6c-0.1,2.2-0.3,4.4-0.5,6.6c-0.5,0.1-0.8,0.1-1.1,0.1c-0.7,0.1-1.4,0.4-1.2,1.3s0.5,1.4,1.4,1.2
	c1.3-0.2,2.6-0.3,3.9-0.5c0.8-0.2,0.9-0.7,0.4-1.3c-0.3-0.3-0.6-0.5-1-0.7c0.2-3,0.3-5.7,0.5-8.4c0.5-5.7,0.5-11.5,0-17.2
	c0-1.3,0-2.6,0.2-3.9h2.2c1.6,0.1,3.2,0.1,4.8-0.1c1.1-0.3,2.2,0,3,0.7c1.8-1.4,1.4-2.9,0.6-4.7c-0.3,0.2-0.6,0.3-0.6,0.5
	c-0.3,1-1,1.2-1.9,1.2c-1.7,0-3.5,0-5.2,0c-2,0.1-3.9,0.3-5.9,0.3c-2.4,0-4.8,0-7.2,0c-1.3,0-1.8,0.5-2,1.6
	c-0.4,1.2,0.3,2.5,1.5,2.8c0.2-0.7,0.4-1.5,0.6-2.2L86,109.9z M126.2,144.2l-0.7,0l-6.4,0.4c-2,0.1-4,0.3-6.1,0.3
	c-0.7,0-1.4-0.2-2.1-0.1c-2,0-4.1,0.2-6.1,0.2c-2.6,0-5.1-0.3-7.7-0.3c-2.3,0-4.6,0.2-7,0.3c-1.9,0.1-3.9,0.5-5.7,0.2
	c-3.7-0.6-7.4,0.2-11-0.1c-2,0-4,0-6,0.2c-1.7,0.1-3.4,0.1-5,0.1c-0.5,0-1.1-0.1-1.2,1c1.6,0.2,3.2,0.2,4.8,0.1
	c3.2-0.5,6.5,0.3,9.8-0.6c0.2-0.1,0.5,0.1,0.7,0.2c1.9,0.1,3.8,0.3,5.7,0.3c1.6,0,3.3-0.2,4.9-0.2c3.5,0,6.9,0,10.4,0
	c2.7,0,5.5,0.2,8.2,0.2c1.2,0,2.4,0,3.6-0.1c1.7,0,3.3-0.1,5-0.1c0.3,0,0.6,0.1,0.9,0.1c1.9-0.2,3.9-0.4,5.8-0.5c1,0,2,0.1,3,0.2
	c0.8,0.1,1.7,0.1,2.5,0c1-0.1,1.3-0.6,1.1-1.6c-0.1-0.5-0.2-1-0.2-1.5c0.1-2,0.3-4,0.5-6.1c0-0.8,0-1.6,0.1-2.5
	c0.3-1.3,0.4-2.7,0.3-4c-0.1-1.2-0.1-2.5,0.1-3.8c0-1,0.1-2,0.1-3c0-2.2,0-4.4,0-6.5c0-1.1,0.5-2.2-0.3-3.3
	c-0.3,0.2-0.8,0.3-0.8,0.4c-0.2,0.6-0.2,1.3-0.2,1.9c0,0.6,0.2,1.3,0.2,1.9c0,2.1-0.1,4.1-0.1,6.2c0,3.7,0,7.4-0.1,11.1
	C126.9,138.3,126.5,141.2,126.2,144.2z M37.9,109.5c0.4,10.8,0.3,21.7-0.5,32.5c-1.1,0.3-2.2-0.4-2.7,0.9c0.1,0.2,0.1,0.3,0.2,0.5
	c1.4,1.2,5.3,1.6,6.8,0.6c0.3-0.2,0.6-0.7,0.6-1c-0.2-0.4-0.5-0.6-0.9-0.8c-0.6-0.1-1.2-0.2-1.8-0.2c1.2-10.9,0.6-21.7,0.8-32.5
	l1.6-0.7c-0.1-1.5-0.4-1.8-1.6-1.8c-1.4,0-2.8,0-4.2,0.1c-0.6,0.1-1.1,0.2-1.6,0.4C34.7,109.7,36.7,108.9,37.9,109.5L37.9,109.5z
	 M38.9,104.5c0.7-0.4,1.4-0.9,2-1.4c1.4-1.3,3-1.5,5-1.3c2.3,0.1,4.7,0.1,7,0c2.2-0.2,4.4-0.1,6.5,0.1c1.3,0.4,2.6,0.6,4,0.8
	c4.3,0.1,8.5,1,12.8,0.1c0.5,0,1,0,1.4,0.1c1.6,0.2,3.2,0.2,4.8-0.1c-0.6-0.4-1.2-0.7-1.9-0.8c-2.7-0.3-5.5-0.5-8.2-0.7
	c-4.3-0.3-8.7-0.5-13-0.7c-1.5-0.2-3.1-0.2-4.6,0c-1,0.2-2,0.3-3,0.2c-2.6,0-5.3-0.1-7.9-0.2c-2-0.1-3.3,1.3-4.6,2.4
	C39,103.2,39,103.7,38.9,104.5L38.9,104.5z M32.9,110.2c-0.3,0.2-0.5,0.3-0.8,0.5c-1.1,0.9-2.1,1.9-3.3,2.8
	c-3.4,2.6-6.8,5.3-10.2,7.9c-0.9,0.5-1.5,1.5-1.6,2.5c0.2,0.3,0.4,0.5,0.6,0.8c2.8,1.9,5.3,4.1,7.6,6.5c0.9,0.8,1.8,1.6,2.7,2.3
	c0.4,0.4,0.9,0.4,1.1-0.4c-3.6-3.2-7.3-6.4-11-9.7c1.2-0.9,2.4-2,3.6-3c2.4-1.9,4.9-3.8,7.4-5.7C30.9,113.7,32.1,112.1,32.9,110.2
	L32.9,110.2z M86.7,102.7l0.2,0.4c3.2,0.9,6.4,1.3,9.7,1.3c3.4,0,6.7,0.3,10.1,0c0-1.5-1-1.4-1.8-1.5c-2.1-0.1-4.1,0-6.2-0.1
	c-2.6-0.1-5.1-0.4-7.7-0.5c-1.1-0.1-2.1-0.1-3.2,0C87.4,102.3,87,102.5,86.7,102.7z M31.1,140.7c0.5-1,0.1-1.5-0.4-2
	c-2-1.9-4-3.8-6-5.7c-2.7-2.6-5.5-5.1-8.3-7.7c-0.6,1.1-0.6,1.1,0,1.6c0.9,0.8,1.7,1.6,2.6,2.4c2.1,1.9,4.2,3.8,6.3,5.8
	C27.3,136.9,29.1,138.7,31.1,140.7L31.1,140.7z M59.8,146.4l0.1-0.4c-0.4-0.2-0.9-0.3-1.4-0.3c-2.1,0.1-4.1,0.3-6.2,0.3
	c-3.2,0.1-6.5,0-9.8,0c0.7,1,0.7,1.1,1.2,1.1c1.2,0,2.4-0.1,3.6-0.1l4.5-0.1c1.1,0,2.2,0,3.4-0.1c0.9-0.1,1.8-0.5,2.8-0.1
	C58.4,146.9,59.2,146.5,59.8,146.4L59.8,146.4z M118.2,103.4c-2.5-0.2-4.7,0.7-7,1.3c-0.6,0.1-1.1,0.4-0.9,1.1s0.7,1.3,1.4,1.1
	c2-0.5,3.9-1.1,5.8-1.7c0.6-0.1,1-0.7,0.9-1.3C118.4,103.7,118.3,103.5,118.2,103.4L118.2,103.4z M100.2,143.6
	c0.3-0.1,0.6-0.3,0.9-0.5c0.9-0.7,1.5-1.7,1.8-2.8c0.1-0.5,0-1-0.4-1.4c-0.5-0.6-1.3-0.8-2-0.5c-0.3,0.2-0.7,0.3-1.1,0.5
	c-1.2,0.3-2,1.4-1.8,2.6C98,142.7,99,143.5,100.2,143.6L100.2,143.6z M97.7,112.4c1.3,2.1,3.2,2.5,4.5,0.8c0.5-0.6,0.9-1.3,0.4-2.1
	c-0.6-0.7-1.6-1-2.5-0.8C98.9,110.5,98,111.3,97.7,112.4z M126.7,105.5c-0.6-1.9-0.6-1.8-2.2-1.5c-0.6,0-1.2-0.1-1.7-0.2
	c-0.5,0-1-0.2-1,0.8c1.4,0.4,2.8,0.9,4.2,1.3C126.1,105.8,126.4,105.6,126.7,105.5z M100.7,116.7c-1.5-0.2-2.4-1.2-3.7-1
	c0,1.1,0.9,1.4,1.6,1.7S99.8,117.5,100.7,116.7z"/>
<path class="st1" d="M185.7,173.9c-0.4-0.5-0.9-0.8-1.5-1H182l-6.1-1.2l-4.2-2.2l-6,1.1l-7.7,0.6l-2.4,2.1l0.5,4l-4.7-3.9l-2.9-5.5
	l-0.9,6.9l-26.1,9.7l-25.1,12.8l-12.1-14.7h-7.2l-5.3-13.2l-4.2-1.5l-3.1,1.5l-0.8,5.4l4.6,10.9l5.7,5.9v5.6l2.2,5.6l-28.5,21
	l-4.3,7l1.1,4.6l5.4-1.5l8.9-7.6l6.5-2.5l-4.1,8.1l0.1,3.9l2.9,1l3.1-0.5l1,1.9l1.3,2h2.8l1.4,0.9l3.4,1.6l6.1-0.7l5.7-4.4l2.2-2
	l4.4-5.4l2-6.9l1.1-8.4l0.5-2.8l5.6-0.9l8.4-3.1l15.3-6.3l6.5-4.5l7.9-0.9l14.8-2.7l13.3-4.6l10.3-6.5l4.7-3.1l2.5-2.9L185.7,173.9z
	"/>
<path d="M631,397.9L631,397.9z"/>
<path d="M333.5,169.4c0.2-0.5,0.4-1,0.7-1.5c1.5-2.1,3.1-4.1,4.5-6.2c0.6-1,2-1.4,3-0.8c5.6,2.2,11,4.8,15.3,9.1
	c0.4,0.4,0.9,0.7,1.4,1.1c1.3,1,1.7,2.9,0.8,4.3c-0.8,1.3-1.8,2.5-2.6,3.8c-0.6,0.9-1.1,2-1.7,2.9c2.2,2.9,1.5,4.6-3.3,7.5
	c0,0.7,0.1,1.6,0.2,2.4c0.2,1-0.4,2.1-1.4,2.5c-0.8,0.4-1.7,0.9-2.5,1.4c0.3,4.3-0.4,5.1-6.3,7c0.3,0.3,0.5,0.6,0.7,1
	c1.2,2.1,0.8,4.7-0.8,6.4c-1.1,1.2-2.9,1.5-4.3,0.8c-1-0.5-2-1-3.1-1.6c-0.3,0.3-0.6,0.6-0.8,0.9c-1.4,1.9-3.2,3.4-5.2,4.6
	c-1.5,1-3.1,1.5-4.8,1c-0.3,0.6-0.7,1.2-1.2,1.8c-1.1,1.2-2.3,2.3-3.4,3.5c-0.5,0.5-0.8,1.1-1.3,1.7c2.3,1.6,4.3,3.5,5.9,5.7
	c3,4.1,1.8,9.5-1.5,11.7c-2.3,1.5-5,2.4-7.7,2.7c-0.6,0.1-1.2,0.1-2,0.2c-0.1,0.8-0.2,1.6-0.2,2.5c0.2,5.2-0.3,10.4-1.5,15.5
	c-0.5,2-1.1,4-1.9,6c-0.9,2.1-2.4,3.8-4.3,4.9c-0.5,0.3-0.9,0.6-1.4,1c3.6,2.3,7.1,4.7,10.8,6.7c2.6,1.6,5.5,2.5,8.5,2.7
	c3.3,0.1,6.7,0.6,10,0.9c1.5,0.2,3.1,0.2,4.7,0.4l10.7,0.9c0.1,0,0.2,0,0.4,0c0.3-0.8,0.7-1.5,0.9-2.3c0.8-2.6,2.8-4,5-5.3
	c1.8-1.2,4-2,6.2-2.3c2.6-0.4,5.3,0.1,7.6,1.4c1.9,0.9,3.6,2.2,5,3.8c0.5,0.5,0.9,1,1.5,1.4c0.3,0,0.6,0,0.8-0.1c3.3-1,6,0.2,8,2.8
	c1.8,2.2,2.9,4.9,3.3,7.7c2.2,1.3,4,3.2,5.2,5.4c0.2,0.4,0.5,0.6,0.9,0.8c1.7,0.9,3.1,2.3,3.9,4.1c0.6,1.1,1.3,2.1,2.1,3.1
	c1.9,2.6,3.8,5.2,5.8,7.8c1.7,2.3,3.4,4.4,5,6.8c1.5,2.1,2.8,4.3,4,6.6c1.9,3.7,3.7,7.4,5.3,11.1c0.9,2.1,1.6,4.4,2.4,6.6
	c0.5,1,0.9,2,1.3,3c0.7,2.4,1,4.9,0.9,7.4c-0.1,1.6,0.2,3.2,0,4.8c-0.2,1.8-0.7,3.5-1.4,5.2c-0.3,0.8-0.8,1.6-1.5,2.2
	c-2.4,1.9-5,3.6-8.2,3.9c-0.7,0.1-1.4,0.2-2.1,0.2c-1-0.2-2,0.5-2.2,1.5c0,0,0,0.1,0,0.1c-0.4,2.2-2,2.9-3.8,3.4
	c-2.9,0.9-6,0.6-8.9,0.3c-5.3-0.5-10.1-2.6-14.8-5c-1.3-0.8-2.4-1.7-3.5-2.8c-1.5-1.6-2.9-3.3-4.1-5.2c-1.4-1.9-2.5-3.9-3.4-6.1
	c-1.8-4.3-3.2-8.7-4.6-13.2c-0.9-2.9-1.7-5.8-2.8-8.7c-1-2.6-2.3-5.1-3.5-7.7c-0.2-0.5-0.5-0.9-0.9-1.4c-0.4,0.1-0.7,0.2-1.1,0.3
	c-5.1,2.2-7.5-0.9-8.3-4.3c-0.3-1.5-0.5-3.1-0.4-4.6c0-2.4-0.4-4.8-1.1-7.1c-0.3-1.1-0.7-2.3-1.1-3.4c-0.4,0-0.8,0-1.2,0
	c-6,1.2-12.1,1.6-18.2,1.4c-3-0.1-6,0-9-0.2c-4.3-0.3-8.6-0.8-12.8-1.2c-1.3-0.1-2.6-0.3-3.9-0.5c-1.9-0.4-3.6-1.3-5.2-2.4
	c-1.6-1.1-3.3-2.2-4.9-3.3c-0.9-0.6-1.7-1.3-2.5-2c-3.8-3.1-7.5-6.3-11.2-9.5c-1.4-1.2-2.7-2.6-4-3.9l-3.5-3.5
	c-0.3,0.6-0.7,1.2-1,1.9c-1.6,3.1-3.2,6.3-4.8,9.4c-0.8,1.7-1.5,3.4-2.3,5c-1.2,2.5-2.4,4.9-3.7,7.3c-0.9,1.2-0.7,2.9,0.5,3.8
	c1.8,1.6,3.3,3.5,4.5,5.5c1.7,3,3.2,6.1,3.4,9.5c0.2,3-0.8,6-2.6,8.4c-1.9,2.7-4.6,4.7-7.7,6c-1.2,0.4-2.5,0.7-3.8,0.9
	c-0.4,0.1-0.9,0-1.3,0.1c-3,0.8-5.7-0.1-8.2-1.5c-3.6-2-7.4-3.4-11.1-5c-1.4-0.5-2.5-1.4-3.3-2.5c-0.4-0.6-1.1-0.9-1.8-1
	c-4.3-0.3-8.5-1.3-12.5-3c-6.1-2.4-12.1-4.9-18-7.5c-3-1.3-5.8-3.1-8.7-4.7c-1.9-1.1-3.7-2.2-5.5-3.3c-4-2.5-7.7-5.5-11-8.8
	c-1.1-1.1-2.1-2.3-3-3.5c-1.8-2.4-3.7-4.9-5.3-7.4c-2.4-3.7-2-7.4,0.1-11.2c1-1.7,2.5-3.1,4.3-3.8c0.8-0.2,1.3-0.9,1.4-1.7
	c0.1-0.6,0.2-1.2,0.4-1.7c0.7-2.4,2.2-4.5,4.4-5.8c4.5-3,9.4-3.6,14.6-3.5c4.9,0.1,9.8,0.7,14.2,3c2.7,1.4,5.8,2.3,8.2,4.3
	c3,2.3,6,4.6,9,6.8c3.3,2.4,6.5,4.8,9.8,7.1s7,4.6,9.8,7.7c0.3,0.3,0.7,0.6,1,0.8c1.3-3.3,2.3-6.6,3.2-10c-3.3,1-6,0-8.7-1.2
	c-3.9-1.9-5.3-5.6-4.3-9c0-0.1,0-0.3,0-0.4c-2.7-0.8-4.8-2.8-6.8-4.7c-1.8-1.7-3.4-3.5-4.9-5.5c-0.7-0.7-1.2-1.7-1.4-2.6
	c-0.2-1.3-1.1-2.5-2.3-3c-2.1-1.1-3.9-2.6-5.4-4.4c-2-2.1-3.8-4.3-5.6-6.5l-5.1,0.5c-0.2-0.7-0.4-1.2-0.5-1.7c-0.2,0-0.4,0-0.5,0
	c-1.4,0.1-2.9,0.3-4.3,0.5c-1.2,0.1-2.2-0.1-2.3-1.7c-0.7,0.1-1.3,0.1-1.8,0.2c-1,0.1-1.9,0.3-2.9,0.4s-1.3-0.1-1.4-1.3
	c-0.1-0.8-0.2-1.5-0.3-2.2c-1,1.1-1.9,2.4-3,3.5c-1.3,1.4-3.3,1.9-5.1,1.2c-1.9-0.6-3.2-2.3-3.4-4.2c-1-6,0.6-12.1,4.4-16.8
	c0.9-1.3,2.8-1.6,4.1-0.7c0,0,0,0,0,0c1.7,1.2,3,2.9,3.8,4.9c0.2,0.5,0.4,1,0.6,1.7c1.2-1,2.1-0.5,3,0.3c0.7,0.7,1.6,1.1,2.6,1
	c0.5,0,1.1,0.4,1.6,0.7c0.8,0.4,1.5,0.8,2.3,1.3l0.3-0.3c-0.8-2.8-1.4-5.6-2.4-8.4c-0.7-2.3-1.2-4.6-1.5-7c-0.5-3.5-1-7-1.4-10.5
	c-0.3-3.3-0.5-6.6-0.4-9.9c0-3.4-0.3-6.8-0.9-10.2c-0.3-1.9-0.6-3.9-0.9-5.9c-0.9,0-1.8,0.4-2.5,1c-1.9,1.8-4.1,3.3-6.5,4.4
	c-1.2,0.6-2.4,1.3-3.6,1.9c-2,1-4.1,1.9-6.2,2.9c-1.9,0.9-3.8,1.8-5.7,2.5c-2.1,0.8-4.3,1.5-6.5,2c-2.4,0.6-4.8,0.9-7.2,1.3
	c-1.9,0.4-3.8,0.4-5.7,0c-0.9-0.2-1.9,0.3-2.9,0.4s-1.8,0.2-2.6,0.3l-2.5,0.2c-0.8,0.1-1.6,0.6-2.1,1.2c-1.1,1.2-2.3,2.2-3.7,3
	c-3.8,2.2-7.6,4.4-11.8,5.9c-2.6,0.9-5.2,2-8,3.1c0.3,1.3-0.6,2.6-0.1,4.2c0.4,1.4-0.1,3.1-0.1,4.6c0,3.1,0,6.3,0,9.5
	c0,2.3,0.1,4.6,0.2,7c0,1.2,0.3,2.4,0.4,3.5c0,1.4-0.2,2.7-0.2,4.1c0,5.4,0,10.8,0,16.2c0,1.6,0,3.1-0.1,4.6
	c-0.1,2.9-0.4,5.8-0.5,8.7c0,1.7,0.2,3.3,0.2,5c0.1,3.8-0.1,7.7-0.5,11.5c-0.1,0.5-0.1,1,0,1.4c0.2,3.1,0.2,6.2,0,9.3
	c-0.3,3-0.1,6.1,0.5,9.1c1.8-1.5,2.6-4.1,5.5-4.3c-0.1,1-0.2,1.8-0.4,2.7c-0.4,1.6-0.6,3.3-0.8,5c0.1,1.9,0.2,3.8,0.5,5.7l1-1
	c0.9,0.7,0.6,1.3,0.1,1.9c-0.5,0.8-1.4,1.2-2.3,1c-0.5-0.2-0.6-0.4-0.6-2.9c-0.3,0.3-0.6,0.6-0.9,0.9c-0.5,0.9-1,1.9-1.5,2.8
	c-0.3,0.6-0.8,1-1.5,0.6s-0.5-1-0.2-1.4c1-1.7,2.1-3.5,3.2-5.2c0.4-0.6,0.8-1,0.6-1.7c-0.4-1.3-0.4-2.8,0-4.1
	c-0.3,0.3-0.5,0.6-0.8,1c-1.4,2.8-2.7,5.6-4,8.4c-0.9,1.9-0.8,1.9-3,2.9l-3.1-2.5c-0.3,0.6-0.6,1.3-0.9,1.9c-0.6,1.1-1.3,2.1-2,3.2
	c-0.3,0.5-0.6,1-0.8,1.5c-0.2,0.8-0.6,1.3-1.5,1.2c-0.9,0-1.6-0.7-1.7-1.6c-0.1-1.1-0.2-2.3-0.4-3.4c-0.9-3.7-2.4-7.2-4.7-10.3
	c-1,1.5,0.5,3.4-1.4,4.7c-0.2-1.7-0.3-3.1-0.4-4.5c-0.1-0.9-0.3-1.9-0.3-2.8c0-0.5,0.1-1,0.4-1.4c0.4-0.4,1.1-0.4,1.5,0
	c0,0,0,0.1,0.1,0.1c1.1,1.2,2.2,2.4,3.2,3.6c0.3,0.3,0.5,0.7,0.9,1.2c0.2-1.1,0.4-2.2,0.5-3.3c0-2.3-0.1-4.5-0.1-6.8
	c0-0.5,0.2-1.1,0.2-1.6c0-1.3-0.2-2.5-0.2-3.7c-0.1-4.1-0.3-8.2-0.2-12.3c0.1-4.3,0.5-8.6,0.7-12.9c0.1-1.3-0.1-2.6-0.1-3.9
	c0.1-4.2,0.4-8.3,0.4-12.5c0-3-0.3-6.1-0.4-9.1c-0.1-2.7-0.2-5.5-0.4-8.2c0-0.9-0.3-1.7-0.5-2.9c-1.1,1.1-2,2-3,2.9
	c-2.7,2.7-6.2,4.6-9.9,5.5c-3,0.7-6.1-0.5-7.9-3c-1.3,0.7-2.9,0.5-4-0.5c-1.1-0.9-1.9-2.2-2-3.6c-0.4,0.1-0.8,0.3-1.2,0.5
	c-1.1,0.8-2.6,0.6-3.5-0.3c-1-0.9-1.8-1.9-2.4-3.1c-0.5-0.9-0.5-1.9,0-2.8c0.7-1.6,1.5-3.1,2.2-4.7c0.1-0.3,0.2-0.5,0.2-0.8
	c-0.9,0.6-2.2,0.6-2.4,2c0,0.2-0.3,0.3-0.5,0.5c-2.9,2.3-5.9,4.7-8.8,7c-0.8,0.7-1.8,1.2-2.8,1.5c-2.8,0.8-4.9-1.3-5.3-4.1
	c-0.2-1.7,0.3-3.5,1.3-4.9c2-3,4.4-5.8,7.2-8.2c2.6-2.3,5.5-4.4,8-6.8c2.2-2.1,4.6-3.9,7.1-5.5c2.1-1.4,4.4-2.5,6.7-3.8
	c0.6-0.3,1.1-0.7,1.7-1c-0.3-0.7-0.4-1.4-0.7-2c-0.6-1.5-0.9-3.1-0.8-4.7c0.1-0.6,0.1-1.2,0-1.8c0-1.5-0.8-2.9-2.1-3.7
	c-2.2-1.3-3.3-3.6-4.5-5.7c-1.8-3-3-6.4-3.6-9.9c-0.3-1.7-0.3-3.4,0.2-5c0.6-1.7,2.1-3,3.9-3.3c3.5-0.8,6.1,1.1,7.7,4.1
	c0.8,1.7,1.4,3.4,2,5.1c0.5,1.5,1,3,1.5,4.4s0.9,1.6,2.3,1.3c3.6-0.8,6.3,0.7,8.3,3.7c1.2,1.7,2.4,3.5,3.6,5.1
	c0.3,0.3,0.6,0.6,0.9,0.9c0.1-0.4,0.1-0.7,0.1-1.1c0-1.3,0-2.5,0-3.8c0-4.5,0-9,0-13.4c0-3.9,0.1-7.9,0.3-11.8
	c0-1.9,0.2-3.8,0.3-5.7c0-0.6-0.1-1.2-0.2-1.8c-0.1-0.8-0.3-1.5-0.4-2.4c-0.6,0-1.4,0-2.1,0l-10.1,0.3c-2.3,0.1-4.5,0.2-6.8,0.2
	c-1.4,0-2.7-0.1-4.1-0.4c-1.5-0.1-3-0.1-4.5,0c-3.3,0.1-6.7-0.1-10,0s-6.9,0.2-10.4,0.3c-1.3,0.1-2.5,0.1-3.8,0
	c-1.4-0.2-2.8-0.8-3.9-1.7c-4.8-3.5-8.9-7.8-13.4-11.6c-2.5-2.2-5.1-4.4-7.7-6.6c-1.9-1.6-3.8-3.2-5.7-4.9c-1.5-1.3-1.3-3.1,0.4-4.4
	c3.4-2.6,6.6-5.4,10.1-7.9c2-1.5,3.9-3.1,5.7-4.9c1.9-1.8,4-3.3,6-5c0.7-0.6,1.4-1.3,2-1.9c1.6-1.6,3.1-3.2,4.9-4.7
	c0.9-0.8,1.9-1.6,3.5-0.7c0.9,0.6,2.3,0.4,3.5,0.4c3.8,0,7.5,0,11.3-0.1c0.1,0,0.2,0.1,0.3,0.1c3.1-0.8,6.1,0.1,9.1,0.4
	c6.4,0.6,12.8,0.8,19.2,0.7h4.5c-0.3-1.2-0.5-2.2-0.8-3.2c-0.6-2-0.5-3.1,1.5-3.7c0.1,0,0.1-0.2,0.3-0.4L90,91.4
	c-0.1-0.2-0.1-0.4-0.1-0.5c0.7-1.2,2.3-1.6,3.5-0.9c0.1,0.1,0.2,0.1,0.3,0.2c0.5,0.6,0.9,0.6,1.2-0.1c0.8-1.5,1-1.6,2.6-1.4
	c1.2,0.2,2.3,0.4,3.5,0.5c1.4,0,2.4,0.4,2.5,2c0.9,0.1,1.7,0.1,2.6,0.3c0.8,0.1,1.5,0.3,2.3,0.5c2.1,0.6,2.3,1.2,1.6,3.3
	c-0.4,1.3-0.7,2.6-1.1,4.1c6.2,0.4,12.3,1.2,18.4,0.7c0.3-0.7,0.5-1.3,0.8-1.9c1.6-3.8,5-6.6,9-7.4c3.3-0.7,6.7-0.9,10-0.6
	c2.6,0.3,5.1,0.8,7.5,1.5c4.2,1.1,8.3,2.4,12.5,3.7c1.1-1.9,2.8-11.5,2.2-13.6c-0.3,1-0.5,1.6-0.7,2.3c-0.2,0.7-0.5,1.3-0.9,1.9
	c-0.3,0.5-1,0.7-1.5,0.4c0,0-0.1-0.1-0.1-0.1c-0.5-0.3-0.8-1-0.5-1.5c2.1-6.2,5.3-12,9.5-17.1c0.9-1.3,2.3-2.1,3.8-2.3
	c-1.1-2.2-2.2-4.3-3.2-6.4c-1.2-2.7-0.8-5.5,0.1-8.2c0.4-1.2,1.2-2.2,2.3-2.9c2.3-1.6,4.3-0.3,5.1,1.9c0.7,2,1.3,4.1,1.8,6.2
	c0.4,1.7,0.6,3.5,1,5.4c0.7-0.8,1-2,0.5-3c-0.7-1.4-0.3-2.8-0.3-4.2c1.5-0.6,1.8,0.7,2.3,1.4c0.5,0.9,0.8,1.9,1,2.9l1-0.4
	c-0.1-0.3-0.1-0.6-0.2-0.7c-2.1-2.5-1.9-5.3-0.9-8.1c0.3-0.9,0.6-1.8,1-2.7c1.4-3.1,3.6-5.8,6.4-7.8c2.8-2,5.8-3.7,8.7-5.6
	c2.8-1.7,5.5-3.6,7.9-5.9c2.5-2.6,5.3-5,7.7-7.7c1.7-1.9,3.3-3.9,4.6-6.1c2.1-3.4,4.4-6.7,7-9.7c1.4-1.4,3-2.5,4.8-3.3
	c1.7-0.7,3.6-0.2,4.7,1.3c1.9,1.9,2.4,4.8,1.4,7.3c-1.1,2.3-2.3,4.4-3.8,6.5c-0.8,1.2-1.6,2.4-2.4,3.5c0.3,0.7,0.5,1.3,0.7,1.8
	c1.4,2.9,0.5,5.4-1.2,7.9c-1.4,2-3.3,3.6-5.5,4.8c-2.6,1.3-5.1,3-7.8,4.6c0.8,2.3,0.1,4.1-1.5,5.9c-1.8,1.9-3.8,3.5-6,4.8l-1.6,1
	c0.1,0.4,0.2,0.7,0.3,1c0.8,1.4,0.5,3.2-0.8,4.2c-0.4,0.5-0.8,1-1.1,1.6l4.6,2c0-0.4,0-0.6-0.1-0.9c-0.2-2.2,1.4-4.2,3.6-4.4
	c0.2,0,0.4,0,0.5,0c3-0.3,5.9,1.3,7.1,4c0.9-0.5,1.8-0.9,2.7-1.4c2.9-1.5,6-2.4,9.2-2.9c3.7-0.7,7.4-1.3,11.1-1.7
	c7.7-1,15.2-3.5,21.9-7.5c3.9-2.4,7.7-5.1,11.1-8.1c2-1.6,4.4-2.7,6.9-3.4c3.3-0.9,5.5,0.9,5.7,4.3c0.2,3.2-1.5,5.3-3.7,7
	c-2.4,1.8-5,3.5-7.6,5c-1.1,0.4-1.8,1.6-1.6,2.8c0.3,2.4-0.8,4.8-2.8,6.2c-4.9,3.8-10.8,6.2-17,6.9c-0.2,0-0.4,0.1-0.5,0.1
	c-0.1,0.1-0.2,0.1-0.4,0.2c-0.4,4.3-3.2,6.4-7.1,7.7s-8.1,1.5-12.2,1.7c-1.5,0.1-3,0.2-4.6,0.3c-0.1,2.6-2,3.9-4,4.9v9
	c0.6,0.2,1,0.4,1.5,0.5c3.2,0.7,5.8,2.8,7.2,5.7c1.7,3.1,2.5,6.7,2.3,10.2c-0.2,2.4-0.7,4.7-1.3,7c-0.4,1.7-0.1,3.6,1,5
	c1.2,1.7,2.1,3.6,2.7,5.6c1.7,5,1.6,10.5-0.2,15.5c-0.4,1-0.5,2.1-0.8,3.1c-0.1,0.2-0.2,0.4-0.4,0.6c-2-0.3-2-0.3-2.4-2
	c-0.3-2-1-3.8-1.9-5.6c-0.3-0.4-0.5-0.7-1-1.4c-0.8,3.4-2.8,5.8-4.7,8.2c-0.6,0.6-1.3,1.2-2,1.8c-0.5,0.5-1.1,1-1.7,1.5
	c-0.3,0.3-0.8,0.4-1.2,0.3c-0.6-0.3-0.2-0.8,0-1.2c0.7-1.7,1.3-3.4,1.8-5c0.2-0.8,0.3-1.6,0.3-2.5c-1.8,2-3.2,3.9-4.9,5.5
	s-4,2.2-6.7,2.2c-0.3,1.7-0.6,3.5-0.9,5.4l-2,0.2l-1.7-3.4c-1.8,2.4-3.4,4.5-5,6.6c-0.2,0.3-0.3,0.7-0.2,1.1
	c0.5,1.9,1.1,3.8,1.7,5.7c0.4,1.3,1.3,1.7,2.7,1.2c0.3,0,0.5,0,0.8,0c0.6,0,1.2,0,1.8,0c1.8-0.4,1.8-0.4,3.4,0.7
	c4.8-1.4,9.7-2.7,14.5-4.1c9.5-2.9,19-6.1,28.8-7.9c2.3-0.4,4.7-0.8,7.1-1c0.9-0.1,1.8,0,2.6,0.4c2.6,0.9,5.2,1.9,7.7,3
	c1.6,0.7,3.1,1.6,4.6,2.5c3,1.7,6,3.3,8.9,5.1c4.4,2.7,8.8,5.5,13.2,8.3c1.5,1,3,2.1,4.6,3c1.2,0.7,2.5,1.1,3.8,1.5
	c2.2,0.5,4.4,0.5,6.5-0.2C328.6,170.4,331,170,333.5,169.4z M100.9,94.8v-2.9c-0.9-0.4-2-0.6-3-0.4c-0.3,2,1.1,3.9-0.4,6
	c-0.7-0.5-1.3-1.1-1.9-1.8c-0.5-0.7-0.9-1.4-1.2-2.1c-1.9,0.4-2,0.5-1.8,2.1c0.2,1,0.4,2.1,0.5,3.1l13.8,0.2
	c0.2-1.5,0.4-3.1,0.7-4.9c-1-0.2-1.8-0.4-2.6-0.5s-1.5,0-1.7,1.1c-0.1,0.5-0.7,1-1.2,1.7L100.9,94.8L100.9,94.8z M203.1,87.2
	c0.3-0.2,0.6-0.4,0.7-0.7c0.4-1.1,1.1-2,2-2.6c0.7-0.5,1.3-1.1,1.9-1.7c-1.7-0.8-3-2.5-5.2-1.6C202.7,82.8,202.9,85,203.1,87.2
	c-1.2,1-2.1,0.9-2.8-0.4c-0.2-0.3-0.3-0.7-0.4-1c-0.6-2-1.2-4-2-5.9c-0.6-1.7-1.6-3.2-2.9-4.5c-1.1-1.2-2.9-1.2-4-0.1
	c0,0-0.1,0.1-0.1,0.1c-0.4,0.3-0.6,0.7-1,1c-0.6,0.6-1.1,1.3-2.1,0.9s-0.9-1.2-0.9-2.1c0.1-1.3,0-2.5,0-3.9l-4.1-0.9
	c0.1,1.4,0.2,2.5,0.3,3.6s0,2.3,0,3.5c-1.7,0-1.7,0-2.3-1c-0.3-0.4-0.6-1-1-1.1c-1.6-0.5-3.3-0.2-4.6,0.7c-1.3,1-2.4,2.1-3.6,3.1
	c0.3,5.7-0.4,11.4-2.2,16.9l2,0.9c0.3-1.7,0.5-3.2,0.8-4.8c0.5-3.1,1.3-6.2,2.6-9.1c0.4-1.3,1.8-2,3.1-1.6c0.4,0.1,0.7,0.3,1,0.6
	c1.5,1.2,2,2.9,2.4,4.7c0.9,4,1,8.1,0.3,12.1c0,0.5-0.2,1.1-0.5,1.5c-0.3,0.4-0.9,0.5-2,1c0.4,0.2,0.8,0.3,1.2,0.6
	c0.5,0.3,0.9,0.7,1.3,1.2c0.2,0.3,0.3,0.7,0.2,1.1c-0.3,0.3-0.7,0.5-1.1,0.4c-0.7-0.1-1.4-0.4-2-0.8c-0.7-0.4-1.2-1.1-2-1.5
	c-4.1-2.2-8.4-4.1-12.8-5.5c-4.8-1.6-9.7-2.8-14.7-3.7c-4.7-0.9-9.5-0.3-13.9,1.6c-2.4,1.1-4.2,3.3-5,5.8c-0.7,2-0.4,4.1-0.3,6.2
	c0.1,4,1.8,7.2,4,10.3c2.5,3.4,5.6,6.2,9.1,8.4c6.5,4.3,13.4,5.1,20.7,2.7c3.9-1.2,7.6-2.8,11.2-4.8c1.5-0.9,3.1-1.9,4.6-2.8
	c1-0.6,1.5-0.6,1.9,0.5c0.1,0.4,0.2,0.7,0.3,1.1c-4.7,3.9-10.4,6.1-16,8.5c0.4,0.7,0.8,1.3,0.9,1.9c0,1.9,1.5,3,2.3,4.4
	c-0.2-1.3-1.1-2.5-0.6-4.2l2.2,0.8c0.3,1.9,1.4,3.6,3,4.6c0.9,0.6,1.8,1.1,2.7,1.7c0.4,0.3,0.7,0.6,1.1,1c-3,0.4-4.8-1.5-7-2.6
	c0.1,0.3,0.3,0.6,0.5,0.9c2.3,3,5.2,5.5,8.6,7.1c3.5,1.7,7.2,3.3,10.7,5.1c2.1,1.1,4.2,2.3,6.1,3.7c1.8,1.3,3.4,3.1,5.2,4.4
	c3.3,2.4,6.1,5.4,8.1,8.8c0.3,0.4,0.6,0.7,1,1.1c-0.3-1.9-1-3.6-2.1-5.2c-0.8-1.3-2.1-2.3-2.2-4.1c0.7-0.4,1.5-0.3,2.1,0.3
	c1.6,1.4,3.4,2.4,4.7,4.1c0.4,0.4,0.8,0.7,1.3,0.9c-0.4-1.9-0.6-3.5-0.9-5c-0.6-3.2-1.2-6.4-3.1-9.1s-3.8-5.4-5.9-8
	c-2.9-3.6-6.5-6.4-10.2-9.2c-1-0.8-2.2-1.3-3.4-1.3c-0.4,0-0.8-0.1-1.1-0.4c-0.8-1.1-2.5-1.4-2.5-3.1c0-0.2-0.4-0.4-0.6-0.6
	c-2.9-2.1-4.5-5.5-4.3-9c0-2.8,1-5.1,3.6-6.5c0.8-0.5,1.7-0.9,2.6-1.1c1.9-0.6,4,0.1,5.3,1.6l-1.5,1c-0.9-1-2.3-1.4-3.6-0.8
	c-1.4,0.3-2.6,1.1-3.2,2.4c-1.7,3.7-0.8,8.1,2.4,10.8c2,1.7,4.3,2.4,7,1c2.7-1.7,4.3-4.8,4.3-8c0-0.6-0.4-1-0.9-1.2
	c-0.7-0.3-1-0.7-0.7-1.7c0.6,0,1.3,0.1,1.9,0.3c2.4,0.8,3.6,2.8,4.3,5.1c0.4,1.5,0,2.1-1.7,3.1c-0.2-0.9-0.4-1.7-0.6-2.7
	c-1.2,3.7-3.2,6.4-7.1,7.5c1.2,0.9,2.4,1.4,3,2.3c0.6,0.9,1.4,1.7,2.3,2.4c2,1.5,3.4,3.6,5.1,5.4c2.3,2.2,4.2,4.9,5.6,7.8
	c0.5,0.7,1,1.4,1.6,2c0.8-1.1,1.5-2.1,2.2-2.9c3.5-3.9,5.8-8.9,6.4-14.1c0.3-2.8,0.1-5.5-1.6-7.9c-0.5-0.7-0.9-1.4-1.3-2.1l1.1-2
	c0.9,0.1,1.7,0.5,2.4,1.1c0.9,0.7,1.8,1.3,2.9,1.8c2.2,0.9,4.5,1.4,6.8,1.4c0.5,0,0.9-0.1,1.4-0.2c3.2-1,5.4-3.3,7.1-6
	c2-3.2,3.4-6.7,4.1-10.4c0.9-4.1,1.2-8-0.5-12s-3.5-5.8-7.8-6.4c-1.8-0.3-3.6,0.3-4.9,1.5c-1.4,1.2-2.5,2.6-3.3,4.2
	c-1.5,3.1-2.3,6.5-2.5,9.9c0,0.6-0.1,1.3-0.2,2.1l-2.5-0.7c-0.1,0.2-0.2,0.4-0.2,0.6c-0.1,2.4-0.6,4.9,0.7,7.2
	c0.6,1.1,0.3,1.3-0.8,1.7c-1.1,0.5-2.4,0.1-3-0.9c-1.7-2-3-4.2-3.8-6.7c-0.3,1.5-0.5,3-0.8,4.4c-2-0.2-2.3-0.4-2.8-2
	c-0.3-1.3-0.6-2.5-0.9-4c-1.6,2.3-1.6,4.8-1.8,7.3c-1.4,0.7-1.7,0.7-2.1-0.2c-0.8-1.9-1.5-3.8-2-5.7c-0.6-2.4-0.6-4.9-0.2-7.4
	c-0.6-0.6-1.3-1-1.5-1.6c-1-2.7-1.2-5.6-0.5-8.5C202.3,90.4,202.7,88.8,203.1,87.2z M127,102.5c-1.9,0-4,0-6.1,0
	c-1.9,0-3.7,0-5.5-0.1c-3.5-0.2-6.9-0.7-10.4-0.8c-9.4-0.3-18.8-0.5-28.2-0.7c-3.3-0.1-6.6-0.1-9.9-0.2c-2.9-0.1-5.8-0.5-8.7-0.6
	c-5.4-0.1-10.8-0.4-16.1-0.1c-0.8,0-1.6,0.3-2.2,0.9c-2.8,2.2-4.9,5.2-7.9,7.3c-1.9,1.5-3.7,3-5.4,4.7c-1.1,0.9-2.1,1.9-3.3,2.8
	c-3.2,2.6-6.5,5.1-9.7,7.7c-0.5,0.5-1,1.1-1.4,1.6c2.7,2.5,5.2,4.8,7.8,7.1c1.7,1.5,3.5,2.8,5.2,4.3c2,1.7,3.8,3.6,5.8,5.3
	c2.7,2.3,5.5,4.6,8.3,6.9c0.6,0.6,1.5,0.9,2.4,0.9c2.2-0.1,4.4-0.3,6.6-0.3c2.7,0,5.5,0,8.2,0c3.5,0,6.9-0.2,10.4-0.2
	c2.4,0,4.8,0.3,7.1,0.3c6.2-0.1,12.3-0.3,18.5-0.4c1.3,0,2.5,0,3.8,0c3.3-0.1,6.6-0.3,9.9-0.3c2.9,0,5.8,0.1,8.7,0.1
	c3.6,0,7.3,0,10.9,0c1.3,0,2.6-0.1,3.8-0.2c0-2-0.1-3.8,0-5.5c0.1-2.4,0.6-4.9,0.5-7.3c-0.1-4.3,0.8-8.6,0.8-12.9
	c0.2-1.2,0-2.4-0.4-3.5c-0.2-0.3-0.2-0.7-0.1-1c0.4-0.7,0-1.3-0.3-1.8c-1.3-2-2.1-4.3-2.4-6.7C127.5,107.2,127.3,105,127,102.5
	L127,102.5z M174.8,275.4c-0.5,1.2,0,1.7,0.8,2.2c0.5,0.2,0.9,0.6,1.3,1c0.3,0.4,0.5,1.1,0.3,1.4s-0.9,0.4-1.4,0.5
	c-0.4,0-0.7-0.2-1-0.4c-0.8-0.6-1.6-1.1-2.5-1.7c-0.7-0.7-1.8-0.8-2.7-0.2c-0.6,0.3-1.3,0.6-2,0.8c-2.8,0.7-4.9,3.2-4.9,6.1
	c-0.1,1.9,0.5,3.7,1.6,5.2c2.1,3.2,4.4,6.2,6.9,9.1c2.9,3.3,6.5,5.8,10,8.3c2.9,2,5.9,3.8,8.9,5.6c1.7,1.1,3.5,2,5.3,2.9
	c3.1,1.4,6.4,2.7,9.5,4.1c5.5,2.5,11.2,4.5,17,6c1.4,0.3,3,0.9,4.6,0.4c0.9-0.3,1.5,0.3,1.9,1.4c0.4,1.5,1.6,2.8,3.1,3.2
	c1.2,0.3,2.4,0.8,3.5,1.3c2.7,1.2,5.3,2.4,7.9,3.7c1.9,1.1,4.2,1.4,6.4,0.9c0.3-0.1,0.6-0.1,0.9-0.1c3.9-0.2,7.6-2.1,10-5.2
	c1.4-1.5,2.2-3.5,2.2-5.5c-0.3-3.4-1.4-6.7-3.4-9.5c-3.2-5-7.8-8.7-11.7-13c-2-2-4-3.9-6.2-5.6c-2.2-1.9-4.6-3.6-6.7-5.6
	c-2.3-2.1-4.8-4-7.4-5.6c-3.2-2.1-6.6-4-9.6-6.3s-6.5-4.3-9.7-6.4c-2.3-1.5-4.9-2.7-7.4-4c-3.4-1.7-7.1-2.7-10.8-3.1
	c-3.2-0.5-6.5-0.4-9.6,0.3c-1.3,0.2-2.6,0.5-3.8,0.9c-2.3,1-4.5,2.3-5.3,5c-0.3,0.6-0.7,1.3-1.1,1.8L174.8,275.4z M83.7,222.5
	c-0.1-4.1,1.7-7.7,3.9-11.1c0.5-0.8,1.2-1.5,1.9-2.1c0.6-0.5,1.3-0.6,1.9,0.3c-0.2,0.4-0.4,0.8-0.7,1.1c-2.8,3.2-4.6,7.2-5.3,11.4
	c-0.1,0.6,0,1.3,0.4,1.8c0.9,1.2,1.5,2.7,1.8,4.2c0.2,2.6-1.7,4.4-2.9,6.6c-0.8-0.5-1.5-1.1-2.2-1.1c-1,0-1.4-0.6-1.8-1.2
	c-0.3-0.5-0.6-1-0.9-1.5c-0.3,0.3-0.5,0.6-0.7,0.9c-1.2,2.3-2.7,4.5-3.4,7s-0.1,3.3,2.5,3.3c0.4,0,0.8-0.1,1.2-0.2
	c4.6-0.9,8.2-3.5,11.4-6.8c2.3-2.5,4-5.4,5.2-8.5c0.8-1.7,1.3-3.6,1.5-5.4c0.2-1.4,0.2-2.7,0.1-4.1c0-1.6,0.2-3.1,0.4-4.6
	c0.6-0.4,1.2-1,1.8-1c2.1,0,4.1-0.4,6-1.2c4.2-1.5,8.4-3,12.6-4.7c2.2-0.7,4.3-1.7,6.3-3c1.9-1.4,3.9-2.5,5.9-3.7
	c0.8-0.4,1.5-0.9,2-1.6c0.8-1.6,2-1.5,3.3-1c1.4,0.5,2.9,0.4,4.2-0.3c0.6-0.3,1.3-0.5,2-0.5c1.4-0.1,2.9,0,4.3-0.2
	c3.6-0.4,7.2-1.1,10.7-2.1c1.8-0.5,3.7-1.1,5.5-1.7c1.5-0.5,3-1.2,4.4-1.9c2.8-1.3,5.5-2.5,8.2-3.9c3.8-2.3,7.5-4.8,10.9-7.7
	c0.4-0.3,0.7-0.6,0.5-1.2c-0.3-1-0.6-1.9-0.9-2.9c-0.1-0.7-0.8-1.1-1.5-1c-1.1,0-2.2,0-3.2-0.1c-2.6-0.2-5.1-0.4-7.4-1.7
	c-0.4-0.2-0.9-0.4-1.3-0.4c-1.7,0.2-3.3,0.5-5,0.8c-2.7,0.5-5.4,1-8.1,1.5c-0.4,0.1-0.8,0-1.2-0.2c-0.3-0.2-0.5-0.6-0.6-0.9
	c0-0.2,0.4-0.6,0.6-0.7c0.4-0.2,0.9-0.4,1.4-0.5c2.8-0.5,5.6-1,8.5-1.5c0.7-0.1,1.5-0.3,2.1-0.5c-0.8-1.7-1.5-3.3-2.1-4.9
	c-0.8-2-1.8-3.8-3.1-5.5c-1.4-1.7-2.4-3.6-2.8-5.7c-0.2-0.6-0.4-1.2-0.7-1.7c-0.8,1.8-1.4,3.3-2,4.8c-1.6,3.7-2.4,7.8-2.5,11.8
	c0,3.1,0,6.4,1.5,9.1l-1.5,2.5c-2.2,0.3-3.3-1.5-4.6-2.9c-1.2-1.5-2.2-3-3.2-4.6c-0.1,0.7-0.1,1.5,0,2.3c0.2,1.5,0.4,3.1,0.6,4.6
	c0,0.4-0.2,1.1-0.5,1.2c-0.5,0.1-1,0.1-1.5-0.2c-0.5-0.5-1-1-1.3-1.6c-0.8-1.3-0.9-1.4-2.3-1c-3,1-6,2-9,3.1s-6,2.5-9,3.9
	c-3.5,1.6-7.1,2.9-10.4,4.7c-2.5,1.4-5.2,2.4-7.8,3.7c-3.5,1.7-6.9,3.5-10.3,5.4c-0.6,0.3-1.3,0.3-1.9,0c-1.8-0.8-3.4-2-4.5-3.7
	c-1.8-2.3-3.4-4.6-5.1-6.9c-1.4-2-3.2-3.2-5.8-2.9c-0.8,0-1.5,0-2.3,0c-0.7,0-1.4-0.3-1.8-1c-0.4-0.6-0.7-1.2-1-1.9
	c-0.7-1.7-1.2-3.5-1.9-5.3c-0.5-1.4-1.1-2.7-1.7-4.1c-1.3,1.1-1.2,1.1-1.1,2.2c0.2,1.5,1,2.9,2.1,3.8c0.4,0.4,0.8,0.9,1.1,1.4
	c0.1,0.4,0,0.8-0.3,1.1c-0.4,0.2-0.8,0.2-1.1,0c-2.2-1-3.8-3-4.3-5.4c-0.4-1.9,0-3.4,1.8-4.4c0.1,0,0.1-0.2,0.2-0.6
	c-0.7-0.3-1.5-0.6-2.3-0.9c-1-0.3-2,0.2-2.3,1.1c-0.1,0.2-0.1,0.4-0.1,0.5c-0.2,1.5-0.2,3,0.1,4.5c0.9,3.8,2.4,7.4,4.5,10.6
	c0.7,1.4,1.8,2.5,3.1,3.3c1.9,0.9,2.1,2.4,2.1,4.1c0,0.1-0.1,0.2-0.1,0.3c-0.3,2.4,0.1,4.8,1.1,7c0.8,2.1,2,4,3.5,5.5
	c0.4,0.4,0.7,0.8,1,1.2c0.5,0.5,0.5,1.3,0,1.8c-0.6,0.7-1.1,0.1-1.5-0.3c-0.2-0.2-0.5-0.4-0.7-0.6c-1.2-1.3-2.3-2.5-3.5-3.9
	c-0.3,0.2-0.6,0.4-1,0.7c-1.8,1.5-3.7,2.9-5.7,4c-2.3,1.5-4.5,3.2-6.7,4.8c-1.4,1-2.6,2.3-3.9,3.4s-2.7,2-3.8,3.2
	c-2,1.9-3.8,3.9-5.7,6c-1,1.1-1.9,2.3-2.7,3.6c-0.9,1.1-1.2,2.6-0.8,4c1.1,0.4,2.3,0.2,3.1-0.6c3-2,5.9-4.3,8.6-6.7
	c2-1.9,4.4-3.3,6.9-4.3c0.9-0.3,1.7-1,2.3-1.8c1.8-2.2,3.8-4.3,5.7-6.4c1.2-1.2,2.8-1.9,4.5-1.8c1.6,0.2,3,1.4,3.4,3
	c0.1,0.6,0.1,1.2-0.8,1.4c-0.5,0.2-1.1-0.1-1.2-0.7c0-0.1,0-0.1,0-0.2c-0.1-0.4-0.1-0.8-0.2-1.3c-1.5-0.2-3.1,0.4-4.1,1.6
	c2.9,0.9,2.9,0.9,2.3,2.6c-2.7,0.5-3.7,2.7-2.2,5.2c0.7-1.2,1.4-2.3,2.1-3.4c0.9-1.5,2.3-2.6,4-3c2.1-0.5,3.7,1.6,3.8,3.1
	c0.1,0.6-0.4,1.2-1,1.3c0,0,0,0,0,0c-0.7,0.1-1.1-0.3-1.1-1.1c-0.1-0.4-0.2-0.9-0.3-1.3l-2.3,1c1.1,1.5,1.1,1.5-0.1,2.6
	c-0.4,0.4-0.8,0.7-1.2,1c-0.1,0.1-0.2,0.3-0.2,0.4L78,226l1.2-1.5c0.3,0.3,0.5,0.6,0.6,0.8L83.7,222.5z M405.7,370.5
	c-0.6-0.2-1.3-0.3-1.9-0.5c-1.6-0.5-2.7-1.8-3.1-3.4c-0.2-0.8,0.1-1.3,0.9-1.4c0.7-0.2,1.4,0.1,1.6,0.8c0.5,1.2,1.8,1.9,3.1,1.7
	c0.3,0,0.6,0,0.9,0.1c3.3,0.3,6.4,0,9.3-2c1.4-0.9,2.5-2.4,3-4c1-3.2,0.6-6.4,0.5-9.6c0-1.4-0.3-2.9-0.8-4.2
	c-2.3-6.1-4.4-12.3-7.5-18.2c-2.5-4.7-5.3-9.2-8.4-13.5c-1.4-2-3.1-3.8-4.5-5.8c-1.8-2.5-3.4-5-5.1-7.5c-0.4-0.6-0.9-1.1-1.3-1.6
	c-0.9,1.8-1.8,3.4-2.5,5.1c-0.5,1.4-1.4,2.6-2.5,3.6c-2.9,2.8-6.3,4.8-10.1,6c-3.1,0.9-6.2,1.8-9.2,2.9c-2.7,0.9-5.1,2.4-7.2,4.2
	c-0.4,0.4-0.8,0.8-0.6,1.3c0.6,1.7,0.6,3.5,1.5,5.1c1.3,2.5,2.5,5,3.4,7.7c1,2.7,1.7,5.6,2.6,8.4c0.8,2.6,1.8,5.2,2.7,7.8
	c1.3,3.5,3.1,6.7,5.3,9.7c2.5,3.4,6,6.1,9.9,7.6c4.7,1.9,9.8,2.9,14.9,2.8c0.7,0,1.4-0.1,2.1-0.2
	C404.7,372.9,405.5,372.2,405.7,370.5L405.7,370.5z M319.6,189c0.4,0.5,0.8,1,1.1,1.6c1,2.5,1.9,5,3,7.5c0.4,0.9,1,1.6,1.8,2.1
	c3.5,2.3,7,4.6,10.5,6.9c0.8,0.5,1.6,1.1,2.5,1.5s1.4,0.2,1.6-0.9c0.2-1.4-0.1-2.8-0.9-3.9c-0.4-0.5-0.6-1.1-0.9-1.8
	c-0.4-1.5,0.4-2.3,2-2c0.9,0.2,1.8,0.3,2.7,0.3c1.2,0.1,2.2-0.8,2.3-2c0-0.4-0.1-0.9-0.3-1.3c-0.4-0.8-0.9-1.5-1.5-2.2
	c-0.4-0.4-0.7-0.9-1-1.5c-0.1-0.4-0.1-0.9,0.2-1.3c0.1-0.2,0.8-0.2,1.1,0c0.9,0.5,1.7,1,2.6,1.6l1.5-0.2c1.4-0.1,1.5-0.3,1.5-1.8
	c-0.1-0.9-0.1-1.9-0.2-3c1.1-0.6,2.2-1.2,3.3-1.9c0.7-0.4,1.3-1.1,1.1-1.9c-0.4-0.9-0.9-1.8-1.5-2.6c-2-0.2-3.2-1.8-4.6-3
	c-2.4-2.1-5.1-3.9-7.9-5.5c-2.3-1.1-4.7-2.1-7.2-1.9c-2.4,0.3-4.7,0.8-7,1.4c-2.1,0.6-4.3,0.5-6.4-0.1c-1.3-0.5-2.5-1-3.8-1.6
	c-0.4-0.2-0.7-0.4-1.1-0.6c-1.7-1-3.3-2.1-4.9-3.2c-2.7-1.8-5.4-3.7-8.1-5.5c-1.6-1-3.1-2.2-4.7-3.1c-2.3-1.3-4.7-2.2-7-3.5
	c-3.5-2-7.1-3.7-10.8-5c-2.7-1.1-5.6-1.3-8.4-0.7c-4.6,1.1-9.3,2.2-13.9,3.5c-2.8,0.7-5.6,1.7-8.4,2.5c-1.6,0.5-3.3,1.1-4.9,1.6
	c-3.5,1-7,2-10.4,3c-2.7,0.8-5.5,1.7-8.3,2.6c-0.4,3.3,0.2,6.6,1.8,9.5c1.7,0.3,3,0.6,4.4,0.8c2,0.3,4.1,0.5,6.2,0.6
	c1.7-0.1,3.4-0.3,5.1-0.6c3.9-0.7,7.9-1.4,11.8-2.2c3.3-0.7,6.6-1.6,9.9-2.3c1.2-0.3,2.5-0.2,3.7-0.6c2.3-0.7,4.7-0.9,7.1-0.7
	c4.4,0.3,8.6,1.6,12.8,2.7c3.5,1.1,6.8,2.5,10,4.3c2.5,1.3,4.9,2.7,7.3,4.2c2.3,1.6,4.5,3.3,6.6,5.1c1.2,0.9,2.1,2.1,2.8,3.4
	c1,2.1,2,4.3,2,6.8c0,0.1,0.1,0.3,0.3,0.6c0.5-0.7,0.9-1.4,1.3-2c0.6-0.9,1.4-1.6,1.3-2.9C318.7,189.9,319.2,189.5,319.6,189z
	 M308.2,217.9c1.3-2.3,2.7-4.6,4-6.9c0.6-0.8,0.8-1.9,0.5-2.9c-0.8-2.5-0.6-5.3,0.6-7.7c0.8-1.5,1.1-3,0.1-4.5
	c-0.1-0.1-0.2-0.3-0.2-0.5c-0.2-2-0.7-4-1.5-5.8c-0.8-2.1-2.2-3.9-4-5.1c-3.6-2.7-7.4-5.1-11.4-7.2c-1.9-1-3.8-1.9-5.8-2.7
	c-4.5-1.4-9.1-2.6-13.6-3.8c-2.4-0.6-5-0.8-7.4-0.3c-2.1,0.4-4.2,0.8-6.3,1.2c-2.7,0.6-5.3,1.4-8,2c-4.8,1-9.6,1.9-14.4,2.7
	c-4,0.8-8.1,0.5-11.9-0.9c-0.2-0.1-0.5,0.1-0.9,0.1c0.2,0.4,0.4,0.7,0.5,0.9c2.1,3,4.9,5.4,8.2,7.1c2,1.1,3.9,3,6.6,2.8
	c0.2,0,0.4,0.3,0.5,0.4c0.6,0.5,1.2,0.9,1.9,1.3c1.9,0.9,3.7,1.9,5.6,2.7c3.4,1.4,6.8,2.8,10.3,3.9c3.7,1.2,7.5,2,11,3.8
	c3.6,1.8,7.1,3.2,10,6c0.6,0.8,1.7,1.2,2.7,0.9c1.2-0.5,2.6,0,3.3,1.1c1.6,2,3,4.1,4.5,6.2l3.6,5
	C300.6,216.3,304.4,217.5,308.2,217.9z M309.7,243.7c-1.8-0.1-3.7-0.4-5.5-0.4c-6.8,0-13.7-0.6-20.5,0.2c-2,0.2-3.9,0.3-5.9,0.6
	c-2.8,0.4-5.5,0.9-8.3,1.3c-5.2,0.3-9.8,3.5-12,8.2c-1.8,3.9-3.7,7.6-5.4,11.5c-1.6,3.6-2.9,7.3-4.3,11s-3,7-4.3,10.6
	c-1.1,2.9-2,5.9-3,8.8c2.4,1.5,4.8,3,7.2,4.5s4,4.3,6.5,5.8c6.4-12.8,12.8-25.5,19.1-38.3c0.1-0.2,0.1-0.5,0-0.4
	c-1.1-0.9-2.4-1.4-2.7-2.4c-0.7-2-1.2-4-1.5-6h1.9c-0.5,2.5,0.9,4.2,2.2,5.9c0.4,0.5,0.5,1.3,1,1.8c1.5,1.4,1.5,1.3,0.9,3
	c-0.4,1-0.8,2-1.3,3.2c0.8-0.1,1.7-0.1,2.5,0c3.8,0.4,7.6,0.5,11.4,0.1c3.5-0.2,7-0.9,10.4-1.4c1.4-0.2,2.7-0.6,3.9-1.1
	c2.9-1.5,4.4-4.1,5.4-7.1C309.4,256.8,310.1,250.2,309.7,243.7z M360.9,288.3c-0.8,0.4-1.7,0.6-2.7,0.7c-2.4-0.1-4.8-0.3-7.2-0.5
	c-4.3-0.4-8.7-0.9-13-1.3c-2.8-0.3-5.6-0.5-8.4-0.7c-2.4-0.2-4.9-0.7-7.3-0.7c-4.1,0-7.7-1.7-11.1-3.7c-1.9-1.1-3.6-2.5-5.4-3.8
	c-1-0.7-2-1.4-3-2c-1.1-0.6-2.1-1-2.2-2.4c-9.3,1.7-18.5,2.9-27.8,0.8c-1.3,1.6-2.2,3.5-2.7,5.5c0.5,0.3,1.1,0.5,1.6,0.8
	c0.4,0.1,0.7,0.4,1,0.6c2.4,2.9,5.2,5.6,8.2,8c3.8,3.2,7.8,6.4,11.8,9.4c2.6,2,5.3,3.9,8.7,4.5c1.8,0.3,3.7,0.4,5.5,0.6
	c3.6,0.3,7.1,0.7,10.7,1c2.5,0.2,5,0.1,7.5,0.1c4.8,0.2,9.6-0.1,14.3-0.7c3.1-0.5,6.1-1.2,9.2-1.4c4.9-0.4,9.5-1.7,14.3-2.8
	C363.3,296.2,362.6,292.1,360.9,288.3z M144,174.5c-0.6-1.3-1.1-2.4-1.6-3.5c-1.7-3.4-2.7-7-3-10.8c-0.4-3.9-0.1-7.9,0.8-11.8
	c1.2-5,2.4-10,5.1-14.5c0.5-1.1,0.8-2.2,1-3.4c-4.8-2.6-9.1-5.9-12.9-9.7c0,10.2-0.9,20-1.5,29.9c-4.1,0.6-8.1,0.4-12,0.4
	s-7.8,0.1-11.7,0.2c0,1.9-0.1,3.8,0,5.6c0.2,1.6,0.2,3.2-0.1,4.8c-0.3,1.1-0.5,2.2-0.4,3.4c0.1,2.7-0.5,5.3-0.2,8
	c0.2,1.8-0.2,3.7-0.2,5.5c-0.1,3.2-0.1,6.3-0.1,9.5c0,0.6-0.1,1.2-0.1,2.1c1.1-0.4,1.9-0.6,2.7-1c4.1-1.9,8.1-3.8,12.2-5.6
	c1.8-0.8,3.6-1.6,5.4-2.4c2.8-1.2,5.5-2.6,8.3-3.7S141.1,175.5,144,174.5z M347.8,306.9c0.6,1.7,1.1,3.4,1.5,5.2
	c0.4,2.5,0.5,5.1,0.8,7.7c0.2,1.4,0.6,2.7,1.1,3.9c0.4,1,1.6,1.5,2.6,1.1c0.1,0,0.2-0.1,0.2-0.1c0.4-0.2,0.8-0.4,1.2-0.7
	c1.9-1.4,3.8-2.9,5.8-4.2c3.2-2.1,6.8-3.7,10.6-4.8c3.8-1,7.5-2,10.7-4.3c1.6-1.1,3.4-2.1,4.3-3.9c0.8-1.7,1.5-3.4,2.1-5.1
	c0.2-0.6,0.2-1.3,0-1.9c-0.6-2.9-2.5-4.7-5.1-5.8c-3.7-1.8-7-4.5-9.5-7.7c-1.7-2-3.5-3.9-5.4-5.8c-1.7-1.9-4.2-3-6.7-3.1
	c-4.2-0.1-8.1,2-10.4,5.5c-0.3,0.7-0.6,1.5-0.7,2.2c0.9,0.2,1.5,0.3,2.2,0.4c2.8,0.4,5.5,0.7,8.3,1.1c0.3,0,0.6,0.1,0.8,0.3
	c0.7,0.9,1.3,1.8,1.7,2.9c0.9,3.4,1.3,6.8,1.3,10.3c0,1.3-0.4,2.5-1.2,3.5c-1,1.3-1.2,1.4-2.3,0.5L347.8,306.9z M100.3,213.9
	c-0.1,0.4-0.2,0.7-0.3,1.1c0,1.7,0,3.4-0.1,5.1c-0.2,3.5-1.1,6.9-2.8,9.9c-0.6,1.1-1.2,2.2-1.8,3.3c-0.4,0.8-0.8,1.6-0.2,2.4
	c0.5,0.8,0.8,1.7,0.7,2.7c0.1,1.7,0.2,3.3,0.3,5c0.2,3.7,0.5,7.4,0.7,11c0.2,1.3,0.2,2.6-0.1,3.9c-0.6,2.2-0.2,4.4-0.3,6.5
	c-0.1,2.4,0.1,4.8,0,7.1c-0.2,4.3-0.9,8.7-0.9,13c-0.1,6.2,0.4,12.4,0.4,18.6c0,3.6-0.4,7.1-0.6,10.7c-1,1.8,0.1,3.2,1.1,4.7
	c0.1-1.8,0.2-3.7,0.3-5.8c2.4,1.9,1.1,4.4,2,6.4c1-3.6,2.3-7.1,2.2-10.8c0-0.2,0-0.4,0.1-0.5c0.2-0.2,0.4-0.4,0.6-0.5
	c0.2,0,0.4,0.1,0.5,0.3c0.3,0.7,0.4,1.5,0.5,2.3c0,1.3-0.2,2.6-0.3,3.9c-0.1,2.2,0.7,4.4,2.3,6c0.8-1.8,1.6-3.5,2.3-5.2
	c0.3-0.8,0.4-1.6,0.4-2.4c0-1.4-0.3-2.8-0.3-4.3c0-4.4,0-8.9,0.1-13.3c0.1-5.4,0.1-10.9,0.2-16.3c0-3.5,0.1-7,0.2-10.5
	c0.1-4.1,0.3-8.2,0.3-12.4c0-3.4-0.3-6.8,0-10.2c0.4-3.9-0.4-7.6-0.2-11.5c0.1-1.2,0.1-2.4,0-3.5c-0.5-2.5-0.4-5,0-7.5
	c0-0.3,0-0.6,0-0.9c0-2.9,0.1-5.9,0.1-8.8c0-0.4-0.1-0.8-0.1-1.3L100.3,213.9z M282.3,50.8c-0.5,0.1-1,0.3-1.5,0.5
	c-2.8,1.4-5.8,2.6-8.8,3.6c-3.5,1.4-7.1,2.3-10.9,3c-0.9,0.1-1.8,0.2-2.7,0.1c-0.4,0-0.7-0.2-0.9-0.6c-0.3-0.5,0.2-0.9,0.7-1
	c1.4-0.5,2.8-1.1,4.2-1.6c2.9-1,5.8-2,8.6-3.1c3.2-1.2,6.4-2.6,9.6-4c4.2-1.8,8.1-4.1,11.8-6.8c1.8-1.3,3-3,2.8-5.7
	c-0.8-0.1-1.5-0.1-2.3-0.1c-2.4,0.6-4.7,1.7-6.6,3.3c-2.5,2.1-5.3,4.1-8,6.1c-3.1,2.2-6.4,4.1-10,5.5c-4.4,1.9-9,3.2-13.7,3.9
	c-3.3,0.4-6.6,1-9.9,1.5c-3.9,0.4-7.8,1.4-11.4,3c-3.1,1.4-6,3.2-7.6,6.3c-1.4,2.5-2.6,5-3.6,7.6c-0.5,1.2-1,1.9-2.4,1.9
	c-2,0.2-3.6,1.6-4,3.5c-0.1,0.6,0,1.2,0.3,1.7c1,1.5,2.8,2.2,4.5,2c1.8-0.3,3.2-1.8,3.4-3.6c0.1-0.5,0.2-1,0.4-1.5
	c0.5,0.4,1.1,0.6,1.6,0.8c2.7,0.2,5.5,0.5,8.1-0.2c1.1-0.4,2.1-0.9,3-1.6c0.4-0.2,0.5-0.8,0.9-1.4c-0.8,0-1.2,0-1.7-0.1
	c-2-0.3-3.9-0.5-5.8-0.8c-0.8-0.1-1.3-0.5-1-1.6c1.5,0,3,0,4.4,0c5.3-0.2,10.6-0.4,16-0.7c3.4-0.2,6.6-1.1,9.5-2.9
	c1.1-0.6,1.9-1.6,2.1-2.8c-1.3,0.1-2.5,0.1-3.8,0.3c-2.4,0.2-4.8,0.6-7.1,0.8c-2.7,0.2-5.5,0.4-8.2,0.5c-0.7,0-1.3-0.1-1.9-0.3
	c-0.3-0.1-0.5-0.5-0.8-1c1.9-0.5,3.5-1.1,5.1-1.4c1.6-0.3,3.3-0.4,5-0.6c4.7-0.6,9.5-1.2,14.2-1.9c6.1-0.9,11.8-2.9,16.7-6.8
	C281.4,53.6,282.2,52.3,282.3,50.8L282.3,50.8z M189.6,60.6c-0.9,2-1.5,4-3.3,5.3c-0.2,0.2-0.3,0.4-0.4,0.6c-0.3,1-1.1,1.1-1.9,0.9
	s-0.5-1-0.5-1.7c0.2-1.8,0.2-3.6,0.1-5.4c-0.4-2.8-1-5.6-1.7-8.4c-0.1-1.2-0.8-2.3-1.8-2.9c-2,2.5-2.6,5.8-1.6,8.9
	c0.5,1.3,1.1,2.6,1.8,3.9c1,2.1,3,3.8,2.3,6.5l4.6,0.9l0.9-2.8c1.9,0.2,3.7,0.3,5.4,0.6c4.1,0.6,6.2,3.5,7.7,7
	c0.3,0.8,0.8,1.5,1.4,2c1.6,1.2,3.1,2.5,4.6,3.7s3.1,2.2,4.7,3.3c0.8,0.6,1.6,1.2,2.4,1.8c2.4,1.6,4.7,3.2,7,4.9
	c1.5,1.1,3,2.3,4.5,3.6c2-2.4,4.3-4.4,7.6-5c0.3-2.8,0.3-5.5,0-8.3H226c-1.4,2.5-1.4,2.4-3.2,3.5c-2.8,1.9-6,0.7-8.2-1.5
	c-1-0.9-1.6-2.1-1.8-3.4c-0.3-2.2,1.7-5.3,4-6c0.9-0.3,1.8-0.6,2.7-0.8l2.9-7.1c-0.6-0.4-1-0.7-1.5-1c-4-3.3-9-5.4-14.2-5.9
	c-4-0.5-8.1,0-12,1.3C193.1,59.6,191.4,60.1,189.6,60.6L189.6,60.6z M235.8,21c-1.4,1.7-2.6,3.3-3.9,4.9c-0.9,1-1.8,2-2.8,3
	c-0.2,0.2-0.9,0.3-1,0.1c-0.2-0.4-0.4-0.8-0.4-1.2c0-0.2,0.2-0.4,0.4-0.6c1.9-2.8,3.8-5.7,5.7-8.5s4-5.4,5.9-8.1
	c1.2-1.7,1.9-3.6,1.9-5.7c0-1.8-0.4-2.1-2.1-1.6c-0.5,0.1-1,0.3-1.5,0.6C236,5,234.4,6.4,233,8.1c-1.7,2.2-3.3,4.4-4.8,6.7
	c-1.6,2.6-3.5,5-5.5,7.3c-2.2,2.4-4.5,4.8-7,6.9c-1,1.1-2.2,2.1-3.3,3c-2.9,1.9-5.9,3.7-8.8,5.6s-5.7,3.7-7.9,6.4
	c-2,2.4-3.3,5.2-3.7,8.2c-0.2,1.6-0.2,3.2,1.1,4.6c5.8-2.7,11.9-2.2,18.1-1.2c0-1.7,2-2.6,1.9-4.6c-0.3,0.1-0.6,0.3-0.9,0.5
	c-0.5,0.4-0.8,0.9-1.3,1.3s-1.1,0.8-1.8,0.4c-0.6-0.4-0.8-1.2-0.4-1.8c0-0.1,0.1-0.1,0.1-0.1c0.2-0.5,0.5-0.9,0.9-1.4
	c1-0.9,2.1-1.8,3.2-2.6c2.7-1.9,5.5-3.5,7.7-6.1c0.7-0.6,1.1-1.5,1-2.4c-3.8,1.1-7.1,3.5-11.4,3.4c0.9-0.6,0.7-1.6,1.7-2
	c2.3-1.1,4.6-2.3,6.8-3.5s4.5-2.3,6.8-3.6c2-1.1,3.9-2.5,6-3.6c1.9-1.1,3.4-2.8,4.4-4.8C236.9,23.7,236.8,22.1,235.8,21L235.8,21z
	 M261.1,241.3c0.8-0.6,1.7-1.3,2.5-2c1.4-1.3,2.9-2.5,4.5-3.6c2.5-1.4,4.6-3.3,7-4.9c4.3-3,8.7-6.1,13.3-8.8c2-1.1,3.9-2.4,5.7-3.8
	c-1.7-2.6-3.4-5-5.1-7.5c-0.7-1-1.4-1.9-2.1-2.9c-0.4-0.5-1.1-0.7-1.8-0.5c-1.2,0.4-2.4,0.6-3.5,1.1c-2.5,1.1-5,2.3-7.4,3.7
	c-3.8,2.1-7.5,4.4-11.2,6.7c-3.4,2.1-6.7,4.3-10.1,6.5c-1.4,0.9-2.8,1.9-4.2,2.9l0.2,0.3c0.3-0.1,0.6-0.2,0.9-0.3
	c1.1-0.9,2.6-1,3.9-0.4c0.9,0.4,1.8,0.9,2.7,1.5C259,231.7,262.4,236.5,261.1,241.3L261.1,241.3z M178.2,161.6
	c-0.8-1.6-1.5-2.9-2-4.2c-0.6-1.4-1.6-2.7-2.9-3.6c-0.8-0.6-1.7-1.1-2.5-1.7c-0.3-0.3-0.5-0.6-0.7-0.9c0.3-0.3,0.7-0.5,1.1-0.6
	c0.4,0,0.8,0.1,1.2,0.3c1.9,0.9,3.6,2.2,4.9,3.9c0.2,0.3,0.5,0.5,0.8,0.8c0.5-2.3,0.9-4.3,1.3-6.5c-0.5-0.3-1-0.5-1.5-0.8
	c-2.4-1.3-4.7-2.9-6.7-4.8c-3.4-3.4-5.4-7.7-7.3-12c-1.6,0.1-1.7,0.2-1.3,2.6c1-0.1,1.1,0.6,1.2,1.3c0.1,0.7,0.1,1.3,0,2
	c-0.4,3.1-0.8,6.1-1.2,9.2c-0.1,0.7-0.1,1.4,0.1,2.1c0.3,1.1,0.7,2.2,1.1,3.2c0.8,1.8,1.7,3.6,2.9,5.2c1.1,1.3,2,2.7,2.7,4.2
	c0.5,1.2,1,2.5,1.6,3.6c0.5,1,1.1,1.8,1.9,2.6c2.1,1.8,4.7,2.8,7.5,2.9c2.3,0,4.6,0.2,7,0.2s4.8-0.1,7.1-0.4
	c3.9-0.4,6.1-3.2,8.3-6.4c-3.1-2.5-6-5.3-9.2-7.6c-3.8-2.6-7.9-4.7-12.3-6c-0.6,2.2-0.9,4.5-1,6.8c0,1.6,0,3.2,0,4.8
	c2.4,0.2,4-1.4,5.5-3c0.8-0.8,1.5-1.7,2.3-2.5c0.5-0.5,1.1-1.3,1.8-0.6s-0.2,1.3-0.6,1.8c-0.9,1.3-1.9,2.6-2.9,3.9
	c-1.4,1.7-3,3-5.3,2.8c-2.7-0.1-5.4-0.6-7.9-1.4c-1.4-0.5-1.4-0.5-0.8-2.2L178.2,161.6z M146.5,173.8c0.1-0.5,0.1-0.7,0.2-0.9
	c0.1-1.9,0.1-3.8,0.3-5.7s1-2.5,2.6-2c0.7,0.3,0.9,0.7,0.9,1.4c0.2,2.2,0.8,4.2,1.8,6.1c0.7,1.3,1.7,2.4,3,3.2c-1-2-0.9-4.2-1-6.3
	c-0.1-1.2,0.1-2.5,0.1-3.7c0.2-3.5,1-7,2.4-10.2c1.1-3,2.5-5.8,3.3-8.9c0.6-2.8,0.9-5.7,0.9-8.5c-0.1-2-0.3-4-0.7-6
	c-4,0.4-7.8,0.6-11.4-0.9c-1.2,2.7-2.4,5.2-3.6,7.7c0,0.1-0.1,0.2-0.1,0.4c-0.8,2.9-1.6,5.9-2.3,8.8c-0.9,3.5-1.1,7.1-0.8,10.7
	c0.3,3.6,1.2,7.2,2.5,10.6C145,171,145.7,172.2,146.5,173.8L146.5,173.8z M95.2,151.2c-0.1,0.5-0.1,1-0.1,1.5
	c0.1,1.3,0.3,2.5,0.3,3.7c-0.1,2.6-0.3,5.1-0.3,7.7c0,2.2,0.3,4.4,0.1,6.6c-0.3,3-0.1,5.9-0.1,8.9c0,1.6-0.3,3.2-0.3,4.8
	c0,1.4,0.1,2.8,0.2,4.2c0.1,0.5,0,0.9-0.2,1.4c-1,2-0.3,3.6,0.9,5.1c0.7,0.9,1.1,1,2.1,0.4c2.8-1.5,5.5-3.1,8.2-4.7
	c0-0.4,0-0.7,0-1.1c-0.7-3.2-0.6-6.5-0.6-9.8s0.2-6.3,0.4-9.5c0.1-2.5,0.3-5.1,0.5-7.6c0.1-1,0.2-1.9,0.2-2.8
	c-0.1-2.4-0.2-4.8-0.3-7.2c0-0.5-0.1-1-0.1-1.6L95.2,151.2z M208.9,91.9c-0.1,0.8-0.5,1.5-0.2,2.2c0.1,0.1-0.1,0.4-0.2,0.6
	c-2,3.8-2.9,8.1-2.6,12.4c0,1.1,0.2,2.2,0.8,3.2c2-4.3,4-6.8,6.1-7.2c0,0.9-0.1,1.8-0.2,2.6c-0.4,1.4-0.4,3,0,4.4
	c1.2-3.7,2.5-5.8,4-6.4c-0.3,4.1,0.3,7.9,3.1,11.1c-0.8-3.8,0-7.4,0.9-11l2-0.3c-0.2-1.6,0.1-3.1,0.9-4.5c0.7-1.3,0.8-2.9,1.3-4.7
	c-4.8-3.7-9.8-7.4-14.9-10.8c-2.3,1-4,2.4-4.8,4.7c-0.7,2.1-1.7,4.3-1.2,6.8C205.7,94.2,206.2,91.6,208.9,91.9z M216.7,167.6
	l-0.3-0.1c0,0.2-0.1,0.3-0.2,0.5c-0.7,1.6-1.6,1.7-2.6,0.3c-0.3-0.4-0.7-0.8-1.3-1.5c0.1,0.8,0.1,1.2,0.2,1.5
	c0.4,1.9,0.9,3.7,1.3,5.6c0.3,1.3,0.1,1.4-1.4,1.8c-2.4-3.8-5.5-7-8.4-10.5c-1.4,1.7-2.6,3.3-4,4.7s-3.5,1.7-5.3,2.4
	c0,0.2,0,0.4,0,0.6c0.7,2.3,1.3,4.7,2.1,7c0.5,1.5,1.2,2.9,2.1,4.1c2.4,2.9,5.7,4,9.4,4c2.2,0,4.2-1.2,5.3-3.1
	c1.2-2,1.9-4.1,2.2-6.4c0.4-3,0.7-6,1-9.1C216.9,168.9,216.8,168.2,216.7,167.6z M221.1,145c0.5-3,0.5-3,3.2-3.5l0.4-0.1
	c1.8-0.3,3.4-1.1,4.6-2.5c1.5-1.7,2.8-3.5,4.1-5.4c1-1.1,1.3-2.6,0.9-4l2-0.2c1.1,2.8,0.9,5.5,1.2,8.5c1.8-2,3.1-4.4,3.7-7
	c-0.6-1-2.3-1.1-2.4-2.6c1.4-0.5,1.4-0.5,2.4,0.1c2.1,1.3,3.8,3.1,5,5.3c0.3,0.5,0.5,1,0.9,1.6c0.2-0.7,0.4-1,0.5-1.3
	c1-4.8,0.5-9.7-1.5-14.2c-0.1-0.3-0.3-0.7-0.5-0.8c-1.2-0.3-1.2-1.4-1.7-2.3c-0.2,0.1-0.3,0.3-0.4,0.5c-1.1,2.5-2.7,4.8-4.8,6.6
	c-1.3,1.3-2.7,2.3-4.4,3.1c-2.7,1-5.7,1.1-8.4,0.2l-4.2-1c2.6,6.2,0.6,11.8-1.8,17.2L221.1,145z M230.4,270.6
	c0.9-0.8,1.9-1.6,2.7-2.5c2.5-2.7,5.2-5.2,8.1-7.5c1.6-1.4,3.1-2.8,4.5-4.3l-6.1-2.1c0.2,1.1,0.4,2.1,0.6,3c0.5,1.4-0.1,3-1.4,3.7
	c-1.5,1-3.4,1.1-4.9,0.2c-2.3-1.4-4.1-3.3-5.5-5.6c-1.2-1.9-1.3-4.1-1.9-6.1c0-0.3,0.1-0.7,0.4-0.9c1.5-1.6,3.8-2.1,5.8-1.3
	c0.3,0.1,0.6,0.2,1.3,0.4l-2.4-4.6c-0.7,0.7-1.3,1.4-1.9,2c-3.7,3.4-7.3,7-10.6,10.8c-1.4,1.3-1.6,3.5-0.3,5c0,0.1,0.1,0.1,0.1,0.1
	c1.6,2,3.2,3.8,5,5.6C225.9,268.2,227.7,269.9,230.4,270.6L230.4,270.6z M310.2,227.2c0.1,0,0.2-0.1,0.3-0.1
	c3.2-3.6,6.4-7.2,9.6-10.8c0.3-0.4,0.7-0.8,1.2-1c1-0.4,2-0.6,3-0.9c0.5-0.1,0.9-0.3,1.3-0.5c1.5-1.2,3.1-2.4,4.6-3.7
	c0.6-0.7,1.1-1.4,1.5-2.2l-1.3-1c-0.1,0.2-0.3,0.3-0.3,0.5c-0.3,1.4-1.3,2.1-2.4,2.7s-1.7,0.3-2.2-0.8c-0.1-0.5-0.4-0.9-0.7-1.2
	c-1.9-1.9-4.4-3.2-7-3.8c-0.7-0.1-1.3-0.3-1.5-1c-0.3-0.7-0.1-1.5,0.5-2c0.6-0.6,1.1-1.2,1.6-1.9l1.9-2.4c-0.3-0.6-0.6-1.3-0.9-2.1
	c-0.7,1.2-1.3,2.2-1.9,3.2c-2.2,3.5-3.3,7.1-2.1,11.3c0.1,0.8-0.1,1.5-0.5,2.2c-0.9,1.8-1.9,3.4-2.9,5.1c-0.8,1.5-1.7,3-2.7,4.4
	c-0.9,1.1-1.6,2.2-2.3,3.4c0.2,0.3,0.5,0.6,0.8,0.9C308.6,226,309.4,226.6,310.2,227.2z M246,253.1c3.4,0,5.2-2.4,4.3-5.1
	c-1.7-4.7-4.8-8.7-8.8-11.7c-1.2-1-2.7-1.4-4.2-1.1c-2.5,0.5-4,2.5-3.2,5c1.1,3.4,2.5,6.7,5.5,9c0.4,0.4,0.8,0.8,1.2,1.3
	C242.2,251.8,244,252.8,246,253.1z M339.1,167.1c1.6-0.4,3.3-0.1,4.7,0.8l2.7,1.8c2.3,1.6,4.4,3.7,6,6c0.9,1.2,0.8,1.6-0.3,2.7
	c-0.2,0.3-0.4,0.6-0.7,0.9l1.3,1.4c0.7-1.1,1.5-2,2.1-3s1.1-2.2,1.8-3.5c-2.9-2.5-5.8-5-8.8-7.4c-1.8-1.4-3.9-2.5-6.1-3.2
	c-0.6-0.2-1.2-0.2-1.6,0.3l-4.4,5.9l2.4,0.5L339.1,167.1z M72.5,217.7l-0.3-0.2c-0.2,0.2-0.5,0.4-0.7,0.6c-3.6,4.2-6.9,8.5-9,13.7
	c-0.3,0.9-0.3,1.9-0.1,2.8c0.3,1.2,1,1.4,2.1,1c0.9-0.3,1.8-0.6,2.7-0.9c0.8-3.4,3.3-6,4.9-9.1c-1.9-1.1-2.5-2.6-1.6-4.5
	C71.2,219.9,71.9,218.8,72.5,217.7z M174.9,238.3c0,0.5,0,1.1,0,1.6c0,0.5,0.2,1.1,0.3,1.6c0.5,1.5,1.5,1.8,2.7,0.8
	c0.8-0.7,1.5-1.6,2-2.5c1.3-2.4,2-5.1,2-7.9c0.1-2.1-0.5-4.1-1.8-5.7c-0.8-1-1.5-1-2.1,0c-0.6,1-1.1,2-1.5,3
	C175.3,232.1,174.8,235.2,174.9,238.3z M242.7,233.2c2.2,2,4.3,4.2,6.2,6.5c1.7,2.4,3.3,5,4.7,7.6c0.8-0.7,1.6-1.4,2.4-2l2.6-2.2
	c-5.6-0.7-11.9-6-12-13L242.7,233.2z M257.7,240.3c1.3-2.1,0.7-4.4-1.7-7c-2-2.2-4.9-3.6-7-2C250.3,235.5,253.5,238.9,257.7,240.3
	L257.7,240.3z M78,228.1l-2.9-1.7c-0.4,0.4-0.7,0.8-1,1.2c-1,1.6-1.9,3.3-2.8,5c-0.7,1.5-1.2,3.1-1.5,4.7c-0.3,1.6,0.4,2.2,2,2
	c0.2,0,0.5-0.1,0.7-0.2C73.6,235.1,76.1,231.8,78,228.1L78,228.1z M237.7,258.7c0.7-4.3-5-10.4-8.1-8.8c0,0.5,0.1,1,0.3,1.4
	c0.3,1,0.7,1.9,1.2,2.8c0.9,1.8,2.3,3.3,4.1,4.4C235.9,259.1,236.9,259.2,237.7,258.7z M185.7,241.6l3.9-0.7c0-2.2,0-4.2,0-6.2
	c0-0.4-0.2-0.8-0.5-1.1c-0.9-0.7-2-1.2-3.4-2.1C185.7,235.1,185.7,238.2,185.7,241.6z M226.9,58.4c-1-2.3-2.9-2.9-5.2-3
	c-0.9,0-1.7,0-2,1.1c-0.4,1.3-0.2,2.9,0.6,3.5c1,0.8,2.1,1.7,3,2.5L226.9,58.4z M191.8,234v8.8l3.5-0.5v-6.7L191.8,234z M176.8,83.3
	c-1.8,4.8-2.6,9.7-3.6,14.5l1.8,1c0.3-2.9,0.6-5.7,0.7-8.5c-0.1-1.9,1.1-3.6,2.9-4C178.2,85.3,178.3,84,176.8,83.3L176.8,83.3z
	 M319.8,202.4c1.5,0.9,2.8,1.5,4,2.4s2.3,1.9,3.5,3l1.3-2.2c-1.4-0.9-2.7-1.8-4-2.5c-1.4-0.6-2.5-1.7-3.2-3L319.8,202.4z
	 M383.5,290.5c-1.1-3.8-4.7-8-7.6-7.3C377,285.8,380.5,289.2,383.5,290.5L383.5,290.5z M340.6,171l9.3,6.5l0.4-0.3
	c-0.1-0.5-0.3-0.9-0.5-1.3c-1.2-1.2-2.5-2.4-3.8-3.5c-1-0.8-2.1-1.4-3.2-2C341.7,169.7,341.2,169.9,340.6,171z M179.6,93.8
	c0.2-1.8,0-3.7-0.6-5.5c-1.5,1.6-1.8,4.9-0.6,6.4L179.6,93.8z M200.9,243.7c-1.1-1.8-2.1-3.3-3.2-5.1c-0.6,2.2,0.6,3.6,1.2,5.3
	L200.9,243.7z M81.9,231.1l1-2.1l-0.9-1.5c-0.9,0.8-1.6,1.9-1.8,3.1L81.9,231.1z M85.7,228.1l-0.9-2.5l-2.2,0.8L85.7,228.1z
	 M304,225.3l-0.3,0.4c0.2,1.1,1.2,1,2,1.2l0.2-0.3L304,225.3z M306.7,230.8l0.3-0.3l-0.8-0.7L306,230L306.7,230.8z M304.1,228.2
	l-0.2,0.2l0.9,0.7l0.2-0.2L304.1,228.2z"/>
<path d="M409.5,187.6c0.7-0.8,1.6-1.3,2.7-1.4c3.3-0.3,6.7-0.5,10-0.8c2.8-0.2,5.7-0.5,8.5-0.6c1.3-0.1,2.7,0.3,4.1,0.2
	c3-0.1,5.9-0.5,8.8-0.5s6.1,0,9.1,0.1c2.1,0,4.3-0.1,6.4,0s4.5,0.4,6.7,0.6c0.9,0.1,1.8,0,2.8,0.1s1.7,0.1,2.5,0.2s1,0.5,1.2,1.3
	c-0.9,0.4-2,0.4-2.9,0.2c-2.8-0.2-5.7-0.6-8.5-0.7c-4.9-0.2-9.8-0.2-14.8-0.4c-3.5-0.1-7,0.3-10.5,0.3c-5.8,0.1-11.7,0.5-17.5,0.8
	c-1.7,0.1-3.4,0.5-5.1,0.8c-1,0.1-2.1,0.2-3.2,0.3L409.5,187.6z"/>
<path d="M319.4,78.8c-5,1.4-9.9,1.4-14.8,1.7c-2.1,0.1-4.2,0-6.2,0.1c-3.2,0.1-6.3,0.3-9.5,0.4c-2.3,0.1-4.5,0.2-6.8,0.3
	c-4.5,0.3-8.9,0.6-13.4,0.8c-1.4,0.1-2.9,0-4.3,0c-0.1,0-0.3-0.2-0.5-0.4c1-0.6,2.1-0.9,3.2-0.9c4.8-0.3,9.6-0.7,14.4-1
	c2.4-0.1,4.8-0.2,7.2-0.3c2.8-0.1,5.6-0.3,8.4-0.4c2.5-0.2,5.1-0.2,7.6,0c1.1,0,2.1-0.1,3.2-0.3c3.5-0.3,7.1,0.4,10.6-0.4
	C318.8,78.4,319,78.6,319.4,78.8z"/>
<path d="M435.2,356.9c4.4-1,8.2-3,10.2-7.1c1.9-3.8,3.1-7.9,1.5-12.3c0.5,0,1.1-0.1,1.3,0.1c1,1.2,2.3,2.3,2.1,4.1
	c-0.4,4.4-1.2,8.7-4.3,12c-0.4,0.4-0.8,0.9-1.3,1.2c-2.2,1.5-4.4,2.9-7.1,3.3C436.2,358.4,436,358.3,435.2,356.9z"/>
<path d="M165,327.2c-0.9-1-1.7-2-2.5-3c-2.3-3.3-3.9-7-4.8-10.9c-0.4-2.3-1.2-4.5-1.7-6.8c-0.8-2.8-0.8-5.7-0.2-8.5
	c0.3-0.8,0.7-1.6,1.3-2.3c0.2-0.3,0.9-0.3,1.3-0.5c0.1,0.4,0.2,0.5,0.1,0.6c-1.4,3.3-1,6.6-0.5,10c0.7,4.6,2,9.1,3.7,13.5
	c1,2.2,2.1,4.4,3.4,6.5C165.3,326.2,165.8,326.5,165,327.2z"/>
<path d="M432.8,351.7c0.8-0.4,1.6-0.8,2.3-1.4c0.9-0.9,1.6-2,2.2-3.2c1.2-2.7,2-5.6,2.3-8.6c0-0.9,0-1.8-0.2-2.8l0.9-0.4
	c0.2,0.1,0.3,0.2,0.4,0.3c1.3,1.9,1.6,4.2,1,6.3c-0.5,3.1-1.6,6-3.3,8.6c-0.9,1.3-2.4,2.1-3.9,2.2c-0.7,0.2-1.4-0.3-1.6-1
	C432.8,351.8,432.8,351.8,432.8,351.7z"/>
<path d="M82.1,320.7c0.9-1.2-0.1-3,1.3-4c1.4,0.3,2.5,1.3,3,2.6c1,2.2,2,4.3,3,6.5c0.2,0.5,0.4,1-0.2,1.2c-0.4,0.1-0.9,0-1.3-0.2
	c-1.1-1.2-2-2.5-2.5-4.1c-0.4-0.9-0.9-1.8-1.4-2.8c-0.9,1.3,0.4,3.3-1.5,4.1l-1.2-2.1c-0.3,1.7-0.6,3.3-0.9,4.8c0,0-0.3,0-0.6,0.1
	c-0.3-2.4-0.1-4.9,0.6-7.3C81.6,319.2,81.4,320.5,82.1,320.7z"/>
<path d="M366.4,101.4c-3.8,0.3-7.7,0.5-11.5,0.9c-5.6,0.5-11.2,1-16.8,1.6c-1.1,0.1-2.3,0.3-3.4,0.4c-0.9,0.2-1.8-0.3-2.2-1.2
	c0.6-0.2,1.1-0.3,1.7-0.5c2.1-0.2,4.2-0.3,6.3-0.5c3.8-0.3,7.5-0.5,11.3-0.7c3.5-0.2,7-0.4,10.5-0.5c1.4,0,2.8,0.1,4.2,0.1
	L366.4,101.4z"/>
<path d="M116.6,323.6c-1.4,1.1-1.8,3.2-4.1,2.7c0.1-0.5,0-1,0.3-1.3c1-1.2,2.1-2.4,3.3-3.5c0.9-0.8,1.9-0.3,2.2,0.8
	c0.2,0.7,0.4,1.5,0.5,2.2c0.8-0.3,1.6-0.5,2.5-0.6c0.4,0,0.9,0.8,1.1,1.3c0.5,1.4,0.1,2.5-1.1,2.8c-0.2-0.6-0.4-1.3-0.6-1.9
	c-1.2,0-1.1,2.3-2.9,1.2C117.4,326.2,117,324.9,116.6,323.6z"/>
<path d="M102.1,327c-1.3,1.2-0.8,3.7-3,4.4c-0.1-0.3-0.3-0.5-0.3-0.7c0.9-2.1,1.8-4.1,2.8-6.2c0.3-0.6,0.7-1.2,1.3-0.9
	c0.5,0.3,0.9,0.9,1.1,1.5c0.1,0.6,0.2,1.2,0.1,1.8c0.5-0.4,0.8-0.8,1.2-1c0.9-0.7,1.7-0.4,2,0.8c0.3,0.9,0.4,1.9,0.6,2.8
	c0.1,0.4-0.1,0.8-0.5,0.9c-0.3,0.1-0.6-0.1-0.8-0.3c-0.4-0.6-0.7-1.2-1-1.8C104,329.8,103.2,328.9,102.1,327z"/>
<path d="M279.3,85c1-0.8,2.4-1.3,3.7-1.2c2.2-0.1,4.4,0,6.6,0c3.8,0.2,7.5,0.1,11.3-0.2c2.2-0.2,4.4-0.2,6.6,0
	c-1.5,0.5-3.1,0.8-4.7,0.8c-4.2,0.2-8.5,0.4-12.7,0.5c-3.2,0.1-6.3,0.2-9.5,0.2C280.3,85.1,280,85,279.3,85z"/>
<path d="M159.4,325.9c1.6,2.5,3.1,4.9,4.7,7.2c0.7,1.1,1.7,2,2.4,3.1c0.5,0.8,1,1.6,1.4,2.4l-0.3,0.3c-0.8-0.7-1.7-1.4-2.4-2.2
	c-2.5-2.6-4.6-5.6-6.3-8.8c-0.2-0.4-0.3-0.8-0.4-1.2C158.4,326.1,158.7,325.8,159.4,325.9z"/>
<path d="M368.1,158.1c0.5,1.9-1.3,8.5-3.2,11c-0.5,0.7-0.9,2-2.5,1.6c0.1-0.4,0.2-0.9,0.4-1.3c2.3-3.5,4-7.3,5.1-11.3
	C368,158.1,368.1,158.1,368.1,158.1z"/>
<path d="M450.6,333.5h1.5c0.1,0.1,0.2,0.2,0.2,0.3c0.7,1.8,1.5,3.5,1.4,5.5c0,0.4,0,0.8-0.2,1.2c-0.2,0.3-0.6,0.5-1,0.5
	c-0.3,0-0.6-0.5-0.7-0.8c-0.3-1.6-0.5-3.2-0.7-4.8C451,334.8,450.8,334.2,450.6,333.5z"/>
<path d="M170.8,324.7c-0.3-0.1-0.8-0.1-0.9-0.3c-1.2-1.4-2.2-3.1-2.9-4.9c-0.2-0.8,0.1-1.1,0.7-1.5c1.5,0.4,1.6,1.8,2.1,3
	s0.9,2.3,1.3,3.4L170.8,324.7z"/>
<path d="M430.3,193.1l0.1,1.3c-2.3,0-4.5,0-6.6,0c-0.7,0-1.1-0.4-1-1.3L430.3,193.1z"/>
<path d="M91.8,320.9c-0.8,0.4-1.3,0.2-1.6-0.6l-1.6,0.4c-0.4-1,0-2.2,0.9-2.7c0.6-0.3,1.3-0.2,1.8,0.1
	C92.3,318.8,91.8,319.9,91.8,320.9z"/>
<path d="M363.4,159.3c0.2,0.5,0.5,0.7,0.4,0.9c-0.4,1.5-0.8,3.1-1.3,4.6c-0.2,0.5-0.7,0.8-1.2,0.7c-0.1,0-0.1,0-0.2-0.1
	c-0.2-0.2-0.3-0.4-0.2-0.6C361.6,162.9,362.4,161.1,363.4,159.3z"/>
<path d="M185.3,187.1c0.4,0.3,0.9,0.5,1,0.8c0.1,0.9,0.2,1.8,0.1,2.6c0,0.3-0.5,0.7-0.8,0.7c-0.4,0.1-0.8-0.1-1-0.5
	c0-0.1,0-0.2,0-0.2C184.5,189.4,184.7,188.2,185.3,187.1z"/>
<path d="M184.4,184c0.8,0.6,1,1.1,0.5,1.8c-0.3,0.4-0.6,0.9-0.9,1.4c-0.1,0.4-0.6,0.6-1,0.5c-0.1,0-0.1-0.1-0.2-0.1
	c-0.4-0.2-0.6-0.6-0.5-1.1c0-0.1,0.1-0.2,0.2-0.3C183.2,185.4,183.8,184.8,184.4,184z"/>
<path d="M94.7,334.1c-0.3-0.9-0.6-1.6-0.8-2.3c-0.2-0.4,0-0.9,0.4-1.1c0.1,0,0.2-0.1,0.3-0.1c0.4-0.1,0.9,0.1,1.1,0.5
	c0,0.1,0,0.2,0,0.3C95.7,332.3,95.8,333.3,94.7,334.1z"/>
<path d="M428.3,93.6l-0.5-1.1l0.2-0.1c0.2,0.2,0.3,0.3,0.5,0.5c0.1,0.2,0.1,0.4,0.1,0.6L428.3,93.6z"/>
<path d="M366.3,394.2c0-0.5-0.1-1-0.1-1.4h0.2L366.3,394.2L366.3,394.2z"/>
<path d="M587.2,321.6c-0.1,0-0.2,0.1-0.2,0.1s-0.1-0.2-0.2-0.3s0.2-0.1,0.2-0.1S587.2,321.5,587.2,321.6z"/>
<path class="st7" d="M0,451.3L0,451.3z"/>
<path class="st7" d="M121.7,451.8L121.7,451.8z"/>
<path class="st7" d="M-88.1,450.8h1.6v0h-1.5L-88.1,450.8z"/>
<path class="st7" d="M141.4,451.8H140l0,0H141.4L141.4,451.8z"/>
<path class="st7" d="M134.3,451.8h1.4l0,0H134.3L134.3,451.8z"/>
<path class="st7" d="M144.2,451.8l0.8-0.1v0.1H144.2z"/>
<path class="st8" d="M174.8,275.4l-5-0.6c0.4-0.6,0.8-1.2,1.1-1.8c0.8-2.7,3-4,5.3-5c1.2-0.4,2.5-0.7,3.8-0.9
	c3.2-0.6,6.4-0.7,9.6-0.3c3.8,0.4,7.4,1.4,10.8,3.1c2.5,1.3,5.1,2.5,7.4,4c3.2,2.1,6.6,4,9.7,6.4s6.4,4.2,9.6,6.3
	c2.7,1.6,5.2,3.5,7.4,5.6c2.1,2,4.5,3.7,6.7,5.6c2.2,1.8,4.3,3.6,6.2,5.6c3.9,4.3,8.5,8.1,11.7,13c1.9,2.8,3.1,6.1,3.4,9.5
	c0,2.1-0.8,4-2.2,5.5c-2.4,3.1-6.1,5-10,5.2c-0.3,0-0.6,0-0.9,0.1c-2.2,0.5-4.5,0.2-6.4-0.9c-2.6-1.3-5.3-2.5-7.9-3.7
	c-1.1-0.5-2.3-0.9-3.5-1.3c-1.5-0.4-2.7-1.6-3.1-3.2c-0.4-1.2-1-1.7-1.9-1.4c-1.6,0.5-3.1,0-4.6-0.4c-5.8-1.5-11.5-3.5-17-6
	c-3.1-1.4-6.4-2.6-9.5-4.1c-1.8-0.9-3.6-1.8-5.3-2.9c-3-1.8-6-3.6-8.9-5.6c-3.5-2.5-7.2-5-10-8.3c-2.5-2.9-4.8-6-6.9-9.1
	c-1.1-1.5-1.6-3.4-1.6-5.2c0-2.9,2.1-5.4,4.9-6.1c0.7-0.2,1.4-0.4,2-0.8c0.8-0.5,1.9-0.4,2.7,0.2c0.8,0.6,1.6,1.2,2.5,1.7
	c0.3,0.2,0.6,0.4,1,0.4c0.5,0,1.2-0.1,1.4-0.5s0-1-0.3-1.4c-0.3-0.4-0.8-0.8-1.3-1C174.8,277.1,174.2,276.6,174.8,275.4z
	 M241.5,310.6c-0.7-0.1-1.4-0.1-2.1,0c-4.1,1.3-7,5-7.1,9.3c-0.1,0.5,0.2,1.1,0.8,1.2c0,0,0,0,0.1,0c0.6,0.2,1.2-0.2,1.4-0.8
	c0,0,0,0,0,0c0.2-0.6,0.4-1.2,0.6-1.9c0.3-2.2,1.7-4.1,3.7-5.1C240.1,312.8,241.1,311.8,241.5,310.6z M230.8,314.8
	c-0.6,0.4-0.9,0.5-1,0.7c-0.6,1-1.2,1.9-1.7,2.9c-0.4,0.7-0.7,1.5-0.9,2.3c0,0.3,0.1,0.6,0.3,0.7c0.3,0.1,0.5,0,0.7-0.2
	C229.7,319.4,230.5,317.2,230.8,314.8L230.8,314.8z M249.6,320.3c0.1,1.3,0.3,2.6,0.4,3.9c0.1,0.4,0.2,0.8,0.4,1.2
	c0.2,0.2,0.5,0.3,0.8,0.2c0.3-0.1,0.5-0.3,0.6-0.5c0.2-1.6-0.1-3.2-1-4.6c-0.2-0.3-0.6-0.5-0.9-0.3
	C249.7,320.2,249.6,320.2,249.6,320.3L249.6,320.3z"/>
<path class="st8" d="M405.7,370.5c-0.3,1.8-1,2.4-3.1,2.9c-0.7,0.1-1.4,0.2-2.1,0.2c-5.1,0.1-10.2-0.8-14.9-2.8
	c-3.9-1.6-7.4-4.2-9.9-7.6c-2.2-3-4-6.2-5.3-9.7c-1-2.6-1.9-5.2-2.7-7.8c-0.9-2.8-1.6-5.7-2.6-8.4c-0.9-2.7-2-5.2-3.4-7.7
	c-0.9-1.6-0.9-3.4-1.5-5.1c-0.2-0.6,0.2-1,0.6-1.3c2.1-1.9,4.6-3.3,7.2-4.2c3-1.1,6.1-2,9.2-2.9c3.8-1.2,7.3-3.2,10.1-6
	c1.1-1,2-2.2,2.5-3.6c0.6-1.7,1.6-3.3,2.5-5.1c0.5,0.5,0.9,1.1,1.3,1.6c1.7,2.5,3.3,5.1,5.1,7.5c1.4,2,3.1,3.8,4.5,5.8
	c3.1,4.3,6,8.8,8.5,13.5c3.1,5.8,5.2,12.1,7.5,18.2c0.5,1.3,0.8,2.8,0.8,4.2c0.1,3.2,0.5,6.5-0.5,9.6c-0.5,1.6-1.6,3.1-3,4
	c-2.8,2-6,2.3-9.3,2c-0.3-0.1-0.6-0.1-0.9-0.1c-1.3,0.2-2.5-0.5-3.1-1.7c-0.2-0.6-1-1-1.6-0.8c-0.8,0.2-1.1,0.6-0.9,1.4
	c0.3,1.6,1.5,2.9,3.1,3.4C404.5,370.2,405.1,370.3,405.7,370.5z M376.3,318.9c-2.2,0.1-2.7,0.7-2.3,2.5c0.5,2.4,1.4,4.7,2.8,6.7
	c0.6,0.8,1.4,1.5,2.2,2c0.7,0.5,1.7,0.4,2.3-0.3c0.6-0.5,0.7-1.3,0.5-2c-0.2-1-0.4-2-0.4-3c-0.1-1.6-0.8-3.2-2-4.3
	C378.6,319.7,377.5,319.1,376.3,318.9L376.3,318.9z M397.7,358.2c-1.1,0.1-1,0.7-0.7,1.4c0.6,1.4,1.3,2.8,2,4.1
	c0.3,0.3,0.7,0.5,1.2,0.5c0.3,0,0.6-0.6,0.6-1c0-0.4-0.2-0.8-0.4-1.1C399.5,360.8,398.5,359.5,397.7,358.2z M382.2,332.5
	c0.5,0.4,1.2,0.3,1.6-0.2c0.1-0.1,0.2-0.3,0.2-0.5c0.5-1.2,0.5-2.6,0-3.8c-0.3-0.7-0.8-1.2-1.5-0.7
	C382.4,329,382.3,330.6,382.2,332.5L382.2,332.5z M393,355c1.6,0.7,3.3-0.2,3.3-1.6C394.8,353.1,393.6,353.2,393,355L393,355z
	 M383.4,334.3c0.5,0.2,1,0.3,1.1-0.4c0-0.1-0.2-0.4-0.4-0.5C383.5,333.4,383.4,333.8,383.4,334.3L383.4,334.3z"/>
<path class="st1" d="M319.6,189c-0.4,0.5-1,0.9-1,1.2c0,1.2-0.7,2-1.3,2.9c-0.4,0.6-0.8,1.2-1.3,2c-0.2-0.3-0.3-0.5-0.3-0.6
	c0-2.5-1.1-4.6-2-6.8c-0.7-1.3-1.7-2.5-2.8-3.4c-2.1-1.8-4.3-3.5-6.6-5.1c-2.4-1.5-4.8-2.9-7.3-4.2c-3.2-1.8-6.5-3.2-10-4.3
	c-4.2-1.1-8.4-2.4-12.8-2.7c-2.4-0.2-4.8,0-7.1,0.7c-1.2,0.4-2.5,0.3-3.7,0.6c-3.3,0.8-6.6,1.6-9.9,2.3c-3.9,0.8-7.9,1.5-11.8,2.2
	c-1.7,0.4-3.4,0.6-5.1,0.6c-2.1-0.1-4.1-0.3-6.2-0.6c-1.4-0.2-2.8-0.5-4.4-0.8c-1.6-2.9-2.2-6.2-1.8-9.5c2.9-0.9,5.6-1.8,8.3-2.6
	c3.5-1,7-2,10.4-3c1.6-0.5,3.3-1,4.9-1.6c2.8-0.9,5.6-1.8,8.4-2.5c4.6-1.2,9.2-2.3,13.9-3.5c2.8-0.6,5.8-0.4,8.4,0.7
	c3.8,1.3,7.4,3,10.8,5c2.3,1.3,4.7,2.3,7,3.5c1.7,0.9,3.2,2,4.7,3.1c2.7,1.8,5.4,3.7,8.1,5.5c1.6,1.1,3.3,2.1,4.9,3.2
	c0.3,0.2,0.7,0.5,1.1,0.6c1.2,0.6,2.5,1.1,3.8,1.6c2.1,0.6,4.3,0.6,6.4,0.1c2.3-0.6,4.6-1.1,7-1.4c2.6-0.3,4.9,0.7,7.2,1.9
	c2.8,1.6,5.5,3.4,7.9,5.5c1.4,1.1,2.6,2.7,4.6,3c0.6,0.8,1.1,1.7,1.5,2.6c0.3,0.8-0.4,1.5-1.1,1.9c-1.1,0.7-2.2,1.3-3.3,1.9
	c0.1,1.1,0.1,2,0.2,3c0.1,1.5,0,1.7-1.5,1.8l-1.5,0.2c-0.9-0.6-1.7-1.2-2.6-1.6c-0.3-0.2-1-0.1-1.1,0c-0.2,0.4-0.3,0.8-0.2,1.3
	c0.3,0.5,0.6,1,1,1.5c0.6,0.7,1.1,1.5,1.5,2.2c0.6,1,0.3,2.4-0.7,3c-0.4,0.2-0.8,0.3-1.3,0.3c-0.9,0-1.8-0.1-2.7-0.3
	c-1.5-0.3-2.3,0.5-2,2c0.2,0.6,0.5,1.2,0.9,1.8c0.8,1.2,1.1,2.6,0.9,3.9c-0.2,1-0.7,1.4-1.6,0.9s-1.6-1-2.5-1.5
	c-3.5-2.3-7-4.5-10.5-6.9c-0.8-0.5-1.4-1.3-1.8-2.1c-1.1-2.5-2-5-3-7.5C320.3,190.1,320,189.6,319.6,189z M333.6,176.6
	c-0.3-0.2-0.6-0.5-0.9-0.5c-2-0.1-4.1-0.6-6,0.6c-1.1,0.7-2.4,0.8-3.5,0.3c-0.6-0.2-1.3-0.3-1.9-0.3c-0.7,0-0.7,0.5-0.6,1
	c2,1.1,3.9,1.9,6.2,0.5c0.8-0.4,1.7-0.6,2.6-0.6c1-0.1,1.9,0,2.9,0C333.2,177.8,333.7,177.5,333.6,176.6L333.6,176.6z M317,176.8
	c0.4-1.6,0.2-2.2-0.8-2.8c-1.3-1-2.2-1-3.2-0.3c-0.5,0.4-0.9,0.8-0.3,1.6C314.6,174.3,315.6,175.9,317,176.8L317,176.8z
	 M339.8,189.1c-0.5,0.2-1,0.2-1.1,0.4c-0.4,1.1-0.8,2.3-1,3.5c-0.1,0.5,0.6,0.8,1,0.5c0.5-0.3,0.8-0.7,1-1.2
	C339.8,191.3,339.8,190.2,339.8,189.1L339.8,189.1z M336.4,195.5c-2.6,0-3.3,0.5-3.2,1.9C335.6,197.7,336.6,197.1,336.4,195.5
	L336.4,195.5z M269.7,152.8c1.5,1.1,3.6,0.9,5-0.4C272.1,152,271.4,152,269.7,152.8z M344.3,184.1c-0.3-0.6-0.6-1-1.2-0.6
	c-0.4,0.3-0.8,0.6-1.2,1c-0.3,0.4-0.5,1,0.1,1.4s1,0.1,1.4-0.4S344,184.6,344.3,184.1L344.3,184.1z"/>
<path class="st9" d="M309.7,243.7c0.5,6.6-0.3,13.2-2.2,19.6c-1,3-2.5,5.6-5.4,7.1c-1.2,0.6-2.6,0.9-3.9,1.1
	c-3.5,0.6-6.9,1.2-10.4,1.4c-3.8,0.4-7.6,0.3-11.4-0.1c-0.8-0.1-1.7-0.1-2.5,0c0.5-1.1,0.9-2.1,1.3-3.2c0.7-1.7,0.6-1.7-0.9-3
	c-0.5-0.4-0.6-1.2-1-1.8c-1.2-1.8-2.7-3.4-2.2-5.9h-1.9c0.3,2,0.8,4,1.5,6c0.4,0.9,1.7,1.5,2.7,2.4c0-0.1,0,0.2,0,0.4
	c-6.4,12.7-12.8,25.5-19.1,38.3c-2.5-1.5-4-4.3-6.5-5.8s-4.8-3-7.2-4.5c1-2.8,1.9-5.8,3-8.8c1.4-3.6,2.9-7,4.3-10.6s2.8-7.4,4.3-11
	c1.7-3.9,3.6-7.7,5.4-11.5c2.2-4.7,6.8-7.9,12-8.2c2.8-0.4,5.5-0.9,8.3-1.3c2-0.3,3.9-0.4,5.9-0.6c6.8-0.7,13.7-0.1,20.5-0.2
	C306,243.3,307.9,243.5,309.7,243.7z M243.6,293.5c0.5,0.9,1.2,1.6,2.1,2.1c1.1,0.8,2.1,1.6,3.1,2.4s2.2,1.9,3.3,2.8
	c0.4,0.5,1.2,0.6,1.7,0.1c0,0,0,0,0,0c0.5-0.5,0.3-1.2-0.5-1.8l-7.7-6.1C244.8,292.3,244.7,292.3,243.6,293.5z M256.7,262.5
	c1.2,0.3,1.4-0.6,1.7-1.3c1.1-2.3,2.1-4.7,3.3-6.9c0.7-1.2,0.6-2.1-0.4-3C260,252.3,257.1,259.3,256.7,262.5z M275,261.2
	c0.1-0.5,0.2-0.8,0.2-0.9c-0.3-0.3-0.5-0.8-0.9-0.9c-0.6-0.2-0.8,0.3-0.9,0.8c-0.1,0.5-0.2,1.1-0.1,1.6c0.2,0.8,0.5,1.5,0.9,2.2
	c0.3,0.2,0.6,0.3,0.9,0.2c0.3-0.2,0.5-0.5,0.5-0.8c-0.1-0.4-0.2-0.8-0.3-1.2C275.1,261.7,275,261.3,275,261.2z M271.8,269.2
	c-0.7-0.6-1.3-1.2-2-1.6c-0.3-0.2-0.7-0.2-1,0c-0.2,0.3-0.4,0.8-0.3,1.1c0.3,0.5,0.7,0.9,1.2,1.1C270.4,270,271.3,270.5,271.8,269.2
	L271.8,269.2z"/>
<path class="st9" d="M360.9,288.3c1.7,3.7,2.5,7.9,2.1,12c-4.8,1.2-9.5,2.5-14.3,2.8c-3.1,0.2-6.1,0.9-9.2,1.4
	c-4.7,0.6-9.5,0.8-14.3,0.7c-2.5,0-5,0-7.5-0.1c-3.6-0.2-7.1-0.6-10.7-1c-1.8-0.2-3.7-0.2-5.5-0.6c-3.3-0.6-6-2.5-8.7-4.5
	c-4-3-8-6.2-11.8-9.4c-3-2.4-5.8-5.1-8.2-8c-0.3-0.3-0.6-0.5-1-0.6c-0.5-0.3-1-0.5-1.6-0.8c0.5-2,1.4-3.9,2.7-5.5
	c9.3,2,18.5,0.8,27.8-0.8c0.1,1.3,1.2,1.8,2.2,2.4c1,0.6,2,1.3,3,2c1.8,1.3,3.5,2.7,5.4,3.8c3.4,2,6.9,3.7,11.1,3.7
	c2.4,0,4.9,0.5,7.3,0.7c2.8,0.3,5.6,0.5,8.4,0.7c4.3,0.4,8.7,0.9,13,1.3c2.4,0.2,4.8,0.5,7.2,0.5C359.1,289,360,288.7,360.9,288.3z
	 M307.9,286c1.1,2.4,3.3,3.2,5.5,3.9c0.8,0.4,1.7,0.1,2.2-0.7c-0.7-0.4-1.3-0.7-1.9-1c-1.6-0.8-3.3-1.3-4.6-2.6
	C308.8,285.2,308.4,285.5,307.9,286z M297.8,299.2c-0.3,1.6-0.2,1.8,1,2.3c0.8,0.3,1.6,0.5,2.4,0.7c0.9,0.2,1.8-0.3,2-1.2
	C301.5,300.1,299.8,299.1,297.8,299.2z"/>
<path class="st8" d="M347.8,306.9l14-3c1.1,0.9,1.3,0.8,2.3-0.5c0.8-1,1.2-2.2,1.2-3.5c0-3.5-0.4-6.9-1.3-10.3c-0.4-1-1-2-1.7-2.9
	c-0.2-0.2-0.5-0.3-0.8-0.3c-2.8-0.4-5.5-0.7-8.3-1.1c-0.7-0.1-1.3-0.2-2.2-0.4c0.1-0.8,0.4-1.5,0.7-2.2c2.3-3.5,6.2-5.6,10.3-5.5
	c2.6,0.1,5,1.2,6.7,3.1c1.9,1.9,3.6,3.8,5.4,5.8c2.6,3.2,5.9,5.8,9.5,7.7c2.6,1.2,4.5,3,5.1,5.8c0.2,0.6,0.2,1.3,0,1.9
	c-0.6,1.8-1.3,3.5-2.1,5.1c-0.9,1.8-2.7,2.8-4.3,3.9c-3.2,2.3-7,3.3-10.7,4.3c-3.7,1-7.3,2.6-10.6,4.8c-2,1.3-3.8,2.8-5.8,4.2
	c-0.4,0.3-0.8,0.5-1.2,0.7c-1,0.5-2.2,0.2-2.7-0.8c0-0.1-0.1-0.2-0.1-0.2c-0.5-1.3-0.9-2.6-1.1-3.9c-0.4-2.5-0.4-5.1-0.8-7.7
	C348.9,310.3,348.4,308.6,347.8,306.9z"/>
<path class="st10" d="M100.3,213.9l7.2-1.7c0.1,0.4,0.1,0.8,0.1,1.3c0,2.9,0,5.9-0.1,8.8c0,0.3,0,0.6,0,0.9c-0.5,2.5-0.5,5,0,7.5
	c0.1,1.2,0.1,2.4,0,3.5c-0.1,3.8,0.6,7.6,0.2,11.5c-0.3,3.4,0.1,6.8,0,10.2c0,4.1-0.2,8.2-0.3,12.4c-0.1,3.5-0.1,7-0.2,10.5
	c-0.1,5.4-0.1,10.9-0.2,16.3c0,4.4-0.1,8.9-0.1,13.3c0,1.4,0.3,2.8,0.3,4.3c0,0.8-0.1,1.7-0.4,2.4c-0.7,1.7-1.5,3.4-2.3,5.2
	c-1.5-1.6-2.3-3.7-2.2-5.9c0.1-1.3,0.3-2.6,0.3-3.9c-0.1-0.8-0.2-1.5-0.5-2.3c-0.1-0.2-0.3-0.3-0.5-0.3c-0.3,0.1-0.5,0.3-0.6,0.5
	c-0.1,0.2-0.1,0.3-0.1,0.5c0.1,3.8-1.2,7.2-2.2,10.8c-0.9-1.9,0.3-4.5-2-6.4c-0.1,2.2-0.2,4-0.3,5.8c-1-1.5-2.1-2.9-1.1-4.7
	c0.2-3.6,0.6-7.1,0.6-10.7c0-6.2-0.5-12.4-0.4-18.6c0-4.3,0.6-8.7,0.9-13c0.1-2.4-0.1-4.8,0-7.1c0.1-2.2-0.3-4.4,0.3-6.5
	c0.2-1.3,0.3-2.6,0.1-3.9c-0.2-3.7-0.5-7.4-0.7-11c-0.1-1.7-0.2-3.3-0.3-5c0-1-0.2-1.9-0.7-2.7c-0.6-0.7-0.2-1.6,0.2-2.4
	c0.6-1.1,1.3-2.2,1.8-3.3c1.7-3.1,2.6-6.4,2.8-9.9c0.1-1.7,0-3.4,0.1-5.1C100,214.7,100.2,214.3,100.3,213.9z M98.1,304h0.4v-3
	c0-1.1,0-2.2,0-3.2c0.1-1.7,0.3-3.3,0.3-5c0-3.8-0.5-7.7,0.6-11.4c0.1-0.7,0.1-1.3,0-2c-0.5-2.2-0.5-4.4,0-6.5c0-0.2,0-0.5,0-0.7
	c0.2-2.5-0.1-4.9,0-7.4c0.2-4.6,0.3-9.1,0.3-13.7c0-2.7,0-5.4,0.1-8.1s-0.7-5.4-0.4-8.1c0.2-2.1,0.2-4.1,0.1-6.2l-1-0.4
	c-0.1,1-0.2,1.8-0.2,2.6c0,5.3,0.1,10.6,0.1,15.9c0,2.2-0.3,4.4-0.3,6.5c0,2.5-0.2,5-0.2,7.4c0.1,3.2-0.6,6.3,0.2,9.5
	c0.2,1.3,0.2,2.6-0.1,3.9c-0.1,0.7-0.5,1.3-0.5,2c-0.1,1.9,0.4,3.8,0,5.7c-0.2,0.9-0.2,1.8-0.1,2.8c0.3,2.1,0.4,4.2,0.4,6.3
	c0,2.7-0.1,5.4-0.3,8.1C97.5,300.6,97.7,302.3,98.1,304z M105.3,265l-0.5-0.1c-0.2,2.3-0.4,4.7-0.5,7c-0.1,1.7,0.1,3.5,0.1,5.2
	c0,5-0.1,10.1-0.2,15.2c0,1.3-0.2,2.6-0.3,3.9c0,1.9,0,3.8,0,5.8c0.4-0.2,0.6-0.6,0.7-1c0.2-1.3,0.4-2.7,0.6-4
	c0.3-1.7,0.6-3.4,0.7-5.1c0.1-2.6-0.1-5.1-0.1-7.7c0-0.8,0.1-1.5,0.1-2.3c0-3-0.4-6-0.1-8.9S105.4,267.6,105.3,265L105.3,265z
	 M102,272.2h-0.6c-0.2,0.8-0.3,1.6-0.4,2.3c0.2,1.6,0.2,3.3,0,4.9c-0.2,2,0,4-0.1,6c-0.1,2.6-0.3,5.2-0.4,7.8s-0.2,5-0.3,7.5
	c0.1,0.8,0.2,1.5,0.5,2.2h0.4c0.4-3.4,0.8-6.8,1.2-10.2s-0.2-6.9,0-10.3C102.6,279.1,102.5,275.6,102,272.2z M104.3,240.4h0.5
	c0.5-2.2,0.8-4.5,0.7-6.8c-0.2-2.1-0.1-4.3,0.3-6.4c0.1-0.3,0.1-0.7,0.1-1c-0.1-2.7-0.8-5.3-0.4-8c0-0.2-0.3-0.4-0.5-0.6
	c-0.3,0.3-0.7,0.5-0.8,0.8c0,1.7,0,3.5,0.1,5.2c0,1.4,0.5,2.9,0.1,4.3c-0.7,2.8-0.4,5.7-0.5,8.5C104,237.6,104.2,239,104.3,240.4
	L104.3,240.4z M101.8,270.2c1.1-9.4-0.1-18.6,0-27.9c-1.1,0-1.1,0.6-1.1,1.3c0,1.9,0.1,3.8,0.1,5.7c0,0.8-0.2,1.6-0.1,2.5
	c0.2,2.1,0.5,4.1,0.6,6.2c-0.1,1.7,0,3.5,0.3,5.2c0,0.3,0,0.6-0.1,0.9c-0.5,1.7,0,3.4-0.1,5.1C101.4,269.5,101.7,269.9,101.8,270.2z
	 M102.7,221.5c-1.5,0.8-1.5,0.8-1.5,2.1c0,1.7,0.2,3.5,0.2,5.2c0.1,2.7-0.4,5.5,0.4,8.2c0.3-0.6,0.6-1.2,0.6-1.9c0-2.5,0-5,0-7.5
	c0-1.1,0-2.1,0-3.2S102.6,222.5,102.7,221.5L102.7,221.5z M104.9,252.4h-0.3v3.4h0.2L104.9,252.4z"/>
<path class="st7" d="M282.3,50.8c-0.1,1.5-0.8,2.9-2,3.8c-4.9,4-10.6,5.9-16.7,6.8c-4.7,0.7-9.5,1.3-14.2,1.9
	c-1.6,0.2-3.3,0.3-5,0.6c-1.6,0.3-3.2,0.9-5.1,1.4c0.4,0.5,0.5,0.9,0.8,1c0.6,0.2,1.3,0.3,1.9,0.3c2.7-0.1,5.5-0.3,8.2-0.5
	c2.4-0.2,4.8-0.5,7.1-0.8c1.2-0.1,2.5-0.2,3.8-0.3c-0.2,1.2-1,2.3-2.1,2.8c-2.9,1.7-6.1,2.7-9.5,2.9c-5.3,0.3-10.6,0.5-16,0.7
	c-1.5,0-3,0-4.4,0c-0.3,1.1,0.3,1.5,1,1.6c1.9,0.3,3.9,0.5,5.8,0.8c0.5,0.1,0.9,0.1,1.7,0.1c-0.3,0.6-0.5,1.2-0.9,1.4
	c-0.9,0.7-1.9,1.2-3,1.6c-2.7,0.7-5.4,0.4-8.1,0.2c-0.6-0.2-1.1-0.4-1.6-0.8c-0.2,0.5-0.3,1-0.4,1.5c-0.2,1.8-1.5,3.3-3.4,3.6
	c-1.8,0.2-3.5-0.5-4.5-2c-0.3-0.5-0.4-1.1-0.3-1.7c0.4-1.9,2-3.4,4-3.5c1.4,0,1.9-0.6,2.4-1.9c1-2.6,2.2-5.2,3.6-7.6
	c1.7-3,4.6-4.9,7.6-6.3c3.6-1.6,7.5-2.6,11.4-3c3.3-0.5,6.6-1.1,9.9-1.5c4.7-0.7,9.3-2,13.7-3.9c3.6-1.4,6.9-3.2,10-5.5
	c2.7-2,5.4-3.9,8-6.1c1.9-1.6,4.2-2.7,6.6-3.3c0.8-0.1,1.5-0.1,2.3,0.1c0.3,2.7-1,4.3-2.8,5.7c-3.6,2.7-7.6,5-11.8,6.8
	c-3.2,1.4-6.4,2.7-9.6,4c-2.8,1.1-5.7,2-8.6,3.1c-1.4,0.5-2.8,1-4.2,1.6c-0.5,0.2-0.9,0.5-0.7,1c0.2,0.3,0.5,0.5,0.9,0.6
	c0.9,0,1.8,0,2.7-0.1c3.7-0.6,7.4-1.6,10.9-3c3-1,5.9-2.2,8.8-3.6C281.2,51.1,281.7,51,282.3,50.8z M241.6,60.4
	c-2.7-0.1-5.2,1.4-6.5,3.8c-0.5,1.1-0.1,1.7,1.3,2.1c0.7-1.5,1.9-2.6,3.3-3.4C240.6,62.3,241.6,61.8,241.6,60.4z M219.8,76.1
	c-1.4,0-2.3,0.6-2.3,1.7c0.2,1.2,1,2.2,2.2,2.5c1.3,0,2.1-0.6,2.1-1.8C221.9,77,221.1,76.1,219.8,76.1L219.8,76.1z M255.7,56.2
	l-0.4-0.4c-2.6,0.1-4.7,1.6-6.7,3.1c0.1,0.6,0.7,0.9,1.3,0.8c0.1,0,0.2-0.1,0.3-0.1c1.5-0.6,3-1.2,4.4-2
	C255,57.5,255.3,56.7,255.7,56.2z"/>
<path class="st11" d="M189.5,60.6c1.8-0.6,3.5-1,5.2-1.6c3.9-1.3,8-1.8,12-1.3c5.2,0.5,10.2,2.5,14.2,5.9c0.4,0.3,0.9,0.6,1.5,1
	l-2.9,7.1c-0.9,0.3-1.8,0.5-2.7,0.8c-2.3,0.8-4.3,3.8-4,6c0.2,1.3,0.9,2.5,1.8,3.4c2.2,2.3,5.4,3.4,8.2,1.5c1.7-1.2,1.8-1.1,3.2-3.5
	h7.6c0.3,2.8,0.3,5.5,0,8.3c-3.3,0.5-5.6,2.6-7.6,5c-1.6-1.2-3-2.5-4.5-3.6c-2.3-1.7-4.7-3.3-7-4.9c-0.8-0.6-1.6-1.2-2.4-1.8
	c-1.6-1.1-3.2-2.1-4.7-3.3s-3-2.5-4.6-3.7c-0.6-0.5-1.1-1.2-1.4-2c-1.5-3.5-3.6-6.4-7.7-7c-1.8-0.3-3.5-0.4-5.4-0.6l-0.9,2.8
	l-4.6-0.9c0.7-2.7-1.4-4.4-2.3-6.5c-0.7-1.3-1.3-2.6-1.8-3.9c-1-3-0.4-6.4,1.6-8.9c1,0.7,1.7,1.7,1.8,2.9c0.6,2.8,1.3,5.6,1.7,8.4
	c0.1,1.8,0.1,3.6-0.1,5.4c0,0.6-0.4,1.4,0.5,1.7s1.6,0.1,1.9-0.9c0.1-0.2,0.2-0.4,0.4-0.6C188.1,64.7,188.7,62.6,189.5,60.6z
	 M195.7,61.5c0.7,0.4,1.1,0.8,1.4,0.7c1.4-0.3,2.9-0.7,4.3-1.1c0.3-0.1,0.4-0.4,0.6-0.6C199.9,60.5,197.7,59.4,195.7,61.5z"/>
<path class="st7" d="M235.8,21.1c1,1,1.1,2.6,0.3,3.8c-1,2-2.5,3.6-4.4,4.8c-2,1.1-4,2.5-6,3.6c-2.2,1.3-4.5,2.4-6.8,3.6
	s-4.5,2.4-6.8,3.5c-1,0.4-0.8,1.5-1.7,2c4.3,0.1,7.6-2.3,11.4-3.4c0.1,0.9-0.3,1.8-1,2.4c-2.2,2.5-5.1,4.2-7.7,6.1
	c-1.1,0.8-2.2,1.7-3.2,2.6c-0.3,0.4-0.6,0.9-0.9,1.4c-0.5,0.5-0.4,1.3,0.1,1.8c0,0,0.1,0.1,0.1,0.1c0.6,0.5,1.3,0.1,1.8-0.4
	s0.8-0.9,1.3-1.3c0.3-0.2,0.6-0.3,0.9-0.5c0.2,2-1.9,2.9-1.9,4.6c-6.2-1-12.3-1.5-18.1,1.2c-1.4-1.4-1.4-3-1.1-4.6
	c0.5-3,1.8-5.9,3.7-8.2c2.1-2.7,5-4.6,7.9-6.4s5.9-3.6,8.8-5.6c1.2-0.9,2.3-1.9,3.3-3c2.5-2.2,4.8-4.5,7-6.9c2-2.3,3.9-4.7,5.5-7.3
	c1.5-2.3,3.1-4.5,4.8-6.7c1.3-1.7,2.9-3.2,4.8-4.3c0.5-0.3,1-0.5,1.5-0.6c1.8-0.5,2.2-0.2,2.1,1.6c-0.1,2-0.8,4-1.9,5.7
	c-1.9,2.8-4,5.4-5.9,8.1s-3.8,5.6-5.7,8.5c-0.1,0.2-0.4,0.4-0.4,0.6c0,0.4,0.1,0.9,0.4,1.2c0.1,0.1,0.8,0.1,1-0.1c1-1,1.9-2,2.8-3
	C233.1,24.4,234.4,22.8,235.8,21.1z M221.3,30.4c0.8-0.6,1.6-1.2,2.5-1.7c2.3-1.2,3.1-3.3,3.4-5.7c0.1-0.6,0.2-1.8-1.2-2.1
	c-0.3,0.6-0.6,1.1-0.8,1.7c-0.7,2.3-1.9,4.4-3.6,6C220.9,29.2,221.1,29.7,221.3,30.4L221.3,30.4z M201.4,54.2h0.5
	c0.1-0.5,0.1-1,0.2-1.5c0.5-2.9,0.8-5.8,3.6-7.6c0.2-0.1,0.3-0.8,0.2-0.9c-0.3-0.2-0.8-0.4-1-0.3c-0.8,0.5-1.5,1.2-2.1,1.9
	c-1.6,2.2-1.8,4.9-1.9,7.5C201,53.6,201.3,53.9,201.4,54.2z M206.7,48.7c-2.1,0.6-3,2.4-2.2,4.1c0.7-1,1.4-1.9,2-2.9
	C206.6,49.5,206.7,49.1,206.7,48.7L206.7,48.7z"/>
<path class="st2" d="M261,241.3c1.4-4.8-2-9.6-4.9-11.8c-0.8-0.6-1.7-1.1-2.7-1.5c-1.3-0.6-2.8-0.5-3.9,0.4
	c-0.3,0.1-0.6,0.3-0.9,0.3l-0.2-0.3c1.4-1,2.8-2,4.2-2.9c3.4-2.2,6.7-4.4,10.1-6.5c3.7-2.3,7.4-4.6,11.2-6.7
	c2.4-1.4,4.9-2.5,7.4-3.7c1.1-0.5,2.3-0.7,3.5-1.1c0.6-0.3,1.4-0.1,1.8,0.5c0.7,0.9,1.5,1.9,2.1,2.9c1.7,2.5,3.3,4.9,5.1,7.5
	c-1.8,1.4-3.7,2.6-5.7,3.8c-4.5,2.7-8.9,5.8-13.3,8.8c-2.3,1.6-4.5,3.5-7,4.9c-1.6,1.1-3.1,2.3-4.5,3.6
	C262.7,240,261.9,240.7,261,241.3z"/>
<path class="st4" d="M146.5,173.8c-0.8-1.6-1.5-2.8-2-4.1c-1.4-3.4-2.2-6.9-2.5-10.6c-0.3-3.6,0-7.2,0.8-10.7c0.7-3,1.5-5.9,2.3-8.8
	c0-0.1,0-0.2,0.1-0.4c1.2-2.5,2.4-5.1,3.6-7.7c3.6,1.4,7.4,1.2,11.4,0.9c0.4,2,0.6,4,0.7,6c0,2.9-0.3,5.7-0.9,8.5
	c-0.8,3-2.2,5.9-3.3,8.9c-1.3,3.3-2.1,6.7-2.4,10.2c0,1.3-0.2,2.5-0.1,3.7c0.1,2.1,0.1,4.3,1,6.3c-1.3-0.8-2.3-1.9-3-3.2
	c-1-1.9-1.7-4-1.8-6.1c-0.1-0.6-0.2-1.1-0.9-1.4c-1.7-0.6-2.4-0.1-2.6,2s-0.2,3.8-0.3,5.7C146.7,173.1,146.6,173.2,146.5,173.8z
	 M156.8,143.3c-0.2,0.2-0.4,0.5-0.5,0.8c-0.7,2.3-1.3,4.6-2,7l1.1,0.3c1.2-2,2-4.3,2.3-6.6c0.2-0.6-0.1-1.2-0.6-1.4
	C157,143.3,156.9,143.3,156.8,143.3L156.8,143.3z"/>
<path class="st10" d="M95.2,151.2H106c0,0.6,0.1,1.1,0.1,1.6c0.1,2.4,0.3,4.8,0.3,7.2c0,0.9-0.2,1.9-0.2,2.8
	c-0.2,2.5-0.3,5.1-0.5,7.6c-0.1,3.1-0.4,6.3-0.4,9.5s-0.2,6.6,0.6,9.8c0,0.4,0,0.7,0,1.1c-2.8,1.6-5.5,3.1-8.2,4.7
	c-1,0.6-1.4,0.5-2.1-0.4c-1.3-1.5-1.9-3.1-0.9-5.1c0.2-0.4,0.2-0.9,0.2-1.4c0-1.4-0.2-2.8-0.2-4.2c0-1.6,0.3-3.2,0.3-4.8
	c0.1-3-0.2-6,0.1-8.9c0.2-2.2-0.1-4.4-0.1-6.6c0-2.6,0.3-5.1,0.3-7.7c0-1.2-0.2-2.5-0.3-3.7C95.1,152.2,95.1,151.7,95.2,151.2z
	 M97.7,154.9c-0.7,1.2-0.9,2.6-0.7,4c0.2,0.7,0.3,1.5,0.3,2.3c0,1.9-0.1,3.8-0.3,5.7c-0.5,3.5-0.6,7.1-0.5,10.6
	c0.1,2.7,0,5.5-0.3,8.2c0,1.5,0.2,3,0.7,4.5c0.8-0.6,1.1-1.1,0.9-1.9c-0.2-0.6-0.3-1.3-0.3-2c0-2.8,0.3-5.6,0.2-8.4
	c-0.1-4.6,0.9-9.1,0.6-13.7c-0.1-2.5,0.2-5,0.3-7.5C98.7,156,99.1,155,97.7,154.9L97.7,154.9z M99.7,152.6c0.2,1.2,0.2,2.4,0.3,3.5
	c0,2.1-0.2,4.1-0.3,6.2c-0.2,3.6-0.1,7.3,0,10.9c0.1,2,0.2,4,0.3,6.1c0,0.9,0,1.9,0,2.9c-0.1,3.1-0.2,6.2-0.3,9.3
	c0,0.4,0.1,0.8,0.2,1.1c0.7-0.4,1.2-1.3,1.1-2.1c0-2,0-4,0-6c0-3.9,0.3-7.9-0.2-11.8c-0.1-2.1-0.2-4.1-0.1-6.2c-0.1-3,0.3-6,0.4-9
	c0-1.4-0.1-2.8-0.2-4.4L99.7,152.6z M102.8,187.4h0.5l0.2-2c0.3-2.8,0.8-5.6,0.2-8.4c-0.1-0.7-0.1-1.4,0-2.1c0-3.2,0.2-6.5,0.1-9.7
	c-0.2-2.7-0.1-5.5,0.4-8.2c0.1-0.6,0-1-0.6-1.1s-1,0.3-1,0.9c0,1.1,0,2.1,0,3.2c0.1,4.1,0.2,8.2,0.3,12.3c0,0.5,0,1,0,1.4
	c-0.7,4-0.1,8-0.4,12C102.6,186.4,102.6,186.9,102.8,187.4L102.8,187.4z"/>
<path class="st4" d="M208.9,91.9c-2.7-0.3-3.2,2.2-5,3.3c-0.5-2.5,0.5-4.6,1.2-6.8c0.8-2.3,2.5-3.7,4.8-4.7
	c5.1,3.4,10.1,7.1,14.9,10.8c-0.4,1.8-0.5,3.4-1.3,4.7c-0.8,1.4-1.1,2.9-0.9,4.5l-2,0.3c-0.9,3.6-1.6,7.2-0.9,11
	c-2.9-3.2-3.4-7-3.1-11.1c-1.5,0.6-2.8,2.7-4,6.4c-0.4-1.4-0.4-3,0-4.4c0.1-0.9,0.2-1.8,0.2-2.6c-2.1,0.5-4.1,2.9-6.1,7.2
	c-0.5-1-0.8-2.1-0.8-3.2c-0.3-4.3,0.6-8.6,2.6-12.5c0.1-0.2,0.3-0.5,0.2-0.6C208.4,93.4,208.8,92.7,208.9,91.9z M208.6,100.6
	c0.8-2.2,1.6-4.5,2.5-7C208.9,95.8,207.9,98.7,208.6,100.6z"/>
<path class="st1" d="M216.7,167.6c0.1,0.6,0.2,1.3,0.2,1.9c-0.3,3-0.5,6.1-1,9.1c-0.3,2.3-1,4.4-2.2,6.4c-1.1,1.9-3.1,3.1-5.3,3.1
	c-3.7,0.1-7-1-9.4-4c-0.9-1.2-1.7-2.6-2.1-4.1c-0.8-2.3-1.4-4.7-2.1-7c0-0.2,0-0.4,0-0.6c1.8-0.7,3.9-0.9,5.3-2.4s2.6-3,4-4.7
	c2.9,3.4,6,6.7,8.4,10.5c1.5-0.4,1.6-0.5,1.4-1.8c-0.4-1.9-0.9-3.7-1.3-5.6c-0.1-0.4-0.1-0.8-0.2-1.5c0.6,0.7,1,1,1.3,1.5
	c1,1.4,1.9,1.3,2.6-0.3c0.1-0.2,0.1-0.3,0.2-0.5L216.7,167.6z M202.3,174.4c2.5,1.1,3.8,0.3,4.8-2.6c-0.7,0.7-1.4,1.2-2.2,1.7
	C204.2,173.9,203.3,174.2,202.3,174.4L202.3,174.4z"/>
<path class="st4" d="M221.2,145l-1.2-1.6c2.4-5.4,4.4-10.9,1.8-17.2l4.2,1c2.8,0.8,5.7,0.8,8.4-0.2c1.6-0.8,3.1-1.8,4.4-3.1
	c2-1.9,3.7-4.1,4.8-6.6c0.1-0.2,0.3-0.3,0.4-0.5c0.5,0.9,0.5,2,1.7,2.3c0.2,0,0.3,0.5,0.5,0.8c2.1,4.4,2.6,9.4,1.6,14.2
	c-0.1,0.4-0.2,0.7-0.5,1.3c-0.4-0.7-0.6-1.2-0.9-1.6c-1.2-2.2-2.9-4-5-5.3c-1-0.6-1.1-0.5-2.4-0.1c0,1.5,1.7,1.6,2.4,2.6
	c-0.6,2.6-1.9,5-3.7,7c-0.3-3-0.1-5.8-1.2-8.5l-2,0.2c0.4,1.4,0.1,2.9-0.9,4c-1.3,1.8-2.7,3.6-4.1,5.4c-1.2,1.4-2.8,2.2-4.6,2.5
	l-0.4,0.1C221.7,141.9,221.7,141.9,221.2,145z M224.6,137.6c0.2,0.4,0.3,0.7,0.5,0.8c0.8,0.5,1.9,0.4,2.7-0.3
	c0.9-0.8,1.5-1.9,1.5-3.1c0-0.1-0.6-0.5-1-0.4c-0.3,0.1-0.6,0.3-0.8,0.7C226.9,136.5,225.9,137.3,224.6,137.6z"/>
<path class="st2" d="M230.5,270.6c-2.8-0.7-4.6-2.4-6.4-4.1c-1.8-1.8-3.4-3.6-5-5.6c-1.4-1.4-1.4-3.6,0-5c0,0,0.1-0.1,0.1-0.1
	c3.3-3.8,6.9-7.4,10.6-10.8c0.6-0.6,1.2-1.3,1.9-2l2.4,4.6c-0.6-0.2-1-0.3-1.3-0.4c-2-0.8-4.3-0.3-5.8,1.3c-0.3,0.2-0.4,0.6-0.4,0.9
	c0.6,2,0.7,4.2,1.9,6.1c1.3,2.3,3.2,4.2,5.5,5.6c1.5,0.9,3.5,0.8,4.9-0.2c1.3-0.7,1.9-2.3,1.4-3.7c-0.2-1-0.4-2-0.6-3l6.1,2.1
	c-1.4,1.5-2.9,3-4.5,4.3c-2.9,2.3-5.6,4.8-8.1,7.5C232.4,269,231.4,269.7,230.5,270.6z"/>
<linearGradient id="SVGID_1_" gradientUnits="userSpaceOnUse" x1="306.97" y1="287.3566" x2="331.8" y2="287.3566" gradientTransform="matrix(1 0 0 -1 0 498.4432)">
	<stop  offset="0" style="stop-color:#29AA00"/>
	<stop  offset="0.89" style="stop-color:#000000"/>
</linearGradient>
<path class="st12" d="M310.2,227.2c-0.8-0.6-1.7-1.2-2.5-1.8c-0.3-0.3-0.5-0.6-0.8-0.9c0.6-1.2,1.4-2.3,2.3-3.4c1-1.4,2-2.8,2.7-4.4
	c1-1.7,2-3.4,2.9-5.1c0.4-0.7,0.6-1.4,0.5-2.2c-1.1-4.1-0.1-7.8,2.1-11.3c0.6-1,1.2-2,1.9-3.2c0.4,0.9,0.7,1.6,0.9,2.1l-1.9,2.4
	c-0.5,0.7-1,1.3-1.6,1.9c-0.6,0.5-0.8,1.3-0.5,2c0.2,0.8,0.8,0.9,1.5,1c2.6,0.6,5.1,1.9,7,3.8c0.3,0.4,0.5,0.8,0.7,1.2
	c0.5,1.1,1.2,1.4,2.2,0.8s2.2-1.4,2.4-2.7c0.1-0.2,0.2-0.4,0.3-0.5l1.3,1c-0.4,0.8-0.9,1.5-1.5,2.2c-1.5,1.3-3,2.5-4.6,3.7
	c-0.4,0.3-0.8,0.4-1.3,0.5c-1,0.3-2,0.5-3,0.9c-0.5,0.2-0.9,0.6-1.2,1c-3.2,3.6-6.4,7.2-9.6,10.8
	C310.4,227.1,310.3,227.2,310.2,227.2z M310.2,224.4c0.8,0.1,1.7-0.3,2.1-1.1c1-1.7,1.8-3.4,2.6-5.2c0,0-0.1-0.2-0.2-0.2
	C312.4,219.7,310.2,222.9,310.2,224.4L310.2,224.4z"/>
<path class="st3" d="M246,253.1c-2-0.3-3.8-1.3-5.3-2.7c-0.4-0.5-0.8-0.9-1.2-1.3c-3-2.3-4.4-5.6-5.5-9c-0.8-2.5,0.7-4.4,3.2-5
	c1.5-0.3,3,0.1,4.2,1.1c4,2.9,7.1,7,8.8,11.7C251.2,250.7,249.3,253.1,246,253.1z M237.9,242c0.1,0.3,0.2,0.6,0.3,0.9
	c0.6,0.9,1.3,1.8,2.1,2.7c0.6,0.8,1.8,1.1,2.6,0.5c0,0,0,0,0.1,0c1.1-0.6,1.5-2,1-3.1c-0.7-1.3-1.8-2.4-3.2-3
	c-1.1-0.4-2.4,0.2-2.8,1.3C237.9,241.4,237.9,241.7,237.9,242L237.9,242z"/>
<linearGradient id="SVGID_2_" gradientUnits="userSpaceOnUse" x1="335.86" y1="326.3635" x2="356.76" y2="326.3635" gradientTransform="matrix(1 0 0 -1 0 498.4432)">
	<stop  offset="0" style="stop-color:#29AA00"/>
	<stop  offset="0.89" style="stop-color:#000000"/>
</linearGradient>
<path class="st13" d="M339.1,167.1l-0.9,3.1l-2.4-0.5l4.4-5.9c0.4-0.6,1-0.5,1.6-0.3c2.2,0.7,4.3,1.8,6.1,3.2c3,2.4,5.8,4.9,8.8,7.4
	c-0.7,1.3-1.2,2.4-1.8,3.5s-1.3,2-2.1,3l-1.3-1.4c0.3-0.3,0.4-0.6,0.7-0.9c1-1.1,1.2-1.6,0.3-2.7c-1.7-2.3-3.7-4.4-6-6l-2.7-1.8
	C342.4,167,340.7,166.7,339.1,167.1z"/>
<path class="st1" d="M72.5,217.7c-0.6,1.1-1.3,2.2-1.9,3.4c-0.9,1.8-0.3,3.4,1.6,4.5c-1.6,3-4.1,5.6-4.9,9.1
	c-0.9,0.3-1.8,0.6-2.7,0.9c-1.2,0.4-1.9,0.2-2.1-1c-0.2-0.9-0.2-1.9,0.1-2.8c2.1-5.1,5.4-9.5,9-13.7c0.2-0.2,0.4-0.4,0.7-0.6
	L72.5,217.7z"/>
<path class="st14" d="M174.9,238.3c-0.1-3.1,0.5-6.2,1.6-9.1c0.4-1,0.9-2,1.5-3c0.7-1,1.4-1,2.1,0c1.3,1.6,1.9,3.6,1.8,5.7
	c0,2.8-0.7,5.5-2,7.9c-0.5,0.9-1.2,1.8-2,2.5c-1.2,1-2.2,0.7-2.7-0.8c-0.2-0.5-0.3-1-0.3-1.6C174.9,239.4,174.9,238.9,174.9,238.3z
	 M175.9,234.3c-0.1,0.3-0.1,0.6,0,0.8c0.1,0.3,0.4,0.8,0.7,0.9c0.4,0,0.7-0.1,1-0.4c0.2-0.3,0.4-0.6,0.5-1c0.6-1.6,1.1-3.2,1.7-4.8
	c0.2-0.5,0-1.1-0.5-1.3c0,0,0,0,0,0c-0.5-0.3-1.1-0.1-1.4,0.4C176.5,230.4,176.2,232.3,175.9,234.3L175.9,234.3z"/>
<path class="st10" d="M100.9,94.7l1.1,1.6c0.5-0.7,1.1-1.1,1.2-1.7c0.2-1.1,0.9-1.2,1.7-1.1s1.6,0.3,2.6,0.5
	c-0.3,1.8-0.5,3.4-0.7,4.9l-13.8-0.2c-0.2-1-0.4-2.1-0.5-3.1c-0.2-1.6-0.1-1.8,1.8-2.1c0.4,0.7,0.8,1.4,1.2,2.1
	c0.6,0.6,1.2,1.2,1.9,1.8c1.5-2.1,0.1-4,0.4-6c1-0.2,2.1,0,3,0.4C100.9,92.9,100.9,93.8,100.9,94.7l-1.2-1.7
	c-1.1,1.1-0.3,2.2-0.1,3.1c0.1,0.6,0.1,1.5,1.3,1.6L100.9,94.7z M104.3,97.7c1.6,0.3,1.8,0.2,2-0.7c0.2-1.3-0.1-1.9-1.4-2.2
	C104.8,95.7,104.5,96.6,104.3,97.7z"/>
<path class="st2" d="M242.7,233.2l4-3.2c0.1,7,6.4,12.2,12,13l-2.6,2.2c-0.8,0.7-1.6,1.4-2.4,2c-1.4-2.6-3-5.1-4.7-7.6
	C247,237.4,244.9,235.2,242.7,233.2z"/>
<path class="st3" d="M257.7,240.3c-4.2-1.4-7.5-4.8-8.7-9.1c2.2-1.6,5-0.2,7,2C258.4,235.9,259,238.2,257.7,240.3z"/>
<path class="st1" d="M78.1,228.1c-1.9,3.7-4.4,7-5.5,11c-0.2,0.1-0.5,0.2-0.7,0.2c-1.7,0.2-2.4-0.4-2-2c0.3-1.6,0.9-3.2,1.5-4.7
	c0.8-1.7,1.8-3.4,2.8-5c0.3-0.4,0.6-0.8,1-1.2L78.1,228.1z"/>
<path class="st3" d="M237.7,258.7c-0.8,0.4-1.7,0.4-2.5-0.1c-1.7-1.1-3.1-2.6-4.1-4.4c-0.5-0.9-0.9-1.8-1.2-2.8
	c-0.1-0.5-0.2-1-0.3-1.4C232.6,248.4,238.3,254.5,237.7,258.7z"/>
<path class="st15" d="M185.7,241.6c0-3.3,0-6.5,0-10.1c1.4,0.9,2.5,1.4,3.4,2.1c0.3,0.3,0.5,0.7,0.5,1.1c0,2,0,4,0,6.2L185.7,241.6z
	"/>
<path class="st16" d="M226.9,58.4l-3.5,4c-1-0.8-2-1.6-3-2.5c-0.8-0.6-1-2.1-0.6-3.5c0.3-1.1,1.1-1.1,2-1.1
	C224,55.6,225.9,56.2,226.9,58.4z M221.6,57.5c0.6,1.4,1.1,1.5,2.8,0.3C223.4,56.7,223,56.7,221.6,57.5L221.6,57.5z"/>
<path class="st15" d="M191.8,234l3.5,1.7v6.7l-3.5,0.5V234z"/>
<path class="st7" d="M176.8,83.3c1.5,0.8,1.4,2,1.9,3.1c-1.8,0.4-3.1,2.1-2.9,4c-0.1,2.8-0.5,5.5-0.7,8.5l-1.8-1
	C174.3,93,175,88.1,176.8,83.3z"/>
<path class="st3" d="M319.8,202.4l1.7-2.4c0.7,1.3,1.8,2.4,3.2,3c1.3,0.7,2.6,1.6,4,2.5l-1.3,2.2c-1.3-1.1-2.3-2.1-3.5-3
	S321.3,203.2,319.8,202.4z"/>
<path class="st8" d="M383.5,290.5c-3-1.4-6.5-4.8-7.6-7.3C378.9,282.6,382.4,286.7,383.5,290.5z"/>
<path class="st3" d="M340.6,171c0.6-1.1,1-1.3,2.2-0.6c1.1,0.6,2.1,1.3,3.2,2c1.3,1.1,2.6,2.3,3.8,3.5c0.3,0.4,0.4,0.8,0.5,1.3
	l-0.4,0.3L340.6,171z"/>
<path class="st1" d="M203.1,87.2c-0.2-2.2-0.4-4.5-0.6-6.6c2.2-0.9,3.5,0.8,5.2,1.6c-0.6,0.6-1.2,1.2-1.9,1.7
	c-0.9,0.6-1.6,1.6-2,2.6C203.7,86.8,203.4,87,203.1,87.2L203.1,87.2z"/>
<path class="st7" d="M179.6,93.8l-1.2,0.9c-1.2-1.5-0.9-4.7,0.6-6.4C179.6,90.1,179.8,92,179.6,93.8z"/>
<path class="st15" d="M200.9,243.7l-2,0.2c-0.6-1.7-1.8-3.1-1.2-5.3C198.8,240.4,199.8,241.9,200.9,243.7z"/>
<path class="st1" d="M81.9,231.1l-1.7-0.5c0.2-1.2,0.9-2.3,1.8-3.1l0.9,1.5L81.9,231.1z"/>
<path class="st1" d="M85.7,228l-3.1-1.7l2.2-0.8L85.7,228z"/>
<path d="M304,225.3l1.9,1.3l-0.2,0.3c-0.8-0.2-1.8,0-2-1.2L304,225.3z"/>
<path d="M306.7,230.8L306,230l0.2-0.2l0.8,0.7L306.7,230.8z"/>
<path d="M304.1,228.2l0.9,0.7l-0.2,0.2l-0.9-0.7L304.1,228.2z"/>
<path d="M196.6,88.2c0,3.8-0.6,7.5-1.7,11.1c-0.4,1.3-0.6,2.7-1,4c-1.1,3.5-3.5,5-6.7,4.7c-1.6,0-2.9-1-3.4-2.5
	c-0.8-1.9-1.1-4.1-0.7-6.1c0-0.2,0.1-0.4,0.1-0.5c-0.2-4,1.2-7.7,2-11.6c0.6-2.3,1.8-4.3,3.5-6c1.6-1.7,4.2-1.8,5.8-0.2
	c0.3,0.3,0.6,0.7,0.8,1.1c0.5,1.1,0.9,2.2,1.1,3.4C196.6,86.4,196.7,87.3,196.6,88.2z M188.1,106.3c-0.1-0.4-0.1-0.7-0.2-1
	c-1.1-4-1.2-8.1-0.4-12.2c0.2-1.6,0.9-3,1.9-4.2c1.3-1.5,3.4-1.9,5.1-1c-0.1-1.3-0.3-2.5-0.6-3.8c-0.2-1.1-1.1-1.9-2.1-2.2
	c-1,0-1.9,0.6-2.3,1.5c-0.8,1.2-1.4,2.5-1.9,3.8c-0.5,1.7-0.9,3.5-1.1,5.2c-0.5,2.7-1,5.4-1.3,8.1c-0.1,1.6,0.2,3.1,1,4.5
	C186.5,105.9,187.3,106.4,188.1,106.3z M193.1,90c-0.7-0.4-1.7-0.1-2.1,0.7c0,0.1-0.1,0.2-0.1,0.2c-0.8,1.9-1,4.1-0.5,6.1
	c0.1,0.3,0.3,0.6,0.7,0.7c0.3,0,0.7-0.1,0.9-0.4C193.4,95.1,193.8,92.4,193.1,90L193.1,90z"/>
<path d="M225.7,118.3c0.4-0.3,0.7-0.7,1.1-0.8c1.9-0.4,2.7-1.8,3.3-3.5c0.7-1.8,1.1-3.7,1-5.6c0-1.5-0.7-2.8-1.9-3.7
	c-1.1-0.7-1.1-0.9-0.6-2.2c0.4-1.4,0.9-2.7,1.5-4c0.8-1.5,2.3-2.5,4-2.7c2.8-0.2,5.3,1.7,5.9,4.9c0.9,4.4-0.4,8.9-3.4,12.2
	c-0.4,0.6-1.2,0.8-1.8,0.5c-0.1,0-0.2-0.1-0.2-0.2c0.8-2.1,1.5-4.3,2.3-6.5c0.8-2.2,0.8-4.5,0-6.7c-0.7-1.9-2.5-2.3-3.8-0.7
	c-0.8,1-1.4,2.1-1.8,3.3c0,0.5,0.2,1,0.5,1.4c1.7,1.5,2.5,3.8,2,6c-0.3,2.1-0.9,4.1-1.8,6c-0.7,1.5-2,2.6-3.6,3
	C227.6,119.5,226.4,119.2,225.7,118.3z"/>
<path d="M155.8,99.9c0.4-0.9,0.9-0.8,1.4-0.6c3.5,1,6.8,2.4,9.9,4.3c0.8,0.5,1.6,0.8,2.3,1.3c0.3,0.2,0.5,0.6,0.4,1
	c-0.2,0.6-0.7,0.5-1.2,0.3c-2.5-1.3-5-2.7-7.6-4c-0.7-0.4-1.5-0.6-2.3-0.9C157.8,100.8,156.8,100.4,155.8,99.9z"/>
<path d="M200.6,105.9c-0.6,2.5-1.6,3.3-3.6,3.2c-1.3-0.1-2.6-0.4-3.8-0.7c-0.3-0.1-0.4-0.6-0.6-0.9c0.3-0.2,0.7-0.3,1-0.4
	c0.3,0,0.7,0.1,1,0.2c1.6,0.5,3.3,0.2,4.5-0.8C199.5,106.2,200,106,200.6,105.9z"/>
<path d="M197,103.2c1.1-0.4,1.5-1.9,3.1-1.4c-0.3,1-0.4,2-1.4,2.3c-0.6,0.3-1.3,0.1-1.6-0.5C197.1,103.5,197,103.4,197,103.2z"/>
<path d="M49.6,110.3l-1.6-0.4c-0.1-0.4-0.2-0.8-0.3-1.2c0.3-0.1,0.5-0.3,0.7-0.3c1.7,0,3.4,0,5,0c0.6,0,1.1,0.4,1.2,1c0,0,0,0,0,0.1
	c-0.5,1.1-1.6,0.5-2.4,0.9c1.3,2.2,2.5,4.4,3.9,6.6c2.2,3.6,4.4,7.2,6.6,10.8c0.4,0.6,0.6,1.3,0.8,2c0.8,3,2.6,5.4,4.5,8.3
	c0.1-2.5,0.1-4.5,0.2-6.6c0.1-2.6,0.2-5.1,0.3-7.7c0-1.8,0-3.6,0.1-5.4c0.1-2.3,0.2-4.6,0.3-6.9c0-0.8-0.1-1.7-0.3-2.5
	c-0.6-0.1-1.2-0.2-1.7-0.5c-0.4-0.2-0.6-0.6-0.7-1.1c-0.1-0.6,0.5-0.7,1-0.7c1.6,0,3.1,0,4.7,0c0.4,0.1,0.9,0.2,1.3,0.3
	c0.2,1-0.5,1.3-1.1,1.6c-0.7,0.2-1.1,0.9-1,1.7c0.1,3.9,0.1,7.8,0,11.6c-0.1,4.9-0.3,9.7-0.4,14.5c0,1.5,0,3.1,0,4.7
	c0.4,0.1,0.8,0.3,1.1,0.5c0.3,0.2,0.4,0.6,0.4,0.9c-0.1,0.3-0.3,0.6-0.6,0.7c-1.4,0.2-2.8,0.3-4.3,0.4c-1,0-1.1-0.2-0.9-1.8l2-0.6
	c-1.2-3.5-3.9-5.9-5.4-9s-3.3-6.1-5-9.1s-3.5-6.1-5.2-9.1l-0.4,0.1c0.1,1.6,0,3.2,0.2,4.9c0.3,3.8,0.4,7.5,0.2,11.3
	c-0.2,3.4-0.4,6.8-0.6,10.2c0,0.4,0,0.7,0,1l3.9,1.1c-0.2,0.7-0.9,1.2-1.6,1.2c-1.8,0.1-3.6,0.3-5.4,0.3c-0.4,0-0.7-0.3-0.9-0.6
	c-0.2-0.5-0.3-1.2,0.4-1.6c0.4-0.1,0.7-0.2,1.1-0.3C50.2,131,51.1,120.7,49.6,110.3z"/>
<path d="M121.7,110.6c-4.3,0-8.3,0-12.4,0c-0.8-0.1-1.6-0.2-2.4-0.3c-0.1,0.3-0.2,0.7-0.2,1.1c0,1.4,0.2,2.9,0.2,4.3
	c0,1.5,0,3.1-0.1,4.6c-0.2,1.8-0.1,3.7,0.3,5.4H119c0.1-0.4,0.1-0.7,0.3-0.8s0.6-0.6,0.9-0.6c0.4,0.1,0.7,0.3,0.9,0.7
	c0.2,0.9,0.2,1.7,0.1,2.6c-0.2,1.1-0.7,1.1-1.7,0.5c-0.3-0.2-0.6-0.3-1-0.3c-3.6,0-7.2,0-10.8,0c-0.2,0-0.4,0.1-0.5,0.2
	c-0.5,4.3-0.3,8.8-0.6,13.3c2.6,0.5,5.1-0.4,7.7-0.3s5.1,0,7.8,0c0.1-0.9,0.3-1.8,0.4-2.8c0.1-0.7,0.4-1.2,1.1-1.1
	c0.6,0,1.1,0.5,1.1,1.1c0,0,0,0.1,0,0.1c0,1.4-0.1,2.8-0.3,4.1c-0.1,0.8-0.7,0.8-1.4,0.8c-1.9,0-3.8-0.1-5.8,0c-2.3,0-4.5,0-6.8,0.1
	c-1.9,0.1-3.7-0.6-5.6-0.9c-0.2,0-0.5-0.6-0.5-1c0-1.3,0.1-2.5,0.2-3.8c0.2-5.8,0.2-11.6,0.5-17.4c0.1-3.3,0-6.7-0.4-10
	c-0.1-1.4,0.7-2,1.6-1.7c0.4,0.1,0.6,0.6,1,1c0.9-0.7,2-1.1,3.1-1c4.2-0.1,8.4-0.3,12.6-0.4c1.7,0,2,0.4,1.7,2
	c-0.1,0.8-0.1,1.7-0.4,2.5c-0.1,0.3-0.5,0.8-0.8,0.8c-0.4-0.1-0.7-0.3-0.9-0.7C122,112.1,121.8,111.3,121.7,110.6z"/>
<path d="M86,109.9h-7.7c-0.2,0.8-0.4,1.5-0.6,2.2c-1.2-0.4-1.9-1.7-1.5-2.9c0,0,0,0,0,0c0.2-1.1,0.7-1.6,2-1.6c2.4,0,4.8,0,7.2,0
	c2,0,3.9-0.2,5.9-0.3c1.7,0,3.5,0,5.2,0c0.9,0,1.7-0.1,1.9-1.2c0-0.2,0.4-0.3,0.6-0.5c0.8,1.8,1.2,3.3-0.6,4.7c-0.8-0.8-1.9-1-3-0.7
	c-1.6,0.1-3.2,0.2-4.8,0.1h-2.2c-0.1,1.3-0.2,2.6-0.2,3.9c0.5,5.7,0.5,11.5,0,17.2c-0.2,2.7-0.3,5.5-0.5,8.4
	c0.3,0.2,0.6,0.4,0.9,0.7c0.6,0.6,0.4,1.1-0.4,1.3c-1.3,0.3-2.6,0.3-3.9,0.5c-1,0.1-1.3-0.5-1.4-1.2s0.5-1.1,1.2-1.3
	c0.3-0.1,0.6-0.1,1.1-0.1c0.2-2.2,0.4-4.4,0.5-6.6c0.2-3.5,0.3-7,0.4-10.6c0-0.5,0-1.1,0-1.6c0-1.1,0.1-2.3,0.2-3.4
	c0-0.4,0.1-0.7,0.1-1.1c0-1.5-0.1-3.1-0.2-4.6C86.2,110.8,86.1,110.3,86,109.9z"/>
<path d="M126.2,144.2c0.3-3,0.7-6,0.8-8.9c0.2-3.7,0.1-7.4,0.1-11.1c0-2.1,0.1-4.1,0.1-6.2c0-0.6-0.2-1.3-0.2-1.9
	c0-0.7,0.1-1.3,0.2-1.9c0-0.2,0.5-0.3,0.8-0.4c0.9,1.1,0.3,2.3,0.3,3.3c0,2.2,0,4.4,0,6.5c0,1-0.1,2-0.1,3c-0.1,1.2-0.1,2.5-0.1,3.8
	c0.1,1.3,0,2.7-0.3,4c-0.1,0.8-0.1,1.6-0.1,2.5c-0.1,2-0.3,4-0.5,6.1c0,0.5,0,1,0.2,1.5c0.3,1,0,1.5-1.1,1.6c-0.8,0.1-1.7,0.1-2.5,0
	c-1,0-2-0.2-3-0.2c-2,0.1-3.9,0.3-5.8,0.5c-0.3,0-0.6-0.1-0.9-0.1c-1.7,0-3.3,0-5,0.1c-1.2,0-2.4,0.1-3.6,0.1
	c-2.7-0.1-5.5-0.2-8.2-0.2c-3.5-0.1-6.9-0.1-10.4,0c-1.6,0-3.3,0.2-4.9,0.2c-1.9,0-3.8-0.2-5.7-0.3c-0.2,0-0.5-0.2-0.7-0.2
	c-3.2,0.9-6.5,0.2-9.8,0.6c-1.6,0.1-3.2,0-4.8-0.1c0.1-1.1,0.7-0.9,1.2-1c1.7,0,3.4,0,5-0.1c2-0.2,4-0.2,6-0.2
	c3.7,0.3,7.3-0.5,11,0.1c1.8,0.3,3.8-0.1,5.7-0.2c2.3-0.1,4.6-0.3,7-0.3c2.6,0,5.1,0.3,7.7,0.3c2,0,4-0.1,6.1-0.2
	c0.7,0,1.4,0.2,2.1,0.1c2-0.1,4-0.2,6.1-0.3l6.4-0.4L126.2,144.2z"/>
<path d="M37.9,109.5c-1.2-0.6-3.1,0.2-3.4-2.1c0.5-0.2,1.1-0.3,1.6-0.4c1.4-0.1,2.8-0.1,4.2-0.1c1.2,0,1.5,0.4,1.6,1.8l-1.6,0.7
	c-0.2,10.8,0.5,21.6-0.8,32.5c0.6,0,1.2,0.1,1.8,0.2c0.4,0.1,0.7,0.4,0.9,0.8c0.1,0.3-0.3,0.8-0.6,1c-1.5,1-5.4,0.7-6.8-0.6
	c-0.1-0.1-0.2-0.3-0.2-0.5c0.5-1.4,1.6-0.7,2.7-0.9C38.1,131.2,38.3,120.3,37.9,109.5z"/>
<path d="M38.9,104.5c0.1-0.8,0-1.3,0.2-1.4c1.4-1.1,2.6-2.5,4.6-2.4c2.6,0.1,5.3,0.1,7.9,0.2c1,0.1,2,0,3-0.2c1.5-0.2,3.1-0.2,4.6,0
	c4.4,0.2,8.7,0.5,13,0.7c2.7,0.2,5.5,0.4,8.2,0.7c0.7,0.1,1.4,0.4,1.9,0.8c-1.6,0.2-3.2,0.3-4.8,0.1c-0.5-0.1-0.9-0.2-1.4-0.1
	c-4.3,0.9-8.5,0-12.8-0.1c-1.4-0.2-2.7-0.5-4-0.8c-2.2-0.2-4.4-0.2-6.5-0.1c-2.3,0.1-4.7,0.1-7,0c-1.9-0.2-3.5-0.1-5,1.3
	C40.3,103.6,39.6,104.1,38.9,104.5z"/>
<path d="M32.9,110.3c-0.8,1.8-2.1,3.4-3.8,4.6c-2.5,1.9-4.9,3.8-7.4,5.7c-1.3,1-2.5,2-3.6,3c3.7,3.3,7.4,6.5,11,9.7
	c-0.3,0.8-0.7,0.7-1.1,0.4c-0.9-0.8-1.9-1.5-2.7-2.3c-2.3-2.4-4.9-4.6-7.6-6.5c-0.2-0.2-0.5-0.5-0.6-0.8c0-1.1,0.6-2,1.6-2.5
	c3.4-2.6,6.8-5.2,10.2-7.9c1.1-0.9,2.2-1.9,3.3-2.8C32.4,110.6,32.7,110.5,32.9,110.3z"/>
<path d="M86.7,102.7c0.3-0.2,0.7-0.4,1.1-0.5c1.1,0,2.1,0,3.2,0c2.5,0.2,5.1,0.4,7.7,0.5c2.1,0.1,4.1,0,6.2,0.1c0.8,0,1.8,0,1.8,1.5
	c-3.4,0.3-6.7,0-10.1,0c-3.3,0-6.6-0.4-9.7-1.3L86.7,102.7z"/>
<path d="M31.1,140.7c-2-2-3.9-3.8-5.8-5.6c-2.1-2-4.2-3.9-6.3-5.8c-0.9-0.8-1.8-1.6-2.6-2.4c-0.5-0.5-0.5-0.5,0-1.6
	c2.8,2.6,5.5,5.1,8.3,7.7c2,1.9,4,3.8,6,5.7C31.3,139.2,31.7,139.7,31.1,140.7z"/>
<path d="M59.9,146.4c-0.7,0.1-1.5,0.5-2,0.3c-1-0.4-1.9,0-2.8,0.1c-1.1,0.1-2.2,0-3.4,0.1l-4.5,0.1c-1.2,0-2.4,0.1-3.6,0.1
	c-0.5,0-0.5-0.1-1.2-1.1c3.3,0,6.6,0,9.8,0c2.1,0,4.1-0.2,6.2-0.3c0.5,0,0.9,0.2,1.4,0.3L59.9,146.4z"/>
<path d="M118.2,103.4c0.3,0.5,0.2,1.2-0.3,1.5c-0.1,0.1-0.3,0.1-0.4,0.2c-1.9,0.6-3.9,1.2-5.8,1.7c-0.8,0.2-1.3-0.4-1.4-1.1
	s0.3-0.9,0.9-1.1C113.5,104.1,115.8,103.2,118.2,103.4z"/>
<path d="M100.2,143.6c-1.2-0.1-2.2-1-2.6-2.2c-0.2-1.2,0.6-2.4,1.8-2.6c0.4-0.1,0.7-0.3,1.1-0.5c0.7-0.3,1.5-0.1,2,0.5
	c0.3,0.4,0.5,0.9,0.4,1.4c-0.2,1.1-0.8,2.1-1.8,2.8C100.9,143.4,100.6,143.5,100.2,143.6z M101.4,139c-0.2,0.2-0.5,0.3-0.7,0.5
	c-0.2,0.2-0.4,0.4-0.6,0.6c-1,0.7-1.1,0.9-0.4,2.1C101.9,141.5,102.5,140.6,101.4,139z"/>
<path d="M97.7,112.4c0.3-1.1,1.2-1.9,2.3-2.1c0.9-0.2,1.9,0.1,2.5,0.8c0.6,0.8,0.1,1.5-0.4,2.1C100.9,114.9,98.9,114.6,97.7,112.4z
	 M99.5,112.6c1.6,0,1.8-0.1,1.5-1.4C99.8,111.5,99.8,111.5,99.5,112.6L99.5,112.6z"/>
<path d="M126.7,105.5c-0.3,0.1-0.6,0.3-0.7,0.3c-1.4-0.4-2.8-0.8-4.2-1.3c0-1,0.6-0.8,1-0.8c0.6,0.2,1.1,0.2,1.7,0.2
	C126.1,103.7,126.1,103.6,126.7,105.5z"/>
<path d="M100.7,116.7c-0.8,0.8-1.4,1.1-2.1,0.7s-1.6-0.6-1.6-1.7C98.3,115.5,99.1,116.5,100.7,116.7z"/>
<path d="M241.5,310.6c-0.5,1.3-1.5,2.3-2.7,2.8c-2,1-3.4,2.9-3.7,5.1c-0.1,0.6-0.3,1.3-0.6,1.9c-0.2,0.6-0.8,1-1.4,0.8c0,0,0,0,0,0
	c-0.5-0.1-0.9-0.6-0.8-1.1c0,0,0,0,0-0.1c0.1-4.3,3-8.1,7.1-9.3C240.1,310.5,240.8,310.5,241.5,310.6z"/>
<path d="M230.9,314.8c-0.3,2.3-1.2,4.5-2.6,6.5c-0.2,0.2-0.5,0.3-0.7,0.2c-0.2-0.2-0.3-0.5-0.3-0.7c0.2-0.8,0.5-1.6,0.9-2.3
	c0.5-1,1.1-2,1.7-2.9C230,315.3,230.3,315.2,230.9,314.8z"/>
<path d="M249.6,320.3c0.2-0.3,0.7-0.4,1-0.2c0.1,0.1,0.2,0.2,0.2,0.3c0.9,1.4,1.2,3,1,4.6c-0.1,0.3-0.3,0.5-0.6,0.5
	c-0.3,0.1-0.6,0-0.8-0.2c-0.2-0.3-0.4-0.7-0.4-1.2C249.8,322.9,249.7,321.6,249.6,320.3z"/>
<path d="M92.4,213.6l-2.1,5.8h-0.9c-0.7-1.9,0-3.5,1-5.1C90.7,213.6,91.6,213.2,92.4,213.6C92.4,213.6,92.4,213.6,92.4,213.6z"/>
<path d="M93.2,226.5c-0.1,1.5-0.6,3-1.5,4.3c-0.2,0.3-0.8,0.3-1.3,0.3C90.7,229.2,91.7,227.5,93.2,226.5z"/>
<path d="M56.1,220.7c0.6-0.6,1.2-0.6,1.6,0.1c0.4,0.8,0.8,1.6,1.1,2.4c0.1,0.3,0,0.6-0.3,0.7c-0.3,0.1-0.5,0.1-0.8-0.1
	C56.8,223.1,56.2,222,56.1,220.7z"/>
<path d="M104.6,202.5l-4.3,2.9c-0.1-0.1-0.1-0.2-0.2-0.2c0.9-1,1.8-2,2.7-2.9c0.4-0.4,1.1-0.5,1.6,0
	C104.5,202.3,104.6,202.4,104.6,202.5z"/>
<path d="M59.6,218.7c0.4,0.3,0.8,0.6,1.1,1c0.2,0.4,0.3,0.8,0.3,1.2c0.1,0.5,0.6,1.1-0.1,1.4s-1.1-0.4-1.4-1
	C59.2,220.5,59.2,220.4,59.6,218.7z"/>
<path d="M376.3,318.9c1.2,0.1,2.3,0.8,3.1,1.7c1.2,1.1,1.9,2.7,2,4.3c0.1,1,0.2,2,0.4,3c0.3,0.7,0.1,1.5-0.5,2
	c-0.6,0.6-1.6,0.7-2.3,0.3c-0.8-0.5-1.6-1.2-2.2-2c-1.4-2-2.3-4.3-2.8-6.7C373.7,319.6,374.1,319,376.3,318.9z M376.3,320.7
	c0.1,3.1,1.8,6.6,3.7,7.7c0.1-0.4,0.2-0.8,0.2-1.2c-0.2-1.3-0.5-2.5-0.9-3.8C378.9,322,377.8,321.2,376.3,320.7L376.3,320.7z"/>
<path d="M397.7,358.2c0.9,1.3,1.8,2.6,2.7,3.9c0.2,0.3,0.4,0.7,0.4,1.1c0,0.3-0.3,0.9-0.6,1c-0.4,0-0.9-0.1-1.2-0.5
	c-0.8-1.3-1.4-2.7-2-4.1C396.6,358.9,396.6,358.3,397.7,358.2z"/>
<path d="M382.2,332.5c0.1-1.9,0.3-3.5,0.4-5.3c0.7-0.5,1.2,0,1.5,0.7c0.5,1.2,0.5,2.6,0,3.8c-0.1,0.6-0.7,1.1-1.4,0.9
	C382.5,332.7,382.3,332.6,382.2,332.5z"/>
<path d="M393,354.9c0.7-1.7,1.9-1.8,3.3-1.6C396.3,354.7,394.6,355.6,393,354.9z"/>
<path d="M383.4,334.3c0-0.5,0.1-0.9,0.8-0.8c0.2,0,0.4,0.3,0.4,0.5C384.4,334.6,384,334.5,383.4,334.3z"/>
<path d="M333.7,176.6c0,0.9-0.5,1.2-1.3,1.2c-1-0.1-1.9-0.1-2.9,0c-0.9,0-1.8,0.2-2.6,0.6c-2.3,1.4-4.2,0.6-6.2-0.5
	c-0.1-0.6,0-1,0.6-1c0.6,0,1.3,0,1.9,0.3c1.1,0.5,2.5,0.4,3.5-0.3c1.9-1.2,3.9-0.7,6-0.6C333.1,176.1,333.4,176.4,333.7,176.6z"/>
<path d="M317.1,176.8c-1.4-1-2.5-2.5-4.3-1.6c-0.6-0.8-0.2-1.2,0.3-1.6c1-0.7,1.9-0.6,3.2,0.3C317.2,174.6,317.4,175.2,317.1,176.8z
	"/>
<path d="M339.8,189.1c0.1,1.1,0,2.1,0,3.2c-0.2,0.5-0.5,0.9-1,1.2c-0.5,0.3-1.1,0-1-0.5c0.2-1.2,0.6-2.4,1-3.5
	C338.8,189.3,339.3,189.3,339.8,189.1z"/>
<path d="M336.4,195.5c0.2,1.6-0.8,2.2-3.2,1.9C333.1,196,333.8,195.5,336.4,195.5z"/>
<path d="M269.7,152.8c1.7-0.8,2.4-0.8,5-0.4C273.3,153.7,271.2,153.8,269.7,152.8z"/>
<path d="M344.3,184.1c-0.4,0.6-0.7,1-1,1.5s-0.8,0.8-1.4,0.4s-0.4-1-0.1-1.4c0.3-0.4,0.7-0.7,1.2-1
	C343.8,183,344.1,183.5,344.3,184.1z"/>
<path d="M232.1,178.1c1.6-0.9,3-0.3,3.5,1.5C234,180.4,233,180,232.1,178.1z"/>
<path d="M243.6,293.5c1-1.2,1.2-1.2,2-0.5l7.7,6.1c0.8,0.6,1,1.3,0.5,1.8c-0.5,0.5-1.3,0.4-1.7-0.1c0,0,0,0,0,0
	c-1.1-0.9-2.1-1.9-3.3-2.8s-2-1.7-3.1-2.4C244.8,295,244.1,294.3,243.6,293.5z"/>
<path d="M256.7,262.5c0.4-3.3,3.3-10.2,4.7-11.2c1,0.9,1.1,1.8,0.4,3c-1.2,2.2-2.2,4.6-3.3,6.9C258.1,262,257.9,262.8,256.7,262.5z"
	/>
<path d="M275,261.2c0,0.1,0.2,0.6,0.3,1c0.2,0.4,0.3,0.8,0.3,1.2c0,0.3-0.2,0.7-0.5,0.8c-0.3,0.1-0.7,0.1-0.9-0.2
	c-0.4-0.7-0.7-1.4-0.9-2.2c0-0.5,0-1.1,0.1-1.6c0-0.6,0.3-1,0.9-0.8c0.4,0.1,0.6,0.6,0.9,0.9C275.2,260.4,275.1,260.6,275,261.2z"/>
<path d="M271.8,269.2c-0.6,1.3-1.5,0.8-2.1,0.6c-0.5-0.2-0.9-0.6-1.2-1.1c-0.1-0.3,0-0.8,0.3-1.1c0.3-0.2,0.7-0.2,1,0
	C270.5,268,271.1,268.6,271.8,269.2z"/>
<path d="M307.9,286c0.4-0.6,0.8-0.9,1.3-0.4c1.3,1.3,3,1.8,4.6,2.6c0.6,0.3,1.2,0.6,1.9,1c-0.5,0.8-1.4,1.1-2.2,0.7
	C311.2,289.2,309.1,288.5,307.9,286z"/>
<path d="M297.8,299.2c2,0,3.7,1,5.4,1.8c-0.2,0.9-1.1,1.4-2,1.2c-0.8-0.1-1.6-0.4-2.4-0.7C297.7,301,297.5,300.8,297.8,299.2z"/>
<path d="M98.1,304c-0.4-1.7-0.5-3.4-0.4-5.1c0.1-2.7,0.3-5.4,0.3-8.1c0.1-2.1-0.1-4.2-0.4-6.3c-0.1-0.9-0.1-1.8,0.1-2.8
	c0.4-1.9-0.2-3.8,0-5.7c0-0.7,0.4-1.3,0.5-2c0.2-1.3,0.3-2.6,0.1-3.9c-0.8-3.2-0.1-6.4-0.2-9.5c0-2.5,0.2-5,0.2-7.4
	c0-2.2,0.3-4.4,0.3-6.5c0-5.3-0.1-10.6-0.1-15.9c0-0.8,0.1-1.6,0.2-2.6l1,0.4c0.1,2.1,0.1,4.1-0.1,6.2c-0.4,2.8,0.4,5.4,0.4,8.1
	s0,5.4-0.1,8.1c-0.1,4.6-0.1,9.2-0.3,13.7c-0.1,2.5,0.1,5,0,7.4c0,0.2,0,0.5,0,0.7c-0.5,2.2-0.5,4.4,0,6.5c0.1,0.7,0.1,1.3,0,2
	c-1,3.8-0.5,7.6-0.6,11.4c0,1.7-0.2,3.3-0.3,5c0,1.1,0,2.2,0,3.2v3L98.1,304z"/>
<path d="M105.3,265c0.1,2.7,0.8,5.2,0.5,8s0.1,5.9,0.1,8.9c0,0.8-0.1,1.5-0.1,2.3c0,2.6,0.2,5.1,0.1,7.7c-0.1,1.7-0.4,3.4-0.7,5.1
	c-0.2,1.3-0.4,2.7-0.6,4c-0.1,0.4-0.3,0.8-0.7,1c0-1.9,0-3.8,0-5.8c0-1.3,0.3-2.6,0.3-3.9c0.1-5.1,0.2-10.1,0.2-15.2
	c0-1.7-0.2-3.5-0.1-5.2c0.1-2.3,0.3-4.7,0.5-7L105.3,265z"/>
<path d="M102,272.2c0.4,3.4,0.5,6.8,0.4,10.3c-0.2,3.4,0.4,6.9,0,10.3s-0.8,6.8-1.2,10.2h-0.4c-0.2-0.7-0.4-1.5-0.5-2.2
	c0-2.5,0.1-5,0.3-7.5s0.3-5.2,0.4-7.8c0.1-2-0.1-4,0.1-6c0.2-1.6,0.2-3.3,0-4.9c0-0.8,0.1-1.6,0.4-2.3L102,272.2z"/>
<path d="M104.3,240.4c-0.1-1.4-0.3-2.8-0.3-4.2c0.1-2.8-0.3-5.7,0.5-8.5c0.3-1.3-0.1-2.8-0.1-4.3c0-1.7-0.1-3.5-0.1-5.2
	c0-0.3,0.5-0.5,0.8-0.8c0.2,0.2,0.5,0.5,0.5,0.6c-0.4,2.7,0.3,5.3,0.4,8c0,0.3,0,0.7-0.1,1c-0.4,2.1-0.5,4.3-0.3,6.4
	c0.1,2.3-0.1,4.6-0.7,6.8L104.3,240.4z"/>
<path d="M101.8,270.2c-0.1-0.4-0.5-0.8-0.4-1.1c0.1-1.7-0.3-3.4,0.1-5.1c0.1-0.3,0.1-0.6,0.1-0.9c-0.3-1.7-0.4-3.5-0.3-5.2
	c0-2.1-0.4-4.1-0.6-6.2c-0.1-0.8,0.1-1.6,0.1-2.5c0-1.9-0.1-3.8-0.1-5.7c0-0.6,0-1.2,1.1-1.3C101.7,251.6,102.9,260.9,101.8,270.2z"
	/>
<path d="M102.7,221.5c-0.1,1-0.2,1.9-0.2,2.9s0,2.1,0,3.2c0,2.5,0.1,5,0,7.5c-0.1,0.7-0.3,1.3-0.6,1.9c-0.8-2.8-0.3-5.5-0.4-8.2
	c-0.1-1.7-0.2-3.4-0.2-5.2C101.1,222.3,101.2,222.3,102.7,221.5z"/>
<path d="M104.9,252.4v3.4h-0.3v-3.4L104.9,252.4z"/>
<path d="M241.6,60.4c0,1.4-1,1.9-1.9,2.5c-1.4,0.7-2.6,1.9-3.3,3.4c-1.4-0.4-1.8-1-1.3-2.1C236.4,61.8,238.9,60.3,241.6,60.4z"/>
<path d="M219.8,76.1c1.3,0,2,0.9,2,2.4c0,1.2-0.8,1.8-2.1,1.8c-1.2-0.3-2-1.3-2.2-2.5C217.6,76.8,218.5,76.1,219.8,76.1z"/>
<path d="M255.7,56.2c-0.4,0.5-0.6,1.2-1.2,1.5c-1.4,0.8-2.9,1.3-4.4,2c-0.5,0.3-1.2,0.2-1.5-0.3c-0.1-0.1-0.1-0.2-0.1-0.3
	c2-1.5,4.1-3,6.7-3.1L255.7,56.2z"/>
<path d="M195.7,61.5c2-2.1,4.2-1,6.3-1c-0.2,0.2-0.4,0.5-0.6,0.6c-1.4,0.4-2.8,0.8-4.3,1.1C196.8,62.3,196.4,61.9,195.7,61.5z"/>
<path d="M221.3,30.4c-0.2-0.7-0.4-1.1,0.3-1.7c1.7-1.7,2.9-3.8,3.6-6c0.2-0.6,0.5-1.2,0.8-1.7c1.3,0.3,1.2,1.4,1.2,2.1
	c-0.2,2.4-1.1,4.5-3.4,5.7C222.9,29.2,222.1,29.7,221.3,30.4z"/>
<path d="M201.4,54.2c-0.1-0.3-0.4-0.6-0.4-0.9c0.1-2.6,0.2-5.3,1.9-7.5c0.6-0.7,1.3-1.4,2.1-1.9c0.2-0.1,0.7,0.1,1,0.3
	c0.1,0.1,0,0.7-0.2,0.9c-2.7,1.8-3.1,4.8-3.6,7.6c-0.1,0.5-0.1,1-0.2,1.5L201.4,54.2z"/>
<path d="M206.7,48.7c0,0.4-0.1,0.8-0.3,1.2c-0.6,1-1.3,1.9-2,2.9C203.7,51.1,204.6,49.3,206.7,48.7z"/>
<path d="M181.4,165.8c0.5-0.3,1-0.6,1.6-0.8c1.9-0.7,3.5-2,4.5-3.8c0.7-1.1,1.5-2.2,2.4-3.4c1,0.4,1.3,0.9,0.8,1.7
	c-0.7,1.2-1.4,2.5-2.1,3.7c-0.4,0.6-0.9,1.1-1.3,1.7c-1,1.5-2.6,1.8-4.2,2.1C182.4,167.1,181.8,166.9,181.4,165.8z"/>
<path d="M167.4,140.5l2.4,5c-0.9,1-0.9,1-2.5-0.4c-0.2,0.6-0.4,1.2-0.7,1.8c-0.1,0.5-0.4,0.9-0.7,1.2c-0.4,0.2-0.9,0.3-1.3,0.1
	c-0.5-0.2-0.4-0.7-0.3-1.2c0.5-1.7,0.9-3.3,1.2-5C165.9,140.6,165.9,140.6,167.4,140.5z"/>
<path d="M156.8,143.3c0.6,0,1,0.6,1,1.2c0,0.1,0,0.2-0.1,0.3c-0.4,2.3-1.2,4.6-2.3,6.6l-1.1-0.3c0.7-2.4,1.3-4.7,2-7
	C156.4,143.8,156.6,143.5,156.8,143.3z"/>
<path d="M97.7,154.9c1.4,0.2,1,1.1,0.9,1.8c-0.1,2.5-0.5,5-0.3,7.5c0.3,4.6-0.6,9.1-0.6,13.7c0,2.8-0.2,5.6-0.2,8.4
	c0,0.7,0.1,1.4,0.3,2c0.2,0.8-0.1,1.4-0.9,1.9c-0.5-1.4-0.7-3-0.7-4.5c0.2-2.7,0.3-5.5,0.3-8.2c-0.1-3.5,0-7.1,0.5-10.6
	c0.2-1.9,0.3-3.8,0.3-5.7c0-0.8-0.2-1.5-0.3-2.3C96.8,157.5,97.1,156.1,97.7,154.9z"/>
<path d="M99.7,152.6l1.2,0.5c0.1,1.6,0.2,3,0.2,4.4c-0.1,3-0.5,6-0.4,9c-0.1,2.1-0.1,4.1,0.1,6.2c0.5,3.9,0.1,7.9,0.2,11.8
	c0,2,0,4,0,6c0.1,0.9-0.3,1.7-1.1,2.1c-0.1-0.4-0.2-0.7-0.2-1.1c0.1-3.1,0.2-6.2,0.3-9.3c0-0.9,0-1.9,0-2.9c-0.1-2-0.2-4-0.3-6.1
	c-0.1-3.6-0.2-7.3,0-10.9c0.1-2.1,0.3-4.1,0.3-6.2C99.9,154.9,99.8,153.8,99.7,152.6z"/>
<path d="M102.8,187.4c-0.2-0.5-0.3-1.1-0.3-1.6c0.4-4-0.3-8,0.4-12c0-0.5,0-1,0-1.4c-0.1-4.1-0.2-8.2-0.3-12.3c0-1.1,0-2.1,0-3.2
	c0-0.6,0.3-1.1,1-0.9s0.7,0.5,0.6,1.1c-0.5,2.7-0.6,5.5-0.4,8.2c0,3.2-0.1,6.5-0.1,9.7c-0.1,0.7-0.1,1.4,0,2.1
	c0.6,2.8,0.1,5.6-0.2,8.4l-0.2,2H102.8z"/>
<path d="M208.6,100.6c-0.7-2,0.3-4.9,2.5-7C210.2,96.1,209.4,98.5,208.6,100.6z"/>
<path d="M202.4,174.4c0.9-0.2,1.8-0.5,2.7-0.8c0.8-0.5,1.5-1.1,2.2-1.7C206.2,174.7,204.9,175.5,202.4,174.4z"/>
<path d="M224.6,137.6c1.3-0.3,2.3-1.1,2.9-2.3c0.2-0.3,0.4-0.6,0.8-0.7c0.3,0,1,0.3,1,0.4c0,1.2-0.6,2.3-1.5,3.1
	c-0.7,0.7-1.8,0.8-2.7,0.3C224.9,138.3,224.8,138,224.6,137.6z"/>
<path d="M310.2,224.4c0-1.5,2.2-4.7,4.5-6.5c0.1,0.1,0.2,0.2,0.2,0.2c-0.8,1.7-1.6,3.5-2.6,5.2C311.9,224.1,311.1,224.5,310.2,224.4
	z"/>
<path d="M237.9,242c0-1.2,0.9-2.2,2.1-2.2c0.3,0,0.5,0,0.8,0.1c1.4,0.6,2.5,1.7,3.2,3c0.5,1.1,0.1,2.5-1,3.1c-0.8,0.6-2,0.5-2.6-0.3
	c0,0,0,0,0-0.1c-0.7-0.8-1.4-1.7-2.1-2.7C238,242.6,237.9,242.3,237.9,242z M239.8,241.6c1.3,2.7,1.3,2.7,2.8,2
	C241.7,243,241.3,241.8,239.8,241.6L239.8,241.6z"/>
<path d="M175.9,234.3c0.3-2,0.6-3.9,2-5.5c0.3-0.5,0.9-0.7,1.4-0.4c0.5,0.2,0.7,0.8,0.5,1.3c0,0,0,0,0,0c-0.5,1.6-1.1,3.2-1.7,4.8
	c-0.1,0.3-0.2,0.7-0.5,1c-0.3,0.3-0.6,0.4-1,0.4c-0.3-0.1-0.5-0.5-0.7-0.9C175.9,234.9,175.9,234.6,175.9,234.3z"/>
<path d="M100.9,94.7v3.1c-1.2-0.1-1.2-1-1.3-1.6c-0.1-1-0.9-2,0.1-3.1L100.9,94.7L100.9,94.7z"/>
<path d="M104.3,97.7c0.2-1,0.4-2,0.6-2.9c1.3,0.4,1.6,0.9,1.4,2.2C106.1,97.9,106,97.9,104.3,97.7z"/>
<path class="st16" d="M221.7,57.5c1.4-0.8,1.8-0.8,2.8,0.3C222.7,59,222.3,59,221.7,57.5z"/>
<path class="st7" d="M188.1,106.3c-0.8,0.2-1.7-0.3-2-1.1c-0.8-1.4-1.1-2.9-1-4.5c0.3-2.7,0.8-5.4,1.3-8.1c0.3-1.8,0.7-3.5,1.1-5.2
	c0.5-1.3,1.1-2.6,1.9-3.8c0.4-0.9,1.3-1.5,2.3-1.5c1.1,0.3,1.9,1.1,2.1,2.2c0.3,1.2,0.5,2.5,0.6,3.8c-1.7-0.9-3.9-0.5-5.1,1
	c-1.1,1.1-1.7,2.6-1.9,4.2c-0.8,4-0.6,8.2,0.4,12.2C188,105.6,188,105.9,188.1,106.3z"/>
<path class="st7" d="M193.1,90c0.7,2.5,0.2,5.1-1.1,7.3c-0.2,0.3-0.6,0.4-0.9,0.4c-0.3-0.1-0.6-0.3-0.7-0.7c-0.5-2-0.3-4.2,0.5-6.1
	c0.3-0.8,1.1-1.2,1.9-1C193,89.9,193,89.9,193.1,90z"/>
<path class="st14" d="M101.4,139c1,1.6,0.5,2.6-1.7,3.2c-0.7-1.3-0.7-1.5,0.4-2.1c0.2-0.2,0.4-0.4,0.6-0.6
	C101,139.3,101.2,139.1,101.4,139z"/>
<path class="st14" d="M99.5,112.6c0.3-1.1,0.3-1.1,1.5-1.4C101.2,112.5,101.1,112.6,99.5,112.6z"/>
<path class="st17" d="M376.3,320.7c1.5,0.5,2.6,1.2,3,2.7c0.3,1.3,0.6,2.5,0.9,3.8c0,0.4-0.1,0.8-0.2,1.2
	C378.1,327.4,376.4,323.8,376.3,320.7z"/>
<path class="st7" d="M239.8,241.6c1.5,0.1,1.9,1.3,2.8,2C241.1,244.4,241.1,244.3,239.8,241.6z"/>
</svg>
